<?xml version="1.0" encoding="utf-8"?>
<!-- Generator: Adobe Illustrator 15.0.0, SVG Export Plug-In . SVG Version: 6.00 Build 0)  -->
<!DOCTYPE svg PUBLIC "-//W3C//DTD SVG 1.1//EN" "http://www.w3.org/Graphics/SVG/1.1/DTD/svg11.dtd">
<svg version="1.1" xmlns="http://www.w3.org/2000/svg" xmlns:xlink="http://www.w3.org/1999/xlink" x="0px" y="0px" width="300px"
	 height="300px" viewBox="0 0 300 300" enable-background="new 0 0 300 300" xml:space="preserve">
<g id="Layer_1">
	<g id="_x36_WnGWW.tif">
		<g id="XMLID_2_">
			<g>
				<path d="M54.491,142.234c0-2.58,2.53-2.65,5.01-2.77c2.19,1.81,4.64,3.36,4,8c-2.56,2.11-6.29,3.05-10,4
					c0.63,10.369,5.87,16.13,19,14c6.83-7.5,15.56-13.101,17-26c-1.91-0.43-1.81-2.86-5-2c-1.06,3.73,3.75,1.58,3,5
					c-6.44-5.06-10.63-14.26-22-12C60.59,131.435,54.201,137.284,54.491,142.234z M182.5,194.465c-0.119,4.119,1.74,6.26,1,11
					c-9.789,7.55-12.05,22.619-15,37c-0.67,0-1.329,0-2,0c0.95-8.881,5.261-16.2,0-25c-3.51,3.819-2.979,11.689-8,14
					c0.15-9.19,12.091-20.471,2-25c-4.84,2.88,0.36,4.06-2,8c-7.289-7.73,10.95-20.211,0-26c-1.489,1.51-1.609,4.39-2,7
					c-27.06,0.939-38.47,17.529-58,26c-13.2-1.341-17.47-0.671-27-4c5.81-16.53,11.2-33.471,13-54c7.75-11.971,18.36-19.4,38-12
					c4.32,1.63,7.1,6.5,12,7c2.48,0.25,5.15-1.551,7-1c8.37,2.5,10.92,11.27,14,17c5.131-9.32,1.711-21.591-3-29
					c-10.49,15.02-40.439,4.46-44-9c-0.71-5.37,1.14-8.19,2-12c-0.28-2.1-2.67,1.45-4-1c-2.26,0.74-0.39,5.61-1,8
					c-3.16-0.49-3.53,1.8-7,1c3.4-2.45-0.13-5.4-1-9c-20.28-5.06-33.79,0.22-43,11c4.53-0.15,10.35-7.64,21-5
					c2.8-1.29-3.15-2.07-2-5c6.43,3.57,8.72,11.28,17,13c-0.44,18.4-15.53,36.44-34,27c-1.39,1.609-2.83,3.17-4,5
					c4.47,4.199,10.8,6.529,12,14c-1.44,1.319-2.52,4.569-5,2c-1.65,6.649,10.79,12.949,2,17c1.45,7.55,0.49,17.5,10,17
					c1.59,6.26-4.09,5.25-3,11c-4.29-2.271-7.41,0.31-12-1c-1.11,4.779,3.11,4.22,2,9c-4.09-0.421-4.04,3.289-9,2
					c-5.08-4.921-8.75-11.25-9-21c-2.9-2.79-2.59,3.279-7,2c7.37-15.511-3.71-27.48-10-38c-0.24-2.58-1.72,1.369-4,0
					c-4.57-6.301-4.26-16.23-3-26c-3.92,0.8-10.67,2.31-13-1c-1.82-12.581,4.61-17.38,12-23c-4.7-16.85,18.77-22.45,15-45
					c1.34-1,1.96-2.7,4-3c-0.63-2.37-6.16,0.16-7-2c4.05-12.23,29.47-6.07,35,1c-0.61-9.3,6.26-14.09,4-22
					c1.94,5.73,14.04,1.29,14,9c15.71-11.11,37.15-21.31,65-17c1.17,1.83,2.61,3.39,4,5c-6.2,1.47-14.16,1.18-18,5
					c4.45,3.84,7.73,2.44,10,6c3.35,5.25-1.21,11.6,0,17c1.63,7.28,10.14,6.37,9,13c6.52,0.95,9.64,3.99,17,6
					c0.671,9.41,9.011,19.6,11,31c0.171-0.03,0.341-0.05,0.5-0.07c0.15,0.42,0.36,0.82,0.62,1.18c-0.34-0.02-0.71-0.05-1.12-0.11
					c4.521,3.57,4.521,8.84,10,13c0.311,3.319,0.4,4.069,0.28,5.819c-0.49,0.73-0.78,1.63-0.78,2.681
					c0,0.899,0.29,1.829,0.801,2.649c-0.4-0.03-0.84-0.07-1.301-0.149c2.36,9.909,5.141,19.399,12.881,23.93
					c-1.25,1.25-2.431,2.59-3.49,4.04c-0.23-0.891-0.33-1.91-0.391-2.97C193.641,191.604,190.171,195.135,182.5,194.465z
					 M193.5,184.465c-1.88-2.45-3.77-4.891-4-9c-6.43,3.21-9.88-2.811-13-6c1.9-3.24,4.101-1,9-2c-0.31-5.641,1.771-8.891,1-15
					c-13.329-8-10.979-31.681-24-40c0.561-2.04,3.011-1.96,1-4c-11.689-3.64-20.899-9.76-25-21c2.51-3.54,2.35-10.27,1-15
					c-2.96-2.71-7.32-4.02-11-6c0.25-8.42,11.89-5.45,17-9c-18.13-5.59-40.07,0.87-51,9c1.18,0.16,2.84-0.17,3,1
					c-10.32-1.81-12.64,5.5-20,9c-2.54-2.44,2.11-2.13,1-6c-2.74-1.6-6.04-2.62-10-3c-0.01,7.99-4.25,11.75-5,19
					c-7.1-4.54-25.89-11.94-33-4c4.61,1.23,8.87-3.06,12,0c-0.58,5.09-7.76,3.58-10,7c3.51,19.88-12.57,25.31-13.94,37.34
					c-0.09,0.22-0.12,0.44-0.06,0.66c0.01-0.22,0.03-0.44,0.06-0.66c0.57-1.35,3.71-2.38,3.94-0.34c-1.51,13.21-21.78,12.81-16,30
					c5.5,0.829,6.83-2.5,12-2c2.84,11.6-4.76,17.289,3,25c-0.05-1.721,0.77-2.561,2-3c3.74,13.59,16.26,18.399,15,37
					c7.05,2.22,4.13,22.34,14,25c3.97-1.36-0.23-10.9,4-12c5.12,2.149,12.32,0.34,13-5c-10.35-0.711-10.31-14.671-10-23
					c1.38-0.04,2.2,0.47,3,1c-1.35-4.171-10.54-14.271-1-17c-0.6-6.4-6.81-7.19-10-11c-3.62,1.71-8.17,2.489-14,2
					c-2.03-6.761-13.71-20.2-4-26c-5.14,9.7,5.97,13.33,3,21c3.76,1.81,5.81,3.409,11,2c-0.29-6.431-9.48-9.61-9-17
					c0.44-6.721,5.51-4.561,10-10c4.97-6.02,3.6-14.15,8-19c2.06,0.27,0.24,4.43,3,4c2.44-5.9,8.68-7.99,14-11
					c-4.76-5.91-12.6-8.73-16-16c9.52,0.81,9.27,11.4,19,12c-0.08,1.74,0.22,3.11,1,4c27.01,9.81,64.71,0.71,80-10
					c-2.72,7.28-12.25,7.75-18,12c3.13,1.2,4.61,4.05,7,6c1.57-1.43,0.79-5.21,4-5c0.96,4.96-2.67,5.33-3,9c7.89,2.22,3.43-7.9,9-8
					c2.431,8.35-6.74,9.58-5,14c9.66,3.29,5.99-13.71,9-18c5.04,7.85,0.211,20.07-7,22c2.461,5.21,2.9,12.43,6,17
					c1.94-2.391-0.869-9.541,4-9c-1.18,9.29-0.579,9.9,2,15c-1.89,0.22-2.21-1.131-4-1c-1.25,3.42-0.72,8.619-3,11
					c11.65,2.75,6.561,24.31,3,32c9.28,1.239,4.5,12.729,10,19c-1.489-11.16,6.11-13.221,9-20c2.511-2.801-4.59-13.44,1-16
					c1.79,1.539,0.801,5.859,4,6C187.271,189.574,192.91,189.534,193.5,184.465z M182.5,169.465c-1.31,3.09,2.841,5.67,4,3
					C184.57,172.055,185.711,168.584,182.5,169.465z M158.5,177.465c2.311,3.029-0.779,11.439,5,11
					C163.45,183.824,162.29,175.055,158.5,177.465z M155.5,193.465c3.711-17.011-4.56-29.891-16-35c-0.75,3.42,4.06,1.27,3,5
					c-11.5-2.551-20.54-12.71-32-12c0,1.329,0,2.67,0,4c3.67,1.5,7.85,2.05,9,1c0.05,1.72-0.77,2.56-2,3c-2.83-0.171-4.17-1.83-7-2
					c-0.59,2.069,1.24,6.569-1,7c-3.99,0.989-3.01-2.99-7-2c-0.31,3.02,1.11,7.779-2,8c-3.25,0.579-4.65-0.681-7-1
					c0.51,4.22-5.22,7.39-8,5c3.84-0.16,5.13-2.87,7-5c-2.33-0.33-4.31-1.03-5-3c1.74-0.08,3.11,0.22,4,1c-0.56-2.44-2.35-3.65-4-5
					c-5.66,17.01-4.77,40.569-15,53c17.6,7.069,28.48,3.529,42-4c-1.37-4.301-4.39-6.94-8-9c-7.7,1.3-8.23,9.77-12,15
					c-1.51-3.16-5.07-4.261-7-7c-4.39-0.021-6.3,7.649-10,5c3.5-2.171,5.06-6.271,11-6c2.53,1.13,2.51,4.819,7,4
					c0.95-8.051,5.29-12.711,15-12c0.07,2.93,2.29,3.71,4,5c-1.26-12.15,8.09-18.83,15-12c0.48-5.19,4.43-6.9,6-11
					c-3.06-1.601-4.02-5.311-8-6c-4.42,1.25-6.9,4.43-9,8c-4.81,1.47-4.17-2.49-8-2c-5.83,1.84-3.94,11.39-10,13
					c2.82-7.65,5.98-17.551,18-13c0.91-5.431,5.46-7.2,11-8c4.92,3.079,7.18,8.819,12,12c0.55-1.45-1.17-5.171,1-5
					c6.94-0.94,10.34,1.659,12,6c-4.859-0.471-4.109-6.551-11-5c0.7,5.029-1.7,6.97-1,12
					C148.17,196.135,151.591,194.555,155.5,193.465z M145.5,150.464c10.95-4.09,3.82-18.92-3-23c-2.31,4.65-9.06,0-12-1
					c3.15-10.18-9.85-0.66-17-3c-1.52,3.48-3.8,6.2-4,11C112.55,143.754,130.951,155.904,145.5,150.464z M140.5,195.465
					c0.44-3.44-0.4-5.601-1-8c-2,0-4,0-6,0c-0.89,4.109-1.76,8.239-5,10c-3.76,0.76-0.69-5.311-5-4c-7.73,0.27-6.28,9.72-8,16
					C125.291,206.254,129.681,197.645,140.5,195.465z M108.5,162.465c0-4,0-8,0-12c-5.66-0.66-9.28,0.72-12,3
					C100.32,156.645,102.03,161.935,108.5,162.465z M99.5,169.465c3.74-5.5-0.17-6.62-1-13c-1.9-0.431-2.51-2.15-5-2
					c0.18,2.18-0.82,3.18-3,3C90.221,164.744,93.26,168.704,99.5,169.465z M51.5,167.465c2.06-2.921,3.22-3.761,2-8
					c-3.22-0.221-4.23,1.77-8,1C46.161,164.145,49.19,165.444,51.5,167.465z M53.5,155.465c-1.17-0.171-1.09-1.58-1-3
					c-3.06,0.72-3.64-1.021-6-1c-0.58,2.09-2.48,2.85-2,6C47.371,159.834,51.811,157.374,53.5,155.465z M51.5,150.464
					c-1.37-4.1,2.41-8.16,0-10C50.8,143.564,43.541,150.524,51.5,150.464z"/>
				<path fill="#D39A15" d="M189.5,175.465c0.23,4.109,2.12,6.55,4,9c-0.59,5.069-6.229,5.109-8,9c-3.199-0.141-2.21-4.461-4-6
					c-5.59,2.56,1.511,13.199-1,16c-2.89,6.779-10.489,8.84-9,20c-5.5-6.271-0.72-17.761-10-19c3.561-7.69,8.65-29.25-3-32
					c2.28-2.381,1.75-7.58,3-11c1.79-0.131,2.11,1.22,4,1c-2.579-5.101-3.18-5.711-2-15c-4.869-0.54-2.06,6.61-4,9
					c-3.1-4.57-3.539-11.791-6-17c7.211-1.93,12.04-14.15,7-22c-3.01,4.29,0.66,21.29-9,18c-1.74-4.42,7.431-5.65,5-14
					c-5.569,0.1-1.109,10.22-9,8c0.33-3.67,3.96-4.04,3-9c-3.21-0.21-2.43,3.57-4,5c-2.39-1.95-3.87-4.8-7-6
					c5.75-4.25,15.28-4.72,18-12c-15.29,10.71-52.99,19.81-80,10c-0.78-0.89-1.08-2.26-1-4c-9.73-0.6-9.48-11.19-19-12
					c3.4,7.27,11.24,10.09,16,16c-5.32,3.01-11.56,5.1-14,11c-2.76,0.43-0.94-3.73-3-4c-4.4,4.85-3.03,12.98-8,19
					c-4.49,5.44-9.56,3.28-10,10c-0.48,7.39,8.71,10.569,9,17c-5.19,1.409-7.24-0.19-11-2c2.97-7.671-8.14-11.301-3-21
					c-9.71,5.8,1.97,19.24,4,26c5.83,0.489,10.38-0.29,14-2c3.19,3.81,9.4,4.6,10,11c-9.54,2.729-0.35,12.829,1,17
					c-0.8-0.53-1.62-1.04-3-1c-0.31,8.329-0.35,22.289,10,23c-0.68,5.34-7.88,7.149-13,5c-4.23,1.1-0.03,10.64-4,12
					c-9.87-2.66-6.95-22.78-14-25c1.26-18.601-11.26-23.41-15-37c-1.23,0.439-2.05,1.279-2,3c-7.76-7.711-0.16-13.4-3-25
					c-5.17-0.5-6.5,2.829-12,2c-5.78-17.19,14.49-16.791,16-30c-0.23-2.04-3.37-1.01-3.94,0.34c1.37-12.03,17.45-17.46,13.94-37.34
					c2.24-3.42,9.42-1.91,10-7c-3.13-3.06-7.39,1.23-12,0c7.11-7.94,25.9-0.54,33,4c0.75-7.25,4.99-11.01,5-19
					c3.96,0.38,7.26,1.4,10,3c1.11,3.87-3.54,3.56-1,6c7.36-3.5,9.68-10.81,20-9c-0.16-1.17-1.82-0.84-3-1
					c10.93-8.13,32.87-14.59,51-9c-5.11,3.55-16.75,0.58-17,9c3.68,1.98,8.04,3.29,11,6c1.35,4.73,1.51,11.46-1,15
					c4.1,11.24,13.31,17.36,25,21c2.011,2.04-0.439,1.96-1,4c13.021,8.32,10.671,32,24,40c0.771,6.109-1.31,9.359-1,15
					c-4.899,1-7.1-1.24-9,2C179.62,172.654,183.07,178.675,189.5,175.465z M175.5,181.465c-1.329,0-2.67,0-4,0
					c5.11,6.92-9.859,13.789-1,18C173.971,195.265,174.471,188.095,175.5,181.465z M131.5,109.464c6.95-1.72,8.68-8.65,8-18
					c-4.37,0.96-5.69,4.97-8,8c1.96,3.1,5-3.44,6-1C137.13,103.764,131.57,103.875,131.5,109.464z M116.5,109.464
					c1.5-6.83-3.59-7.07-6-10c0.31-2.35,4.74-0.59,4-4c-4.5-0.5-6.97,1.03-6,6c1.77,1.9,4.23,3.1,6,5c-11.19,5-21.61-9.54-32-2
					C95.371,104.114,103.92,112.784,116.5,109.464z M118.5,85.464c-5.33-2.97-8.23,5.09-13,6c1.79-9.21,8.44-13.56,9-24
					c-8.33,5.4-19.03,13.56-22,21c7.16-2.85,12.71-12.62,18-14c-3.65,4.91-9.71,15.01-6,21
					C109.8,92.764,114.201,89.165,118.5,85.464z M50.5,205.465c1.75-1.83,4.5-12.04-1-12C49.28,196.715,46.431,204.084,50.5,205.465
					z M29.5,121.464c3.52-6.15,11.33-8,10-19c-7.41,4.26-8,15.34-14,21c4.44,1.46,10.89-1.09,14-4
					C36.371,117.064,32.3,120.404,29.5,121.464z"/>
				<path fill="#FFFFFF" d="M204,171.965c-5.829,0-6.38,8.18-1.67,9.739c-0.04,0.99-0.069,1.98-0.119,2.971
					c-0.631,0.56-1.24,1.13-1.83,1.72c-7.74-4.53-10.521-14.021-12.881-23.93c0.461,0.079,0.9,0.119,1.301,0.149
					c0.89,1.46,2.449,2.54,4.199,2.351c5.211-0.561,8.271-3.631,8.801-8.851c0.18-1.78,0.1-3.58,0.239-5.37
					c0.051-0.63,0-1.07,1.29-1.46c6.15-1.88,3.53-11.53-2.659-9.64c-3.181,0.97-5.721,2.87-7.171,5.58c-0.6,1.09-1.01,2.3-1.22,3.65
					c-0.3,1.9-0.319,3.79-0.37,5.72c-0.01,0.29-0.01,0.46-0.01,0.58c-1.29,0.35-2.41,1.06-3.12,2.109c0.12-1.75,0.03-2.5-0.28-5.819
					c-5.479-4.161-5.479-9.431-10-13c0.41,0.06,0.78,0.09,1.12,0.11c0.801,1.12,2.091,1.89,3.88,1.89c0.75,0,1.421-0.14,2-0.39
					c1.221-0.5,2.04-1.47,2.48-2.61c1.12-2.95-0.37-7-4.48-7c-4.069,0-5.569,3.99-4.5,6.93c-0.159,0.02-0.329,0.04-0.5,0.07
					c-1.989-11.4-10.329-21.59-11-31c-7.359-2.01-10.479-5.05-17-6c1.14-6.63-7.37-5.72-9-13c-1.21-5.4,3.35-11.75,0-17
					c-2.27-3.56-5.55-2.16-10-6c3.84-3.82,11.8-3.53,18-5c-1.39-1.61-2.83-3.17-4-5c-27.85-4.31-49.29,5.89-65,17
					c0.04-7.71-12.06-3.27-14-9c2.26,7.91-4.61,12.7-4,22c-5.53-7.07-30.95-13.23-35-1c0.84,2.16,6.37-0.37,7,2
					c-2.04,0.3-2.66,2-4,3c3.77,22.55-19.7,28.15-15,45c-7.39,5.62-13.82,10.42-12,23c2.33,3.31,9.08,1.8,13,1
					c-1.26,9.77-1.57,19.699,3,26c2.28,1.369,3.76-2.58,4,0c6.29,10.52,17.37,22.489,10,38c4.41,1.279,4.1-4.79,7-2
					c0.25,9.75,3.92,16.079,9,21c4.96,1.289,4.91-2.421,9-2c1.11-4.78-3.11-4.221-2-9c4.59,1.31,7.71-1.271,12,1
					c-1.09-5.75,4.59-4.74,3-11c-9.51,0.5-8.55-9.45-10-17c8.79-4.051-3.65-10.351-2-17c2.48,2.569,3.56-0.681,5-2
					c-1.2-7.471-7.53-9.801-12-14c1.17-1.83,2.61-3.391,4-5c18.47,9.439,33.56-8.601,34-27c-8.28-1.72-10.57-9.43-17-13
					c-1.15,2.93,4.8,3.71,2,5c-10.65-2.64-16.47,4.85-21,5c9.21-10.78,22.72-16.06,43-11c0.87,3.6,4.4,6.55,1,9
					c3.47,0.8,3.84-1.49,7-1c0.61-2.39-1.26-7.26,1-8c1.33,2.45,3.72-1.1,4,1c-0.86,3.81-2.71,6.63-2,12
					c3.56,13.46,33.51,24.02,44,9c4.711,7.41,8.131,19.68,3,29c-3.079-5.73-5.629-14.5-14-17c-1.85-0.551-4.52,1.25-7,1
					c-4.9-0.5-7.68-5.37-12-7c-19.64-7.4-30.25,0.029-38,12c-1.8,20.529-7.19,37.47-13,54c9.53,3.329,13.8,2.659,27,4
					c19.53-8.471,30.94-25.061,58-26c0.391-2.61,0.511-5.49,2-7c10.95,5.789-7.289,18.27,0,26c2.36-3.94-2.84-5.12,2-8
					c10.091,4.529-1.85,15.81-2,25c5.021-2.311,4.49-10.181,8-14c5.261,8.8,0.95,16.119,0,25c-55,0-110,0-165,0
					c0-63.33,0-126.67,0-190c73.67,0,147.33,0,221,0c0,63.33,0,126.67,0,190c-18,0-36,0-54,0c2.95-14.381,5.211-29.45,15-37
					c0.74-4.74-1.119-6.881-1-11c7.671,0.67,11.141-2.86,14-7c0.061,1.06,0.16,2.079,0.391,2.97c-0.25,0.33-0.48,0.67-0.71,1.01
					c-2.65,3.95,1.689,8.11,5.649,7.34c0.101-0.02,0.19-0.05,0.29-0.069c4.301,0.47,7.58-2.5,9.04-6.711
					c0.28-0.789,0.471-1.609,0.63-2.439c2.21-1.67,4.551-3.21,6.73-4.78c2.21-1.59,3.27-4.319,1.8-6.84
					c-1.28-2.19-4.63-3.4-6.84-1.8c-0.4,0.29-0.79,0.57-1.18,0.85c-0.61-1.83-2.351-2.77-4.21-2.819
					C207.32,172.885,205.961,171.965,204,171.965z"/>
				<path fill="#FFFFFF" d="M186.5,172.465c-1.159,2.67-5.31,0.09-4-3C185.711,168.584,184.57,172.055,186.5,172.465z"/>
				<path d="M171.5,181.465c1.33,0,2.671,0,4,0c-1.029,6.63-1.529,13.8-5,18C161.641,195.254,176.61,188.385,171.5,181.465z"/>
				<path fill="#FFFFFF" d="M163.5,188.465c-5.779,0.439-2.689-7.971-5-11C162.29,175.055,163.45,183.824,163.5,188.465z"/>
				<path fill="#FFFFFF" d="M139.5,158.465c11.44,5.109,19.71,17.989,16,35c-3.909,1.09-7.33,2.67-13,2c-0.7-5.03,1.7-6.971,1-12
					c6.89-1.551,6.14,4.529,11,5c-1.659-4.341-5.06-6.94-12-6c-2.17-0.171-0.45,3.55-1,5c-4.82-3.181-7.08-8.921-12-12
					c-5.54,0.8-10.09,2.569-11,8c-12.02-4.551-15.18,5.35-18,13c6.06-1.61,4.17-11.16,10-13c3.83-0.49,3.19,3.47,8,2
					c2.1-3.57,4.58-6.75,9-8c3.98,0.689,4.94,4.399,8,6c-1.57,4.1-5.52,5.81-6,11c-6.91-6.83-16.26-0.15-15,12
					c-1.71-1.29-3.93-2.07-4-5c-9.71-0.711-14.05,3.949-15,12c-4.49,0.819-4.47-2.87-7-4c-5.94-0.271-7.5,3.829-11,6
					c3.7,2.649,5.61-5.021,10-5c1.93,2.739,5.49,3.84,7,7c3.77-5.23,4.3-13.7,12-15c3.61,2.06,6.63,4.699,8,9
					c-13.52,7.529-24.4,11.069-42,4c10.23-12.431,9.34-35.99,15-53c1.65,1.35,3.44,2.56,4,5c-0.89-0.78-2.26-1.08-4-1
					c0.69,1.97,2.67,2.67,5,3c-1.87,2.13-3.16,4.84-7,5c2.78,2.39,8.51-0.78,8-5c2.35,0.319,3.75,1.579,7,1
					c3.11-0.221,1.69-4.98,2-8c3.99-0.99,3.01,2.989,7,2c2.24-0.431,0.41-4.931,1-7c2.83,0.17,4.17,1.829,7,2
					c1.23-0.44,2.05-1.28,2-3c-1.15,1.05-5.33,0.5-9-1c0-1.33,0-2.671,0-4c11.46-0.71,20.5,9.449,32,12
					C143.561,159.734,138.75,161.885,139.5,158.465z"/>
				<path fill="#FFFFFF" d="M142.5,127.464c6.82,4.08,13.95,18.91,3,23c-14.55,5.44-32.95-6.71-36-16c0.2-4.8,2.48-7.52,4-11
					c7.15,2.34,20.15-7.18,17,3C133.44,127.464,140.19,132.114,142.5,127.464z"/>
				<path fill="#FFFFFF" d="M139.5,187.465c0.6,2.399,1.44,4.56,1,8c-10.82,2.18-15.21,10.789-25,14c1.72-6.28,0.27-15.73,8-16
					c4.31-1.311,1.24,4.76,5,4c3.24-1.761,4.11-5.891,5-10C135.5,187.465,137.5,187.465,139.5,187.465z"/>
				<path d="M139.5,91.464c0.68,9.35-1.05,16.28-8,18c0.07-5.59,5.63-5.7,6-11c-1-2.44-4.04,4.1-6,1
					C133.811,96.435,135.13,92.424,139.5,91.464z"/>
				<path d="M110.5,99.464c2.41,2.93,7.5,3.17,6,10c-12.58,3.32-21.13-5.35-34-5c10.39-7.54,20.81,7,32,2c-1.77-1.9-4.23-3.1-6-5
					c-0.97-4.97,1.5-6.5,6-6C115.241,98.875,110.811,97.114,110.5,99.464z"/>
				<path d="M105.5,91.464c4.77-0.91,7.67-8.97,13-6c-4.3,3.7-8.7,7.3-14,10c-3.71-5.99,2.35-16.09,6-21
					c-5.29,1.38-10.84,11.15-18,14c2.97-7.44,13.67-15.6,22-21C113.94,77.904,107.291,82.254,105.5,91.464z"/>
				<path fill="#FFFFFF" d="M108.5,150.464c0,4,0,8,0,12c-6.47-0.53-8.18-5.82-12-9C99.221,151.185,102.84,149.804,108.5,150.464z"
					/>
				<path fill="#FFFFFF" d="M98.5,156.465c0.83,6.38,4.74,7.5,1,13c-6.24-0.761-9.28-4.721-9-12c2.18,0.18,3.18-0.82,3-3
					C95.991,154.314,96.601,156.034,98.5,156.465z"/>
				<path fill="#FFFFFF" d="M87.5,142.464c0.75-3.42-4.06-1.27-3-5c3.19-0.86,3.09,1.57,5,2c-1.44,12.9-10.17,18.5-17,26
					c-13.13,2.13-18.37-3.631-19-14c3.71-0.951,7.44-1.891,10-4c0.64-4.64-1.81-6.19-4-8c-2.48,0.12-5.01,0.19-5.01,2.77
					c-0.29-4.95,6.1-10.8,11.01-11.77C76.871,128.205,81.061,137.404,87.5,142.464z"/>
				<path fill="#FFFFFF" d="M53.5,159.465c1.22,4.239,0.06,5.079-2,8c-2.31-2.021-5.34-3.32-6-7
					C49.271,161.234,50.28,159.244,53.5,159.465z"/>
				<path fill="#FFFFFF" d="M52.5,152.465c-0.09,1.42-0.17,2.829,1,3c-1.69,1.909-6.13,4.369-9,2c-0.48-3.15,1.42-3.91,2-6
					C48.86,151.444,49.44,153.185,52.5,152.465z"/>
				<path fill="#FFFFFF" d="M51.5,140.464c2.41,1.84-1.37,5.9,0,10C43.541,150.524,50.8,143.564,51.5,140.464z"/>
				<path d="M49.5,193.465c5.5-0.04,2.75,10.17,1,12C46.431,204.084,49.28,196.715,49.5,193.465z"/>
				<path d="M39.5,102.464c1.33,11-6.48,12.85-10,19c2.8-1.06,6.87-4.4,10-2c-3.11,2.91-9.56,5.46-14,4
					C31.5,117.804,32.09,106.724,39.5,102.464z"/>
				<path fill="#FFFFFF" d="M18.561,126.804c-0.03,0.22-0.05,0.44-0.06,0.66C18.44,127.244,18.471,127.024,18.561,126.804z"/>
			</g>
			<g>
			</g>
		</g>
	</g>
</g>
<g id="Layer_2">
	<text transform="matrix(1 0 0 1 182.2471 89)"><tspan x="0" y="0" fill="#ED1C24" font-family="'Verdana-Bold'" font-size="12">FFFFFFF</tspan><tspan x="0" y="16" fill="#ED1C24" font-family="'Verdana-Bold'" font-size="12">FFFFFFF</tspan><tspan x="0" y="32" fill="#ED1C24" font-family="'Verdana-Bold'" font-size="12"> FFFFFF</tspan><tspan x="0" y="48" fill="#ED1C24" font-family="'Verdana-Bold'" font-size="12">    FFFUU</tspan><tspan x="0" y="64" fill="#ED1C24" font-family="'Verdana-Bold'" font-size="12">    UUUU</tspan><tspan x="0" y="80" fill="#ED1C24" font-family="'Verdana-Bold'" font-size="12">     UUUU</tspan><tspan x="0" y="96" fill="#ED1C24" font-family="'Verdana-Bold'" font-size="12">    UUUU</tspan><tspan x="0" y="112" fill="#ED1C24" font-family="'Verdana-Bold'" font-size="12">     UUUU</tspan><tspan x="0" y="128" fill="#ED1C24" font-family="'Verdana-Bold'" font-size="12">    UUUU-</tspan></text>
</g>
</svg>
