<?xml version="1.0" encoding="utf-8"?>
<!-- Generator: Adobe Illustrator 15.0.0, SVG Export Plug-In . SVG Version: 6.00 Build 0)  -->
<!DOCTYPE svg PUBLIC "-//W3C//DTD SVG 1.1//EN" "http://www.w3.org/Graphics/SVG/1.1/DTD/svg11.dtd">
<svg version="1.1" xmlns="http://www.w3.org/2000/svg" xmlns:xlink="http://www.w3.org/1999/xlink" x="0px" y="0px" width="300px"
	 height="300px" viewBox="0 0 300 300" enable-background="new 0 0 300 300" xml:space="preserve">
<g id="Layer_1">
	<g id="UNtszj.tif">
		<g>
			<g>
				<path fill-rule="evenodd" clip-rule="evenodd" fill="#FFFFFF" d="M165,49.5c-8.785,4.668-18.107,2.876-29,6
					c-2.411,0.691-4.231,3.09-7,4c-4.152,1.364-8.874,1.039-13,3c-10.898,5.181-20.163,19.506-28,29
					c-8.67,10.502-21.418,21.198-20,35c1.483-0.85,2.15-2.517,2-5c2.836,4.869-3.111,9.531-3,15c-4.572-2.094-1.613-11.721-4-16
					c-2.831-0.164,0.831,6.164-2,6c0-25.667,0-51.333,0-77C95.667,49.5,130.333,49.5,165,49.5z"/>
				<path fill-rule="evenodd" clip-rule="evenodd" d="M165,49.5c3,0,6,0,9,0c14.856,6.144,26.177,15.823,35,28
					c2.396-0.986,6.228-5.706,9-3c2.389,4.169-2.631,4.812-6,6c5.24,2.717,3.785,8.84,9,13c-0.695,18.526,16.582,26.398,20,49
					c0.395,2.607-0.196,7.273,0,11c1.449,27.562,7.522,79.275-9,90c-1,0-2,0-3,0c0.633-3.367,2.872-5.128,2-10
					c14.041-15.587,8.212-62.161,4-84c-0.688-3.327,2.067-1.611,3-1c0.14-8.14-0.687-15.313-5-19c-2.371,5.396,5.477,9.171,4,17
					c-5.272-1.909-5.491-8.614-7-13c-1.694-4.923-4.152-10.106-6-15c-3.934-10.418-9.977-18.495-14-28c6.474-0.141,4.252,8.415,9,10
					c-1.615-8.815-8.834-17.035-19-14c4.215,12.266,24.002,22.466,18,45c-7.306,11.458-32.783,11.109-45,2
					c-5.943-4.431-7.527-11.726-12-15c-2.444-19.444,10.631-23.369,18-33c-10.1-2.567-24.361-0.972-26-12
					c2.502-0.149,7.866,5.884,7,0c4.44,2.226,5.135,8.199,14,6c1.964-0.758-2.713-3.192-1-7c6.529,5.804,17.805,6.862,31,6
					c-5.958-13.922-21.059-26.785-42-25c-8.112,0.691-17.835,2.557-26,5c-6.498,1.944-14.749,4.969-20,8
					c-11.561,6.673-16.274,20.132-26,24c1.955,9.597-11.643,12.499-15,21c-1.588,4.022-0.173,8.596-1,13
					c-1.213,6.463-5.316,12.104-6,19c-0.301,3.03,0.939,5.535,1,9c0.111,6.374-1.74,13.867-1,20c1.229,10.192,5.683,18.668,8,27
					c1.541,5.542,1.875,10.577,4,15c7.485,15.579,18.651,18.518,31,27c-11.698-1.307-24.548-10.115-31-20
					c-0.298,9.965,3.168,16.165,7,22c-1.333,0-2.667,0-4,0c-4.764-7.692-4.369-16.591-7-25c-2.042-6.525-7.646-11.604-10-18
					c-3.192-8.671-1.419-16.962-5-25c0-16.333,0-32.667,0-49c2.831,0.164-0.831-6.164,2-6c2.387,4.279-0.572,13.906,4,16
					c-0.111-5.469,5.836-10.131,3-15c0.15,2.483-0.517,4.15-2,5c-1.418-13.802,11.33-24.498,20-35c7.837-9.494,17.102-23.819,28-29
					c4.126-1.961,8.848-1.636,13-3c2.769-0.91,4.589-3.309,7-4C146.893,52.376,156.215,54.168,165,49.5z M195,83.5
					c3.62-1.047,11.602,2.269,12-2C205.306,83.504,190.165,81.496,195,83.5z M192,86.5c-1.032-0.723-8.29,0.254-10,1
					c-6.454,2.816-19.682,17.334-19,26c0.366,4.658,7.404,14,11,17c8.022,6.695,20.881,6.297,34,6c2.501-2.832,6.002-4.665,8-8
					C217.856,111.594,201.498,93.151,192,86.5z M230,123.5C228.946,129.304,234.334,123.917,230,123.5L230,123.5z M76,209.5
					c-3.973-10.027-6.78-21.22-10-32C65.224,187.691,69.557,206.547,76,209.5z"/>
				<path fill-rule="evenodd" clip-rule="evenodd" fill="#FFFFFF" d="M207,81.5c-0.398,4.269-8.38,0.953-12,2
					C190.165,81.496,205.306,83.504,207,81.5z"/>
				<path fill-rule="evenodd" clip-rule="evenodd" fill="#FFFFFF" d="M216,128.5c-1.998,3.335-5.499,5.168-8,8
					c-13.119,0.297-25.978,0.695-34-6c-3.596-3-10.634-12.342-11-17c-0.682-8.666,12.546-23.184,19-26c1.71-0.746,8.968-1.723,10-1
					C201.498,93.151,217.856,111.594,216,128.5z M187,110.5c2.692,2.612,9.308,2.612,12,0c0.729-4.729-1.426-6.574-3-9
					C187.944,99.965,185.134,104.907,187,110.5z"/>
				<path fill-rule="evenodd" clip-rule="evenodd" d="M82,127.5c0.672-9.04,10.925-10.795,15-17c3.975-6.053,2.101-13.394,7-20
					c4.661,4.056-0.245,13.899-2,18c13.542-4.395,27.845,4.671,36,12c0.675,21.342-13.449,27.884-23,39
					c-12.614,1.614-20.444-1.556-25-8c-4.171,2.162-3.508,9.159-10,9c0-1.333,0-2.667,0-4c-0.052-5.354,1.476,0.889,3,0
					c6.084-3.548,3.626-22.1,11-26c-9.419,28.312,15.947,31.921,28,19c2.738-2.935,15.161-18.585,14-25
					c-1.482-8.19-28.286-20.704-38-9c-0.903,4.43-1.013,9.654-3,13c-6.9-4.898-5.162,12.549-15,11
					C79.534,132.838,92.559,120.853,82,127.5z"/>
				<path fill-rule="evenodd" clip-rule="evenodd" d="M196,101.5c1.574,2.426,3.729,4.271,3,9c-2.692,2.612-9.308,2.612-12,0
					C185.134,104.907,187.944,99.965,196,101.5z M189,108.5c1.289,1.378,4.344,0.99,7,1C198.228,102.064,187.889,101.654,189,108.5z
					"/>
				<path fill-rule="evenodd" clip-rule="evenodd" fill="#FFFFFF" d="M196,109.5c-2.656-0.01-5.711,0.378-7-1
					C187.889,101.654,198.228,102.064,196,109.5z"/>
				<path fill-rule="evenodd" clip-rule="evenodd" fill="#FFFFFF" d="M230,123.5C234.334,123.917,228.946,129.304,230,123.5
					L230,123.5z"/>
				<path fill-rule="evenodd" clip-rule="evenodd" d="M105,130.5c1.87,2.6,1.405,9.548-1,11c-3.181,1.529-4.399,0.351-8,0
					C95.623,134.456,97.692,129.859,105,130.5z M99,139.5c3.976,0.309,5.413-1.921,5-6C100.024,133.191,98.587,135.421,99,139.5z"/>
				<path fill-rule="evenodd" clip-rule="evenodd" fill="#FFFFFF" d="M104,133.5c0.413,4.079-1.024,6.309-5,6
					C98.587,135.421,100.024,133.191,104,133.5z"/>
				<path fill-rule="evenodd" clip-rule="evenodd" d="M226,165.5c-4.421,15.926-24.273,15.642-43,19
					c-9.912,1.777-21.743,6.012-31,10c-7.679,3.309-17.306,8.688-23,14c-6.411,5.98-6.289,13.683-17,16
					c6.02-12.653,10.628-28.299,14-47c2.899-16.082,4.506-28.549,14-37c14.145-12.59,36.272-5.588,54,6
					c4.615,0.616,5.755-2.245,10-2c9.44,4.227,13.406,13.927,18,23C225.235,168.735,222.765,164.265,226,165.5z M152,136.5
					c-5.165,3.501-11.074,6.259-14,12c4.095,3.238,5.141,9.526,10,12C162.865,157.473,163.779,142.564,152,136.5z M165,147.5
					c2.518-2.482,6.221-3.779,6-9c-3.9-1.1-9.313-0.687-13-2C159.813,140.687,161.748,144.752,165,147.5z M119,217.5
					c10.823-17.569,43.088-33.831,68-36c14.654-1.275,23.866-3.28,33-11c-3.354-7.979-7.492-15.175-13-21
					c-4.731,3.671-12.689,6.936-21,4c-4.974-3.693-4.018-13.315-12-14c-1.833,5.694-4.73,7.798-9,12c-1.976,1.944-4.369,4.662-6,6
					c-12.505,10.254-18.622,5.44-23-6c-5.416,5.251-6.43,14.903-6,26c6.703,0.156,8.463-9.244,13-8c-1.558,7.775-9.46,9.206-15,13
					C128.22,196.725,120.476,208.303,119,217.5z M199,150.5c-5.938,0.248-10.938-5.699-15-4
					C185.92,150.555,194.45,155.322,199,150.5z"/>
				<path fill-rule="evenodd" clip-rule="evenodd" fill="#FFFFFF" d="M148,160.5c-4.859-2.474-5.905-8.762-10-12
					c2.926-5.741,8.835-8.499,14-12C163.779,142.564,162.865,157.473,148,160.5z"/>
				<path fill-rule="evenodd" clip-rule="evenodd" fill="#FFFFFF" d="M158,136.5c3.687,1.313,9.1,0.9,13,2
					c0.221,5.221-3.482,6.518-6,9C161.748,144.752,159.813,140.687,158,136.5z"/>
				<path fill-rule="evenodd" clip-rule="evenodd" fill="#FFFFFF" d="M184,146.5c4.062-1.699,9.062,4.248,15,4
					C194.45,155.322,185.92,150.555,184,146.5z"/>
				<path fill-rule="evenodd" clip-rule="evenodd" fill="#FFFFFF" d="M61,175.5c3.581,8.038,1.808,16.329,5,25
					c2.354,6.396,7.958,11.475,10,18c2.631,8.409,2.236,17.308,7,25c-7.333,0-14.667,0-22,0C61,220.833,61,198.167,61,175.5z"/>
				<path fill-rule="evenodd" clip-rule="evenodd" fill="#FFFFFF" d="M87,243.5c-3.832-5.835-7.298-12.035-7-22
					c6.452,9.885,19.302,18.693,31,20c-12.349-8.482-23.515-11.421-31-27c-2.125-4.423-2.459-9.458-4-15
					c-2.317-8.332-6.771-16.808-8-27c-0.74-6.133,1.111-13.626,1-20c-0.061-3.465-1.301-5.97-1-9c0.684-6.896,4.787-12.537,6-19
					c0.827-4.404-0.588-8.978,1-13c3.357-8.501,16.955-11.403,15-21c9.726-3.868,14.439-17.327,26-24c5.251-3.031,13.502-6.056,20-8
					c8.165-2.443,17.888-4.309,26-5c20.941-1.785,36.042,11.078,42,25c-13.195,0.862-24.471-0.196-31-6
					c-1.713,3.808,2.964,6.242,1,7c-8.865,2.199-9.56-3.774-14-6c0.866,5.884-4.498-0.149-7,0c1.639,11.028,15.9,9.433,26,12
					c-7.369,9.631-20.444,13.556-18,33c4.473,3.274,6.057,10.569,12,15c12.217,9.109,37.694,9.458,45-2
					c6.002-22.534-13.785-32.734-18-45c10.166-3.035,17.385,5.185,19,14c-4.748-1.585-2.526-10.141-9-10
					c4.023,9.505,10.066,17.582,14,28c1.848,4.894,4.306,10.077,6,15c1.509,4.386,1.728,11.091,7,13c1.477-7.829-6.371-11.604-4-17
					c4.313,3.687,5.14,10.86,5,19c-0.933-0.611-3.688-2.327-3,1c4.212,21.839,10.041,68.413-4,84c0.872,4.872-1.367,6.633-2,10
					C181.667,243.5,134.333,243.5,87,243.5z M80,139.5c9.838,1.549,8.1-15.898,15-11c1.987-3.346,2.097-8.57,3-13
					c9.714-11.704,36.518,0.81,38,9c1.161,6.415-11.262,22.065-14,25c-12.053,12.921-37.419,9.312-28-19
					c-7.374,3.9-4.916,22.452-11,26c-1.524,0.889-3.052-5.354-3,0c0,1.333,0,2.667,0,4c6.492,0.159,5.829-6.838,10-9
					c4.556,6.444,12.386,9.614,25,8c9.551-11.116,23.675-17.658,23-39c-8.155-7.329-22.458-16.395-36-12
					c1.755-4.101,6.661-13.944,2-18c-4.899,6.606-3.025,13.947-7,20c-4.075,6.205-14.328,7.96-15,17
					C92.559,120.853,79.534,132.838,80,139.5z M96,141.5c3.601,0.351,4.819,1.529,8,0c2.405-1.452,2.87-8.4,1-11
					C97.692,129.859,95.623,134.456,96,141.5z M222,167.5c-4.594-9.073-8.56-18.773-18-23c-4.245-0.245-5.385,2.616-10,2
					c-17.728-11.588-39.855-18.59-54-6c-9.494,8.451-11.101,20.918-14,37c-3.372,18.701-7.98,34.347-14,47
					c10.711-2.317,10.589-10.02,17-16c5.694-5.312,15.321-10.691,23-14c9.257-3.988,21.088-8.223,31-10
					c18.727-3.358,38.579-3.074,43-19C222.765,164.265,225.235,168.735,222,167.5z"/>
				<path fill-rule="evenodd" clip-rule="evenodd" fill="#FFFFFF" d="M128,182.5c5.54-3.794,13.442-5.225,15-13
					c-4.537-1.244-6.297,8.156-13,8c-0.43-11.097,0.584-20.749,6-26c4.378,11.44,10.495,16.254,23,6c1.631-1.338,4.024-4.056,6-6
					c4.27-4.202,7.167-6.306,9-12c7.982,0.685,7.026,10.307,12,14c8.311,2.936,16.269-0.329,21-4c5.508,5.825,9.646,13.021,13,21
					c-9.134,7.72-18.346,9.725-33,11c-24.912,2.169-57.177,18.431-68,36C120.476,208.303,128.22,196.725,128,182.5z"/>
				<path fill-rule="evenodd" clip-rule="evenodd" fill="#FFFFFF" d="M66,177.5c3.22,10.78,6.027,21.973,10,32
					C69.557,206.547,65.224,187.691,66,177.5z"/>
				<path fill-rule="evenodd" clip-rule="evenodd" fill="#FFFFFF" d="M174,49.5c23.333,0,46.667,0,70,0c0,64.666,0,129.334,0,194
					c-4,0-8,0-12,0c16.522-10.725,10.449-62.438,9-90c-0.196-3.727,0.395-8.393,0-11c-3.418-22.602-20.695-30.474-20-49
					c-5.215-4.16-3.76-10.283-9-13c3.369-1.188,8.389-1.831,6-6c-2.772-2.706-6.604,2.014-9,3
					C200.177,65.323,188.856,55.644,174,49.5z"/>
			</g>
		</g>
	</g>
</g>
<g id="Layer_2">
</g>
</svg>
