<?xml version="1.0" encoding="utf-8"?>
<!-- Generator: Adobe Illustrator 15.0.0, SVG Export Plug-In . SVG Version: 6.00 Build 0)  -->
<!DOCTYPE svg PUBLIC "-//W3C//DTD SVG 1.1//EN" "http://www.w3.org/Graphics/SVG/1.1/DTD/svg11.dtd">
<svg version="1.1" xmlns="http://www.w3.org/2000/svg" xmlns:xlink="http://www.w3.org/1999/xlink" x="0px" y="0px" width="300px"
	 height="300px" viewBox="0 0 300 300" enable-background="new 0 0 300 300" xml:space="preserve">
<g id="Layer_1">
	<g id="oV1dhY.tif">
		<g>
			<g>
				<path fill-rule="evenodd" clip-rule="evenodd" fill="#FFFFFF" d="M168.5,57c0.122,4.456-2.467,6.2-3,10
					c-10.746,0.08-18.06-3.273-30-2C143.941,59.774,157.548,59.715,168.5,57z"/>
				<path fill-rule="evenodd" clip-rule="evenodd" fill="#FFFFFF" d="M171.5,57c4.729-0.395,8.346,0.321,12,1
					c-3.597,3.07-6.426,6.907-10,10C170.253,66.914,171.853,60.981,171.5,57z"/>
				<path fill-rule="evenodd" clip-rule="evenodd" fill="#FFFFFF" d="M169.5,70c0.626,4.292-0.891,6.442-3,8
					C164.613,76.37,166.525,70.083,169.5,70z"/>
				<path fill-rule="evenodd" clip-rule="evenodd" fill="#FFFFFF" d="M166.5,81c2.749,2.816-2.381,6.237-2,10
					C162.265,88.699,165.514,83.396,166.5,81z"/>
				<path fill-rule="evenodd" clip-rule="evenodd" fill="#FFFFFF" d="M191.5,91c0.257-2.34,4.394-0.576,5,0
					c-0.016,2.984-2.6,3.4-3,6c3.056,2.762,3.134-3.517,7-3c1.004,1.329,0.945,3.721,3,4c-1.457,1.893-4.791,4.915-2,8
					c1.757-0.91,1.829-3.504,3-5c3.407,2.593,6.62,5.38,9,9c-1.396,4.937-6.327,1.847-10,1c-0.072,3.405,2.941,3.725,5,5
					c-0.429,1.904-2.154,2.512-2,5c5.667,1,3.669-5.665,7-7c2.933,0.068,3.714,2.286,5,4c0.88,3.213-3.296,1.37-3,4
					c8.024-0.276,9.08,12.838,4,17c-1.893-2.441-2.146-6.52-2-11c-1.505-2.828-5.183-3.484-9-4c-0.144,3.144,2.564,3.436,5,4
					c-1.502,5.229,3.495,7.984,3,15c-3.01,0.99-4.462,3.538-9,3c-0.486-8.163-2.39-9.9,0-17c-5.755,0.245-3.987,8.013-7,11
					c0.31,1.357,2.504,0.83,4,1c0,1.667,0,3.333,0,5c-6.523,0.523-11.384-0.617-16-2c-0.146-2.812,2.449-2.884,5-3
					c0.479-3.146-1.424-3.909-2-6c-3.046,1.621-4.259,5.075-6,8c-9.088-2.912-11.562-12.438-18-18c-1.13-15.463,7.746-20.92,15-28
					c1.357,0.31,0.83,2.504,1,4c2.275-0.724,5.108-0.892,7-2c-0.18-2.82-4.753-1.247-4-5C188.334,93.74,193.536,91.831,191.5,91z
					 M188.5,106c-9.765-0.401-16.042,10.485-14,25c5.708,6.271,19.718,4.105,25-1C202.4,117.606,197.784,106.381,188.5,106z"/>
				<path fill-rule="evenodd" clip-rule="evenodd" fill="#FFFFFF" d="M215.5,93c4.522,3.144,8.084,7.25,9,14
					C220.697,103.137,217.606,98.56,215.5,93z"/>
				<path fill-rule="evenodd" clip-rule="evenodd" fill="#FFFFFF" d="M115.5,103c1.01-2.816,4.247,0.276,6,0
					C120.267,106.038,118.061,101.916,115.5,103z"/>
				<path fill-rule="evenodd" clip-rule="evenodd" fill="#FFFFFF" d="M155.5,105c2.255,0.745,0.391,5.609,1,8
					C152.476,111.088,154.408,108.569,155.5,105z"/>
				<path fill-rule="evenodd" clip-rule="evenodd" d="M199.5,130c-5.282,5.105-19.292,7.271-25,1c-2.042-14.515,4.235-25.401,14-25
					C197.784,106.381,202.4,117.606,199.5,130z M180.5,132c7.867,0.867,12.614-1.386,17-4C201.674,97.081,166.427,111.733,180.5,132
					z"/>
				<path fill-rule="evenodd" clip-rule="evenodd" fill="#FFFFFF" d="M197.5,128c-4.386,2.614-9.133,4.867-17,4
					C166.427,111.733,201.674,97.081,197.5,128z M183.5,130c8.178,0.511,10.502-4.832,10-13
					C186.344,105.895,176.834,121.588,183.5,130z"/>
				<path fill-rule="evenodd" clip-rule="evenodd" d="M193.5,117c0.502,8.168-1.822,13.511-10,13
					C176.834,121.588,186.344,105.895,193.5,117z"/>
				<path fill-rule="evenodd" clip-rule="evenodd" fill="#FFFFFF" d="M113.5,117c1.559,4.107,0.752,10.581,6,11
					c2.123-2.853-4.057-4.086-2-10c8.729,1.604,13.138,7.529,15,16c1.667,0,3.333,0,5,0c0.588-4.254-5.399-1.934-4-7
					c0.89,0.777,2.258,1.075,4,1c3.234,13.464-6.349,22.15-13,29c-1.493-1.611,0.862-5.014,0-9c-3.983,0.999-2.883,4.104-8,2
					c1.121,4.184,6.275,5.646,2,10c2.826,0.826,2.591-1.409,5-1c-3.344,2.989-4.483,8.184-11,8c2.808-4.603-0.527-10.472,0-16
					c-1.313,0.354-1.573,1.761-3,2c1.171,6.236,3.26,16.525-7,14c0.166-4.168,4.814-3.852,6-7c-1.613-3.235-5.083-0.812-3-6
					c-4.883,0.24-3.852,4.173-3,8c-1.904,0.429-2.512,2.154-5,2c-0.025-2.642,0.933-6.266-3-5c1.382-2.951,4.618-4.049,6-7
					c-4.146-1.146-3.896,2.104-7,2c-0.083-1.583,0.481-3.814-1-4c3.709-5.087,12.228-5.134,18-3c1.807-1.714-0.307-3.932-3-4
					c-0.494-3.16,4.962-0.371,4-4c-4.059-3.013-8.237,2.396-10,5c-4.561-2.87-7.387,1.922-11,0c0-2,0-4,0-6
					c3.16,0.16,6.035,0.035,7-2c0.168-2.168-3.547-0.453-5-1c-0.256-4.922,0.886-8.447,5-9c-1.069,3.736,2.483,2.85,2,6
					c5.913,1.498,10.258-0.313,14,2c1.857-1.768-0.435-2.919-1-5c-4.125-0.125-6.262,1.738-11,1c0.164-3.164-2.658-3.342-2-7
					C103.597,120.43,107.436,117.603,113.5,117z M117.5,141c1.289,1.378,4.344,0.99,7,1c-0.725-3.059,1.725-2.941,1-6
					C122.344,131.925,116.096,134.719,117.5,141z"/>
				<path fill-rule="evenodd" clip-rule="evenodd" fill="#FFFFFF" d="M235.5,130c4.856,7.477,9.287,15.379,9,28
					C241.935,148.232,237.503,140.33,235.5,130z"/>
				<path fill-rule="evenodd" clip-rule="evenodd" d="M125.5,136c0.725,3.059-1.725,2.941-1,6c-2.656-0.01-5.711,0.378-7-1
					C116.096,134.719,122.344,131.925,125.5,136z"/>
				<path fill-rule="evenodd" clip-rule="evenodd" d="M222.5,167c4.396,2.298-2.081,6.367-3,11c-1.244,6.274,0.92,13.034,0,20
					c-4.026-0.82-4.401-15.846-3-22C217.508,171.571,221.096,168.408,222.5,167z"/>
				<path fill-rule="evenodd" clip-rule="evenodd" fill="#FFFFFF" d="M184.5,182C187.942,184.584,179.357,184.416,184.5,182
					L184.5,182z"/>
				<path fill-rule="evenodd" clip-rule="evenodd" fill="#FFFFFF" d="M176.5,185c2.715,0.91-1.02,3.504-1,5c-3,0-6,0-9,0
					C167.325,185.825,174.099,187.599,176.5,185z"/>
				<path fill-rule="evenodd" clip-rule="evenodd" fill="#FFFFFF" d="M161.5,192c-0.133,3.201-2.268,4.399-6,4
					C155.156,192.323,159.144,192.977,161.5,192z"/>
				<path fill-rule="evenodd" clip-rule="evenodd" d="M106.5,198c0.027-0.973,1.224-0.776,2-1c4.324,2.209,11.308,6.374,15,11
					c4.056,5.082,6.394,11.395,6,22c-4.755-1.608-2.033-6.023-3-9C123.09,210.503,114.345,203.979,106.5,198z"/>
				<path fill-rule="evenodd" clip-rule="evenodd" fill="#FFFFFF" d="M184.5,61c2.447,1.242-2.997,2.908-3,5
					C178.003,63.709,184.626,63.221,184.5,61z"/>
				<path fill-rule="evenodd" clip-rule="evenodd" fill="#FFFFFF" d="M160.5,84C160.933,74.348,160.31,88.255,160.5,84L160.5,84z"/>
				<path fill-rule="evenodd" clip-rule="evenodd" fill="#FFFFFF" d="M168.5,91C166.032,88.368,171.385,85.206,168.5,91L168.5,91z"
					/>
				<path fill-rule="evenodd" clip-rule="evenodd" fill="#FFFFFF" d="M154.5,100C157.508,93.328,151.907,107.983,154.5,100
					L154.5,100z"/>
				<path fill-rule="evenodd" clip-rule="evenodd" fill="#FFFFFF" d="M252.5,208c-0.854-0.602-2.575-5.985-3-1
					c-5.48-17.216,2.199-42.927-4-63c-1.503-4.866-5.048-7.67-5-13c-6.091-8.909-13.343-16.657-14-31
					c-2.479-6.332-6.507-10.597-11-16c-2.436-2.929-3.851-6.346-6-9c-5.304-6.548-13.246-9.375-18-16c1.583-0.083,3.814,0.481,4-1
					c-14.867-5.756-38.104-3.506-55,1c-3.477,0.927-6.424,3.767-10,5c-4.887,1.685-9.829,1.462-13,3
					c-11.081,5.373-15.072,17.536-23,24c-2.333,0-4.667,0-7,0c-1.697,0.65-0.625,2.299,1,2c-3.756,3.325-12.449-1.682-14,2
					c2.271,4.603,9.442,0.379,14,1c-3.399,6.601-8.238,11.762-12,18c-4.173-0.012,1.92-7.241-3-8c0.301,11.967-5.326,18.007-6,29
					c3.582,0.582,3.041-2.959,3-6c3.803,5.545-3.001,11.474-4,18c-1.26,8.235-2.06,27.431-1,36c0.462,3.734,3.071,6.503,4,10
					c0.578,2.173-0.353,5.01,0,7c1.708,9.646,7.653,17.927,8,26c-16.888-19.779-12.436-60.898-13-97c-3.791,2.733-1.928,9.003-2,13
					c-0.425,23.537-0.174,54.44,4,71c4.724,4.943,6.001,13.333,11,18c-0.215,11.882,2.195,21.139,8,27
					c1.174-6.521-6.259-13.063-5-23c4.852,0.815,4.599,6.734,7,10c8.051,3.949,14.682,9.318,24,12c-1.586-7.649-13.813-7.53-20-13
					c-5.241-4.634-5.581-11.47-11-15c-4.536-23.408-16.208-48.176-12-78c1.405-9.957,9.1-20.526,7-32c6.58-6.753,13-13.667,19-21
					c13.119,1.881,21.738,8.262,27,18c-5.077-1.064-10.144-1.757-14-1c-9.709,1.907-20.329,12.837-20,26
					c0.162,6.481,4.678,12.745,4,20c9.756,14.002,26.748,10.592,36,0c2.799-3.205,6.051-9.175,9-14c3.714-6.078,6.375-12.15,5-17
					c-0.958-3.377-8.329-8.382-11-11c-4.106-4.025-7.801-6.469-11-11c1.288-2.379,6.494-0.839,7-4c-5.813-7.187-20.479-5.521-28-11
					c9.752-14.792,21.217-28.516,47-26c5.941,0.58,12.074,4.212,19,3c0.484,5.935-5.545,4.422-8,5c2.204,12.205-7.38,21.425-7,31
					c0.24,6.035,4.904,9.577,3,15c3.156,0.489,3.531-1.802,7-1c0.62-13.046,5.646-21.687,12-29c-0.733-8.733,0.8-15.2,5-19
					c4.491-0.491,7.493,0.507,11,1c2.274-2.393-1.805-4.071-5-4c0.878-3.122,4.717-3.283,6-6c7.973,2.361,12.23,8.436,18,13
					c-0.844,5.013,4.093,7.744,6,12c1.696,3.785,1.243,8.157,3,12c4.031,8.818,12.229,16.829,16,28c6.1,18.072,14.317,36.207,14,59
					c-0.042,3.015-1.062,6.791-1,10c0.119,6.067,2.809,12.521,2,19c-0.794,6.355-5.553,14.049-8,21c-2.485,7.06-6.465,13.42-6,21
					c5.193-5.46,7.884-13.711,11-21c3.344-7.823,6.296-16.931,9-24c0,16.667,0,33.333,0,50c-68.333,0-136.667,0-205,0
					c0-70.001,0-139.999,0-210c68.333,0,136.667,0,205,0C252.5,104.667,252.5,156.334,252.5,208z M139.5,213
					c4.89-0.109,3.153-6.848,7-8c0.228,1.772-1.008,5.008,2,4c2.896-2.438,0.601-10.065,4-12c3.408,2.271,5.682,1.133,10,1
					c1.973-0.694-0.246-5.58,2-6c12.466,4.798,16.753-6.337,26-8c4.224,1.135,7.996,7.971,13,5c-1.916-2.751-5.589-3.744-8-6
					c5.675,0.562,1.466-3.162,0-4c3.467-0.533,9.485,1.485,10-2c-4.487-0.846-8.526-2.141-14-2c0.055-1.278,1.282-1.385,1-3
					c-18.211,3.455-28.036,15.298-47,18c-2.126,1.541-3.724,3.609-6,5c-1.743,0.924-5.367-0.034-5,3c0.92,2.726,3.126-1.396,6,0
					c-2.399,3.601-6.324,5.676-7,11c4.132,1.075,5.416-5.841,8-3C139.953,207.453,139.4,209.9,139.5,213z M224.5,124
					c-0.253-0.683-2.697-1.262-3-2c-0.577-1.406,0.648-3.63,0-5c-4.329-9.15-9.988-14.381-16-21c-7.079-7.795-13.64-12.554-24-7
					c-0.826,2.826,1.409,2.591,1,5c-9.518,6.903-20.529,16.189-18,30c0.409,2.235,3.056,5.029,5,8c8.282,12.653,22.414,19.722,43,17
					C221.086,143.646,229.019,136.214,224.5,124z M216.5,176c-1.401,6.154-1.026,21.18,3,22c0.92-6.966-1.244-13.726,0-20
					c0.919-4.633,7.396-8.702,3-11C221.096,168.408,217.508,171.571,216.5,176z M126.5,221c0.967,2.977-1.755,7.392,3,9
					c0.394-10.605-1.944-16.918-6-22c-3.692-4.626-10.676-8.791-15-11c-0.776,0.224-1.973,0.027-2,1
					C114.345,203.979,123.09,210.503,126.5,221z"/>
				<path fill-rule="evenodd" clip-rule="evenodd" d="M252.5,208c0,1.667,0,3.333,0,5c-2.704,7.069-5.656,16.177-9,24
					c-3.116,7.289-5.807,15.54-11,21c-0.465-7.58,3.515-13.94,6-21c2.447-6.951,7.206-14.645,8-21c0.809-6.479-1.881-12.933-2-19
					c-0.062-3.209,0.958-6.985,1-10c0.317-22.793-7.9-40.928-14-59c-3.771-11.171-11.969-19.182-16-28
					c-1.757-3.843-1.304-8.215-3-12c-1.907-4.256-6.844-6.987-6-12c-5.77-4.564-10.027-10.639-18-13c-1.283,2.717-5.122,2.878-6,6
					c3.195-0.071,7.274,1.607,5,4c-3.507-0.493-6.509-1.491-11-1c-4.2,3.8-5.733,10.267-5,19c-6.354,7.313-11.38,15.954-12,29
					c-3.469-0.802-3.844,1.489-7,1c1.904-5.423-2.76-8.965-3-15c-0.38-9.575,9.204-18.795,7-31c2.455-0.578,8.484,0.935,8-5
					c-6.926,1.212-13.059-2.42-19-3c-25.783-2.516-37.248,11.208-47,26c7.521,5.479,22.187,3.813,28,11
					c-0.506,3.161-5.712,1.621-7,4c3.199,4.531,6.894,6.975,11,11c2.671,2.618,10.042,7.623,11,11c1.375,4.85-1.286,10.922-5,17
					c-2.949,4.825-6.201,10.795-9,14c-9.252,10.592-26.244,14.002-36,0c0.678-7.255-3.838-13.519-4-20
					c-0.329-13.163,10.291-24.093,20-26c3.856-0.757,8.923-0.064,14,1c-5.262-9.738-13.881-16.119-27-18
					c-6,7.333-12.42,14.247-19,21c2.1,11.474-5.595,22.043-7,32c-4.208,29.824,7.464,54.592,12,78c5.419,3.53,5.759,10.366,11,15
					c6.187,5.47,18.414,5.351,20,13c-9.318-2.682-15.949-8.051-24-12c-2.401-3.266-2.148-9.185-7-10c-1.259,9.937,6.174,16.479,5,23
					c-5.805-5.861-8.215-15.118-8-27c-4.999-4.667-6.276-13.057-11-18c-4.174-16.56-4.425-47.463-4-71
					c0.072-3.997-1.791-10.267,2-13c0.564,36.102-3.888,77.221,13,97c-0.347-8.073-6.292-16.354-8-26c-0.353-1.99,0.578-4.827,0-7
					c-0.929-3.497-3.538-6.266-4-10c-1.06-8.569-0.26-27.765,1-36c0.999-6.526,7.803-12.455,4-18c0.041,3.041,0.582,6.582-3,6
					c0.674-10.993,6.301-17.033,6-29c4.92,0.759-1.173,7.988,3,8c3.762-6.238,8.601-11.399,12-18c-4.558-0.621-11.729,3.603-14-1
					c1.551-3.682,10.244,1.325,14-2c-1.625,0.299-2.697-1.35-1-2c2.333,0,4.667,0,7,0c7.928-6.464,11.919-18.627,23-24
					c3.171-1.538,8.113-1.315,13-3c3.576-1.233,6.523-4.073,10-5c16.896-4.506,40.133-6.756,55-1c-0.186,1.481-2.417,0.917-4,1
					c4.754,6.625,12.696,9.452,18,16c2.149,2.654,3.564,6.071,6,9c4.493,5.403,8.521,9.668,11,16c0.657,14.343,7.909,22.091,14,31
					c-0.048,5.33,3.497,8.134,5,13c6.199,20.073-1.48,45.784,4,63C249.925,202.015,251.646,207.398,252.5,208z M135.5,65
					c11.94-1.273,19.254,2.08,30,2c0.533-3.8,3.122-5.544,3-10C157.548,59.715,143.941,59.774,135.5,65z M173.5,68
					c3.574-3.093,6.403-6.93,10-10c-3.654-0.679-7.271-1.395-12-1C171.853,60.981,170.253,66.914,173.5,68z M181.5,66
					c0.003-2.092,5.447-3.758,3-5C184.626,63.221,178.003,63.709,181.5,66z M166.5,78c2.109-1.558,3.626-3.708,3-8
					C166.525,70.083,164.613,76.37,166.5,78z M160.5,84C160.31,88.255,160.933,74.348,160.5,84L160.5,84z M164.5,91
					c-0.381-3.763,4.749-7.184,2-10C165.514,83.396,162.265,88.699,164.5,91z M168.5,91C171.385,85.206,166.032,88.368,168.5,91
					L168.5,91z M224.5,107c-0.916-6.75-4.478-10.856-9-14C217.606,98.56,220.697,103.137,224.5,107z M154.5,100
					C151.907,107.983,157.508,93.328,154.5,100L154.5,100z M121.5,103c-1.753,0.276-4.99-2.816-6,0
					C118.061,101.916,120.267,106.038,121.5,103z M156.5,113c-0.609-2.391,1.255-7.255-1-8
					C154.408,108.569,152.476,111.088,156.5,113z M99.5,123c-0.658,3.658,2.164,3.836,2,7c4.738,0.738,6.875-1.125,11-1
					c0.565,2.081,2.857,3.232,1,5c-3.742-2.313-8.087-0.502-14-2c0.483-3.15-3.069-2.264-2-6c-4.114,0.553-5.256,4.078-5,9
					c1.453,0.547,5.168-1.168,5,1c-0.965,2.035-3.84,2.16-7,2c0,2,0,4,0,6c3.613,1.922,6.439-2.87,11,0
					c1.763-2.604,5.941-8.013,10-5c0.962,3.629-4.494,0.84-4,4c2.693,0.068,4.807,2.286,3,4c-5.772-2.134-14.291-2.087-18,3
					c1.481,0.186,0.917,2.417,1,4c3.104,0.104,2.854-3.146,7-2c-1.382,2.951-4.618,4.049-6,7c3.933-1.266,2.975,2.358,3,5
					c2.488,0.154,3.096-1.571,5-2c-0.852-3.827-1.883-7.76,3-8c-2.083,5.188,1.387,2.765,3,6c-1.186,3.148-5.834,2.832-6,7
					c10.26,2.525,8.171-7.764,7-14c1.427-0.239,1.687-1.646,3-2c-0.527,5.528,2.808,11.397,0,16c6.517,0.184,7.656-5.011,11-8
					c-2.409-0.409-2.174,1.826-5,1c4.275-4.354-0.879-5.816-2-10c5.117,2.104,4.017-1.001,8-2c0.862,3.986-1.493,7.389,0,9
					c6.651-6.85,16.234-15.536,13-29c-1.742,0.075-3.11-0.223-4-1c-1.399,5.066,4.588,2.746,4,7c-1.667,0-3.333,0-5,0
					c-1.862-8.471-6.271-14.396-15-16c-2.057,5.914,4.123,7.147,2,10c-5.248-0.419-4.441-6.893-6-11
					C107.436,117.603,103.597,120.43,99.5,123z M244.5,158c0.287-12.621-4.144-20.523-9-28
					C237.503,140.33,241.935,148.232,244.5,158z"/>
				<path fill-rule="evenodd" clip-rule="evenodd" d="M212.5,149c-20.586,2.722-34.718-4.347-43-17c-1.944-2.971-4.591-5.765-5-8
					c-2.529-13.811,8.482-23.097,18-30c0.409-2.409-1.826-2.174-1-5c10.36-5.554,16.921-0.795,24,7c6.012,6.619,11.671,11.85,16,21
					c0.648,1.37-0.577,3.594,0,5c0.303,0.738,2.747,1.317,3,2C229.019,136.214,221.086,143.646,212.5,149z M186.5,94
					c-0.753,3.753,3.82,2.18,4,5c-1.892,1.108-4.725,1.276-7,2c-0.17-1.496,0.357-3.69-1-4c-7.254,7.08-16.13,12.537-15,28
					c6.438,5.562,8.912,15.088,18,18c1.741-2.925,2.954-6.379,6-8c0.576,2.091,2.479,2.854,2,6c-2.551,0.116-5.146,0.188-5,3
					c4.616,1.383,9.477,2.523,16,2c0-1.667,0-3.333,0-5c-1.496-0.17-3.69,0.357-4-1c3.013-2.987,1.245-10.755,7-11
					c-2.39,7.1-0.486,8.837,0,17c4.538,0.538,5.99-2.01,9-3c0.495-7.016-4.502-9.771-3-15c-2.436-0.564-5.144-0.856-5-4
					c3.817,0.516,7.495,1.172,9,4c-0.146,4.48,0.107,8.559,2,11c5.08-4.162,4.024-17.276-4-17c-0.296-2.63,3.88-0.787,3-4
					c-1.286-1.714-2.067-3.932-5-4c-3.331,1.335-1.333,8-7,7c-0.154-2.488,1.571-3.096,2-5c-2.059-1.275-5.072-1.595-5-5
					c3.673,0.847,8.604,3.937,10-1c-2.38-3.62-5.593-6.407-9-9c-1.171,1.496-1.243,4.09-3,5c-2.791-3.085,0.543-6.107,2-8
					c-2.055-0.279-1.996-2.671-3-4c-3.866-0.517-3.944,5.762-7,3c0.4-2.6,2.984-3.016,3-6c-0.606-0.576-4.743-2.34-5,0
					C193.536,91.831,188.334,93.74,186.5,94z"/>
				<path fill-rule="evenodd" clip-rule="evenodd" d="M141.5,206c-2.584-2.841-3.868,4.075-8,3c0.676-5.324,4.601-7.399,7-11
					c-2.874-1.396-5.08,2.726-6,0c-0.367-3.034,3.257-2.076,5-3c2.276-1.391,3.874-3.459,6-5c18.964-2.702,28.789-14.545,47-18
					c0.282,1.615-0.945,1.722-1,3c5.474-0.141,9.513,1.154,14,2c-0.515,3.485-6.533,1.467-10,2c1.466,0.838,5.675,4.562,0,4
					c2.411,2.256,6.084,3.249,8,6c-5.004,2.971-8.776-3.865-13-5c-9.247,1.663-13.534,12.798-26,8c-2.246,0.42-0.027,5.306-2,6
					c-4.318,0.133-6.592,1.271-10-1c-3.399,1.935-1.104,9.562-4,12c-3.008,1.008-1.772-2.228-2-4c-3.847,1.152-2.11,7.891-7,8
					C139.4,209.9,139.953,207.453,141.5,206z M184.5,182C179.357,184.416,187.942,184.584,184.5,182L184.5,182z M166.5,190
					c3,0,6,0,9,0c-0.02-1.496,3.715-4.09,1-5C174.099,187.599,167.325,185.825,166.5,190z M155.5,196c3.732,0.399,5.867-0.799,6-4
					C159.144,192.977,155.156,192.323,155.5,196z"/>
			</g>
		</g>
	</g>
</g>
<g id="Layer_2">
</g>
</svg>
