<?xml version="1.0" encoding="utf-8"?>
<!-- Generator: Adobe Illustrator 15.0.0, SVG Export Plug-In . SVG Version: 6.00 Build 0)  -->
<!DOCTYPE svg PUBLIC "-//W3C//DTD SVG 1.1//EN" "http://www.w3.org/Graphics/SVG/1.1/DTD/svg11.dtd">
<svg version="1.1" xmlns="http://www.w3.org/2000/svg" xmlns:xlink="http://www.w3.org/1999/xlink" x="0px" y="0px" width="300px"
	 height="300px" viewBox="0 0 300 300" enable-background="new 0 0 300 300" xml:space="preserve">
<g id="Layer_1">
	<g id="iEOVdx.tif">
		<g id="XMLID_2_">
			<g>
				<path d="M189.02,108.61c1.221,8.4,4.61,14.63,6.98,21.89C196.83,121.29,189.47,110.08,189.02,108.61z M136.18,157.94
					c-0.04-0.141-0.1-0.29-0.18-0.44C136.06,157.65,136.12,157.8,136.18,157.94z M136.2,158.01c0.54,2.2-2.92,3.7-0.2,4.49
					c0.43-2.51,2.15,1.66,2,3c1,0,2,0,3,0C139.43,164.17,137.7,161.65,136.2,158.01z M199,169.5c-0.4,2.4,4.55-0.55,3,3
					c-0.52,18.15-10.6,26.73-14,42c-2.33,0-4.67,0-7,0c0.76-3.74,1.59-7.47-3-8c-0.58,3.91,0.86,5.81,2,8c-1,0-2,0-3,0
					c0-0.33,0-0.67,0-1c-3.3-3.5-7.22-5.8-11-9c-3.53-2.99-6.56-7.93-11-9c-8.8-2.13-21.05,2.56-30,6c-9.33,3.58-17.84,8.61-23,13
					c-2,0-4,0-6,0c-0.19-3.14-1.86-4.81-5-5c0.83,2.83-1.41,2.59-1,5c-2.33,0-4.67,0-7,0c0-0.33,0-0.67,0-1
					c-10.2-3.8-18.14-9.86-24-18c-0.19,8.19,3.51,12.49,5,19c-0.67,0-1.33,0-2,0c-6.42-13.06-5.33-27.83-15-38
					c0.11-7.11-1.91-12.09-3-18c0-17,0-34,0-51c1.48-0.24,1.75-1.53,2,1c2.08,20.88-4.47,65.43,10,78c-8.28-22.1-14.19-62.71-4-88
					c0.62-3.71-1.63-10.29,2-11c2.16,0.84-0.37,6.37,2,7c1.78-5.23,9.41-9.91,8-15c-0.75,1.33-9.77,2.51-9-1
					c3.04-3.62,10.71,1.86,13-1c-2.28,0.28-3.76-0.24-4-2c2.33,0,4.67,0,7,0c6.39-5.75,9.69-15.12,19-20c2.92-1.53,7.42-1.4,12-3
					c3.07-1.07,5.19-3.27,8-4c17.59-4.57,33.24-4.28,45-1c-0.11,1.89-3.31,0.69-3,3c8.55,2.93,13.65,12.68,19,19
					c2.27,2.68,5.51,4.38,7,7c2.87,5.04,2.75,12.95,6,20c3.12,6.76,8.15,11.78,11,18C201.31,128.27,197.51,149.97,199,169.5z
					 M197,181.5c0.62-4.02-0.74-8.05-1-13c-0.9-17.42,0.9-31.89-5-42c-0.12,3.55,0.72,8.06-3,8c-2.24-0.43-0.41-4.93-1-7
					c3.15,1.15,2.43-1.57,4-2c-0.26-4.41-3.45-5.88-3-11c-7.4,3.6-8.82,13.18-19,14c6.04-5.63,17.94-10.71,16-21
					c-1.67,7.33-5.99,12.01-12,15c-1.32-2.5,3.95-3.13,1-4c-1.11,3.55-6.83,2.51-9,5c1.76,0.58,5.88-1.21,6,1
					c-3.45,2.88-11.84,0.83-16,3c9.01,4.04,15.93,14.95,20,23c0.03,0.06,1.99,7.41,1,3c-0.06-6.63-6.01-12.63-4-18
					c2.72,4.95,4.12,11.21,6,17c2.95,1.97-2.47-8.29,0-9c3.1,5.23,2.62,14.04,5,20c-1.17,2.47-4.16-2.43-4,2c1.5,0.17,3.69-0.36,4,1
					c-0.58,3.31,2.06,9.19,2,15c0.05,1.05,1.28,0.79,1-1c-2.13-15.6-4.23-34.76,1-45c1,0,2,0,3,0c-0.69,5.71-3.56,9.42-4,15
					c-0.67,8.45,3.1,17.37,3,26c-0.13,11.22-6.58,21.88-3,33c2.9-3.25,2.18-7.95,4-13C191.76,191.62,196.2,186.69,197,181.5z
					 M182,175.5c0.27-1.36-0.62-3.9-1-2C180.73,174.86,181.62,177.4,182,175.5z M182,106.5c0.6-13.6-9-17-11-28
					c-3.33-2.03-7.72-8.25-11-7c7.56,14.71-25.62,10.7-14-5c-11.95,1.72-13.33,14-19,22c1.66,2.56,2.69-3.9,6-3
					c-9.82,7.15-3.94,19.74,1,28c-4.09-0.27-4.26-9.7-8-7c2.98,3.69,4.83,8.5,10,10c0.17-2.91-3.51-7.06-1-9
					c1.6,2.74,2.62,6.04,3,10c5.15,5.31,19.07,4.46,28,3c3.02-6.65,9.34-9.99,10-19c4.46,7.19-4.49,12.99-4,16
					c2.8-3.2,8.08-3.92,9-9c-1.71,1.37-3.45-4.92-1-7C180.55,103.28,180.51,105.65,182,106.5z M181,204.5c0.89-2.98-1.02-8.19-3-5
					C180.25,199.92,177.85,204.98,181,204.5z M175,190.5c1.81-2.7,0.17,6.42,3,6c-0.58-6.09-1.04-12.29-4-16
					C172.56,184.83,176.46,187.25,175,190.5z M176,207.5c0.1-4.1,0.2-8.2-1-11c-1.18,0.16-2.84-0.17-3,1
					C175.04,199.13,170.25,208.58,176,207.5z M172,175.5c0.55,1.45-1.17,5.17,1,5C171.91,177.95,176.42,175.35,172,175.5z
					 M170,196.5c-1.94-4.03,4.59-4.62,1-7C169.1,189.7,167.63,195.33,170,196.5z M171,185.5c-1,0-2,0-3,0c0.22,1.89-1.13,2.21-1,4
					C170.04,189.88,168.7,185.87,171,185.5z M162,138.5c-1.15,8.97,3.92,16.53,10,15C170.13,147.03,168.15,140.68,162,138.5z
					 M170,203.5c0-1.33,0-2.67,0-4c-1.16-0.84-2.68-1.32-5-1C164.83,202,168.52,201.65,170,203.5z M168,72.5
					c0.05-3.38-2.33-4.34-4-6c-0.04-1.38,0.47-2.2,1-3c-5.29-4.22-15.11-17.25-21-6c2.48-0.15,4.85-0.19,5,2
					c-2.71,2.42-5.55-1.1-10,0c-1.9,2.1-2.88,5.12-4,8c6.64-3.72,16.96-7.25,26-3c-0.01,1.32-1.75,0.91-2,2
					C162.03,68.47,164.97,70.53,168,72.5z M166,163.5c-0.33,2.42,1.11,8.1,2,6C166.96,168.45,167.37,160.93,166,163.5z M166,180.5
					C165.2,186.55,170.58,181.17,166,180.5L166,180.5z M164,197.5c0.43-1.91,2.86-1.81,2-5c-3.81-1.33-3.55-1.54-7-4
					c-1.16,1.84-5.31,0.69-4,5C159.09,193.74,160.27,196.9,164,197.5z M166,179.5c0.17-3.5-0.27-6.4-2-8
					C164.66,174.17,164.42,177.75,166,179.5z M160,148.5c0-0.67,0-1.33,0-2c-0.67,0-1.33,0-2,0c0,0.67,0,1.33,0,2
					C158.67,148.5,159.33,148.5,160,148.5z M159,144.5c2.54-11.3,0.21-13.16-9-16C152.05,134.79,151.72,143.44,159,144.5z M159,76.5
					c0.32-2.32-0.16-3.84-1-5c-2.51-2-3.35,2.6-7,0c-3.23-3.02,3.28-5.77-1-6C141.78,71.02,151.06,84.29,159,76.5z M156,187.5
					c4.94-6.65-1.42-16.5-5-21c-5.74-0.07-10.6,0.74-13,4c-6.86,1.86-13.19-1.84-20-1c-13.34,1.65-22.86,14.73-19,28
					c4.15,1.15,3.9-2.1,7-2c0.9,1.76,2.24,3.1,4,4c0.55-4.12,3.29-6.04,6-8c1.48,1.18,1.56,3.78,3,5c3.5-3.84,5.65-9.01,14-8
					c-0.43-4.43,1.67-6.33,5-7C142.48,186.96,150.39,182.99,156,187.5z M154,158.5c0.27-1.36-0.62-3.9-1-2
					C152.73,157.86,153.62,160.4,154,158.5z M152,192.5c1.67-8.25-9.21-7.02-7,1C148.47,194.3,148.84,192.01,152,192.5z M149,152.5
					c1.72,0.05,2.56-0.77,3-2C150.43,150.6,148.53,150.37,149,152.5z M147,145.5c-0.73-2.27,1.8-7.8-2-7
					C145.39,141.11,145.51,143.99,147,145.5z M143,54.5c0.4-1.39,5.68-2.83,3-4C145.6,51.89,140.32,53.33,143,54.5z M144,47.5
					c-3.71,0.71-4.29-1.71-8-1c-1.67,1.66-0.8,5.87-1,9C140.44,55.28,141.73,50.9,144,47.5z M142,194.5c1.11-2.62-0.41-9.88-5-10
					c-2.76,2.97-0.87,5.82,0,10C138.67,194.5,140.33,194.5,142,194.5z M142,158.5c0.13-1.8-0.99-2.34-3-2c0,0.67,0,1.33,0,2
					C140,158.5,141,158.5,142,158.5z M141,138.5c9.87-1.63,6.48-17.85-4-16C137.36,128.81,139.88,132.95,141,138.5z M133,143.5
					c3.63-5.71,0.97-16-1-22c0.05,1.72-0.77,2.56-2,3c-0.52-1.48-1.48-2.52-2-4c-6.71-0.71-11.13,0.87-13,5
					C119.74,132.76,124.59,139.91,133,143.5z M133,63.5c-0.55-1.45,1.17-5.17-1-5c-0.17,1.61-3.36,5.15-1,6
					C131.22,63.72,131.84,63.34,133,63.5z M132,166.5C126.86,168.92,135.44,169.08,132,166.5L132,166.5z M130,55.5
					c-0.1-3.16,4.42-6.84,2-9c-7.81,3.52-19.87,2.8-27,7C115.19,52.31,121.04,55.46,130,55.5z M132,165.5c0.9-0.16,0.51-5.53-1-2
					C130.74,164.1,131.41,165.6,132,165.5z M112,122.5c5.89-2.8,15.52-4.84,22-4c-3.98-4.02-11.02-4.98-13-11
					c-3.73,0.8-5.87,3.22-6,0c-0.17,1.17-1.58,1.09-3,1C112,113.17,112,117.83,112,122.5z M130,73.5c-0.47-2.56,3.54-5.67,1-7
					C130.48,68.07,127.15,71.86,130,73.5z M131,160.5c0.41-2.44-3.92-3.06-3-1c0.12,0.28,1.81-0.26,2,0
					C130.21,159.79,130.63,162.69,131,160.5z M134,195.5c-1.87-10.45-12.7-0.18-14,5C125.16,199.33,129.42,197.26,134,195.5z
					 M126,155.5c0.89,2.01,5.08,0.26,2-1c-0.06,0.61-0.15,1.18-1,1C127,154.94,126.19,154.37,126,155.5z M123,61.5
					c3.54,0.1,4.38,1.92,6-1c-3.39-3.55-11.57-4.72-15-5c-22.24-1.79-32.71,9.49-40,22c6.1,2.23,12.75,3.92,20,5
					c4.73,4.61,5.31,13.36,13,15c1.27-7.42-7.59-13.74-4-17c2.84,1.82,2.92,6.42,6,8c2.65-5.88-6.95-12.88-3-20
					c2.36,3.03,1.85,10.07,4,3c3.43,4.57,2.11,13.89,7,17C116.92,77.42,124.09,73.59,123,61.5z M126,70.5
					C128.88,64.71,123.53,67.87,126,70.5L126,70.5z M126,104.5c-0.44-1.89,1.36-6.03-2-5C124.55,101.28,124.51,103.65,126,104.5z
					 M121,88.5C118.27,93.57,124.49,92.22,121,88.5L121,88.5z M122,102.5C118.83,97.31,115.23,100.92,122,102.5L122,102.5z
					 M114,95.5c1.72-0.39,2.56,1.48,3,0c-2.34-0.33-0.97-4.36-3-5C114,92.17,114,93.83,114,95.5z M117,202.5
					c-0.87-2.47,0.26-6.92-3-7c0,2.73-4.16,6.42-1,9C113.66,203.16,115.14,202.64,117,202.5z M118,147.5c-1.12-7.55-2.49-14.84-6-20
					c-1.52,5.63-8.83,4.85-9,11C102.85,143.9,110.54,150.21,118,147.5z M115,103.5c1.55-2.46-3.4-2.94-3-1c0.61,0.06,1.18,0.15,1,1
					C113.67,103.5,114.33,103.5,115,103.5z M108,168.5c9.41,2.48,5.1-6.04,4-7C112.85,166.01,110.31,167.14,108,168.5z M108,126.5
					c0.09-4.19,2.28-5.12,2-8c-0.78-7.97-8.93-5.57-14-8c4.39,1.05,3.28-3.38,7-3c2.42,0.96,5.32,6.61,7,5c-1.48-0.19-0.92-2.42-1-4
					c-3.15-2.18-9.08-1.59-11-5c1.76-9.77-19.58-14.18-28-8c1.88,9.28-9.12,18.33-17,18c-0.34,4.03-4.32,9.64-3,12
					c2.65-3.55,1.98,4.61,4,5c0.29-2.71-1.41-7.41,3-6c-0.49,3.51-1.49,6.51-1,11c1.12,0.21,1.56,1.11,2,2c9.96-2.3,11.15,4.18,18,5
					c-2.81-5.52-9.68-6.99-11-14c3.95,0.39,4.6,4.06,7,6c1.3-2.48-2.23-4.85,0-5c2.31,1.02,2.07,4.6,2,8c4.15,0.52,4.29,5.05,10,4
					c1.15-5.06-4.66-11.15-7-16c3.12,0.55,4.3,3.03,7,4c-0.72,5.06,1.1,7.57,3,10c4.42,0.09,7.22-1.45,9-4
					c-5.55-2.79-10.38-6.29-13-12c6.2,3.87,16.17,18.22,22,5c-3.04-0.96-6.82-1.18-8-4C101.44,124.39,102.87,127.3,108,126.5z
					 M109,99.5c4.61,0.4,2.31-4.26,0-5C109,96.17,109,97.83,109,99.5z M109,206.5c-0.4-3.27-0.87-6.46-4-7c-1.32,1.61-2.16,8.81,1,9
					C106.26,207.09,108.19,207.36,109,206.5z M102,203.5c0.97-3.97-2.9-3.1-5-4c-0.22,1.89,1.13,2.21,1,4c-0.67,0-1.33,0-2,0
					C96.13,208.19,98.27,201.45,102,203.5z M99,154.5c5.61-1.26,5.95-9.43,1-12C99.24,146.62,94.83,151.25,99,154.5z M98,212.5
					c5.87,1.4,4.5-6.84,1-7C98.68,207.85,97.42,209.25,98,212.5z M99,181.5c-0.1-2.9,4.21-5.75,0-7C99,176.29,96.31,180.32,99,181.5
					z M96,186.5c0.27-1.36-0.62-3.9-1-2C94.73,185.86,95.62,188.4,96,186.5z M93,164.5c3.53,0.05,6.07-7.62,2-9
					C94.45,158.61,94.18,162.02,93,164.5z M88,179.5c-0.34-13.68,7.18-24.81,7-35C88.86,151.7,86.85,168.34,88,179.5z M89,209.5
					c-0.21-2.97,3.57-3.53,5-2c-0.45-2.55-1.4-4.6-3-6c-0.41,1.26-1.29,2.04-3,2C88.58,205.26,86.79,209.38,89,209.5z M89,200.5
					c1.74-1.86,1.29-7.17-1-8C88.61,194.89,86.74,199.75,89,200.5z M84,90.5c2.56-1.08,4.77,3.04,6,0c-2.04-0.29-1.96-2.71-4-3
					C85.76,88.93,84.35,89.19,84,90.5z M99,137.5c-6.98,6.69-20.95,6.39-33,8C76.49,146.77,97.7,145.37,99,137.5z M84,199.5
					c-0.49,12.15,1.83,6.04,1-3c-1.38-15.07,3.19-39.56,4-50c-7.24,3.03-19.69,4.82-26,3c2.76,2.9,8.72,2.61,12,5
					c-14.76,0.76-17.96-10.04-26-16c0,4,0,8,0,12c3.19,7.45,12.1,10.99,17,18c5.1,7.29,6.75,17.91,6,29c-0.32-2.35-1.58-3.75-1-7
					c-3.21,0.87-3.13-1.54-4-3c-2.8-11.54-7.46-26.54-16-29c2,11.66,7.12,20.22,8,33c3.7,2.63,6.93,5.74,8,11
					c5.55,2.45,10.51,5.49,16,8c-1.56-17.67-2.68-38.08,2-54C85.34,171.13,80.85,185.28,84,199.5z M85,86.5
					c-5.07-1.59-8.12-5.21-15-5c-3.27,7.4-14.7,11.96-14,20C62.89,93.72,74.11,90.28,85,86.5z M70,187.5c-0.88-2.79-1.25-6.08-3-8
					C67.71,182.46,67.27,186.56,70,187.5z M56,110.5c6.56-1.78,12.68-9.3,12-15c-1.38,2.29-4.98,2.35-6,5c3.33,0.45,1.02,4.3-1,5
					c-1.97,0.3-1.98-1.35-3-2C57.16,105.66,55.41,106.91,56,110.5z M61,140.5c2.32-0.45,7.47,3.97,7,0
					C67.86,138.85,61.14,138.85,61,140.5z M50,135.5c3.98,4.04,9.02,12.3,15,11C59.67,144.8,50.49,135.13,50,135.5z"/>
				<path fill="#FFFFFF" d="M196,168.5c0.26,4.95,1.62,8.98,1,13c-0.8,5.19-5.24,10.12-7,15c-1.82,5.05-1.1,9.75-4,13
					c-3.58-11.12,2.87-21.78,3-33c0.1-8.63-3.67-17.55-3-26c0.44-5.58,3.31-9.29,4-15c-1,0-2,0-3,0c-5.23,10.24-3.13,29.4-1,45
					c0.28,1.79-0.95,2.05-1,1c0.06-5.81-2.58-11.69-2-15c-0.31-1.36-2.5-0.83-4-1c-0.16-4.43,2.83,0.47,4-2
					c-2.38-5.96-1.9-14.77-5-20c-2.47,0.71,2.95,10.97,0,9c-1.88-5.79-3.28-12.05-6-17c-2.01,5.37,3.94,11.37,4,18
					c0.99,4.41-0.97-2.94-1-3c-4.07-8.05-10.99-18.96-20-23c4.16-2.17,12.55-0.12,16-3c-0.12-2.21-4.24-0.42-6-1
					c2.17-2.49,7.89-1.45,9-5c2.95,0.87-2.32,1.5-1,4c6.01-2.99,10.33-7.67,12-15c1.94,10.29-9.96,15.37-16,21
					c10.18-0.82,11.6-10.4,19-14c-0.45,5.12,2.74,6.59,3,11c-1.57,0.43-0.85,3.15-4,2c0.59,2.07-1.24,6.57,1,7
					c3.72,0.06,2.88-4.45,3-8C196.9,136.61,195.1,151.08,196,168.5z M162,128.5c2.46,2.57,9.3,6,12,5
					C171.11,130.72,168.52,127.65,162,128.5z"/>
				<path fill="#FFFFFF" d="M189.02,108.61c0.45,1.47,7.811,12.68,6.98,21.89C193.63,123.24,190.24,117.01,189.02,108.61z"/>
				<path fill="#FFFFFF" d="M181,173.5c0.38-1.9,1.27,0.64,1,2C181.62,177.4,180.73,174.86,181,173.5z"/>
				<path fill="#FFFFFF" d="M171,78.5c2,11,11.6,14.4,11,28c-1.49-0.85-1.45-3.22-2-5c-2.45,2.08-0.71,8.37,1,7
					c-0.92,5.08-6.2,5.8-9,9c-0.49-3.01,8.46-8.81,4-16c-0.66,9.01-6.98,12.35-10,19c-8.93,1.46-22.85,2.31-28-3
					c-0.38-3.96-1.4-7.26-3-10c-2.51,1.94,1.17,6.09,1,9c-5.17-1.5-7.02-6.31-10-10c3.74-2.7,3.91,6.73,8,7
					c-4.94-8.26-10.82-20.85-1-28c-3.31-0.9-4.34,5.56-6,3c5.67-8,7.05-20.28,19-22c-11.62,15.7,21.56,19.71,14,5
					C163.28,70.25,167.67,76.47,171,78.5z M151,119.5c2.98-1.06,9.56-3.73,6-8C157.67,116.21,148.23,116.01,151,119.5z"/>
				<path fill="#FFFFFF" d="M178,206.5c4.59,0.53,3.76,4.26,3,8c-0.33,0-0.67,0-1,0C178.86,212.31,177.42,210.41,178,206.5z"/>
				<path fill="#FFFFFF" d="M178,199.5c1.98-3.19,3.89,2.02,3,5C177.85,204.98,180.25,199.92,178,199.5z"/>
				<path fill="#FFFFFF" d="M178,196.5c-2.83,0.42-1.19-8.7-3-6c1.46-3.25-2.44-5.67-1-10C176.96,184.21,177.42,190.41,178,196.5z"
					/>
				<path fill="#FFFFFF" d="M177,213.5c0,0.33,0,0.67,0,1c-5.33,0-10.67,0-16,0c-2.91-6.63-29.16-7.39-34,0c-8.33,0-16.67,0-25,0
					c5.16-4.39,13.67-9.42,23-13c8.95-3.44,21.2-8.13,30-6c4.44,1.07,7.47,6.01,11,9C169.78,207.7,173.7,210,177,213.5z"/>
				<path fill="#FFFFFF" d="M175,196.5c1.2,2.8,1.1,6.9,1,11c-5.75,1.08-0.96-8.37-4-10C172.16,196.33,173.82,196.66,175,196.5z"/>
				<path d="M174,133.5c-2.7,1-9.54-2.43-12-5C168.52,127.65,171.11,130.72,174,133.5z"/>
				<path fill="#FFFFFF" d="M173,180.5c-2.17,0.17-0.45-3.55-1-5C176.42,175.35,171.91,177.95,173,180.5z"/>
				<path fill="#FFFFFF" d="M171,189.5c3.59,2.38-2.94,2.97-1,7C167.63,195.33,169.1,189.7,171,189.5z"/>
				<path fill="#FFFFFF" d="M168,185.5c1,0,2,0,3,0c-2.3,0.37-0.96,4.38-4,4C166.87,187.71,168.22,187.39,168,185.5z"/>
				<path fill="#FFFFFF" d="M172,153.5c-6.08,1.53-11.15-6.03-10-15C168.15,140.68,170.13,147.03,172,153.5z"/>
				<path fill="#FFFFFF" d="M170,199.5c0,1.33,0,2.67,0,4c-1.48-1.85-5.17-1.5-5-5C167.32,198.18,168.84,198.66,170,199.5z"/>
				<path fill="#FFFFFF" d="M164,66.5c1.67,1.66,4.05,2.62,4,6c-3.03-1.97-5.97-4.03-9-6c0.25-1.09,1.99-0.68,2-2
					c-9.04-4.25-19.36-0.72-26,3c1.12-2.88,2.1-5.9,4-8c4.45-1.1,7.29,2.42,10,0c-0.15-2.19-2.52-2.15-5-2
					c5.89-11.25,15.71,1.78,21,6C164.47,64.3,163.96,65.12,164,66.5z"/>
				<path fill="#FFFFFF" d="M168,169.5c-0.89,2.1-2.33-3.58-2-6C167.37,160.93,166.96,168.45,168,169.5z"/>
				<path fill="#FFFFFF" d="M166,180.5C170.58,181.17,165.2,186.55,166,180.5L166,180.5z"/>
				<path fill="#FFFFFF" d="M166,192.5c0.86,3.19-1.57,3.09-2,5c-3.73-0.6-4.91-3.76-9-4c-1.31-4.31,2.84-3.16,4-5
					C162.45,190.96,162.19,191.17,166,192.5z"/>
				<path fill="#FFFFFF" d="M164,171.5c1.73,1.6,2.17,4.5,2,8C164.42,177.75,164.66,174.17,164,171.5z"/>
				<path d="M161,214.5c-1.67,0-3.33,0-5,0c-6.56-4.1-18.25-3.26-25,0c-1.33,0-2.67,0-4,0C131.84,207.11,158.09,207.87,161,214.5z"
					/>
				<path fill="#FFFFFF" d="M160,146.5c0,0.67,0,1.33,0,2c-0.67,0-1.33,0-2,0c0-0.67,0-1.33,0-2
					C158.67,146.5,159.33,146.5,160,146.5z"/>
				<path fill="#FFFFFF" d="M150,128.5c9.21,2.84,11.54,4.7,9,16C151.72,143.44,152.05,134.79,150,128.5z"/>
				<path fill="#FFFFFF" d="M158,71.5c0.84,1.16,1.32,2.68,1,5c-7.94,7.79-17.22-5.48-9-11c4.28,0.23-2.23,2.98,1,6
					C154.65,74.1,155.49,69.5,158,71.5z"/>
				<path d="M157,111.5c3.56,4.27-3.02,6.94-6,8C148.23,116.01,157.67,116.21,157,111.5z"/>
				<path fill="#FFFFFF" d="M151,166.5c3.58,4.5,9.94,14.35,5,21c-5.61-4.51-13.52-0.54-18-6c-3.33,0.67-5.43,2.57-5,7
					c-8.35-1.01-10.5,4.16-14,8c-1.44-1.22-1.52-3.82-3-5c-2.71,1.96-5.45,3.88-6,8c-1.76-0.9-3.1-2.24-4-4c-3.1-0.1-2.85,3.15-7,2
					c-3.86-13.27,5.66-26.35,19-28c6.81-0.84,13.14,2.86,20,1C140.4,167.24,145.26,166.43,151,166.5z"/>
				<path fill="#FFFFFF" d="M156,214.5c-8.33,0-16.67,0-25,0C137.75,211.24,149.44,210.4,156,214.5z"/>
				<path fill="#FFFFFF" d="M153,156.5c0.38-1.9,1.27,0.64,1,2C153.62,160.4,152.73,157.86,153,156.5z"/>
				<path fill="#FFFFFF" d="M145,193.5c-2.21-8.02,8.67-9.25,7-1C148.84,192.01,148.47,194.3,145,193.5z"/>
				<path fill="#FFFFFF" d="M152,150.5c-0.44,1.23-1.28,2.05-3,2C148.53,150.37,150.43,150.6,152,150.5z"/>
				<path fill="#FFFFFF" d="M145,138.5c3.8-0.8,1.27,4.73,2,7C145.51,143.99,145.39,141.11,145,138.5z"/>
				<path fill="#FFFFFF" d="M146,50.5c2.68,1.17-2.6,2.61-3,4C140.32,53.33,145.6,51.89,146,50.5z"/>
				<path fill="#FFFFFF" d="M136,46.5c3.71-0.71,4.29,1.71,8,1c-2.27,3.4-3.56,7.78-9,8C135.2,52.37,134.33,48.16,136,46.5z"/>
				<path fill="#FFFFFF" d="M137,184.5c4.59,0.12,6.11,7.38,5,10c-1.67,0-3.33,0-5,0C136.13,190.32,134.24,187.47,137,184.5z"/>
				<path fill="#FFFFFF" d="M139,156.5c2.01-0.34,3.13,0.2,3,2c-1,0-2,0-3,0C139,157.83,139,157.17,139,156.5z"/>
				<path fill="#FFFFFF" d="M137,122.5c10.48-1.85,13.87,14.37,4,16C139.88,132.95,137.36,128.81,137,122.5z"/>
				<path fill="#FFFFFF" d="M141,165.5c-1,0-2,0-3,0c0.15-1.34-1.57-5.51-2-3c-2.72-0.79,0.74-2.29,0.2-4.49
					C137.7,161.65,139.43,164.17,141,165.5z"/>
				<path fill="#FFFFFF" d="M136.18,157.94c-0.06-0.141-0.12-0.29-0.18-0.44C136.08,157.65,136.14,157.8,136.18,157.94z"/>
				<path fill="#FFFFFF" d="M132,121.5c1.97,6,4.63,16.29,1,22c-8.41-3.59-13.26-10.74-18-18c1.87-4.13,6.29-5.71,13-5
					c0.52,1.48,1.48,2.52,2,4C131.23,124.06,132.05,123.22,132,121.5z"/>
				<path fill="#FFFFFF" d="M132,58.5c2.17-0.17,0.45,3.55,1,5c-1.16-0.16-1.78,0.22-2,1C128.64,63.65,131.83,60.11,132,58.5z"/>
				<path fill="#FFFFFF" d="M132,166.5C135.44,169.08,126.86,168.92,132,166.5L132,166.5z"/>
				<path fill="#FFFFFF" d="M132,46.5c2.42,2.16-2.1,5.84-2,9c-8.96-0.04-14.81-3.19-25-2C112.13,49.3,124.19,50.02,132,46.5z"/>
				<path fill="#FFFFFF" d="M131,163.5c1.51-3.53,1.9,1.84,1,2C131.41,165.6,130.74,164.1,131,163.5z"/>
				<path fill="#FFFFFF" d="M134,118.5c-6.48-0.84-16.11,1.2-22,4c0-4.67,0-9.33,0-14c1.42,0.09,2.83,0.17,3-1
					c0.13,3.22,2.27,0.8,6,0C122.98,113.52,130.02,114.48,134,118.5z"/>
				<path fill="#FFFFFF" d="M131,66.5c2.54,1.33-1.47,4.44-1,7C127.15,71.86,130.48,68.07,131,66.5z"/>
				<path fill="#FFFFFF" d="M128,159.5c-0.92-2.06,3.41-1.44,3,1c-0.37,2.19-0.79-0.71-1-1C129.81,159.24,128.12,159.78,128,159.5z"
					/>
				<path fill="#FFFFFF" d="M120,200.5c1.3-5.18,12.13-15.45,14-5C129.42,197.26,125.16,199.33,120,200.5z"/>
				<path fill="#FFFFFF" d="M128,154.5c3.08,1.26-1.11,3.01-2,1c0.19-1.13,1-0.56,1,0C127.85,155.68,127.94,155.11,128,154.5z"/>
				<path fill="#FFFFFF" d="M129,60.5c-1.62,2.92-2.46,1.1-6,1c1.09,12.09-6.08,15.92-6,27c-4.89-3.11-3.57-12.43-7-17
					c-2.15,7.07-1.64,0.03-4-3c-3.95,7.12,5.65,14.12,3,20c-3.08-1.58-3.16-6.18-6-8c-3.59,3.26,5.27,9.58,4,17
					c-7.69-1.64-8.27-10.39-13-15c-7.25-1.08-13.9-2.77-20-5c7.29-12.51,17.76-23.79,40-22C117.43,55.78,125.61,56.95,129,60.5z
					 M118,77.5c0.08-4.41-0.07-8.6-3-10C114.83,68.65,113.36,78.01,118,77.5z"/>
				<path fill="#FFFFFF" d="M126,70.5C123.53,67.87,128.88,64.71,126,70.5L126,70.5z"/>
				<path fill="#FFFFFF" d="M124,99.5c3.36-1.03,1.56,3.11,2,5C124.51,103.65,124.55,101.28,124,99.5z"/>
				<path fill="#FFFFFF" d="M121,88.5C124.49,92.22,118.27,93.57,121,88.5L121,88.5z"/>
				<path fill="#FFFFFF" d="M122,102.5C115.23,100.92,118.83,97.31,122,102.5L122,102.5z"/>
				<path d="M115,67.5c2.93,1.4,3.08,5.59,3,10C113.36,78.01,114.83,68.65,115,67.5z"/>
				<path fill="#FFFFFF" d="M117,95.5c-0.44,1.48-1.28-0.39-3,0c0-1.67,0-3.33,0-5C116.03,91.14,114.66,95.17,117,95.5z"/>
				<path fill="#FFFFFF" d="M114,195.5c3.26,0.08,2.13,4.53,3,7c-1.86,0.14-3.34,0.66-4,2C109.84,201.92,114,198.23,114,195.5z"/>
				<path fill="#FFFFFF" d="M112,127.5c3.51,5.16,4.88,12.45,6,20c-7.46,2.71-15.15-3.6-15-9C103.17,132.35,110.48,133.13,112,127.5
					z"/>
				<path fill="#FFFFFF" d="M112,102.5c-0.4-1.94,4.55-1.46,3,1c-0.67,0-1.33,0-2,0C113.18,102.65,112.61,102.56,112,102.5z"/>
				<path fill="#FFFFFF" d="M112,161.5c1.1,0.96,5.41,9.48-4,7C110.31,167.14,112.85,166.01,112,161.5z"/>
				<path fill="#FFFFFF" d="M109,94.5c2.31,0.74,4.61,5.4,0,5C109,97.83,109,96.17,109,94.5z"/>
				<path fill="#FFFFFF" d="M105,199.5c3.13,0.54,3.6,3.73,4,7c-0.81,0.86-2.74,0.59-3,2C102.84,208.31,103.68,201.11,105,199.5z"/>
				<path fill="#FFFFFF" d="M97,199.5c2.1,0.9,5.97,0.03,5,4c-3.73-2.05-5.87,4.69-6,0c0.67,0,1.33,0,2,0
					C98.13,201.71,96.78,201.39,97,199.5z"/>
				<path fill="#FFFFFF" d="M100,142.5c4.95,2.57,4.61,10.74-1,12C94.83,151.25,99.24,146.62,100,142.5z"/>
				<path fill="#FFFFFF" d="M99,205.5c3.5,0.16,4.87,8.4-1,7C97.42,209.25,98.68,207.85,99,205.5z"/>
				<path fill="#FFFFFF" d="M99,174.5c4.21,1.25-0.1,4.1,0,7C96.31,180.32,99,176.29,99,174.5z"/>
				<path fill="#FFFFFF" d="M95,184.5c0.38-1.9,1.27,0.64,1,2C95.62,188.4,94.73,185.86,95,184.5z"/>
				<path fill="#FFFFFF" d="M96,214.5c-2,0-4,0-6,0c-0.41-2.41,1.83-2.17,1-5C94.14,209.69,95.81,211.36,96,214.5z"/>
				<path fill="#FFFFFF" d="M95,155.5c4.07,1.38,1.53,9.05-2,9C94.18,162.02,94.45,158.61,95,155.5z"/>
				<path fill="#FFFFFF" d="M95,144.5c0.18,10.19-7.34,21.32-7,35C86.85,168.34,88.86,151.7,95,144.5z"/>
				<path fill="#FFFFFF" d="M94,207.5c-1.43-1.53-5.21-0.97-5,2c-2.21-0.12-0.42-4.24-1-6c1.71,0.04,2.59-0.74,3-2
					C92.6,202.9,93.55,204.95,94,207.5z"/>
				<path fill="#FFFFFF" d="M88,192.5c2.29,0.83,2.74,6.14,1,8C86.74,199.75,88.61,194.89,88,192.5z"/>
				<path fill="#FFFFFF" d="M90,90.5c-1.23,3.04-3.44-1.08-6,0c0.35-1.31,1.76-1.57,2-3C88.04,87.79,87.96,90.21,90,90.5z"/>
				<path fill="#FFFFFF" d="M66,145.5c12.05-1.61,26.02-1.31,33-8C97.7,145.37,76.49,146.77,66,145.5z"/>
				<path fill="#FFFFFF" d="M85,196.5c0.83,9.04-1.49,15.15-1,3c-3.15-14.22,1.34-28.37,1-43c-4.68,15.92-3.56,36.33-2,54
					c-5.49-2.51-10.45-5.55-16-8c-1.07-5.26-4.3-8.37-8-11c-0.88-12.78-6-21.34-8-33c8.54,2.46,13.2,17.46,16,29
					c0.87,1.46,0.79,3.87,4,3c-0.58,3.25,0.68,4.65,1,7c0.75-11.09-0.9-21.71-6-29c-4.9-7.01-13.81-10.55-17-18c0-4,0-8,0-12
					c8.04,5.96,11.24,16.76,26,16c-3.28-2.39-9.24-2.1-12-5c6.31,1.82,18.76,0.03,26-3C88.19,156.94,83.62,181.43,85,196.5z
					 M82,208.5c-3.93-13.92-0.37-34.15-2-48c-1.19,9.43-2.89,22.99-2,34C78.42,199.68,79.49,206.97,82,208.5z"/>
				<path fill="#FFFFFF" d="M83,213.5c0,0.33,0,0.67,0,1c-6.33,0-12.67,0-19,0c-1.49-6.51-5.19-10.81-5-19
					C64.86,203.64,72.8,209.7,83,213.5z"/>
				<path d="M80,160.5c1.63,13.85-1.93,34.08,2,48c-2.51-1.53-3.58-8.82-4-14C77.11,183.49,78.81,169.93,80,160.5z"/>
				<path fill="#FFFFFF" d="M70,81.5c6.88-0.21,9.93,3.41,15,5c-10.89,3.78-22.11,7.22-29,15C55.3,93.46,66.73,88.9,70,81.5z"/>
				<path fill="#FFFFFF" d="M67,179.5c1.75,1.92,2.12,5.21,3,8C67.27,186.56,67.71,182.46,67,179.5z"/>
				<path fill="#FFFFFF" d="M68,95.5c0.68,5.7-5.44,13.22-12,15c-0.59-3.59,1.16-4.84,2-7c1.02,0.65,1.03,2.3,3,2
					c2.02-0.7,4.33-4.55,1-5C63.02,97.85,66.62,97.79,68,95.5z"/>
				<path fill="#FFFFFF" d="M68,140.5c0.47,3.97-4.68-0.45-7,0C61.14,138.85,67.86,138.85,68,140.5z"/>
				<path fill="#FFFFFF" d="M65,146.5c-5.98,1.3-11.02-6.96-15-11C50.49,135.13,59.67,144.8,65,146.5z"/>
				<path fill="#FFFFFF" d="M62,214.5c-6,0-12,0-18,0c0-18.67,0-37.33,0-56c1.09,5.91,3.11,10.89,3,18
					C56.67,186.67,55.58,201.44,62,214.5z"/>
			</g>
			<g>
			</g>
		</g>
	</g>
	<g>
		<g>
			<path fill="#FF5F5F" d="M54,125.5c0,2.541,0.022,5.094-0.446,7.601c-0.354,1.891,2.538,2.698,2.893,0.798
				c0.52-2.78,0.553-5.58,0.554-8.399C57,123.565,54,123.565,54,125.5L54,125.5z"/>
		</g>
	</g>
	<g>
		<g>
			<path fill="#FF5F5F" d="M58.1,140.362c3.934-0.846,7.652-0.009,11.301,1.5c0.447,0.185,0.64-0.542,0.199-0.724
				c-3.793-1.568-7.636-2.373-11.699-1.5C57.428,139.74,57.628,140.463,58.1,140.362L58.1,140.362z"/>
		</g>
	</g>
	<g>
		<g>
			<path fill="#FF5F5F" d="M77.561,139.939c-3.205-3.23-6.166-6.631-8.265-10.696c-0.888-1.72-3.477-0.202-2.591,1.514
				c2.21,4.28,5.361,7.903,8.735,11.304C76.803,143.436,78.924,141.313,77.561,139.939L77.561,139.939z"/>
		</g>
	</g>
	<g>
		<g>
			<path fill="#FF5F5F" d="M74.946,134.601c-0.461-1.843-0.91-3.692-1.5-5.5c-0.597-1.831-3.495-1.047-2.893,0.798
				c0.589,1.807,1.039,3.657,1.5,5.5C72.523,137.275,75.416,136.479,74.946,134.601L74.946,134.601z"/>
		</g>
	</g>
	<g>
		<g>
			<path fill="#FF5F5F" d="M76.97,127.03c3.628,3.346,5.125,8.527,6.307,13.169c0.239,0.937,1.685,0.54,1.446-0.398
				c-1.243-4.879-2.88-10.315-6.693-13.831C77.321,125.315,76.257,126.373,76.97,127.03L76.97,127.03z"/>
		</g>
	</g>
	<g>
		<g>
			<path fill="#FF5F5F" d="M82.554,125.399c2.436,5.94,9.072,6.58,12.886,11.162c1.239,1.489,3.349-0.646,2.121-2.121
				c-3.288-3.951-10.095-4.916-12.114-9.838C84.723,122.837,81.819,123.608,82.554,125.399L82.554,125.399z"/>
		</g>
	</g>
	<g>
		<g>
			<path fill="#FF5F5F" d="M104.399,126.554c-2.183-0.462-3.947-1.332-5.338-3.114c-1.189-1.524-3.296,0.615-2.121,2.121
				c1.67,2.14,4.042,3.332,6.662,3.886C105.488,129.846,106.291,126.954,104.399,126.554L104.399,126.554z"/>
		</g>
	</g>
	<g>
		<g>
			<path fill="#FF5F5F" d="M109.795,113.743c-2.412-3.503-5.844-6.147-10.295-5.743c-1.91,0.173-1.927,3.175,0,3
				c3.384-0.308,5.858,1.575,7.705,4.257C108.294,116.839,110.896,115.341,109.795,113.743L109.795,113.743z"/>
		</g>
	</g>
	<g>
		<g>
			<path fill="#FF5F5F" d="M104.257,111.205c-1.2-0.771-2.645-1.289-3.696-2.265c-1.193-1.108-3.433,0.415-2.356,1.817
				c1.663,2.167,3.716,3.64,6.039,5.039c1.662,1,3.168-1.594,1.514-2.591c-1.837-1.106-3.638-2.236-4.961-3.961
				c-0.786,0.605-1.571,1.211-2.356,1.817c1.265,1.174,2.867,1.812,4.304,2.735C104.375,114.845,105.878,112.247,104.257,111.205
				L104.257,111.205z"/>
		</g>
	</g>
	<g>
		<g>
			<path fill="#FF5F5F" d="M93.601,99.946c3.731,1.534,5.652,5.845,8.338,8.614c1.349,1.391,3.468-0.732,2.121-2.121
				c-3.198-3.298-5.204-7.554-9.662-9.386C92.609,96.318,91.837,99.222,93.601,99.946L93.601,99.946z"/>
		</g>
	</g>
	<g>
		<g>
			<path fill="#FF5F5F" d="M130.622,86.853c-7.717,5.841-1.871,15.953,1.731,22.526c0.465,0.849,1.76,0.092,1.295-0.757
				c-3.091-5.642-9.098-15.304-2.269-20.474C132.139,87.572,131.393,86.268,130.622,86.853L130.622,86.853z"/>
		</g>
	</g>
	<g>
		<g>
			<path fill="#FF5F5F" d="M155.776,113.301c-0.94,2.243-2.732,4.036-4.976,4.976c-0.878,0.368-0.493,1.82,0.398,1.446
				c2.787-1.168,4.855-3.237,6.024-6.024C157.597,112.808,156.145,112.422,155.776,113.301L155.776,113.301z"/>
		</g>
	</g>
	<g>
		<g>
			<path fill="#FF5F5F" d="M173.75,103.5c0.127,3.489-0.451,6.488-2.365,9.433c-1.518,2.333-3.455,4.39-5.032,6.688
				c0.432,0.252,0.863,0.504,1.295,0.757c2.36-3.794,5.938-6.404,7.576-10.679c0.346-0.905-1.104-1.292-1.447-0.398
				c-1.568,4.096-5.158,6.677-7.424,10.321c-0.517,0.831,0.755,1.545,1.295,0.757c1.858-2.708,4.142-5.119,5.815-7.952
				c1.601-2.709,1.899-5.848,1.787-8.927C175.215,102.536,173.715,102.532,173.75,103.5L173.75,103.5z"/>
		</g>
	</g>
	<g>
		<g>
			<path fill="#FF5F5F" d="M177.25,102c0.056,2.962,1.524,5.541,4.551,6.223c0.942,0.212,1.342-1.233,0.398-1.446
				c-2.374-0.535-3.406-2.456-3.449-4.777C178.732,101.034,177.232,101.032,177.25,102L177.25,102z"/>
		</g>
	</g>
	<g>
		<g>
			<path fill="#FF5F5F" d="M134.353,109.378c1.684,2.691,1.895,5.527,1.897,8.622c0.001,0.967,1.501,0.967,1.5,0
				c-0.003-3.355-0.282-6.47-2.103-9.378C135.136,107.804,133.837,108.556,134.353,109.378L134.353,109.378z"/>
		</g>
	</g>
	<g>
		<g>
			<path fill="#FF5F5F" d="M91,123.25c2.981,0.082,3.844,1.552,3.75,4.326c-0.064,1.89-0.376,3.749,0.027,5.623
				c0.204,0.946,1.649,0.544,1.446-0.398c-0.54-2.511,0.303-5.093-0.105-7.627c-0.415-2.573-2.825-3.361-5.118-3.424
				C90.032,121.724,90.035,123.224,91,123.25L91,123.25z"/>
		</g>
	</g>
	<text transform="matrix(1 0 0 1 189 77.5)" fill="#ED1C24" font-family="'Verdana-Bold'" font-size="12">FFFFFFF</text>
	<text transform="matrix(1 0 0 1 189 93.5)" fill="#ED1C24" font-family="'Verdana-Bold'" font-size="12">FFFFFFF</text>
	<text transform="matrix(1 0 0 1 189 109.5)" fill="#ED1C24" font-family="'Verdana-Bold'" font-size="12"> FFFFFF</text>
	<text transform="matrix(1 0 0 1 189 125.5)" fill="#ED1C24" font-family="'Verdana-Bold'" font-size="12">    FFFUU</text>
	<text transform="matrix(1 0 0 1 189 141.5)" fill="#ED1C24" font-family="'Verdana-Bold'" font-size="12">    UUUU</text>
	<text transform="matrix(1 0 0 1 189 157.5)" fill="#ED1C24" font-family="'Verdana-Bold'" font-size="12">     UUUU</text>
	<text transform="matrix(1 0 0 1 189 173.5)" fill="#ED1C24" font-family="'Verdana-Bold'" font-size="12">    UUUU</text>
	<text transform="matrix(1 0 0 1 189 189.5)" fill="#ED1C24" font-family="'Verdana-Bold'" font-size="12">     UUUU</text>
	<text transform="matrix(1 0 0 1 189 205.5)" fill="#ED1C24" font-family="'Verdana-Bold'" font-size="12">    UUUU-</text>
</g>
<g id="Layer_2">
</g>
</svg>
