<?xml version="1.0" encoding="utf-8"?>
<!-- Generator: Adobe Illustrator 15.0.0, SVG Export Plug-In . SVG Version: 6.00 Build 0)  -->
<!DOCTYPE svg PUBLIC "-//W3C//DTD SVG 1.1//EN" "http://www.w3.org/Graphics/SVG/1.1/DTD/svg11.dtd">
<svg version="1.1" xmlns="http://www.w3.org/2000/svg" xmlns:xlink="http://www.w3.org/1999/xlink" x="0px" y="0px" width="300px"
	 height="300px" viewBox="0 0 300 300" enable-background="new 0 0 300 300" xml:space="preserve">
<g id="Layer_1">
	<g id="Aes2Tj.tif">
		<g>
			<g>
				<path fill-rule="evenodd" clip-rule="evenodd" fill="#FFFFFF" d="M251,205.5c-1.278-0.055-1.385-1.282-3-1
					c-3.231-0.565-1.025-4.567-1-6c0.318-17.999,0.843-36.887-1-53c-1.624-14.205-12.353-27.248-17-38
					c-3.046-7.045-3.646-14.361-6-20c-1.935-4.636-6.159-7.953-10-13c-7.64-10.038-13.099-20.484-24-25
					c-0.299-1.966,1.351-1.983,2-3c-16.635-7.278-35.581-4.746-56,1c-7.443,2.094-16.804,5.36-22,8
					c-11.896,6.043-16.055,18.455-23,25c-2.492,0.841-5.357,1.309-9,1c-1.438,1.759-0.917,2.279,2,2c-2.78,3.22-13.713-1.713-15,3
					c2.696,2.304,9.645,0.355,14,1c-3.795,7.205-8.937,13.063-13,20c-2.614-1.386,0.486-8.486-2-10c1.216,12.962-7.717,20.843-5,32
					c2.984-0.016-1.411-7.411,3-6c-2.285,12.262-7.922,23.488-6,37c0.095,5.171-0.315,11.599-1,5c-1.246-11.997,0.966-32.587,0-42
					c-2.762-2.731-0.938,1.464-3,2c0-28.333,0-56.667,0-85c65.333,0,130.667,0,196,0C251,95.5,251,150.5,251,205.5z"/>
				<path fill-rule="evenodd" clip-rule="evenodd" fill="#FFFFFF" d="M168,44.5c4.491-0.491,7.493,0.507,11,1
					c-2.999,4.001-4.152,9.848-11,10C168,51.833,168,48.167,168,44.5z"/>
				<path fill-rule="evenodd" clip-rule="evenodd" fill="#FFFFFF" d="M164,59.5c3.402,1.788,0.567,5.72-1,8
					C160.659,66.053,163.636,61.548,164,59.5z"/>
				<path fill-rule="evenodd" clip-rule="evenodd" d="M178,81.5c2.202-6.036,11.315-5.142,15-4c3.522,1.092,5.727,5.008,10,10
					c6.161,7.197,10.018,10.746,15,21c3.741,7.699,6.329,12.598,5,24c-3.068,4.265-7.28,7.386-11,11
					c-15.396,1.938-33.03-0.163-42-10c-1.676-1.837-9.605-14.716-10-18c-1.763-14.661,12.077-24.961,22-33
					C185.296,78.028,178.16,83.958,178,81.5z M163,114.5c0.271,2.578,8.759,15.661,10,17c7.547,8.145,21.803,10.053,37,9
					c13.527-6.679,11.841-19.97,5-33c-5.769-10.988-18.106-23.283-25-27C182.646,86.36,161.459,99.798,163,114.5z"/>
				<path fill-rule="evenodd" clip-rule="evenodd" fill="#FFFFFF" d="M190,80.5c6.894,3.717,19.231,16.012,25,27
					c6.841,13.03,8.527,26.321-5,33c-15.197,1.053-29.453-0.855-37-9c-1.241-1.339-9.729-14.422-10-17
					C161.459,99.798,182.646,86.36,190,80.5z M183,113.5c0.761,3.956,3.645-0.522,6,0c7.445,1.651,9.067,10.342,3,15
					c-3.591-0.409-7.747-0.253-9-3c0-3.333,0-6.667,0-10c-4.935,0.399-2.338,8.329-3,13c3.505,2.829,9.515,3.151,16,3
					c2.452-3.548,2.666-9.333,4-14C195.961,115.265,187.712,105.617,183,113.5z"/>
				<path fill-rule="evenodd" clip-rule="evenodd" fill="#FFFFFF" d="M111,94.5c0.256-2.34,4.394-0.576,5,0
					C115.153,97.431,112.78,93.902,111,94.5z"/>
				<path fill-rule="evenodd" clip-rule="evenodd" fill="#FFFFFF" d="M152,96.5c2.065,0.859,1.055,6.96,0,8
					C147.677,103.147,151.462,98.895,152,96.5z"/>
				<path fill-rule="evenodd" clip-rule="evenodd" d="M200,117.5c-1.334,4.667-1.548,10.452-4,14c-6.485,0.151-12.495-0.171-16-3
					c0.662-4.671-1.935-12.601,3-13c0,3.333,0,6.667,0,10c1.253,2.747,5.409,2.591,9,3c6.067-4.658,4.445-13.349-3-15
					c-2.355-0.522-5.239,3.956-6,0C187.712,105.617,195.961,115.265,200,117.5z"/>
				<path fill-rule="evenodd" clip-rule="evenodd" d="M230,180.5c-12.045-1.293-10.436-24.894-25-27c-3.13,1.912,7.13,4.088,4,6
					c-23.525-6.091-49.671-33.714-71-9c-6.409,7.426-7.323,13.493-9,26c-2.874,21.437-7.105,45.144-16,60
					c-0.195,4.528,5.867,2.8,6,7c-1.152,3.983-7.977-2.324-10-4c3.748-11.792,10.523-23.322,13-38c1.818-10.774,1.932-22.439,4-33
					c1.943-9.92,7.629-19.089,13-24c16.474-15.061,41.69-3.588,59,8C218.834,144.279,220.533,170.855,230,180.5z"/>
				<path fill-rule="evenodd" clip-rule="evenodd" fill="#FFFFFF" d="M55,139.5c1.665,7.345,1.665,21.654,0,29
					C55,158.833,55,149.167,55,139.5z"/>
				<path fill-rule="evenodd" clip-rule="evenodd" fill="#FFFFFF" d="M98,150.5c0.869,5.869-1.013,8.987-3,12
					c-4.044-0.956-5.35-4.65-7-8C92.311,154.145,91.794,148.96,98,150.5z"/>
				<path fill-rule="evenodd" clip-rule="evenodd" fill="#FFFFFF" d="M57,171.5c0.651-2.819,1.161,2.304,1,3
					C57.537,176.509,56.122,175.307,57,171.5z"/>
				<path fill-rule="evenodd" clip-rule="evenodd" fill="#FFFFFF" d="M55,175.5c0.896,23.771,5.309,44.024,16,58
					c-0.502,11.169,2.086,19.247,6,26c-7.333,0-14.667,0-22,0C55,231.5,55,203.5,55,175.5z"/>
				<path fill-rule="evenodd" clip-rule="evenodd" fill="#FFFFFF" d="M251,216.5c0,14.333,0,28.667,0,43c-5.667,0-11.333,0-17,0
					c4.431-15.236,12.193-27.141,16-43C250.333,216.5,250.667,216.5,251,216.5z"/>
				<path fill-rule="evenodd" clip-rule="evenodd" fill="#FFFFFF" d="M101,259.5c-7,0-14,0-21,0c-3.284-6.382-6.146-13.187-6-23
					c3.843,2.157,5.58,6.42,7,11c6.462,3.871,12.773,7.894,20,11C101,258.833,101,259.167,101,259.5z"/>
				<path fill-rule="evenodd" clip-rule="evenodd" fill="#FFFFFF" d="M231,259.5c-41.667,0-83.333,0-125,0
					c-5.007-6.992-15.532-8.469-22-14c-2.333-6-5.914-10.753-10-15c0.26-9.512-5.506-19.038-8-29c-1.133-4.528-0.676-9.378-2-14
					c-1.853-6.466-2.524-9.895-2-20c0.381-7.345-0.833-15.769,0-22c0.867-6.478,4.947-12.054,6-18c0.717-4.049-0.77-8.339,0-12
					c2.599-12.357,16.02-16.469,20-26c15.159,0.508,21.335,9.998,29,18c-17.864-4.446-37.661,8.857-36,30c0.165,2.1,2.215,4.121,3,7
					c1.008,3.697,0.104,8.568,1,11c3.374,9.15,12.482,12.376,25,11c6.902-3.384,10.012-7.947,16-16c4.091-5.502,10.156-11.338,11-19
					c0.261-2.371,1.748-9.756-3-11c1.05,10.807-2.999,17.336-10,27c-7.474,10.316-10.044,16.907-26,17
					c3.767-4.788,6.372-15.165-1-18c-5.646-1.312-4.702,3.965-9,4c0.399-5.903-3.899-10.153-4-15c-0.419-20.117,25.69-34.701,40-18
					c1.802,4.222,1.685,13.341,8,10c2.479-1.903-4.542-2.725-3-7c1.333,0,2.667,0,4,0c-5.471-7.195-13.188-12.146-18-20
					c-0.445-3.778,5.225-1.442,6-4c-4.387-9.613-21.568-6.432-29-13c7.801-6.229,13.173-22.127,25-26
					c13.741-4.499,29.588-0.022,43,3c0.337,4.003-2.858,4.475-7,4c1.64,13.757-8.759,22.947-8,34c0.373,5.428,6.398,8.519,3,15
					c4.096,0.429,6.406-0.927,9-2c-4.59-14.533,8.392-21.523,11-29c2.547-7.303-2.47-16.644,6-22c4.125-0.125,6.262,1.738,11,1
					c0.701-3.701-3.506-2.494-5-4c1.577-2.422,3.577-4.422,6-6c14.601,5.399,20.835,19.165,26,34c0.013,2.35,2.729-0.365,2-2
					c2.92,4.414,8.025,6.642,8,14c-4.071-2.262-3.203-9.464-9-10c4.801,11.451,14.109,23.866,19,40
					c4.561,15.043,10.337,30.888,12,47c0.863,8.361-0.438,19.364,0,29c0.252,5.55,1.895,11.1,1,16c-0.926,5.072-5.75,11.416-8,18
					C234.388,245.144,232.469,251.647,231,259.5z M182,82.5c-9.923,8.039-23.763,18.339-22,33c0.395,3.284,8.324,16.163,10,18
					c8.97,9.837,26.604,11.938,42,10c3.72-3.614,7.932-6.735,11-11c1.329-11.402-1.259-16.301-5-24
					c-4.982-10.254-8.839-13.803-15-21c-4.273-4.992-6.478-8.908-10-10c-3.685-1.142-12.798-2.036-15,4
					C178.16,83.958,185.296,78.028,182,82.5z M198,152.5c-17.31-11.588-42.526-23.061-59-8c-5.371,4.911-11.057,14.08-13,24
					c-2.068,10.561-2.182,22.226-4,33c-2.477,14.678-9.252,26.208-13,38c2.023,1.676,8.848,7.983,10,4c-0.133-4.2-6.195-2.472-6-7
					c8.895-14.856,13.126-38.563,16-60c1.677-12.507,2.591-18.574,9-26c21.329-24.714,47.475,2.909,71,9c3.13-1.912-7.13-4.088-4-6
					c14.564,2.106,12.955,25.707,25,27C220.533,170.855,218.834,144.279,198,152.5z"/>
				<path fill-rule="evenodd" clip-rule="evenodd" fill="#FFFFFF" d="M165,44.5c-0.134,4.533-2.447,6.887-3,11
					c-11.229,0.925-22.623-5.319-30-2C136.592,48.085,155.196,48.035,165,44.5z"/>
				<path fill-rule="evenodd" clip-rule="evenodd" fill="#FFFFFF" d="M163,70.5c2.032,1.775-1.52,6.423-2,9
					C159.732,78.489,161.664,72.222,163,70.5z"/>
				<path fill-rule="evenodd" clip-rule="evenodd" fill="#FFFFFF" d="M150,94.5C147.532,91.868,152.885,88.706,150,94.5L150,94.5z"
					/>
				<path fill-rule="evenodd" clip-rule="evenodd" fill="#FFFFFF" d="M233,122.5c2.01,1.612,7.578,10.978,9,16
					c1.183,4.179,0.927,9.177,1,14C239.781,142.385,236.645,132.189,233,122.5z"/>
				<path fill-rule="evenodd" clip-rule="evenodd" fill="#FFFFFF" d="M58,184.5c4.398,6.005,6.415,21.365,9,31
					c0.778,2.898,1.975,6.787,2,7c0.682,5.76-2.027-2.467-4-6C60.89,209.136,60.498,196.564,58,184.5z"/>
				<path fill-rule="evenodd" clip-rule="evenodd" d="M251,205.5c0,3.667,0,7.333,0,11c-0.333,0-0.667,0-1,0
					c-3.807,15.859-11.569,27.764-16,43c-1,0-2,0-3,0c1.469-7.853,3.388-14.356,6-22c2.25-6.584,7.074-12.928,8-18
					c0.895-4.9-0.748-10.45-1-16c-0.438-9.636,0.863-20.639,0-29c-1.663-16.112-7.439-31.957-12-47
					c-4.891-16.134-14.199-28.549-19-40c5.797,0.536,4.929,7.738,9,10c0.025-7.358-5.08-9.586-8-14c0.729,1.635-1.987,4.35-2,2
					c-5.165-14.835-11.399-28.601-26-34c-2.423,1.578-4.423,3.578-6,6c1.494,1.506,5.701,0.299,5,4c-4.738,0.738-6.875-1.125-11-1
					c-8.47,5.356-3.453,14.697-6,22c-2.608,7.477-15.59,14.467-11,29c-2.594,1.073-4.904,2.429-9,2c3.398-6.481-2.627-9.572-3-15
					c-0.759-11.053,9.64-20.243,8-34c4.142,0.475,7.337,0.003,7-4c-13.412-3.022-29.259-7.499-43-3
					c-11.827,3.873-17.199,19.771-25,26c7.432,6.568,24.613,3.387,29,13c-0.775,2.558-6.445,0.222-6,4
					c4.812,7.854,12.529,12.805,18,20c-1.333,0-2.667,0-4,0c-1.542,4.275,5.479,5.097,3,7c-6.315,3.341-6.198-5.778-8-10
					c-14.31-16.701-40.419-2.117-40,18c0.101,4.847,4.399,9.097,4,15c4.298-0.035,3.354-5.312,9-4c7.372,2.835,4.767,13.212,1,18
					c15.956-0.093,18.526-6.684,26-17c7.001-9.664,11.05-16.193,10-27c4.748,1.244,3.261,8.629,3,11
					c-0.844,7.662-6.909,13.498-11,19c-5.988,8.053-9.098,12.616-16,16c-12.518,1.376-21.626-1.85-25-11
					c-0.896-2.432,0.008-7.303-1-11c-0.785-2.879-2.835-4.9-3-7c-1.661-21.143,18.136-34.446,36-30
					c-7.665-8.002-13.841-17.492-29-18c-3.98,9.531-17.401,13.643-20,26c-0.77,3.661,0.717,7.951,0,12
					c-1.053,5.946-5.133,11.522-6,18c-0.833,6.231,0.381,14.655,0,22c-0.524,10.105,0.147,13.534,2,20c1.324,4.622,0.867,9.472,2,14
					c2.494,9.962,8.26,19.488,8,29c4.086,4.247,7.667,9,10,15c6.468,5.531,16.993,7.008,22,14c-1.667,0-3.333,0-5,0
					c0-0.333,0-0.667,0-1c-7.227-3.106-13.538-7.129-20-11c-1.42-4.58-3.157-8.843-7-11c-0.146,9.813,2.716,16.618,6,23
					c-1,0-2,0-3,0c-3.914-6.753-6.502-14.831-6-26c-10.691-13.976-15.104-34.229-16-58c0-2.333,0-4.667,0-7
					c1.665-7.346,1.665-21.655,0-29c0-4.667,0-9.333,0-14c2.062-0.536,0.238-4.731,3-2c0.966,9.413-1.246,30.003,0,42
					c0.685,6.599,1.095,0.171,1-5c-1.922-13.512,3.715-24.738,6-37c-4.411-1.411-0.016,5.984-3,6c-2.717-11.157,6.216-19.038,5-32
					c2.486,1.514-0.614,8.614,2,10c4.063-6.937,9.205-12.795,13-20c-4.355-0.645-11.304,1.304-14-1c1.287-4.713,12.22,0.22,15-3
					c-2.917,0.279-3.438-0.241-2-2c3.643,0.309,6.508-0.159,9-1c6.945-6.545,11.104-18.957,23-25c5.196-2.64,14.557-5.906,22-8
					c20.419-5.746,39.365-8.278,56-1c-0.649,1.017-2.299,1.034-2,3c10.901,4.516,16.36,14.962,24,25c3.841,5.047,8.065,8.364,10,13
					c2.354,5.639,2.954,12.955,6,20c4.647,10.752,15.376,23.795,17,38c1.843,16.113,1.318,35.001,1,53c-0.025,1.433-2.231,5.435,1,6
					C249.615,204.218,249.722,205.445,251,205.5z M132,53.5c7.377-3.319,18.771,2.925,30,2c0.553-4.113,2.866-6.467,3-11
					C155.196,48.035,136.592,48.085,132,53.5z M168,55.5c6.848-0.152,8.001-5.999,11-10c-3.507-0.493-6.509-1.491-11-1
					C168,48.167,168,51.833,168,55.5z M163,67.5c1.567-2.28,4.402-6.212,1-8C163.636,61.548,160.659,66.053,163,67.5z M161,79.5
					c0.48-2.577,4.032-7.225,2-9C161.664,72.222,159.732,78.489,161,79.5z M150,94.5C152.885,88.706,147.532,91.868,150,94.5
					L150,94.5z M116,94.5c-0.606-0.576-4.744-2.34-5,0C112.78,93.902,115.153,97.431,116,94.5z M152,104.5
					c1.055-1.04,2.065-7.141,0-8C151.462,98.895,147.677,103.147,152,104.5z M243,152.5c-0.073-4.823,0.183-9.821-1-14
					c-1.422-5.022-6.99-14.388-9-16C236.645,132.189,239.781,142.385,243,152.5z M88,154.5c1.65,3.35,2.956,7.044,7,8
					c1.987-3.013,3.869-6.131,3-12C91.794,148.96,92.311,154.145,88,154.5z M58,174.5c0.161-0.696-0.349-5.819-1-3
					C56.122,175.307,57.537,176.509,58,174.5z M65,216.5c1.973,3.533,4.682,11.76,4,6c-0.025-0.213-1.222-4.102-2-7
					c-2.585-9.635-4.602-24.995-9-31C60.498,196.564,60.89,209.136,65,216.5z"/>
			</g>
		</g>
	</g>
</g>
<g id="Layer_2">
</g>
</svg>
