<?xml version="1.0" encoding="utf-8"?>
<!-- Generator: Adobe Illustrator 15.0.0, SVG Export Plug-In . SVG Version: 6.00 Build 0)  -->
<!DOCTYPE svg PUBLIC "-//W3C//DTD SVG 1.1//EN" "http://www.w3.org/Graphics/SVG/1.1/DTD/svg11.dtd">
<svg version="1.1" xmlns="http://www.w3.org/2000/svg" xmlns:xlink="http://www.w3.org/1999/xlink" x="0px" y="0px" width="300px"
	 height="300px" viewBox="0 0 300 300" enable-background="new 0 0 300 300" xml:space="preserve">
<g id="Layer_1">
	<g id="_x34_icqHD_1_">
		<g>
			<g>
				<path fill-rule="evenodd" clip-rule="evenodd" fill="#FFFFFF" d="M158,79c-1.484,9.309-16.562-0.132-22,4
					c-1.592-2.645,5.518-3.361,9-4C149.39,78.195,155.337,76.935,158,79z"/>
				<path fill-rule="evenodd" clip-rule="evenodd" fill="#FFFFFF" d="M176,99c4.021,0.312,3.597,5.07,8,5
					c-9.102,0.898-18.02,1.98-22,8c-0.039-3.727,5.625-10.359,13-10C174.718,100.385,175.945,100.278,176,99z"/>
				<path fill-rule="evenodd" clip-rule="evenodd" fill="#FFFFFF" d="M177,114c4.906,3.34,10.668,1.24,16,0
					c1.644,4.731-5.048,6.88-10,8c-8.858,2.004-20.29,2.636-26-1c3.179-7.487,10.688-10.646,18-14
					C178.802,106.198,176.271,111.729,177,114z"/>
				<path fill-rule="evenodd" clip-rule="evenodd" fill="#FFFFFF" d="M179,108c3.863-0.197,7.369-0.036,10,1
					C189.182,113.362,177.589,113.562,179,108z"/>
				<path fill-rule="evenodd" clip-rule="evenodd" fill="#FFFFFF" d="M101,129c1.918-8.992,12.757-13.574,23-11
					c-6.031,4.302-16.741,3.925-20,11C103,129,102,129,101,129z"/>
				<path fill-rule="evenodd" clip-rule="evenodd" fill="#FFFFFF" d="M194,119c3.51,1.157,3.065,6.268,3,11
					c-6.065,10.107-28.221,5.439-35-3C171.373,123.039,187.937,126.27,194,119z"/>
				<path fill-rule="evenodd" clip-rule="evenodd" fill="#FFFFFF" d="M129,121c5.99,14.171-15.452,15.941-26,20
					c-1.691-7.358,7.062-4.271,8-9c0.489-3.156-1.802-3.531-1-7C116.098,123.431,120.729,120.396,129,121z"/>
				<path fill-rule="evenodd" clip-rule="evenodd" fill="#FFFFFF" d="M107,127c4.51,3.123-0.951,7.509-6,7
					C100.357,129.024,106.095,130.429,107,127z"/>
				<path fill-rule="evenodd" clip-rule="evenodd" fill="#FFFFFF" d="M137,127c-3.812,9.188-10.094,15.906-17,22
					c-7.37,0.37-14.4,0.4-16-5c10.252-5.415,24.867-6.466,30-17C135,127,136,127,137,127z"/>
				<path fill-rule="evenodd" clip-rule="evenodd" fill="#FFFFFF" d="M82,162c4.333,5,3.89,14.776,7,21
					C82.758,179.908,84.391,168.943,82,162z"/>
				<path fill-rule="evenodd" clip-rule="evenodd" d="M165,169c-1.222,3.112-4.191,4.475-9,4
					C158.072,170.739,161.544,169.877,165,169z"/>
				<path fill-rule="evenodd" clip-rule="evenodd" fill="#FFFFFF" d="M62,74c55,0,110,0,165,0c0,46,0,92,0,138
					c-55.334,0-110.666,0-166,0c0-45,0-90,0-135C60.914,75.581,60.835,74.168,62,74z M213,166c3.162,5.184,0.123,21.861,5,22
					c-1.51-2.228,2.573-7.389,1-13c-0.091-1.576-2.551-0.783-2-3c0.496-19.496-0.252-37.748-7-50c-7.947-2.57-6.22-11.608-9-18
					c-3.192-7.339-11.398-10.148-14-17c-3.924-1.996-11.783-4.536-9-10c-9.078-0.341-16.907-3.104-25-2
					c-1.305,0.178-0.922,1.641-2,2c-4.119,1.372-9.3-0.186-14,1c-5.031,1.269-9.791,6.794-17,5c-5.716,3.674-11.07,13.422-18,17
					c-1.005,0.519-3.065-0.62-4,0c-0.824,0.547,0.328,1.663-1,2c-1.036,0.263-8.064-1.009-7,1c3,0,6,0,9,0
					c-4.526,8.474-13.395,12.605-15,24c0.239,1.875,1.646-0.567,2,1c-1.417,2.583-0.083,7.917-4,8c-0.638-3.695,1.295-9.961-1-12
					c-2.493,13.883-1.123,38.373,1,54c3.66,5.192,8.284,11.659,10,19c0.929,3.975,1.356,4.256,2,6c0.793,2.148-0.906,6.064,3,6
					c0.484-5.181-5.484-9.142-2-14c1.663,2.003,3.629,3.704,4,7c5.112-0.778,4.942,3.724,10,3c-0.286,2.605,7.286,5.804,7,2
					c-8.407-4.139-17.385-7.23-22-17c-1.449-3.068-1.156-6.566-2-10c-0.355-1.446-2.446-2.391-3-4c-4.953-14.394-7.523-33.336,0-48
					c0-3,0-6,0-9c5.35-4.65,9.239-10.761,15-15c2.969,0.38,7.246,2.46,9,1c-0.28-3.72-5.968-2.032-7-5
					c6.346-3.538,9.292-12.326,18-15c11.317-3.476,24.548,0.819,37,2c-8.25,5.75-16.297,11.703-17,25c2.745,2.163,3.191-2.193,4-4
					c0.122-0.272,1.837,0.262,2,0c2.712-4.348,2.824-11.921,8-15c-0.129,1.795,0.993,2.34,3,2c-0.271-3.937,0.385-6.948,3-8
					c2.714-0.619,7.937,1.27,9-1c-5.375-1.407-4.932-6.517-12-3c0.575-1.758-1.209-5.875,1-6c15.268,2.732,24.704,11.296,29,25
					c2.462,0.521,6.546,0.175,7,5c-1.995-1.005-1.578-4.422-5-4C202.396,120.1,217.065,145.109,213,166z M155,114
					c-2.514,10.957,6.763,14.183,12,22c11.479,2.02,28.001,4.473,33-5c1.725-19.391-11.992-23.341-19-34
					c-6.607-1.561-7.393-1.561-14,0C168.124,106.041,156.531,107.325,155,114z M127,116c-8.809-2.703-21.848,0.157-26,6
					c-5.01,7.049,0.17,13.868,0,24c3.176,1.158,4.626,4.041,7,6c4.333,0,8.667,0,13,0c6.204-9.129,18.244-12.423,17-29
					C133.967,122.623,131.73,117.452,127,116z M156,173c4.809,0.475,7.778-0.888,9-4C161.544,169.877,158.072,170.739,156,173z"/>
				<path fill-rule="evenodd" clip-rule="evenodd" d="M193,103c3.422-0.422,3.005,2.995,5,4c-0.454-4.825-4.538-4.479-7-5
					c-4.296-13.704-13.732-22.268-29-25c-2.209,0.125-0.425,4.242-1,6c7.068-3.517,6.625,1.593,12,3c-1.063,2.27-6.286,0.381-9,1
					c-2.615,1.052-3.271,4.063-3,8c-2.007,0.34-3.129-0.205-3-2c-5.176,3.079-5.288,10.652-8,15c-0.163,0.262-1.878-0.272-2,0
					c-0.809,1.807-1.255,6.163-4,4c0.703-13.297,8.75-19.25,17-25c-12.452-1.181-25.683-5.476-37-2
					c-8.708,2.674-11.654,11.462-18,15c1.032,2.968,6.72,1.28,7,5c-1.754,1.46-6.031-0.62-9-1c-5.761,4.239-9.65,10.35-15,15
					c0,3,0,6,0,9c-7.523,14.664-4.953,33.606,0,48c0.554,1.609,2.645,2.554,3,4c0.844,3.434,0.551,6.932,2,10
					c4.615,9.77,13.593,12.861,22,17c0.286,3.804-7.286,0.605-7-2c-5.058,0.724-4.888-3.778-10-3c-0.371-3.296-2.337-4.997-4-7
					c-3.484,4.858,2.484,8.819,2,14c-3.906,0.064-2.207-3.852-3-6c-0.644-1.744-1.071-2.025-2-6c-1.716-7.341-6.34-13.808-10-19
					c-2.123-15.627-3.493-40.117-1-54c2.295,2.039,0.362,8.305,1,12c3.917-0.083,2.583-5.417,4-8c-0.354-1.567-1.761,0.875-2-1
					c1.605-11.395,10.474-15.526,15-24c-3,0-6,0-9,0c-1.064-2.009,5.964-0.737,7-1c1.328-0.337,0.176-1.453,1-2
					c0.935-0.62,2.995,0.519,4,0c6.93-3.578,12.284-13.326,18-17c7.209,1.794,11.969-3.731,17-5c4.7-1.186,9.881,0.372,14-1
					c1.078-0.359,0.695-1.822,2-2c8.093-1.104,15.922,1.659,25,2c-2.783,5.464,5.076,8.004,9,10c2.602,6.852,10.808,9.661,14,17
					c2.78,6.392,1.053,15.43,9,18c6.748,12.252,7.496,30.504,7,50c-0.551,2.217,1.909,1.424,2,3c1.573,5.611-2.51,10.772-1,13
					c-4.877-0.139-1.838-16.816-5-22C217.065,145.109,202.396,120.1,193,103z M145,79c-3.482,0.639-10.592,1.355-9,4
					c5.438-4.132,20.516,5.309,22-4C155.337,76.935,149.39,78.195,145,79z M213,137c-0.302-4.365-2.51-6.823-4-10
					C209.415,131.252,210.748,134.585,213,137z M89,183c-3.11-6.224-2.667-16-7-21C84.391,168.943,82.758,179.908,89,183z"/>
				<path fill-rule="evenodd" clip-rule="evenodd" d="M138,123c1.244,16.577-10.796,19.871-17,29c-4.333,0-8.667,0-13,0
					c-2.374-1.959-3.824-4.842-7-6c0.17-10.132-5.01-16.951,0-24c4.152-5.843,17.191-8.703,26-6
					C131.73,117.452,133.967,122.623,138,123z M101,134c5.049,0.509,10.51-3.877,6-7C106.095,130.429,100.357,129.024,101,134z
					 M104,129c3.259-7.075,13.969-6.698,20-11c-10.243-2.574-21.082,2.008-23,11C102,129,103,129,104,129z M110,125
					c-0.802,3.469,1.489,3.844,1,7c-0.938,4.729-9.691,1.642-8,9c10.548-4.059,31.99-5.829,26-20
					C120.729,120.396,116.098,123.431,110,125z M134,127c-5.133,10.534-19.748,11.585-30,17c1.6,5.4,8.63,5.37,16,5
					c6.906-6.094,13.188-12.812,17-22C136,127,135,127,134,127z"/>
				<path fill-rule="evenodd" clip-rule="evenodd" fill="#FFFFFF" d="M209,127c1.49,3.177,3.698,5.635,4,10
					C210.748,134.585,209.415,131.252,209,127z"/>
				<path fill-rule="evenodd" clip-rule="evenodd" d="M167,97c6.607-1.561,7.393-1.561,14,0c7.008,10.659,20.725,14.609,19,34
					c-4.999,9.473-21.521,7.02-33,5c-5.237-7.817-14.514-11.043-12-22C156.531,107.325,168.124,106.041,167,97z M175,102
					c-7.375-0.359-13.039,6.273-13,10c3.98-6.02,12.898-7.102,22-8c-4.403,0.07-3.979-4.688-8-5
					C175.945,100.278,174.718,100.385,175,102z M175,107c-7.312,3.354-14.821,6.513-18,14c5.71,3.636,17.142,3.004,26,1
					c4.952-1.12,11.644-3.269,10-8c-5.332,1.24-11.094,3.34-16,0C176.271,111.729,178.802,106.198,175,107z M189,109
					c-2.631-1.036-6.137-1.197-10-1C177.589,113.562,189.182,113.362,189,109z M162,127c6.779,8.439,28.935,13.107,35,3
					c0.065-4.732,0.51-9.843-3-11C187.937,126.27,171.373,123.039,162,127z"/>
			</g>
		</g>
	</g>
</g>
<g id="Layer_2">
</g>
</svg>
