<?xml version="1.0" encoding="utf-8"?>
<!-- Generator: Adobe Illustrator 15.0.0, SVG Export Plug-In . SVG Version: 6.00 Build 0)  -->
<!DOCTYPE svg PUBLIC "-//W3C//DTD SVG 1.1//EN" "http://www.w3.org/Graphics/SVG/1.1/DTD/svg11.dtd">
<svg version="1.1" xmlns="http://www.w3.org/2000/svg" xmlns:xlink="http://www.w3.org/1999/xlink" x="0px" y="0px" width="300px"
	 height="300px" viewBox="0 0 300 300" enable-background="new 0 0 300 300" xml:space="preserve">
<g id="Layer_1">
	<g id="ysLykM_1_">
		<g id="XMLID_2_">
			<g>
				<path fill="#FFFFFF" d="M218.67,224c0,11.67,0,23.33,0,35c-62.67,0-125.34,0-188,0c0-24,0-48,0-72c3.42,6.99,1.81,15.31,4,22
					c1,3.08,3.45,7.26,5,10c1.86,3.3,3.73,6.75,6,9c0.57,12.42,2.15,23.85,10,29c-1.58-8.43-6.36-13.64-7-23
					c-0.18-4.38,3.37,0.94,4,2c2.25,8.4,9.25,9.28,16,13c4.05,2.24,7.19,6.64,12,6c-2.94-8.73-14.15-9.19-21-14
					c-2.96-6.05-6.42-11.58-11-16c0.61-10.16-6.17-18.93-8-28c-1.61-7.95,0.55-13.04-4-17c1.15-12.67-0.62-23.77,1-35
					c0.82-5.74,5.12-10.68,6-16c0.68-4.15-1.19-8.99,0-13c2.87-9.73,17.36-13.61,18-24c10.81-5.32,14.89-19.12,24-25
					c11.54-7.46,34.58-5.26,48-1c3.41-0.42-1.52-5.48,1-5c8.55-2.02,13.9,4.52,20,8c7.66,4.37,17.271,6.84,22,12
					c8.51,9.3,7.21,24.51,20,31c4.54,16.49,15.33,36.74,18,59c0.88,7.38-0.4,17.05,0,26c0.271,6.14,1.9,12.55,1,18
					c-1.03,6.16-5.66,13.46-8,20c-2.82,7.87-5.99,14.71-7,22c6.21-1.66,7.76-9.4,10-15c2.35-5.88,4.82-12.46,7-18
					C218,224,218.33,224,218.67,224z M172.67,148c6.59-4,13.18-16.32,12-25c-0.34-2.46-4-7.28-6-11c-1.88-3.48-2.81-9.07-6-11
					c-2.6-1.57-9.06-1.57-13-1c-1.75,0.25-4.3,0.25-6,1c-7.88,3.45-25.08,21.84-24,33C131.03,148.15,158.81,156.4,172.67,148z
					 M184.67,105c0.47-3.81-0.43-6.24-3-7C181.8,101.2,180.68,105.65,184.67,105z M151.67,184c0.28-4.77-5.74-2.53-8-3
					c-15.65-3.25-44.23-5.72-61-2c-8.27,1.83-20.59,6.65-23,13c9.38-0.98,18.52-8.62,32-10C111.54,179.96,133.81,185.51,151.67,184z
					 M111.67,138c2.3-6.53,2.81-19.76-2-28c-2.15-3.67-5.04-3.46-8-6c-3.39-2.91-3.61-5.62-8-7c-3.68-1.16-6.57-0.7-11,0
					c-13.68,2.15-31.35,18.77-25,38c2.99,9.07,17.91,18,29,18C95.36,153,108.51,146.94,111.67,138z"/>
				<path d="M218.67,191c0,11,0,22,0,33c-0.34,0-0.67,0-1,0c-2.18,5.54-4.65,12.12-7,18c-2.24,5.6-3.79,13.34-10,15
					c1.01-7.29,4.18-14.13,7-22c2.34-6.54,6.97-13.84,8-20c0.9-5.45-0.729-11.86-1-18c-0.4-8.95,0.88-18.62,0-26
					c-2.67-22.26-13.46-42.51-18-59c-12.79-6.49-11.49-21.7-20-31c-4.729-5.16-14.34-7.63-22-12c-6.1-3.48-11.45-10.02-20-8
					c-2.52-0.48,2.41,4.58-1,5c-13.42-4.26-36.46-6.46-48,1c-9.11,5.88-13.19,19.68-24,25c-0.64,10.39-15.13,14.27-18,24
					c-1.19,4.01,0.68,8.85,0,13c-0.88,5.32-5.18,10.26-6,16c-1.62,11.23,0.15,22.33-1,35c4.55,3.96,2.39,9.05,4,17
					c1.83,9.07,8.61,17.84,8,28c4.58,4.42,8.04,9.95,11,16c6.85,4.81,18.06,5.27,21,14c-4.81,0.64-7.95-3.76-12-6
					c-6.75-3.72-13.75-4.6-16-13c-0.63-1.06-4.18-6.38-4-2c0.64,9.36,5.42,14.57,7,23c-7.85-5.15-9.43-16.58-10-29
					c-2.27-2.25-4.14-5.7-6-9c-1.55-2.74-4-6.92-5-10c-2.19-6.69-0.58-15.01-4-22c0-20.67,0-41.33,0-62c3.51,1.57,1.96,13.59,2,21
					c0.03,5.78-1.67,12.57,2,15c-1.42-13.75,1.57-23.09,5-32c-0.63-2.1-4.18,3.7-4-2c2.21-8.46,6.85-14.48,7-25
					c2.86,0.14-0.87,6.86,2,7c3.68-3.27,4.9-8.19,8-12c4.56-5.61,11.9-10.65,17-18c4.51-6.52,11.31-16.11,20-19
					c3.49-1.16,8.05-1.62,12-3c8.22-2.86,20.5-6.78,31-8c6.66-0.77,19.11-0.77,24,2c2.1,1.2,5.05,4.7,8,7
					c9.37,7.33,20.561,17.82,28,30c2.51,4.12,2.22,8.6,4,15c1.53,5.52,6.01,9.38,6,15c5.42,2.91,8.8,7.87,8,17
					c-2.31,0.31-1.11-2.89-3-3c0.73,6.6,4.15,10.51,6,16c1.93-4.51-4.189-9.68,0-10c6.68,6.32,2.061,23.94,5,34c0,5,0,10,0,15
					C217.04,186.28,217.04,191.72,218.67,191z M193.67,101c0.39-5.06-2.85-6.48-5-9C189.81,95.52,190.86,99.14,193.67,101z
					 M170.67,71c-5.76-4.11-7.15-13.66-15-17c-11.59-4.93-26.78-0.52-39,2C144.66,52.44,155.38,67.48,170.67,71z M129.67,60
					c-1.5,0.17-3.69-0.36-4,1C127.16,60.83,129.36,61.36,129.67,60z M42.67,216c-2.61-11.05-4.44-22.9-9-32
					C36.99,194.34,35.19,209.81,42.67,216z"/>
				<path fill="#FFFFFF" d="M218.67,187c0,1.33,0,2.67,0,4C217.04,191.72,217.04,186.28,218.67,187z"/>
				<path fill="#FFFFFF" d="M188.67,92c2.15,2.52,5.39,3.94,5,9C190.86,99.14,189.81,95.52,188.67,92z"/>
				<path d="M184.67,123c1.18,8.68-5.41,21-12,25c-13.86,8.4-41.64,0.15-43-14c-1.08-11.16,16.12-29.55,24-33
					c1.7-0.75,4.25-0.75,6-1c3.94-0.57,10.4-0.57,13,1c3.19,1.93,4.12,7.52,6,11C180.67,115.72,184.33,120.54,184.67,123z
					 M165.67,147c9.19-1.13,13.8-15.7,16-22c-10.13-1.69-28.15-2.9-33,4c-3.34,0-6.67,0-10,0c-2.79-1.49,2.11-4.47-2-4
					C125.46,140.44,148.75,149.09,165.67,147z M178.67,120c-1.25-4.42-4.63-6.71-6-11c-3.38-0.96-6.83,3.06-9,0
					c0.49-3.5,5.57-2.42,7-5c-16.74-4.39-25.23,7.19-31,17C153.03,121.03,164.63,119.29,178.67,120z"/>
				<path d="M181.67,98c2.57,0.76,3.47,3.19,3,7C180.68,105.65,181.8,101.2,181.67,98z"/>
				<path fill="#FFFFFF" d="M181.67,125c-2.2,6.3-6.81,20.87-16,22c-16.92,2.09-40.21-6.56-29-22c4.11-0.47-0.79,2.51,2,4
					c3.33,0,6.66,0,10,0C153.52,122.1,171.54,123.31,181.67,125z"/>
				<path fill="#FFFFFF" d="M172.67,109c1.37,4.29,4.75,6.58,6,11c-14.04-0.71-25.64,1.03-39,1c5.77-9.81,14.26-21.39,31-17
					c-1.43,2.58-6.51,1.5-7,5C165.84,112.06,169.29,108.04,172.67,109z"/>
				<path fill="#FFFFFF" d="M155.67,54c7.85,3.34,9.24,12.89,15,17c-15.29-3.52-26.01-18.56-54-15
					C128.89,53.48,144.08,49.07,155.67,54z"/>
				<path d="M143.67,181c2.26,0.47,8.28-1.77,8,3c-17.86,1.51-40.13-4.04-60-2c-13.48,1.38-22.62,9.02-32,10
					c2.41-6.35,14.73-11.17,23-13C99.44,175.28,128.02,177.75,143.67,181z"/>
				<path fill="#FFFFFF" d="M125.67,61c0.31-1.36,2.5-0.83,4-1C129.36,61.36,127.16,60.83,125.67,61z"/>
				<path d="M109.67,110c4.81,8.24,4.3,21.47,2,28c-3.16,8.94-16.31,15-25,15c-11.09,0-26.01-8.93-29-18
					c-6.35-19.23,11.32-35.85,25-38c4.43-0.7,7.32-1.16,11,0c4.39,1.38,4.61,4.09,8,7C104.63,106.54,107.52,106.33,109.67,110z
					 M60.67,128c2.69,26.76,51.76,29.61,49-4c-9.67,0-19.34,0-29,0C79.58,132.61,65.46,134.17,60.67,128z M108.67,119
					c-2.13-3.21-2.48-8.19-5-11c-5.9-0.11-7.63-4.38-10-8c-16.9-3.41-25.94,8.38-32,19C75.85,119.82,94.74,121.25,108.67,119z"/>
				<path fill="#FFFFFF" d="M109.67,124c2.76,33.61-46.31,30.76-49,4c4.79,6.17,18.91,4.61,20-4C90.33,124,100,124,109.67,124z"/>
				<path fill="#FFFFFF" d="M103.67,108c2.52,2.81,2.87,7.79,5,11c-13.93,2.25-32.82,0.82-47,0c6.06-10.62,15.1-22.41,32-19
					C96.04,103.62,97.77,107.89,103.67,108z"/>
				<path fill="#FFFFFF" d="M33.67,184c4.56,9.1,6.39,20.95,9,32C35.19,209.81,36.99,194.34,33.67,184z"/>
			</g>
			<g>
			</g>
		</g>
	</g>
</g>
<g id="Layer_2">
</g>
</svg>
