<?xml version="1.0" encoding="utf-8"?>
<!-- Generator: Adobe Illustrator 15.0.0, SVG Export Plug-In . SVG Version: 6.00 Build 0)  -->
<!DOCTYPE svg PUBLIC "-//W3C//DTD SVG 1.1//EN" "http://www.w3.org/Graphics/SVG/1.1/DTD/svg11.dtd">
<svg version="1.1" xmlns="http://www.w3.org/2000/svg" xmlns:xlink="http://www.w3.org/1999/xlink" x="0px" y="0px" width="300px"
	 height="300px" viewBox="0 0 300 300" enable-background="new 0 0 300 300" xml:space="preserve">
<g id="Layer_1">
	<g id="_x36_pz6Cw_1_">
		<g id="XMLID_2_">
			<g>
				<path fill="#745E5F" d="M28.554,143.699c-1.007,2.216-1.007,8.962,0,11.179C28.554,151.149,28.554,147.428,28.554,143.699z"/>
				<path fill="#BCBCBB" d="M41.289,57.562c-1.013,13.151-1.013,30.904,0,44.055c0-12.053,0-24.112,0-36.165
					c0-0.441,0-0.875,0-1.315v-0.006C41.289,61.941,41.289,59.751,41.289,57.562z"/>
				<path fill="#28221D" d="M41.289,65.453c0,12.052,0,24.112,0,36.165c0.2,0,0.406,0,0.606,0
					C41.489,89.781,42.702,76.197,41.289,65.453z"/>
				<path fill="#28221D" d="M41.289,55.589c0,0.658,0,1.315,0,1.973c0,2.189,0,4.379,0,6.569
					C42.295,62.77,42.295,56.938,41.289,55.589z"/>
				<path fill="#28221D" d="M37.65,153.562c1.771,2.466,3.79,4.655,6.064,6.575C41.944,157.672,39.924,155.482,37.65,153.562z"/>
				<path fill="#745E5F" d="M44.927,179.864c0,3.945,0,7.89,0,11.835c0.2,0,0.406,0,0.606,0
					C45.139,187.965,46.334,182.507,44.927,179.864z"/>
				<path fill="#28221D" d="M38.863,150.275c2.171,2.906,4.596,5.537,7.277,7.89C43.969,155.259,41.543,152.629,38.863,150.275z"/>
				<path fill="#BCBCBB" d="M45.534,121.343c-0.395,2.84,1.049,3.688,1.819,5.26c-1.916,0.105-2.025-1.749-4.245-1.315
					c1.443,1.947,4.118,2.551,6.064,3.945C49.924,127.077,46.516,123.796,45.534,121.343z"/>
				<path fill="#FFFFFF" d="M39.172,32.576c1.862,5.484,4.275,11.185,2.88,16.623v0.006c0.158,0.585,0.309,1.177,0.449,1.782
					c1.886-6.727,3.639-13.585,7.277-18.411C46.243,32.576,42.708,32.576,39.172,32.576z"/>
				<path fill="#28221D" d="M52.204,108.85c-1.007,1.565-1.007,7.641,0,9.205C52.204,114.985,52.204,111.92,52.204,108.85z"/>
				<path fill="#28221D" d="M54.63,169.344c0.394,3.951-0.801,9.633,0.606,12.493c0-3.288,0-6.576,0-9.863
					C55.133,170.987,55.455,169.547,54.63,169.344z"/>
				<path fill="#BCBCBB" d="M55.236,171.974c0,3.287,0,6.575,0,9.863c0.267,0.585,0.534,1.177,1.213,1.314c0-0.217,0-0.44,0-0.657
					c-1.261-2.36-0.315-7.108-0.606-10.521C55.643,171.974,55.436,171.974,55.236,171.974z"/>
				<path fill="#BCBCBB" d="M57.055,202.878c1.649,0.474-0.437-3.104,1.213-2.63c0.079-1.618,0.091-3.17-0.606-3.945
					c-2.959-0.079-6.392,0.354-8.49-0.658c0.558,2.459,4.87,0.855,7.277,1.315C57.825,197.657,56.679,201.096,57.055,202.878z"/>
				<path fill="#28221D" d="M58.268,82.548c-1.401,2.426-0.212,7.66-0.606,11.178C59.062,91.3,57.874,86.066,58.268,82.548z"/>
				<path fill="#28221D" d="M59.481,70.713c-1.395,1.558-0.218,5.898-0.606,8.542C60.269,77.689,59.093,73.35,59.481,70.713z"/>
				<path fill="#28221D" d="M61.3,169.344c-1.413,5.043-0.207,12.927-0.606,19.068C62.106,183.368,60.9,175.484,61.3,169.344z"/>
				<path fill="#28221D" d="M60.694,189.727c0.4,5.484-0.801,12.704,0.606,17.097C60.9,201.339,62.101,194.119,60.694,189.727z"/>
				<path fill="#28221D" d="M61.907,50.329C60.5,53.847,61.7,60.186,61.3,64.795C62.707,61.277,61.506,54.938,61.907,50.329z"/>
				<path fill="#BCBCBB" d="M67.971,250.897c0,0.118,0,0.243,0,0.362c0.036-0.105,0.061-0.204,0.091-0.31
					C68.031,250.931,68.001,250.917,67.971,250.897z"/>
				<path fill="#745E5F" d="M65.545,220.631c0.752,2.032,2.001,3.531,3.639,4.604C68.432,223.202,67.182,221.703,65.545,220.631z"/>
				<path fill="#28221D" d="M75.248,229.179c2.783,0.711,4.033,3.078,6.064,4.604c-0.212-0.861-1.067-1.032-1.213-1.973
					c2.426,1.314,4.852,2.63,7.277,3.945c-4.19-3.348-9.284-5.714-13.341-9.206C73.834,227.877,78.383,228.771,75.248,229.179z"/>
				<path fill="#28221D" d="M75.248,36.521c11.115-0.441,23.85,0.875,33.958-0.658C98.091,36.304,85.356,34.989,75.248,36.521z"/>
				<path fill="#BCBCBB" d="M90.408,114.11c-1.407,2.86-0.612,8.982,1.213,10.521C91.33,121.001,89.753,118.766,90.408,114.11z"/>
				<path fill="#FFFFFF" d="M93.44,122.658c-0.2,0-0.407,0-0.606,0c-2.032-1.894,1.152-12.434-1.819-11.178
					c-0.825,0.204-0.503,1.644-0.606,2.63c-0.655,4.655,0.922,6.891,1.213,10.521c1.352,2.255,2.359,4.892,4.851,5.918
					c0.406,0,0.807,0,1.213,0c-0.843-1.934-2.959-2.486-3.032-5.261C94.337,124.315,93.755,123.631,93.44,122.658z"/>
				<path fill="#BCBCBB" d="M91.621,109.507c-0.321,0.526-0.631,1.065-0.606,1.973c2.971-1.256-0.212,9.285,1.819,11.178
					C92.185,118.851,94.228,109.047,91.621,109.507z"/>
				<path fill="#28221D" d="M92.833,122.658c0.2,0,0.406,0,0.606,0c-0.837-4.024,1.898-15.058-1.819-13.808c0,0.217,0,0.44,0,0.657
					C94.228,109.047,92.185,118.851,92.833,122.658z"/>
				<path d="M94.046,182.494c-2.347-0.572-2.159,1.604-3.638,1.973c4.251,24.979,19.981,37.506,29.714,56.548
					c1.868-4.886-2.468-9.646-4.851-13.15c-7.883-11.612-16.713-24.046-21.831-38.795C92.554,185.742,95.216,184.092,94.046,182.494
					z"/>
				<path fill="#28221D" d="M98.291,89.124c-2.656-1.545-7.156,0.539-9.09,1.972C90.826,91.511,94.78,88.834,98.291,89.124z"/>
				<path fill="#28221D" d="M96.472,105.562c-1.006,3.958-1.006,12.48,0,16.438C96.472,116.523,96.472,111.04,96.472,105.562z"/>
				<path fill="#BCBCBB" d="M98.291,104.247c-1.037-0.026-1.571,0.487-1.819,1.315c0,5.478,0,10.961,0,16.438
					c-0.109,0.559,0.236,0.618,0.606,0.658C97.66,116.714,95.774,108.094,98.291,104.247z"/>
				<path d="M89.201,91.096c1.935-1.433,6.434-3.518,9.09-1.972C94.78,88.834,90.826,91.511,89.201,91.096z M123.154,90.439
					c-1.431,0.013-1.783-1.131-3.639-0.658c0-0.657,0-1.315,0-1.973C121.001,88.387,123.014,88.4,123.154,90.439z M146.804,99.645
					c0.479-1.453,2.85-0.855,3.032-2.63c-11.831-5.142-23.893-10.034-36.991-13.808c-4.245,0-8.49,0-12.734,0
					c-12.425,0.572-21.534,8.193-21.831,19.726c6.889-3.708,10.449-11.027,21.225-10.521c3.851-1.092,11.916-1.092,15.767,0
					C127.12,93.372,138.411,94.937,146.804,99.645z"/>
				<path fill="#745E5F" d="M140.133,97.672c4.373,1.834,7.398,5.635,10.916,0c-0.88-4.964-8.12-3.031-10.31-6.576
					c-11.928,0-15.888-8.633-27.895-8.548c0,0.217,0,0.44,0,0.658c13.098,3.774,25.16,8.666,36.991,13.808
					c-0.182,1.775-2.553,1.177-3.032,2.63c-8.393-4.708-19.684-6.273-31.533-7.233c-5.258,0-10.509,0-15.767,0
					c-10.776-0.506-14.335,6.812-21.225,10.521c0.297-11.533,9.406-19.154,21.831-19.726c0-0.217,0-0.44,0-0.658
					c-13.444-0.237-24.153,9.186-21.831,21.699c8.92-8.627,17.598-12.638,36.385-11.178
					C123.081,93.72,134.172,95.173,140.133,97.672z"/>
				<path d="M80.099,231.81c0.146,0.94,1,1.111,1.213,1.973c7.956,2.768,10.74,11.145,18.799,13.808
					c1.758-0.368-0.928-1.025-0.606-1.973c-4.3-3.005-7.52-7.193-12.128-9.862C84.95,234.439,82.524,233.124,80.099,231.81z"/>
				<path fill="#28221D" d="M111.025,256.796c-1.098-2.091-8.999-7.877-6.064-5.918c0.2,0,0.406,0,0.606,0
					c-1.479-2.341-4.002-3.551-6.064-5.261c-0.321,0.947,2.365,1.604,0.606,1.973C103.809,250.589,107.217,253.909,111.025,256.796z
					"/>
				<path fill="#28221D" d="M99.504,92.412c5.257,0,10.509,0,15.767,0C111.419,91.32,103.354,91.32,99.504,92.412z"/>
				<path fill="#BCBCBB" d="M112.845,83.206c0-0.217,0-0.44,0-0.658c-4.245,0-8.49,0-12.734,0c0,0.217,0,0.44,0,0.658
					C104.355,83.206,108.6,83.206,112.845,83.206z"/>
				<path d="M97.078,187.748c1.619-3.762,7.429-5.615,7.277-9.199C99.643,178.713,95.174,182.6,97.078,187.748z"/>
				<path fill="#745E5F" d="M105.568,131.206c4.457,1.098,13.129,1.098,17.586,0C117.29,131.206,111.432,131.206,105.568,131.206z"
					/>
				<path fill="#28221D" d="M108.6,110.823c0.103,3.728,2.353,3.8,4.172,2.643C110.098,113.979,109.418,112.328,108.6,110.823z"/>
				<path fill="#28221D" d="M110.419,35.863c18.599,0,37.191,0,55.79,0C149.029,34.765,127.599,34.765,110.419,35.863z"/>
				<path fill="#745E5F" d="M115.271,205.508c0.291-1.9-3.766-2.42-1.819-3.945C109.752,199.708,113.754,205.08,115.271,205.508z"/>
				<path d="M106.174,192.357c1.534-4.255,6.998-4.248,9.703-7.233C110.892,182.415,102.5,187.813,106.174,192.357z"/>
				<path fill="#28221D" d="M112.857,113.413c-0.03,0.02-0.055,0.033-0.085,0.053c0.024,0,0.048-0.006,0.073-0.013
					C112.851,113.439,112.857,113.426,112.857,113.413z"/>
				<path fill="#FFFFFF" d="M112.772,113.466c0.03-0.02,0.055-0.033,0.085-0.053c0.006,0,0.006-0.006,0.006-0.006
					c0.516-1.394,1.546-2.223,1.195-4.557c-0.473-0.145-1.195-0.02-1.213-0.658c-2.274-0.053-4.906-0.5-4.245,2.63
					C109.418,112.328,110.098,113.979,112.772,113.466z"/>
				<path fill="#FFFFFF" d="M113.451,201.562c-1.947,1.525,2.11,2.045,1.819,3.945c0.473,2.552,1.91,4.063,3.032,5.918
					c2.11,3.734,2.935-5.773,1.91-5.931c-0.03,0.006-0.061,0.006-0.091,0.013C118.018,204.067,116.119,202.392,113.451,201.562z"/>
				<path fill="#BCBCBB" d="M117.696,218.001c0.516,0.118,0.57-0.257,0.606-0.657c-0.079-2.545-2.462-2.591-3.032-4.603
					c-0.2,0-0.406,0-0.606,0c0.097,0.763-0.133,1.17-0.606,1.314c0,0.44,0,0.875,0,1.315
					C116.186,215.253,116.053,217.594,117.696,218.001z"/>
				<path fill="#28221D" d="M112.863,113.407c2.171-1.434,3.657-4.577-0.018-5.214c0.018,0.638,0.74,0.513,1.213,0.658
					C114.409,111.184,113.378,112.013,112.863,113.407z"/>
				<path fill="#28221D" d="M107.994,252.193c2.504,2.544,5.385,4.682,8.49,6.575C113.979,256.224,111.098,254.087,107.994,252.193z
					"/>
				<path fill="#28221D" d="M120.728,221.289c0.794,0.229,0.952,1.157,1.819,1.314c-1.383-1.788-2.687-3.662-4.245-5.26
					c-0.036,0.4-0.091,0.775-0.606,0.657C118.448,219.375,119.46,220.474,120.728,221.289z"/>
				<path fill="#745E5F" d="M119.515,89.781c1.855-0.473,2.208,0.671,3.639,0.658c-0.14-2.039-2.153-2.052-3.639-2.63
					C119.515,88.466,119.515,89.124,119.515,89.781z"/>
				<path fill="#28221D" d="M115.877,260.083c3.117,2.756,5.67,6.129,9.702,7.891C122.104,265.606,119.576,262.207,115.877,260.083z
					"/>
				<path fill="#28221D" d="M120.122,205.508c0.03-0.007,0.061-0.007,0.091-0.013C120.182,205.495,120.152,205.495,120.122,205.508z
					"/>
				<path fill="#28221D" d="M120.728,214.056c0-2.189,0-4.386,0-6.575c0.704,0.105,1.08-0.145,1.213-0.657
					c2.462,1.275,0.661,7.167,1.213,10.514c1.4-1.999,0.212-6.772,0.606-9.856c-1.031-0.822-1.571-2.183-3.548-1.985
					c1.025,0.157,0.2,9.665-1.91,5.931C118.375,213.096,119.188,213.977,120.728,214.056z"/>
				<path fill="#745E5F" d="M117.696,107.535c0.455,2.137,1.007,4.169,3.639,3.945C121.541,108.626,119.667,108.028,117.696,107.535
					z"/>
				<path fill="#28221D" d="M121.941,105.562c1.073,1.026,3.232,0.881,2.425,3.945c0.2,0,0.407,0,0.606,0
					c0.079-1.624,0.091-3.169-0.606-3.945C123.56,105.562,122.748,105.562,121.941,105.562z"/>
				<path fill="#745E5F" d="M123.76,219.974c0.2,0,0.406,0,0.606,0c-0.661-2.281,0.431-7.68,0-11.836c2.02,0,4.045,0,6.064,0
					c-1.037-1.506-4.627-0.243-6.67-0.657c-0.395,3.084,0.794,7.857-0.606,9.856v0.007
					C122.899,218.718,123.572,219.086,123.76,219.974z"/>
				<path fill="#28221D" d="M120.122,199.59c11.443,1.618,26.009-0.145,37.597,1.315
					C147.064,198.433,132.625,200.057,120.122,199.59z"/>
				<path fill="#28221D" d="M149.229,196.96c-8.083,0-16.173,0-24.256,0c-3.638,0-7.277,0-10.915,0c-0.2,0-0.406,0-0.606,0
					c11.115,1.532,24.863,0.217,36.991,0.657C150.424,196.979,149.702,197.104,149.229,196.96z"/>
				<path fill="#745E5F" d="M124.973,196.96c8.083,0,16.173,0,24.256,0C142.553,195.861,131.649,195.861,124.973,196.96z"/>
				<path d="M131.037,249.562c1.498-1.703-0.588-3.222,0-5.918c-0.807,0-1.619,0-2.426,0
					C128.508,246.61,128.314,249.661,131.037,249.562z"/>
				<path fill="#745E5F" d="M120.37,136.834c2.007-0.427,3.966-0.993,5.815-1.683c1.34-0.5,2.486-1.098,3.499-1.789
					c-1.85,1.006-4.008,1.821-6.531,2.446C122.184,136.045,121.255,136.414,120.37,136.834z"/>
				<path fill="#745E5F" d="M129.685,133.363c0-0.006,0.006-0.006,0.012-0.013C129.697,133.356,129.691,133.356,129.685,133.363z"/>
				<path fill="#BCBCBB" d="M132.25,246.933c-0.224-1.118,0.473-1.242,1.213-1.315c-0.855-0.874-2.049-4.728-3.032-3.287
					C131.85,242.987,131.164,245.913,132.25,246.933z"/>
				<path fill="#BCBCBB" d="M131.546,110.704c0.036,0.04,0.066,0.079,0.097,0.119C131.571,110.527,131.54,110.507,131.546,110.704z"
					/>
				<path fill="#FFFFFF" d="M123.154,131.206c4.239-0.881,6.646-3.754,9.096-6.575c0.698-2.058-0.691-12.638-0.703-13.927
					c-3.432-4.313-6.222-9.317-15.063-7.772c1.079,1.683,3.893,1.473,5.458,2.63c0.807,0,1.619,0,2.425,0
					c0.698,0.776,0.686,2.321,0.606,3.945c0.37,2.039,1.692,3.61,1.213,5.918c-0.479,2.301-10.757,10.698-13.341,11.178
					c-2.334,0.434-4.203,0.02-5.458-0.658c-5.561-5.878-5.288-19.68,3.032-22.356c-3.505-2.196-9.217-2.479-12.128,0.657
					c-2.517,3.847-0.631,12.467-1.213,18.411c1.146,4.675,5.773,5.576,8.49,8.548C111.432,131.206,117.29,131.206,123.154,131.206z"
					/>
				<path fill="#BCBCBB" d="M132.25,124.631c0.115-0.533,0.606-0.658,0.606-1.315c-0.309-3.827,0.679-9.068-0.606-11.836
					c0.109-0.559-0.236-0.618-0.606-0.657c-0.031-0.04-0.061-0.079-0.097-0.119C131.559,111.993,132.947,122.573,132.25,124.631z"/>
				<path fill="#28221D" d="M133.469,274.779c0.224-0.013,0.449-0.013,0.667-0.007c-0.473-1.775-1.376-3.083-3.099-3.511
					C132.304,271.945,133.038,273.194,133.469,274.779z"/>
				<path fill="#28221D" d="M132.25,111.48c1.286,2.768,0.297,8.009,0.606,11.836C133.65,120.896,134.402,112.887,132.25,111.48z"/>
				<path fill="#28221D" d="M126.792,231.151c9.357,13.303,17.143,28.314,35.172,32.22c-12.419-3.854-20.466-12.44-27.895-21.698
					c-0.697-2.071,0.952-1.599,1.213-2.631c-3.76-0.085-3.281-4.773-6.064-5.918C127.98,232.934,128.029,231.343,126.792,231.151z"
					/>
				<path fill="#28221D" d="M134.069,206.165c2.141,1.842,4.93,2.985,8.49,3.288C139.903,208.171,136.822,207.349,134.069,206.165z"
					/>
				<path fill="#BCBCBB" d="M137.708,223.262c-3.56,0.742,1.765,11.118-3.639,9.862
					C138.696,236.149,136.519,226.147,137.708,223.262z"/>
				<path fill="#FFFFFF" d="M135.888,110.165c0.819-0.645,1.213-1.756,1.819-2.63c-2.408-0.894-3.256-3.485-6.67-3.288
					c-0.534,2.111,1.57,1.361,1.819,2.63C134.124,107.693,135.136,108.791,135.888,110.165z"/>
				<path fill="#745E5F" d="M137.708,218.658c1.71-0.775-0.679-5.996,1.819-5.917c2.407,0.02,2.492,2.558,3.032,4.603
					c0.2,0,0.406,0,0.606,0c0.091-1.631-0.315-2.729-1.213-3.288c-0.103-1.427,2.153-0.296,3.032-0.657
					c-1.922-1.203-4.785-1.388-6.67-2.63C139.551,212.747,136.652,214.799,137.708,218.658z"/>
				<path fill="#745E5F" d="M139.527,119.778c-0.037,0.145-0.079,0.289-0.122,0.434c0.042-0.059,0.079-0.125,0.122-0.184
					C139.527,119.942,139.527,119.864,139.527,119.778z"/>
				<path d="M108.6,110.823c-0.661-3.13,1.971-2.683,4.245-2.63c3.675,0.638,2.189,3.781,0.018,5.214c0,0,0,0.006-0.006,0.006
					c0,0.013-0.006,0.026-0.012,0.04c-0.024,0.007-0.048,0.013-0.073,0.013C110.953,114.623,108.703,114.551,108.6,110.823z
					 M121.334,111.48c-2.632,0.224-3.184-1.808-3.639-3.945C119.667,108.028,121.541,108.626,121.334,111.48z M104.355,134.494
					c-3.76-0.092-5.688-2.163-7.883-3.945c-2.492-1.026-3.499-3.663-4.851-5.918c-1.825-1.539-2.62-7.66-1.213-10.521
					c0.103-0.986-0.218-2.426,0.606-2.63c-0.024-0.907,0.285-1.446,0.606-1.973c0-0.217,0-0.44,0-0.657
					c3.717-1.25,0.982,9.784,1.819,13.808c0.315,0.973,0.897,1.657,1.212,2.63C97.266,129.03,101.25,131.285,104.355,134.494z
					 M131.546,110.704c-0.006-0.197,0.024-0.177,0.097,0.119c0.37,0.039,0.715,0.098,0.606,0.657
					c2.153,1.407,1.401,9.416,0.606,11.836c0,0.657-0.491,0.782-0.606,1.315c-2.45,2.821-4.857,5.694-9.096,6.575
					c-4.457,1.098-13.129,1.098-17.586,0c-2.717-2.972-7.344-3.873-8.49-8.548c-0.37-0.04-0.715-0.099-0.606-0.658
					c-1.006-3.958-1.006-12.48,0-16.438c0.249-0.828,0.782-1.341,1.819-1.315c2.911-3.136,8.623-2.854,12.128-0.657
					c-8.32,2.676-8.593,16.478-3.032,22.356c1.255,0.677,3.123,1.092,5.458,0.658c2.583-0.48,12.862-8.877,13.341-11.178
					c0.479-2.308-0.843-3.879-1.213-5.918c-0.2,0-0.406,0-0.606,0c0.807-3.064-1.352-2.919-2.425-3.945
					c-1.564-1.157-4.378-0.947-5.458-2.63C125.325,101.387,128.114,106.391,131.546,110.704z M129.733,133.33
					c4.324-2.992,6.083-7.634,9.667-13.111l0.006-0.007c0.042-0.145,0.085-0.289,0.122-0.434c0-3.643,0-7.286,0-10.928
					c-3.511-1.585-2.602,5.023-3.639,3.945c0.212-3.294-2.687-3.229-3.032-5.917c-0.249-1.269-2.353-0.52-1.819-2.63
					c3.414-0.197,4.263,2.394,6.67,3.288c1.655-0.059,1.219,1.098,2.425,0c0.2,0,0.407,0,0.606,0c0-0.657,0-1.315,0-1.973
					c-11.679-8.429-32.03-9.613-46.693-4.603c-4.542,7.134-8.113,11.665-7.277,19.068c1.783,15.748,19.09,19.884,33.601,16.807
					c0.885-0.42,1.813-0.789,2.784-1.025c2.522-0.625,4.681-1.44,6.531-2.446c0.006-0.006,0.012-0.006,0.012-0.013
					C129.709,133.343,129.721,133.336,129.733,133.33z"/>
				<path fill="#28221D" d="M132.856,106.877c0.346,2.689,3.245,2.624,3.032,5.917c1.037,1.079,0.127-5.53,3.639-3.945
					c0.115-0.533,0.606-0.658,0.606-1.315c-1.207,1.098-0.77-0.059-2.425,0c-0.606,0.875-1,1.986-1.819,2.63
					C135.136,108.791,134.124,107.693,132.856,106.877z"/>
				<path fill="#BCBCBB" d="M140.133,238.385c0.073-1.453,2.571-0.276,3.639-0.657c0-0.218,0-0.44,0-0.658c-2.02,0-4.045,0-6.064,0
					c0.8,1.328,1.989,2.223,3.638,2.631C141.218,238.963,140.673,238.674,140.133,238.385z"/>
				<path fill="#28221D" d="M138.314,241.673c1.807,1.769,4.523,2.544,6.67,3.944C143.468,243.54,140.842,242.659,138.314,241.673z"
					/>
				<path fill="#BCBCBB" d="M143.771,218.658c-0.333,0.954,0.709,3.399-0.606,3.288c0.709,3.399-1.479,9.936,1.213,11.178
					c0.606,0,1.213,0,1.819,0c-0.103-0.769-0.958-0.717-1.819-0.657C143.978,228.074,145.178,221.953,143.771,218.658z"/>
				<path fill="#745E5F" d="M153.474,240.357c1.316,0.111,0.273-2.334,0.606-3.288c-3.438,0-6.87,0-10.309,0c0,0.218,0,0.44,0,0.658
					c3.232,0,6.47,0,9.702,0C153.474,238.602,153.474,239.482,153.474,240.357z"/>
				<path fill="#28221D" d="M150.442,278.494c1.722,0.986,3.76,1.624,6.064,1.973C154.905,279.35,153.043,278.521,150.442,278.494z"
					/>
				<path fill="#28221D" d="M144.378,233.124c2.116,0.737,9.781,1.854,10.915-0.657c-1.995,1.348-6.143,0.355-9.096,0.657
					C145.591,233.124,144.984,233.124,144.378,233.124z"/>
				<path fill="#28221D" d="M158.325,249.562c4.051,1.099,12.322,1.099,16.373,0C169.24,249.562,163.783,249.562,158.325,249.562z"
					/>
				<path fill="#BCBCBB" d="M161.357,247.59c2.292,0,4.578,0,6.864,0c-2.808-0.256-6.731-1.716-9.29-0.657
					C159.119,247.827,160.447,247.479,161.357,247.59z"/>
				<path fill="#28221D" d="M160.751,221.289c0.395,3.084-0.795,7.87,0.606,9.862C160.963,228.068,162.151,223.281,160.751,221.289z
					"/>
				<path fill="#BCBCBB" d="M160.145,217.344c0.697,0.775,0.686,2.327,0.606,3.945c1.4,1.992,0.212,6.779,0.606,9.862
					c0.176,0.218,0.376,0.408,0.606,0.579c0.182-4.991-0.098-9.481-0.606-13.729c4.444,0,8.896,0,13.341,0
					c0.357,1.361-0.752,4.32,0.606,4.603c0-0.657,0-1.314,0-1.973c0-1.098,0-2.189,0-3.287
					C170.253,217.344,165.196,217.344,160.145,217.344z"/>
				<path fill="#745E5F" d="M160.836,195.56c0.37,0.256,0.746,0.506,1.128,0.743C161.624,196.046,161.248,195.796,160.836,195.56z"
					/>
				<path fill="#BCBCBB" d="M171.06,246.933c-0.34,0.382-0.824,0.579-1.406,0.657c0.673,0,1.34,0,2.013,0
					c-0.17-0.723-1.03-6.312-0.606-9.862c-4.153,0.973-12.086-2.144-13.341,1.966c1.977-2.683,8.247-0.704,12.128-1.309
					C169.901,240.449,171.885,246.019,171.06,246.933z"/>
				<path fill="#BCBCBB" d="M161.964,231.81c0.042,0,0.085,0,0.127,0c-0.048-0.026-0.085-0.053-0.127-0.079
					C161.964,231.757,161.964,231.783,161.964,231.81z"/>
				<path fill="#FFFFFF" d="M140.072,276.956c2.147,1.61,4.015,3.859,6.246,5.846c0.243,0.217,0.424,0.446,0.576,0.684
					c1.213,0.026,2.426,0.026,3.608,0.039c3.881,0.046,7.762-0.032,11.643-0.138c0.115-0.086,0.255-0.185,0.425-0.289
					C154.159,282.689,147.003,278.369,140.072,276.956z"/>
				<path fill="#BCBCBB" d="M172.261,283.17c0.006-0.021,0.006-0.046,0.012-0.072c-3.232,0-6.471,0-9.702,0
					c-0.17,0.104-0.31,0.203-0.425,0.289C165.518,283.308,168.889,283.209,172.261,283.17z"/>
				<path fill="#28221D" d="M168.222,247.59c0.521,0.053,1.007,0.06,1.432,0C169.174,247.59,168.701,247.59,168.222,247.59z"/>
				<path fill="#28221D" d="M169.653,247.59c-0.425,0.06-0.91,0.053-1.432,0c-2.286,0-4.572,0-6.864,0
					c2.043,1.092,8.266,1.092,10.309,0C170.993,247.59,170.326,247.59,169.653,247.59z"/>
				<path fill="#FFFFFF" d="M172.272,283.098c-0.006,0.026-0.006,0.052-0.012,0.072c0.448,0,0.897-0.007,1.346-0.007
					C173.176,283.156,172.733,283.137,172.272,283.098z"/>
				<path fill="#BCBCBB" d="M162.091,231.81c2.753,1.788,8.793,0.02,12.607,0.657c0-0.217,0-0.44,0-0.657
					C170.496,231.81,166.293,231.81,162.091,231.81z"/>
				<path fill="#745E5F" d="M174.698,232.467c2.729,0.493,1.013-9.356,0.606-11.836c0,0.658,0,1.315,0,1.973
					c-0.388,2.867,0.788,7.431-0.606,9.206C174.698,232.026,174.698,232.25,174.698,232.467z"/>
				<path fill="#28221D" d="M176.518,204.192c-0.17,1.065,0.576,1.132,0.606,1.973c16.228-0.499,27.3,4.59,44.268,3.288
					C205.776,208.407,190.58,206.915,176.518,204.192z"/>
				<path fill="#28221D" d="M175.305,262.056c2.687-0.552,4.791-2.024,6.604-3.893C179.956,259.735,177.069,260.287,175.305,262.056
					z"/>
				<path fill="#28221D" d="M157.112,214.056c17.301,2.506,41.151,1.407,59.428,0.657
					C196.868,214.345,175.802,215.489,157.112,214.056z"/>
				<path fill="#28221D" d="M170.453,281.125c1.243,1.091,6.641,1.091,7.884,0C175.711,281.125,173.079,281.125,170.453,281.125z"/>
				<path fill="#BCBCBB" d="M178.337,220.625c2.687-4.708,3.851-0.914,3.038,4.583c0.691-1.796,1.752-5.478,0.601-7.207
					c4.851,0,9.702,0,14.554,0c1.2,1.138-2.639,2.367-1.819,5.261c1.625-1.525,2.11-4.287,4.244-5.261
					c-5.663-1.532-13.947-0.224-20.617-0.657C178.337,218.441,178.337,219.526,178.337,220.625z"/>
				<path fill="#28221D" d="M181.927,258.15c0.018-0.014,0.03-0.026,0.049-0.04c0-0.006,0.006-0.013,0.006-0.02
					C181.963,258.11,181.944,258.131,181.927,258.15z"/>
				<path fill="#745E5F" d="M187.457,131.68c0.085,0.664,0.23,1.289,0.467,1.867C187.754,132.929,187.597,132.304,187.457,131.68z"
					/>
				<path d="M212.901,183.151c-0.83,5.122-5.767,3.524-7.883,7.891c17.295,1.611,9.594-25.098-2.426-26.302
					c-4.396-10.198-11.637-20.015-14.669-31.193c-0.236-0.579-0.382-1.203-0.467-1.867c-0.922-4.103-1.243-8.397-0.631-12.967
					c-0.606,0-1.213,0-1.819,0c-2.625,5.563-0.4,13.506,0,19.726c8.029,7.733,10.012,22.021,16.979,30.905
					C207.48,168.035,213.854,177.312,212.901,183.151z"/>
				<path fill="#745E5F" d="M180.763,227.864c-2.692,2.966,6.27,2.36,7.276,1.314c-2.426,0-4.852,0-7.276,0
					C180.763,228.738,180.763,228.305,180.763,227.864z"/>
				<path fill="#28221D" d="M185.613,276.521c2.675-2.347,5.101-4.978,7.265-7.877C190.204,270.992,187.778,273.622,185.613,276.521
					z"/>
				<path fill="#745E5F" d="M183.794,235.755c-0.023,2.038-0.563,8.009,1.819,5.26c-0.2,0-0.406,0-0.606,0
					c-1.358-0.282-0.248-3.241-0.606-4.603c2.438-0.421,6.446,0.854,7.884-0.657C189.452,235.755,186.626,235.755,183.794,235.755z"
					/>
				<path fill="#FFFFFF" d="M185.613,241.015c2.862-1.723,6.847-2.216,8.49-5.26c-0.606,0-1.213,0-1.819,0
					c-1.438,1.512-5.445,0.236-7.884,0.657c0.358,1.361-0.752,4.32,0.606,4.603C185.207,241.015,185.413,241.015,185.613,241.015z"
					/>
				<path fill="#28221D" d="M192.891,268.632c-0.006,0.006-0.006,0.006-0.013,0.013
					C192.885,268.638,192.885,268.638,192.891,268.632z"/>
				<path fill="#28221D" d="M195.923,229.179c1.243-1.939,6.64,0.625,7.883-1.314c-2.438-0.421-6.446,0.854-7.883-0.657
					c-1.559,0.065-0.867,2.563-2.426,2.63c0,0.217,0,0.44,0,0.657c1.376-1.263,1.812-1.506,2.426,0.657c0.2,0,0.406,0,0.606,0
					C196.207,230.626,195.898,230.087,195.923,229.179z"/>
				<path d="M166.814,265.344c15.343,0.197,20.558-10.586,27.289-19.727c-5.07,1.289-7.769,7.97-12.116,12.468
					c0,0.006-0.006,0.006-0.006,0.006c0,0.007-0.006,0.014-0.006,0.02c-0.019,0.014-0.031,0.026-0.049,0.04
					c-0.006,0.007-0.013,0.013-0.019,0.013c-1.812,1.868-3.917,3.341-6.604,3.893c-2.613,2.427-8.896,0.875-13.341,1.315
					c-18.029-3.905-25.815-18.917-35.172-32.22c-2.013-3.301-4.693-5.871-6.064-9.862c-1.268-0.815-2.28-1.914-3.032-3.288
					c-1.643-0.407-1.51-2.748-3.638-2.63c-0.97,2.854,6.397,11.264,9.703,15.78c9.175,12.54,20.036,25.52,32.746,32.877
					C159.714,264.713,163.001,265.311,166.814,265.344z"/>
				<path d="M210.477,93.727c3.189-4.452,9.848-8.371,16.979-9.206c5.317-0.625,11.242,2.098,16.372-1.973
					c0.425-2.433-2.595-1.131-3.031-2.63c2.607,0.197,4.894,0.046,4.851-2.63c-0.491-0.125-0.606-0.658-1.213-0.658
					c-3.031,0-6.063,0-9.096,0c-19.672-2.735-28.635,9.245-37.598,19.069c-1.837,2.012-5.718,2.453-4.244,6.575
					c3.074,0.921,1.667-3.018,4.244-2.63c0.922,4.412,4.366-1.736,6.671-1.973c0.2,0,0.406,0,0.606,0
					C206.571,96.067,208.317,94.673,210.477,93.727z"/>
				<path fill="#FFFFFF" d="M195.923,235.755c2.353-0.514,3.747-2.071,5.457-3.288c-0.643-1.492-3.814-0.25-5.457-0.657
					c0,0.657,0,1.314,0,1.973C195.923,234.439,195.923,235.097,195.923,235.755z"/>
				<path fill="#BCBCBB" d="M217.753,219.974c0.903-0.559,0.88-2.117,1.213-3.288c-5.009,0.487-12.364-1.571-13.947,2.631
					c1.273-0.592,2.698-1.02,3.639-1.973c-0.819,2.683-4.524,14.735-11.521,8.548c-0.54,0.289-1.086,0.578-1.213,1.315
					c1.437,1.512,5.445,0.236,7.883,0.657c0.406,0,0.807,0,1.213,0c1.946-2.709,1.716-7.785,4.852-9.206
					c2.395-0.631,2.498-1.67,7.883-1.314C217.753,218.218,217.753,219.1,217.753,219.974z"/>
				<path fill="#28221D" d="M194.104,245.617c1.589-1.564,3.826-2.426,4.851-4.603c0.364-2.367-0.218-3.708-1.818-3.945
					c-3.973,2.045-7.678,4.38-10.91,7.233c4.451-1.171,7.726-6.852,12.122-5.918c-3.953,8.192-13.001,10.862-16.36,19.7
					C186.335,253.587,189.033,246.906,194.104,245.617z"/>
				<path fill="#BCBCBB" d="M186.826,279.152c5.294-3.669,9.042-9.028,13.329-13.796c-3.79,3.117-6.507,7.392-10.297,10.508
					C189.355,277.515,187.736,277.942,186.826,279.152z"/>
				<path fill="#745E5F" d="M189.858,275.864c3.79-3.116,6.507-7.391,10.297-10.508c0.006-0.006,0.006-0.006,0.012-0.013
					c-0.024-0.895,0.273-1.427,0.589-1.946C197.384,267.836,193.115,271.295,189.858,275.864z"/>
				<path fill="#28221D" d="M205.625,107.535c-1.007,1.131-1.007,6.76,0,7.891C205.625,112.795,205.625,110.165,205.625,107.535z"/>
				<path fill="#28221D" d="M206.231,251.535c-2.547,3.38-5.81,5.971-7.877,9.856C200.968,258.091,204.212,255.48,206.231,251.535z"
					/>
				<path fill="#BCBCBB" d="M206.231,106.877c-0.516-0.119-0.57,0.256-0.606,0.657c0,2.63,0,5.26,0,7.891
					c-0.109,1.434,0.497,2.091,1.819,1.973C205.109,115.984,206.687,110.33,206.231,106.877z"/>
				<path d="M218.966,104.247c-2.098,0.69-3.226-3.005-4.852-0.657c-1.006,2.064,2.256,2.689,0.606,3.288
					c-0.818-1.519-2.438-2.177-1.819-5.26c-0.709-0.112-0.66-1.039-0.605-1.973c2.547-0.526,3.929-2.314,6.67-2.63
					C220.513,100.25,217.553,100.874,218.966,104.247z M230.487,121.343c6.18-0.533,9.473-4.195,13.341-7.233
					c-0.897,6.26-5.13,8.903-11.521,9.206c-6.785,1.433-17.155,1.072-21.83-1.973C216.316,122.119,224.727,122.553,230.487,121.343z
					 M200.773,115.425c3.129,16.188,41.83,15.86,45.48,0.658c4.785-19.943-13.517-28.425-31.533-22.356
					c-2.286,1.466-4.081,3.465-6.67,4.603c-0.006,0.007-0.006,0.007-0.013,0.013C204.624,103.103,199.069,106.601,200.773,115.425z
					 M205.625,107.535c0.036-0.401,0.091-0.776,0.606-0.657c0.4-2.42,2.237-3.275,3.639-4.603c-0.443,2.012,1.049,1.933,0.606,3.945
					c1.88,2.781,4.948,4.281,6.67,7.233c2.675,0.171,4.693,1.052,7.884,0.658c1.23-0.861,0.83-3.479,2.426-3.945
					c0-3.071,0-6.135,0-9.206c6.634-3.458,7.913,8.068,13.341,5.918c0-0.441,0-0.875,0-1.315c-1.207-3.07-4.761-3.61-6.064-6.575
					c-1.686-1.683-4.378-2.269-7.883-1.973c0.072-2.768,4.65-0.651,6.67-1.315c-0.934,3.202,2.226,1.973,3.032,3.288
					c1.746,1.394,4.463,1.736,4.852,4.603c1,0.5,1,5.418,0,5.917c-0.729,6.444-6.113,7.838-12.129,8.548
					c-4.051,1.092-12.321,1.092-16.373,0c-1.818,0-3.638,0-5.457,0c0-0.217,0-0.44,0-0.657c-1.322,0.118-1.929-0.539-1.819-1.973
					C204.618,114.294,204.618,108.666,205.625,107.535z"/>
				<path fill="#FFFFFF" d="M214.721,93.727c0-0.217,0-0.44,0-0.658c-1.03,0.244-1.146-0.513-1.213-1.315
					c-1.431,0.204-1.128,2.282-3.031,1.973c-2.159,0.947-3.905,2.341-5.458,3.945c0.151,0.717,1.207,0.447,1.213,1.315
					c0.831,0.026,1.328-0.302,1.807-0.645c0.007-0.006,0.007-0.013,0.013-0.013C210.64,97.192,212.435,95.193,214.721,93.727z"/>
				<path fill="#FFFFFF" d="M229.274,118.055c6.016-0.71,11.4-2.104,12.129-8.548c-0.104-0.986,0.218-2.426-0.606-2.63
					c-5.428,2.15-6.707-9.376-13.341-5.918c0.515-0.118,0.569,0.256,0.606,0.658c1.006,1.131,1.006,6.759,0,7.89
					c0.108,0.559-0.237,0.618-0.606,0.658c-1.596,0.467-1.195,3.084-2.426,3.945c-3.19,0.395-5.209-0.487-7.884-0.658
					c-0.2,0-0.406,0-0.606,0c-2.207-2.209-4.79-4.011-6.063-7.233c0.442-2.012-1.05-1.933-0.606-3.945
					c-1.401,1.328-3.238,2.183-3.639,4.603c0.455,3.452-1.122,9.107,1.213,10.521c0,0.217,0,0.44,0,0.657c1.819,0,3.639,0,5.457,0
					C218.359,118.055,223.817,118.055,229.274,118.055z"/>
				<path fill="#BCBCBB" d="M208.051,229.179c1.867-1.038,3.56-2.262,4.839-3.932c-0.794,0.657-2.231,0.631-3.02,1.302
					c-0.098-2.077,1.612-2.196,1.213-4.603C209.506,223.741,208.257,225.898,208.051,229.179z"/>
				<path fill="#FFFFFF" d="M214.114,103.59c1.626-2.348,2.754,1.348,4.852,0.657c-1.413-3.373,1.547-3.998,0-7.233
					c-2.741,0.316-4.123,2.104-6.67,2.63c-0.055,0.934-0.104,1.861,0.605,1.973c0.2,0,0.407,0,0.606,0
					C213.454,102.551,213.405,103.478,214.114,103.59z"/>
				<path fill="#745E5F" d="M210.477,106.22c1.273,3.222,3.856,5.023,6.063,7.233c0.2,0,0.406,0,0.606,0
					C215.425,110.5,212.356,109.001,210.477,106.22z"/>
				<path fill="#28221D" d="M212.901,101.617c-0.618,3.083,1.001,3.741,1.819,5.26c1.649-0.599-1.612-1.223-0.606-3.288
					c-0.709-0.112-0.66-1.039-0.606-1.973C213.309,101.617,213.102,101.617,212.901,101.617z"/>
				<path fill="#745E5F" d="M212.901,118.055c4.052,1.092,12.322,1.092,16.373,0C223.817,118.055,218.359,118.055,212.901,118.055z"
					/>
				<path fill="#FFFFFF" d="M212.89,225.247c0.006-0.007,0.006-0.013,0.012-0.013c1.874-1.479,3.487-3.229,4.852-5.261
					c0-0.874,0-1.756,0-2.63c-5.385-0.355-5.488,0.684-7.883,1.314c2.098-0.46,2.177,2.309,1.213,3.288
					c0.399,2.406-1.311,2.525-1.213,4.603C210.658,225.878,212.096,225.904,212.89,225.247z"/>
				<path d="M153.474,240.357c0.291,2.913-0.837,3.268,0,5.26c-5.221-0.696-8.829-3.143-12.128-5.917
					c-1.649-0.408-2.838-1.303-3.638-2.631c2.019,0,4.044,0,6.064,0c3.438,0,6.871,0,10.309,0
					C153.747,238.023,154.79,240.469,153.474,240.357z M137.708,223.262c-1.188,2.886,0.988,12.888-3.639,9.862
					c-4.172-3.366-6.798-8.409-9.703-13.15c-0.2,0-0.406,0-0.606,0c-0.188-0.888-0.861-1.256-0.606-2.63v-0.007
					c-0.552-3.347,1.249-9.238-1.213-10.514c-0.133,0.513-0.509,0.763-1.213,0.657c0,2.189,0,4.386,0,6.575
					c-1.541-0.079-2.353-0.96-2.426-2.63c-1.122-1.854-2.559-3.366-3.032-5.918c-1.516-0.428-5.519-5.8-1.819-3.945
					c2.668,0.829,4.566,2.505,6.67,3.945c0.03-0.013,0.061-0.013,0.091-0.013c1.977-0.197,2.517,1.163,3.548,1.985
					c2.043,0.414,5.633-0.849,6.67,0.657c2.541,0.974,5.943,1.013,7.883,2.631c1.886,1.242,4.748,1.427,6.67,2.63
					c4.239,1.762,8.611,3.373,13.341,4.603c-2.28,3.445-1.868,9.811-3.032,14.466c-1.134,2.512-8.799,1.395-10.915,0.657
					c-2.692-1.242-0.503-7.778-1.213-11.178c0-1.532,0-3.07,0-4.603c-0.2,0-0.406,0-0.606,0c-0.54-2.045-0.625-4.583-3.032-4.603
					c-2.499-0.079-0.109,5.142-1.819,5.917C137.708,220.19,137.708,221.729,137.708,223.262z M194.104,235.755
					c-1.644,3.044-5.628,3.537-8.49,5.26c-2.383,2.749-1.843-3.222-1.819-5.26c2.832,0,5.658,0,8.49,0
					C192.891,235.755,193.497,235.755,194.104,235.755z M156.506,246.933c-0.091-2.945,0.066-5.629,1.213-7.232v-0.007
					c1.255-4.109,9.188-0.993,13.341-1.966c-0.424,3.551,0.437,9.14,0.606,9.862c-2.043,1.092-8.266,1.092-10.309,0
					c-0.91-0.111-2.238,0.237-2.426-0.657C158.125,246.933,157.312,246.933,156.506,246.933z M161.357,231.151
					c-1.401-1.992-0.212-6.778-0.606-9.862c0.079-1.618,0.091-3.17-0.606-3.945c5.052,0,10.108,0,15.16,0c0,1.098,0,2.189,0,3.287
					c0.406,2.479,2.122,12.329-0.606,11.836c-3.814-0.638-9.854,1.131-12.607-0.657c-0.042,0-0.085,0-0.127,0
					c0-0.026,0-0.053,0-0.079C161.733,231.56,161.533,231.369,161.357,231.151z M211.083,221.946
					c0.964-0.979,0.885-3.748-1.213-3.288c-3.136,1.421-2.905,6.497-4.852,9.206c-0.406,0-0.807,0-1.213,0
					c-1.243,1.939-6.64-0.625-7.883,1.314c-0.024,0.908,0.284,1.447,0.606,1.973c2.243-0.184,9.575-0.131,4.851,1.315
					c-1.71,1.217-3.104,2.774-5.457,3.288c0-0.658,0-1.315,0-1.973c-0.667-2.124-4.815-0.48-6.064-1.973
					c1.776,0.171,1.861-1.486,3.639-1.315c0-0.217,0-0.44,0-0.657c1.559-0.066,0.867-2.564,2.426-2.63
					c0.127-0.737,0.673-1.026,1.213-1.315c0.648-2.367,1.897-4.077,3.031-5.918c1.917-0.322,2.141,1.184,4.245,0.657
					c0-0.657,0.491-0.782,0.606-1.314c1.583-4.202,8.938-2.144,13.947-2.631c-0.333,1.171-0.31,2.729-1.213,3.288
					c-1.364,2.032-2.978,3.781-4.852,5.261c-0.006,0-0.006,0.006-0.012,0.013c-1.279,1.67-2.972,2.894-4.839,3.932
					C208.257,225.898,209.506,223.741,211.083,221.946z M159.538,182.494c-3.178,5.175-10.679,6.575-14.554,1.315
					c-0.855-11.737,14.396-12.789,9.096-24.987c-2.207,1.335-1.935,5.353-2.426,8.549c-5.105,3.8-16.688,16.201-4.245,21.698
					c5.64-0.697,9.291,3.59,13.426,6.49c0.412,0.236,0.788,0.486,1.128,0.743c5.185,2.269,9.005,6.016,14.554,7.89
					c14.062,2.723,29.259,4.215,44.874,5.261c4.597,1.802-0.564,6.878-4.852,5.26c-18.276,0.75-42.127,1.849-59.428-0.657
					c-6.956,0.743-9.714-3.058-14.554-4.603c-3.56-0.303-6.349-1.446-8.49-3.288c-3.893-2.005-19.726-0.532-13.947-6.575
					c12.504,0.467,26.943-1.157,37.597,1.315c4.561-0.072,12.595,5.707,13.341,3.287c-5.803-3.354-12.855-5.352-20.618-6.575
					c-12.128-0.44-25.875,0.875-36.991-0.657c-2.256-1.4-7.823-5.069-10.309-1.973c2.978,7.075,10.018,9.738,12.128,17.754
					c0.57,2.012,2.953,2.058,3.032,4.603c1.559,1.598,2.862,3.472,4.245,5.26c2.153,3.584,4.894,6.529,6.67,10.521
					c2.783,1.145,2.304,5.833,6.064,5.918c0.734-1.387,2.826,1.27,3.032,2.631c2.528,0.986,5.154,1.867,6.67,3.944
					c3.856,1.96,9.562,1.907,13.341,3.945c5.458,0,10.915,0,16.373,0c3.856-1.735,7.659-3.53,11.521-5.26h0.006
					c3.232-2.854,6.938-5.188,10.91-7.233c1.601,0.237,2.183,1.578,1.818,3.945c7.102-6.332,15.864-10.855,21.225-19.068
					c-0.024-1.124,0.449-1.703,1.213-1.973c0.497-2.531,0.473-5.622,3.032-5.918c0.267-0.585,0.533-1.177,1.213-1.314
					c-0.17-1.151,1.71-3.281,0-3.945c-9.388-2.314-21.867-1.276-30.927-3.945c-0.406,0-0.807,0-1.213,0
					c0.909-0.77,1.485-1.9,3.032-1.973c5.608-1.571,9.738-13.848,5.457-19.727c-1.958,4.458-1.219,11.829-3.639,15.781
					c-15.038,9.094-31.83-1.946-41.235-9.206C157.307,186.847,161.866,186.012,159.538,182.494z M188.039,229.179
					c-1.007,1.046-9.969,1.651-7.276-1.314c-0.049-1.145,0.133-2.045,0.606-2.63c0.006-0.007,0.006-0.021,0.006-0.026
					c0.812-5.497-0.352-9.291-3.038-4.583c0-1.099,0-2.184,0-3.281c6.67,0.434,14.954-0.875,20.617,0.657
					c-2.134,0.974-2.619,3.735-4.244,5.261C193.242,226.056,191.933,229.021,188.039,229.179z"/>
				<path fill="#28221D" d="M217.753,232.467c4.476-3.899,6.701-10.251,10.297-15.11
					C223.848,221.559,221.495,227.772,217.753,232.467z"/>
				<path fill="#28221D" d="M227.456,110.165c0.369-0.04,0.715-0.099,0.606-0.658c0-2.63,0-5.26,0-7.89
					c-0.037-0.401-0.092-0.776-0.606-0.658C227.456,104.03,227.456,107.094,227.456,110.165z"/>
				<path fill="#BCBCBB" d="M228.062,109.507c1.006-1.131,1.006-6.759,0-7.89C228.062,104.247,228.062,106.877,228.062,109.507z"/>
				<path fill="#28221D" d="M234.732,98.987c0.606,0,1.213,0,1.819,0c-0.807-1.315-3.966-0.085-3.032-3.288
					c-2.02,0.664-6.598-1.453-6.67,1.315C230.354,96.718,233.047,97.304,234.732,98.987z"/>
				<path fill="#BCBCBB" d="M210.477,121.343c4.675,3.044,15.045,3.406,21.83,1.973c-7.641-0.921-9.345,1.414-13.292,0.013
					c1.073,0.25,9.672-0.493,11.473-1.986C224.727,122.553,216.316,122.119,210.477,121.343z"/>
				<path fill="#FFFFFF" d="M232.307,123.316c6.392-0.303,10.624-2.946,11.521-9.206c-3.868,3.038-7.161,6.7-13.341,7.233
					c-1.801,1.493-10.399,2.235-11.473,1.986C222.962,124.729,224.666,122.395,232.307,123.316z"/>
				<path fill="#28221D" d="M235.339,76.63c3.032,0,6.064,0,9.096,0C242.792,75.539,236.982,75.539,235.339,76.63z"/>
				<path fill="#28221D" d="M235.339,200.905c2.11-1.861,3.135-4.912,4.839-7.22C237.91,195.382,236.812,198.348,235.339,200.905z"
					/>
				<path fill="#28221D" d="M241.403,103.59c-0.098,0.776,0.103,1.867-0.606,1.972c0,0.441,0,0.875,0,1.315
					c0.824,0.204,0.503,1.644,0.606,2.63C242.403,109.008,242.403,104.089,241.403,103.59z"/>
				<path fill="#BCBCBB" d="M240.797,105.562c0.709-0.105,0.509-1.196,0.606-1.972c-0.389-2.867-3.105-3.209-4.852-4.603
					c-0.606,0-1.213,0-1.819,0C236.036,101.952,239.59,102.492,240.797,105.562z"/>
				<path fill="#28221D" d="M257.776,102.274c-1.007,2.65-1.007,9.843,0,12.493C257.776,110.605,257.776,106.437,257.776,102.274z"
					/>
				<path fill="#745E5F" d="M257.776,73.343c0.399,4.609-0.801,10.948,0.606,14.466C257.982,83.199,259.183,76.861,257.776,73.343z"
					/>
				<path fill="#28221D" d="M254.138,167.371c2.195-1.775,2.711-5.372,4.232-7.878C256.181,161.269,255.672,164.872,254.138,167.371
					z"/>
				<path fill="#28221D" d="M260.201,131.206c0-12.493,0-24.986,0-37.479c-0.133-0.513-0.018-1.295-0.606-1.315
					C260.002,105.122,258.789,119.587,260.201,131.206z"/>
				<path fill="#BCBCBB" d="M260.201,93.727c0,12.493,0,24.986,0,37.479c0.037,0.401,0.092,0.776,0.606,0.658
					C260.401,119.371,261.614,105.128,260.201,93.727z"/>
				<path fill="#28221D" d="M260.808,150.275c1.007-1.131,1.007-6.76,0-7.891C260.808,145.015,260.808,147.645,260.808,150.275z"/>
				<path d="M31.586,154.878c-0.831-4.491-0.115-7.22,0.606-12.494c-0.4,6.135,3.863,7.207,5.458,11.178
					c2.274,1.92,4.293,4.109,6.064,6.575c4.39,6.418,11.073,10.35,8.49,24.329c2.983,1.802,7.137,2.348,6.064,8.548
					c-3.196-0.257-7.659,0.849-9.096-1.315C51.707,171.218,34.224,169.08,31.586,154.878z M47.353,138.439
					c-2.419-5.135-13.595-2.578-15.16,1.315c1.207-4.386,3.493-7.607,5.458-11.178c17.064-0.309,19.411,15.34,21.831,30.904
					c-3.566-1.828-6.088-4.8-8.49-7.891c0.212-2.893,3.444-6.292,0.606-8.548c-10.345,10.369,4.778,12.775,6.064,21.041
					c0.2,1.275-0.903,2.827-0.606,3.945c0.388,1.46,1.692,0.868,1.819,2.63c0.303,4.268-1.401,6.714-0.606,13.151
					c-0.715-0.105-1.722,0.111-1.819-0.658c-0.679-0.138-0.946-0.729-1.213-1.314c-1.407-2.86-0.212-8.542-0.606-12.493
					c-2.39-4.209-7.065-5.925-8.49-11.179c-2.681-2.354-5.106-4.984-7.277-7.89c-1.892-2.255-5.228-5.977-3.032-10.521
					C38.366,137.9,44.842,140.32,47.353,138.439z M189.858,275.864c3.257-4.569,7.525-8.028,10.897-12.467
					c0.006-0.007,0.012-0.02,0.018-0.026c11.716-17.464,22.995-34.823,32.746-53.918c9.575-18.767,24.22-35.441,29.107-58.521
					c0-0.44,0-0.875,0-1.315v-0.006c0-3.729,0-7.443,0-11.172c-1.03-1.736-1.795-3.754-1.819-6.575
					c-0.515,0.118-0.569-0.256-0.606-0.658c-1.412-11.619-0.199-26.084-0.606-38.794c-1.104-0.776-0.479-3.426-1.212-4.603
					c-1.407-3.518-0.207-9.856-0.606-14.466c-1.522-17.852-16.167-21.488-16.373-40.767c-63.873,0-127.752,0-191.625,0
					c-3.638,4.826-5.391,11.685-7.277,18.411c-0.14-0.605-0.291-1.197-0.449-1.782c-0.182,0.73-0.437,1.46-0.776,2.183
					c-0.115,0.25-0.249,0.454-0.394,0.645c0.467,0.986,0.449,1.939,0.133,2.749c0.091,0.27,0.182,0.539,0.273,0.809
					c1.007,1.348,1.007,7.18,0,8.542v0.006c0,0.441,0,0.875,0,1.315c1.413,10.744,0.2,24.329,0.606,36.165
					c-1.771,8.85,3.481,11.336,3.639,19.726c0.982,2.453,4.39,5.733,3.638,7.89c-1.946-1.394-4.621-1.999-6.064-3.945
					c-3.038-0.44-4.693,0.612-7.277,0.658c-2.844,5.464-6.495,10.054-7.277,17.753c0,3.729,0,7.45,0,11.179
					c2.28,11.776,11.709,15.794,16.373,24.986c1.407,2.643,0.212,8.101,0.606,11.835c0.776,1.789,2.941,2.071,3.638,3.945
					c2.098,1.013,5.531,0.579,8.49,0.658c0.697,0.775,0.686,2.327,0.606,3.945c-0.206,9.652,4.451,14.019,7.277,20.383
					c1.637,1.072,2.887,2.571,3.639,4.604c0.521,0.184,0.891,0.506,1.079,1.052c0.801,0.401,1.51,1.039,2.062,1.953
					c0.048,0.078,0.085,0.151,0.127,0.229c1.104-0.065,2.298,0.165,2.795,0.71c3.135-0.407-1.413-1.302-1.213-2.63
					c-6.998-3.59-8.787-12.828-12.734-19.726c-1.407-4.393-0.207-11.612-0.606-17.097c0-0.44,0-0.874,0-1.314
					c0.4-6.142-0.807-14.025,0.606-19.068c-0.588-7.049,2.668-12.507,2.425-18.412c-0.485-11.862-9.745-21.606-11.521-32.877
					c-1.007-1.564-1.007-7.64,0-9.205c1.164-5.747,4.457-9.192,5.458-15.124c0.394-3.518-0.794-8.752,0.606-11.178
					c-0.194-1.525,0.097-2.525,0.606-3.288v-0.006c0.388-2.644-0.789-6.983,0.606-8.542c-0.606-3.288,1.886-3.215,1.819-5.918
					c0.4-4.609-0.801-10.948,0.606-14.466c0.345-4.886,3.462-6.766,4.245-11.178c3.341-0.539,5.67-2.183,9.096-2.63
					c10.109-1.532,22.843-0.217,33.958-0.658c0.407,0,0.807,0,1.213,0c17.18-1.098,38.61-1.098,55.79,0c11.225,0,22.606,0,34.564,0
					c11.207,0,25.402-3.215,33.959,0.658c3.402,1.539,5.797,8.042,9.096,13.15c3.287,5.096,6.913,7.496,9.097,13.151
					c3.305,8.561,3.444,31.2,4.852,39.452c0,4.162,0,8.331,0,12.493c-0.109,11.198,1.406,17.635,3.031,27.617
					c1.007,1.131,1.007,6.759,0,7.891c-1.151,2.696-1.722,6.023-2.425,9.206c-0.007,0.007-0.007,0.007-0.013,0.013
					c-1.521,2.506-2.037,6.103-4.232,7.878c-4.166,9.291-9.188,17.654-13.947,26.301c-0.006,0-0.006,0.007-0.013,0.014
					c-1.704,2.308-2.729,5.358-4.839,7.22c-3.099,4.754-4.415,11.435-7.276,16.438c-0.007,0.007-0.007,0.007-0.013,0.013
					c-3.596,4.859-5.821,11.211-10.297,15.11c-3.038,7.227-8.362,11.974-11.521,19.068c-2.02,3.945-5.264,6.556-7.877,9.856
					c-0.007,0-0.007,0.007-0.007,0.007c-1.049,3.242-3.959,4.472-5.457,7.233c-0.006,0.006-0.006,0.006-0.013,0.013
					c-2.164,2.899-4.59,5.53-7.265,7.877c-2.28,1.69-4.263,3.709-7.276,4.604c-1.243,1.091-6.641,1.091-7.884,0
					c-4.505-0.375-10.43,0.789-13.947-0.658c-2.304-0.349-4.342-0.986-6.064-1.973c-14.493-3.136-23.625-12.085-33.958-19.726
					c-3.105-1.894-5.985-4.031-8.49-6.575c-1.656,0.479-1.219-1.309-2.426-1.315c-0.2,0-0.406,0-0.606,0
					c-2.935-1.959,4.966,3.827,6.064,5.918c2.213,0.447,2.959,2.492,4.852,3.287c3.699,2.124,6.228,5.523,9.702,7.891
					c3.075-0.27,3.542,2.295,5.458,3.288c1.722,0.428,2.625,1.735,3.099,3.511c2.371,0.033,4.245,0.908,5.937,2.184
					c6.931,1.413,14.087,5.733,22.498,6.142c3.231,0,6.47,0,9.702,0c0.461,0.039,0.903,0.059,1.334,0.065
					c0.298-0.007,0.595-0.007,0.892-0.007c0.006,0,0.006,0,0.012,0c5.155-0.21,8.06-2.834,12.316-4.004
					C187.736,277.942,189.355,277.515,189.858,275.864z"/>
				<path fill="#28221D" d="M262.627,149.611c1.401-2.209,0.213-7.213,0.606-10.514c-0.036-0.401-0.091-0.776-0.606-0.658
					C262.627,142.167,262.627,145.882,262.627,149.611z"/>
				<path fill="#BCBCBB" d="M262.627,150.932c2.153-1.407,1.401-9.416,0.606-11.835c-0.394,3.301,0.795,8.305-0.606,10.514v0.006
					C262.627,150.058,262.627,150.492,262.627,150.932z"/>
			</g>
			<g>
			</g>
		</g>
	</g>
	<g>
		<g>
			<path d="M57.459,43.25c15.883,1.232,31.672-1.958,47.568-1.087c16.085,0.881,32.225,0.249,48.256-1.2
				c16.203-1.464,32.025-1.872,48.289-1.128c16.113,0.737,32.209,1.669,48.319,0.348c6.729-0.552,12.585-4.179,14.464-11.012
				c2.03-7.38-2.434-16.943-10.477-18.452c-28.14-5.278-56.502-7.926-85.1-5.657c-14.149,1.123-28.221,3.189-42.367,4.419
				c-14.731,1.281-29.506,1.985-44.293,2.018c-19.344,0.042-19.348,30.042,0,30c28.494-0.062,56.466-3.65,84.772-6.274
				c26.834-2.487,53.262-0.406,79.013,4.424c1.329-9.822,2.658-19.643,3.987-29.464c-16.105,1.321-32.211,0.412-48.319-0.348
				c-16.248-0.766-32.104-0.409-48.289,1.128c-16.038,1.524-32.165,1.972-48.256,1.2c-15.893-0.763-31.694,2.319-47.568,1.087
				c-8.163-0.633-15,7.303-15,15C42.459,36.905,49.311,42.618,57.459,43.25L57.459,43.25z"/>
		</g>
	</g>
</g>
<g id="Layer_2">
</g>
</svg>
