<?xml version="1.0" encoding="utf-8"?>
<!-- Generator: Adobe Illustrator 15.0.0, SVG Export Plug-In . SVG Version: 6.00 Build 0)  -->
<!DOCTYPE svg PUBLIC "-//W3C//DTD SVG 1.1//EN" "http://www.w3.org/Graphics/SVG/1.1/DTD/svg11.dtd">
<svg version="1.1" xmlns="http://www.w3.org/2000/svg" xmlns:xlink="http://www.w3.org/1999/xlink" x="0px" y="0px" width="300px"
	 height="300px" viewBox="0 0 300 300" enable-background="new 0 0 300 300" xml:space="preserve">
<g id="Layer_1">
	<g id="_x30_hnKaD_1_">
		<g id="XMLID_2_">
			<g>
				<path fill="#F5F5F5" d="M281.002,150.276c-0.813-7.2-10.553-12.452-6.956-19.478c3.499,2.532,3.033,9.022,6.956,11.13
					C281.002,144.711,281.002,147.494,281.002,150.276z"/>
				<path fill="#0A0A0A" d="M266.395,137.755c-6.372,16.563-37.543,17.954-58.433,13.217c0.209,4.139-0.376,6.469-1.481,7.638
					c1.245-2.254-0.195-7.2,2.177-8.334c19.798,4.069,53.181,4.424,57.041-13.217c0.32-1.461,0.515-3.04,0.599-4.709
					C266.359,134.117,266.395,135.919,266.395,137.755z"/>
				<path fill="#F5F5F5" d="M264.495,115.495c1.328,5.906,2.073,11.791,1.802,16.855
					C266.067,126.361,265.455,120.754,264.495,115.495z"/>
				<path fill="#F5F5F5" d="M262.896,135.334c0.014,0.57,0.021,1.148,0.021,1.725c-0.194,0.375-0.403,0.744-0.64,1.106
					C262.568,137.268,262.763,136.322,262.896,135.334z"/>
				<path fill="#F5F5F5" d="M210.014,148.412c18.99,4.285,45.042,0.974,52.263-10.247c-0.605,1.948-1.614,3.694-3.138,5.231
					c-4.431,3.388-10.894,5.732-18.142,7.005C231.251,151.646,219.753,150.861,210.014,148.412z"/>
				<path fill="#F5F5F5" d="M259.139,143.396c-0.709,0.71-1.537,1.384-2.483,2.011c-3.882,2.567-9.412,4.201-15.658,4.995
					C248.245,149.128,254.708,146.784,259.139,143.396z"/>
				<path fill="#97D6E7" d="M254.568,120.365c-0.056-0.014-0.111-0.028-0.167-0.049c-0.042-0.299-0.098-0.605-0.152-0.904
					C254.359,119.731,254.464,120.052,254.568,120.365z"/>
				<path fill="#F5F5F5" d="M247.125,101.534c1.697,1.676,3.124,3.596,4.313,5.718c-4.299-5.788-10.059-9.933-16.048-11.777
					c2.052,0.341,4.021,0.932,5.808,1.795C243.271,98.432,245.268,99.865,247.125,101.534z"/>
				<path fill="#0A0A0A" d="M253.178,86.279c-2.999-4.529-6.866-10.782-9.739-12.521c-0.125-0.591,0.271-0.654,0.695-0.696
					c9.934,11.005,17.134,24.729,20.361,42.433C261.88,103.83,257.003,92.06,253.178,86.279z"/>
				<path fill="#FFFFFF" d="M242.743,98.104c1.635,0.988,3.088,2.136,4.382,3.43c-1.857-1.669-3.854-3.103-5.927-4.264
					C241.734,97.527,242.249,97.806,242.743,98.104z"/>
				<path fill="#0A0A0A" d="M242.047,74.454c-0.125-0.591,0.271-0.654,0.696-0.696c12.34,15.951,21.676,34.899,21.564,63.302
					c-1.016,2.407-2.804,4.521-5.169,6.337c1.523-1.537,2.532-3.283,3.138-5.231c0.236-0.362,0.445-0.73,0.64-1.106
					c0-0.577-0.007-1.155-0.021-1.725c0.257-2.018,0.229-4.223,0.021-6.623C261.107,107.989,254.59,87.03,242.047,74.454z"/>
				<path fill="#F5F5F5" d="M262.896,135.334c-0.425-26.587-8.654-45.369-20.849-60.186c-1.62,0-3.248,0-4.869,0
					c0-0.229,0-0.466,0-0.695c1.621,0,3.249,0,4.869,0c12.543,12.577,19.061,33.536,20.869,54.258
					C263.125,131.112,263.152,133.317,262.896,135.334z"/>
				<path fill="#0A0A0A" d="M237.227,70.697c0.445,0.333,0.897,0.661,1.343,0.974C237.888,71.581,237.547,71.149,237.227,70.697z"/>
				<path d="M235.724,69.563c0.801,0.083,1.142,0.619,1.503,1.134C236.726,70.329,236.225,69.946,235.724,69.563z"/>
				<path fill="#0A0A0A" d="M210.236,109.777c-0.034-0.856-0.098-1.732-0.188-2.629c5.537-11.666,15.721-14.65,25.342-11.673
					c-10.289-1.739-22.58,2.845-24.646,11.673C210.543,108.003,210.376,108.88,210.236,109.777z"/>
				<path fill="#97D6E7" d="M228.99,100.039c-0.633-0.049-1.321,0.028-2.024,0.125C227.502,99.934,228.155,99.837,228.99,100.039z"
					/>
				<path fill="#F5F5F5" d="M218.396,47.324c3.012,3.04,6.566,1.989,10.434,5.565c-0.834,6.623-0.146,11.575,4.87,10.435
					c-0.126-0.591,0.271-0.654,0.695-0.696c0.194,1.127-0.661,1.196-0.695,2.087c-6.156-1.189-6.198-4.362-5.565-11.826
					c-2.978-1.656-6.177-3.096-9.738-4.174c-0.146-0.682-0.32-1.335-0.516-1.961C218.041,46.949,218.215,47.143,218.396,47.324z"/>
				<path fill="#0A0A0A" d="M223.057,100.352c1.071,0.32,2.512,0.014,3.909-0.188c-1.642,0.696-2.246,2.623-3.7,1.419
					C223.433,100.936,223.314,100.581,223.057,100.352z"/>
				<path fill="#97D6E7" d="M222.382,100.032c0.258,0.076,0.501,0.167,0.675,0.32C222.813,100.282,222.584,100.178,222.382,100.032z
					"/>
				<path fill="#97D6E7" d="M221.874,99.496c17.523-7.847,28.048,7.38,32.367,19.895c0.008,0.007,0.008,0.014,0.008,0.021
					c0.055,0.299,0.11,0.605,0.152,0.904c-2.56-0.772-2.316-4.779-4.702-6.908c-5.488-4.918-25.689-4.215-27.825,4.87
					c-2.365,10.065,7.43,15.582,12.521,20.869c5.662-1.022,7.374,1.906,12.521,1.391c-4.766,2.657-13.969,0.87-20.869,1.391
					c-13.286-2.476-16.222-24.082-11.13-38.259c2.727,1.726,1.113,7.005,8.348,5.565c1.523-0.104,1.495-1.753,1.391-3.479
					c2.491,1.371,3.715-0.32,6.957,0c0.528-4.445-0.779-5.585-2.623-5.718c-0.835-0.202-1.488-0.104-2.024,0.125
					c-1.397,0.202-2.838,0.508-3.909,0.188c-0.174-0.153-0.417-0.244-0.675-0.32C222.188,99.893,222.021,99.719,221.874,99.496z"/>
				<path fill="#0A0A0A" d="M254.241,119.391c-4.319-12.514-14.844-27.741-32.367-19.895c0.146,0.223,0.313,0.396,0.508,0.536
					c-0.445-0.139-0.932-0.23-1.203-0.536C237.776,90.098,251.772,106.334,254.241,119.391z"/>
				<path fill="#0A0A0A" d="M221.874,102.278c-0.82-1.127-4.403-2.532-4.869,0C218.786,103.002,220.803,104.358,221.874,102.278z
					 M216.31,102.278c0.862-3.325,4.987-1.871,6.261,0C221.38,105.242,218.159,103.851,216.31,102.278z"/>
				<path fill="#F5F5F5" d="M221.032,57.153c0.522,0.188,1.037,0.383,1.53,0.598C222.048,57.682,221.547,57.453,221.032,57.153z"/>
				<path fill="#0A0A0A" d="M218.396,106.452c0.014-1.906,3.283-1.656,4.174-0.696C222.556,107.663,219.286,107.412,218.396,106.452
					z"/>
				<path fill="#F5F5F5" d="M217.005,102.278c0.466-2.532,4.049-1.127,4.869,0C220.803,104.358,218.786,103.002,217.005,102.278z"/>
				<path fill="#F5F5F5" d="M214.8,40.486c1.314,1.788,2.352,3.854,3.081,6.268C216.406,44.959,215.711,42.664,214.8,40.486z"/>
				<path fill="#F5F5F5" d="M217.005,54.976c1.537,0.382,2.804,1.481,4.027,2.177c-11.387-4.042-27.811-1.76-38.071,2.449
					C191.837,54.621,206.452,52.347,217.005,54.976z"/>
				<path fill="#0A0A0A" d="M234.396,138.451c6.212-0.299,10.81,1.927,15.304,1.392c-4.348,4.466-15.388,2.24-23.651,2.782
					c-13.711-2.372-17.703-25.863-11.13-39.65c3.346,1.217,1.461,3.478,3.479,5.565c1.62,0,3.248,0,4.869,0
					c1.446-0.181,0.188-3.054,1.391-3.478c2.372,1.266,3.34-0.098,6.261,0c0.452-2.539-0.466-3.708-1.391-4.87
					c-0.188-0.069-0.369-0.118-0.536-0.153c1.844,0.132,3.151,1.273,2.623,5.718c-3.242-0.32-4.466,1.371-6.957,0
					c0.104,1.725,0.133,3.374-1.391,3.479c-7.234,1.44-5.621-3.84-8.348-5.565c-5.092,14.177-2.156,35.783,11.13,38.259
					c6.9-0.521,16.104,1.266,20.869-1.391c-5.147,0.515-6.859-2.414-12.521-1.391c-5.092-5.287-14.887-10.803-12.521-20.869
					c2.136-9.085,22.337-9.788,27.825-4.87c2.386,2.129,2.143,6.136,4.702,6.908c0.069,0.487,0.125,0.967,0.167,1.44
					c-3.742-4.361-5.871-10.727-14.608-11.13c-5.947-0.278-16.02,2.414-17.39,7.652C220.031,127.975,229.7,133.282,234.396,138.451z
					"/>
				<path fill="#0A0A0A" d="M212.129,41.23c1.913,2.929,3.192,6.379,4.181,10.268c6.232-0.786,11.846,2.379,9.043,8.347
					c-11.86-7.04-33.279-4-44.521,1.392c0.195,3.401-4.424,5.621-6.26,9.043c-5.267-4.257-11.089-9.05-17.558-13.412
					c2.072,1.092,4.11,2.177,6.079,3.339c0.007,0,0.021,0.007,0.028,0.021c2.295,1.614,4.563,3.193,6.845,4.688
					c1.677,1.384,3.228,2.921,4.605,4.667c2.023-3.555,5.224-5.433,6.142-8.57c0.703-0.494,1.454-0.967,2.247-1.412
					c10.261-4.208,26.685-6.49,38.071-2.449c0.515,0.299,1.016,0.529,1.53,0.598c0.008,0,0.015,0,0.015,0
					c0.974,0.417,1.898,0.876,2.775,1.398c1.517-7.318-5.231-6.365-9.739-7.652C215.934,46.587,211.969,45.975,212.129,41.23z"/>
				<path fill="#F5F5F5" d="M215.613,73.062c-3.437-0.612-3.061-5.029-4.451-7.687c1.711,2.094,3.123,4.508,4.451,6.991
					c-0.619-8.424-6.351-11.735-12.521-14.608c16.09-1.481,23.198,6.018,31.998,11.826c-1.183-0.257-1.314,0.542-1.391,1.392
					c-4.599-6.24-14.107-13.126-27.825-12.521C211.544,60.499,216.755,66.509,215.613,73.062z"/>
				<path d="M222.57,105.756c-0.891-0.96-4.16-1.21-4.174,0.696C219.286,107.412,222.556,107.663,222.57,105.756z M222.57,102.278
					c-1.273-1.871-5.398-3.325-6.261,0C218.159,103.851,221.38,105.242,222.57,102.278z M226.048,144.016
					c-9.446-2.01-14.768-12.076-16.027-22.837c0.153-3.43,0.438-7.151,0.216-11.401c0.14-0.897,0.307-1.774,0.508-2.629
					c2.066-8.828,14.357-13.412,24.646-11.673c5.989,1.844,11.749,5.989,16.048,11.777c4.333,7.694,5.635,18.003,5.912,29.112
					C250.479,143.814,238.548,146.673,226.048,144.016z M249.699,139.842c-4.494,0.536-9.092-1.69-15.304-1.392
					c-4.695-5.168-14.364-10.476-11.825-20.173c1.37-5.238,11.442-7.93,17.39-7.652c8.737,0.403,10.866,6.769,14.608,11.13
					c-0.042-0.473-0.098-0.953-0.167-1.44c0.056,0.021,0.111,0.035,0.167,0.049c-0.104-0.313-0.209-0.633-0.319-0.953
					c0-0.007,0-0.014-0.008-0.021c-2.469-13.057-16.465-29.292-33.062-19.895c0.271,0.306,0.758,0.396,1.203,0.536
					c0.202,0.146,0.432,0.25,0.675,0.32c0.258,0.229,0.376,0.584,0.209,1.231c1.454,1.203,2.059-0.724,3.7-1.419
					c0.703-0.097,1.392-0.174,2.024-0.125c0.167,0.035,0.348,0.083,0.536,0.153c0.925,1.162,1.843,2.331,1.391,4.87
					c-2.921-0.098-3.889,1.266-6.261,0c-1.203,0.424,0.056,3.297-1.391,3.478c-1.621,0-3.249,0-4.869,0
					c-2.018-2.087-0.133-4.348-3.479-5.565c-6.573,13.787-2.581,37.278,11.13,39.65
					C234.312,142.082,245.352,144.308,249.699,139.842z"/>
				<path fill="#F5F5F5" d="M212.129,41.23c-0.229-0.369-0.48-0.724-0.737-1.071c0.257,0.292,0.5,0.591,0.744,0.904
					C212.136,41.119,212.129,41.175,212.129,41.23z"/>
				<path fill="#0A0A0A" d="M115.444,25.064c-13.885,1.009-27.895-3.318-36.172,4.174C72.03,44.298,66.055,66.314,66.055,87.67
					c0,4.556-0.007,9.21-0.035,13.913c-0.459-9.113-1.204-18.024,0.035-26.434C68.162,60.847,71,37.676,78.576,29.238
					c7.29-8.111,23.22-3.875,36.868-4.869c11.721-0.855,23.895-4.438,36.172-2.087c4.473,0.855,8.646,3.624,13.217,4.869
					c11.631,3.158,23.749,1.913,34.086,4.87c5.836,1.669,9.731,4.438,12.458,8.118c-9.23-10.462-28.576-7.415-46.544-12.292
					c-6.573-1.788-10.928-4.946-19.478-5.565C135.902,21.6,125.725,24.313,115.444,25.064z"/>
				<path fill="#F5F5F5" d="M210.049,64.019c0.473,0.348,0.827,0.814,1.113,1.356c-0.634-0.772-1.309-1.502-2.031-2.177
					C209.457,63.449,209.764,63.727,210.049,64.019z"/>
				<path fill="#0A0A0A" d="M211.439,133.582c-1.606-3.986-1.62-7.944-1.419-12.403c1.26,10.761,6.581,20.827,16.027,22.837
					c12.5,2.657,24.431-0.202,31.303-7.652c-0.277-11.109-1.579-21.418-5.912-29.112c5.523,7.45,8.618,17.62,6.608,29.112
					C249.595,148.669,217.499,148.628,211.439,133.582z"/>
				<path fill="#F5F5F5" d="M210.021,121.179c-0.438-3.826-0.368-7.735,0.216-11.401
					C210.459,114.027,210.174,117.749,210.021,121.179z"/>
				<path fill="#F5F5F5" d="M247.125,101.534c8.432,7.596,14.059,20.138,11.617,34.83c-8.424,13.182-41.682,13.21-47.998-2.782
					c-2.956-7.492-0.376-15.199-1.392-26.434c6.901-14.532,20.556-16.215,31.846-9.878c-1.787-0.863-3.756-1.454-5.808-1.795
					c-9.621-2.977-19.805,0.007-25.342,11.673c0.09,0.897,0.153,1.773,0.188,2.629c-0.584,3.666-0.653,7.575-0.216,11.401
					c-0.201,4.458-0.188,8.417,1.419,12.403c6.06,15.046,38.155,15.088,46.607,2.782c2.01-11.492-1.085-21.662-6.608-29.112
					C250.249,105.13,248.822,103.21,247.125,101.534z"/>
				<path fill="#EB6E3B" d="M215.613,72.367c-1.328-2.483-2.74-4.897-4.451-6.991c-0.286-0.542-0.641-1.009-1.113-1.356
					c-0.285-0.292-0.592-0.57-0.918-0.821l-0.008-0.007c-2.698-2.511-6.135-4.292-10.9-4.737c0.425-0.042,0.821-0.104,0.696-0.696
					c1.391,0,2.782,0,4.174,0C209.263,60.631,214.994,63.942,215.613,72.367z"/>
				<path fill="#F5F5F5" d="M206.48,158.61c-0.153,0.285-0.355,0.521-0.605,0.709c-0.243,0.042-0.473,0.077-0.703,0.111
					C205.659,159.271,206.098,159.014,206.48,158.61z"/>
				<path fill="#F5F5F5" d="M204.63,156.787c-0.042,0.146-0.091,0.293-0.146,0.445c-0.049-0.007-0.09-0.021-0.139-0.034
					C204.442,157.059,204.539,156.92,204.63,156.787z"/>
				<path fill="#0A0A0A" d="M202.744,159.493c0.717,0.07,1.517,0.056,2.428-0.062C204.463,159.653,203.642,159.653,202.744,159.493z
					"/>
				<path fill="#0A0A0A" d="M203.093,57.758c15.102-2.803,24.145,5.322,32.631,11.805c-0.181-0.021-0.396-0.014-0.633,0.021
					C226.291,63.776,219.183,56.277,203.093,57.758z"/>
				<path fill="#F5F5F5" d="M203.134,75.921c-0.007,0.202-0.021,0.41-0.041,0.619c-0.091-0.077-0.174-0.16-0.251-0.244
					C202.953,76.179,203.051,76.053,203.134,75.921z"/>
				<path fill="#F5F5F5" d="M201.701,77.236c-1.036-3.367-1.134-7.672-3.479-9.739c-2.497-0.577-3.366,1.565-4.869,0
					c0.209-0.487,0.438-0.897,0.695-1.245c0.008,2.88,2.136-0.438,4.174,0.55c3.068,1.642,2.345,7.067,4.619,9.495
					C202.543,76.652,202.16,76.965,201.701,77.236z"/>
				<path fill="#F5F5F5" d="M202.73,159.493c-1.058-0.111-1.934-0.396-2.713-0.779C200.978,159.062,201.889,159.348,202.73,159.493z
					"/>
				<path fill="#EB6E3B" d="M198.223,66.802c-2.038-0.988-4.166,2.33-4.174-0.55c0.049-0.069,0.104-0.139,0.16-0.202
					c5.906-2.136,9.294,3.43,8.925,9.871c-0.083,0.132-0.181,0.257-0.292,0.375C200.567,73.869,201.291,68.443,198.223,66.802z"/>
				<path fill="#F5F5F5" d="M209.916,148.391c-4.959-1.127-9.425-2.775-12.952-4.939
					C200.525,145.483,204.998,147.146,209.916,148.391z"/>
				<path fill="#F5F5F5" d="M203.134,75.921c0.369-6.441-3.019-12.007-8.925-9.871C198.119,61.257,206.39,71.149,203.134,75.921z"/>
				<path fill="#FFFFFF" d="M241.198,97.27c-11.29-6.337-24.944-4.654-31.846,9.878c1.016,11.234-1.564,18.941,1.392,26.434
					c6.316,15.992,39.574,15.964,47.998,2.782c2.441-14.691-3.186-27.233-11.617-34.83c-1.294-1.294-2.747-2.442-4.382-3.43
					C242.249,97.806,241.734,97.527,241.198,97.27z M196.832,119.669c1.405-3.909-5.913-4.619-11.13-4.174
					c-0.988-4.577-5.663-5.467-6.261-10.434c2.936-2.859,3.771-7.819,7.651-9.739c-0.813-1.037-2.894-0.821-2.782-2.783
					c1.078-10.58-3.909-15.109-6.261-22.26c1.607,0.216,0.772-2.01,2.087-2.087c3.067-0.056,5.982,0.049,6.956,2.087
					c0,3.249,0,6.49,0,9.739c7.04,7.568,17.001,12.215,25.738,18.086c0.473-5.182-6.372-6.963-10.435-9.739
					c-3.958-2.713-8.577-5.133-11.672-8.167c-0.32-0.563-0.605-1.162-0.849-1.802c0-3.172,0-6.337,0-9.509
					c-1.454-2.024-4.786-2.17-6.261-4.174c4.034-5.342,18.629-7.04,25.508-1.523l0.008,0.007c0.723,0.675,1.397,1.405,2.031,2.177
					c1.391,2.657,1.015,7.075,4.451,7.687c1.142-6.553-4.069-12.563-9.738-14.608c13.718-0.605,23.227,6.282,27.825,12.521
					c0.528,1.788,1.69,2.949,3.478,3.478c0,0.229,0,0.466,0,0.695c1.621,0,3.249,0,4.869,0
					c12.194,14.817,20.424,33.599,20.849,60.186c-0.133,0.988-0.327,1.934-0.619,2.831c-7.221,11.221-33.272,14.532-52.263,10.247
					c-0.034-0.007-0.062-0.014-0.098-0.021c-4.918-1.245-9.391-2.908-12.952-4.939c-0.035-0.021-0.069-0.042-0.104-0.062
					c-0.751-0.459-1.454-0.953-2.114-1.461c-7.02-5.446-4.459-14.921-8.348-23.651C190.919,117.7,193.618,118.938,196.832,119.669z
					 M198.223,67.497c2.345,2.066,2.442,6.372,3.479,9.739c0.459-0.271,0.842-0.584,1.141-0.939c0.077,0.083,0.16,0.167,0.251,0.244
					c0.021-0.209,0.034-0.417,0.041-0.619c3.256-4.772-5.015-14.664-8.925-9.871c-0.056,0.014-0.104,0.035-0.16,0.056
					c0,0.049,0,0.098,0,0.146c-0.257,0.348-0.486,0.758-0.695,1.245C194.856,69.062,195.726,66.92,198.223,67.497z"/>
				<path fill="#F5F5F5" d="M194.209,66.05c-0.056,0.062-0.111,0.132-0.16,0.202c0-0.048,0-0.097,0-0.146
					C194.104,66.085,194.153,66.064,194.209,66.05z"/>
				<path fill="#0A0A0A" d="M188.734,155.139c0.14-0.236,0.285-0.466,0.445-0.688c5.982-0.96,7.472,2.581,10.817,4.25
					C196.429,157.393,192.248,155.118,188.734,155.139z"/>
				<path fill="#F5F5F5" d="M190.725,80.199c-0.3-0.278-0.585-0.577-0.849-0.876c0-0.306,0-0.619,0-0.925
					C190.119,79.038,190.404,79.636,190.725,80.199z"/>
				<path fill="#EB6E3B" d="M190.725,80.199c4.736,8.369,17.418,8.793,22.106,17.21c-8.556-5.356-17.259-10.567-25.042-16.695
					c0-3.478,0-6.956,0-10.434c-1.1-2.609-4.48-2.942-8.348-2.783c0-0.695,0.563-0.828,0.695-1.391c0.229,0,0.466,0,0.695,0
					s0.467,0,0.696,0c3.582-0.104,5.579,1.377,7.651,2.783c-0.563,3.965-0.236,7.04,0.696,9.509c0,0.306,0,0.619,0,0.925
					C190.14,79.622,190.425,79.921,190.725,80.199z"/>
				<path fill="#0A0A0A" d="M185.006,117.582c0.229,0,0.467,0,0.696,0c1.189,5.997,3.422,10.949,3.478,18.086
					c1.169,2.956,3.909,5.551,7.68,7.721c0.035,0.021,0.069,0.042,0.104,0.062c3.527,2.164,7.993,3.812,12.952,4.939
					c0.035,0.007,0.063,0.014,0.098,0.021c9.739,2.449,21.237,3.234,30.983,1.99c-20.556,3.61-47.47-1.377-52.513-15.429
					C186.244,128.726,187.879,124.197,185.006,117.582z"/>
				<path fill="#F5F5F5" d="M181.528,66.106c2.323-4.841,9.363-6.122,16.694-7.652c4.766,0.445,8.202,2.226,10.9,4.737
					c-6.879-5.517-21.474-3.819-25.508,1.523c1.475,2.003,4.807,2.149,6.261,4.174c0,3.172,0,6.337,0,9.509
					c-0.933-2.469-1.26-5.544-0.696-9.509C187.107,67.483,185.11,66.001,181.528,66.106z"/>
				<path fill="#F5F5F5" d="M188.484,155.146c0.083-0.007,0.167-0.007,0.25-0.007c-0.111,0.174-0.215,0.354-0.299,0.536
					C188.449,155.501,188.471,155.326,188.484,155.146z"/>
				<path fill="#F5F5F5" d="M179.441,105.061c0.598,4.967,5.272,5.857,6.261,10.434c5.217-0.445,12.535,0.265,11.13,4.174
					c-3.214-0.73-5.913-1.969-10.435-1.391c3.889,8.73,1.328,18.205,8.348,23.651c0.66,0.508,1.363,1.002,2.114,1.461
					c-3.771-2.17-6.511-4.765-7.68-7.721c-0.056-7.137-2.288-12.09-3.478-18.086c4.646-1.155,8.827,1.809,11.13,0.696
					c-2.205-2.428-7.096-2.177-11.826-2.087c-0.675-5.127-5.606-5.989-6.261-11.13c1.955-2.685,4.265-5.009,4.87-9.043
					c1.099-0.056,2.65,0.334,2.782-0.695c-0.619-0.542-1.572-0.751-2.782-0.696c1.12-11.088-2.942-17.001-6.261-23.651
					c1.029-0.821,1.085-2.63,2.087-3.479c3.867-0.16,7.248,0.174,8.348,2.783c0,3.478,0,6.956,0,10.434
					c7.783,6.128,16.486,11.339,25.042,16.695c-4.688-8.417-17.37-8.841-22.106-17.21c3.095,3.033,7.714,5.454,11.672,8.167
					c4.062,2.776,10.907,4.557,10.435,9.739c-8.737-5.871-18.698-10.518-25.738-18.086c0-3.249,0-6.49,0-9.739
					c-0.974-2.038-3.889-2.143-6.956-2.087c-1.314,0.077-0.479,2.303-2.087,2.087c2.352,7.151,7.339,11.68,6.261,22.26
					c-0.111,1.962,1.969,1.746,2.782,2.783C183.212,97.242,182.377,102.202,179.441,105.061z"/>
				<path fill="#0A0A0A" d="M182.919,117.582c4.766,8.32,1.69,18.657,8.348,25.042c4.494,4.313,19.192,5.398,13.363,14.163
					c3.192-10.038-9.78-9.481-14.059-14.163c-5.225-5.906-4.766-17.495-8.348-25.042
					C182.453,117.582,182.689,117.582,182.919,117.582z"/>
				<path fill="#F5F5F5" d="M184.311,157.232c0.035-0.118,0.062-0.229,0.098-0.348c-0.16,0.779-0.265,1.607-0.348,2.463
					C184.067,158.596,184.13,157.887,184.311,157.232z"/>
				<path fill="#0A0A0A" d="M180.832,66.106c2.38-5.287,9.934-7.061,18.087-8.348c0.125,0.591-0.271,0.654-0.696,0.696
					c-7.331,1.53-14.371,2.811-16.694,7.652C181.299,66.106,181.062,66.106,180.832,66.106z"/>
				<path fill="#0A0A0A" d="M183.615,96.018c-0.605,4.035-2.915,6.358-4.87,9.043c0.654,5.141,5.586,6.003,6.261,11.13
					c-0.229,0-0.466,0-0.695,0c-0.96-4.605-4.946-6.184-6.261-10.435c1.308-3.562,4.452-5.287,4.869-9.739
					C183.148,96.018,183.386,96.018,183.615,96.018z"/>
				<path fill="#F5F5F5" d="M182.919,186.449c0.049-0.062,0.098-0.126,0.133-0.188c-0.049,0.236-0.104,0.474-0.167,0.71
					C182.898,186.797,182.912,186.623,182.919,186.449z"/>
				<path fill="#EB6E3B" d="M185.006,116.191c4.73-0.09,9.621-0.341,11.826,2.087c-2.303,1.113-6.483-1.851-11.13-0.696
					c-0.229,0-0.467,0-0.696,0c-0.695,0-1.391,0-2.087,0c-0.229,0-0.466,0-0.695,0c0-0.229,0-0.466,0-0.695
					c0.425-0.042,0.821-0.104,0.695-0.696c0.467,0,0.926,0,1.392,0C184.54,116.191,184.776,116.191,185.006,116.191z"/>
				<path fill="#EB6E3B" d="M182.919,96.018c-0.466,0-0.925,0-1.391,0c0-0.695,0.563-0.828,0.695-1.391c0.229,0,0.466,0,0.695,0
					s0.467,0,0.696,0c1.21-0.056,2.163,0.153,2.782,0.696c-0.132,1.029-1.684,0.64-2.782,0.695
					C183.386,96.018,183.148,96.018,182.919,96.018z"/>
				<path fill="#F5F5F5" d="M182.961,59.602c-0.793,0.445-1.544,0.918-2.247,1.412c0.042-0.153,0.084-0.313,0.118-0.473
					C181.507,60.221,182.217,59.901,182.961,59.602z"/>
				<path fill="#0A0A0A" d="M176.659,70.976c1.488-1.294,1.259-4.306,3.478-4.87c-0.132,0.563-0.695,0.696-0.695,1.391
					c-1.002,0.849-1.058,2.657-2.087,3.479c3.318,6.65,7.381,12.562,6.261,23.651c-0.229,0-0.467,0-0.696,0
					C184.039,83.538,179.977,77.625,176.659,70.976z"/>
				<path fill="#F5F5F5" d="M180.714,61.014c-0.918,3.137-4.118,5.015-6.142,8.57c-1.378-1.746-2.929-3.283-4.605-4.667
					c1.753,1.155,3.52,2.254,5.301,3.276C175.769,65.515,177.765,63.08,180.714,61.014z"/>
				<path fill="#F5F5F5" d="M173.987,162.206c1.238-2.873,2.274-5.509,3.367-7.756c0.383-0.786,0.96-1.356,1.488-1.92
					C177.883,155.724,175.977,158.944,173.987,162.206z"/>
				<path fill="#0A0A0A" d="M173.876,77.932c-1.335-1.419-0.57-4.466-0.041-6.135c0.25,0.194,0.493,0.382,0.737,0.57
					c-0.96,0.897-0.689,3.019-0.696,4.869c2.268,0.348,1.475-3.457,3.479-1.391c3.255,4.626,3.985,11.777,4.869,18.782
					c-0.132,0.563-0.695,0.696-0.695,1.391c-3.833,7.416-8.702,13.718-14.644,18.873c6.011-5.496,10.546-13.015,13.947-18.177
					c0.48-9.057-0.626-16.535-4.869-20.869C176.381,77.653,175.685,78.349,173.876,77.932z"/>
				<path fill="#F5F5F5" d="M173.835,71.796c-2.018-1.572-4.14-3.263-6.372-5.009c2.268,1.69,4.41,3.339,6.413,4.883
					C173.862,71.713,173.849,71.754,173.835,71.796z"/>
				<path fill="#F5F5F5" d="M171.963,126.736c0.153-0.021,0.327-0.056,0.522-0.111c0.508,0.779,0.994,1.544,1.46,2.303
					C173.299,128.148,172.631,127.418,171.963,126.736z"/>
				<path fill="#0A0A0A" d="M170.398,125.234c0.521,0.466,1.043,0.967,1.564,1.502c-1.433,0.174-1.446-1.064-2.956-0.807
					c4.835,6.664,12.222,15.457,11.13,24.347c-0.118,0.953-0.675,1.6-1.294,2.254c0.299-0.988,0.508-1.969,0.599-2.95
					c0.807-8.834-6.838-16.98-11.13-24.347C169.007,125.234,169.702,125.234,170.398,125.234z"/>
				<path fill="#0A0A0A" d="M174.572,221.926c0.925-13.217,6.239-22.045,6.956-35.477c5.676-6.88,2.518-22.594,6.907-30.774
					c-1.029,10.956-3.096,20.882-5.384,30.586c-0.035,0.062-0.084,0.126-0.133,0.188c-0.007,0.174-0.021,0.348-0.034,0.521
					c-2.713,11.478-5.704,22.677-7.617,34.955c-1.899,2.045-4.258,3.624-5.565,6.261c4.57,2.045,5.572,9.203,0.696,11.825
					c-4.459,0.71-7.513-0.25-10.17-1.392c8.326,2.832,19.032-3.554,8.778-10.434C170.475,225.71,172.346,223.637,174.572,221.926z"
					/>
				<path fill="#F5F5F5" d="M163.122,60.228c2.421,1.412,4.737,2.936,6.845,4.688C167.686,63.421,165.417,61.842,163.122,60.228z"/>
				<path fill="#0A0A0A" d="M171.094,235.143c-0.835-4.779-4.111-2.615-4.174-6.956c-0.056-3.896,4.932-4.911,5.565-9.043
					c1.92-14.448,10.587-37.772,11.825-52.868c0.188-2.261-0.292-4.751-0.25-6.928c0.083-0.855,0.188-1.684,0.348-2.463
					c0,0,0-0.007,0.007-0.014c3.081-10.386,12.974-1.134,19.93,0.327c-0.167,0.236-0.354,0.479-0.557,0.73
					c-5.892-0.675-9.53-7.061-15.999-4.87c-3.534,2.942-2.213,7.416-2.783,13.913c-1.502,17.063-9.822,34.94-11.825,53.562
					c-2.094,2.775-5.544,4.194-5.565,9.043c0.487,2.532,4.438,1.594,4.174,4.87c-2.038,5.94-12.173,2.928-15.304,0
					c-23.136-0.926-41.188-6.936-63.148-9.029c0.174-0.237,0.355-0.474,0.542-0.71c21.564,2.316,39.713,8.056,62.606,9.043
					C159.4,236.256,167.769,239.337,171.094,235.143z"/>
				<path fill="#F5F5F5" d="M166.885,114.89c-0.215,0.215-0.438,0.41-0.66,0.605c-0.904,0.793-1.899,1.572-2.971,2.331
					C164.506,116.894,165.717,115.919,166.885,114.89z"/>
				<path fill="#0A0A0A" d="M172.485,98.104c0.604,8.709-10.894,16.82-21.565,16.695c-4.042-0.049-6.727-0.696-8.827-1.802
					c13.356,3.937,30.44-3.604,29.696-14.894c-0.264-3.965-5.697-10.365-8.751-14.232C166.183,87.782,172.158,93.458,172.485,98.104
					z"/>
				<path fill="#F5F5F5" d="M160.187,238.606c-0.668-0.229-1.329-0.521-1.955-0.876
					C158.872,238.016,159.512,238.314,160.187,238.606z"/>
				<path fill="#0A0A0A" d="M139.958,71.671c3.471-0.64,7.012-0.911,10.268-0.695c5.489,3.659,8.264,7.046,12.521,12.521
					c-3.784-4.841-8.793-9.029-12.521-11.826C146.803,71.671,143.38,71.671,139.958,71.671z"/>
				<path fill="#0A0A0A" d="M155.79,235.838c0.737,0.766,1.559,1.392,2.435,1.886c-1.043-0.467-2.066-0.897-3.13-1.189
					c-7.416-2.031-14.866-1.309-22.956-2.087c-12.424-1.204-23.888-6.831-37.375-6.957c0.16-0.243,0.333-0.473,0.508-0.695
					C115.479,229.779,133.947,234.488,155.79,235.838z"/>
				<path fill="#97D6E7" d="M155.275,78.071c-0.307-0.306-0.612-0.619-0.918-0.925C154.69,77.438,154.997,77.744,155.275,78.071z"/>
				<path fill="#F5F5F5" d="M134.414,45.592c8.319,2.566,15.818,6.685,22.601,11.276c-2.018-1.071-4.069-2.143-6.094-3.283
					C146.33,51.004,140.792,47.978,134.414,45.592z"/>
				<path fill="#0A0A0A" d="M130.052,195.492c3.047,10.17,7.548,18.886,22.26,17.391c0.801-9.635,6.672-14.198,11.13-20.174
					c2.352-14.169,9.454-22.086,14.608-33.39c5.287-11.589,2.163-20.305-4.104-30.392c4.919,5.85,9.085,14.135,8.278,21.349
					c-0.445,3.951-4.271,11.909-6.956,17.391c-4.118,8.396-10.386,13.175-11.13,25.042c-5.036,5.857-10.073,11.722-11.826,20.869
					c-15.067,1.385-19.749-7.617-22.955-18.086c2.435-4.557,6.622-7.131,10.601-9.947c2.393-1.148,4.633-2.47,6.094-4.661
					c0.445-0.661,0.835-1.405,1.168-2.198c2.421-3.673,3.638-8.702,2.31-16.584c-1.231-7.304-7.485-11.15-9.043-19.477
					c6.796,3.172,7.868,12.076,11.825,18.086c-0.716,8.229,0.988,11.791-1.391,18.086c-3.742,9.892-17.286,9.384-18.086,17.391
					c-0.612,6.136,6.42,15.311,16.695,14.608c1.419-1.363,2.073-3.492,2.087-6.261c1.815-4.285,7.297-7.749,9.739-13.217
					c1.252-2.797,0.674-6.33,2.086-9.739c1.698-4.097,4.661-8.827,6.957-13.217c1.085-2.065,2.351-4.118,3.589-6.156
					c-0.842,1.969-1.78,4.035-2.894,6.156c-2.205,4.209-5.294,9.203-6.956,13.217c-1.385,3.332-0.842,6.957-2.087,9.739
					c-2.456,5.488-7.951,8.98-9.739,13.217c-0.132,3.109-0.758,5.739-2.782,6.956c-10.434,0.584-18.03-8.932-17.391-15.304
					c0.828-8.264,14.288-7.562,18.086-17.391c2.393-6.184,0.667-10.017,1.391-18.086c-3.464-5.809-5.168-13.377-10.434-17.391
					c1.968,7.631,7.867,11.776,9.043,18.781C154.064,184.933,136.542,184.271,130.052,195.492z"/>
				<path fill="#97D6E7" d="M146.656,109.784c0.028,0.049,0.063,0.097,0.091,0.146c-0.125-0.069-0.25-0.139-0.369-0.215
					C146.469,109.743,146.559,109.771,146.656,109.784z"/>
				<path fill="#F5F5F5" d="M147.22,178.686c-0.333,0.793-0.723,1.537-1.168,2.198c-1.461,2.191-3.701,3.513-6.094,4.661
					C142.698,183.61,145.328,181.565,147.22,178.686z"/>
				<path fill="#F5F5F5" d="M142.093,112.998c-0.306-0.083-0.612-0.181-0.911-0.285c-0.077-0.132-0.153-0.265-0.237-0.396
					C141.307,112.56,141.69,112.789,142.093,112.998z"/>
				<path fill="#0A0A0A" d="M132.236,103.767c3.485,2.852,6.852,5.558,8.709,8.549C137.975,110.341,136.041,107.315,132.236,103.767
					z"/>
				<path fill="#F5F5F5" d="M139.095,71.671c0.285,0,0.577,0,0.862,0c-0.39,0.07-0.772,0.146-1.162,0.229
					C138.9,71.831,138.998,71.748,139.095,71.671z"/>
				<path fill="#0A0A0A" d="M134.226,80.714c0.737-1.551,5.322-4.834,5.565-0.695C138.121,80.52,135.582,81.987,134.226,80.714z"/>
				<path fill="#F5F5F5" d="M136.312,83.497c2.407-0.487,2.498,2.441,1.391,3.478C135.297,87.461,135.207,84.533,136.312,83.497z"/>
				<path fill="#97D6E7" d="M155.275,78.071c0.521,0.605,0.932,1.259,1.21,1.948c-2.524,0.73-11.345-4-13.912,0.695
					c-1.037-2.671-2.024-5.398-6.261-4.869c5.168-3.791,13.759-2.441,18.023,1.28c0.007,0.007,0.014,0.014,0.021,0.021
					C154.663,77.452,154.969,77.765,155.275,78.071z"/>
				<path fill="#F5F5F5" d="M172.485,126.625c-0.195,0.056-0.369,0.091-0.522,0.111c-0.521-0.536-1.043-1.036-1.564-1.502
					c-0.696,0-1.392,0-2.087,0c4.292,7.367,11.937,15.513,11.13,24.347c-0.091,0.981-0.3,1.961-0.599,2.95
					c-0.528,0.563-1.105,1.134-1.488,1.92c-1.093,2.247-2.129,4.883-3.367,7.756c-1.238,2.038-2.504,4.091-3.589,6.156
					c-2.296,4.39-5.259,9.12-6.957,13.217c-1.412,3.409-0.834,6.942-2.086,9.739c-2.442,5.468-7.924,8.932-9.739,13.217
					c-0.014,2.769-0.668,4.897-2.087,6.261c-10.274,0.702-17.307-8.473-16.695-14.608c0.8-8.007,14.344-7.499,18.086-17.391
					c2.379-6.295,0.675-9.856,1.391-18.086c-3.958-6.011-5.029-14.915-11.825-18.086c1.558,8.327,7.812,12.173,9.043,19.477
					c1.329,7.882,0.111,12.911-2.31,16.584c2.157-5.036,2.337-12.284,1.614-16.584c-1.273-7.547-9.44-13.133-8.348-20.173
					c7.255,3.179,8.389,12.479,12.521,18.782c-0.682,8.368,0.925,11.798-1.392,18.086c-3.61,9.78-16.799,9.711-18.086,16.695
					c-1.134,6.143,5.767,15.081,15.304,14.607c1.029-6.685,8.604-11.567,11.825-18.781c1.259-2.817,0.696-6.393,2.087-9.739
					c1.67-4.034,4.737-8.974,6.956-13.217c2.699-5.161,4.403-10.079,6.261-13.912c0.779-1.606,2.567-2.407,2.782-4.174
					c1.127-9.203-6.858-17.516-11.13-25.042c0.619-0.542,1.572-0.751,2.783-0.695c6.58,5.6,13.571,16.389,12.521,25.738
					c-0.479,4.271-4.326,12.027-6.956,17.391c-4.056,8.278-10.511,13.537-11.13,25.042c-5.6,5.76-9.822,12.904-12.521,21.564
					c-15.408,1.267-20.27-8.021-23.651-18.781c1.419-6.129,6.664-7.722,11.297-9.947c-3.979,2.816-8.167,5.391-10.601,9.947
					c3.207,10.469,7.888,19.471,22.955,18.086c1.753-9.147,6.79-15.012,11.826-20.869c0.744-11.867,7.012-16.646,11.13-25.042
					c2.685-5.481,6.511-13.439,6.956-17.391c0.807-7.213-3.359-15.499-8.278-21.349
					C173.479,128.169,172.993,127.404,172.485,126.625z"/>
				<path d="M152.312,212.883c-14.712,1.495-19.213-7.221-22.26-17.391c6.49-11.221,24.013-10.56,20.173-33.391
					c-1.176-7.005-7.075-11.15-9.043-18.781c5.266,4.014,6.97,11.582,10.434,17.391c-0.724,8.069,1.002,11.902-1.391,18.086
					c-3.798,9.829-17.258,9.127-18.086,17.391c-0.64,6.372,6.957,15.888,17.391,15.304c2.024-1.217,2.65-3.847,2.782-6.956
					c1.788-4.236,7.283-7.729,9.739-13.217c1.245-2.782,0.702-6.407,2.087-9.739c1.662-4.014,4.751-9.008,6.956-13.217
					c1.113-2.121,2.052-4.188,2.894-6.156c1.989-3.262,3.896-6.482,4.855-9.676c0.619-0.654,1.176-1.301,1.294-2.254
					c1.092-8.89-6.295-17.683-11.13-24.347c1.51-0.257,1.523,0.981,2.956,0.807c0.668,0.682,1.336,1.412,1.982,2.191
					c6.268,10.086,9.392,18.803,4.104,30.392c-5.154,11.304-12.257,19.221-14.608,33.39
					C158.983,198.685,153.112,203.248,152.312,212.883z"/>
				<path d="M137.704,86.975c1.106-1.037,1.016-3.965-1.391-3.478C135.207,84.533,135.297,87.461,137.704,86.975z M129.356,82.105
					c-0.39,1.558-2.352,4.584,0,4.869C131.241,86.696,132.98,81.938,129.356,82.105z M171.789,98.104
					c0.744,11.29-16.34,18.831-29.696,14.894c-0.403-0.209-0.786-0.438-1.148-0.682c-1.857-2.991-5.224-5.697-8.709-8.549
					c-0.028-0.035-0.062-0.07-0.098-0.098c-1.106-1.022-2.344-2.017-3.603-3.04c-5.259-4.696-9.551-10.107-7.527-17.829
					c1.83-6.977,12.014-6.497,17.787-10.9c0.39-0.083,0.772-0.16,1.162-0.229c3.422,0,6.845,0,10.268,0
					c3.728,2.796,8.737,6.984,12.521,11.826c0.098,0.125,0.195,0.244,0.292,0.375C166.092,87.74,171.525,94.14,171.789,98.104z
					 M139.791,80.019c-0.243-4.139-4.828-0.856-5.565,0.695C135.582,81.987,138.121,80.52,139.791,80.019z M150.225,73.062
					c-12.396,0.334-26.733,3.276-27.825,12.521c-1.008,8.549,7.179,13.676,11.826,18.086c3.2,3.04,5.885,7.45,9.043,6.957
					c-2.525-4.438-9.266-8.348-9.043-13.217c4.257,3.353,7.437,10.845,12.153,12.306c0.118,0.076,0.243,0.146,0.369,0.215
					c-0.028-0.049-0.063-0.097-0.091-0.146c0.258,0.069,0.515,0.118,0.786,0.146c-3.673-6.066-9.356-10.121-8.347-20.869
					c-4.542-3.124-8.167,0.146-13.217-1.391c0.327-3.868,2.024-8.431,6.26-6.261c0.661-3.047,2.72-4.702,6.261-4.869
					c3.144-0.132,2.038,3.986,4.174,4.869c4.897-6.407,15.366,2.942,17.391,1.391c-1.579-1.558-3.131-3.151-4.688-4.73
					c-0.278-0.327-0.585-0.633-0.918-0.925c-0.008-0.007-0.015-0.014-0.021-0.021C152.986,75.754,151.623,74.391,150.225,73.062z"/>
				<path fill="#F5F5F5" d="M132.139,103.669c0.035,0.028,0.07,0.063,0.098,0.098c-1.238-1.022-2.498-2.059-3.701-3.137
					C129.794,101.652,131.033,102.647,132.139,103.669z"/>
				<path fill="#0A0A0A" d="M136.312,104.365c0.223-3.262-4.821-4.89-2.782-7.652c5.6,3.019,7.499,9.739,12.848,13.001
					c-4.716-1.461-7.896-8.953-12.153-12.306c-0.223,4.869,6.518,8.779,9.043,13.217c-3.158,0.494-5.843-3.917-9.043-6.957
					c-4.646-4.41-12.834-9.537-11.826-18.086c1.092-9.245,15.429-12.188,27.825-12.521c1.398,1.329,2.761,2.692,4.111,4.062
					c-4.264-3.721-12.855-5.071-18.023-1.28c4.236-0.529,5.224,2.198,6.261,4.869c2.567-4.695,11.388,0.035,13.912-0.695
					c-0.278-0.689-0.688-1.343-1.21-1.948c1.558,1.579,3.109,3.172,4.688,4.73c-2.024,1.551-12.494-7.798-17.391-1.391
					c-2.136-0.883-1.03-5.001-4.174-4.869c-3.541,0.167-5.6,1.822-6.261,4.869c-4.236-2.17-5.934,2.393-6.26,6.261
					c5.05,1.537,8.674-1.732,13.217,1.391c-1.009,10.748,4.674,14.803,8.347,20.869c-0.271-0.028-0.528-0.077-0.786-0.146
					c-3.673-5.982-9.258-10.059-8.257-20.723c-4.786-2.623-9.154,1.955-13.217-1.391c0.424-4.16,2.428-9.057,6.956-6.957
					c-1.572-3.019,4.897-3.652,1.392-4.173C115.02,80.457,126.407,99.315,136.312,104.365z"/>
				<path fill="#0A0A0A" d="M120.313,82.801c1.204-4.709,9.468-9.022,18.483-10.9c-5.773,4.403-15.958,3.923-17.787,10.9
					c-2.024,7.722,2.268,13.133,7.527,17.829C123.416,96.47,118.004,91.844,120.313,82.801z"/>
				<path fill="#F5F5F5" d="M129.356,82.105c3.624-0.167,1.885,4.591,0,4.869C127.005,86.689,128.967,83.664,129.356,82.105z"/>
				<path fill="#97D6E7" d="M132.139,80.714c-4.528-2.101-6.532,2.796-6.956,6.957c4.062,3.346,8.431-1.231,13.217,1.391
					c-1.001,10.664,4.584,14.74,8.257,20.723c-0.097-0.014-0.188-0.042-0.278-0.069c-5.35-3.263-7.249-9.982-12.848-13.001
					c-2.039,2.762,3.005,4.39,2.782,7.652c-9.906-5.05-21.293-23.909-2.782-27.825C137.036,77.062,130.567,77.695,132.139,80.714z"
					/>
				<path fill="#F5F5F5" d="M131.443,104.365c-5.746-5.433-14.546-10.56-11.826-21.564c1.746-7.067,18.1-13.335,30.607-12.521
					c5.182,3.979,9.106,7.234,13.216,12.521c3.18,4.09,9.398,10.741,9.739,15.304c0.661,8.876-11.366,17.516-22.26,17.391
					C140.111,115.37,138.128,110.682,131.443,104.365z M138.796,71.9c-9.015,1.878-17.279,6.191-18.483,10.9
					c-2.309,9.043,3.103,13.669,8.223,17.829c1.203,1.078,2.462,2.115,3.701,3.137c3.805,3.548,5.739,6.574,8.709,8.549
					c0.083,0.132,0.16,0.264,0.237,0.396c0.299,0.104,0.605,0.202,0.911,0.285c2.101,1.106,4.786,1.753,8.827,1.802
					c10.671,0.125,22.169-7.986,21.565-16.695c-0.327-4.646-6.303-10.323-9.447-14.232c-0.097-0.132-0.194-0.25-0.292-0.375
					c-4.257-5.475-7.032-8.862-12.521-12.521c-3.255-0.216-6.796,0.055-10.268,0.695c-0.285,0-0.577,0-0.862,0
					C138.998,71.748,138.9,71.831,138.796,71.9z"/>
				<path fill="#97D6E7" d="M122.4,281.054c-3.005-1.329-4.194-7.638-2.782-11.13c0.695,0,1.391,0,2.087,0
					C120.543,274.584,124.897,277.374,122.4,281.054z"/>
				<path fill="#F5F5F5" d="M86.395,261.597c11.478,1.364,25.766,1.245,33.918-2.803c0,0.229,0,0.466,0,0.695
					c-8.006,3.931-22.142,4.285-33.39,2.782c-2.636,7.562-2.727,17.676-4.87,25.738c-0.229,0-0.466,0-0.695,0
					c2.066-8.159,2.407-18.037,4.73-25.946C86.186,261.903,86.283,261.75,86.395,261.597z"/>
				<path fill="#F5F5F5" d="M132.09,47.554c-9.927-2.929-20.695-3.756-31.999-0.654c0.689-0.431,1.343-0.8,2.136-0.967
					C113.434,43.554,123.276,44.667,132.09,47.554z"/>
				<path fill="#F5F5F5" d="M94.575,121.06c0.244,0.014,0.487,0.028,0.737,0.035c4.208,4.229,20.98,1.836,19.645-2.358
					c0.431-0.153,0.828-0.306,1.183-0.459C116.87,124.038,98.728,126.423,94.575,121.06z"/>
				<path fill="#F5F5F5" d="M114.957,118.737c-0.348,0.111-0.709,0.229-1.099,0.334c0.32-0.244,0.619-0.508,0.89-0.793
					C114.846,118.431,114.915,118.584,114.957,118.737z"/>
				<path fill="#EB6E3B" d="M95.312,121.095c0.09,0.007,0.181,0.014,0.271,0.014c6.553,0.988,14.177,1.134,18.274-2.038
					c0.39-0.104,0.751-0.223,1.099-0.334C116.292,122.932,99.521,125.324,95.312,121.095z"/>
				<path fill="#F5F5F5" d="M116.14,53.585c-3.214,0.195-3.75-2.282-4.87-4.174c-3.381-0.696-6.65,1.189-8.347,0
					c0.194-0.473,0.431-0.884,0.709-1.238c0.369,2.428,5.308-0.55,8.333,0.542c0.069,2.059,2.282,5.551,4.174,3.478
					c-1.753-3.401-6.775-6.754-12.306-4.264C107.785,43.457,118.164,49.404,116.14,53.585z"/>
				<path fill="#EB6E3B" d="M103.834,47.929c5.53-2.49,10.553,0.863,12.306,4.264c-1.892,2.073-4.104-1.419-4.174-3.478
					c-3.026-1.092-7.965,1.885-8.333-0.542C103.688,48.089,103.757,48.006,103.834,47.929z"/>
				<path fill="#97D6E7" d="M109.183,246.968c0.111-3.818-6.525-0.897-8.347-2.782c0-0.229,0-0.466,0-0.695
					c8.66-3.729,18.524-0.202,22.956,2.782c-1.183,5.677,0.202,12.174-0.696,16.695c-2.915,0.827-1.245-2.929-2.783-3.479
					c0-0.229,0-0.466,0-0.695c1.468-8.828-3.68-17.53-10.434-11.826C109.649,246.968,109.413,246.968,109.183,246.968z"/>
				<path fill="#EB6E3B" d="M84.141,89.757c6.414-0.633,20.062-8.299,22.956-1.392C101.74,84.074,93.379,91.343,84.141,89.757z"/>
				<path fill="#F5F5F5" d="M106.401,74.454c-0.111,0.076-0.223,0.139-0.341,0.188c-0.049-0.153-0.104-0.306-0.167-0.452
					C106.053,74.28,106.227,74.37,106.401,74.454z"/>
				<path fill="#F5F5F5" d="M85.532,70.976c1.551-3.785,7.13-3.534,10.434-5.565c2.901,2.692,6.692,10.769,10.094,9.231
					c0.139,0.396,0.25,0.8,0.341,1.204c-7.026-0.313-6.817-11.547-15.304-8.348C88.892,68.332,87.285,70.488,85.532,70.976z"/>
				<path fill="#F5F5F5" d="M103.618,48.02c0.07-0.035,0.146-0.07,0.216-0.091c-0.077,0.077-0.146,0.16-0.202,0.244
					C103.625,48.124,103.625,48.075,103.618,48.02z"/>
				<path fill="#F5F5F5" d="M95.584,121.109c5.899,0.229,13.592-0.682,18.274-2.038C109.761,122.243,102.137,122.097,95.584,121.109
					z"/>
				<path fill="#F5F5F5" d="M84.141,89.757c9.238,1.586,17.6-5.684,22.956-1.392C104.203,81.458,90.554,89.124,84.141,89.757z
					 M83.445,89.757c0.647-3.005,3.624-1.523,6.26-2.087c7.172-1.538,18.991-6.685,17.391,1.391
					C101.761,84.45,91.82,93.152,83.445,89.757z"/>
				<path fill="#F5F5F5" d="M97.998,65.542c3.499,1.815,6.553,5.168,7.896,8.646C102.373,72.2,101.121,67.936,97.998,65.542z"/>
				<path fill="#F5F5F5" d="M95.966,228.187c-3.061,5.099-3.36,15.846,4.87,15.304c0,0.229,0,0.466,0,0.695
					c-8.619-0.091-8.118-8.96-6.386-16.18c0.104-0.182,0.209-0.349,0.313-0.516c13.488,0.126,24.952,5.753,37.375,6.957
					c8.09,0.778,15.541,0.056,22.956,2.087c1.063,0.292,2.087,0.723,3.13,1.189c0.007,0.007,0.007,0.007,0.007,0.007
					c0.626,0.354,1.287,0.646,1.955,0.876c0.014,0,0.027,0.007,0.042,0.014c2.657,1.142,5.711,2.102,10.17,1.392
					c4.876-2.622,3.874-9.78-0.696-11.825c1.308-2.637,3.666-4.216,5.565-6.261c1.913-12.278,4.904-23.478,7.617-34.955
					c-0.821,13.141-6.011,21.912-6.922,34.955c-1.154,2.323-4.181,2.775-4.869,5.564c1.934,2.728,6.003,8.438,0,13.217
					c-6.678,1.663-10.698-2.156-15.304-3.478c-7.123-2.038-15.116-1.314-22.956-2.087
					C120.925,233.967,109.844,229.056,95.966,228.187z"/>
				<path fill="#F5F5F5" d="M163.198,117.867c-15.63,11.054-47.845,18.219-67.232,8.062c-3.36-4.612-8.438-8.918-12.611-14.239
					c4.507,4.834,10.135,8.869,12.611,13.543c20.695,10.866,56.207,1.906,70.258-10.434c6.107-5.363,10.476-13.05,13.912-18.086
					c0.348-7.304-0.209-13.704-2.782-18.086c-0.988-1.169-3.771,0.883-4.869-1.392c-0.73-2.908,1.468-4.716,0-6.26
					c-11.276-6.616-24.055-18.073-40.395-23.422c13.578,4.014,25.591,11.951,35.247,19.137c0.042,0.035,0.084,0.069,0.126,0.097
					c2.232,1.746,4.354,3.437,6.372,5.009c-0.529,1.669-1.294,4.716,0.041,6.135c1.809,0.417,2.505-0.278,2.087-2.087
					c4.243,4.333,5.35,11.812,4.869,20.869c-3.401,5.162-7.937,12.681-13.947,18.177c-1.168,1.029-2.379,2.003-3.631,2.936
					C163.233,117.839,163.22,117.854,163.198,117.867z"/>
				<path fill="#F5F5F5" d="M95.271,121.06c0.104,0.014,0.208,0.035,0.313,0.049c-0.091,0-0.181-0.007-0.271-0.014
					C95.299,121.088,95.285,121.074,95.271,121.06z"/>
				<path fill="#F5F5F5" d="M94.575,64.019c1.384,0.265,2.49,0.814,3.422,1.523c-1.21-0.626-2.469-1.071-3.729-1.273
					C94.38,64.193,94.485,64.109,94.575,64.019z"/>
				<path d="M181.528,186.449c-0.717,13.432-6.031,22.26-6.956,35.477c-2.227,1.711-4.098,3.784-5.565,6.261
					c10.254,6.88-0.452,13.266-8.778,10.434c-0.015-0.007-0.028-0.014-0.042-0.014c-0.675-0.292-1.314-0.591-1.955-0.876
					c0,0,0,0-0.007-0.007c-0.876-0.494-1.697-1.12-2.435-1.886c-21.843-1.35-40.312-6.059-60.519-9.043
					c-0.174,0.223-0.348,0.452-0.508,0.695c-0.063,0-0.125,0-0.188,0c-0.042,0.174-0.083,0.341-0.125,0.516
					c-2.817,4.918-2.469,13.634,2.212,16.18c2.156-0.069,3.861,0.313,4.869,1.392c2.553-0.418,9.53,0.515,3.478,0.695
					c-13.752,2.63-16.083-10.546-12.11-20.201c0.139-0.223,0.285-0.438,0.438-0.653c21.961,2.094,40.012,8.104,63.148,9.029
					c3.131,2.928,13.266,5.94,15.304,0c0.265-3.276-3.687-2.338-4.174-4.87c0.021-4.849,3.472-6.268,5.565-9.043
					c2.003-18.622,10.323-36.499,11.825-53.562c0.57-6.497-0.751-10.971,2.783-13.913c6.469-2.191,10.107,4.195,15.999,4.87
					c0.202-0.251,0.39-0.494,0.557-0.73c0.049,0.014,0.09,0.027,0.139,0.034c0.056-0.152,0.104-0.299,0.146-0.445
					c5.829-8.765-8.869-9.85-13.363-14.163c-6.657-6.386-3.582-16.723-8.348-25.042c0.696,0,1.392,0,2.087,0
					c2.873,6.615,1.238,11.144,3.479,17.391c5.043,14.052,31.957,19.039,52.513,15.429c6.246-0.793,11.776-2.428,15.658-4.995
					c0.946-0.626,1.774-1.301,2.483-2.011c2.365-1.815,4.153-3.93,5.169-6.337c0.111-28.402-9.225-47.351-21.564-63.302
					c0.229,0,0.466,0,0.695,0c2.873,1.739,6.74,7.993,9.739,12.521c3.825,5.78,8.702,17.55,11.317,29.216
					c0.96,5.259,1.572,10.866,1.802,16.855c-0.084,1.669-0.278,3.249-0.599,4.709c-3.86,17.641-37.243,17.286-57.041,13.217
					c-2.372,1.134-0.932,6.08-2.177,8.334c-0.383,0.403-0.821,0.66-1.309,0.82c-0.911,0.118-1.711,0.133-2.428,0.062
					c-0.007,0-0.007,0-0.014,0c-0.842-0.146-1.753-0.431-2.713-0.779c-0.007-0.007-0.014-0.007-0.021-0.014
					c-3.346-1.669-4.835-5.21-10.817-4.25c-0.16,0.223-0.306,0.452-0.445,0.688c-0.083,0-0.167,0-0.25,0.007
					c-0.014,0.181-0.035,0.355-0.049,0.529C184.046,163.855,187.204,179.569,181.528,186.449z"/>
				<path fill="#0A0A0A" d="M95.966,125.93c19.387,10.156,51.602,2.991,67.232-8.062c-8.758,6.477-19.554,10.81-32.451,12.932
					c-13.822,2.275-25.021,0.042-34.781-4.174c-4.695-7.228-14.497-13.307-18.782-22.26c-1.934-4.042-4.758-10.657-5.565-15.304
					c-3.743-21.522,12.945-27.644,23.651-38.259c-2.011-2.525-2.686,4.73-4.174,0.696c3.207-2.477,6.546-6.01,11.826-6.957
					c27.908-5.008,48.798,9.913,64.414,22.149c-9.655-7.186-21.668-15.123-35.247-19.137c-8.814-2.887-18.657-4-29.863-1.621
					c-0.793,0.167-1.447,0.536-2.136,0.967c-1.822,0.501-3.666,1.099-5.516,1.815c-0.522,2.143,2.4,0.849,1.391,3.478
					c-11.93,8.709-27.713,16.528-23.651,37.564c0.563,2.908,3.826,6.803,4.869,10.434c0.139,0.473,0.285,0.946,0.445,1.405
					c0.243,1.315,0.494,2.539,0.946,3.464c1.183,2.42,2.887,4.598,4.779,6.629C87.528,117.012,92.606,121.317,95.966,125.93z"/>
				<path fill="#F5F5F5" d="M94.575,227.49c0.062,0,0.125,0,0.188,0c-0.104,0.167-0.209,0.334-0.313,0.516
					C94.492,227.831,94.533,227.664,94.575,227.49z"/>
				<path fill="#F5F5F5" d="M95.966,52.193c1.009-2.629-1.913-1.335-1.391-3.478c1.85-0.716,3.694-1.314,5.516-1.815
					c-0.96,0.598-1.961,1.329-3.429,1.815c-1.802,0.591,1.335,3.054-0.696,4.174c-11.826,8.445-26.935,16.243-22.956,36.868
					c0.396,2.073,2.449,4.32,3.478,6.956c0.584,1.51,0.856,3.263,1.141,4.883c-0.16-0.459-0.306-0.932-0.445-1.405
					c-1.043-3.631-4.306-7.526-4.869-10.434C68.253,68.722,84.037,60.903,95.966,52.193z"/>
				<path fill="#0A0A0A" d="M100.836,244.186c1.822,1.885,8.458-1.036,8.347,2.782c-16.368,4.438-22.851-10.72-16.284-20.896
					c-3.972,9.655-1.642,22.831,12.11,20.201c6.052-0.181-0.925-1.113-3.478-0.695c-1.008-1.078-2.713-1.461-4.869-1.392
					c-4.682-2.546-5.029-11.262-2.212-16.18C92.718,235.226,92.217,244.095,100.836,244.186z"/>
				<path fill="#F5F5F5" d="M93.184,225.403c0.048,0.008,0.104,0.008,0.153,0.015c-0.153,0.216-0.299,0.431-0.438,0.653
					C92.989,225.849,93.086,225.626,93.184,225.403z"/>
				<path fill="#F5F5F5" d="M94.269,64.27c-2.824,2.128-10.748,2.226-8.737,6.706c-0.452,0.125-0.912,0.146-1.392,0
					C86.485,65.313,90.38,63.644,94.269,64.27z"/>
				<path fill="#F5F5F5" d="M166.92,228.187c0.062,4.341,3.339,2.177,4.174,6.956c-3.325,4.194-11.693,1.113-14.608-1.392
					c-22.893-0.987-41.042-6.727-62.606-9.043c-0.188,0.236-0.369,0.473-0.542,0.71c-0.049-0.007-0.104-0.007-0.153-0.015
					c-0.098,0.223-0.195,0.445-0.285,0.668c-6.567,10.177-0.083,25.335,16.284,20.896c-16.667,6.734-25.237-13.342-15.304-22.955
					c13.926-0.14,26.211,5.697,38.955,6.956c8,0.793,16.583,0.091,23.651,2.087c5.071,1.433,8.884,6.295,13.913,2.087
					c0.813-4.292-5.218-1.739-4.174-6.261c0.341-4.528,3.854-5.885,5.564-9.043c1.496-14.573,10.483-37.195,11.826-53.563
					c0.188-2.31,0.229-4.723,0.445-6.928c-0.042,2.177,0.438,4.667,0.25,6.928c-1.238,15.096-9.905,38.42-11.825,52.868
					C171.852,223.275,166.864,224.291,166.92,228.187z"/>
				<path fill="#F5F5F5" d="M86.395,261.597c-0.111,0.153-0.208,0.307-0.306,0.467c0.042-0.16,0.091-0.327,0.139-0.487
					C86.283,261.583,86.339,261.59,86.395,261.597z"/>
				<path fill="#EB6E3B" d="M95.966,65.41c-3.304,2.031-8.883,1.781-10.434,5.565c-2.011-4.48,5.913-4.578,8.737-6.706
					c1.259,0.202,2.518,0.647,3.729,1.273c3.124,2.393,4.375,6.657,7.896,8.646c0.062,0.146,0.118,0.299,0.167,0.452
					C102.658,76.179,98.867,68.103,95.966,65.41z"/>
				<path fill="#FFFFFF" d="M114.748,118.278c-0.271,0.285-0.57,0.549-0.89,0.793c-4.682,1.356-12.375,2.268-18.274,2.038
					c-0.104-0.014-0.209-0.035-0.313-0.049c0.014,0.014,0.028,0.028,0.042,0.035c-0.25-0.007-0.494-0.021-0.737-0.035
					c4.153,5.363,22.294,2.978,21.564-2.782c-0.355,0.153-0.751,0.306-1.183,0.459C114.915,118.584,114.846,118.431,114.748,118.278
					z M107.096,89.062c1.6-8.076-10.219-2.929-17.391-1.391c-2.636,0.563-5.613-0.918-6.26,2.087
					C91.82,93.152,101.761,84.45,107.096,89.062z M116.14,53.585c2.024-4.181-8.354-10.128-12.306-5.656
					c-0.07,0.021-0.146,0.056-0.216,0.091c0.007,0.055,0.007,0.104,0.014,0.153c-0.278,0.354-0.515,0.765-0.709,1.238
					c1.697,1.189,4.966-0.696,8.347,0C112.39,51.303,112.926,53.78,116.14,53.585z M105.893,74.189
					c-1.343-3.478-4.396-6.831-7.896-8.646c-0.932-0.709-2.038-1.259-3.422-1.523c-0.09,0.09-0.195,0.174-0.306,0.25
					c-3.889-0.626-7.784,1.043-10.128,6.706c0.48,0.146,0.939,0.125,1.392,0c1.753-0.487,3.36-2.644,5.565-3.479
					c8.486-3.2,8.278,8.035,15.304,8.348c-0.09-0.403-0.202-0.807-0.341-1.204c0.118-0.048,0.229-0.111,0.341-0.188
					C106.227,74.37,106.053,74.28,105.893,74.189z M150.225,70.28c-12.507-0.814-28.861,5.454-30.607,12.521
					c-2.72,11.005,6.08,16.132,11.826,21.564c6.685,6.316,8.667,11.005,19.477,11.13c10.894,0.125,22.921-8.514,22.26-17.391
					c-0.341-4.563-6.56-11.213-9.739-15.304C159.331,77.514,155.407,74.259,150.225,70.28z M83.355,111.69
					c-2.345-2.971-4.403-6.261-5.725-10.094c-0.285-1.621-0.557-3.374-1.141-4.883c-1.029-2.636-3.082-4.883-3.478-6.956
					c-3.979-20.625,11.13-28.423,22.956-36.868c2.031-1.12-1.106-3.583,0.696-4.174c1.468-0.487,2.469-1.217,3.429-1.815
					c11.304-3.103,22.072-2.275,31.999,0.654c16.34,5.349,29.119,16.806,40.395,23.422c1.468,1.544-0.73,3.353,0,6.26
					c1.099,2.275,3.881,0.223,4.869,1.392c2.573,4.382,3.13,10.782,2.782,18.086c-3.437,5.036-7.805,12.723-13.912,18.086
					c-14.052,12.34-49.563,21.3-70.258,10.434C93.49,120.56,87.862,116.525,83.355,111.69z"/>
				<path fill="#0A0A0A" d="M86.088,262.063c-2.323,7.909-2.664,17.787-4.73,25.946c-0.229,0-0.466,0-0.696,0
					C83.334,280.226,82.109,268.539,86.088,262.063z"/>
				<path fill="#F5F5F5" d="M80.523,25.071c3.534-2.553,7.909-4.069,13.356-4.181c6.421-0.132,13.113,1.168,20.173,0.695
					c12.458-0.834,24.639-4.16,36.868-2.087c7.861,1.329,15.304,5.016,22.956,6.261c13.815,2.24,30.218,2.678,38.26,10.435
					c1.252,1.203,2.017,2.72,2.664,4.292c-7.499-10.295-23.797-11.255-40.924-14.031c-7.144-1.162-14.142-4.828-21.564-6.261
					c-12.271-2.365-24.91,1.168-37.563,2.087C101.893,23.221,88.829,20.244,80.523,25.071z"/>
				<path fill="#0A0A0A" d="M78.618,283.857c0.403-0.23,0.828-0.286,1.35-0.021c0.508,2.129-1.204,2.045-0.696,4.174
					c-0.229,0-0.466,0-0.696,0C77.832,286.243,80.649,284.713,78.618,283.857z"/>
				<path fill="#F5F5F5" d="M78.576,283.836c0.014,0.007,0.028,0.014,0.042,0.021c-0.014,0.007-0.028,0.014-0.042,0.021
					C78.576,283.864,78.576,283.85,78.576,283.836z"/>
				<path fill="#F5F5F5" d="M77.63,101.597c1.322,3.833,3.38,7.123,5.725,10.094c-1.893-2.031-3.597-4.209-4.779-6.629
					C78.124,104.136,77.873,102.912,77.63,101.597z"/>
				<path fill="#F5F5F5" d="M163.094,60.207c-1.969-1.162-4.007-2.247-6.079-3.339c-6.783-4.591-14.282-8.709-22.601-11.276
					c-9.28-3.479-20.34-5.621-32.882-3.138c-9.196,1.823-11.394,9.008-16.695,14.608c-7.311,7.721-13.739,9.231-15.304,21.564
					c-1.294,10.184,2.087,14.657,4.174,20.869c0.682,2.024,0.758,4.876,1.391,6.26c1.843,4.035,13.426,17.217,16.695,20.173
					c12.556,11.332,34.83,7.367,50.781,3.478c3.492-0.849,7.165-0.375,9.738-1.391c9.266-3.652,15.29-12.591,24.348-19.478
					c1.419,3.214,4.813,4.466,5.564,8.348c0,0.229,0,0.466,0,0.695c3.582,7.547,3.123,19.137,8.348,25.042
					c4.278,4.682,17.251,4.125,14.059,14.163c-0.091,0.133-0.188,0.271-0.285,0.411c-6.956-1.461-16.849-10.713-19.93-0.327
					c0.584-2.942,1.829-5.218,4.765-5.899c6.797-1.579,8.16,5.975,15.304,5.565c1.245-9.815-9.46-8.765-13.912-13.217
					c-2.477-2.477-2.303-5.022-4.869-7.652c-1.336-10.72-3.138-20.98-9.739-26.434c-7.395,7.088-15.227,16.159-24.347,19.477
					c-3.075,1.12-6.372,0.557-9.739,1.392c-19.018,4.709-37.265,7.624-50.085-3.479c-3.784-3.276-15.234-16.716-17.391-21.564
					c-3.074-6.908-7.234-15.353-5.565-27.129c1.621-11.45,9.099-14.003,16-21.564c5.329-5.836,7.868-12.897,17.391-14.608
					C130.574,36.674,147.359,49.126,163.094,60.207z"/>
				<path fill="#0A0A0A" d="M176.659,108.539c-9.058,6.887-15.082,15.825-24.348,19.478c-2.573,1.016-6.246,0.542-9.738,1.391
					c-15.951,3.889-38.225,7.854-50.781-3.478c-3.269-2.957-14.852-16.139-16.695-20.173c-0.633-1.384-0.709-4.236-1.391-6.26
					c-2.087-6.212-5.468-10.685-4.174-20.869c1.565-12.333,7.993-13.843,15.304-21.564c5.301-5.6,7.499-12.786,16.695-14.608
					c12.542-2.483,23.603-0.341,32.882,3.138c-3.826-1.176-7.826-2.031-12.014-2.442c-5.558-0.549-13.898-1.384-20.869,0
					c-8.222,1.628-11.088,8.306-15.304,13.217c-7.339,8.549-14.316,8.995-15.999,22.26c-1.079,8.493,1.551,13.836,3.478,18.782
					c0.967,2.483,1.029,6.038,2.087,8.347c2.107,4.605,14.983,19.179,18.782,21.564c13.815,8.661,29.766,5.83,47.998,1.391
					c3.353-0.813,6.769-0.223,9.738-1.391c9.405-3.708,16.271-14.177,25.043-19.478c0.987,3.652,4.25,5.029,5.564,8.348
					c0.126,0.591-0.271,0.654-0.695,0.696C181.473,113.005,178.078,111.753,176.659,108.539z"/>
				<path fill="#F5F5F5" d="M76.489,28.542c1.169-1.461,2.519-2.595,4.035-3.471c-2.289,1.642-4.222,3.714-5.878,6.114
					C75.223,30.24,75.835,29.356,76.489,28.542z"/>
				<path fill="#F5F5F5" d="M85.532,258.098c10.267,1.189,22.761,1.176,31.303-1.391c0.07-2.853,0.139-5.704-0.695-7.652
					c-1.447-1.335-4.758-0.807-6.261-2.087c6.4-0.604,8.473,3.124,7.652,9.739c-7.896,3.631-21.446,3.165-31.999,2.087
					c-5.106,3.937-3.555,14.531-5.565,21.564c-2.059-1.225-4.897-4.125-6.957-1.392c0.299,2.254,4.536,0.563,3.478,4.174
					c-0.779,2.003-4.57,0.994-5.565,2.782c1.475,2.949,8.048,1.294,7.652-2.045c0.014-0.007,0.028-0.014,0.042-0.021
					c2.031,0.855-0.786,2.386-0.042,4.152c-2.316,0-4.64,0-6.956,0c-4.028-3.533,3.714-3.067,4.174-6.261
					c-1.064-1.112-4.668-1.51-2.783-3.478c2.059-3.374,4.897,1.62,6.957,0C81.038,270.759,80.21,261.354,85.532,258.098z"/>
				<path fill="#0A0A0A" d="M113.357,246.968c4.723,0.146,5.175,4.563,4.87,9.739c-7.513,4.778-22.239,3.645-33.39,2.782
					c-3.263,5.551-2.156,15.471-4.869,21.564c-1.677-0.737-5.009-4.508-6.261-1.392c2.476-0.16,3.638,1.002,3.478,3.479
					c-0.271,2.74-4.849,1.176-5.565,3.478c4.313,1.579,5.447-1.829,6.956-2.74c0.396,3.339-6.177,4.994-7.652,2.045
					c0.995-1.788,4.786-0.779,5.565-2.782c1.058-3.61-3.179-1.92-3.478-4.174c2.059-2.733,4.897,0.167,6.957,1.392
					c2.01-7.033,0.459-17.628,5.565-21.564c10.552,1.078,24.103,1.544,31.999-2.087c0.821-6.615-1.252-10.344-7.652-9.739
					c6.754-5.704,11.902,2.998,10.434,11.826c-8.152,4.048-22.44,4.167-33.918,2.803c0.167-0.25,0.341-0.486,0.529-0.716
					c10.838,1.308,25.237,1.475,32.694-2.783C120.355,252.234,117.851,243.065,113.357,246.968z"/>
				<path fill="#0A0A0A" d="M214.8,40.486c0.911,2.177,1.606,4.473,3.081,6.268c0.195,0.626,0.369,1.28,0.516,1.961
					c3.562,1.078,6.761,2.518,9.738,4.174c-0.633,7.464-0.591,10.636,5.565,11.826c0.201,1.419,1.885,1.363,2.087,2.782
					c-4.842-3.805-10.733-4.146-8.348-13.912c-2.414-2.226-6.08-3.2-9.739-4.174c-3.513-18.761-23.442-18.949-43.824-22.26
					c-7.388-1.203-13.996-4.8-21.564-6.26c-12.625-2.435-25.327,1.196-37.563,2.087c-13.599,0.988-29.689-2.734-36.868,4.869
					c-8.876,9.405-13.801,40.819-13.913,59.128c-0.028,4.417-0.049,8.828-0.077,13.231c-0.459-8.841-1.141-17.474,0.077-25.752
					c2.24-15.228,4.306-32.868,10.678-43.268c1.656-2.4,3.589-4.473,5.878-6.114c8.306-4.828,21.37-1.851,34.225-2.79
					c12.653-0.918,25.293-4.452,37.563-2.087c7.423,1.433,14.421,5.099,21.564,6.261C191.003,29.231,207.301,30.191,214.8,40.486z"
					/>
				<path d="M79.967,283.836c-0.522-0.265-0.946-0.209-1.35,0.021c-0.014-0.008-0.028-0.015-0.042-0.021c0,0.014,0,0.028,0,0.042
					c-1.509,0.911-2.643,4.319-6.956,2.74c0.716-2.302,5.293-0.737,5.565-3.478c0.16-2.477-1.002-3.639-3.478-3.479
					c1.252-3.116,4.584,0.654,6.261,1.392c2.713-6.094,1.606-16.014,4.869-21.564c11.151,0.862,25.877,1.996,33.39-2.782
					c0.306-5.176-0.146-9.593-4.87-9.739c4.494-3.902,6.998,5.267,6.261,11.13c-7.457,4.258-21.856,4.091-32.694,2.783
					c-0.188,0.229-0.362,0.466-0.529,0.716c-0.056-0.007-0.111-0.014-0.167-0.021c-0.048,0.16-0.097,0.327-0.139,0.487
					c-3.979,6.476-2.754,18.162-5.426,25.946c-0.466,0-0.925,0-1.391,0C78.764,285.881,80.475,285.965,79.967,283.836z"/>
				<path fill="#F5F5F5" d="M212.129,41.23c-0.16,4.744,3.805,5.356,3.484,10.268c4.508,1.287,11.256,0.334,9.739,7.652
					c-0.877-0.522-1.802-0.981-2.775-1.398c0.667,0.09,1.35-0.077,2.079-0.688c0.342-4.974-5.787-3.485-9.043-4.87
					c-1.022-4.542-3.784-7.346-4.869-11.825c-9.37-10.066-29.376-7.332-45.911-11.826c-4.862-1.322-8.938-3.979-13.913-4.87
					c-11.909-2.135-23.54,1.238-36.172,2.087c-12.806,0.855-27.839-3.151-35.477,4.174c-6.316,12.452-9.433,29.146-11.826,45.911
					c-1.83,12.792,1.155,27.463,0,42.433c-1.043,13.543-3.36,26.586-4.174,39.651c-1.412,22.712,0.278,48.721-2.087,68.866
					c-2.56,21.822,3.256,48.965-8.347,61.215c-0.591,0.125-0.654-0.271-0.696-0.695c11.916-12.056,5.627-39.185,8.348-61.215
					c2.476-20.041,0.431-44.541,2.087-68.867c0.348-5.112,1.725-9.558,2.087-14.608c0.473-6.566,0.779-13.342,0.987-20.173
					c0.153-1.614,0.286-3.242,0.404-4.87c0.382-5.356,0.223-10.712-0.035-15.999c0.028-4.703,0.035-9.356,0.035-13.913
					c0-21.356,5.975-43.372,13.217-58.433c8.278-7.492,22.288-3.165,36.172-4.174c10.281-0.751,20.458-3.464,29.912-2.782
					c8.55,0.619,12.904,3.777,19.478,5.565c17.968,4.876,37.313,1.83,46.544,12.292c0.007,0.007,0.015,0.014,0.015,0.021
					C211.648,40.507,211.899,40.862,212.129,41.23z"/>
				<path fill="#FFFFFF" d="M153.008,160.711c-4.132-6.303-5.266-15.603-12.521-18.782c-1.092,7.04,7.074,12.626,8.348,20.173
					c0.723,4.3,0.542,11.548-1.614,16.584c-1.892,2.88-4.521,4.925-7.262,6.859c-4.633,2.226-9.878,3.818-11.297,9.947
					c3.381,10.761,8.243,20.048,23.651,18.781c2.699-8.66,6.922-15.805,12.521-21.564c0.619-11.505,7.074-16.764,11.13-25.042
					c2.63-5.363,6.477-13.119,6.956-17.391c1.051-9.349-5.94-20.138-12.521-25.738c-1.211-0.056-2.164,0.153-2.783,0.695
					c4.271,7.527,12.257,15.839,11.13,25.042c-0.215,1.767-2.003,2.567-2.782,4.174c-1.857,3.833-3.562,8.751-6.261,13.912
					c-2.219,4.243-5.286,9.183-6.956,13.217c-1.391,3.347-0.828,6.922-2.087,9.739c-3.221,7.214-10.796,12.097-11.825,18.781
					c-9.537,0.474-16.438-8.465-15.304-14.607c1.287-6.984,14.476-6.915,18.086-16.695
					C153.933,172.509,152.326,169.079,153.008,160.711z M79.967,278.271c-2.059,1.62-4.897-3.374-6.957,0
					c-1.885,1.968,1.718,2.365,2.783,3.478c-0.459,3.193-8.202,2.728-4.174,6.261c-6.261,0-12.521,0-18.782,0
					c11.603-12.25,5.788-39.393,8.347-61.215c2.365-20.146,0.675-46.154,2.087-68.866c0.814-13.064,3.13-26.107,4.174-39.651
					c1.155-14.97-1.83-29.641,0-42.433c2.393-16.765,5.509-33.459,11.826-45.911c7.638-7.325,22.67-3.318,35.477-4.174
					c12.633-0.849,24.264-4.222,36.172-2.087c4.974,0.891,9.05,3.548,13.913,4.87c16.535,4.494,36.541,1.76,45.911,11.826
					c1.085,4.479,3.847,7.283,4.869,11.825c3.256,1.384,9.385-0.104,9.043,4.87c-0.729,0.612-1.412,0.779-2.079,0.688
					c0,0-0.007,0-0.015,0c-0.493-0.215-1.008-0.41-1.53-0.598c-1.224-0.696-2.49-1.795-4.027-2.177
					c-10.553-2.629-25.168-0.355-34.044,4.626c-0.744,0.299-1.454,0.619-2.129,0.939c-0.034,0.16-0.076,0.32-0.118,0.473
					c-2.949,2.066-4.945,4.5-5.446,7.179c-1.781-1.022-3.548-2.122-5.301-3.276c-2.107-1.753-4.424-3.276-6.845-4.688
					c-0.007-0.014-0.021-0.021-0.028-0.021c-15.735-11.081-32.52-23.533-60.867-18.448c-9.523,1.711-12.062,8.771-17.391,14.608
					c-6.9,7.562-14.378,10.114-16,21.564c-1.669,11.777,2.491,20.222,5.565,27.129c2.157,4.848,13.606,18.288,17.391,21.564
					c12.82,11.103,31.067,8.188,50.085,3.479c3.367-0.835,6.664-0.271,9.739-1.392c9.12-3.318,16.952-12.389,24.347-19.477
					c6.602,5.454,8.403,15.714,9.739,26.434c2.566,2.629,2.393,5.175,4.869,7.652c4.452,4.452,15.157,3.401,13.912,13.217
					c-7.144,0.41-8.507-7.144-15.304-5.565c-2.936,0.681-4.181,2.957-4.765,5.899c-0.007,0.007-0.007,0.014-0.007,0.014
					c-0.035,0.118-0.062,0.229-0.098,0.348c-0.181,0.654-0.243,1.363-0.25,2.115c-0.216,2.205-0.258,4.618-0.445,6.928
					c-1.343,16.368-10.33,38.99-11.826,53.563c-1.711,3.158-5.224,4.515-5.564,9.043c-1.044,4.521,4.987,1.969,4.174,6.261
					c-5.029,4.208-8.842-0.654-13.913-2.087c-7.067-1.996-15.651-1.294-23.651-2.087c-12.744-1.259-25.029-7.096-38.955-6.956
					c-9.934,9.613-1.363,29.689,15.304,22.955c0.229,0,0.466,0,0.696,0c1.502,1.28,4.813,0.752,6.261,2.087
					c0.834,1.948,0.765,4.8,0.695,7.652c-8.542,2.566-21.036,2.58-31.303,1.391C80.21,261.354,81.038,270.759,79.967,278.271z"/>
				<path fill="#F5F5F5" d="M65.651,122.452c0.216-6.949,0.313-13.961,0.369-20.869c0.257,5.287,0.417,10.643,0.035,15.999
					C65.937,119.21,65.804,120.837,65.651,122.452z"/>
				<path fill="#0A0A0A" d="M64.664,142.625c-0.362,5.05-1.739,9.496-2.087,14.608c-1.656,24.326,0.389,48.826-2.087,68.867
					c-2.72,22.03,3.568,49.159-8.348,61.215c0-0.466,0-0.926,0-1.392c11.026-11.735,5.078-38.989,7.652-59.823
					c2.483-20.104,0.501-45.626,2.087-68.867c0.779-11.436,2.671-22.962,3.77-34.781C65.442,129.283,65.136,136.058,64.664,142.625z
					"/>
				<path fill="#F5F5F5" d="M63.529,122.097c0.216-7.234,0.306-14.545,0.362-21.891c0.285,5.495,0.48,11.067,0.077,16.681
					C63.842,118.598,63.696,120.337,63.529,122.097z"/>
				<path fill="#F5F5F5" d="M74.646,31.186c-6.372,10.4-8.438,28.041-10.678,43.268c-1.217,8.278-0.536,16.911-0.077,25.752
					c-0.056,7.346-0.146,14.657-0.362,21.891c-0.64,6.615-1.544,13.495-2.323,20.284c0.661-8.598,1.447-16.785,2.066-24.799
					c1.127-14.629-1.92-29,0-42.433C65.38,60.416,66.973,42.309,74.646,31.186z"/>
				<path fill="#0A0A0A" d="M60.316,160.689c0.153-6.059,0.41-12.11,0.869-18.065c0.007-0.083,0.014-0.16,0.021-0.244
					c0.779-6.789,1.684-13.669,2.323-20.284c-0.195,6.692-0.487,13.314-0.953,19.832c-0.376,5.287-1.753,9.982-2.087,15.304
					C60.42,158.388,60.357,159.535,60.316,160.689z"/>
				<path fill="#0A0A0A" d="M52.142,281.749c6.887-11.067,4.264-25.612,4.87-43.129c0.306-8.792,2.289-17.474,2.782-24.347
					c0.501-6.998,0.396-14.476,0.174-22.204c0.098-7.325,0.098-14.845,0.188-22.413c0.049,15.067,1.377,30.059,0.334,44.617
					c-0.578,8.014-2.498,16.194-2.783,24.347c-0.32,9.294,0.946,18.47,0,27.13c-0.598,5.468-2.657,14.977-5.565,16.695
					C52.142,282.215,52.142,281.979,52.142,281.749z"/>
				<path fill="#F5F5F5" d="M60.316,160.689c-0.077,2.991-0.125,5.982-0.16,8.967C60.149,166.672,60.19,163.681,60.316,160.689z"/>
				<path fill="#F5F5F5" d="M59.794,157.232c0.299-4.8,0.821-9.801,1.412-14.852c-0.007,0.083-0.014,0.16-0.021,0.244
					c-0.459,5.955-0.716,12.006-0.869,18.065c-0.125,2.991-0.167,5.982-0.16,8.967c-0.09,7.568-0.09,15.088-0.188,22.413
					C59.648,180.737,59.07,168.87,59.794,157.232z"/>
				<path fill="#F5F5F5" d="M59.098,214.97c0.557-7.263,0.772-14.963,0.87-22.9c0.223,7.729,0.327,15.206-0.174,22.204
					c-0.494,6.873-2.477,15.555-2.782,24.347c-0.605,17.517,2.017,32.062-4.87,43.129c0-0.229,0-0.466,0-0.695
					c5.627-10.177,3.624-24.291,4.174-41.737C56.601,230.211,58.577,221.745,59.098,214.97z"/>
				<path d="M142.573,128.712c-18.232,4.438-34.183,7.27-47.998-1.391c-3.798-2.386-16.674-16.959-18.782-21.564
					c-1.058-2.309-1.12-5.864-2.087-8.347c-1.927-4.946-4.557-10.289-3.478-18.782c1.683-13.266,8.66-13.711,15.999-22.26
					c4.216-4.911,7.082-11.589,15.304-13.217c6.97-1.384,15.311-0.549,20.869,0c4.188,0.411,8.188,1.266,12.014,2.442
					c6.379,2.386,11.916,5.412,16.507,7.993c2.025,1.141,4.077,2.212,6.094,3.283c6.469,4.361,12.291,9.154,17.558,13.412
					c1.836-3.422,6.455-5.642,6.26-9.043c11.241-5.391,32.66-8.431,44.521-1.392c2.803-5.968-2.811-9.133-9.043-8.347
					c-0.988-3.889-2.268-7.339-4.181-10.268c0-0.056,0.007-0.111,0.007-0.167c-0.244-0.313-0.487-0.612-0.744-0.904
					c0-0.007-0.008-0.014-0.015-0.021c-2.727-3.68-6.622-6.448-12.458-8.118c-10.337-2.957-22.455-1.711-34.086-4.87
					c-4.57-1.245-8.744-4.014-13.217-4.869c-12.278-2.351-24.451,1.231-36.172,2.087c-13.648,0.995-29.578-3.242-36.868,4.869
					C71,37.676,68.162,60.847,66.055,75.149c-1.238,8.41-0.494,17.321-0.035,26.434c-0.056,6.907-0.153,13.919-0.369,20.869
					c-1.099,11.818-2.991,23.345-3.77,34.781c-1.586,23.241,0.396,48.764-2.087,68.867c-2.574,20.834,3.374,48.088-7.652,59.823
					c0-1.161,0-2.316,0-3.478c2.908-1.719,4.967-11.228,5.565-16.695c0.946-8.66-0.32-17.836,0-27.13
					c0.285-8.152,2.205-16.333,2.783-24.347c1.043-14.559-0.285-29.55-0.334-44.617c0.035-2.984,0.083-5.976,0.16-8.967
					c0.042-1.154,0.104-2.302,0.174-3.457c0.334-5.321,1.711-10.017,2.087-15.304c0.466-6.518,0.758-13.14,0.953-19.832
					c0.167-1.76,0.313-3.499,0.438-5.21c0.403-5.614,0.208-11.186-0.077-16.681c0.028-4.403,0.049-8.813,0.077-13.231
					c0.111-18.309,5.036-49.723,13.913-59.128c7.179-7.603,23.269-3.881,36.868-4.869c12.236-0.891,24.938-4.522,37.563-2.087
					c7.568,1.46,14.177,5.057,21.564,6.26c20.382,3.312,40.312,3.499,43.824,22.26c3.659,0.974,7.325,1.948,9.739,4.174
					c-2.386,9.767,3.506,10.107,8.348,13.912c2.42,0.828,5.217,1.273,5.564,4.174c-0.925,0-1.857,0-2.782,0
					c-0.445-0.313-0.897-0.64-1.343-0.974c-0.361-0.515-0.702-1.051-1.503-1.134c-8.486-6.483-17.529-14.608-32.631-11.805
					c-1.392,0-2.783,0-4.174,0c-8.153,1.287-15.707,3.061-18.087,8.348c-0.229,0-0.466,0-0.695,0
					c-2.219,0.563-1.989,3.576-3.478,4.87c3.317,6.65,7.38,12.562,6.26,23.651c-0.229,0-0.466,0-0.695,0
					c-0.884-7.005-1.614-14.156-4.869-18.782c-2.004-2.066-1.211,1.739-3.479,1.391c0.007-1.85-0.264-3.972,0.696-4.869
					c-0.244-0.188-0.487-0.376-0.737-0.57c0.014-0.042,0.027-0.083,0.041-0.125c-2.003-1.544-4.146-3.193-6.413-4.883
					c-0.042-0.028-0.084-0.062-0.126-0.097c-15.616-12.236-36.506-27.157-64.414-22.149c-5.28,0.946-8.619,4.48-11.826,6.957
					c1.488,4.035,2.163-3.221,4.174-0.696C84.565,61.417,67.877,67.539,71.62,89.062c0.807,4.647,3.631,11.262,5.565,15.304
					c4.285,8.953,14.086,15.032,18.782,22.26c9.76,4.216,20.959,6.449,34.781,4.174c12.897-2.122,23.693-6.455,32.451-12.932
					c0.021-0.014,0.035-0.028,0.056-0.042c1.071-0.758,2.066-1.538,2.971-2.331c0.223-0.195,0.445-0.39,0.66-0.605
					c5.941-5.155,10.811-11.457,14.644-18.873c0.466,0,0.925,0,1.391,0c-0.417,4.452-3.562,6.177-4.869,9.739
					c1.314,4.25,5.301,5.83,6.261,10.435c-0.466,0-0.925,0-1.392,0c-1.314-3.318-4.577-4.695-5.564-8.348
					c-8.772,5.301-15.638,15.77-25.043,19.478C149.342,128.489,145.926,127.898,142.573,128.712z"/>
			</g>
			<g>
			</g>
		</g>
	</g>
	<g>
		<g>
			<path d="M235.038,69.987c3.45,0.751,5.409,4.035,8.337,5.762c1.562,0.922,2.834-1.092,1.817-2.356
				c-1.721-2.139-3.562-4.023-6.227-4.908c-1.181-0.392-2.026,0.8-1.845,1.845c0.578,3.332,3.462,5.102,6.612,5.569
				c1.892,0.281,2.705-2.609,0.797-2.893c-2.177-0.324-4.105-1.106-4.517-3.475c-0.615,0.615-1.23,1.23-1.845,1.845
				c2.12,0.705,3.547,2.451,4.902,4.136c0.605-0.785,1.212-1.57,1.817-2.356c-3.224-1.902-5.19-5.223-9.054-6.064
				C233.949,66.684,233.147,69.576,235.038,69.987L235.038,69.987z"/>
		</g>
	</g>
</g>
<g id="Layer_2">
</g>
</svg>
