<?xml version="1.0" encoding="utf-8"?>
<!-- Generator: Adobe Illustrator 15.0.0, SVG Export Plug-In . SVG Version: 6.00 Build 0)  -->
<!DOCTYPE svg PUBLIC "-//W3C//DTD SVG 1.1//EN" "http://www.w3.org/Graphics/SVG/1.1/DTD/svg11.dtd">
<svg version="1.1" xmlns="http://www.w3.org/2000/svg" xmlns:xlink="http://www.w3.org/1999/xlink" x="0px" y="0px" width="300px"
	 height="300px" viewBox="0 0 300 300" enable-background="new 0 0 300 300" xml:space="preserve">
<g id="Layer_1">
	<g id="_x36_vEEuK_1_">
		<g>
			<g>
				<path fill-rule="evenodd" clip-rule="evenodd" fill="#FFFFFF" d="M91,163c-2.974-7.329,3.673-17.846,13-13
					C99.288,153.954,92.583,155.916,91,163z"/>
				<path fill-rule="evenodd" clip-rule="evenodd" fill="#FFFFFF" d="M213,163c4.075,4.925,5.937,12.063,7,20
					C217.492,176.508,214.181,170.819,213,163z"/>
				<path fill-rule="evenodd" clip-rule="evenodd" fill="#FFFFFF" d="M108,166c6.911,2.776-4.357,8.57-6,6
					C102.627,168.627,107.546,169.547,108,166z"/>
				<path fill-rule="evenodd" clip-rule="evenodd" fill="#FFFFFF" d="M201,167c0.455,10.188-22.226,9.039-30,4
					C179.848,168.515,194.366,171.7,201,167z"/>
				<path fill-rule="evenodd" clip-rule="evenodd" fill="#FFFFFF" d="M86,175c1.428,1.334,2.646,4.447,1,6
					C84.792,180.875,86.575,176.758,86,175z"/>
				<path fill-rule="evenodd" clip-rule="evenodd" d="M169,213c-1.307,3.026-4.689,3.978-9,4
					C161.506,214.172,165.183,213.516,169,213z"/>
				<path fill-rule="evenodd" clip-rule="evenodd" d="M88,183c-3.796,3.871-2.82,12.513-3,20c14.022,5.753,51.344-6.187,61,9
					c2.016,3.17,5.522,20.162-4,22c13.979-32.969-31.436-26.125-55-27c3.202,15.465,7.278,30.056,15,41c6.537,2.13,12.41,4.924,17,9
					c-8.913-0.095-18.642-8.019-24-15c-0.257,6.591,1.901,10.766,4,15c-8.155-0.788-5.396-11.793-8-19
					c-1.683-4.658-6.448-8.319-8-13c-1.521-4.586-0.607-13.983-3-20c-1.056-2.653-4.732-3.822-5-8c-0.289-4.515,4.064-7.357,5-12
					c1.581-7.843-1.068-14.964,1-22c1.702,2.965,1.1,8.233,2,12c4.72-3.085,1.112-9.862,2-13c-0.005-6.005,4.958-7.042,4-14
					c-11.257-2.244-26.351-5.419-23-19c3.587-4.148,11.638-1.103,16,0c5.081-28.925-13.018-50.614-18-76
					c15.443-16.295,49.263-25.904,80-28c11.583-0.79,24.317,0.007,34,5c3.931,26.057-0.639,60.632,8,86
					c5.585,0.075,9.689-9.514,19-9c10.165,5.655,2.693,22.289-3,27c0.824,3.176,3.191,4.808,5,7c-2.266,12.711,12.375,20.663,15,34
					c2.389,12.137-0.992,27.575,1,41c0.868,5.85,2.851,12.259,0,20c-0.455,1.234-2.57,1.233-3,2c-3.656,6.525-3.187,16.509-9,20
					c-3.707-0.262,0.469-4.259,1-6c2.115-6.936,3.821-17.532,9-22c-3.951-18.048,1.764-45.764-9-57
					c0.715-17.048-10.835-21.831-14-35c4.21,0.124,2.737,5.93,6,7c-1.557-8.047-6.181-10.318-12-5c3.261,2.163,12.286,14.651,13,20
					c1.817,13.622-9.675,18.933-24,17c-11.48-1.549-18.372-11.082-23-18c-0.769-3.769,1.22-4.78,1-8c-8.688,0.312-16.428,1.571-26,1
					c8.453,4.127,13.398,15.122,10,28c-0.184,0.851,0.39,0.943,1,1c0.851,0.184,0.943-0.39,1-1c0.275,0.862-5.091,13.898-13,16
					c-4.508,1.198-26.201-0.916-31-3C95.125,190.448,92.589,183.634,88,183z M192,152c-5.047,0.713-7.301-1.366-11-2
					c-0.547-1.453,1.169-5.168-1-5c-7.082,3.584-17.376,3.958-20,12c1.901,4.433,5.457,7.209,8,11c12.496,0.163,25.222,0.555,34-3
					c0.897-10.564-5.902-13.431-8-21c-4.838,0.639-7.072-1.321-10,0c-1.489,10.085,9.552,3.71,11,4
					C195.17,150.503,193.464,151.131,192,152z M113,150c1.7,0.224,2.474-1.127,0-1c-7.213,1.121-12.409,4.258-17,8
					c-0.59,3.583-0.744,7.032-4,10c0.055,4.612-0.443,9.776,1,13c3,0,6,0,9,0c-2.791-6.75-1.855-13.915,0-21
					c3.327-2.34,7.927-3.406,10-7c-7.261-0.245-12.423,6.889-16,7C99.489,153.822,106.373,152.039,113,150z M104,150
					c-9.327-4.846-15.974,5.671-13,13C92.583,155.916,99.288,153.954,104,150z M103,168c5.68-6.653,15.547-9.119,24-13
					C114.53,150.98,102.518,159.288,103,168z M141,169c0.723-6.411-4.682-11.955-7-12C137.629,159.704,138.106,165.561,141,169z
					 M131,158c-8.252,1.685-11.538,2.333-19,5c0.552,3.114,0.817,6.517,2,9c-3.804,2.196-10.415,1.585-10,8
					c2.851,1.868,6.749,4.03,10,4c8.889-0.082,22.235-11.145,24-16C134.619,165.714,131.572,163.095,131,158z M220,183
					c-1.063-7.937-2.925-15.075-7-20C214.181,170.819,217.492,176.508,220,183z M102,172c1.643,2.57,12.911-3.224,6-6
					C107.546,169.547,102.627,168.627,102,172z M171,171c7.774,5.039,30.455,6.188,30-4C194.366,171.7,179.848,168.515,171,171z
					 M87,181c1.646-1.553,0.428-4.666-1-6C86.575,176.758,84.792,180.875,87,181z M116,190c-5.102-1.586-18.584-9.232-19-3
					c-3-3-5.058-6.942-7-11C93.211,189.35,102.495,190.489,116,190z M129,188c3.189-2.831,9.844-7.462,8-12
					C135.745,180.766,127.986,184.292,129,188z M116,186c2.123,1.544,4.456,2.877,7,4c1.064-5.62,10.312-8.332,9-13
					C128.433,181.767,121.384,183.051,116,186z M90,228c-3.691-5.976-2.451-16.883-7-22C83.765,214.245,84.518,227.801,90,228z"/>
				<path fill-rule="evenodd" clip-rule="evenodd" fill="#FFFFFF" d="M60,23c60.333,0,120.666,0,181,0c0,81.666,0,163.334,0,245
					c-60.667,0-121.333,0-182,0c0-80.666,0-161.334,0-242C58.914,24.581,58.835,23.168,60,23z M101,193
					c4.799,2.084,26.492,4.198,31,3c7.909-2.102,13.275-15.138,13-16c-0.057,0.61-0.149,1.184-1,1c-0.61-0.057-1.184-0.149-1-1
					c3.398-12.878-1.547-23.873-10-28c9.572,0.571,17.312-0.688,26-1c0.22,3.22-1.769,4.231-1,8c4.628,6.918,11.52,16.451,23,18
					c14.325,1.933,25.817-3.378,24-17c-0.714-5.349-9.739-17.837-13-20c5.819-5.318,10.443-3.047,12,5c-3.263-1.07-1.79-6.876-6-7
					c3.165,13.169,14.715,17.952,14,35c10.764,11.236,5.049,38.952,9,57c-5.179,4.468-6.885,15.064-9,22
					c-0.531,1.741-4.707,5.738-1,6c5.813-3.491,5.344-13.475,9-20c0.43-0.767,2.545-0.766,3-2c2.851-7.741,0.868-14.15,0-20
					c-1.992-13.425,1.389-28.863-1-41c-2.625-13.337-17.266-21.289-15-34c-1.809-2.192-4.176-3.824-5-7
					c5.693-4.711,13.165-21.345,3-27c-9.311-0.514-13.415,9.075-19,9c-8.639-25.368-4.069-59.943-8-86
					c-9.683-4.993-22.417-5.79-34-5c-30.737,2.096-64.557,11.705-80,28c4.982,25.386,23.081,47.075,18,76
					c-4.362-1.103-12.413-4.148-16,0c-3.351,13.581,11.743,16.756,23,19c0.958,6.958-4.005,7.995-4,14c-0.888,3.138,2.72,9.915-2,13
					c-0.9-3.767-0.298-9.035-2-12c-2.068,7.036,0.581,14.157-1,22c-0.936,4.643-5.289,7.485-5,12c0.268,4.178,3.944,5.347,5,8
					c2.393,6.017,1.479,15.414,3,20c1.552,4.681,6.317,8.342,8,13c2.604,7.207-0.155,18.212,8,19c-2.099-4.234-4.257-8.409-4-15
					c5.358,6.981,15.087,14.905,24,15c-4.59-4.076-10.463-6.87-17-9c-7.722-10.944-11.798-25.535-15-41
					c23.564,0.875,68.979-5.969,55,27c9.522-1.838,6.016-18.83,4-22c-9.656-15.187-46.978-3.247-61-9c0.18-7.487-0.796-16.129,3-20
					C92.589,183.634,95.125,190.448,101,193z M160,217c4.311-0.022,7.693-0.974,9-4C165.183,213.516,161.506,214.172,160,217z"/>
				<path fill-rule="evenodd" clip-rule="evenodd" fill="#FFFFFF" d="M195,148c-1.448-0.29-12.489,6.085-11-4
					c2.928-1.321,5.162,0.639,10,0c2.098,7.569,8.897,10.436,8,21c-8.778,3.555-21.504,3.163-34,3c-2.543-3.791-6.099-6.567-8-11
					c2.624-8.042,12.918-8.416,20-12c2.169-0.168,0.453,3.547,1,5c3.699,0.634,5.953,2.713,11,2
					C193.464,151.131,195.17,150.503,195,148z"/>
				<path fill-rule="evenodd" clip-rule="evenodd" fill="#FFFFFF" d="M96,159c3.577-0.111,8.739-7.245,16-7
					c-2.073,3.594-6.673,4.66-10,7c-1.855,7.085-2.791,14.25,0,21c-3,0-6,0-9,0c-1.443-3.224-0.945-8.388-1-13
					c3.256-2.968,3.41-6.417,4-10c4.591-3.742,9.787-6.879,17-8c2.474-0.127,1.7,1.224,0,1C106.373,152.039,99.489,153.822,96,159z"
					/>
				<path fill-rule="evenodd" clip-rule="evenodd" fill="#FFFFFF" d="M127,155c-8.453,3.881-18.32,6.347-24,13
					C102.518,159.288,114.53,150.98,127,155z"/>
				<path fill-rule="evenodd" clip-rule="evenodd" fill="#FFFFFF" d="M134,157c2.318,0.045,7.723,5.589,7,12
					C138.106,165.561,137.629,159.704,134,157z"/>
				<path fill-rule="evenodd" clip-rule="evenodd" fill="#FFFFFF" d="M138,168c-1.765,4.855-15.111,15.918-24,16
					c-3.251,0.03-7.149-2.132-10-4c-0.415-6.415,6.196-5.804,10-8c-1.183-2.483-1.448-5.886-2-9c7.462-2.667,10.748-3.315,19-5
					C131.572,163.095,134.619,165.714,138,168z"/>
				<path fill-rule="evenodd" clip-rule="evenodd" fill="#FFFFFF" d="M90,176c1.942,4.058,4,8,7,11c0.416-6.232,13.898,1.414,19,3
					C102.495,190.489,93.211,189.35,90,176z"/>
				<path fill-rule="evenodd" clip-rule="evenodd" fill="#FFFFFF" d="M137,176c1.844,4.538-4.811,9.169-8,12
					C127.986,184.292,135.745,180.766,137,176z"/>
				<path fill-rule="evenodd" clip-rule="evenodd" fill="#FFFFFF" d="M132,177c1.312,4.668-7.936,7.38-9,13
					c-2.544-1.123-4.877-2.456-7-4C121.384,183.051,128.433,181.767,132,177z"/>
				<path fill-rule="evenodd" clip-rule="evenodd" fill="#FFFFFF" d="M83,206c4.549,5.117,3.309,16.024,7,22
					C84.518,227.801,83.765,214.245,83,206z"/>
			</g>
		</g>
	</g>
	<g>
		<g>
			<path fill="#9E9F00" d="M112.333,152.5c6.382-0.214,12.885,0.234,18.552,3.438c6.894,3.898,8.898,12.803,7.573,20.104
				c-2.317,12.768-23.805,16.813-34.187,13.343C86.774,183.535,88.167,152.325,109,154.5c1.923,0.201,1.904-2.801,0-3
				c-11.083-1.157-18.824,6.343-19.894,17.104c-1.071,10.772,5.602,21.191,16.019,24.188c7.065,2.032,15.208,0.07,21.961-2.173
				c7.128-2.367,13.72-7.536,14.554-15.473c0.799-7.602-1.144-15.437-7.232-20.403c-6.024-4.916-14.646-5.492-22.075-5.242
				C110.404,149.565,110.398,152.565,112.333,152.5L112.333,152.5z"/>
		</g>
	</g>
	<g>
		<g>
			<path fill="#9E9F00" d="M119.268,194.446c3.953,0.734,7.619,0.507,10.947-1.916c3.084-2.246,5.131-5.791,7.415-8.773
				c1.105-1.443-1.146-2.831-2.356-1.817c-4.808,4.027-9.782,8.67-16.005,10.281c-1.6,0.414-1.307,3.168,0.399,2.946
				c7.794-1.013,12.029-7.319,18.09-11.539c1.576-1.097,0.079-3.698-1.514-2.59c-5.36,3.73-9.711,10.236-16.577,11.129
				c0.133,0.982,0.266,1.964,0.399,2.946c6.74-1.744,12.121-6.689,17.329-11.053c-0.785-0.605-1.57-1.212-2.356-1.817
				c-4.136,5.401-7.261,10.742-14.973,9.311C118.175,191.202,117.367,194.094,119.268,194.446L119.268,194.446z"/>
		</g>
	</g>
</g>
<g id="Layer_2">
</g>
</svg>
