<?xml version="1.0" encoding="utf-8"?>
<!-- Generator: Adobe Illustrator 15.0.0, SVG Export Plug-In . SVG Version: 6.00 Build 0)  -->
<!DOCTYPE svg PUBLIC "-//W3C//DTD SVG 1.1//EN" "http://www.w3.org/Graphics/SVG/1.1/DTD/svg11.dtd">
<svg version="1.1" xmlns="http://www.w3.org/2000/svg" xmlns:xlink="http://www.w3.org/1999/xlink" x="0px" y="0px" width="300px"
	 height="300px" viewBox="0 0 300 300" enable-background="new 0 0 300 300" xml:space="preserve">
<g id="Layer_1">
	<g id="YOorJ0_1_">
		<g id="XMLID_2_">
			<g>
				<path d="M206.997,187.999c15.73-14.58,12.2-57.15,4-80c-2.88-8.03-11.32-16.66-16-23c-7.91-10.71-15.43-15.13-28-21
					c-4.21-1.96-8.14-5.09-11-6c-11.87-3.79-28.95-4.13-41-3c-4.2,0.39-8.27,3.3-12,1c0.53-6.78,9.73-4.82,14-5
					c6.2-0.26,13.48-0.37,19,0c18.12,1.22,25.42,6,38,12c16.07,7.66,20.85,14.18,30,26c4.19,5.41,7.44,11.02,11,16
					c3.12,17.92,9.44,37.79,7,58c-2.66,22.02-15.43,32.39-32,40c-7,0-14,0-21,0c-0.05,1.28-1.28,1.38-1,3c-1.33,0-2.67,0-4,0
					c-0.11-1.32,0.12-2.65-1-3c-7.02-2.17-16.96,1.24-23,0c-12.24-2.51-19.7-15.01-31-17c-3.02-11.521-18.98-21.72-22-41
					c-2.22-14.2-0.25-37.72,1-53c1.51-18.43,10-30.88,23-35c-3.21,8.92-12.78,12.04-16,20c-3.08,7.6-2.2,21.25-3,32
					c-0.89,11.94-2.47,24.56-1,34c1.63,10.47,7.89,19.61,13,27c6.57,9.5,7.55,11.59,15,16c7.42,4.39,15.05,9.16,22,13
					c16.771-2.33,31.04,3.12,46,0C191.617,198.039,204.717,190.109,206.997,187.999z"/>
				<path d="M182.997,152.999c-2.61,5.32-11.81,3-18,3c-10.89,0-21.39-0.271-31,1c-1.04-3.61,2.75-4.4,5-5
					C149.997,149.059,172.417,153.469,182.997,152.999z"/>
				<path d="M164.997,98.999c-3.96-0.37-9.58,0.92-12-1c-2.33-10.06,8.62-10.8,13-6C166.577,95.249,165.317,96.649,164.997,98.999z"
					/>
				<path d="M117.997,102.999c2.28,0.28,3.76-0.24,4-2c-1.35-0.31-1.91-1.42-4-1C117.997,100.999,117.997,101.999,117.997,102.999z
					 M125.997,104.999c-1.57,2.56-9.22,2.8-12,1c-2.93-10.49,7.35-13.66,12-8C125.997,100.329,125.997,102.669,125.997,104.999z"/>
				<path fill="#FFFFFF" d="M121.997,100.999c-0.24,1.76-1.72,2.28-4,2c0-1,0-2,0-3C120.087,99.579,120.647,100.689,121.997,100.999
					z"/>
			</g>
			<g>
			</g>
		</g>
	</g>
	<g>
		<g>
			<path fill="#FFFFFF" d="M157.272,94.061c0.883,0.825,1.875,1.104,3.061,1.106c1.935,0.003,1.935-2.997,0-3
				c-0.134,0-0.267-0.001-0.399-0.005c-0.432-0.012,0.294,0.072-0.135-0.009c-0.039-0.007-0.42-0.164-0.175-0.044
				c-0.285-0.14,0.033,0.077-0.23-0.169c-0.597-0.558-1.528-0.593-2.121,0C156.709,92.502,156.675,93.502,157.272,94.061
				L157.272,94.061z"/>
		</g>
	</g>
	<g>
		<g>
			<path fill="#333333" d="M163.136,203.635c-1.765,6.508-1.369,12.341,0.666,18.73c2.174,6.824,4.373,11.952,3.906,19.302
				c-0.215,3.383,5.037,3.361,5.25,0c0.357-5.632-0.301-10.536-2.227-15.835c-2.616-7.201-4.615-13.123-2.533-20.801
				C169.086,201.758,164.021,200.371,163.136,203.635L163.136,203.635z"/>
		</g>
	</g>
</g>
<g id="Layer_2">
</g>
</svg>
