<?xml version="1.0" encoding="utf-8"?>
<!-- Generator: Adobe Illustrator 15.0.0, SVG Export Plug-In . SVG Version: 6.00 Build 0)  -->
<!DOCTYPE svg PUBLIC "-//W3C//DTD SVG 1.1//EN" "http://www.w3.org/Graphics/SVG/1.1/DTD/svg11.dtd">
<svg version="1.1" xmlns="http://www.w3.org/2000/svg" xmlns:xlink="http://www.w3.org/1999/xlink" x="0px" y="0px" width="300px"
	 height="300px" viewBox="0 0 300 300" enable-background="new 0 0 300 300" xml:space="preserve">
<g id="Layer_1">
	<g id="y9HWmx_1_">
		<g id="XMLID_2_">
			<g>
				<path fill="#FFFFFF" d="M219.5,89.5c1.659,1.08,1.659,8.92,0,10C219.5,96.17,219.5,92.83,219.5,89.5z"/>
				<path fill="#FFFFFF" d="M215.5,85.5c1.449,21.12-4.761,34.58-13,46c-13.301,1.38-27.171-3.74-34-12
					c18.189-0.52,21.05-34.48,5-40C183.189,66.56,210.64,73.13,215.5,85.5z M199.5,121.5c9.06-8.12-2.551-23.47-13-15
					c-0.07,6.07,1.819,10.18,3,15C192.829,121.5,196.17,121.5,199.5,121.5z M189.5,101.5c11.319,1.25,16.93-12.04,10-20
					c-6.011-1.01-8.53,1.47-13,2C186.359,90.64,185.84,98.16,189.5,101.5z"/>
				<path d="M186.5,106.5c10.449-8.47,22.06,6.88,13,15c-3.33,0-6.671,0-10,0C188.319,116.68,186.43,112.57,186.5,106.5z
					 M198.5,116.5c3.239-8.6-10.671-11.93-7-4c-1.011-3.01,2.229-1.77,4-2c-0.04,1.38,0.47,2.2,1,3c-1.181,1.48-3.78,1.56-5,3
					C194.239,118.45,195.76,118.45,198.5,116.5z"/>
				<path d="M199.5,81.5c6.93,7.96,1.319,21.25-10,20c-3.66-3.34-3.141-10.86-3-18C190.97,82.97,193.489,80.49,199.5,81.5z
					 M190.5,92.5c1.64,10.08,12.439-2.26,6-7c-3.9-1.16-7.82,2.76-5,5c0.27-2.36,4.43-0.61,4,1
					C195.399,94.04,191.77,93.86,190.5,92.5z"/>
				<path fill="#FFFFFF" d="M191.5,112.5c-3.671-7.93,10.239-4.6,7,4c-2.74,1.95-4.261,1.95-7,0c1.22-1.44,3.819-1.52,5-3
					c-0.53-0.8-1.04-1.62-1-3C193.729,110.73,190.489,109.49,191.5,112.5z"/>
				<path fill="#FFFFFF" d="M196.5,85.5c6.439,4.74-4.36,17.08-6,7c1.27,1.36,4.899,1.54,5-1c0.43-1.61-3.73-3.36-4-1
					C188.68,88.26,192.6,84.34,196.5,85.5z"/>
				<path fill="#FFFFFF" d="M184.5,133.5c-4.29,1.93-11.881-1.44-14-5C175.979,129.35,178.93,132.74,184.5,133.5z"/>
				<path fill="#B76E2A" d="M178.5,92.5c1.659,2.71,1.659,12.29,0,15C178.5,102.5,178.5,97.5,178.5,92.5z"/>
				<path fill="#FFFFFF" d="M178.5,92.5c0,5,0,10,0,15c-9.761,17.65-24.961-9.57-17-22c2.56-2.44,7.909-2.09,13-2
					C176,86.33,178.539,88.12,178.5,92.5z M172.5,108.5c2.5,0.17,3.13-1.54,4-3c-4.141-3.53-2.721-12.61-12-11
					C166.71,99.62,167.649,106.02,172.5,108.5z"/>
				<path fill="#FFFFFF" d="M166.5,185.5c1.069,5.93,8.739,5.26,7,14c-12.41-3.59-7.73-24.27-18-30c-4.65,4.32-6.55,20.2-5,27
					c-10.88-10.92,4.44-27.19-5-37c-0.64-3.7,1.29-9.96-1-12c-3.91-10.96-6.46,17.23,1,18c-2.6,2.53-7.21-1.4-12,0
					c-3.62,9.58,5.79,16.9-1,25c-8.69-16.21-6.82-42.18,9-50c-7.25-3.92-14.69,8.41-17,16c-7.74-8.78,2.79-21.57,8-27
					c7.06-1.06,8.82,3.18,14,4c11.93-1.73,1.49-25.84,9-32c3.319,4.68,3.329,12.67,10,14c-8.341,11.74,8.17,37.9-6,49
					C163.239,170.09,165.109,177.56,166.5,185.5z M147.5,134.5c-3.46,4.79,5.24,9.44,9,7C155.27,137.4,150.759,136.57,147.5,134.5z"
					/>
				<path d="M176.5,105.5c-0.87,1.46-1.5,3.17-4,3c-4.851-2.48-5.79-8.88-8-14C173.779,92.89,172.359,101.97,176.5,105.5z"/>
				<path d="M170.85,203.9c-0.9-0.32-1.85-0.471-2.88-0.631c-1.86-0.75-3.601-1.71-4.65-3.46c-1.53-2.55-4.2-2.84-6.3-1.88
					c-0.18-0.14-0.35-0.279-0.52-0.43c-0.65-0.91-2.521,5.42-8,3c-1.28-0.05-1.38-1.28-3-1c-0.99-2.67-2.06-5.27-2-9
					c-3.04,1.25-3.89,0.76-6-1c-2.48,1.52-1.79,6.21-6,6c-6.17-1.37-6.01-9.07-7.3-15.32c0.14-3.67-1.4-7.35-0.38-11.02
					c0.26-0.94,0.26-1.79,0.07-2.55c0.36-2.021-0.44-4.341-2.37-5.261c-0.19-0.09-0.56-0.34-0.73-0.439
					c-0.16-0.15-0.31-0.3-0.46-0.45c-0.33-0.32-0.64-0.65-0.94-0.99c0.04,0.011,0.07,0.021,0.11,0.03c-5.86-13.67,5.75-44.21,27-31
					c1.38-20.12,7.03-32.95,12-47c14.369-12.89,49.72-20.99,61,2c0,2,0,4,0,6c0,3.33,0,6.67,0,10c-1.881,20.04-11.15,45.56-35,34
					c-5.57-0.76-8.521-4.15-14-5c-0.091-1.58-2.551-0.78-2-3c-3.73,6.54,3.72,16.14,1,28c0.079,0.02,0.149,0.05,0.229,0.07
					c-0.2,0.47-0.36,0.96-0.49,1.479c-0.09,0.36-0.149,0.74-0.2,1.12c-0.55,1.01-0.84,2.18-0.76,3.5
					c-4.41,5.03-1.96,14.35,2.221,23.83c2.779,6.32,9.689,8.26,7,18c-1.78,0.89-2.54,2.79-6,2c0.069,0.12,0.159,0.24,0.239,0.36
					C171.449,203.88,171.149,203.88,170.85,203.9z M202.5,131.5c8.239-11.42,14.449-24.88,13-46c-4.86-12.37-32.311-18.94-42-6
					c16.05,5.52,13.189,39.48-5,40C175.329,127.76,189.199,132.88,202.5,131.5z M178.5,107.5c1.659-2.71,1.659-12.29,0-15
					c0.039-4.38-2.5-6.17-4-9c-5.091-0.09-10.44-0.44-13,2C153.539,97.93,168.739,125.15,178.5,107.5z M173.5,199.5
					c1.739-8.74-5.931-8.07-7-14c-1.391-7.94-3.261-15.41-7-21c14.17-11.1-2.341-37.26,6-49c-6.671-1.33-6.681-9.32-10-14
					c-7.51,6.16,2.93,30.27-9,32c-5.18-0.82-6.94-5.06-14-4c-5.21,5.43-15.74,18.22-8,27c2.31-7.59,9.75-19.92,17-16
					c-15.82,7.82-17.69,33.79-9,50c6.79-8.1-2.62-15.42,1-25c4.79-1.4,9.4,2.53,12,0c-7.46-0.77-4.91-28.96-1-18
					c0.64,3.7-1.29,9.96,1,12c9.44,9.81-5.88,26.08,5,37c-1.55-6.8,0.35-22.68,5-27C165.77,175.23,161.09,195.91,173.5,199.5z
					 M161.5,195.5c-0.11-7.89-1.69-14.31-6-18c0.97,5.97-2.36,7.64-2,13C157.72,190.62,158.56,194.11,161.5,195.5z M145.5,170.5
					c-4.12,0.79-5.13-1.54-9-1c1.61,5.72,1.34,13.32,5,17C140.83,179.16,144.77,176.44,145.5,170.5z"/>
				<path fill="#FFFFFF" d="M156.5,197.5c0,0.23,0,0.47,0,0.7c-1.23,0.72-2.171,1.87-2.471,3.25c-2.16,0.439-4.97,0.399-5.53-0.95
					C153.979,202.92,155.85,196.59,156.5,197.5z"/>
				<path d="M156.5,141.5c-3.761,2.44-12.46-2.21-9-7C150.759,136.57,155.27,137.4,156.5,141.5z"/>
				<path fill="#A19E9C" d="M144.5,147.5c2.29,2.04,0.36,8.3,1,12C143.209,157.46,145.14,151.2,144.5,147.5z"/>
				<path fill="#FFFFFF" d="M136.5,169.5c3.87-0.54,4.88,1.79,9,1c-0.73,5.94-4.67,8.66-4,16
					C137.839,182.82,138.109,175.22,136.5,169.5z"/>
				<path d="M90.939,159.9c-0.05,0.109-0.1,0.22-0.15,0.319c-0.02-0.12-0.04-0.239-0.05-0.359
					C90.81,159.87,90.87,159.89,90.939,159.9z"/>
			</g>
			<g>
			</g>
		</g>
	</g>
</g>
<g id="Layer_2">
</g>
</svg>
