<?xml version="1.0" encoding="utf-8"?>
<!-- Generator: Adobe Illustrator 15.0.0, SVG Export Plug-In . SVG Version: 6.00 Build 0)  -->
<!DOCTYPE svg PUBLIC "-//W3C//DTD SVG 1.1//EN" "http://www.w3.org/Graphics/SVG/1.1/DTD/svg11.dtd">
<svg version="1.1" xmlns="http://www.w3.org/2000/svg" xmlns:xlink="http://www.w3.org/1999/xlink" x="0px" y="0px" width="300px"
	 height="300px" viewBox="0 0 300 300" enable-background="new 0 0 300 300" xml:space="preserve">
<g id="Layer_1">
	<g id="INxxCz.tif">
		<g>
			<g>
				<path fill-rule="evenodd" clip-rule="evenodd" fill="#FFFFFF" d="M223,236.5c4.081-15.586,14.159-25.174,15-44
					c1.871-4.538-3.973-1.36-3-5c-1.273-19.098,2.683-41.915-4-56c-0.886-1.867-1.208-3.474-2-5c-2.604-5.021-7.555-8.637-10-14
					c-3.07-6.734-2.578-13.408-6-19c-6.779-11.078-16.486-22.127-27-29c0.31-1.357,2.504-0.83,4-1c-0.972-4.586-5.082-0.424-8-1
					c-2.413-0.476-4.215-2.82-7-3c-2.566-0.166-5.92,0.795-9,1c-11.586,0.77-26.131-1.939-37,0c-7.88,1.406-15.353,9.901-21,10
					c-6.107,0.106-9.25-7.364-14-4c-0.411,4.745,4.551,4.115,8,5c-3.995,3.332-13.597,8.159-18,14c-2.115,2.806-4.123,8.443-7,13
					c-5.656,8.958-8.912,13.989-12,27c-3.029,12.761-4.029,21.82,9,24c-0.965,26.298,1.971,48.696,13,63
					c-0.077,10.077,3.413,16.587,6,24c-10.667,0-21.333,0-32,0c0-59.666,0-119.334,0-179c59.333,0,118.667,0,178,0
					c0,59.666,0,119.334,0,179C233.667,236.5,228.333,236.5,223,236.5z"/>
				<path fill-rule="evenodd" clip-rule="evenodd" d="M223,236.5c-1,0-2,0-3,0c4.533-11.133,6.931-24.402,13-34
					c-0.58-24.07-0.55-43.386-6-61c-1.585-5.122-3.338-9.924-5-15c-5.154-15.742-14.823-24.134-19-40c-1.592-3.688-4.413-4.604-4-8
					c-3.108-4.225-7.417-7.25-12-10c-20.827,16.172-54.268,19.732-76,35c-3.148,3.185-5.831,6.836-10,9
					c-3.256,9.744-8.921,17.079-12,27c-2.448,2.219-5.404,3.929-9,5c1.33,8.908-2.151,17.687-1,26c0.413,2.981,3.08,5.753,4,9
					c0.654,2.309-0.478,4.642,0,7c0.966,4.763,4.968,11.205,6,16c0.524,2.437-0.519,4.761,0,6c2.159,5.155,8.577,8.253,9,14
					c5.531,5.136,16.688,4.646,19,13c-6.887-3.113-12.691-7.309-20-10c-2.838-2.828-3.12-8.214-7-10c-1.104,6.12,3.532,15.123,6,21
					c-1,0-2,0-3,0c-2.587-7.413-6.077-13.923-6-24c-11.029-14.304-13.965-36.702-13-63c-13.029-2.18-12.029-11.239-9-24
					c3.088-13.011,6.344-18.042,12-27c2.877-4.557,4.885-10.194,7-13c4.403-5.841,14.005-10.668,18-14c-3.449-0.885-8.411-0.255-8-5
					c4.75-3.364,7.893,4.106,14,4c5.647-0.099,13.12-8.594,21-10c10.869-1.939,25.414,0.77,37,0c3.08-0.205,6.434-1.166,9-1
					c2.785,0.18,4.587,2.524,7,3c2.918,0.576,7.028-3.586,8,1c-1.496,0.17-3.69-0.357-4,1c10.514,6.873,20.221,17.922,27,29
					c3.422,5.592,2.93,12.266,6,19c2.445,5.363,7.396,8.979,10,14c0.792,1.526,1.114,3.133,2,5c6.683,14.085,2.727,36.902,4,56
					c-0.973,3.64,4.871,0.462,3,5C237.159,211.326,227.081,220.914,223,236.5z M215,103.5c-2.229-3.771-3.202-8.797-8-10
					C209.945,95.913,211.965,104.502,215,103.5z M226,129.5c0.125-2.503,1.908-3.13-1-4C225.171,126.996,224.643,129.19,226,129.5z
					 M231,144.5c-0.332,6.743,1.782,2.227,1-2c-1.561-4.44-1.741-10.259-6-12C226.622,136.211,230.011,139.156,231,144.5z M77,157.5
					c-0.325-2.408,0.853-11.43-1-9C76.325,150.908,75.147,159.93,77,157.5z M86,204.5c-2.215-9.785-6.589-17.41-7-29
					c-1.182-0.145-2.267-1.78-3,0C79.642,184.857,78.79,198.711,86,204.5z"/>
				<path fill-rule="evenodd" clip-rule="evenodd" d="M204,110.5c-4.258,4.081-9.651,0.438-15,0c1.007-3.326-2.212-10.878,2-11
					c0,2.333,0,4.667,0,7c1.057,3.054,10.668,5.096,11,0C203.759,106.741,204.279,108.221,204,110.5z"/>
				<path fill-rule="evenodd" clip-rule="evenodd" d="M136,122.5c-0.877,3.21,2.593,2.073,3,4c2.522,0.494-2.789-4.962,2-4
					c3.832,2.663,1.863,9.16,1,12c-0.629,2.07-3.131,4.34-5,7c-4.657,6.627-9.502,13.258-16,18c-5.201-0.725-9.414,1.027-13,0
					c-1.939-0.556-7.57-4.921-9-8c-0.71-1.528-0.039-6.984-1-10c-0.545-1.709-1.979-3.767-2-4c-2.269-25.259,28.261-34.062,43-17
					C139.467,122.634,137.571,122.405,136,122.5z M101,126.5c1.203-1.78,7.184,0.083,9,1c4.377,7.98-4.962,10.174-10,12
					c0.027,12.64,5.873,19.46,21,17c6.844-8.16,18.516-16.812,18-29c-0.256,2.34-4.394,0.576-5,0
					C134.26,107.508,100.628,114.249,101,126.5z M98,136.5c2.359-1.307,6.911-0.422,9-2c0.898-2.928,0.898-3.072,0-6
					c-2.656-0.01-5.711,0.378-7-1C100.42,131.587,96.708,131.542,98,136.5z"/>
				<path fill-rule="evenodd" clip-rule="evenodd" fill="#FFFFFF" d="M225,125.5c2.908,0.87,1.125,1.497,1,4
					C224.643,129.19,225.171,126.996,225,125.5z"/>
				<path fill-rule="evenodd" clip-rule="evenodd" fill="#FFFFFF" d="M100,127.5c1.289,1.378,4.344,0.99,7,1
					c0.898,2.928,0.898,3.072,0,6c-2.089,1.578-6.641,0.693-9,2C96.708,131.542,100.42,131.587,100,127.5z"/>
				<path fill-rule="evenodd" clip-rule="evenodd" fill="#FFFFFF" d="M226,130.5c4.259,1.741,4.439,7.56,6,12
					c0.782,4.227-1.332,8.743-1,2C230.011,139.156,226.622,136.211,226,130.5z"/>
				<path fill-rule="evenodd" clip-rule="evenodd" fill="#FFFFFF" d="M76,148.5c1.853-2.43,0.675,6.592,1,9
					C75.147,159.93,76.325,150.908,76,148.5z"/>
				<path fill-rule="evenodd" clip-rule="evenodd" fill="#FFFFFF" d="M76,175.5c0.733-1.78,1.818-0.145,3,0
					c0.411,11.59,4.785,19.215,7,29C78.79,198.711,79.642,184.857,76,175.5z"/>
				<path fill-rule="evenodd" clip-rule="evenodd" d="M186,189.5c1.876,8.717-7.12,10.186-11,13c-4.727,3.429-7.54,8.337-13,10
					c-4.88-1.453-10.572-2.095-14-5c1.176-9.157,6.092-14.575,9-22C166.543,181.234,180.506,181.909,186,189.5z M175,185.5
					c-3.333,0-6.667,0-10,0C165.131,191.221,173.438,187.362,175,185.5z M157,194.5c1.248-2.418,4.099-3.234,7-4
					C162.936,182.793,154.04,192.223,157,194.5z M177,187.5c-9.409,5.257-22.754,6.579-26,18c9.905,8.158,16.144,0.064,23-5
					c4.348-3.211,10.345-4.633,10-9C182.357,189.476,180.656,187.511,177,187.5z"/>
				<path fill-rule="evenodd" clip-rule="evenodd" fill="#FFFFFF" d="M165,185.5c3.333,0,6.667,0,10,0
					C173.438,187.362,165.131,191.221,165,185.5z"/>
				<path fill-rule="evenodd" clip-rule="evenodd" fill="#FFFFFF" d="M164,190.5c-2.901,0.766-5.752,1.582-7,4
					C154.04,192.223,162.936,182.793,164,190.5z"/>
				<path fill-rule="evenodd" clip-rule="evenodd" fill="#FFFFFF" d="M184,191.5c0.345,4.367-5.652,5.789-10,9
					c-6.856,5.064-13.095,13.158-23,5c3.246-11.421,16.591-12.743,26-18C180.656,187.511,182.357,189.476,184,191.5z"/>
				<path fill-rule="evenodd" clip-rule="evenodd" fill="#FFFFFF" d="M165,119.5c0.576-16.424,12.558-21.442,22-29
					c8.955,1.045,9.283,10.717,16,14c6.535,9.016,16.465,26.376,1,34C181.923,141.244,172.498,131.335,165,119.5z M202,106.5
					c-0.332,5.096-9.943,3.054-11,0c0-2.333,0-4.667,0-7c-4.212,0.122-0.993,7.674-2,11c5.349,0.438,10.742,4.081,15,0
					C204.279,108.221,203.759,106.741,202,106.5z"/>
				<path fill-rule="evenodd" clip-rule="evenodd" fill="#FFFFFF" d="M207,93.5c4.798,1.203,5.771,6.229,8,10
					C211.965,104.502,209.945,95.913,207,93.5z"/>
				<path fill-rule="evenodd" clip-rule="evenodd" fill="#FFFFFF" d="M220,236.5c-41.333,0-82.667,0-124,0
					c-2.468-5.877-7.104-14.88-6-21c3.88,1.786,4.162,7.172,7,10c7.309,2.691,13.113,6.887,20,10c-2.312-8.354-13.469-7.864-19-13
					c-0.423-5.747-6.841-8.845-9-14c-0.519-1.239,0.524-3.563,0-6c-1.032-4.795-5.034-11.237-6-16c-0.478-2.358,0.654-4.691,0-7
					c-0.92-3.247-3.587-6.019-4-9c-1.151-8.313,2.33-17.092,1-26c3.596-1.071,6.552-2.781,9-5c3.079-9.921,8.744-17.256,12-27
					c4.169-2.164,6.852-5.815,10-9c21.732-15.268,55.173-18.828,76-35c4.583,2.75,8.892,5.775,12,10c-0.413,3.396,2.408,4.312,4,8
					c4.177,15.866,13.846,24.258,19,40c1.662,5.076,3.415,9.878,5,15c5.45,17.614,5.42,36.93,6,61
					C226.931,212.098,224.533,225.367,220,236.5z M178,93.5c-8.456,6.09-16.278,15.131-16,27c8.271,12.729,18.308,23.692,42,21
					c4.271-2.728,8.301-5.7,11-10c-0.718-3.074,0.918-6.438,0-11c-0.329-1.637-1.719-0.255-3-3c-0.792-1.697-0.211-4.421-1-6
					c-3.303-6.613-6.339-8.352-10-12c-4.471-4.454-6.376-9.886-9-11c-3.338-1.417-12.762-1.695-13,0
					C175.865,89.191,177.696,91.167,178,93.5z M139,120.5c-14.739-17.062-45.269-8.259-43,17c0.021,0.233,1.455,2.291,2,4
					c0.961,3.016,0.29,8.472,1,10c1.43,3.079,7.061,7.444,9,8c3.586,1.027,7.799-0.725,13,0c6.498-4.742,11.343-11.373,16-18
					c1.869-2.66,4.371-4.93,5-7c0.863-2.84,2.832-9.337-1-12c-4.789-0.962,0.522,4.494-2,4c-0.407-1.927-3.877-0.79-3-4
					C137.571,122.405,139.467,122.634,139,120.5z M157,185.5c-2.908,7.425-7.824,12.843-9,22c3.428,2.905,9.12,3.547,14,5
					c5.46-1.663,8.273-6.571,13-10c3.88-2.814,12.876-4.283,11-13C180.506,181.909,166.543,181.234,157,185.5z"/>
				<path fill-rule="evenodd" clip-rule="evenodd" fill="#FFFFFF" d="M134,127.5c0.606,0.576,4.744,2.34,5,0
					c0.516,12.188-11.156,20.84-18,29c-15.127,2.46-20.973-4.36-21-17c5.038-1.826,14.377-4.02,10-12c-1.816-0.917-7.797-2.78-9-1
					C100.628,114.249,134.26,107.508,134,127.5z"/>
				<path fill-rule="evenodd" clip-rule="evenodd" d="M179,88.5c0.238-1.695,9.662-1.417,13,0c2.624,1.114,4.529,6.546,9,11
					c3.661,3.648,6.697,5.387,10,12c0.789,1.579,0.208,4.303,1,6c1.281,2.745,2.671,1.363,3,3c0.918,4.562-0.718,7.926,0,11
					c-2.699,4.3-6.729,7.272-11,10c-23.692,2.692-33.729-8.271-42-21c-0.278-11.869,7.544-20.91,16-27
					C177.696,91.167,175.865,89.191,179,88.5z M204,138.5c15.465-7.624,5.535-24.984-1-34c-6.717-3.283-7.045-12.955-16-14
					c-9.442,7.558-21.424,12.576-22,29C172.498,131.335,181.923,141.244,204,138.5z"/>
			</g>
		</g>
	</g>
</g>
<g id="Layer_2">
</g>
</svg>
