<?xml version="1.0" encoding="utf-8"?>
<!-- Generator: Adobe Illustrator 15.0.0, SVG Export Plug-In . SVG Version: 6.00 Build 0)  -->
<!DOCTYPE svg PUBLIC "-//W3C//DTD SVG 1.1//EN" "http://www.w3.org/Graphics/SVG/1.1/DTD/svg11.dtd">
<svg version="1.1" xmlns="http://www.w3.org/2000/svg" xmlns:xlink="http://www.w3.org/1999/xlink" x="0px" y="0px" width="300px"
	 height="300px" viewBox="0 0 300 300" enable-background="new 0 0 300 300" xml:space="preserve">
<g id="Layer_1">
	<g id="N1eY1c.tif">
		<g>
			<g>
				<path fill-rule="evenodd" clip-rule="evenodd" fill="#C0C0C0" d="M228.5,189c-7.835,6.165-26.414,1.586-39,3
					c-4.331-1.003-3.535-7.131-10-6c1.223-1.444,3.816-1.517,5-3c-2.575-5.758-14.804-1.863-22-3c-5.354-6-2.48-20.861-5-27
					c-3.256,0.411-2.578,4.756-4,7c-6.863-5.017-3.549-20.809-2-29c2.975,4.026-1.352,15.352,3,18c3.552-3.339,2.773-11.431,2-18
					c-1.751-14.879-4.792-33.972-3-48c-7.92,8.238-3.642,35.366-2,47c-4.045-3.315-4.53,3.613-5,7c-8.503-2.497-4.469-17.531-10-23
					c-3.625,0.708-1.378,7.288-2,11c-8.166-0.501-8.354-8.979-11-15c-4.117,2.722-2.75,6.264-1,11c-6.458,4.553-13.623-3.4-17-2
					c-2.865,4.105,5.52,4.066,6,8c-4.101,3.365-10.101,0.466-13,1c-1.83,2.33,1.73,5.674,6,5c-2.599,6.407-7.555,0.352-11-1
					c-3.508,4.238,3.049,5.094,3,9c-2.313,2.02-5.343,3.323-6,7c-2.747-1.919-4.649-4.684-4-10c-10.009-0.394-8.023-22.647-2-29
					c-3.001-2.708-5.001,1.649-6,4c-3.766-12.774,9.786-16.875,14-25c17.41-9.027,35.482-16.612,61-13
					c12.276,1.738,19.746,11.143,30,19c2.486,1.905,6.018,2.054,8,4c6.728,6.603,14.67,20.028,16,30c0.965,7.233,0.862,15.144-2,22
					c4.744,4.6,0.261,10.463,1,15C208.396,176.629,220.691,182.581,228.5,189z M116.5,110c0.384-6.949,4.094-10.572,7-15
					C117.102,91.257,107.815,107.914,116.5,110z M95.5,120c-1.928-6.015,0.345-13.365,5-18C92.647,97.292,84.792,118.294,95.5,120z
					 M187.5,143c1.754-5.67-4.317-11.499-4-19c-1,0-2,0-3,0C178.394,130.975,181.631,140.721,187.5,143z M214.5,186
					c-9.791-1.875-17.752-5.581-17-18c-1.278-0.055-1.385-1.282-3-1C189.706,180.053,204.532,193.885,214.5,186z"/>
				<path fill-rule="evenodd" clip-rule="evenodd" d="M151.5,84c0.286,18.124,3.539,47.024,4,64
					C151.141,130.289,148.667,105.594,151.5,84z"/>
				<path fill-rule="evenodd" clip-rule="evenodd" d="M122.5,95c-2.064,4.603-7.396,5.938-6,14
					C110.294,106.765,116.637,94.771,122.5,95z"/>
				<path fill-rule="evenodd" clip-rule="evenodd" d="M99.5,102c-0.691,3.976-4.397,4.936-6,8c-0.979,4.646,1.296,6.037,2,9
					C87.234,117.064,92.255,100.939,99.5,102z"/>
				<path fill-rule="evenodd" clip-rule="evenodd" d="M180.5,125c1,0,2,0,3,0c-1.508,8.508,3.413,10.587,4,17
					C182.04,139.459,180.987,132.513,180.5,125z"/>
				<path fill-rule="evenodd" clip-rule="evenodd" d="M107.5,142c-2.409-1.547-4.273-2.1,1-2c4.998,3.492,15.661-0.865,21,1
					c2.333,0,4.667,0,7,0c-0.015,1.651-2.774,0.56-3,2c-3.15-1.121-2.264-0.09-6,0c-1.078-1.655-8.922-1.655-10,0
					C113.637,143.197,110.131,143.036,107.5,142z"/>
				<path fill-rule="evenodd" clip-rule="evenodd" d="M108.5,145c1.047,2.549,4.666,5.833,3,8c-2.512-1.884-7.296-10.395-10-3
					C96.309,147.33,103.29,143.49,108.5,145z"/>
				<path fill-rule="evenodd" clip-rule="evenodd" d="M144.5,157c-3.79-4.361-8.66-9.678-16-5c2.047-7.469,12.382-4.929,15,0
					C143.007,155.14,146.947,154.642,144.5,157z"/>
				<path fill-rule="evenodd" clip-rule="evenodd" fill="#C0C0C0" d="M212.5,149c6.054-1.054,7.688,2.312,12,3
					c3.533,10.507-2.936,15.102-11,19C209.414,165.451,212.855,156.732,212.5,149z M216.5,162c6.024,1.358,3.054-6.28,5-9
					c-1.353-0.314-1.91-1.424-4-1C216.625,154.721,215.026,160.026,216.5,162z"/>
				<path fill-rule="evenodd" clip-rule="evenodd" d="M217.5,153c1,0,2,0,3,0c-1.46,1.873-0.039,6.627-2,8
					C214.114,161.056,219.182,156.551,217.5,153z"/>
				<path fill-rule="evenodd" clip-rule="evenodd" fill="#F5F5F5" d="M126.5,165c1.078-1.655,8.922-1.655,10,0
					C133.167,165,129.833,165,126.5,165z"/>
				<path fill-rule="evenodd" clip-rule="evenodd" d="M194.5,168c4.027,8.307,5.919,18.748,19,18
					C203.267,190.785,192.94,181.346,194.5,168z"/>
				<path fill-rule="evenodd" clip-rule="evenodd" d="M110.5,182c4.585-2.688,1.139,3.479,2,8c-2.882,0.451-3.128,3.539-7,3
					c0.484,3.817-0.284,6.383-2,8c2.247,1.953,7.522,0.871,10,0c0.282,1.615-0.945,1.722-1,3c-3.333,0-6.667,0-10,0
					c-3.227-4.712,1.192-7.298,1-13C109.303,191.469,111.104,187.938,110.5,182z"/>
				<path fill-rule="evenodd" clip-rule="evenodd" d="M147.5,186c0.42-4.703,3.188,2.729,7,1c-0.186,1.48-2.417,0.917-4,1
					C150.239,186.594,148.307,186.86,147.5,186z"/>
				<path fill-rule="evenodd" clip-rule="evenodd" d="M122.5,208c7.412,16.943,34.874,9.068,32-12c1.434,1.182,1.895,5.304,2,0
					c3.441,10.452-5.956,16.702-10,23c-1.758,0.575-5.875-1.209-6,1c-3.333,0-6.667,0-10,0c-3.583-5.417-11.555-6.445-13-14
					C121.414,207.382,120.264,200.463,122.5,208z"/>
				<path fill-rule="evenodd" clip-rule="evenodd" fill="#F5F5F5" d="M102.5,204c3.333,0,6.667,0,10,0
					C111.422,205.655,103.578,205.655,102.5,204z"/>
				<path fill-rule="evenodd" clip-rule="evenodd" fill="#F5F5F5" d="M130.5,220c3.333,0,6.667,0,10,0
					C139.422,221.655,131.578,221.655,130.5,220z"/>
				<path fill-rule="evenodd" clip-rule="evenodd" fill="#F5F5F5" d="M218.5,173c3-3.667,6.638-6.695,10-10
					C226.35,167.516,222.428,170.262,218.5,173z"/>
				<path fill-rule="evenodd" clip-rule="evenodd" fill="#F5F5F5" d="M180.5,202c0-2.333,0-4.667,0-7c7.019,2.377,11.604-1.971,20,1
					c-8.917-1.282-12.779,2.763-18,0C179.669,195.836,183.331,202.164,180.5,202z"/>
				<path fill-rule="evenodd" clip-rule="evenodd" fill="#B9B9B9" d="M229.5,189c-7.087,7.913-27.682,2.318-41,4
					c-2.742-7.924-15.318-6.016-23-9c4.911-3.629,13.517,2.115,18-1c-3.393-4.273-14.386-0.948-21-2c-5.293-5.47-5.104-19.148-5-27
					c-2.725,0.941-2.289,5.045-3,8c-9.217-4.332-5.66-22.039-4-32c-3.694,0.306-1.752,6.248-4,8c-8.07-2.93-6.641-15.359-10-23
					c-2.295,2.039-0.362,8.305-1,12c-6.833-2.5-11.709-6.958-12-16c-2.717,2.198-2.067,7.757,1,11c-6.044,3.02-14.704,0.056-18-3
					c-3.016,4.529,6.661,3.634,7,8c-4.258,1.529-9.782,5.041-14,1c-2.502,3.002,2.656,4.748,7,4c-1.242,2.092-2.908,3.758-5,5
					c-4.909,0.909-3.809-4.191-8-4c-0.848,4.181,2.708,3.959,4,6c-0.909,4.757-5.969,5.365-7,10c-3.453-2.214-5.773-5.56-5-12
					c-9.792,4.246-8.193-23.026-2-28c-3.819,0.848-4.812,4.521-6,8c-4.95-15.956,9.486-21.176,15-30
					c17.396-9.03,35.508-16.608,61-13c11.78,1.667,18.794,10.413,30,19c2.418,1.853,5.883,1.984,8,4
					c8.066,7.677,15.899,22.745,17,31c1.128,8.458,0.652,15.771-2,22c4.912,4.354,0.314,10.597,1,15
					C209.337,176.806,221.875,182.27,229.5,189z M206.5,165c-0.739-4.537,3.744-10.4-1-15c2.862-6.856,2.965-14.767,2-22
					c-1.33-9.972-9.272-23.397-16-30c-1.982-1.946-5.514-2.095-8-4c-10.254-7.857-17.724-17.262-30-19
					c-25.518-3.612-43.59,3.973-61,13c-4.214,8.125-17.766,12.226-14,25c0.999-2.351,2.999-6.708,6-4
					c-6.023,6.353-8.009,28.606,2,29c-0.649,5.316,1.253,8.081,4,10c0.657-3.677,3.687-4.98,6-7c0.049-3.906-6.508-4.762-3-9
					c3.445,1.352,8.401,7.407,11,1c-4.27,0.674-7.83-2.67-6-5c2.899-0.534,8.899,2.365,13-1c-0.48-3.934-8.865-3.895-6-8
					c3.377-1.4,10.542,6.553,17,2c-1.75-4.736-3.117-8.278,1-11c2.646,6.021,2.834,14.499,11,15c0.622-3.712-1.625-10.292,2-11
					c5.531,5.469,1.497,20.503,10,23c0.47-3.387,0.955-10.315,5-7c-1.642-11.634-5.92-38.762,2-47c-1.792,14.028,1.249,33.121,3,48
					c0.773,6.569,1.552,14.661-2,18c-4.352-2.648-0.025-13.974-3-18c-1.549,8.191-4.863,23.983,2,29c1.422-2.244,0.744-6.589,4-7
					c2.52,6.139-0.354,21,5,27c7.196,1.137,19.425-2.758,22,3c-1.184,1.483-3.777,1.556-5,3c6.465-1.131,5.669,4.997,10,6
					c12.586-1.414,31.165,3.165,39-3C220.691,182.581,208.396,176.629,206.5,165z M155.5,148c-0.461-16.976-3.714-45.876-4-64
					C148.667,105.594,151.141,130.289,155.5,148z"/>
				<path fill-rule="evenodd" clip-rule="evenodd" d="M120.5,72c12.333,0,24.667,0,37,0c24.745,12.255,46.55,27.451,54,57
					c0,5.333,0,10.667,0,16c0.111,1.917,3.349-1.175,6,0c5.937,2.18,10.504,8.385,14,10c-0.057,3.61-2.493,4.841-3,8
					c-3.362,3.305-7,6.333-10,10c-7.649,1.567,11.41,12.185,14,16c0,0.333,0,0.667,0,1c-1.907,1.76-3.792,3.541-6,5
					c-7.01,0.657-16.654-1.321-22,1c-2.729,0.091-2.013-1.666-4,0c-8.396-2.971-12.981,1.377-20-1c0,2.333,0,4.667,0,7
					c-2.972,13.028-12.12,19.88-22,26c-10.667,0-21.333,0-32,0c-26.983-3.207-43.03-14.138-52-36c0-2.333,0-4.667,0-7
					c3.938-10.062,11.241-16.759,16-26c-4.145-11.97-16.131-25.787-16-39c0-5.333,0-10.667,0-16
					C84.165,87.665,101.546,79.046,120.5,72z M207.5,165c-0.686-4.403,3.912-10.646-1-15c2.652-6.229,3.128-13.542,2-22
					c-1.101-8.255-8.934-23.323-17-31c-2.117-2.016-5.582-2.147-8-4c-11.206-8.587-18.22-17.333-30-19
					c-25.492-3.608-43.604,3.97-61,13c-5.514,8.824-19.95,14.044-15,30c1.188-3.479,2.181-7.152,6-8c-6.193,4.974-7.792,32.246,2,28
					c-0.773,6.44,1.547,9.786,5,12c1.031-4.635,6.091-5.243,7-10c-1.292-2.041-4.848-1.819-4-6c4.191-0.191,3.091,4.909,8,4
					c2.092-1.242,3.758-2.908,5-5c-4.344,0.748-9.502-0.998-7-4c4.218,4.041,9.742,0.529,14-1c-0.339-4.366-10.016-3.471-7-8
					c3.296,3.056,11.956,6.02,18,3c-3.067-3.243-3.717-8.802-1-11c0.291,9.042,5.167,13.5,12,16c0.638-3.695-1.295-9.961,1-12
					c3.359,7.641,1.93,20.07,10,23c2.248-1.752,0.306-7.694,4-8c-1.66,9.961-5.217,27.668,4,32c0.711-2.955,0.275-7.059,3-8
					c-0.104,7.852-0.293,21.53,5,27c6.614,1.052,17.607-2.273,21,2c-4.483,3.115-13.089-2.629-18,1c7.682,2.984,20.258,1.076,23,9
					c13.318-1.682,33.913,3.913,41-4C221.875,182.27,209.337,176.806,207.5,165z M135.5,131c-6.704-10.472-19.525-2.149-29,1
					c1.257,0.41,2.044,1.29,2,3c3.822,1.41,7.282-2.612,9,0c-0.776,0.224-1.973,0.027-2,1c-3.129-0.204-7.341,0.674-9-1
					c-4.548,7.876-19.653,12.147-13,25c3.333,0,6.667,0,10,0c6.673,2.66,7.591,11.075,16,12c0.742-3.925,4.87-4.464,7-7
					c3.333,0,6.667,0,10,0c1.376,2.291,4.985,2.349,6,5c0.333,0,0.667,0,1,0c0.138,1.862,0.658,3.342,2,4
					c-0.58,3.246,0.681,4.652,1,7c4.303-0.449,16.942,1.693,11-3c-0.224-0.776-0.027-1.973-1-2c-0.665-5.668-1.312-11.355-6-13
					c-0.112-2.555-1.833-3.5-3-5c-4.08-3.92,0.881-16.881-5-19c0.054-1.72-0.77-2.563-2-3
					C140.059,133.108,138.392,131.441,135.5,131z M213.5,172c8.117-4.27,15.73-9.038,12-20c-4.104-1.563-6.495-4.838-13-4
					C210.886,154.867,208.467,167.151,213.5,172z M109.5,177c6.446-19.695-26.25-19.683-21-1c1.148,4.086,6.021,6.715,13,7
					c-0.605-2.396-1.438-4.562-1-8C103.728,172.272,107.729,175.176,109.5,177z M127.5,168c-4.077,0.59-6.411,2.923-7,7
					c-1.622-0.716-1.622,4.716,0,4c0.125-2.209,4.242-0.425,6-1c1.14,2.193,2.581,4.086,2,8c-0.299,2.7-4.207,1.793-5,4
					c15.001,11.126,29.321-14.155,14-21C137.43,166.013,128.917,166.326,127.5,168z M115.5,174c-0.261-1.406-2.193-1.14-3-2
					c-0.636,16.707-27.333,16.27-27-1c-3.623,5.378-7.29,10.71-9,18c5.188,3.812,4.381,13.619,11,16c-0.111,3.542-3.306-2.125-3,1
					c2.662,2.338,3.762,6.238,8,7c4.934,4.399,11.54,7.126,19,9c2.039,2.295,8.305,0.362,12,1c0.221,0.779,0.837,1.163,2,1
					c9.397,0.723,29.782,3.788,36-2c7.658-3.675,13.714-8.952,15-19c2.28-1.387,0.373-6.961,1-10c2.071-0.595,6.569,1.236,7-1
					c-1.907-0.426-1.81-2.857-5-2c-5.438-1.229-11.473-1.861-16-4c-0.875-4.357-15.859-4.49-18-1c-3.825,12.288-24.08,12.093-28,0
					C116.493,181.674,119.711,174.122,115.5,174z M103.5,176c-1.646,1.553-0.428,4.666,1,6
					C106.907,180.036,106.803,177.002,103.5,176z M121.5,187c2.488,0.154,3.096-1.571,5-2c-0.564-2.436-0.856-5.144-4-5
					C120.475,181.926,120.175,184.023,121.5,187z"/>
				<path fill-rule="evenodd" clip-rule="evenodd" fill="#ECECEC" d="M145.5,174c-1.342-0.658-1.862-2.138-2-4
					c1.987-0.013,1.271-2.729,4-2C150.227,170.711,144.914,170.489,145.5,174z"/>
				<path fill-rule="evenodd" clip-rule="evenodd" fill="#F5F5F5" d="M142.5,139c5.881,2.119,0.92,15.08,5,19
					c-1.889-0.749-0.694-2.984-3-1c2.447-2.358-1.493-1.86-1-5C145.5,149.282,145.007,140.532,142.5,139z"/>
				<path fill-rule="evenodd" clip-rule="evenodd" fill="#F5F5F5" d="M135.5,131c2.892,0.441,4.559,2.108,5,5
					c-1.352-0.982-1.999-2.668-3-4c-2.6,1.531-8.606,3.416-12,1C125.727,128.669,135.273,132.553,135.5,131z"/>
				<path fill-rule="evenodd" clip-rule="evenodd" fill="#B9B9B9" d="M123.5,95c-2.906,4.428-6.616,8.051-7,15
					C107.815,107.914,117.102,91.257,123.5,95z M116.5,109c-1.396-8.062,3.936-9.397,6-14C116.637,94.771,110.294,106.765,116.5,109
					z"/>
				<path fill-rule="evenodd" clip-rule="evenodd" fill="#B9B9B9" d="M100.5,102c-4.655,4.635-6.928,11.985-5,18
					C84.792,118.294,92.647,97.292,100.5,102z M95.5,119c-0.704-2.963-2.979-4.354-2-9c1.603-3.064,5.309-4.024,6-8
					C92.255,100.939,87.234,117.064,95.5,119z"/>
				<path fill-rule="evenodd" clip-rule="evenodd" fill="#B9B9B9" d="M180.5,124c1,0,2,0,3,0c-0.317,7.501,5.754,13.33,4,19
					C181.631,140.721,178.394,130.975,180.5,124z M187.5,142c-0.587-6.413-5.508-8.492-4-17c-1,0-2,0-3,0
					C180.987,132.513,182.04,139.459,187.5,142z"/>
				<path fill-rule="evenodd" clip-rule="evenodd" fill="#FFFFFF" d="M143.5,152c-2.618-4.929-12.953-7.469-15,0
					c7.34-4.678,12.21,0.639,16,5c2.306-1.984,1.111,0.251,3,1c1.167,1.5,2.888,2.445,3,5c0.622,2.711,4.178,2.489,4,6
					c-3.188-0.854-3.796,0.871-5,2c0.573,2.427,6.47-0.47,6,3c0.541,3.516-6.609-0.732-9,2c0.163-1.162-0.221-1.779-1-2
					c-0.586-3.511,4.727-3.289,2-6c-2.729-0.729-2.013,1.987-4,2c-0.333,0-0.667,0-1,0c-1.015-2.651-4.624-2.709-6-5
					c-1.078-1.655-8.922-1.655-10,0c-2.13,2.536-6.258,3.075-7,7c-8.409-0.925-9.327-9.34-16-12c-1.064-2.27-6.286-0.381-9-1
					c-6.424-8.899,4.566-12.826,7-19c3.15-0.483,2.264,3.069,6,2c2.631,1.036,6.137,1.197,10,1c3.333,0,6.667,0,10,0
					c3.736-0.09,2.85-1.121,6,0c9.024,0.045-1.066-5.878-4-2c-5.339-1.865-16.002,2.492-21-1c-0.162-1.172-1.823-0.843-3-1
					c0.07-4.264,8.583-0.083,10-3c0.027-0.973,1.224-0.776,2-1c-1.718-2.612-5.178,1.41-9,0c0.044-1.71-0.743-2.59-2-3
					c9.475-3.149,22.296-11.472,29-1c-0.227,1.553-9.773-2.331-10,2c3.394,2.416,9.4,0.531,12-1c1.001,1.332,1.648,3.018,3,4
					c1.23,0.437,2.054,1.28,2,3C145.007,140.532,145.5,149.282,143.5,152z M101.5,150c2.704-7.395,7.488,1.116,10,3
					c1.666-2.167-1.953-5.451-3-8C103.29,143.49,96.309,147.33,101.5,150z"/>
				<path fill-rule="evenodd" clip-rule="evenodd" fill="#F5F5F5" d="M150.5,163c4.688,1.645,5.335,7.332,6,13
					c-1.369,2.227-7.557,2.942-10,1c-1.236,4.354,10.977,4.399,11,1c5.942,4.693-6.697,2.551-11,3c-0.319-2.348-1.58-3.754-1-7
					c0.779,0.221,1.163,0.838,1,2c2.391-2.732,9.541,1.516,9-2c0.47-3.47-5.427-0.573-6-3c1.204-1.129,1.812-2.854,5-2
					C154.678,165.489,151.122,165.711,150.5,163z"/>
				<path fill-rule="evenodd" clip-rule="evenodd" fill="#F5F5F5" d="M103.5,160c-3.333,0-6.667,0-10,0
					c-6.653-12.853,8.452-17.124,13-25c1.659,1.674,5.871,0.796,9,1c-1.417,2.917-9.93-1.264-10,3c1.177,0.157,2.838-0.172,3,1
					c-5.273-0.1-3.409,0.453-1,2c-3.736,1.069-2.85-2.483-6-2c-2.434,6.174-13.424,10.101-7,19
					C97.214,159.619,102.436,157.73,103.5,160z"/>
				<path fill-rule="evenodd" clip-rule="evenodd" fill="#F5F5F5" d="M133.5,143c0.226-1.44,2.985-0.349,3-2c-2.333,0-4.667,0-7,0
					C132.434,137.122,142.524,143.045,133.5,143z"/>
				<path fill-rule="evenodd" clip-rule="evenodd" fill="#B9B9B9" d="M212.5,148c6.505-0.838,8.896,2.437,13,4
					c3.73,10.962-3.883,15.73-12,20C208.467,167.151,210.886,154.867,212.5,148z M213.5,171c8.064-3.898,14.533-8.493,11-19
					c-4.312-0.688-5.946-4.054-12-3C212.855,156.732,209.414,165.451,213.5,171z"/>
				<path fill-rule="evenodd" clip-rule="evenodd" fill="#B9B9B9" d="M217.5,152c2.09-0.424,2.647,0.686,4,1
					c-1.946,2.72,1.024,10.358-5,9C215.026,160.026,216.625,154.721,217.5,152z M218.5,161c1.961-1.373,0.54-6.127,2-8c-1,0-2,0-3,0
					C219.182,156.551,214.114,161.056,218.5,161z"/>
				<path fill-rule="evenodd" clip-rule="evenodd" fill="#F5F5F5" d="M127.5,168c1.417-1.674,9.93-1.987,10,1
					C135.607,167.226,130.895,168.271,127.5,168z"/>
				<path fill-rule="evenodd" clip-rule="evenodd" fill="#B9B9B9" d="M194.5,167c1.615-0.282,1.722,0.945,3,1
					c-0.752,12.419,7.209,16.125,17,18C204.532,193.885,189.706,180.053,194.5,167z M213.5,186c-13.081,0.748-14.973-9.693-19-18
					C192.94,181.346,203.267,190.785,213.5,186z"/>
				<path fill-rule="evenodd" clip-rule="evenodd" fill="#ECECEC" d="M92.5,213c-4.238-0.762-5.338-4.662-8-7
					c-0.306-3.125,2.889,2.542,3-1c1.535,0.239,0.147,1.646-1,2C87.77,209.73,90.513,210.987,92.5,213z"/>
				<path fill-rule="evenodd" clip-rule="evenodd" fill="#F5F5F5" d="M125.5,224c11.579-1.088,27.66,2.327,36-2
					C155.282,227.788,134.897,224.723,125.5,224z"/>
				<path fill-rule="evenodd" clip-rule="evenodd" fill="#F5F5F5" d="M176.5,203c0-3.333,0-6.667,0-10c1.182-1.151,3.535-1.132,6-1
					c-0.016-1.651-2.773-0.56-3-2c3.19-0.857,3.093,1.574,5,2c-0.431,2.236-4.929,0.405-7,1
					C176.873,196.039,178.78,201.613,176.5,203z"/>
				<path fill-rule="evenodd" clip-rule="evenodd" fill="#F5F5F5" d="M115.5,174c4.211,0.122,0.993,7.674,2,11
					C114.836,183.33,118.055,175.778,115.5,174z"/>
				<path fill-rule="evenodd" clip-rule="evenodd" fill="#F5F5F5" d="M163.5,186c-2.179-3.154-8.975-1.692-14-2
					c1.883,2.784,7.054,2.28,10,4c-0.767,3.685-6.887,0.977-9,0c1.583-0.083,3.814,0.48,4-1c-3.812,1.729-6.58-5.703-7-1
					c-1.003,0.003-1.19-0.81-2-1C147.641,181.51,162.625,181.643,163.5,186z"/>
				<path fill-rule="evenodd" clip-rule="evenodd" fill="#FFFFFF" d="M104.5,182c-1.428-1.334-2.646-4.447-1-6
					C106.803,177.002,106.907,180.036,104.5,182z"/>
				<path fill-rule="evenodd" clip-rule="evenodd" fill="#F5F5F5" d="M103.5,191c4.937-0.396,6.033-4.634,7-9
					C111.104,187.938,109.303,191.469,103.5,191z"/>
				<path fill-rule="evenodd" clip-rule="evenodd" fill="#FFFFFF" d="M122.5,180c3.144-0.144,3.436,2.564,4,5
					c-1.904,0.429-2.512,2.154-5,2C120.175,184.023,120.475,181.926,122.5,180z"/>
				<path fill-rule="evenodd" clip-rule="evenodd" fill="#F5F5F5" d="M117.5,206c-1.528-2.292,7.432-6.887,5,2
					C120.264,200.463,121.414,207.382,117.5,206z"/>
				<path fill-rule="evenodd" clip-rule="evenodd" fill="#FFFFFF" d="M74.5,104c0-10.667,0-21.333,0-32c15.333,0,30.667,0,46,0
					C101.546,79.046,84.165,87.665,74.5,104z"/>
				<path fill-rule="evenodd" clip-rule="evenodd" fill="#FFFFFF" d="M74.5,120c-0.131,13.213,11.855,27.03,16,39
					c-4.759,9.241-12.062,15.938-16,26C74.5,163.333,74.5,141.667,74.5,120z"/>
				<path fill-rule="evenodd" clip-rule="evenodd" fill="#FFFFFF" d="M211.5,129c-7.45-29.549-29.255-44.745-54-57c25,0,50,0,75,0
					c0,39,0,78,0,117c-2.59-3.815-21.649-14.433-14-16c3.928-2.738,7.85-5.484,10-10c0.507-3.159,2.943-4.39,3-8
					c-3.496-1.615-8.063-7.82-14-10c0.169-2.168-3.547-0.453-5-1C211.853,139.314,213.808,132.025,211.5,129z"/>
				<path fill-rule="evenodd" clip-rule="evenodd" fill="#F5F5F5" d="M117.5,143c1.078-1.655,8.922-1.655,10,0
					C124.167,143,120.833,143,117.5,143z"/>
				<path fill-rule="evenodd" clip-rule="evenodd" fill="#F5F5F5" d="M217.5,145c-2.651-1.175-5.889,1.917-6,0
					c0-5.333,0-10.667,0-16c2.308,3.025,0.353,10.314,1,15C213.953,144.547,217.669,142.832,217.5,145z"/>
				<path fill-rule="evenodd" clip-rule="evenodd" fill="#FFFFFF" d="M100.5,175c-0.438,3.438,0.395,5.604,1,8
					c-6.979-0.285-11.852-2.914-13-7c-5.25-18.683,27.446-18.695,21,1C107.729,175.176,103.728,172.272,100.5,175z"/>
				<path fill-rule="evenodd" clip-rule="evenodd" fill="#F5F5F5" d="M120.5,175c-1.411,4.41,5.984,0.017,6,3
					c-1.758,0.575-5.875-1.209-6,1C118.878,179.716,118.878,174.284,120.5,175z"/>
				<path fill-rule="evenodd" clip-rule="evenodd" fill="#FFFFFF" d="M156.5,176c0.973,0.027,0.776,1.224,1,2
					c-0.023,3.399-12.236,3.354-11-1C148.943,178.942,155.131,178.227,156.5,176z"/>
				<path fill-rule="evenodd" clip-rule="evenodd" fill="#FFFFFF" d="M137.5,169c15.321,6.845,1.001,32.126-14,21
					c0.793-2.207,4.701-1.3,5-4c0.581-3.914-0.86-5.807-2-8c-0.016-2.983-7.411,1.41-6-3c0.589-4.077,2.923-6.41,7-7
					C130.895,168.271,135.607,167.226,137.5,169z"/>
				<path fill-rule="evenodd" clip-rule="evenodd" fill="#FFFFFF" d="M87.5,205c-6.619-2.381-5.812-12.188-11-16
					c1.71-7.29,5.377-12.622,9-18c-0.333,17.27,26.364,17.707,27,1c0.807,0.86,2.739,0.594,3,2c2.555,1.778-0.664,9.33,2,11
					c3.92,12.093,24.175,12.288,28,0c0.81,0.19,0.997,1.003,2,1c0.807,0.86,2.739,0.594,3,2c2.113,0.977,8.233,3.685,9,0
					c-2.946-1.72-8.117-1.216-10-4c5.025,0.308,11.821-1.154,14,2c4.527,2.139,10.562,2.771,16,4c0.227,1.44,2.984,0.349,3,2
					c-2.465-0.132-4.818-0.151-6,1c0,3.333,0,6.667,0,10c-1.286,10.048-7.342,15.325-15,19c-8.34,4.327-24.421,0.912-36,2
					c-1.163,0.163-1.779-0.221-2-1c-2.039-2.295-8.305-0.362-12-1c-7.46-1.874-14.066-4.601-19-9c-1.987-2.013-4.73-3.27-6-6
					C87.647,206.646,89.035,205.239,87.5,205z M110.5,182c-0.967,4.366-2.063,8.604-7,9c0.192,5.702-4.227,8.288-1,13
					c1.078,1.655,8.922,1.655,10,0c0.055-1.278,1.282-1.385,1-3c-2.478,0.871-7.753,1.953-10,0c1.716-1.617,2.484-4.183,2-8
					c3.872,0.539,4.118-2.549,7-3C111.639,185.479,115.085,179.312,110.5,182z M122.5,208c2.432-8.887-6.528-4.292-5-2
					c1.445,7.555,9.417,8.583,13,14c1.078,1.655,8.922,1.655,10,0c0.125-2.209,4.242-0.425,6-1c4.044-6.298,13.441-12.548,10-23
					c-0.105,5.304-0.566,1.182-2,0C157.374,217.068,129.912,224.943,122.5,208z"/>
				<path fill-rule="evenodd" clip-rule="evenodd" fill="#FFFFFF" d="M200.5,196c1.987-1.666,1.271,0.091,4,0
					c7.01-0.657,16.654,1.321,22-1c2.208-1.459,4.093-3.24,6-5c0,12.667,0,25.333,0,38c-24.667,0-49.333,0-74,0
					c9.88-6.12,19.028-12.972,22-26c2.831,0.164-0.831-6.164,2-6C187.721,198.763,191.583,194.718,200.5,196z"/>
				<path fill-rule="evenodd" clip-rule="evenodd" fill="#FFFFFF" d="M74.5,192c8.97,21.862,25.017,32.793,52,36
					c-17.333,0-34.667,0-52,0C74.5,216,74.5,204,74.5,192z"/>
				<path fill-rule="evenodd" clip-rule="evenodd" fill="#F5F5F5" d="M204.5,196c5.346-2.321,14.99-0.343,22-1
					C221.154,197.321,211.51,195.343,204.5,196z"/>
				<path fill-rule="evenodd" clip-rule="evenodd" fill="#F5F5F5" d="M111.5,222c3.695,0.638,9.961-1.295,12,1
					C119.805,222.362,113.539,224.295,111.5,222z"/>
			</g>
		</g>
	</g>
</g>
<g id="Layer_2">
</g>
</svg>
