<?xml version="1.0" encoding="utf-8"?>
<!-- Generator: Adobe Illustrator 15.0.0, SVG Export Plug-In . SVG Version: 6.00 Build 0)  -->
<!DOCTYPE svg PUBLIC "-//W3C//DTD SVG 1.1//EN" "http://www.w3.org/Graphics/SVG/1.1/DTD/svg11.dtd">
<svg version="1.1" xmlns="http://www.w3.org/2000/svg" xmlns:xlink="http://www.w3.org/1999/xlink" x="0px" y="0px" width="300px"
	 height="300px" viewBox="0 0 300 300" enable-background="new 0 0 300 300" xml:space="preserve">
<g id="Layer_1">
	<g id="tatx8h.tif">
		<g id="XMLID_2_">
			<g>
				<path fill="#FFFFFF" d="M223.519,205.785c0,10.33,0,20.67,0,31c-4.67,0-9.33,0-14,0c3.77-10.9,8.7-20.63,13-31
					C222.849,205.785,223.188,205.785,223.519,205.785z"/>
				<path fill="#808080" d="M223.519,199.105c0,2.229,0,4.449,0,6.68c-0.33,0-0.67,0-1,0c0-2.67,0-5.33,0-8c0.19,0,0.38,0,0.57,0
					C223.169,198.266,223.318,198.715,223.519,199.105z"/>
				<path fill="#FFFFFF" d="M223.519,55.785c0,22.54,0,45.08,0,67.62c-1.09-3.69-2.01-7.42-2.7-11.23
					c-1.14-6.34-10.78-3.65-9.64,2.65c0.47,2.59,1.04,5.14,1.71,7.67c-0.08,0.13-0.15,0.26-0.22,0.39
					c-0.051-0.03-0.101-0.07-0.15-0.1c-11.08-12.25-12.41-34.26-25-45c0-1-0.81-1.19-1-2c-2.25-3.09-4.91-5.75-8-8
					c-0.33,0-0.67,0-1,0c-1.33-1-3.72-0.95-4-3c-2.03-0.53-1.48-2.38-0.87-3.95c6.32,2.7,10.93,8.36,15.73,13.18
					c6.68,6.73,14.569,12.15,21.59,18.52c4.76,4.32,11.85-2.73,7.069-7.07c-7.76-7.05-16.329-13.12-23.67-20.62
					c-3.13-3.2-6.29-6.4-9.8-9.06C196.889,55.785,210.198,55.785,223.519,55.785z"/>
				<path fill="#FFFFFF" d="M223.089,197.785c-0.19,0-0.38,0-0.57,0c-0.04-3.29-1.69-4.98-1-9c0-5.33,0-10.67,0-16
					c0.13-0.06,0.24-0.16,0.35-0.3c0.551,8.149,0.801,16.34,1.131,24.51C223.009,197.266,223.038,197.535,223.089,197.785z"/>
				<path d="M222.519,197.785c0,2.67,0,5.33,0,8c-4.3,10.37-9.23,20.1-13,31c-0.67,0-1.33,0-2,0c-0.41-2.41,1.83-2.17,1-5
					c1.17-0.17,1.09-1.58,1-3c1.49-1.51,1.61-4.39,2-7c2-1.33,2.23-4.44,3-7c1.75-2.25,2.38-5.62,4-8c1.76-0.24,2.28-1.72,2-4
					c1.65-0.14,1.65-6.86,0-7c-4.5-10.11,0.62-25.57-3-35c-0.17-1.5,0.36-3.69-1-4c0-1,0-2,0-3c-0.2-3.97-0.11-4.1,2.89-3.04
					c0.471,2.67,0.86,5.35,1.19,8.04c0,0.01,0,0.01,0,0.02c-0.15,1.961-0.64,4.23,0.55,4.841c0.13,1.39,0.26,2.79,0.37,4.189
					c0,1.65,0,3.3,0,4.95c-1.66,3.04-1.66,12.96,0,16C220.828,192.805,222.479,194.495,222.519,197.785z"/>
				<path fill="#FDFDFD" d="M221.519,167.835c0.13,1.55,0.25,3.101,0.35,4.65c-0.109,0.14-0.22,0.24-0.35,0.3
					C221.519,171.135,221.519,169.485,221.519,167.835z"/>
				<path fill="#808080" d="M221.519,172.785c0,5.33,0,10.67,0,16C219.858,185.745,219.858,175.825,221.519,172.785z"/>
				<path fill="#808080" d="M220.599,158.805c0.2,1.61,0.38,3.221,0.55,4.841C219.959,163.035,220.448,160.766,220.599,158.805z"/>
				<path fill="#808080" d="M220.519,195.785c1.65,0.14,1.65,6.86,0,7c0-0.33,0-0.67,0-1c0-1.67,0-3.33,0-5
					C220.519,196.455,220.519,196.115,220.519,195.785z"/>
				<path fill="#FDFDFD" d="M220.519,202.785c0.28,2.28-0.24,3.76-2,4c-0.06-0.61-0.15-1.18-1-1c-0.33,0-0.67,0-1,0
					c-1.49-3.33,3.2-15.48,0-13c2.14-8.86,0.48-21.52,1-32c3.62,9.43-1.5,24.89,3,35c0,0.33,0,0.67,0,1c-2.69-0.03-2.69,5.03,0,5
					C220.519,202.115,220.519,202.455,220.519,202.785z"/>
				<path fill="#FFFFFF" d="M220.519,196.785c0,1.67,0,3.33,0,5C217.828,201.815,217.828,196.755,220.519,196.785z"/>
				<path fill="#808080" d="M218.688,146.845c0.26,1.3,0.5,2.6,0.72,3.9c-3-1.06-3.09-0.93-2.89,3.04c-0.33,0-0.67,0-1,0
					c0-1.33,0-2.67,0-4c0.89-2.75,4.06,2.33,3-3C218.578,146.795,218.639,146.825,218.688,146.845z"/>
				<path d="M218.519,146.005c0.06,0.28,0.12,0.56,0.17,0.84c-0.05-0.02-0.11-0.05-0.17-0.06
					C218.519,146.525,218.519,146.265,218.519,146.005z"/>
				<path fill="#FDFDFD" d="M218.519,146.785c1.06,5.33-2.11,0.25-3,3c-1,1.71-2.2,6.69-4,2c4.63-1.04-1.33-5.06-2-9
					c-0.8-3.47,1.49-3.84,1-7c3.3,2.36,1.97,9.36,6,11c0.36-6.03-3.13-8.2-4-13c1.12-0.21,1.56-1.11,2-2
					c0.08,0.04,0.15,0.1,0.22,0.14c1.57,4.63,2.8,9.33,3.78,14.08C218.519,146.265,218.519,146.525,218.519,146.785z"/>
				<path fill="#FFFFFF" d="M217.519,205.785c0.85-0.18,0.94,0.39,1,1c-1.62,2.38-2.25,5.75-4,8c-2.39-2.68,1.33-5.32,2-8
					C217.129,206.726,217.698,206.635,217.519,205.785z"/>
				<path fill="#FEFEFE" d="M217.519,205.785c0.18,0.85-0.39,0.94-1,1c-3.08,0.25-3.07,3.6-5,5c0.17-3.49,2.3-5.03,5-6
					C216.849,205.785,217.188,205.785,217.519,205.785z"/>
				<path fill="#FFFFFF" d="M143.789,128.385c1.28-1.52,2.81,2.02,3.73-0.6c1.06,4.07,2.85,5.17,6,5c-3.13,4.37,3.37,6.22,6,8
					c-0.16,1.17-1.82,0.84-3,1c1.73,2.8,2.62,0.94,6,1c-2.06-1.76-0.88-3.1-2-4c-1.15-0.35-2.53-1.76-1-2c1.78,0.55,4.15,0.51,5,2
					c-0.8,0.53-1.62,1.04-3,1c1.67,1.33,2.13,3.87,6,3c1.13-0.19,0.56-1,0-1c0.16-1.17,1.82-0.84,3-1c1.76,0.58,5.88-1.21,6,1
					c0.39,1.93,11.81,1.28,9,0c1.01-1.66,4.25-1.09,6-2c4.23-0.15,0.02,1.57-1,2c2.55,2.93,6.71-0.95,9,1c-0.73-0.93-1.82-1.52-3-2
					c1.56-2.44,5.39-2.61,6-6c1.2-2.8,1.1-6.9,1-11c1.09-0.25,0.68-1.99,2-2c1.34,0.66,1.86,2.14,2,4c0.09,1.42,0.17,2.83-1,3
					c0.42-2.09-0.69-2.65-1-4c-2.43,3.15-0.35,10.31,1,13c4.73,2.96,0.79-3.61,3-5c1.17,0.16,0.84,1.82,1,3c0.49,3.16-1.8,3.53-1,7
					c0.27,6.06,1.86,6.32,2,9c1.8,4.69,3-0.29,4-2c0,1.33,0,2.67,0,4c-3.01,0.85-1.16,6.53,0,9c2.38-1.06-2.14-4.61,1-6
					c1.36,0.31,0.83,2.5,1,4c-0.52,10.48,1.14,23.14-1,32c3.2-2.48-1.49,9.67,0,13c-2.7,0.97-4.83,2.51-5,6c0.09,1.42,0.17,2.83-1,3
					c-1.36,0.31-0.83,2.5-1,4c-3.01,1.01-1.77-2.23-2-4c-0.88,0.9-2.87,5.64-1,6c1.24,0.35-0.82,5.76,0,9c-0.33,0-0.67,0-1,0
					c1.4,2.87-2.73,5.08,0,6c0.78-0.89,1.08-2.26,1-4c1.43-1.18,1.89-5.3,2,0c0.83,2.83-1.41,2.59-1,5c-36.33,0-72.67,0-109,0
					c-0.62-2.72-1.98-4.68-4-6c-0.48-3.47-3.8-2.55-6-2c0.74-3.08-2.74-1.92-2-5c-2.66-0.01-5.71,0.38-7-1c-5.6-0.25,3.33,5.98-2,3
					c-3.21,0.21-2.43-3.57-4-5c5.52,3.26,1.82-3.16,4-6c-1.67,0-3.33,0-5,0c-0.9-2.93-0.9-3.07,0-6c-0.01-2.81-2.73,2.38-2-2
					c-3.24-1.24-0.76,3.24-4,2c-0.18-2.18,0.82-3.18,3-3c0.18-0.85-0.39-0.94-1-1c-0.62-2.71,1.27-7.94-1-9
					c-1.27-0.23-1.31-2.98,0-3c-0.68-2.19-3.32,1.89-4,3c-1.17-0.16-0.84-1.82-1-3c2.27-2.15,4.16-10.86-3-9c0-0.33,0-0.67,0-1
					c1.42,0.09,2.83,0.17,3-1c2.99-0.07,2.67-8.58,1-10c-2.21,0.12-0.42,4.24-1,6c-3.29,1.86,1.85-9.99-2-9
					c-0.55-1.45,1.17-5.17-1-5c0-1.33,0-2.67,0-4c-0.63-3.37,1.29-9.29-1-11c1.04-4.1-3.08-8.18,0-11c1.17,0.16,0.84,1.82,1,3
					c0.11,5.12,3.7,1.75,3-2c0-1.33,0-2.67,0-4c-2.22-0.55-1.42,1.91-3,2c0.16-1.16-0.22-1.78-1-2c0.51-3.16,2.94-4.39,3-8
					c2.27-1.06,0.38-6.29,1-9c-0.05-3.05,0.91-5.09,3-6c1.77-0.51,6.13-6.55,4-2c-0.85-0.18-0.94,0.39-1,1c-2.27,0.73-2.99,3.01-4,5
					c1.13,2.87,0.2,7.8,2,10c-0.18-5.59,2.14-11.64,4-16c1.86,3.82,2.03,4.11,6,2c-0.57,0.93-2.78,1.52-1,2c0,1.67,0,3.33,0,5
					c-0.33,0-0.67,0-1,0c-0.8,0.53-1.62,1.04-3,1c0,1.33,0,2.67,0,4c1.43,3.33,0.6,5.22,0,10c2.13-5.49,3.28,4.38,0,1
					c-0.09,2.73,1.67,2.01,0,4c-0.9,4.04,6.05,7.06,3,2c0.96-1.86-3-3.34,0-4c-0.18,0.85,0.39,0.94,1,1c1.14,2.19,2.58,4.09,2,8
					c-2.83-0.16,0.83,6.16-2,6c-1.49-9.6-1.34,8.4,4,7c1,0,2,0,3,0c-0.19,0.81-1,1-1,2c1.9,1.95,5.59,1.2,12,1
					c0.72-2.72-4.72,0.72-4-2c4,0,8,0,12,0c3.18,0.84-1.77,1.32-3,1c1.55,1.38,6,2.01,7,1c5.79,0.98,11.62,3.45,18,1
					c-4.77-1.9-12.62-0.71-18-2c1.09-3.44,2.53-2.95,5-2c-0.18-6.73,5.87-11.83,10-11c0.41-2.41-1.83-2.17-1-5
					c3.92,0.59,1.18-5.49,6-4c-2.61-3.19-0.28-3.8,0-9c-1.34,0.2-1.86,4.15-2,0c0-2.33,0-4.67,0-7c1.53,9.49,5.88-5.68-2-4
					c0.58-3.25-0.68-4.65-1-7c-1.67,0-3.33,0-5,0c-1.78-3.26-7.59-2.59-13-1c-3.67,0-7.33,0-11,0c-2.43-1.85,6.59-0.67,9-1
					c2.43-0.4-7.01-6.15-6-2c-1,0-2,0-3,0c0-1.33,0-2.67,0-4c3.16-0.49,3.53,1.8,7,1c3.38-2.82-0.07-6.24,2-10
					c-4.28,1.72-11.57,0.43-16,2c-0.04-2.56,0.74-1.22,2-1c1.92-0.11-1.17-3.35,0-6c6.79,2.66,4.35-7.67,9-4
					c-0.13-2.47-0.15-4.82,1-6c1.62-0.28,1.72,0.95,3,1c0.33,0,0.67,0,1,0c0.61-0.89,1.21-1.79,0-2c-1.3-2.48,2.93-4.15,0-5
					c0.9-2.71,2.24,2.29,4,2c0.05-1,2.45-4.04,1-6c0.74-2.26,5.61-0.39,8-1c6.33,0,12.67,0,19,0c1.5,0.17,3.69-0.36,4,1
					c-0.67,4.34-0.04,7.37,5,6c1.14-0.19,0.56-1,0-1c1.12-4.13,3.25,4.5,3-1c1.09,0.25,0.68,1.99,2,2c1.72-0.31-1.3-3.47,3-3
					c-1.24,3.79-1.24,7.21,0,11c0,0.33,0,0.67,0,1c-1.17,0.16-0.84,1.82-1,3c-2.05,1.82,2.87,3.54,3.84,6.12
					c0.021,0.26,0.07,0.54,0.16,0.86c0,0.01,0,0.01,0,0.02c0.04,2.56-0.74,1.22-2,1c0.21-1.08-2.16-7.3-2,0c0.78,3.44-0.56,4.78-4,4
					c0,2.33,0,4.67,0,7c2.53-3.49,6.89-10.42,10-10c-4.15,4.51-7.95,9.38-10,16c-1.17,9.27-3.23,7.21-1-1c-0.86-0.81-0.59-2.74-2-3
					c-1.65,0.44-1.65,7.56,0,8c0.02,2.36-1.72,2.94-1,6c0.31,1.36,2.5,0.83,4,1C144.798,125.845,144.458,127.275,143.789,128.385z
					 M143.769,128.405c-0.09,0.1-0.17,0.23-0.25,0.38C143.608,128.665,143.688,128.535,143.769,128.405z M139.519,196.785
					c3.93-0.07,7.52-0.48,10-2c-1.24-1.05,0.87-10.63-6-9c2.95,4.61-2.45,1.59-4,4c-2,0-4,0-6,0c0-0.67,0-1.33,0-2
					c0.15-2.23,2.52,1.3,5,0c2.26-0.56-1.21-1.56,1-3c-2.83,0.83-2.59-1.41-5-1c0-1,0-2,0-3c-1.4-0.73-2.76,0.07-3.71,0.5
					c-0.53-0.94-1.1-1.81-1.72-2.62c0.01-2.18,0.7-5.27,1.43-6.88c-2.55-0.55-4.28,0.13-5-4c0.28-2.28-0.24-3.76-2-4
					c-0.22,0.78-0.03,1.97-1,2c-3.26-1.17-10.94,0.76-17,0c-0.14,3.71-4.32,6.95-7,5c-3.42-0.42-5.7,0.3-5,4
					c-0.41,1.26-1.29,2.04-3,2c-0.04,1.38,0.47,2.2,1,3c-1.35,0.31-1.91,1.42-4,1c0,0.67,0,1.33,0,2c-1.08,5.51,0.49,10.26-1,15
					c0.67,0,1.33,0,2,0c0.78-0.22,1.97-0.03,2-1c-2.12-2.65-2.61-8.46-1-12c1.98-2.31-0.25-1.11-1-3c1.38-0.04,2.2,0.47,3,1
					c0,0.67,0,1.33,0,2c-2.33,5.31,0.72,11.25,2,16c-1.18,0.16-2.84-0.17-3,1c1.21,0.21,0.61,1.11,0,2c-0.02,2.36,1.72,2.94,1,6
					c2.05,1.15,4.77-1.57,2-2c-0.06,0.61-0.15,1.18-1,1c0-1,0-2,0-3c0.45-2.6,4.9,4.25,3,4c-0.96,2.1-3.35,7.9-1,10c4,0,8,0,12,0
					c0.22-0.78,0.03-1.97,1-2c0.3-1.97-1.35-1.98-2-3c3.41,1.82,4.8-0.13,9,0c1.03-2.64,1.5-5.83,4-7c0.22,0.78,0.03,1.97,1,2
					c0-1,0.81-1.19,1-2c4.02-0.69,5.71,0.96,9,1c0.58-0.61,2.34-4.74,0-5c1.09-7.29,6.64-2.77,10-3c6.08,1.34,6.08-3.34,0-2
					C139.519,198.115,139.519,197.455,139.519,196.785z M127.519,123.785c3.07,1.53,3.07-6.53,0-5
					C127.519,120.455,127.519,122.115,127.519,123.785z M67.519,179.785c-0.2-1.89,0.67-9.88-1-7
					C66.719,174.675,65.849,182.665,67.519,179.785z"/>
				<path d="M212.519,122.785c0.05,0.03,0.1,0.07,0.15,0.1c-0.21,0.43-0.341,0.91-0.36,1.43v0.01c-0.48,0.64-1.34-0.72-2.79-0.54
					c0.17,1.5-0.36,3.69,1,4c0.11,2.56,0.57,4.77,2,6c0.87,4.8,4.36,6.97,4,13c-4.03-1.64-2.7-8.64-6-11c-0.16-1.18,0.17-2.84-1-3
					c0.1-3.1-0.45-5.55-2-7c-0.14-1.86-0.66-3.34-2-4c0.1-3.1-0.45-5.55-2-7c-1.02-3.98-3.03-6.97-6-9c-3.42-5.25-5.89-11.45-8-18
					c-0.33-2.33-1.03-4.31-3-5c-0.51-2.82-2.42-4.25-3-7c0.9-2.71,2.24,2.29,4,2C200.108,88.525,201.438,110.535,212.519,122.785z
					 M200.519,103.785c-0.19-3.81-1.42-6.58-5-7C195.709,100.595,196.938,103.365,200.519,103.785z"/>
				<path fill="#FDFDFD" d="M216.519,153.785c0,1,0,2,0,3c-3.14,1.39,1.38,4.94-1,6c-1.16-2.47-3.01-8.15,0-9
					C215.849,153.785,216.188,153.785,216.519,153.785z"/>
				<path d="M214.578,131.455c0.061,0.15,0.11,0.31,0.16,0.47c-0.069-0.04-0.14-0.1-0.22-0.14
					C214.559,131.675,214.568,131.565,214.578,131.455z"/>
				<path fill="#FFFFFF" d="M214.578,131.455c-0.01,0.11-0.02,0.22-0.06,0.33c-0.44,0.89-0.88,1.79-2,2c-1.43-1.23-1.89-3.44-2-6
					c0.16-1.18-0.17-2.84,1-3c0.14,0.63,0.67,1.34,1.16,1.55c0.229,0.56,0.45,1.13,0.67,1.69c0,0.01,0,0.01,0,0.02
					c0.04,0.36,0.22,0.75,0.43,1.16c0.01,0.01,0.021,0.02,0.021,0.03C214.068,129.975,214.328,130.715,214.578,131.455z"/>
				<path fill="#FDFDFD" d="M211.519,211.785c1.93-1.4,1.92-4.75,5-5c-0.67,2.68-4.39,5.32-2,8c-0.77,2.56-1,5.67-3,7
					c0-0.67,0-1.33,0-2c-0.97,0.03-0.78,1.22-1,2c-2.96-1.45,1.32-3.9,0-7C211.688,214.615,211.608,213.205,211.519,211.785z"/>
				<path d="M213.349,128.045c0.15,0.38,0.3,0.77,0.43,1.16C213.568,128.795,213.389,128.405,213.349,128.045z"/>
				<path fill="#808080" d="M212.679,126.325v0.01c-0.49-0.21-1.021-0.92-1.16-1.55c-1.17,0.16-0.84,1.82-1,3
					c-1.36-0.31-0.83-2.5-1-4c1.45-0.18,2.31,1.18,2.79,0.54C212.278,124.935,212.389,125.605,212.679,126.325z"/>
				<path fill="#FEFEFE" d="M209.519,142.785c0.67,3.94,6.63,7.96,2,9C211.379,149.105,209.788,148.845,209.519,142.785z"/>
				<path fill="#FEFEFE" d="M211.519,219.785c0,0.67,0,1.33,0,2c-0.39,2.61-0.51,5.49-2,7c-2.98-5.03,0.91-4.12-3-10
					c0,0.67,0,1.33,0,2c-1.87-0.36,0.12-5.1,1-6c0.23,1.77-1.01,5.01,2,4c0.17-1.5-0.36-3.69,1-4c1.32,3.1-2.96,5.55,0,7
					C210.738,221.005,210.549,219.815,211.519,219.785z"/>
				<path fill="#FDFDFD" d="M209.519,228.785c0.09,1.42,0.17,2.83-1,3c-0.11-5.3-0.57-1.18-2,0c0-0.67,0-1.33,0-2
					c-0.82-3.24,1.24-8.65,0-9c0-0.67,0-1.33,0-2C210.429,224.665,206.538,223.755,209.519,228.785z"/>
				<path fill="#FDFDFD" d="M207.519,125.785c1.55,1.45,2.1,3.9,2,7c-2.21,1.39,1.73,7.96-3,5c1.63-2.92-1.85-4.92,0-9
					C207.688,128.615,207.608,127.205,207.519,125.785z"/>
				<path fill="#FEFEFE" d="M206.519,128.785c-1.85,4.08,1.63,6.08,0,9c-1.35-2.69-3.43-9.85-1-13
					C205.828,126.135,206.938,126.695,206.519,128.785z"/>
				<path fill="#FEFEFE" d="M206.519,231.785c0.08,1.74-0.22,3.11-1,4c-2.73-0.92,1.4-3.13,0-6c0.33,0,0.67,0,1,0
					C206.519,230.455,206.519,231.115,206.519,231.785z"/>
				<path fill="#FDFDFD" d="M203.519,114.785c1.55,1.45,2.1,3.9,2,7c-1.32,0.01-0.91,1.75-2,2c-0.33,0-0.67,0-1,0
					c0.05-2.81-0.91-6.18-3-4c-1.72-7.28-6.46-11.54-9-18c-2.25-3.09-4.91-5.75-8-8c-1.91-2.75-4.25-5.09-7-7
					c0.08-4.63,4.53-0.22,7-1c0,1.33,0,2.67,0,4c3.59,0.59,4.84-1.16,7-2c2.11,6.55,4.58,12.75,8,18c-0.81-0.19-1-1-2-1
					c2.16,4.5,6.7,6.63,7,13C203.688,117.625,203.358,115.965,203.519,114.785z M189.519,95.785c0.29-0.61,2.49-3.85,0-4
					c0.05,1.87-0.77,2.12-2,1c0,0.67,0,1.33,0,2C188.519,94.785,188.709,95.595,189.519,95.785z"/>
				<path fill="#FEFEFE" d="M203.519,123.785c0.1,4.1,0.2,8.2-1,11c-2.93-0.85,1.3-2.52,0-5c0-2,0-4,0-6
					C202.849,123.785,203.188,123.785,203.519,123.785z"/>
				<path fill="#FFFFFF" d="M203.519,114.785c-0.16,1.18,0.17,2.84-1,3c-0.3-6.37-4.84-8.5-7-13c1,0,1.19,0.81,2,1
					C200.488,107.815,202.499,110.805,203.519,114.785z"/>
				<path fill="#FDFDFD" d="M202.519,129.785c1.3,2.48-2.93,4.15,0,5c-0.61,3.39-4.44,3.56-6,6c1.18,0.48,2.27,1.07,3,2
					c-2.29-1.95-6.45,1.93-9-1c1.02-0.43,5.23-2.15,1-2c3.01-2.32,5.68-4.99,8-8c0,0.67,0,1.33,0,2c1.34-0.66,1.86-2.14,2-4
					C201.849,129.785,202.188,129.785,202.519,129.785z"/>
				<path fill="#FFFFFF" d="M202.519,123.785c0,2,0,4,0,6c-0.33,0-0.67,0-1,0c-0.14,1.86-0.66,3.34-2,4c0-0.67,0-1.33,0-2
					c1.39-3.17,1.39-8.83,0-12C201.608,117.605,202.568,120.975,202.519,123.785z"/>
				<path d="M199.519,119.785c1.39,3.17,1.39,8.83,0,12c-2.32,3.01-4.99,5.68-8,8c-1.75,0.91-4.99,0.34-6,2c-3,0-6,0-9,0
					c-0.12-2.21-4.24-0.42-6-1c-1.01-1.66-4.25-1.09-6-2c-0.85-1.49-3.22-1.45-5-2c-6.06-6.94-15.07-10.93-15-24
					c2.05-6.62,5.85-11.49,10-16c2.04-0.29,1.96-2.71,4-3c2.28-1.39,3.87-3.46,6-5c-0.24-2.58-1.72,1.37-4,0
					c0.22-0.78,0.03-1.97,1-2c2.15-1.85,7.33-0.67,11-1c1.28,0.05,1.38,1.28,3,1c2.75,1.91,5.09,4.25,7,7c2.25,3.09,4.91,5.75,8,8
					C193.059,108.245,197.799,112.505,199.519,119.785z M184.799,136.905c12.3-3.23,19.93-13.37,6.72-29.12
					c-4.53,2.96-11.31,3.81-18,2c-1.46-1.15-2.11-13.59,1-10c0,0.33,0,0.67,0,1c0.14,3.2-0.99,7.65,3,7c3.22,1.61,6.63,0.83,9-1
					c7.01-1.06-3.35-6.99-5-9c-2.18-4.49-5.51-7.82-10-10c-0.94,3.06-5.54,2.46-7,5c-0.78,0.22-1.97,0.03-2,1
					c-3.09,2.25-5.75,4.91-8,8c-1.71,1.29-3.93,2.07-4,5c-0.78,0.22-1.16,0.84-1,2c-2.46,2.47-3.99,8.45-1,11
					c2.4,13.78,17.95,19.37,31.07,18.05c3.52,0.19,6.96,0.31,8.93-1.05C187.389,136.935,186.118,136.945,184.799,136.905z"/>
				<path fill="#808080" d="M195.519,96.785c3.58,0.42,4.81,3.19,5,7C196.938,103.365,195.709,100.595,195.519,96.785z"/>
				<path fill="#FDFDFD" d="M163.729,98.795c2.79,0.1,2.63,2.29,6.79,2.99c-2.63,1.45,2.29,11.21,1,8c0-0.33,0-0.67,0-1
					c0.81,0.19,1,1,2,1c6.69,1.81,13.47,0.96,18-2c13.21,15.75,5.58,25.89-6.72,29.12c-4.521-0.14-9.681-0.91-12.28,0.88
					c2.07-0.27,4.59-0.09,7.07,0.05c-13.12,1.32-28.67-4.27-31.07-18.05c1.66,1.73,1.77,0.12,2.33-0.53
					c0.41,0.35,0.95,0.55,1.67,0.53c-0.91-0.95-1.36-0.89-1.67-0.53c-2.12-1.82-0.55-7.91-1.33-10.47c-0.16-1.16,0.22-1.78,1-2
					c1.88,1.1,12.23-12.88,4-5c2.25-3.09,4.91-5.75,8-8c-0.29,2.04-2.71,1.96-3,4c4.23,0.49,0.81-4.01,8-4c-0.16-1.17-1.82-0.84-3-1
					c1.46-2.54,6.06-1.94,7-5c4.49,2.18,7.82,5.51,10,10c1.91,2.75,4.25,5.09,7,7c-0.25,1.09-1.99,0.68-2,2
					c-2.37,1.83-5.78,2.61-9,1c0.18-0.85-0.39-0.94-1-1c-0.39-4.06,1.69-9.55-1-8c-0.89-0.78-2.26-1.08-4-1
					c-1.09,0.25-0.68,1.99-2,2c-2.65-1.75-1.02-2.07-3-5C164.969,96.965,165.419,98.795,163.729,98.795z M181.519,132.785
					C182.139,138.385,191.499,132.815,181.519,132.785L181.519,132.785z M185.519,111.785
					C174.858,110.525,179.179,114.845,185.519,111.785L185.519,111.785z M178.519,134.785c1.41-3.19-5.98-2.53-6-1
					C174.979,133.655,177.339,133.635,178.519,134.785z M168.519,128.785c-2.97-1.19-4.3,4.21-2,5
					C165.658,130.595,168.089,130.695,168.519,128.785z"/>
				<path fill="#FFFFFF" d="M189.519,91.785c2.49,0.15,0.29,3.39,0,4c-0.81-0.19-1-1-2-1c0-0.67,0-1.33,0-2
					C188.749,93.905,189.568,93.655,189.519,91.785z"/>
				<path fill="#FFFFFF" d="M186.519,82.785c1.97,0.69,2.67,2.67,3,5c-2.16,0.84-3.41,2.59-7,2c0-1.33,0-2.67,0-4
					c-2.47,0.78-6.92-3.63-7,1c-1.62,0.28-1.72-0.95-3-1c-1.67-1.6-10.72-2.1-11,1c-0.97,0.03-0.78,1.22-1,2
					c0.62,0.89,1.21,1.79,0,2c-6.18,0.25,0.81-8.02,5-9c0.67,0,1.33,0,2,0c2.01-0.22,4.05,4.46,6,1c-1.79-2.16-1.76-4.59-1-7
					c3.06,0.73,2.94-1.73,6-1c-0.96,4.91,4.91,1.44,5,3c0.17,5.06-1.53,5.04,0,8C185.828,85.455,188.578,84.765,186.519,82.785z"/>
				<path fill="#808080" d="M186.519,106.785c0.01-1.32,1.75-0.91,2-2c-2.75-1.91-5.09-4.25-7-7
					C183.169,99.795,193.528,105.725,186.519,106.785z"/>
				<path fill="#808080" d="M187.519,77.785c-1.76,0.29-3.1-4.71-4-2c-1.76-0.9-3.1-2.24-4-4c2.71-0.9-2.29-2.24-2-4
					c0.33,0,0.67,0,1,0c2.25,3.09,4.91,5.75,8,8C186.709,76.595,187.519,76.785,187.519,77.785z"/>
				<path fill="#FDFDFD" d="M186.519,82.785c2.06,1.98-0.69,2.67-3,3c-1.53-2.96,0.17-2.94,0-8c-0.09-1.56-5.96,1.91-5-3
					c-0.18-0.85,0.39-0.94,1-1c-0.24-2.58-1.72,1.37-4,0c-0.61-2.72-2.75-3.92-6-4c1.7-5.58,8.57,5.05,4-2c2.68,0.66,3.8,2.86,6,4
					c0.9,1.76,2.24,3.1,4,4C184.099,78.535,186.009,79.965,186.519,82.785z"/>
				<path d="M184.799,136.905c1.319,0.04,2.59,0.03,3.72-0.12c-1.97,1.36-5.41,1.24-8.93,1.05
					C181.379,137.655,183.139,137.345,184.799,136.905z"/>
				<path fill="#FDFDFD" d="M185.519,141.785c2.81,1.28-8.61,1.93-9,0C179.519,141.785,182.519,141.785,185.519,141.785z"/>
				<path fill="#FEFEFE" d="M181.519,132.785C191.499,132.815,182.139,138.385,181.519,132.785L181.519,132.785z"/>
				<path fill="#808080" d="M182.519,93.785c3.09,2.25,5.75,4.91,8,8C187.429,99.535,184.769,96.875,182.519,93.785z"/>
				<path fill="#FFFFFF" d="M185.519,111.785C179.179,114.845,174.858,110.525,185.519,111.785L185.519,111.785z"/>
				<path fill="#FFFFFF" d="M184.799,136.905c-1.66,0.44-3.42,0.75-5.21,0.93c-2.48-0.14-5-0.32-7.07-0.05
					C175.118,135.995,180.278,136.765,184.799,136.905z"/>
				<path fill="#FDFDFD" d="M178.519,67.785c3.09,2.25,5.75,4.91,8,8C183.429,73.535,180.769,70.875,178.519,67.785z"/>
				<path fill="#FEFEFE" d="M175.519,73.785c2.28,1.37,3.76-2.58,4,0c-0.61,0.06-1.18,0.15-1,1c-3.06-0.73-2.94,1.73-6,1
					c0.15-1.94-1.73-1.39-4-3c5,1.32,5-3.32,0-2c0-2,0-4,0-6c0.81,0.19,1,1,2,1c1.72-0.05,2.56,0.77,3,2c4.57,7.05-2.3-3.58-4,2
					C172.769,69.865,174.908,71.065,175.519,73.785z"/>
				<path fill="#FEFEFE" d="M172.519,133.785c0.02-1.53,7.41-2.19,6,1C177.339,133.635,174.979,133.655,172.519,133.785z"/>
				<path fill="#808080" d="M176.519,106.785c0.61,0.06,1.18,0.15,1,1c-3.99,0.65-2.86-3.8-3-7
					C177.349,100.625,173.688,106.945,176.519,106.785z"/>
				<path fill="#FFFFFF" d="M176.519,106.785c-2.83,0.16,0.83-6.16-2-6c0-0.33,0-0.67,0-1c0.61-0.06,1.18-0.15,1-1
					C178.209,97.235,176.129,102.725,176.519,106.785z"/>
				<path fill="#808080" d="M175.519,98.785c0.18,0.85-0.39,0.94-1,1c-3.11-3.59-2.46,8.85-1,10c-1,0-1.19-0.81-2-1
					c0-3.67,0-7.33,0-11C173.259,97.705,174.629,98.005,175.519,98.785z"/>
				<path fill="#FDFDFD" d="M168.519,72.785c2.27,1.61,4.15,1.06,4,3c-0.76,2.41-0.79,4.84,1,7c-1.95,3.46-3.99-1.22-6-1
					c0.01-1.99,2.73-1.27,2-4c-8.75-0.08-15.61,1.73-20,6c-1.24-3.79-1.24-7.21,0-11c-4.3-0.47-1.28,2.69-3,3
					c-1.32-0.01-0.91-1.75-2-2c0.25,5.5-1.88-3.13-3,1c0.56,0,1.14,0.81,0,1c-1.49-1.83-2.68-3.39,0-5c4.93,0.07,9.51,0.49,10,5
					c3.64-0.02,2.13-5.21,7-4c0,0.33,0,0.67,0,1c0,1,0.81,1.19,1,2c-5.57,0.07,1.87,6.57,3,1c1.41-0.26,1.14-2.19,2-3
					c3.81,0.75,1.52-4.06-1-3c-3.25-0.08-6.15-0.52-8-2c1.18-0.16,2.84,0.17,3-1c-0.78-0.22-1.97-0.03-2-1c1.67,0,3.33,0,5,0
					c0.01,2.35,2.73-0.37,2-2c1.9-4.5-5.09,1.45-7-3c1.5-0.17,3.69,0.36,4-1c4.22,1.11,7.59,3.07,10,6c-1,0-1.19-0.81-2-1
					c0,2,0,4,0,6C168.519,71.455,168.519,72.115,168.519,72.785z"/>
				<path fill="#FDFDFD" d="M172.648,60.835c-0.61,1.57-1.16,3.42,0.87,3.95c-5-0.33-3.12-2.72-2.22-4.47
					C171.759,60.465,172.209,60.645,172.648,60.835z"/>
				<path fill="#FFFFFF" d="M171.519,109.785c1.29,3.21-3.63-6.55-1-8c0-1-0.81-1.19-1-2c1.32-0.01,0.91-1.75,2-2
					c0,3.67,0,7.33,0,11C171.519,109.115,171.519,109.455,171.519,109.785z"/>
				<path fill="#808080" d="M172.519,85.785c-3.67,0.33-8.85-0.85-11,1C161.799,83.685,170.849,84.185,172.519,85.785z"/>
				<path fill="#FFFFFF" d="M168.519,70.785c5-1.32,5,3.32,0,2C168.519,72.115,168.519,71.455,168.519,70.785z"/>
				<path fill="#808080" d="M169.669,59.825c0.04,0.01,0.069,0.02,0.109,0.03c-2.04,0.4-5.16,0.05-5.26-1.07c1.03,0,2.05,0,3.08,0
					h0.01C168.139,59.255,168.818,59.615,169.669,59.825z"/>
				<path fill="#FEFEFE" d="M169.519,99.785c0.19,0.81,1,1,1,2c-4.16-0.7-4-2.89-6.79-2.99c1.69,0,1.24-1.83,2.79-4.01
					C168.499,97.715,166.868,98.035,169.519,99.785z"/>
				<path d="M169.519,77.785c0.73,2.73-1.99,2.01-2,4c-0.67,0-1.33,0-2,0c-7.5-0.5-9.8,4.2-15,6c-1.17-0.17-1.09-1.58-1-3
					c0-0.33,0-0.67,0-1C153.908,79.515,160.769,77.705,169.519,77.785z"/>
				<path fill="#FDFDFD" d="M170.519,140.785c-1.18,0.16-2.84-0.17-3,1c0.56,0,1.13,0.81,0,1c-3.87,0.87-4.33-1.67-6-3
					c1.38,0.04,2.2-0.47,3-1C166.269,139.695,169.509,139.125,170.519,140.785z"/>
				<path fill="#FEFEFE" d="M166.519,133.785c-2.3-0.79-0.97-6.19,2-5C168.089,130.695,165.658,130.595,166.519,133.785z"/>
				<path fill="#FFFFFF" d="M167.599,58.785c-1.03,0-2.05,0-3.08,0c-1.89,0.22-2.21-1.13-4-1c-0.02-1.65-2.77-0.56-3-2
					c2.87,0,5.73,0,8.6,0C166.219,56.915,166.688,57.995,167.599,58.785z"/>
				<path fill="#FFFFFF" d="M167.519,93.785c-7.19-0.01-3.77,4.49-8,4c0.29-2.04,2.71-1.96,3-4c0.03-0.97,1.22-0.78,2-1
					C165.698,92.945,167.358,92.615,167.519,93.785z"/>
				<path fill="#808080" d="M163.519,69.785c2.52-1.06,4.81,3.75,1,3c-2,0-4,0-6,0c0-0.33,0-0.67,0-1
					C161.999,71.745,168.028,72.345,163.519,69.785z"/>
				<path fill="#FDFDFD" d="M150.519,87.785c5.2-1.8,7.5-6.5,15-6c-4.19,0.98-11.18,9.25-5,9c-0.35,1.31-1.76,1.57-2,3
					c-2.04,0.29-1.96,2.71-4,3c-3.11-0.42-7.47,6.51-10,10c0-2.33,0-4.67,0-7c3.44,0.78,4.78-0.56,4-4c1.12-0.1,1.56,1.45,2,0
					c1.26,0.22,2.04,1.56,2-1c0-0.01,0-0.01,0-0.02c0-0.3-0.06-0.58-0.16-0.86c-0.22-2.31,1.771-2.41,2.16-4.12
					c-2.72,1.07-4.68,0.63-6-2c0.16-1.18-0.17-2.84,1-3C149.429,86.205,149.349,87.615,150.519,87.785z"/>
				<path fill="#FEFEFE" d="M158.519,72.785c2,0,4,0,6,0c-0.86,0.81-0.59,2.74-2,3c-0.93,0.61-3.69,2.33-3-1
					C159.328,73.975,158.519,73.785,158.519,72.785z"/>
				<path fill="#808080" d="M160.519,88.785c2.28,1.37,3.76-2.58,4,0c-2.13,1.54-3.72,3.61-6,5c0.24-1.43,1.65-1.69,2-3
					C161.729,90.575,161.139,89.675,160.519,88.785z"/>
				<path fill="#FFFFFF" d="M156.519,60.785c1.91,4.45,8.9-1.5,7,3c-1.31-0.13-7.24-0.15-4,1c1.4-0.08,3.82,0.22,2,1
					c-1.67,0-3.33,0-5,0c0.03,0.97,1.22,0.78,2,1c-0.16,1.17-1.82,0.84-3,1c-0.67,0-1.33,0-2,0c-0.14-1.65-6.86-1.65-7,0
					c-0.67,0-1.33,0-2,0c-2.33,0-4.67,0-7,0c-1.74,0.08-3.11-0.22-4-1c-0.16-1.17-1.82-0.84-3-1c3.82-2.84,4.11-1.02,2-4
					c0.19-1.48,2.42-0.92,4-1c1.33,0,2.67,0,4,0c-3,2.52,7.04,2.57,9,0c-2.07-0.59-6.57,1.24-7-1c3.04-0.63,8.61,1.28,10-1
					c2.39,0.61,7.25-1.26,8,1C160.209,61.145,158.019,60.615,156.519,60.785z"/>
				<path fill="#FEFEFE" d="M163.519,63.785c0.73,1.63-1.99,4.35-2,2c1.82-0.78-0.6-1.08-2-1
					C156.278,63.635,162.209,63.655,163.519,63.785z"/>
				<path fill="#FEFEFE" d="M162.519,142.785c-3.38-0.06-4.27,1.8-6-1c1.18-0.16,2.84,0.17,3-1c0-1,0.81-1.19,1-2
					C161.639,139.685,160.459,141.025,162.519,142.785z"/>
				<path fill="#FFFFFF" d="M159.519,74.785c-0.69,3.33,2.07,1.61,3,1C161.389,81.355,153.948,74.855,159.519,74.785z"/>
				<path fill="#FDFDFD" d="M160.519,138.785c-0.19,0.81-1,1-1,2c-2.63-1.78-9.13-3.63-6-8c-3.15,0.17-4.94-0.93-6-5
					c-0.92,2.62-2.45-0.92-3.73,0.6c0.67-1.11,1.01-2.54,0.73-4.6c-1.5-0.17-3.69,0.36-4-1c-0.72-3.06,1.02-3.64,1-6
					c0.17-2.59-0.86-7.95,2-5c-2.23,8.21-0.17,10.27,1,1c-0.07,13.07,8.94,17.06,15,24
					C157.988,137.025,159.368,138.435,160.519,138.785z"/>
				<path fill="#808080" d="M157.519,55.785c0.23,1.44,2.98,0.35,3,2c-5.42-1.87-11.21-0.49-17,0c0.23-1.44,2.98-0.35,3-2
					C150.188,55.785,153.849,55.785,157.519,55.785z"/>
				<path fill="#FFFFFF" d="M154.519,101.785c8.23-7.88-2.12,6.1-4,5C150.588,103.855,152.809,103.075,154.519,101.785z"/>
				<path fill="#808080" d="M153.519,67.785c-2.33,0-4.67,0-7,0C146.659,66.135,153.379,66.135,153.519,67.785z"/>
				<path fill="#FEFEFE" d="M148.519,87.785c1.32,2.63,3.28,3.07,6,2c-0.39,1.71-2.38,1.81-2.16,4.12
					C151.389,91.325,146.469,89.605,148.519,87.785z"/>
				<path fill="#FFFFFF" d="M152.519,119.785c-0.72,0.02-1.26-0.18-1.67-0.53C151.158,118.895,151.608,118.835,152.519,119.785z"/>
				<path fill="#FFFFFF" d="M152.358,93.905c0.101,0.28,0.16,0.56,0.16,0.86C152.429,94.445,152.379,94.165,152.358,93.905z"/>
				<path fill="#808080" d="M142.519,59.785c1.39-2.28,6.96-0.37,10-1C151.129,61.065,145.559,59.155,142.519,59.785z"/>
				<path fill="#FEFEFE" d="M148.519,95.785c-0.16-7.3,2.21-1.08,2,0C150.079,97.235,149.639,95.685,148.519,95.785z"/>
				<path fill="#FFFFFF" d="M150.849,119.255c-0.56,0.65-0.67,2.26-2.33,0.53c-2.99-2.55-1.46-8.53,1-11
					C150.298,111.345,148.729,117.435,150.849,119.255z"/>
				<path fill="#FDFDFD" d="M142.519,59.785c0.43,2.24,4.93,0.41,7,1c-1.96,2.57-12,2.52-9,0c-1.33,0-2.67,0-4,0
					C136.639,58.575,140.759,60.365,142.519,59.785z"/>
				<path fill="#FDFDFD" d="M142.519,55.785c1.33,0,2.67,0,4,0c-0.02,1.65-2.77,0.56-3,2c-0.67,0-1.33,0-2,0c-0.33,0-0.67,0-1,0
					C140.528,56.465,142.269,56.875,142.519,55.785z"/>
				<path fill="#FDFDFD" d="M149.519,194.785c-2.48,1.52-6.07,1.93-10,2c0,0.67,0,1.33,0,2s0,1.33,0,2c-3.36,0.23-8.91-4.29-10,3
					c0,0.67,0,1.33,0,2c-3.47-2.07-4.65-0.22-7-3c-2.02,2.05,0.41,2,2,3c0.72,2.72-4.72-0.72-4,2c-0.19,0.81-1,1-1,2
					c-0.97-0.03-0.78-1.22-1-2c-2.5,1.17-2.97,4.36-4,7c-4.2-0.13-5.59,1.82-9,0c0.65,1.02,2.3,1.03,2,3c-0.97,0.03-0.78,1.22-1,2
					c-4,0-8,0-12,0c-0.34-4.34,0.72-7.28,3-9c-1.16,0.16-1.78-0.22-2-1c1.9,0.25-2.55-6.6-3-4c-1.09-0.25-0.68-1.99-2-2
					c0.61-0.89,1.21-1.79,0-2c0.16-1.17,1.82-0.84,3-1c3.91,2.76,8.03,5.31,11,9c-2.12,2.22-6.56,2.11-6,7
					c14.57-4.76,21.47-17.2,37-21c0.98-2.68,6.29-1.04,8-3c1.22-0.11,2.37-0.3,2-2c-0.12-2.21-4.24-0.42-6-1
					c1.55-2.41,6.95,0.61,4-4C150.389,184.155,148.278,193.735,149.519,194.785z"/>
				<path d="M145.519,190.785c0.37,1.7-0.78,1.89-2,2c-4.02-0.35-7.32,0.02-8,3c-15.53,3.8-22.43,16.24-37,21
					c-0.56-4.89,3.88-4.78,6-7c-2.97-3.69-7.09-6.24-11-9c-1.28-4.75-4.33-10.69-2-16c8.26-17.32,27.76-19.16,37.57-6.12
					c-0.01,0.95,0.12,1.72,0.43,2.12c0.07,0.97,0.55,0.85,1.29,0.5c1.1,1.92,2.02,4.09,2.71,6.5c0,0.67,0,1.33,0,2c2,0,4,0,6,0
					C141.278,190.365,145.398,188.575,145.519,190.785z M108.519,205.785c7.9,0.03,11.93-12.68,21-12c-0.94-22.79-32.85-26.95-19-4
					c-6.37,0.04-5.25-7.42-10-9C87.989,187.605,99.159,205.745,108.519,205.785z"/>
				<path fill="#808080" d="M137.519,67.785c2.33,0,4.67,0,7,0C144.378,69.435,137.659,69.435,137.519,67.785z"/>
				<path fill="#FDFDFD" d="M143.769,128.405c-0.08,0.13-0.16,0.26-0.25,0.38C143.599,128.635,143.679,128.505,143.769,128.405z"/>
				<path fill="#FEFEFE" d="M141.519,108.785c1.41,0.26,1.14,2.19,2,3c-2.86-2.95-1.83,2.41-2,5
					C139.869,116.345,139.869,109.225,141.519,108.785z"/>
				<path fill="#FFFFFF" d="M84.528,55.785c19.33,0,38.66,0,57.99,0c-0.25,1.09-1.99,0.68-2,2c0.33,0,0.67,0,1,0
					c-15.78,3.88-32.48,6.85-45,14c-6.39,5.28-11.2,12.13-17,18c-1.56,0.17-2.99,0.49-4.38,0.83c1.26-1.77,1.97-3.95,1.91-6.61
					c3.26-7.56,6.79-15,9.77-22.68C87.858,58.645,86.539,56.655,84.528,55.785z"/>
				<path fill="#808080" d="M135.519,195.785c0.68-2.98,3.98-3.35,8-3C141.809,194.745,136.499,193.105,135.519,195.785z"/>
				<path fill="#FEFEFE" d="M139.519,198.785c6.08-1.34,6.08,3.34,0,2C139.519,200.115,139.519,199.455,139.519,198.785z"/>
				<path fill="#FEFEFE" d="M136.519,69.785c1.45,0.55,5.17-1.17,5,1c-2.68,1.61-1.49,3.17,0,5
					C136.479,77.155,135.849,74.125,136.519,69.785z"/>
				<path fill="#FEFEFE" d="M139.519,184.785c-2.21,1.44,1.26,2.44-1,3c-0.32-2.35-3.1-2.24-4-4
					C136.929,183.375,136.688,185.615,139.519,184.785z"/>
				<path fill="#FDFDFD" d="M138.519,187.785c-2.48,1.3-4.85-2.23-5,0c-0.69-2.41-1.61-4.58-2.71-6.5c0.95-0.43,2.31-1.23,3.71-0.5
					c0,1,0,2,0,3C135.418,185.545,138.199,185.436,138.519,187.785z"/>
				<path fill="#FDFDFD" d="M133.519,66.785c-4.12,0.12-6.26-1.74-11-1c1.58-2.08,7-0.34,9-2c-0.31-1.36-2.5-0.83-4-1
					c-0.17-2.17,3.55-0.45,5-1c2.11,2.98,1.82,1.16-2,4C131.699,65.945,133.358,65.615,133.519,66.785z"/>
				<path fill="#808080" d="M132.519,68.785c-6.33,0-12.67,0-19,0C117.548,67.125,128.489,67.125,132.519,68.785z"/>
				<path d="M130.809,181.285c-0.74,0.35-1.22,0.47-1.29-0.5c-0.31-0.4-0.44-1.17-0.43-2.12
					C129.708,179.476,130.278,180.345,130.809,181.285z"/>
				<path fill="#FEFEFE" d="M129.519,203.785c2.34,0.26,0.58,4.39,0,5c-3.29-0.04-4.98-1.69-9-1c-0.72-2.72,4.72,0.72,4-2
					c-1.59-1-4.02-0.95-2-3c2.35,2.78,3.53,0.93,7,3C129.519,205.115,129.519,204.455,129.519,203.785z"/>
				<path fill="#FFFFFF" d="M127.519,62.785c1.5,0.17,3.69-0.36,4,1c-2,1.66-7.42-0.08-9,2c0.45,1.63-5.45,1.63-5,0
					C119.659,63.595,123.028,62.625,127.519,62.785z"/>
				<path fill="#E4090B" d="M129.519,193.785c-9.07-0.68-13.1,12.03-21,12c-9.36-0.04-20.53-18.18-8-25c4.75,1.58,3.63,9.04,10,9
					C96.668,166.835,128.579,170.995,129.519,193.785z"/>
				<path fill="#FDFDFD" d="M130.519,171.785c-0.73,1.61-1.42,4.7-1.43,6.88c-9.81-13.04-29.31-11.2-37.57,6.12c0-0.67,0-1.33,0-2
					c-1.2-1.31-0.39-1.57,0-3c-0.53-0.8-1.04-1.62-1-3c1.71,0.04,2.59-0.74,3-2c1.77-1.23,2.9-3.1,5-4c2.68,1.95,6.86-1.29,7-5
					c6.06,0.76,13.74-1.17,17,0c0.18,0.85-0.39,0.94-1,1c2.6-0.14,0.02,3.06,4,1C126.239,171.915,127.969,171.235,130.519,171.785z"
					/>
				<path fill="#FEFEFE" d="M127.519,118.785c3.07-1.53,3.07,6.53,0,5C127.519,122.115,127.519,120.455,127.519,118.785z"/>
				<path fill="#FEFEFE" d="M123.519,163.785c1.76,0.24,2.28,1.72,2,4c-3.98,2.06-1.4-1.14-4-1c0.61-0.06,1.18-0.15,1-1
					C123.489,165.755,123.298,164.565,123.519,163.785z"/>
				<path fill="#FDFDFD" d="M121.519,118.785c7.88-1.68,3.53,13.49,2,4c-1.31-0.35-1.57-1.76-3-2c-3.31-0.35-4.34-3-6-5
					C115.579,115.705,119.648,111.495,121.519,118.785z"/>
				<path fill="#FDFDFD" d="M125.519,138.785c-4.82-1.49-2.08,4.59-6,4c-0.83,2.83,1.41,2.59,1,5c-4.13-0.83-10.18,4.27-10,11
					c-2.47-0.95-3.91-1.44-5,2c0,0.33,0,0.67,0,1c-1,1.01-5.45,0.38-7-1c1.23,0.32,6.18-0.16,3-1c0-0.33,0-0.67,0-1
					c0.33,0,0.67,0,1,0c2.71,1.67,4.63-6.01,9-6c0.16-1.16-0.22-1.78-1-2c3.6-7.4,11.05-10.95,12-21c0.33,0,0.67,0,1,0
					c0.14,4.15,0.66,0.2,2,0C125.239,134.985,122.909,135.595,125.519,138.785z"/>
				<path fill="#808080" d="M123.519,122.785c0,2.33,0,4.67,0,7c-0.33,0-0.67,0-1,0c0.32-3.99,0.05-7.39-2-9
					C121.949,121.025,122.208,122.435,123.519,122.785z"/>
				<path d="M120.519,120.785c2.05,1.61,2.32,5.01,2,9c-0.95,10.05-8.4,13.6-12,21c-3.09,2.25-5.75,4.91-8,8c-0.33,0-0.67,0-1,0
					c-3.7,0.64-9.96-1.29-12,1c-6.02-2.65-12.67-4.67-12-14c0.58-3.91-0.86-5.81-2-8c0-0.33,0-0.67,0-1c1.76-0.58,5.88,1.21,6-1
					c8.7,0.13,7-11.15-2-9c1.12-2.01,7.73-1.15,9,0c3.82,7.58-3.26,10.86-9,12c-2.76,0.21-1.08,12.08,2,13c0.42,3.58,3.19,4.81,7,5
					c1.72,1.66,10.28,1.66,12,0c4.92-3.41,8.85-7.82,12-13c2.27-0.73,2.99-3.01,4-5c3.7-2.16,8.84-15.47,1-17c-0.33,0-0.67,0-1,0
					c-2.45,0.11-0.21,3.31,1,3c-2.54,2.88-10.6-19.16-25-11c-2.55,0.45-4.6,1.4-6,3c-1.33,1-3.72,0.95-4,3c-1.12,0.21-1.56,1.11-2,2
					c-3.58,3.06-2.73,5.05-4,11c-1.44,0.23-0.35,2.98-2,3c-0.79-4.12,1.54-5.13,1-9c1.43-1.23,1.89-3.44,2-6
					c4.07-3.6,8.62-6.71,14-9c3.67,0,7.33,0,11,0c2.9,1.1,7.1,0.9,10,2c0.21,1.12,1.11,1.56,2,2
					C116.179,117.785,117.208,120.435,120.519,120.785z"/>
				<path fill="#FEFEFE" d="M120.519,111.785c0.32,2.35,1.58,3.75,1,7c-1.87-7.29-5.94-3.08-7-3c-0.89-0.44-1.79-0.88-2-2
					c-0.3-2.67,3.88,2.66,3-2C117.188,111.785,118.849,111.785,120.519,111.785z"/>
				<path fill="#FFFFFF" d="M115.519,127.785c2.87-1.09,7.44,1.07,4,3c-0.11-1.22-0.3-2.37-2-2c-0.16,1.18,0.17,2.84-1,3
					c-0.16-1.18,0.17-2.84-1-3C115.519,128.455,115.519,128.115,115.519,127.785z"/>
				<path fill="#FDFDFD" d="M119.519,130.785c3.44-1.93-1.13-4.09-4-3c-1.16,0.84-2.68,1.32-5,1c-0.94-3.95-0.78-5.8,1-9
					c-1.35-2.86-2.56,2.66-5,2c-0.77-4.56-2.77-2.08-6-2c-0.19-2.82,3.94-2.51,0-4c4.01-2.31-0.39-2.07-4-2c-0.33,0-0.67,0-1,0
					c-1,0-2,0-3,0c14.4-8.16,22.46,13.88,25,11c1.23-1.12,2.05-0.87,2,1c3.29-1.49-1.7-2.82-2-4c7.84,1.53,2.7,14.84-1,17
					c0-0.33,0-0.67,0-1c-2.3,1.58-10.07,10.92-4,6c-3.15,5.18-7.08,9.59-12,13c2.58-3.42,5.58-6.42,9-9c-0.9-2.71-2.24,2.29-4,2
					c0.18-0.85-0.39-0.94-1-1c2.1-2.44,1.43-2.13,1-6c3.08-0.7,1.92-0.7,5,0c-0.7-3.08-0.7-1.92,0-5c0.67,0,1.33,0,2,0
					c1.02-2.68,6.18-5.72,4-1c0.89-0.44,1.79-0.88,2-2c-0.66-1.34-2.14-1.86-4-2c-0.13-1.79,1.22-2.11,1-4c1.17,0.16,0.84,1.82,1,3
					c1.17-0.16,0.84-1.82,1-3C119.219,128.415,119.409,129.565,119.519,130.785z"/>
				<path fill="#FFFFFF" d="M117.519,121.785c0.3,1.18,5.29,2.51,2,4c0.05-1.87-0.77-2.12-2-1c-1.21,0.31-3.45-2.89-1-3
					C116.849,121.785,117.188,121.785,117.519,121.785z"/>
				<path fill="#FEFEFE" d="M123.519,162.785c-6.38,2.45-12.21-0.02-18-1c0-0.33,0-0.67,0-1
					C110.898,162.075,118.749,160.885,123.519,162.785z"/>
				<path fill="#FEFEFE" d="M118.519,134.785c-0.21,1.12-1.11,1.56-2,2c2.18-4.72-2.98-1.68-4,1c-0.15-2.49,1.57-3.1,2-5
					C116.378,132.925,117.858,133.445,118.519,134.785z"/>
				<path fill="#FFFFFF" d="M116.519,137.785c0,0.33,0,0.67,0,1c-1.01,1.99-1.73,4.27-4,5
					C106.449,148.705,114.219,139.365,116.519,137.785z"/>
				<path fill="#FDFDFD" d="M115.519,111.785c0.88,4.66-3.3-0.67-3,2c-2.9-1.1-7.1-0.9-10-2c0-0.33,0-0.67,0-1
					C107.929,109.195,113.739,108.525,115.519,111.785z"/>
				<path fill="#FEFEFE" d="M115.519,128.785c0.22,1.89-1.13,2.21-1,4c-2.66,0.34-3.38,2.62-4,5c-0.7,3.08-0.7,1.92,0,5
					c-3.08-0.7-1.92-0.7-5,0c0.43,3.87,1.1,3.56-1,6c0.61,0.06,1.18,0.15,1,1c0.18,0.85-0.39,0.94-1,1c-1.91-3.12-3.58,2.33-5,3
					c-3.72-1.53-2.8-2.45-2,2c-2,0-4,0-6,0c0.28-2.28-0.24-3.76-2-4c-1.54,0.53-0.06,1.04,1,1c-4.69,4.59-7.51-8.32-10-3
					c0.11-2.49,1.87-3.1,0-5c1.79,0.28,2.05-0.95,1-1c2.66-1.52,4.94-0.39,10-1c-0.43-2.24-4.93-0.41-7-1c0.76-2.58,3.19-3.47,7-3
					c-1.8-6.08,1.16-10.8-1-16c3.21-1.13-0.96-2.85-3-2c0.8-2.26,10.03-1.23,8-3c-1.77-0.23-5.01,1.01-4-2c0.61-1.39,3.85-0.15,4-2
					c0.33,0,0.67,0,1,0c0.23,1.44,2.98,0.35,3,2c-1.42-0.09-2.83-0.17-3,1c1.58-0.08,3.81,0.48,4-1c3.94,1.49-0.19,1.18,0,4
					c3.23-0.08,5.23-2.56,6,2c2.44,0.66,3.65-4.86,5-2c-1.78,3.2-1.94,5.05-1,9c2.32,0.32,3.84-0.16,5-1
					C115.519,128.115,115.519,128.455,115.519,128.785z"/>
				<path fill="#FFFFFF" d="M114.519,132.785c-0.43,1.9-2.15,2.51-2,5c-0.67,0-1.33,0-2,0
					C111.139,135.405,111.858,133.125,114.519,132.785z"/>
				<path fill="#FFFFFF" d="M110.519,150.785c0.78,0.22,1.16,0.84,1,2c-4.37-0.01-6.29,7.67-9,6
					C105.608,156.535,108.269,153.875,110.519,150.785z"/>
				<path fill="#FFFFFF" d="M105.519,149.785c1.76,0.29,3.1-4.71,4-2c-3.42,2.58-6.42,5.58-9,9c-4,0-8,0-12,0
					c0.17-1.17,1.58-1.09,3-1c2,0,4,0,6,0c4.28,0.28,5.1-2.9,7-5C105.128,150.725,105.699,150.635,105.519,149.785z"/>
				<path fill="#FDFDFD" d="M105.519,69.785c1.45,1.96-0.95,5-1,6c-1.76,0.29-3.1-4.71-4-2c2.93,0.85-1.3,2.52,0,5
					c-3.14,0.49-2.64-3.45-5-1c0.9,1.13,2.24-0.06,4,2c0,0.33,0,0.67,0,1c-1.28-0.05-1.38-1.28-3-1c-1.15,1.18-1.13,3.53-1,6
					c-4.65-3.67-2.21,6.66-9,4c-1.17,2.65,1.92,5.89,0,6c-1.26-0.22-2.04-1.56-2,1c4.43-1.57,11.72-0.28,16-2
					c-2.07,3.76,1.38,7.18-2,10c-3.47,0.8-3.84-1.49-7-1c0,1.33,0,2.67,0,4c1,0,2,0,3,0c1.75,0.91,4.99,0.34,6,2
					c-2.41,0.33-11.43-0.85-9,1c0,0.33,0,0.67,0,1c-5.38,2.29-9.93,5.4-14,9c-0.56-2.26-1.56,1.21-3-1c0-0.33,0-0.67,0-1
					c0.33,0,0.67,0,1,0c1.05-1.95,2.01-3.99,3-6c-1.62-0.28-1.72,0.95-3,1c-1.78-0.48,0.43-1.07,1-2c-3.97,2.11-4.14,1.82-6-2
					c-0.33,0-0.67,0-1,0c2.13-4.55-2.23,1.49-4,2c5.65-8.35,13.93-14.07,19-23c3.09-2.25,5.75-4.91,8-8c0-1,0.81-1.19,1-2
					c2.75-1.91,5.09-4.25,7-7C102.429,71.355,102.329,68.925,105.519,69.785z M96.519,100.785c1.17-0.17,1.09-1.58,1-3
					c-2.07-2.33-8.67-0.73-10,1c1,0,2,0,3,0c-5.14,4.19-14.9,3.77-16,12c2.83-0.17,4.17-1.83,7-2c1.5,1.17,2.45,2.89,5,3
					c1.15-3.15-1.57-2.43-2-4c1.72,0.26,6.3-2.26,2-2C88.509,102.775,94.528,103.795,96.519,100.785z M82.519,96.785
					C77.239,103.335,88.079,101.625,82.519,96.785L82.519,96.785z"/>
				<path fill="#808080" d="M110.519,150.785c-2.25,3.09-4.91,5.75-8,8C104.769,155.695,107.429,153.035,110.519,150.785z"/>
				<path fill="#FDFDFD" d="M99.519,153.785c1.42-0.67,3.09-6.12,5-3c-1.9,2.1-2.72,5.28-7,5
					C96.719,151.335,95.798,152.255,99.519,153.785z"/>
				<path fill="#808080" d="M102.519,110.785c0,0.33,0,0.67,0,1c-3.67,0-7.33,0-11,0c0-0.33,0-0.67,0-1
					C95.188,110.785,98.849,110.785,102.519,110.785z"/>
				<path fill="#808080" d="M101.519,158.785c0,0.33,0,0.67,0,1c-4,0-8,0-12,0C91.559,157.495,97.818,159.425,101.519,158.785z"/>
				<path fill="#FFFFFF" d="M96.519,113.785c3.61-0.07,8.01-0.31,4,2c-0.19,1.48-2.42,0.92-4,1c0.17-1.17,1.58-1.09,3-1
					C99.499,114.135,96.749,115.225,96.519,113.785z"/>
				<path fill="#FEFEFE" d="M100.519,78.785c1.21,0.21,0.61,1.11,0,2c-0.33,0-0.67,0-1,0c0-0.33,0-0.67,0-1c-1.76-2.06-3.1-0.87-4-2
					C97.878,75.335,97.378,79.275,100.519,78.785z"/>
				<path fill="#FEFEFE" d="M94.519,107.785c-1.01-4.15,8.43,1.6,6,2C99.509,108.125,96.269,108.695,94.519,107.785z"/>
				<path fill="#808080" d="M88.519,156.785c4,0,8,0,12,0C98.798,158.445,90.239,158.445,88.519,156.785z"/>
				<path fill="#FDFDFD" d="M98.519,236.785c-1,0-2,0-3,0c-4.47-5.2-13.53-5.8-18-11c5.33,2.98-3.6-3.25,2-3
					c0.61,0.89,1.21,1.79,0,2c1.51,0.29,3.43,2.77,7,1c1.24,3.88,3.3,4.72,6,5c-0.03,0.97-1.22,0.78-2,1c0.27,2.36,3.73-0.09,4-1
					C96.539,232.105,97.898,234.065,98.519,236.785z"/>
				<path fill="#FEFEFE" d="M93.519,174.785c-0.7-3.7,1.58-4.42,5-4C96.418,171.686,95.289,173.555,93.519,174.785z"/>
				<path fill="#808080" d="M97.519,97.785c0.09,1.42,0.17,2.83-1,3c1.01-3.01-2.23-1.77-4-2
					C92.349,96.615,96.068,98.335,97.519,97.785z"/>
				<path fill="#FEFEFE" d="M95.519,209.785c0.22,0.78,0.84,1.16,2,1c-2.28,1.72-3.34,4.66-3,9
					C92.168,217.686,94.559,211.885,95.519,209.785z"/>
				<path fill="#FFFFFF" d="M97.519,97.785c-1.45,0.55-5.17-1.17-5,1c-0.67,0-1.33,0-2,0c-1,0-2,0-3,0
					C88.849,97.055,95.449,95.455,97.519,97.785z"/>
				<path d="M92.519,98.785c1.77,0.23,5.01-1.01,4,2c-1.99,3.01-8.01,1.99-10,5c-2.33,0.33-4.31,1.02-5,3c-2.83,0.17-4.17,1.83-7,2
					c1.1-8.23,10.86-7.81,16-12C91.188,98.785,91.849,98.785,92.519,98.785z"/>
				<path fill="#FDFDFD" d="M95.519,117.785c2.03,1.77-7.2,0.74-8,3c-0.93,0.73-1.52,1.82-2,3c-1.91-1.88-1.81,0.59-5,0
					c0.68-2.32,3.32-2.68,4-5c-0.81,0.19-1,1-2,1c0.28-2.05,2.67-2,4-3c-2.65,4.02,3.17-0.54,5-1
					C90.509,118.795,93.749,117.555,95.519,117.785z"/>
				<path fill="#FFFFFF" d="M92.519,113.785c1,0,2,0,3,0c-0.15,1.85-3.39,0.61-4,2c-1.83,0.46-7.65,5.02-5,1
					C87.918,115.185,89.969,114.235,92.519,113.785z"/>
				<path d="M95.519,236.785c-1,0-2,0-3,0c-1.4-1.6-3.45-2.55-6-3c-8.73-2.94-12.81-10.52-19-16c-0.11,0.19-0.2,0.43-0.26,0.68
					c-0.89-1.649-1.87-3.279-2.88-4.89c-0.22-0.84-0.64-1.48-1.24-1.93l-0.01-0.011c-2.1-3.239-4.24-6.409-5.96-9.54
					c-0.28-0.52-0.55-1.04-0.78-1.56c0,0,0,0,0-0.01c0-2.54,1.04-6.101-0.87-6.74c0.06-4.39-0.4-8.26-2-11c0-0.67,0-1.33,0-2
					c-0.85-6.03-0.85-8.97,0-15c0-1.33,0-2.67,0-4c0.24-9.41-3.62-23.68,1-31c0,1.33,0,2.67,0,4c-1.66,2.05-1.66,10.95,0,13
					c0,3.67,0,7.33,0,11c0,3,0,6,0,9c0,3.33,0,6.67,0,10c-0.22,4.22,1.54,6.46,2,10c-0.43,17.1,10.6,22.73,17,33
					c1.57,1.43,0.79,5.21,4,5C81.989,230.985,91.048,231.585,95.519,236.785z"/>
				<path fill="#808080" d="M100.519,71.785c-1.91,2.75-4.25,5.09-7,7C95.429,76.035,97.769,73.695,100.519,71.785z"/>
				<path fill="#FEFEFE" d="M93.519,207.785c2.77,0.43,0.05,3.15-2,2c0.72-3.06-1.02-3.64-1-6c1.32,0.01,0.91,1.75,2,2c0,1,0,2,0,3
					C93.369,208.965,93.458,208.396,93.519,207.785z"/>
				<path fill="#FDFDFD" d="M89.519,159.785c-0.72,2.72,4.72-0.72,4,2c-6.41,0.2-10.1,0.95-12-1c0-1,0.81-1.19,1-2c-1,0-2,0-3,0
					c-0.34-3.33-4.08-3.25-4-7c2.83,0.16-0.83-6.16,2-6C76.849,155.115,83.499,157.135,89.519,159.785z"/>
				<path fill="#FFFFFF" d="M92.519,236.785c-5.33,0-10.67,0-16,0c-0.78-4.89-7.49-0.02-4-7c1.34,1,1.96,2.7,4,3
					c1.06,0.63,6,3.31,10,1C89.068,234.235,91.119,235.186,92.519,236.785z"/>
				<path fill="#FEFEFE" d="M90.519,231.785c0.78-0.22,1.97-0.03,2-1c-2.7-0.28-4.76-1.12-6-5c-3.57,1.77-5.49-0.71-7-1
					c1.21-0.21,0.61-1.11,0-2c1.29,1.38,4.34,0.99,7,1c-0.74,3.08,2.74,1.92,2,5c2.2-0.55,5.52-1.47,6,2
					C94.249,231.695,90.789,234.146,90.519,231.785z"/>
				<path fill="#FDFDFD" d="M96.519,71.785c-2.99,5.01-7.51,8.49-11,13c-2.63,1.03-3.37,3.97-6,5
					C85.318,83.915,90.128,77.065,96.519,71.785z"/>
				<path fill="#FDFDFD" d="M89.519,151.785c1.76,0.24,2.28,1.72,2,4c-1.42-0.09-2.83-0.17-3,1c-3.81-0.19-6.58-1.42-7-5
					c-0.19-0.81-1-1-1-2c2.49-5.32,5.31,7.59,10,3C89.458,152.825,87.979,152.315,89.519,151.785z"/>
				<path fill="#FDFDFD" d="M90.519,122.785c2.16,5.2-0.8,9.92,1,16c-3.81-0.47-6.24,0.42-7,3c2.07,0.59,6.57-1.24,7,1
					c-5.06,0.61-7.34-0.52-10,1c1.05,0.05,0.79,1.28-1,1c0-1.67,0-3.33,0-5c1.62-0.28,1.72,0.95,3,1c0.47-2.13-1.43-1.9-3-2
					c-0.33,0-0.67,0-1,0c5.74-1.14,12.82-4.42,9-12c-1.27-1.15-7.88-2.01-9,0c9-2.15,10.7,9.13,2,9c-2.64-0.03-6.27,0.93-5-3
					c1.27-5.95,0.42-7.94,4-11c-0.05,1.28-1.28,1.38-1,3C84.918,125.855,86.938,123.535,90.519,122.785z"/>
				<path fill="#FEFEFE" d="M91.519,179.785c-0.39,1.43-1.2,1.69,0,3c-0.8-0.53-1.62-1.04-3-1c0.75,1.89,2.98,0.69,1,3
					c-1.09-0.25-0.68-1.99-2-2c0-0.67,0-1.33,0-2C89.608,181.205,90.168,180.095,91.519,179.785z"/>
				<path fill="#FFFFFF" d="M87.519,120.785c2.04-0.85,6.21,0.87,3,2c-3.58,0.75-5.6,3.07-11,2c-0.28-1.62,0.95-1.72,1-3
					c0.44-0.89,0.88-1.79,2-2c1,0,1.19-0.81,2-1c-0.68,2.32-3.32,2.68-4,5c3.19,0.59,3.09-1.88,5,0
					C85.999,122.605,86.588,121.515,87.519,120.785z"/>
				<path fill="#FDFDFD" d="M90.519,196.785c-0.03,0.97-1.22,0.78-2,1c-0.67,0-1.33,0-2,0c1.49-4.74-0.08-9.49,1-15
					c1.32,0.01,0.91,1.75,2,2C87.909,188.325,88.398,194.135,90.519,196.785z"/>
				<path fill="#FFFFFF" d="M86.519,105.785c4.3-0.26-0.28,2.26-2,2c0.43,1.57,3.15,0.85,2,4c-2.55-0.11-3.5-1.83-5-3
					C82.208,106.805,84.188,106.115,86.519,105.785z"/>
				<path fill="#808080" d="M92.519,80.785c-2.25,3.09-4.91,5.75-8,8C86.769,85.695,89.429,83.035,92.519,80.785z"/>
				<path fill="#FFFFFF" d="M80.519,138.785c1.57,0.1,3.47-0.13,3,2c-1.28-0.05-1.38-1.28-3-1c0,1.67,0,3.33,0,5
					c1.87,1.9,0.11,2.51,0,5c0,1,0.81,1.19,1,2c-3.08-0.92-4.76-12.79-2-13C79.849,138.785,80.188,138.785,80.519,138.785z"/>
				<path fill="#FDFDFD" d="M86.519,233.785c-4,2.31-8.94-0.37-10-1c-0.44-0.89-0.88-1.79-2-2c0.16-1.17,1.82-0.84,3-1
					c-1.28-1.92-4.76-0.33-5,0c-3.49,6.98,3.22,2.11,4,7c-1.67,0-3.33,0-5,0c-0.13-0.25-0.23-0.51-0.31-0.81v-0.011
					c0.51-3.069,0.27-6.05-0.46-8.93c0.95-1.35,3.19-2.15,0.77-3.25c-0.18,0.64-0.63,1.01-1.42,1.03
					c-0.74-2.16-1.72-4.28-2.84-6.351c0.06-0.25,0.15-0.489,0.26-0.68C73.708,223.266,77.789,230.845,86.519,233.785z"/>
				<path fill="#FEFEFE" d="M82.519,96.785C88.079,101.625,77.239,103.335,82.519,96.785L82.519,96.785z"/>
				<path fill="#808080" d="M76.519,132.785c-1.27,3.93,2.36,2.97,5,3c-0.12,2.21-4.24,0.42-6,1c0,0.33,0,0.67,0,1
					c-0.61-0.06-1.18-0.15-1-1c0-0.33,0-0.67,0-1C76.168,135.765,75.079,133.015,76.519,132.785z"/>
				<path fill="#FFFFFF" d="M51.519,55.785c9.45,0,18.91,0,28.36,0c-1.15,0.51-2.14,1.45-2.7,2.89c-2.79,7.17-6.06,14.15-9.14,21.2
					c-2.52,2.56-3.81,6.98-7.32,7.79c-2.99,0.52-6.5,0.57-9.2,0.49C51.519,77.365,51.519,66.575,51.519,55.785z"/>
				<path fill="#FEFEFE" d="M79.519,158.785c-5.34,1.4-5.49-16.6-4-7C75.438,155.535,79.179,155.455,79.519,158.785z"/>
				<path fill="#FEFEFE" d="M75.519,113.785c1.28-0.05,1.38-1.28,3-1c-0.99,2.01-1.95,4.05-3,6
					C75.519,117.115,75.519,115.455,75.519,113.785z"/>
				<path fill="#FDFDFD" d="M72.519,214.785c1.67,0,3.33,0,5,0c-2.18,2.84,1.52,9.26-4,6c-6.4-10.27-17.43-15.9-17-33
					c0.61-0.06,1.18-0.15,1-1c2.16,6.17,5.56,11.11,6,19c0.35,1.15,1.76,2.53,2,1c2.06-0.54,0.24-4.73,3-2c0.61,0.06,1.18,0.15,1,1
					c-2.18-0.18-3.18,0.82-3,3c3.24,1.24,0.76-3.24,4-2c-0.73,4.38,1.99-0.81,2,2C71.619,211.715,71.619,211.855,72.519,214.785z"/>
				<path fill="#FFFFFF" d="M77.519,120.785c-0.11,2.56-0.57,4.77-2,6c-3.63-0.9,2.08-5.64-1-6c-0.56,0-1.14-0.81,0-1
					C75.958,121.995,76.958,118.525,77.519,120.785z"/>
				<path fill="#FEFEFE" d="M77.519,229.785c-1.18,0.16-2.84-0.17-3,1c1.12,0.21,1.56,1.11,2,2c-2.04-0.3-2.66-2-4-3
					C72.759,229.455,76.239,227.865,77.519,229.785z"/>
				<path fill="#FDFDFD" d="M75.519,126.785c0.54,3.87-1.79,4.88-1,9c0,0.33,0,0.67,0,1c-3,0.66,0.96,2.14,0,4
					c-1.43-0.24-1.69-1.65-3-2c1.67-1.99-0.09-1.27,0-4c3.28,3.38,2.13-6.49,0-1c0.6-4.78,1.43-6.67,0-10c2.18,0.18,3.18-0.82,3-3
					C77.599,121.145,71.889,125.885,75.519,126.785z"/>
				<path fill="#FEFEFE" d="M74.519,140.785c3.05,5.06-3.9,2.04-3-2C72.829,139.135,73.088,140.545,74.519,140.785z"/>
				<path fill="#FEFEFE" d="M74.519,120.785c0.18,2.18-0.82,3.18-3,3c0-1.33,0-2.67,0-4c1.38,0.04,2.2-0.47,3-1c0,0.33,0,0.67,0,1
					C73.378,119.975,73.958,120.785,74.519,120.785z"/>
				<path fill="#FDFDFD" d="M72.789,93.515c3.09,0.42,3.28,3.1-0.27,4.27c0.93-2.63,1.01-3.11-1.39-3.07
					C71.739,94.445,72.298,94.055,72.789,93.515z"/>
				<path fill="#FFFFFF" d="M71.519,223.785c2.42,1.1,0.18,1.9-0.77,3.25c-0.18-0.75-0.4-1.49-0.65-2.22
					C70.889,224.795,71.338,224.425,71.519,223.785z"/>
				<path fill="#FFFFFF" d="M71.519,236.785c-0.15,0-0.31,0-0.46,0c0.06-0.27,0.11-0.54,0.15-0.81
					C71.289,236.275,71.389,236.535,71.519,236.785z"/>
				<path fill="#FEFEFE" d="M69.519,109.785c0.33,0,0.67,0,1,0c-1.86,4.36-4.18,10.41-4,16c-1.8-2.2-0.87-7.13-2-10
					c2.79,2.67,3.32-2.56,4-5C68.579,110.175,68.668,109.605,69.519,109.785z"/>
				<path fill="#FEFEFE" d="M67.519,195.785c2.27,1.06,0.38,6.29,1,9c-2.76-2.73-0.94,1.46-3,2c0-2,0-4,0-6c1.32,0.01,0.91,1.75,2,2
					C67.519,200.455,67.519,198.115,67.519,195.785z"/>
				<path fill="#FDFDFD" d="M67.519,195.785c0,2.33,0,4.67,0,7c-1.09-0.25-0.68-1.99-2-2c-0.33,0-0.67,0-1,0
					c0.41-2.41-1.83-2.17-1-5c0.68-1.11,3.32-5.19,4-3C66.208,192.805,66.249,195.555,67.519,195.785z"/>
				<path fill="#FEFEFE" d="M66.519,172.785c1.67-2.88,0.8,5.11,1,7C65.849,182.665,66.719,174.675,66.519,172.785z"/>
				<path fill="#FDFDFD" d="M64.519,115.785c1.01-1.99,1.73-4.27,4-5C67.838,113.225,67.309,118.455,64.519,115.785z"/>
				<path fill="#808080" d="M65.519,200.785c0,2,0,4,0,6c-0.24,1.53-1.65,0.15-2-1c2.17,0.17,0.45-3.55,1-5
					C64.849,200.785,65.188,200.785,65.519,200.785z"/>
				<path d="M63.519,195.785c-0.83,2.83,1.41,2.59,1,5c-0.55,1.45,1.17,5.17-1,5c-0.44-7.89-3.84-12.83-6-19c0-1,0-2,0-3
					c1,0,1.19,0.81,2,1c0.13,3.54,1.64,5.69,3,8C62.679,193.965,62.349,195.625,63.519,195.785z"/>
				<path fill="#FEFEFE" d="M63.519,171.785c1.67,1.42,1.99,9.93-1,10C64.289,179.896,63.249,175.186,63.519,171.785z"/>
				<path fill="#FDFDFD" d="M63.139,211.646c0.6,0.449,1.02,1.09,1.24,1.93C63.969,212.925,63.559,212.285,63.139,211.646z"/>
				<path fill="#FDFDFD" d="M63.519,171.785c-0.27,3.4,0.77,8.11-1,10c-0.17,1.17-1.58,1.09-3,1c0-1,0.81-1.19,1-2
					c0-3.33,0-6.67,0-10c0-0.67,0-1.33,0-2c3.85-0.99-1.29,10.86,2,9C63.099,176.025,61.309,171.905,63.519,171.785z"/>
				<path fill="#FDFDFD" d="M59.519,183.785c7.16-1.86,5.27,6.85,3,9c-1.36-2.31-2.87-4.46-3-8
					C59.519,184.455,59.519,184.115,59.519,183.785z"/>
				<path fill="#FEFEFE" d="M62.519,138.785c0.7,3.75-2.89,7.12-3,2C60.829,140.435,61.088,139.025,62.519,138.785z"/>
				<path fill="#808080" d="M62.499,109.045c0.15,0.43,0.46,0.71,1.02,0.74c-0.2,0.72-0.74,1.1-1.74,1.03
					C62.028,110.235,62.269,109.645,62.499,109.045z"/>
				<path fill="#FDFDFD" d="M62.519,134.785c0,1.33,0,2.67,0,4c-1.43,0.24-1.69,1.65-3,2c-0.16-1.18,0.17-2.84-1-3c0-1,0-2,0-3
					c0.78,0.22,1.16,0.84,1,2C61.099,136.695,60.298,134.235,62.519,134.785z"/>
				<path fill="#808080" d="M62.519,117.785c-0.62,2.71,1.27,7.94-1,9C62.139,124.075,60.249,118.845,62.519,117.785z"/>
				<path d="M59.778,117.425c0.96-1.63,1.81-3.39,1.76-6.04v-0.01c0.09-0.18,0.17-0.37,0.24-0.56c1,0.07,1.54-0.31,1.74-1.03
					c3.92-3.08,6.95-7.05,9-12c3.55-1.17,3.36-3.85,0.27-4.27c0.3-0.33,0.57-0.71,0.79-1.15c0.58-0.53,1.1-1.12,1.56-1.75
					c1.39-0.34,2.82-0.66,4.38-0.83c2.63-1.03,3.37-3.97,6-5c3.49-4.51,8.01-7.99,11-13c12.52-7.15,29.22-10.12,45-14
					c0.67,0,1.33,0,2,0c5.79-0.49,11.58-1.87,17,0c1.79-0.13,2.11,1.22,4,1c0.1,1.12,3.22,1.47,5.26,1.07h0.01
					c0.521,0.13,1.021,0.29,1.511,0.46c-0.9,1.75-2.78,4.14,2.22,4.47c0.28,2.05,2.67,2,4,3c-0.29,1.76,4.71,3.1,2,4
					c-2.2-1.14-3.32-3.34-6-4c-0.44-1.23-1.28-2.05-3-2c-2.41-2.93-5.78-4.89-10-6c-0.75-2.26-5.61-0.39-8-1
					c-3.04,0.63-8.61-1.28-10,1c-1.76,0.58-5.88-1.21-6,1c-1.58,0.08-3.81-0.48-4,1c-1.45,0.55-5.17-1.17-5,1
					c-4.49-0.16-7.86,0.81-10,3c-0.45,1.63,5.45,1.63,5,0c4.74-0.74,6.88,1.12,11,1c0.89,0.78,2.26,1.08,4,1
					c0.14,1.65,6.86,1.65,7,0c0.67,0,1.33,0,2,0c2.33,0,4.67,0,7,0c0.67,0,1.33,0,2,0c1.85,1.48,4.75,1.92,8,2
					c4.51,2.56-1.52,1.96-5,2c-4.87-1.21-3.36,3.98-7,4c-0.49-4.51-5.07-4.93-10-5c0.17-2.17-3.55-0.45-5-1c-0.31-1.36-2.5-0.83-4-1
					c-4.03-1.66-14.97-1.66-19,0c-2.39,0.61-7.26-1.26-8,1c-3.19-0.86-3.09,1.57-5,2c-2.75,1.91-5.09,4.25-7,7c-0.19,0.81-1,1-1,2
					c-3.09,2.25-5.75,4.91-8,8c-5.07,8.93-13.35,14.65-19,23c-2.09,0.91-3.05,2.95-3,6c-2.27,1.06-0.38,6.29-1,9
					c-0.06,3.61-2.49,4.84-3,8c0,1,0,2,0,3c-3.08,2.82,1.04,6.9,0,11c0.63,3.37-1.29,9.29,1,11c0,1.33,0,2.67,0,4
					c0.59,2.07-1.24,6.57,1,7c0,3.33,0,6.67,0,10c-0.89,0.44-1.79,0.88-2,2c-2.17,0.17-0.45-3.55-1-5c2.44-5.67,0-12.7,0-19
					c-0.63-3.04,1.28-8.61-1-10c0-4.33,0-8.67,0-13c0.4-3.3,6.67-10.16,2-12c-0.09,0-0.17-0.02-0.24-0.04
					c0.61-2.09,1.17-4.18,1.5-6.31V117.425z"/>
				<path fill="#FFFFFF" d="M55.679,218.715c3,4.71,7.02,10.601,5.5,16.46c-0.15,0.57-0.19,1.11-0.17,1.61c-3.16,0-6.33,0-9.49,0
					c0-8.18,0-16.37,0-24.56C52.878,214.405,54.309,216.555,55.679,218.715z"/>
				<path fill="#808080" d="M60.519,168.785c0,0.67,0,1.33,0,2c-2.24-0.43-0.41-4.93-1-7
					C61.688,163.615,59.969,167.335,60.519,168.785z"/>
				<path fill="#FFFFFF" d="M61.539,111.385c0.05,2.65-0.8,4.41-1.76,6.04c0.13-0.92,0.23-1.84,0.26-2.77v-0.01
					C60.559,113.565,61.059,112.485,61.539,111.385z"/>
				<path fill="#808080" d="M60.519,180.785c-0.19,0.81-1,1-1,2c0,0.33,0,0.67,0,1s0,0.67,0,1c-0.81-0.19-1-1-2-1c0,1,0,2,0,3
					c0.18,0.85-0.39,0.94-1,1c-0.46-3.54-2.22-5.78-2-10c0.33,0,0.67,0,1,0c0.08,6.41,0.52,2.2,2,0c0.55,1.45-1.17,5.17,1,5
					C58.729,181.665,59.628,181.226,60.519,180.785z"/>
				<path fill="#808080" d="M58.519,148.785c2.29,1.71,0.37,7.63,1,11C57.229,158.075,59.148,152.155,58.519,148.785z"/>
				<path fill="#FFFFFF" d="M57.119,126.855c1.49,0,1.31-1.67,1.4-3.07c4.67,1.84-1.6,8.7-2,12c-2.83,0.16,0.83-6.16-2-6
					c-1.28,0.05-1.38,1.28-3,1c0-0.73,0-1.46,0-2.19C53.499,129.295,55.818,128.825,57.119,126.855z"/>
				<path fill="#FFFFFF" d="M57.519,158.785c0,6.3,2.44,13.33,0,19c-1.48,2.2-1.92,6.41-2,0c0-3.33,0-6.67,0-10c0-3,0-6,0-9
					c0.63-3.04-1.28-8.61,1-10C57.148,151.825,55.239,157.396,57.519,158.785z"/>
				<path fill="#808080" d="M56.519,148.785c2.28,1.39,0.37,6.96,1,10C55.239,157.396,57.148,151.825,56.519,148.785z"/>
				<path fill="#808080" d="M58.519,123.785c-0.09,1.4,0.09,3.07-1.4,3.07c0.29-0.43,0.53-0.94,0.7-1.53
					c0.16-0.53,0.31-1.06,0.46-1.58C58.349,123.765,58.429,123.785,58.519,123.785z"/>
				<path fill="#FDFDFD" d="M56.519,135.785c0,4.33,0,8.67,0,13c-2.28,1.39-0.37,6.96-1,10c-0.33,0-0.67,0-1,0c0-3.67,0-7.33,0-11
					c1.66-1.72,1.66-10.28,0-12c0-0.33,0-0.67,0-1c0-1.33,0-2.67,0-4c0-0.33,0-0.67,0-1
					C57.349,129.625,53.688,135.945,56.519,135.785z"/>
				<path fill="#808080" d="M55.519,193.785c1.91,0.64,0.87,4.2,0.87,6.74c-0.38-0.771-0.69-1.561-0.97-2.351v-0.01
					C55.539,196.615,55.809,194.925,55.519,193.785z"/>
				<path fill="#FFFFFF" d="M55.519,193.785c0.29,1.14,0.02,2.83-0.1,4.38c-1.74-4.899-2.08-10.14-2.27-15.42
					c0.11,0.021,0.23,0.04,0.37,0.04C55.119,185.525,55.579,189.396,55.519,193.785z"/>
				<path fill="#FDFDFD" d="M55.519,167.785c0,3.33,0,6.67,0,10c-0.33,0-0.67,0-1,0c0-3.33,0-6.67,0-10
					C54.849,167.785,55.188,167.785,55.519,167.785z"/>
				<path fill="#808080" d="M55.519,158.785c0,3,0,6,0,9c-0.33,0-0.67,0-1,0c0-3,0-6,0-9
					C54.849,158.785,55.188,158.785,55.519,158.785z"/>
				<path fill="#FFFFFF" d="M54.519,135.785c1.66,1.72,1.66,10.28,0,12C54.519,143.785,54.519,139.785,54.519,135.785z"/>
				<path fill="#808080" d="M54.519,135.785c0,4,0,8,0,12c-1.66-2.05-1.66-10.95,0-13C54.519,135.115,54.519,135.455,54.519,135.785
					z"/>
				<path fill="#808080" d="M54.519,129.785c0,0.33,0,0.67,0,1c-4.62,7.32-0.76,21.59-1,31c-2.83,0.16,0.83-6.16-2-6
					c0-8.33,0-16.67,0-25C53.139,131.065,53.239,129.835,54.519,129.785z"/>
				<path fill="#FDFDFD" d="M53.519,165.785c-0.85,6.03-0.85,8.97,0,15c0,0.67,0,1.33,0,2c-0.14,0-0.26-0.02-0.37-0.04
					c-0.2-5.71-0.23-11.47-1.63-16.93c0-3.34,0-6.69,0-10.03c2.83-0.16-0.83,6.16,2,6C53.519,163.115,53.519,164.455,53.519,165.785
					z"/>
				<path fill="#FFFFFF" d="M54.559,101.105c-0.88-0.61-1.96-0.93-3.04-0.94c0-0.68,0-1.37,0-2.05c3.03,0.03,6.52-0.15,9.93-0.71
					c0.58,0.08,1.21,0.06,1.88-0.08c1.31-0.29,2.51-0.7,3.63-1.27c0.76-0.26,1.49-0.55,2.21-0.87c0.67-0.04,1.33-0.19,1.96-0.47
					c2.4-0.04,2.32,0.44,1.39,3.07c-2.05,4.95-5.08,8.92-9,12c-0.56-0.03-0.87-0.31-1.02-0.74c0.52-1.37,0.98-2.77,1.32-4.22
					C65.229,98.945,56.849,96.255,54.559,101.105z"/>
			</g>
			<g>
			</g>
		</g>
	</g>
	<g>
		<g>
			<path d="M62.032,204.714c-8.526-23.307-4.619-48.473-8.086-72.613c-0.274-1.909-3.165-1.094-2.893,0.798
				c3.471,24.17-0.458,49.255,8.086,72.612C59.798,207.312,62.699,206.534,62.032,204.714L62.032,204.714z"/>
		</g>
	</g>
	<g>
		<g>
			<path d="M93.757,235.705c-8.657-3.787-16.498-8.804-22.82-15.897c-1.29-1.447-3.404,0.683-2.121,2.121
				c6.479,7.27,14.546,12.481,23.428,16.366C93.997,239.062,95.526,236.479,93.757,235.705L93.757,235.705z"/>
		</g>
	</g>
	<g>
		<g>
			<path d="M185.054,81.399c4.289,11.317,10.902,21.27,16.979,31.661c7.234,12.373,10.849,25.277,12.986,39.354
				c2.086,13.739,4.691,27.407,4.231,41.359c-0.231,7.015-1.363,13.688-3.633,20.321c-2.124,6.207-4.87,12.15-6.563,18.507
				c-0.499,1.871,2.396,2.665,2.893,0.797c3.275-12.292,9.045-23.076,10.094-35.965c1.168-14.356-1.618-28.231-3.626-42.362
				c-1.851-13.02-4.421-25.625-10.433-37.427c-6.401-12.565-15.004-23.766-20.035-37.043
				C187.268,78.811,184.367,79.586,185.054,81.399L185.054,81.399z"/>
		</g>
	</g>
	<g>
		<g>
			<path d="M60.5,180c-0.042-19.153-1.865-38.673,2.431-57.525c4.847-21.273,20.307-36.422,37.304-48.991
				c15.588-11.527,37.857-21.213,57.482-15.141c6.36,1.968,9.125,9.165,13.065,13.919c5.825,7.028,14.509,10.925,22.819,14.185
				c1.803,0.708,2.577-2.194,0.797-2.893c-10.237-4.016-18.889-9.029-25.092-18.307c-3.79-5.667-7.437-9.314-14.361-10.688
				c-20.504-4.069-41.392,5.367-57.479,17.262c-16.528,12.222-30.966,26.913-36.721,47.088c-5.621,19.702-3.29,40.9-3.246,61.092
				C57.504,181.935,60.504,181.935,60.5,180L60.5,180z"/>
		</g>
	</g>
	<g>
		<g>
			<path d="M190.295,82.243c-6.743-8.991-14.304-19.532-25.896-22.189c-1.883-0.432-2.683,2.46-0.797,2.893
				c10.754,2.466,17.852,12.476,24.104,20.811C188.851,85.285,191.457,83.792,190.295,82.243L190.295,82.243z"/>
		</g>
	</g>
	<g>
		<g>
			<path d="M114,68.5c7.433,0.938,14.887,1.097,22.371,1.074c3.71-0.012,7.419-0.066,11.129-0.074
				c4.279-0.01,8.508-0.835,12.243,1.795c1.586,1.117,3.082-1.486,1.514-2.591c-5.396-3.799-13.084-2.225-19.294-2.174
				c-9.346,0.076-18.673,0.142-27.963-1.03C112.084,65.258,112.107,68.261,114,68.5L114,68.5z"/>
		</g>
	</g>
	<g>
		<g>
			<path d="M81,124c-1,0-2,0-3,0c-1.935,0-1.935,3,0,3c1,0,2,0,3,0C82.935,127,82.935,124,81,124L81,124z"/>
		</g>
	</g>
	<g>
		<g>
			<path d="M104.601,114.446c5.28,2.137,10.455,5.161,12.075,10.977c1.423,5.109-1.466,10.744-3.968,14.989
				c-2.905,4.927-6.412,9.732-10.434,13.795c-5.729,5.785-11.941,5.798-17.517-0.271c-3.562-3.878-5.021-9.906-6.148-14.895
				c-1.119-4.948-1.737-10.711,1.165-15.147c3.854-5.893,18.279-15.751,24.666-8.833c1.314,1.424,3.431-0.702,2.121-2.121
				c-7.907-8.566-23.084,1.671-28.596,8.396c-3.71,4.526-3.502,10.261-2.749,15.767c1.067,7.806,3.944,15.901,9.791,21.35
				c12.183,11.352,24.667-7.556,30.292-16.526c3.236-5.161,5.463-11.18,4.271-17.3c-1.335-6.856-8.305-10.698-14.17-13.072
				C103.604,110.827,102.832,113.73,104.601,114.446L104.601,114.446z"/>
		</g>
	</g>
	<g>
		<g>
			<path d="M166.102,87.554c-12.8,3.313-19.486,18.022-23.048,29.547c-0.573,1.854,2.323,2.64,2.893,0.798
				c3.234-10.465,9.279-24.43,20.952-27.453C168.771,89.962,167.976,87.068,166.102,87.554L166.102,87.554z"/>
		</g>
	</g>
	<g>
		<g>
			<path d="M171.054,99.101c-2.413,11.841,13.812,13.248,19.241,5.156c1.082-1.611-1.519-3.111-2.59-1.514
				c-3.48,5.187-15.456,5.488-13.759-2.844C174.331,98.01,171.439,97.206,171.054,99.101L171.054,99.101z"/>
		</g>
	</g>
</g>
<g id="Layer_2">
</g>
</svg>
