<?xml version="1.0" encoding="utf-8"?>
<!-- Generator: Adobe Illustrator 15.0.0, SVG Export Plug-In . SVG Version: 6.00 Build 0)  -->
<!DOCTYPE svg PUBLIC "-//W3C//DTD SVG 1.1//EN" "http://www.w3.org/Graphics/SVG/1.1/DTD/svg11.dtd">
<svg version="1.1" xmlns="http://www.w3.org/2000/svg" xmlns:xlink="http://www.w3.org/1999/xlink" x="0px" y="0px" width="300px"
	 height="300px" viewBox="0 0 300 300" enable-background="new 0 0 300 300" xml:space="preserve">
<g id="Layer_1">
	<g id="lFGfPe.tif">
		<g>
			<g>
				<path fill-rule="evenodd" clip-rule="evenodd" fill="#FFFFFF" d="M170,56.5c22.333,0,44.667,0,67,0c0,47,0,94,0,141
					c-6.53-20.084,1.331-44.182-6-62c-5.555-13.5-14.42-21.945-16-37C203.202,81.298,193.736,61.764,170,56.5z"/>
				<path fill-rule="evenodd" clip-rule="evenodd" d="M216,139.5c-21.33,5.528-49.046,1.387-57-13c-3.625-10.538,0.701-18.177,4-26
					c1.839-4.361,2.693-8.421,4-10c2.766-3.341,11.398-7.543,16-7c8.989,1.062,25.836,27.933,33,37
					C213.871,127.637,216.948,134.286,216,139.5z M210,120.5c-9.768-9.899-14.187-25.147-28-31c-7.972,3.45-11.36,9.165-15,17
					c-2.292,4.933-4.924,7.675-5,10c-0.259,7.867,5.541,13.189,13,17c4.689-12.175,26.826-17.814,25,4
					C208.733,137.233,211.172,130.672,210,120.5z M170,94.5c1.721,0.054,2.563-0.77,3-2C171.279,92.446,170.437,93.27,170,94.5z
					 M187,127.5c1.496-0.17,3.69,0.357,4-1C189.671,125.202,187.279,125.182,187,127.5z M184,136.5c3.386,0.281,5.742,1.591,10,1
					c0.802-3.469-1.489-3.844-1-7C187.197,129.698,183.864,131.364,184,136.5z"/>
				<path fill-rule="evenodd" clip-rule="evenodd" fill="#FFFFFF" d="M200,137.5c1.826-21.814-20.311-16.175-25-4
					c-7.459-3.811-13.259-9.133-13-17c0.076-2.325,2.708-5.067,5-10c3.64-7.835,7.028-13.55,15-17c13.813,5.853,18.232,21.101,28,31
					C211.172,130.672,208.733,137.233,200,137.5z"/>
				<path fill-rule="evenodd" clip-rule="evenodd" fill="#FFFFFF" d="M173,92.5c-0.437,1.23-1.279,2.054-3,2
					C170.437,93.27,171.279,92.446,173,92.5z"/>
				<path fill-rule="evenodd" clip-rule="evenodd" fill="#FFFFFF" d="M211,99.5c2.134-0.467,1.904,1.429,2,3
					c-0.81-0.19-0.997-1.003-2-1C211,100.833,211,100.167,211,99.5z"/>
				<path fill-rule="evenodd" clip-rule="evenodd" d="M136,123.5c0.774,7.108-1.512,11.155-1,18c-6.039,4.961-12.793,9.207-16,17
					c-5.134,2.865-14.169,1.831-22,2c-7.707-7.946-14.968-29.755-6-43c3.59-5.301,16.121-10.308,24-10c5.915,0.231,8.633,4.358,14,5
					C127.946,119.554,133.435,120.065,136,123.5z M124,118.5c-8.969-6.417-22.703-6.597-29,2c-6.823,9.315-1.78,27.703,5,34
					c-1.03-15.267,14.594-21.288,25-11C135.461,137.616,128.006,125.932,124,118.5z M110,144.5c-0.221,4.406-1.565,6.887,1,10
					c0.626-5.04,5.917-5.416,7-10C115.683,141.49,113.741,143.91,110,144.5z"/>
				<path fill-rule="evenodd" clip-rule="evenodd" fill="#FFFFFF" d="M125,143.5c-10.406-10.288-26.03-4.267-25,11
					c-6.78-6.297-11.823-24.685-5-34c6.297-8.597,20.031-8.417,29-2C128.006,125.932,135.461,137.616,125,143.5z"/>
				<path fill-rule="evenodd" clip-rule="evenodd" fill="#FFFFFF" d="M191,126.5c-0.31,1.357-2.504,0.83-4,1
					C187.279,125.182,189.671,125.202,191,126.5z"/>
				<path fill-rule="evenodd" clip-rule="evenodd" fill="#FFFFFF" d="M224,125.5c1.759,0.241,2.279,1.721,2,4
					C224.658,128.842,224.138,127.362,224,125.5z"/>
				<path fill-rule="evenodd" clip-rule="evenodd" fill="#FFFFFF" d="M193,130.5c-0.489,3.156,1.802,3.531,1,7
					c-4.258,0.591-6.614-0.719-10-1C183.864,131.364,187.197,129.698,193,130.5z"/>
				<path fill-rule="evenodd" clip-rule="evenodd" fill="#FFFFFF" d="M230,138.5c2.169-0.168,0.453,3.547,1,5
					C229.264,142.59,228.415,139.996,230,138.5z"/>
				<path fill-rule="evenodd" clip-rule="evenodd" fill="#FFFFFF" d="M118,144.5c-1.083,4.584-6.374,4.96-7,10
					c-2.565-3.113-1.221-5.594-1-10C113.741,143.91,115.683,141.49,118,144.5z"/>
				<path fill-rule="evenodd" clip-rule="evenodd" d="M212,172.5c4.398,3.825,5.562,16.158,2,22c-21.821,3.174-44.471-2.99-63,3
					c-10.694,3.457-17.086,11.018-26,12c5.21-6.253,14.244-11.663,23-15c9.765-3.722,28.37-0.086,40-3
					C202.045,187.98,196.483,171.845,212,172.5z M196,192.5c7.119,0.786,10.123-2.544,14-5c0.228,1.772-1.008,5.008,2,4
					c1.978-4.951,1.173-13.149-2-16C201.823,177.656,201.834,188.001,196,192.5z"/>
				<path fill-rule="evenodd" clip-rule="evenodd" fill="#FFFFFF" d="M210,175.5c3.173,2.851,3.978,11.049,2,16
					c-3.008,1.008-1.772-2.228-2-4c-3.877,2.456-6.881,5.786-14,5C201.834,188.001,201.823,177.656,210,175.5z"/>
				<path fill-rule="evenodd" clip-rule="evenodd" fill="#FFFFFF" d="M237,207.5c0,12,0,24,0,36c-5.333,0-10.667,0-16,0
					c1.03-7.113,7.578-10.548,10-17c2.577-6.866,1.538-14.937,5-19C236.333,207.5,236.667,207.5,237,207.5z"/>
				<path fill-rule="evenodd" clip-rule="evenodd" fill="#FFFFFF" d="M160,56.5c-18.284,5.059-35.018,4.51-48,13
					c-7.054,4.613-13.136,13.688-19,20c-6.464,6.958-11.894,13.903-17,21c-0.644-1.008-0.606-3.442-1-7
					c0.029,13.363-8.531,18.135-7,33c-2.574,1.2,0.913-12.216-3-13c-1.562,31.896-4.75,74.083,12,91c0.099,11.901,5.077,18.923,7,29
					c-7,0-14,0-21,0c0-62.333,0-124.667,0-187C95.333,56.5,127.667,56.5,160,56.5z"/>
				<path fill-rule="evenodd" clip-rule="evenodd" fill="#FFFFFF" d="M87,243.5c1.335-5.943-0.526-13.915-3-19
					c6.204,4.137,15.566,13.762,25,18c1.835-7.341-7.258-10.74-12-15c-4.856-4.363-12.003-8.398-15-13
					c-4.708-7.229-3.711-17.49-5-27c-0.879-6.491-4.307-12.209-5-17c-1.919-13.27,0.182-36.706,4-46
					c5.415-13.18,24.173-38.464,35-47c6.267-4.94,18.713-10.854,24-12c3.044-0.66,6.813,0.483,10,0c5.983-0.908,9.405-4.693,17-5
					c25.106-1.014,34.945,19.578,44,38c6.369,12.958,19.681,34.862,22,51c1.333,9.273,0,21.174,0,32c0,11.197,1.378,23.373,0,32
					c-1.896,11.875-9.67,20.668-12,30C173,243.5,130,243.5,87,243.5z M216,120.5c-7.164-9.067-24.011-35.938-33-37
					c-4.602-0.543-13.234,3.659-16,7c-1.307,1.579-2.161,5.639-4,10c-3.299,7.823-7.625,15.462-4,26
					c7.954,14.387,35.67,18.528,57,13C216.948,134.286,213.871,127.637,216,120.5z M129,112.5c-5.367-0.642-8.085-4.769-14-5
					c-7.879-0.308-20.41,4.699-24,10c-8.968,13.245-1.707,35.054,6,43c7.831-0.169,16.866,0.865,22-2
					c3.207-7.793,9.961-12.039,16-17c-0.512-6.845,1.774-10.892,1-18C133.435,120.065,127.946,119.554,129,112.5z M188,191.5
					c-11.63,2.914-30.235-0.722-40,3c-8.756,3.337-17.79,8.747-23,15c8.914-0.982,15.306-8.543,26-12c18.529-5.99,41.179,0.174,63-3
					c3.562-5.842,2.398-18.175-2-22C196.483,171.845,202.045,187.98,188,191.5z"/>
				<path fill-rule="evenodd" clip-rule="evenodd" d="M160,56.5c3.333,0,6.667,0,10,0c23.736,5.264,33.202,24.798,45,42
					c1.58,15.055,10.445,23.5,16,37c7.331,17.818-0.53,41.916,6,62c0,3.333,0,6.667,0,10c-0.333,0-0.667,0-1,0
					c-3.462,4.063-2.423,12.134-5,19c-2.422,6.452-8.97,9.887-10,17c-1.667,0-3.333,0-5,0c2.33-9.332,10.104-18.125,12-30
					c1.378-8.627,0-20.803,0-32c0-10.826,1.333-22.727,0-32c-2.319-16.138-15.631-38.042-22-51c-9.055-18.422-18.894-39.014-44-38
					c-7.595,0.307-11.017,4.092-17,5c-3.187,0.483-6.956-0.66-10,0c-5.287,1.146-17.733,7.06-24,12
					c-10.827,8.536-29.585,33.82-35,47c-3.818,9.294-5.919,32.73-4,46c0.693,4.791,4.121,10.509,5,17c1.289,9.51,0.292,19.771,5,27
					c2.997,4.602,10.144,8.637,15,13c4.742,4.26,13.835,7.659,12,15c-9.434-4.238-18.796-13.863-25-18
					c2.474,5.085,4.335,13.057,3,19c-1,0-2,0-3,0c-1.923-10.077-6.901-17.099-7-29c-16.75-16.917-13.562-59.104-12-91
					c3.913,0.784,0.426,14.2,3,13c-1.531-14.865,7.029-19.637,7-33c0.394,3.558,0.356,5.992,1,7c5.106-7.097,10.536-14.042,17-21
					c5.864-6.312,11.946-15.387,19-20C124.982,61.01,141.716,61.559,160,56.5z M211,101.5c1.003-0.003,1.19,0.81,2,1
					c-0.096-1.571,0.134-3.467-2-3C211,100.167,211,100.833,211,101.5z M226,129.5c0.279-2.279-0.241-3.759-2-4
					C224.138,127.362,224.658,128.842,226,129.5z M231,143.5c-0.547-1.453,1.169-5.168-1-5
					C228.415,139.996,229.264,142.59,231,143.5z"/>
			</g>
		</g>
	</g>
</g>
<g id="Layer_2">
</g>
</svg>
