<?xml version="1.0" encoding="utf-8"?>
<!-- Generator: Adobe Illustrator 15.0.0, SVG Export Plug-In . SVG Version: 6.00 Build 0)  -->
<!DOCTYPE svg PUBLIC "-//W3C//DTD SVG 1.1//EN" "http://www.w3.org/Graphics/SVG/1.1/DTD/svg11.dtd">
<svg version="1.1" xmlns="http://www.w3.org/2000/svg" xmlns:xlink="http://www.w3.org/1999/xlink" x="0px" y="0px" width="300px"
	 height="300px" viewBox="0 0 300 300" enable-background="new 0 0 300 300" xml:space="preserve">
<g id="Layer_1">
	<g id="CVYQZ2.tif">
		<g>
			<g>
				<path fill-rule="evenodd" clip-rule="evenodd" fill="#FFFFFF" d="M195,123.5c-2.672-28.128-7.297-53.676-28-62
					c-26.687-10.73-52.936,9.286-54,35c-0.284,6.864,0.993,17.543,3,26c4.124,17.372,20.311,33.734,0,40
					c-6.082,10.585-12.526,20.808-13,37c0-47.333,0-94.667,0-142c30.667,0,61.333,0,92,0C195,79.5,195,101.5,195,123.5z"/>
				<path fill-rule="evenodd" clip-rule="evenodd" d="M195,123.5c0,2.333,0,4.667,0,7c-2.372,14.294-10.012,23.321-23,27
					c-6.882,8.899-6.611,26.102-18,28c-12.447,2.074-17.85-13.698-29-18c-11.164,26.255-5.825,67.445,8,86c-1.333,0-2.667,0-4,0
					c-1.43-7.236-5.435-11.898-8-18c-2.675,4.991-2.529,12.805-5,18c-0.667,0-1.333,0-2,0c6.527-25.14-1.119-64.452,7-88
					c-16.17,7.646-21.244,50.082-7,64c-2.265,0.363-4.585,0.926-1,3c-2.71,1.999-4.62,0.131-3,5c-10.508-2.158-3.301-22.032-7-31
					c0-2.333,0-4.667,0-7c0.474-16.192,6.918-26.415,13-37c20.311-6.266,4.124-22.628,0-40c-2.007-8.457-3.284-19.136-3-26
					c1.064-25.714,27.313-45.73,54-35C187.703,69.824,192.328,95.372,195,123.5z M159,62.5c-53.41-8.033-47.324,63.445-26,90
					c9.616,3.603,25.293,3.875,36,1c-2.717-1.283-7.675-0.325-7-5c3.658-0.658,3.836,2.164,7,2c0.33-4.33-5.538-2.462-5-7
					c3.988-0.989,3.012,2.989,7,2c0.18-3.26-2.351-4.813,2-5c3.267,3.814-1.74,12.508,2,14c22.49-8.479,14.392-49.449,10-72
					c-3.088-3.579-6.122-7.211-10-10c-2.491,1.446-12.982,2.35-14-1c2.057-2.61,10.038,0.705,12-2
					C168.127,65.706,165.016,63.405,159,62.5z M129,153.5c-0.798,3.201-2.954,5.046-3,9c9.436,6.796,14.892,22.124,32,18
					c4.67-5.997,6.173-15.161,10-22C155.876,157.343,137.434,160.797,129,153.5z"/>
				<path fill-rule="evenodd" clip-rule="evenodd" fill="#FFFFFF" d="M173,69.5c-1.962,2.705-9.943-0.61-12,2
					c1.018,3.35,11.509,2.446,14,1c3.878,2.789,6.912,6.421,10,10c4.392,22.551,12.49,63.521-10,72c-3.74-1.492,1.267-10.186-2-14
					c-4.351,0.187-1.82,1.74-2,5c-3.988,0.989-3.012-2.989-7-2c-0.538,4.538,5.33,2.67,5,7c-3.164,0.164-3.342-2.658-7-2
					c-0.675,4.675,4.283,3.717,7,5c-10.707,2.875-26.384,2.603-36-1c-21.324-26.555-27.41-98.033,26-90
					C165.016,63.405,168.127,65.706,173,69.5z M130,82.5c4.666-5.668,14.145-6.521,19-12C141.977,69.958,130.923,73.648,130,82.5z
					 M163,83.5c-1.499,11.452,4.567,19.706,15,16C186.852,84.566,171.811,67.49,163,83.5z M134,96.5c4.154,6.928,15.489,10.454,23,4
					c0.128-7.461,0.387-15.053-2-20C144.156,75.359,131.818,82.346,134,96.5z M141,128.5c0.329,2.337,1.202,4.131,2,6
					c6.005-4.794,8.399-8.854,18-10c13.014-1.553,23.541-0.008,25-11C175.729,122.73,149.217,120.489,141,128.5z"/>
				<path fill-rule="evenodd" clip-rule="evenodd" d="M149,70.5c-4.855,5.479-14.334,6.332-19,12
					C130.923,73.648,141.977,69.958,149,70.5z"/>
				<path fill-rule="evenodd" clip-rule="evenodd" d="M155,80.5c2.387,4.947,2.128,12.539,2,20c-7.511,6.454-18.846,2.928-23-4
					C131.818,82.346,144.156,75.359,155,80.5z M140,88.5c1.992-3.675,8.437-2.897,12-5C147.374,80.243,137.931,85.148,140,88.5z
					 M138,95.5c2.328,2.664,10.273,8.136,14,3c-3.141,0.474-4.086-1.247-5-3c1.554-1.207,3.897-3.196,6-1
					c1.374-3.164,0.218-3.342,0-7C144.958,87.125,140.144,89.978,138,95.5z"/>
				<path fill-rule="evenodd" clip-rule="evenodd" fill="#FFFFFF" d="M176,84.5c0,2.667,0,5.333,0,8c-1.313-1.283-3.687-1.283-5,0
					c0.872,1.461,0.794,3.873,4,3c0.169,2.168-3.547,0.453-5,1c-1.464-2.203-3.039-4.295-3-8
					C169.451,86.618,172.274,85.108,176,84.5z"/>
				<path fill-rule="evenodd" clip-rule="evenodd" fill="#FFFFFF" d="M153,87.5c0.218,3.658,1.374,3.836,0,7
					c-2.103-2.196-4.446-0.207-6,1c0.914,1.753,1.859,3.474,5,3c-3.727,5.136-11.672-0.336-14-3
					C140.144,89.978,144.958,87.125,153,87.5z"/>
				<path fill-rule="evenodd" clip-rule="evenodd" d="M186,113.5c-1.459,10.992-11.986,9.447-25,11c-9.601,1.146-11.995,5.206-18,10
					c-0.798-1.869-1.671-3.663-2-6C149.217,120.489,175.729,122.73,186,113.5z"/>
				<path fill-rule="evenodd" clip-rule="evenodd" fill="#FFFFFF" d="M195,130.5c0,41,0,82,0,123c-20.667,0-41.333,0-62,0
					c-13.825-18.555-19.164-59.745-8-86c11.15,4.302,16.553,20.074,29,18c11.389-1.898,11.118-19.101,18-28
					C184.988,153.821,192.628,144.794,195,130.5z"/>
				<path fill-rule="evenodd" clip-rule="evenodd" fill="#FFFFFF" d="M168,158.5c-3.827,6.839-5.33,16.003-10,22
					c-17.108,4.124-22.564-11.204-32-18c0.046-3.954,2.202-5.799,3-9C137.434,160.797,155.876,157.343,168,158.5z"/>
				<path fill-rule="evenodd" clip-rule="evenodd" fill="#FFFFFF" d="M114,253.5c-3.667,0-7.333,0-11,0c0-15.667,0-31.333,0-47
					c3.699,8.968-3.508,28.842,7,31c-1.62-4.869,0.29-3.001,3-5c-3.585-2.074-1.265-2.637,1-3c-14.244-13.918-9.17-56.354,7-64
					C112.881,189.048,120.527,228.36,114,253.5z"/>
				<path fill-rule="evenodd" clip-rule="evenodd" fill="#FFFFFF" d="M129,253.5c-4.333,0-8.667,0-13,0
					c2.471-5.195,2.325-13.009,5-18C123.565,241.602,127.57,246.264,129,253.5z"/>
				<path fill-rule="evenodd" clip-rule="evenodd" fill="#FFFFFF" d="M152,83.5c-3.563,2.103-10.008,1.325-12,5
					C137.931,85.148,147.374,80.243,152,83.5z"/>
				<path fill-rule="evenodd" clip-rule="evenodd" d="M178,99.5c-10.433,3.706-16.499-4.548-15-16
					C171.811,67.49,186.852,84.566,178,99.5z M167,88.5c-0.039,3.705,1.536,5.797,3,8c1.453-0.547,5.169,1.168,5-1
					c-3.206,0.873-3.128-1.539-4-3c1.313-1.283,3.687-1.283,5,0c0-2.667,0-5.333,0-8C172.274,85.108,169.451,86.618,167,88.5z"/>
			</g>
		</g>
	</g>
</g>
<g id="Layer_2">
</g>
</svg>
