<?xml version="1.0" encoding="utf-8"?>
<!-- Generator: Adobe Illustrator 15.0.0, SVG Export Plug-In . SVG Version: 6.00 Build 0)  -->
<!DOCTYPE svg PUBLIC "-//W3C//DTD SVG 1.1//EN" "http://www.w3.org/Graphics/SVG/1.1/DTD/svg11.dtd">
<svg version="1.1" xmlns="http://www.w3.org/2000/svg" xmlns:xlink="http://www.w3.org/1999/xlink" x="0px" y="0px" width="300px"
	 height="300px" viewBox="0 0 300 300" enable-background="new 0 0 300 300" xml:space="preserve">
<g id="Layer_1">
	<g id="lyThDX.tif">
		<g>
			<g>
				<path fill-rule="evenodd" clip-rule="evenodd" fill="#FFFFFF" d="M154.5,57.5c-16.221,6.047-32.041,6.257-45,13
					c-5.783,3.009-9.207,8.439-15,15c-9.272,10.501-16.216,15.054-22,26c-3.042-1.667,0.062-4.812-2-6
					c-1.165,7.168-1.786,14.881-6,19c0.072,6.035,3.604,8.966,0,14c-5.779,1.708-0.087-10.994-4-13c0.013,28.106-4.915,53.054,3,75
					c2.08,5.769,7.111,10.433,9,16c3.3,9.727,2.289,19.59,8,26c-7.333,0-14.667,0-22,0c0-61.667,0-123.333,0-185
					C90.5,57.5,122.5,57.5,154.5,57.5z"/>
				<path fill-rule="evenodd" clip-rule="evenodd" fill="#FFFFFF" d="M170.5,57.5c21.333,0,42.667,0,64,0c0,46.667,0,93.333,0,140
					c-6.703-8.159-3.553-20.397-4-31c-0.321-7.626-0.029-15.246-1-22c-2.508-17.449-18.791-27.784-19-45
					c-10.451-16.549-22.482-31.518-40-41C170.5,58.167,170.5,57.833,170.5,57.5z"/>
				<path fill-rule="evenodd" clip-rule="evenodd" fill="#FFFFFF" d="M214.5,242.5c-43.667,0-87.333,0-131,0
					c-3.593-6.074-7.285-12.049-7-22c6.45,9.883,16.543,16.123,29,20c-3.533-7.886-11.825-6.104-18-11
					c-6.852-5.432-11.944-18.351-15-29c-3.816-13.299-9.92-38.242-7-57c0.559-3.593,3.975-7.657,5-12c1.286-5.447-0.182-10.74,1-14
					c1.475-4.068,6.923-8.186,10-12c7.93-9.829,22.238-30.682,32-34c7.527-2.559,18.037-1.58,25-1c14.941,1.244,22.408,7.294,37,3
					c-3.595-4.405-16.092,0.092-19-5c-9.699,3.282-17.538-2.826-29-1c12.417-3.266,26.068-8.331,39-6
					c7.866,1.417,19.891,9.268,25,16c3.12,4.11,4.689,9.679,8,14c3.689,4.815,8.472,8.627,9,14c-3.991-1.675-2.584-8.75-8-9
					c-0.099,8.573,7.668,11.432,11,18c3.042,5.998,6.242,20.12,9,27c1.177,2.937,3.452,5.9,4,8c3.022,11.591,0.426,25.987,2,41
					c0.432,4.115,3.355,7.457,3,12c-0.328,4.195-5.479,11.687-8,18C218.178,228.816,215.677,236.15,214.5,242.5z M153.5,122.5
					c5.101,13.163,28.35,26.97,46,20c4.6-1.816,10.085-9.595,10-15c-0.068-4.394-4.572-17.022-11-25c-1.357-1.685-4.321-3.048-6-5
					c-5.351-6.221-11.682-13.666-23-9c-0.055,1.278-1.282,1.385-1,3c1.78,0.598,4.153-2.931,5,0
					C163.265,98.265,152.336,104.336,153.5,122.5z M85.5,122.5c-5.557,11.142,0.362,18.577,0,32c4.815,5.518,12.13,8.537,24,7
					c9.08-10.253,22.789-15.878,22-36C121.876,110.408,97.935,107.209,85.5,122.5z M169.5,195.5c-10.955,8.102-13.546,11.514-30,10
					c-12.87-1.184-25.934-2.594-28-13c-0.407-2.052,2.011-6.938-2-8c-5.219,8.985,1.917,17.326,7,22c-4.372,4.949-6.516,16.375-4,25
					c15.358,7.063,22.141-9.169,23-23c6.018,1.648,14.522,0.812,22,1c9.903-9.963,25.766-14.566,32-27
					C182.134,185.954,177.66,189.465,169.5,195.5z"/>
				<path fill-rule="evenodd" clip-rule="evenodd" d="M173.5,91.5c-0.847-2.931-3.22,0.598-5,0c-0.282-1.615,0.945-1.722,1-3
					c11.318-4.666,17.649,2.779,23,9c1.679,1.952,4.643,3.315,6,5c6.428,7.978,10.932,20.606,11,25c0.085,5.405-5.4,13.184-10,15
					c-17.65,6.97-40.899-6.837-46-20C152.336,104.336,163.265,98.265,173.5,91.5z M196.5,106.5c-5.313-6.794-11.001-14.215-16-16
					c-9.401,5.067-26.818,16.21-25,29c0.864,6.077,8.326,8.711,11,15c4.256-0.41,4.237-5.096,9-5c4.938,1.396,6.463,6.204,8,11
					C214.767,142.769,206.741,119.596,196.5,106.5z M171.5,137.5c2.833,0.167,4.167,1.833,7,2c0.112-3.779-1.957-5.377-5-6
					C173.487,135.487,170.771,134.771,171.5,137.5z"/>
				<path fill-rule="evenodd" clip-rule="evenodd" fill="#FFFFFF" d="M183.5,140.5c-1.537-4.796-3.062-9.604-8-11
					c-4.763-0.096-4.744,4.59-9,5c-2.674-6.289-10.136-8.923-11-15c-1.818-12.79,15.599-23.933,25-29
					c4.999,1.785,10.687,9.206,16,16C206.741,119.596,214.767,142.769,183.5,140.5z"/>
				<path fill-rule="evenodd" clip-rule="evenodd" d="M131.5,125.5c0.789,20.122-12.92,25.747-22,36c-11.87,1.537-19.185-1.482-24-7
					c0.362-13.423-5.557-20.858,0-32C97.935,107.209,121.876,110.408,131.5,125.5z M118.5,119.5c-6.269-2.494-11.627-5.675-18-4
					c-2.439,0.641-10.083,5.33-12,8c-3.467,4.832-2.133,13.755-1,19c0.817,3.784,0.249,8.414,1,10c3.011,6.355,11.047,7.533,18,6
					c-0.066-4.732-0.16-9.493,3-11c4.564,0.564,6.228-1.772,11-1c2.826-3.332,16.545-19.565,4-22c-1.31,4.31,4.761,1.239,4,5
					C119.995,131.338,122.915,121.751,118.5,119.5z M110.5,151.5c0.547,1.453-1.168,5.169,1,5c0.844-3.155,5.156-2.845,6-6
					C114.253,149.92,112.848,151.181,110.5,151.5z"/>
				<path fill-rule="evenodd" clip-rule="evenodd" fill="#FFFFFF" d="M128.5,129.5c0.761-3.761-5.31-0.69-4-5
					c12.545,2.435-1.174,18.668-4,22c-4.772-0.772-6.436,1.564-11,1c-3.16,1.507-3.066,6.268-3,11c-6.953,1.533-14.989,0.355-18-6
					c-0.751-1.586-0.183-6.216-1-10c-1.133-5.245-2.467-14.168,1-19c1.917-2.67,9.561-7.359,12-8c6.373-1.675,11.731,1.506,18,4
					C122.915,121.751,119.995,131.338,128.5,129.5z"/>
				<path fill-rule="evenodd" clip-rule="evenodd" fill="#FFFFFF" d="M220.5,132.5c4.706,1.96,5.544,7.79,6,14
					C224.276,142.057,221.701,137.966,220.5,132.5z"/>
				<path fill-rule="evenodd" clip-rule="evenodd" fill="#FFFFFF" d="M173.5,133.5c3.043,0.623,5.112,2.221,5,6
					c-2.833-0.167-4.167-1.833-7-2C170.771,134.771,173.487,135.487,173.5,133.5z"/>
				<path fill-rule="evenodd" clip-rule="evenodd" fill="#FFFFFF" d="M117.5,150.5c-0.844,3.155-5.156,2.845-6,6
					c-2.168,0.169-0.453-3.547-1-5C112.848,151.181,114.253,149.92,117.5,150.5z"/>
				<path fill-rule="evenodd" clip-rule="evenodd" d="M189.5,182.5c-6.234,12.434-22.097,17.037-32,27
					c-7.478-0.188-15.982,0.648-22-1c-0.859,13.831-7.642,30.063-23,23c-2.516-8.625-0.372-20.051,4-25
					c-5.083-4.674-12.219-13.015-7-22c4.011,1.062,1.593,5.948,2,8c2.066,10.406,15.13,11.816,28,13
					c16.454,1.514,19.045-1.898,30-10C177.66,189.465,182.134,185.954,189.5,182.5z M115.5,229.5c12.072-0.262,15.829-8.838,16-21
					C118.609,201.896,113.838,215.497,115.5,229.5z"/>
				<path fill-rule="evenodd" clip-rule="evenodd" fill="#FFFFFF" d="M234.5,201.5c0,13.667,0,27.333,0,41c-6.333,0-12.667,0-19,0
					c7.559-12.108,13.408-25.925,18-41C233.833,201.5,234.167,201.5,234.5,201.5z"/>
				<path fill-rule="evenodd" clip-rule="evenodd" fill="#FFFFFF" d="M131.5,208.5c-0.171,12.162-3.928,20.738-16,21
					C113.838,215.497,118.609,201.896,131.5,208.5z"/>
				<path fill-rule="evenodd" clip-rule="evenodd" fill="#FFFFFF" d="M63.5,178.5c2.815,10.185,5.062,20.938,9,30
					C66.428,206.166,62.562,187.865,63.5,178.5z"/>
				<path fill-rule="evenodd" clip-rule="evenodd" d="M154.5,57.5c5.333,0,10.667,0,16,0c0,0.333,0,0.667,0,1
					c17.518,9.482,29.549,24.451,40,41c0.209,17.216,16.492,27.551,19,45c0.971,6.754,0.679,14.374,1,22
					c0.447,10.603-2.703,22.841,4,31c0,1.333,0,2.667,0,4c-0.333,0-0.667,0-1,0c-4.592,15.075-10.441,28.892-18,41
					c-0.333,0-0.667,0-1,0c1.177-6.35,3.678-13.684,7-22c2.521-6.313,7.672-13.805,8-18c0.355-4.543-2.568-7.885-3-12
					c-1.574-15.013,1.022-29.409-2-41c-0.548-2.1-2.823-5.063-4-8c-2.758-6.88-5.958-21.002-9-27c-3.332-6.568-11.099-9.427-11-18
					c5.416,0.25,4.009,7.325,8,9c-0.528-5.373-5.311-9.185-9-14c-3.311-4.321-4.88-9.89-8-14c-5.109-6.732-17.134-14.583-25-16
					c-12.932-2.331-26.583,2.734-39,6c11.462-1.826,19.301,4.282,29,1c2.908,5.092,15.405,0.595,19,5
					c-14.592,4.294-22.059-1.756-37-3c-6.963-0.58-17.473-1.559-25,1c-9.762,3.318-24.07,24.171-32,34
					c-3.077,3.814-8.525,7.932-10,12c-1.182,3.26,0.286,8.553-1,14c-1.025,4.343-4.441,8.407-5,12c-2.92,18.758,3.184,43.701,7,57
					c3.056,10.649,8.148,23.568,15,29c6.175,4.896,14.467,3.114,18,11c-12.457-3.877-22.55-10.117-29-20
					c-0.285,9.951,3.407,15.926,7,22c-1,0-2,0-3,0c-5.711-6.41-4.7-16.273-8-26c-1.889-5.567-6.92-10.231-9-16
					c-7.915-21.946-2.987-46.894-3-75c3.913,2.006-1.779,14.708,4,13c3.604-5.034,0.072-7.965,0-14c4.214-4.119,4.835-11.832,6-19
					c2.062,1.188-1.042,4.333,2,6c5.784-10.946,12.728-15.499,22-26c5.793-6.561,9.217-11.991,15-15
					C122.459,63.757,138.279,63.547,154.5,57.5z M226.5,146.5c-0.456-6.21-1.294-12.04-6-14
					C221.701,137.966,224.276,142.057,226.5,146.5z M72.5,208.5c-3.938-9.062-6.185-19.815-9-30
					C62.562,187.865,66.428,206.166,72.5,208.5z"/>
			</g>
		</g>
	</g>
</g>
<g id="Layer_2">
</g>
</svg>
