<?xml version="1.0" encoding="utf-8"?>
<!-- Generator: Adobe Illustrator 15.0.0, SVG Export Plug-In . SVG Version: 6.00 Build 0)  -->
<!DOCTYPE svg PUBLIC "-//W3C//DTD SVG 1.1//EN" "http://www.w3.org/Graphics/SVG/1.1/DTD/svg11.dtd">
<svg version="1.1" xmlns="http://www.w3.org/2000/svg" xmlns:xlink="http://www.w3.org/1999/xlink" x="0px" y="0px" width="300px"
	 height="300px" viewBox="0 0 300 300" enable-background="new 0 0 300 300" xml:space="preserve">
<g id="Layer_1">
	<g id="kr9D67.tif">
		<g>
			<g>
				<path fill-rule="evenodd" clip-rule="evenodd" fill="#FFFFFF" d="M170,35c27,0,54,0,81,0c0,52.333,0,104.667,0,157c-1,0-2,0-3,0
					c-0.553,4.939-0.514-1.039-2-1c-1.479-21.486,3.645-41.169-1-60c-2.941-11.925-12.074-20.38-17-31
					c-3.355-7.235-3.249-16.093-7-23c-2.018-3.714-5.128-6.577-8-10c-7.854-9.36-13.823-18.313-24-24c-0.428-2.762,3.729-0.938,4-3
					C184.842,38.825,177.227,37.107,170,35z"/>
				<path fill-rule="evenodd" clip-rule="evenodd" fill="#FFFFFF" d="M163,39c4.188,1.079-2.475,7.12-2,11
					c-10.714-0.62-18.218-4.448-31-3C139.064,42.397,152.648,42.315,163,39z"/>
				<path fill-rule="evenodd" clip-rule="evenodd" fill="#FFFFFF" d="M168,39c4.491-0.491,7.493,0.507,11,1
					c-3.724,3.276-5.03,8.969-11,10C168,46.333,168,42.667,168,39z"/>
				<path fill-rule="evenodd" clip-rule="evenodd" fill="#FFFFFF" d="M163,53c3.613-0.947,1.395,3.938,2,6
					c-1.794-0.127-2.109,1.224-4,1C161.777,57.777,163.101,56.101,163,53z"/>
				<path fill-rule="evenodd" clip-rule="evenodd" fill="#FFFFFF" d="M167,53c0.667,0,1.333,0,2,0c0,0.667,0,1.333,0,2
					c-0.667,0-1.333,0-2,0C167,54.333,167,53.667,167,53z"/>
				<path fill-rule="evenodd" clip-rule="evenodd" fill="#FFFFFF" d="M156,63c2.341,0.256,0.576,4.394,0,5
					C153.066,67.15,157.301,65.483,156,63z"/>
				<path fill-rule="evenodd" clip-rule="evenodd" d="M219,100c-1.639,6.639,3.269,6.732,4,11c0,3.667,0,7.333,0,11
					c-3.07,5.263-7.73,8.937-13,12c-14.392,0.713-28.928-0.388-38-8c-2.534-2.126-11.268-13.791-12-18
					c-2.434-13.978,9.468-22.777,18-31c0-1.667,0-3.333,0-5c15.174-8.325,21.097,4.78,29,13C210.76,88.91,215.393,95.364,219,100z
					 M180,75c1.78-0.553,4.153-0.514,5-2C182.52,72.853,180.147,72.814,180,75z M189,75c-11.923,6.355-28.414,17-26,32
					c0.331,2.059,7.959,13.896,9,15c7.48,7.934,22.602,9.814,37,9c7.084-4.146,12.359-9.121,11-19c-0.568-4.134-6.429-5.913-4-11
					c-4.003-1.448-5.229-8.821-7-11c-1.054-1.295-4.322-1.321-6-3c-1.185-1.186-2.818-4.417-4-6c-3.491-4.679-5.754-9.499-12-7
					C187.776,74.224,188.973,74.027,189,75z"/>
				<path fill-rule="evenodd" clip-rule="evenodd" fill="#FFFFFF" d="M155,73c1.513-3.53,1.896,1.842,1,2
					C155.409,75.104,154.744,73.596,155,73z"/>
				<path fill-rule="evenodd" clip-rule="evenodd" fill="#FFFFFF" d="M185,73c-0.847,1.486-3.22,1.447-5,2
					C180.147,72.814,182.52,72.853,185,73z"/>
				<path fill-rule="evenodd" clip-rule="evenodd" fill="#FFFFFF" d="M187,74c6.246-2.499,8.509,2.321,12,7
					c1.182,1.583,2.815,4.814,4,6c1.678,1.679,4.946,1.705,6,3c1.771,2.179,2.997,9.552,7,11c-2.429,5.087,3.432,6.866,4,11
					c1.359,9.879-3.916,14.854-11,19c-14.398,0.814-29.52-1.066-37-9c-1.041-1.104-8.669-12.941-9-15c-2.414-15,14.077-25.645,26-32
					C188.973,74.027,187.776,74.224,187,74z M171,110c6.447-2.62,8.061-9.315,16-12c6.494-2.196,16.986,0.835,20-7
					C192.307,94.64,174.312,94.979,171,110z M186,114c-3.069,0.479-6.957-1.957-10,2c17.133,3.411,31.698-4.261,36-17
					c-0.221-0.779-0.837-1.163-2-1C204.495,107.153,197.782,112.164,186,114z M188,102c-1.808,7.309,14.099,8.975,13,1
					C199.618,97.811,191.266,100.469,188,102z"/>
				<path fill-rule="evenodd" clip-rule="evenodd" fill="#FFFFFF" d="M213,77c5.043,2.29,7.893,6.774,9,13
					C218.217,86.449,215.655,81.679,213,77z"/>
				<path fill-rule="evenodd" clip-rule="evenodd" fill="#FFFFFF" d="M151,89c2.255,0.745,0.391,5.609,1,8
					C147.997,96.062,148.958,91.394,151,89z"/>
				<path fill-rule="evenodd" clip-rule="evenodd" d="M207,91c-3.014,7.835-13.506,4.804-20,7c-7.939,2.685-9.553,9.38-16,12
					C174.312,94.979,192.307,94.64,207,91z"/>
				<path fill-rule="evenodd" clip-rule="evenodd" d="M210,98c1.163-0.163,1.779,0.221,2,1c-4.302,12.739-18.867,20.411-36,17
					c3.043-3.957,6.931-1.521,10-2C197.782,112.164,204.495,107.153,210,98z"/>
				<path fill-rule="evenodd" clip-rule="evenodd" d="M201,103c1.099,7.975-14.808,6.309-13-1
					C191.266,100.469,199.618,97.811,201,103z"/>
				<path fill-rule="evenodd" clip-rule="evenodd" d="M116,111c-4.362,4.304-12.197,5.136-18,8c-1.667,4.333-2.165,9.835-4,14
					c-5.153-2.899,0.883-10.816,1-15C100.708,115.031,108.729,109.078,116,111z"/>
				<path fill-rule="evenodd" clip-rule="evenodd" d="M111,126c-0.85-2.934-2.517,1.301-5,0c-0.576-2.091-2.479-2.854-2-6
					c1.617-1.716,4.183-2.484,8-2c1.151,1.182,1.132,3.535,1,6c4.071-1.929,5.106-6.894,10-8c-3.817,10.517-14.169,14.498-25,18
					C99.324,128.324,106.51,128.51,111,126z"/>
				<path fill-rule="evenodd" clip-rule="evenodd" fill="#FFFFFF" d="M54,176c4.144,7.186,1.771,16.043,4,23
					c2.652,8.278,9.567,14.08,12,21c-0.646,12.312,3.788,19.545,7,28c-7.667,0-15.333,0-23,0C54,224,54,200,54,176z"/>
				<path fill-rule="evenodd" clip-rule="evenodd" d="M170,181c1.255,11.643-12.867,14.961-21,11
					C154.285,187.182,161.156,178.962,170,181z M155,191c5.345-1.322,11.65-1.683,12-8C162.558,185.225,157.905,187.238,155,191z"/>
				<path fill-rule="evenodd" clip-rule="evenodd" fill="#FFFFFF" d="M167,183c-0.35,6.317-6.655,6.678-12,8
					C157.905,187.238,162.558,185.225,167,183z"/>
				<path fill-rule="evenodd" clip-rule="evenodd" fill="#FFFFFF" d="M251,204c0,14.667,0,29.333,0,44c-6.333,0-12.667,0-19,0
					c5.761-14.906,12.424-28.91,18-44C250.333,204,250.667,204,251,204z"/>
				<path fill-rule="evenodd" clip-rule="evenodd" fill="#FFFFFF" d="M169,35c-9.51,2.877-24.827,3.732-36,7
					c-2.479,0.725-4.3,3.013-7,4c-4.824,1.764-10.528,1.397-14,3c-12.022,5.55-15.637,18.39-25,26c-3.156,0.489-3.531-1.802-7-1
					c-0.599,2.599,0.401,3.599,3,3c-3.267,2.934-13.371-3.251-16,2c2.696,2.304,9.645,0.355,14,1c-3.213,6.787-8.481,11.519-12,18
					c-3.943,0.276-0.289-7.044-3-8c0.627,12.627-6.255,17.745-6,30c3.409,0.076,2.961-3.706,3-7c3.359,7.414-3.833,13.463-5,21
					c-1.54,9.947-1.713,25.4,0,37c0.361,2.448,2.259,4.383,3,7c0.948,3.35,0.264,7.004,1,10c2.336,9.51,7.277,18.057,8,26
					c-7.534-9.267-8.073-15.353-11-32c-1.468-8.352-2-23.231-2-37c0-10.423,2.193-24.188,0-30c-0.68-1.801-1.859-0.129-3,0
					c0-26.667,0-53.333,0-80C92.333,35,130.667,35,169,35z"/>
				<path fill-rule="evenodd" clip-rule="evenodd" d="M169,35c0.333,0,0.667,0,1,0c7.227,2.107,14.842,3.825,23,5
					c-0.271,2.062-4.428,0.238-4,3c10.177,5.687,16.146,14.64,24,24c2.872,3.423,5.982,6.286,8,10c3.751,6.907,3.645,15.765,7,23
					c4.926,10.62,14.059,19.075,17,31c4.645,18.831-0.479,38.514,1,60c1.486-0.039,1.447,5.939,2,1c1,0,2,0,3,0c0,4,0,8,0,12
					c-0.333,0-0.667,0-1,0c-5.576,15.09-12.239,29.094-18,44c-1,0-2,0-3,0c2.555-7.45,4.23-14.995,7-23
					c2.468-7.135,8.01-13.899,9-20c1.237-7.618-2.555-16.787-2-25c0.924-13.683-1.072-27.746-5-41c-2.876-9.704-7.31-24.809-12-35
					c-3.072-6.675-8.427-11.163-12-18c-4.046-7.742-2.406-18.593-11-22c3.852-8.657-10.939-12.912-16-19c-4.354,0.646-4.8,5.201-9,6
					c1.183,1.817,5.214,0.786,7,2c-1.229,4.05-7.872,1.145-11,1c-5.989,2.678-6.559,10.774-6,20c-6.188,7.478-13.262,14.072-12,29
					c-2.225,1.442-4.822,2.511-9,2c-3.057-2.632,4.057-3.368,1-6c-9.415-14.126,6.152-24.625,4-41c2.466-0.518,7.451,0.73,8-4
					c-16.472-4.085-39.654-8.192-52,2c-7.24,5.977-10.043,14.456-16,20c7.44,5.893,21.893,4.773,29,11c-0.879,2.788-4.017,3.316-7,4
					c5.185,10.148,14.498,16.169,23,23c-1.958,21.042-15.081,30.919-27,42c-13.646,1.646-21.383-2.617-26-10
					c-0.262-4.75,0.294-7.902-1-12c-0.68-2.152-2.819-3.672-3-6c-1.452-18.638,16.007-34.409,36-27
					c-3.771-7.901-13.447-18.549-28-19c-3.834,2.195-6.116,6.735-10,11c-3.142,3.451-8.38,6.494-10,11
					c-1.205,3.352,0.052,8.315-1,14c-0.999,5.397-5.185,10.996-6,16c-1.327,8.151-1.868,26.277-1,34c0.393,3.497,3.072,5.673,4,9
					c1.01,3.622,0.18,7.473,1,11c2.422,10.418,8.187,19.478,8,29c5.271,2.739,5.689,9.404,10,14c6.343,6.764,18.906,6.912,22,14
					c-1.341,3.121-8.675-3.184-12-5c-4.584-2.504-9.886-4.497-13-7c-1.346-4.653-3.495-8.505-7-11c-0.697,11.697,4.885,17.115,7,26
					c-1,0-2,0-3,0c-3.212-8.455-7.646-15.688-7-28c-2.433-6.92-9.348-12.722-12-21c-2.229-6.957,0.144-15.814-4-23
					c0-20.334,0-40.667,0-61c1.141-0.129,2.32-1.801,3,0c2.193,5.812,0,19.577,0,30c0,13.769,0.532,28.648,2,37
					c2.927,16.647,3.466,22.733,11,32c-0.723-7.943-5.664-16.49-8-26c-0.736-2.996-0.052-6.65-1-10c-0.741-2.617-2.639-4.552-3-7
					c-1.713-11.6-1.54-27.053,0-37c1.167-7.537,8.359-13.586,5-21c-0.039,3.294,0.409,7.076-3,7c-0.255-12.255,6.627-17.373,6-30
					c2.711,0.956-0.943,8.276,3,8c3.519-6.481,8.787-11.213,12-18c-4.355-0.645-11.304,1.304-14-1c2.629-5.251,12.733,0.934,16-2
					c-2.599,0.599-3.599-0.401-3-3c3.469-0.802,3.844,1.489,7,1c9.363-7.61,12.978-20.45,25-26c3.472-1.603,9.176-1.236,14-3
					c2.7-0.987,4.521-3.275,7-4C144.173,38.732,159.49,37.877,169,35z M222,90c-1.107-6.226-3.957-10.71-9-13
					C215.655,81.679,218.217,86.449,222,90z M130,47c12.782-1.448,20.286,2.38,31,3c-0.475-3.88,6.188-9.921,2-11
					C152.648,42.315,139.064,42.397,130,47z M168,50c5.97-1.031,7.276-6.724,11-10c-3.507-0.493-6.509-1.491-11-1
					C168,42.667,168,46.333,168,50z M177,48c1.065-1.347,7.053-2.841,4-5C179.88,44.199,174.661,49.75,177,48z M161,60
					c1.891,0.224,2.206-1.127,4-1c-0.605-2.062,1.613-6.947-2-6C163.101,56.101,161.777,57.777,161,60z M167,55c0.667,0,1.333,0,2,0
					c0-0.667,0-1.333,0-2c-0.667,0-1.333,0-2,0C167,53.667,167,54.333,167,55z M156,68c0.576-0.606,2.341-4.744,0-5
					C157.301,65.483,153.066,67.15,156,68z M160,72c-2.931-0.04,0.598,5.94,0,1c1.127-2.583,4.303-8.305,3-10
					C161.426,65.426,159.271,67.271,160,72z M164,75C166.885,69.206,161.532,72.368,164,75L164,75z M156,75
					c0.896-0.158,0.513-5.53-1-2C154.744,73.596,155.409,75.104,156,75z M149,87c0.686-1.001,3.005-7.55,1-5
					C149.314,83.001,146.995,89.55,149,87z M116,87c-1.349-0.746-6.981-2.224-7-1C110.824,86.27,114.605,89.6,116,87z M152,97
					c-0.609-2.391,1.255-7.255-1-8C148.958,91.394,147.997,96.062,152,97z M122,107c-15.757-11.772-38.928-0.15-39,19
					c5.173,4.822,1.597,13.261,4,19c3.208,7.661,11.033,8.26,22,8c5.669-4.738,12.349-11.557,17-18c1.59-2.203,4.355-5.497,5-7
					c1.729-4.032,5.295-13.911-2-16c-3.845,2.851,6.063,3.712,2,7C123.954,119.046,125.396,110.604,122,107z M236,116
					c-1.975,0.519-2.666-5.895-3-1c3.301,9.699,7.273,18.727,10,29C244.804,130.53,237.188,126.479,236,116z"/>
				<path fill-rule="evenodd" clip-rule="evenodd" fill="#FFFFFF" d="M80,248c-2.115-8.885-7.697-14.303-7-26
					c3.505,2.495,5.654,6.347,7,11c3.114,2.503,8.416,4.496,13,7c3.325,1.816,10.659,8.121,12,5c-3.094-7.088-15.657-7.236-22-14
					c-4.311-4.596-4.729-11.261-10-14c0.187-9.522-5.578-18.582-8-29c-0.82-3.527,0.01-7.378-1-11c-0.928-3.327-3.607-5.503-4-9
					c-0.868-7.723-0.327-25.849,1-34c0.815-5.004,5.001-10.603,6-16c1.052-5.685-0.205-10.648,1-14c1.62-4.506,6.858-7.549,10-11
					c3.884-4.265,6.166-8.805,10-11c14.553,0.451,24.229,11.099,28,19c-19.993-7.409-37.452,8.362-36,27c0.181,2.328,2.32,3.848,3,6
					c1.294,4.098,0.738,7.25,1,12c4.617,7.383,12.354,11.646,26,10c11.919-11.081,25.042-20.958,27-42
					c-8.502-6.831-17.815-12.852-23-23c2.983-0.684,6.121-1.212,7-4c-7.107-6.227-21.56-5.107-29-11c5.957-5.544,8.76-14.023,16-20
					c12.346-10.192,35.528-6.085,52-2c-0.549,4.73-5.534,3.482-8,4c2.152,16.375-13.415,26.874-4,41c3.057,2.632-4.057,3.368-1,6
					c4.178,0.511,6.775-0.558,9-2c-1.262-14.928,5.812-21.522,12-29c-0.559-9.226,0.011-17.322,6-20c3.128,0.145,9.771,3.05,11-1
					c-1.786-1.214-5.817-0.183-7-2c4.2-0.799,4.646-5.354,9-6c5.061,6.088,19.852,10.343,16,19c8.594,3.407,6.954,14.258,11,22
					c3.573,6.837,8.928,11.325,12,18c4.69,10.191,9.124,25.296,12,35c3.928,13.254,5.924,27.317,5,41
					c-0.555,8.213,3.237,17.382,2,25c-0.99,6.101-6.532,12.865-9,20c-2.77,8.005-4.445,15.55-7,23C179.333,248,129.667,248,80,248z
					 M207,85c-7.903-8.22-13.826-21.325-29-13c0,1.667,0,3.333,0,5c-8.532,8.223-20.434,17.022-18,31
					c0.732,4.209,9.466,15.874,12,18c9.072,7.612,23.608,8.713,38,8c5.27-3.063,9.93-6.737,13-12c0-3.667,0-7.333,0-11
					c-0.731-4.268-5.639-4.361-4-11C215.393,95.364,210.76,88.91,207,85z M149,192c8.133,3.961,22.255,0.643,21-11
					C161.156,178.962,154.285,187.182,149,192z"/>
				<path fill-rule="evenodd" clip-rule="evenodd" fill="#FFFFFF" d="M181,43c3.053,2.159-2.935,3.653-4,5
					C174.661,49.75,179.88,44.199,181,43z"/>
				<path fill-rule="evenodd" clip-rule="evenodd" fill="#FFFFFF" d="M163,63c1.303,1.695-1.873,7.417-3,10
					c0.598,4.94-2.931-1.04,0-1C159.271,67.271,161.426,65.426,163,63z"/>
				<path fill-rule="evenodd" clip-rule="evenodd" fill="#FFFFFF" d="M164,75C161.532,72.368,166.885,69.206,164,75L164,75z"/>
				<path fill-rule="evenodd" clip-rule="evenodd" fill="#FFFFFF" d="M150,82c2.005-2.55-0.314,3.999-1,5
					C146.995,89.55,149.314,83.001,150,82z"/>
				<path fill-rule="evenodd" clip-rule="evenodd" fill="#FFFFFF" d="M109,86c0.019-1.224,5.651,0.254,7,1
					C114.605,89.6,110.824,86.27,109,86z"/>
				<path fill-rule="evenodd" clip-rule="evenodd" fill="#FFFFFF" d="M243,144c-2.727-10.273-6.699-19.301-10-29
					c0.334-4.895,1.025,1.519,3,1C237.188,126.479,244.804,130.53,243,144z"/>
				<path fill-rule="evenodd" clip-rule="evenodd" fill="#FFFFFF" d="M131,119c4.063-3.288-5.845-4.149-2-7
					c7.295,2.089,3.729,11.968,2,16c-0.645,1.503-3.41,4.797-5,7c-4.651,6.443-11.331,13.262-17,18c-10.967,0.26-18.792-0.339-22-8
					c-2.403-5.739,1.173-14.178-4-19c0.072-19.15,23.243-30.772,39-19C125.396,110.604,123.954,119.046,131,119z M98,134
					c10.831-3.502,21.183-7.483,25-18c-4.894,1.106-5.929,6.071-10,8c0.132-2.465,0.151-4.818-1-6c-3.817-0.484-6.383,0.284-8,2
					c-0.479,3.146,1.424,3.909,2,6c2.483,1.301,4.15-2.934,5,0C106.51,128.51,99.324,128.324,98,134z M95,118
					c-0.117,4.184-6.153,12.101-1,15c1.835-4.165,2.333-9.667,4-14c5.803-2.864,13.638-3.696,18-8
					C108.729,109.078,100.708,115.031,95,118z"/>
			</g>
		</g>
	</g>
</g>
<g id="Layer_2">
</g>
</svg>
