<?xml version="1.0" encoding="utf-8"?>
<!-- Generator: Adobe Illustrator 15.0.0, SVG Export Plug-In . SVG Version: 6.00 Build 0)  -->
<!DOCTYPE svg PUBLIC "-//W3C//DTD SVG 1.1//EN" "http://www.w3.org/Graphics/SVG/1.1/DTD/svg11.dtd">
<svg version="1.1" xmlns="http://www.w3.org/2000/svg" xmlns:xlink="http://www.w3.org/1999/xlink" x="0px" y="0px" width="300px"
	 height="300px" viewBox="0 0 300 300" enable-background="new 0 0 300 300" xml:space="preserve">
<g id="Layer_1">
	<g id="dGXMvs.tif">
		<g id="XMLID_2_">
			<g>
				<path fill="#FFFFFF" d="M253,214.5c0,15,0,30,0,45c-6.67,0-13.33,0-20,0c3.73-6.27,5.79-14.21,9-21c3.44-3.56,5.77-8.23,7-14
					c0-0.67,0-1.33,0-2C252.55,222.05,250.95,216.45,253,214.5z"/>
				<path fill="#FCFCFC" d="M253,203.5c0,3.67,0,7.33,0,11c-2.05,1.95-0.45,7.55-4,8c0.15-3.18,2.27-4.4,2-8
					c1.66-1.08,1.66-8.92,0-10c-0.33,0-0.67,0-1,0c-1.32,0.01-0.91,1.75-2,2c0-2,0-4,0-6c0-4.67,0-9.33,0-14c0-3,0-6,0-9
					c0.33,0,0.67,0,1,0C251.94,182.24,243.83,202.19,253,203.5z"/>
				<path fill="#FFFFFF" d="M253,46.5c0,52.33,0,104.67,0,157c-9.17-1.31-1.06-21.26-4-26c-0.66-9.34,1.33-21.33-1-29
					c-3.08-12.69-9.24-28.94-17-36c-2.25-2.42-3.58-5.75-4-10c-0.25-2.39-0.75-4.53-1.42-6.5C219.87,75.69,204.1,65.42,191,52.5
					c1.33,0,2.67,0,4,0c0.7-3.44-4.98-5.59-7-3c-1.33,0-2.67,0-4,0c-4.25,0.25-5.38-2.62-10-2c0-0.33,0-0.67,0-1
					C200.33,46.5,226.67,46.5,253,46.5z"/>
				<path fill="#929897" d="M251,204.5c1.66,1.08,1.66,8.92,0,10C251,211.17,251,207.83,251,204.5z"/>
				<path fill="#1A1A1A" d="M251,214.5c0.27,3.6-1.85,4.82-2,8c0,0.67,0,1.33,0,2c-2.89,4.11-5.22,8.78-7,14
					c-3.21,6.79-5.27,14.73-9,21c-0.33,0-0.67,0-1,0c3.24-14.76,8.12-27.88,14-40c1.66-2.05,1.66-10.95,0-13c0-1,0-2,0-3
					c-0.66-9.01,1.33-20.66-1-28c-4.14-33.86-15.86-60.14-30-84c4.89,1.77,4.46,8.87,9,11c0.22-9.55-6.54-12.13-10-18
					c-0.17,1.5,0.36,3.69-1,4c-0.22-0.78-0.03-1.97-1-2c0-0.33,0-0.67,0-1c-4.27-14.07-11.92-24.75-25-30c-2.53,2.47-6.07,3.93-8,7
					c2.18,1.15,6.47,0.2,7,3c-5.12,0.79-7.26-1.4-12-1c-6.66,3.94-3.21,11.24-5,19c-2.29,9.94-16.82,15.92-12,31
					c-2.76-0.35-7.02,2.87-9,0c1.48-0.85,2.15-2.52,2-5c-10.16-11.98,5.29-26.29,5-41c1.89-0.22,2.21,1.13,4,1
					c0.89-2.11,3.04-2.96,3-6c-10.74-0.92-19.11-4.22-32-3c-4.12-0.79-5.13,1.54-9,1c-15.19,3.14-20.45,16.22-29,26
					c7.39,6.28,23.62,3.71,29,12c-1.97,1.7-6.18,1.15-8,3c1.44,0.56,2.44,1.56,3,3c4.58,5.42,9.58,10.42,15,15
					c17.79,11.62-10.54,40.34-21,46c-4.67,0-9.33,0-14,0c-5.89-3.34-9.9-9.25-12-16.03c0-0.32,0-0.65,0-0.97
					c-0.1-0.01-0.19,0.01-0.27,0.05c-4.46-15.89,1.4-36.01,18.27-39.05c3.33,0,6.67,0,10,0c2.34,0.33,4.13,1.2,6,2
					c-6.2-10.8-14.57-19.43-31-20c-5.19,8.81-13.34,14.66-19,23c1.25,13.58-4.35,20.32-6,31c-2.32,6.34-0.34,16.99-1,25
					c0.13,23.2,10.18,36.49,12,58c3.1,4.91,6.98,9.04,11.29,12.75c-0.09,0.09-0.19,0.17-0.29,0.25c0.28,0.08,0.55,0.14,0.81,0.19
					c1.06,0.899,2.15,1.77,3.25,2.619c-0.02,0.061-0.04,0.12-0.06,0.19c0.08-0.03,0.16-0.05,0.24-0.05
					c5.62,4.3,11.76,8.1,17.76,12.05c-14.59-4.41-24.95-13.05-33-24c-0.31,11.31,4.48,17.52,7,26c-0.67,0-1.33,0-2,0
					c-3.02-6.65-5.13-14.21-7-22c0.16-4.5,0.22-8.89-3-10c-2.02-5.98-4.9-11.1-8-16c-1.1-7.9-2.3-15.7-4-23c0-1.33,0-2.67,0-4
					c0-19,0-38,0-57c0-0.56,0.81-1.14,1,0c0.67,19.67-1.33,42,1,60c1.38,15.95,5.14,29.52,13,39c-3.88-14.45-7.42-29.25-12-43
					c-0.17-3.18-2.34-7.36,0-10c0-2,0-4,0-6c2.32-5.35,0.34-14.99,1-22c0-1,0-2,0-3c1.43-1.23,1.89-3.44,2-6
					c2.72-2.83,6.29-10.63,1-13c0,2.33,0,4.67,0,7c-5.46-3.21,1.18-10.52,2-14c3.46-2.54-2.07-14.07,3-15c0.62,2.71-1.27,7.94,1,9
					c1.74-3.26,5-5,6-9c1.26-0.41,2.04-1.29,2-3c2.7-1.97,4.78-4.55,6-8c-4.67,0-9.33,0-14,0c2.65-5.2,10.59,0.41,16-1
					c1.37-3.15-6.57-1.95-3-4c16.99,1.08,18.03-21.8,33-26c4.36-0.3,8.29-1.04,11-3c3.9,0.23,5.19-2.15,8-3
					c7.69-1.64,16.33-2.34,23-5c5.62-0.38,10.46-1.54,17-1c4.62-0.62,5.75,2.25,10,2c0.76,2.91,8.24-0.91,9,2c-1.33,0-2.67,0-4,0
					c1.39,4.95,6.29,6.37,10,9c2.92,3.75,6.25,7.09,10,10c4.41,9.62,13.02,15.04,16.58,25.5c0.58,2.06,1.06,4.22,1.42,6.5
					c0.42,4.25,1.75,7.58,4,10c3.51,8.82,10.2,14.47,12,25c-4.91-3.76-3.73-13.6-10-16c2.08,6.25,3.19,13.47,6,19
					c1.4,3.6,2.37,7.63,4,11c-0.21,2.87,0.25,5.08,2,6c2.97-2.71-0.56-7.38,0-11c0.17-1.5-0.36-3.69,1-4c1.05,5.61,1.18,12.15,1,19
					c0.63,3.37-1.29,9.29,1,11c0,1.67,0,3.33,0,5c0,3,0,6,0,9c-1.66,2.38-1.66,11.62,0,14c0,2,0,4,0,6c0.17,2.83-0.86,6.86,2,7
					c0-3,0-6,0-9c0.33,0,0.67,0,1,0C251,207.83,251,211.17,251,214.5z M176,60.5c4.13-1.2,6.83-3.83,9-7
					C180.62,54.46,177.3,56.46,176,60.5z M169,61.5c6.12-1.54,9.17-6.17,12-11c-3.82-0.85-7.65-1.69-12-2
					C169,52.83,169,57.17,169,61.5z M163,87.5c3.3-0.04,3.82-2.84,4-6C163.7,81.54,163.18,84.34,163,87.5z M162,61.5
					c1.58-3.75,4.16-6.51,4-12c-12.09,1.58-23.68,3.66-34,7c-2.48,3.85,10.06,1.25,14,2C151.43,59.4,155.3,61.86,162,61.5z
					 M163,72.5c2.2-0.64,6.98-7.65,2-9C163.45,65.01,160.55,70.3,163,72.5z M161,87.5c0.25-4.36,7.02-11.93,3-14
					C161.79,76.31,158.33,83.12,161,87.5z M156,79.5c3.57,0.48,5.71-6.21,2-7C156.67,74.17,155.35,75.85,156,79.5z M154,107.5
					c-0.62-2.71,1.27-7.94-1-9c-0.93,2.74-3.07,4.26-4,7C150.91,105.93,150.81,108.36,154,107.5z M150,99.5
					c1.07-2.64,4.46-8.15,2-11C152.08,92.29,147.46,96.56,150,99.5z M127,147.5c3.74-6.26,8.59-11.41,8-22c-2.44-0.56-2.13-3.87-6-3
					c-1.54,4.28,5.48,5.1,3,7c-6.59,0.93-4.96-6.37-7-10c-15.31-15.25-42.31-2.23-42,19c2.7,4.44,3.74,11.7,6.01,17.48
					c0,0.17-0.01,0.35-0.01,0.52c0.07-0.02,0.14-0.04,0.2-0.05c2.61,6.37,6.86,10.729,16.8,7.05c-7.93-2.34-3.37-18.61,2-20
					C115.8,143.37,121.89,144.94,127,147.5z M123,152.5c0-1.33,0-2.67,0-4c-3.59-1.72-11.65-3.27-16-1c-0.05,1.28-1.28,1.38-1,3
					c-1.77,2.16-2.18,11.47,2,11c1.12,0.21,1.56,1.11,2,2c1.38,0.04,2.2-0.47,3-1C116.75,159.58,120.09,156.25,123,152.5z M117,99.5
					c0.32-3.71-7.14-4.79-9-3C111.01,97.49,112.46,100.04,117,99.5z"/>
				<path fill="#929897" d="M250,204.5c0,3,0,6,0,9c-2.86-0.14-1.83-4.17-2-7C249.09,206.25,248.68,204.51,250,204.5z"/>
				<path fill="#FDFDFD" d="M249,177.5c-0.33,0-0.67,0-1,0c0-1.67,0-3.33,0-5c0-3.67,0-7.33,0-11c0-4.33,0-8.67,0-13
					C250.33,156.17,248.34,168.16,249,177.5z"/>
				<path fill="#929897" d="M248,186.5c0,4.67,0,9.33,0,14C246.34,198.12,246.34,188.88,248,186.5z"/>
				<path fill="#929897" d="M248,161.5c0,3.67,0,7.33,0,11c-2.29-1.71-0.37-7.63-1-11C247.33,161.5,247.67,161.5,248,161.5z"/>
				<path fill="#FCFCFC" d="M248,148.5c0,4.33,0,8.67,0,13c-0.33,0-0.67,0-1,0c0.18-6.85,0.05-13.39-1-19c-1.93-2.4-5.61-3.05-6-7
					c-3.14,1.62,3.97,9.76-1,5c-2.81-5.53-3.92-12.75-6-19c6.27,2.4,5.09,12.24,10,16c-1.8-10.53-8.49-16.18-12-25
					C238.76,119.56,244.92,135.81,248,148.5z"/>
				<path fill="#FCFCFC" d="M249,224.5c-1.23,5.77-3.56,10.44-7,14C243.78,233.28,246.11,228.61,249,224.5z"/>
				<path fill="#929897" d="M246,206.5c1.66,2.05,1.66,10.95,0,13c0-1.33,0-2.67,0-4c0-1,0-2,0-3C246,210.5,246,208.5,246,206.5z"/>
				<path fill="#FCFCFC" d="M246,215.5c0,1.33,0,2.67,0,4c-5.88,12.12-10.76,25.24-14,40c-0.33,0-0.67,0-1,0
					c-1.05-2.83,1.65-6.86,0-7c-0.13-2.46-0.15-4.82,1-6c2.08,1.12,2.12,1.08,1-1c0.67,0,1.33,0,2,0c0.04-1.38-0.47-2.2-1-3
					c1.22-0.11,2.37-0.3,2-2c-0.67,0-1.33,0-2,0c0.84-1.16,1.32-2.68,1-5c3.15,1.15,2.43-1.57,4-2c0.3-1.97-1.35-1.98-2-3
					c5.28,1.24,0.68-6.35,3-7c0.21,1.12,1.11,1.56,2,2c-0.59-3.19,1.88-3.09,0-5c1.21-0.21,0.62-1.11,0-2c1,0,2,0,3,0
					C245.16,217.32,244.83,215.66,246,215.5z"/>
				<path fill="#FEFEFE" d="M246,212.5c0,1,0,2,0,3c-1.17,0.16-0.84,1.82-1,3c-1,0-2,0-3,0c0.62,0.89,1.21,1.79,0,2
					c-2.48-0.96,1.38-3.84,0-7c1,0,2,0,3,0c0-0.33,0-0.67,0-1C245.33,212.5,245.67,212.5,246,212.5z"/>
				<path fill="#FCFCFC" d="M246,206.5c0,2,0,4,0,6c-0.33,0-0.67,0-1,0c1.43-4.43-3.38-2.62-3-6c2.6,0.6,3.6-0.4,3-3
					c0.33,0,0.67,0,1,0C246,204.5,246,205.5,246,206.5z"/>
				<path fill="#929897" d="M246,203.5c-0.33,0-0.67,0-1,0c0-0.33,0-0.67,0-1c0-9,0-18,0-27C247.33,182.84,245.34,194.49,246,203.5z
					"/>
				<path fill="#FCFCFC" d="M245,146.5c-0.56,3.62,2.97,8.29,0,11c-1.75-0.92-2.21-3.13-2-6C244.73,150.89,242.92,146.76,245,146.5z
					"/>
				<path fill="#FFFFFF" d="M78.14,135.67c2.72,3.42-0.64,4.25,0.86,6.83c0.11-2.45,3.31-0.21,3,1c-1.43,0.39-1.69,1.2-3,0
					c1.41,1.97,5.31,6.62,2,10c-2.6-0.6-3.6,0.4-3,3c1.7,0.37,1.89-0.78,2-2c1.48,0.52,2.52,1.48,4,2c1.82,2.6-0.43,3.02,1,6
					c1.85-0.34,9.35,3.37,7,7c12-1.56,14.38,0.39,24,1c0.7-3.08,0.7-1.92,0-5c2.28,0.76,3.87,1.4,6-1c-1.03-6.05,8.42-10.24,9-18
					c1.67,0,3.33,0,5,0c1.15-3.15-1.57-2.43-2-4c1.41-0.26,1.14-2.19,2-3c1.44,1.12,2.44,1.08,3-1c1.02,0.65,1.03,2.3,3,2
					c1.3,3.6-3.32,6.92,2,6c-0.86,6.09,1.1,3.57,4,5c1.62-1.63,4.18,0.89,8,0c0.67,0,1.33,0,2,0c3.26-4.3-0.26-9.53,3-13
					c-0.31-2.36-3.47-1.86-3-5c-1.42-0.09-2.83-0.17-3,1c-1.67,0-3.33,0-5,0c0.19-0.81,1-1,1-2c-0.42-2.25-5.31-0.03-6-2
					c-0.71,2.4-1.2,2.95-2,7c-2.76,0.43-0.94-3.73-3-4c-1.34-6.5,0.49-9.51-1-14c-2.96,1.15-4.88-1.32-7-1c1.53-0.39,0.15-1.2-1,0
					c1.99-6.04-8.1-5.57-5-10c-1.78-0.55-4.15-0.51-5-2c0.74-2.51,0.13-3.16,3-5c-1.06,0.04-2.54-0.47-1-1c3.8-1.47,0.2,4.47,4,3
					c1.45-3.78-2.75-1.92-2-5c7.11,0.97,12.79-3.04,18,1c0,1.33,0,2.67,0,4s0,2.67,0,4c0.16,1.17,1.82,0.84,3,1
					c0.21,1.71-1.71,2.59,0,3c-0.55,3.99-0.55,3.01,0,7c6.65-1.9,12.26-4.19,13,4c0.11-1.22,0.3-2.37,2-2c-2.89,3.08,3.04,3.07-1,5
					c2.01,0.99,4.05,1.95,6,3c-4.4,5.01,6.34,5.67,3,10c3.17,0.99,8.06,3.5,9,8c8.93-0.64,28.73-0.16,38,0c0.33,0,0.67,0,1,0
					c0.61,3.72-1.89,10.56,3,10c0.67,0,1.33,0,2,0c3.07,0.31,6.93,5,10,2c0-0.67,0-1.33,0-2c2,0,4,0,6,0c-3.05,2.24-0.72,4.24,1,6
					c7.95,4.12,0.46,15.69,4,22c0.22-0.78,0.03-1.97,1-2c-1.3,7.57,0.5,13.63-1,20c-2.32,0.28-2.3,2.67-1,4
					c-0.38,3.38,4.43,1.57,3,6c0,0.33,0,0.67,0,1c-1,0-2,0-3,0c1.38,3.16-2.48,6.04,0,7c1.88,1.91-0.59,1.81,0,5
					c-0.89-0.44-1.79-0.88-2-2c-2.32,0.65,2.28,8.24-3,7c0.65,1.02,2.3,1.03,2,3c-1.57,0.43-0.85,3.15-4,2c0.32,2.32-0.16,3.84-1,5
					c-2.19,2.71-1.11,2.49-2,6c-1.15,1.18-1.13,3.54-1,6c-1.38,3.18-0.99-3.53-1-5c-3.12-1.43-3.12,7.43,0,6
					c-0.44,1.23-1.28,2.05-3,2c0.01,1.99,2.73,1.27,2,4c-40.33,0-80.67,0-121,0c-0.28-1.62,0.95-1.72,1-3c-1.24-3.47-2.91-1.84-5-3
					c1.67-1.99-0.09-1.27,0-4c-1.71-0.04-2.59,0.74-3,2c-3.31-0.98,1.12-1.98,1-3c-1.18-0.67-4.95-1.76-7,0c0.07-1.66-2.25-2.69-3-6
					c-1.94-0.4-1.46,4.55,1,3c-0.81,2.8-3.01-0.3-4.76-0.05c-0.06-0.05-0.12-0.09-0.18-0.141c0.4-0.859,1.93-0.569,1.94-1.81
					c-0.83-0.8-2.58-0.29-5.19-0.81c-0.18-0.15-0.35-0.29-0.52-0.44c3.97-3.4-1.36-3.39-3.29-5.75c4.35,0.22-2.73-8.8-6-8
					c-2.78-4.87-0.03-10.85-3-14c3.19-0.31,0.88-3.34,1-6c-2.8,0.98,1.45,2.67-1,4c-3.58-4.02-0.61-9.85-3-16
					c-1.92-4.93,3.04-13.77-6-16c0-0.33,0-0.67,0-1c0.09-4.28,2-7.32,0-11c1.67-7.26-2.49-17.85,1-24c-0.4,0.7,0.96,2.16,1,2
					c1.86-6.56,3.24-5.83,0-8c1.36-1.98,2.01-4.65,5-5c0.17-5.83-1.75-9.59-1-16c7.27,0.28,1.99-8.29,9-5c-0.12-4.3,1.48-3.76,4-6
					c-0.78-0.22-1.97-0.03-2-1c3.12-2.63,6.66-7.6,8-9c4.05-0.74,5.93,1.7,11-1c-2.97,2.88,2.5,1.74,2,5c-1,0-1.19-0.81-2-1
					c-0.32,3.32,4.92,1.08,3,6c3.04-1.5,6.58,3.02,6-1c1.57,0.1,3.47-0.13,3,2c-1.12,0.1-1.56-1.45-2,0c1.44,2.21,2.44-1.26,3,1
					c-5.3-0.37-11.35,2.46-15,1c-0.04,1.38,0.47,2.2,1,3c-2.6,1.07-6.08,1.25-7,4c0.05-1.72-0.77-2.56-2-3c-3.82,3.67-3.99,4.79-8,8
					C82.1,127.51,80.84,138.88,78.14,135.67z M208,202.5c-2.06-0.54-0.24-4.73-3-2c0-0.33,0-0.67,0-1c-2.36-1.29-1.86,0.13-5-1
					c0.45-2.88,3.54-3.13,3-7c-4.68,3.13-1.11-7.26-7-2c0.52-1.48,1.48-2.52,2-4c-3.13,1.27-4.09-0.99-6,2
					c-4.73-6.69-28.92,0.19-32-3c-1.78,2.75-3.97,5.11-4,2c-2.39,6.05-5.17,4.59-6,10c-1.5-0.17-3.69,0.36-4-1
					c0.79-2.08-1.27,1.19,0,5c-1,0-1.19-0.81-2-1c-0.56,1.44-1.56,2.44-3,3c2.3,3.23-2.5,5.97,0,9c-2.75-0.02-2.56,8.02-2,8
					c2.23,3.06-0.96,13.31,2,15c-1.43,3.12,7.43,3.12,6,0c1.61-3.46-1.39-5.32,1-8c0.35,3.93,3-0.28,5,2c3.4-0.99,2.83,7.06,5,4
					c-0.56,0-1.13-0.81,0-1c2.31-1.98,1.11,0.25,3,1c0.21-1.21,1.11-0.62,2,0c-1.72-2.55,1.15-3.5-1-5c0-0.33,0-0.67,0-1
					c1.86-4.53-3.59-1.74-4-4c1.18-5.98,7.93-1.07,12-3c0-2.33,0-4.67,0-7c1.17-0.17,1.09-1.58,1-3c1,0,2,0,3,0
					c1.18-0.14,2.27-1.78,3,0c-0.11,1.89-3.31,0.69-3,3c4.44-0.12-2.3,2.02,0,6c3.71-2.04,4.58,2.06,10,1c2.24-3.22,0.66-9.53-2-11
					c1.12-0.21,1.56-1.11,2-2c0-0.67,0-1.33,0-2c1.11-2,5.37,1.22,9,0c-0.04-1.38,0.47-2.2,1-3c4.36-1.6,3.62,3.47,6,1
					c0.1,1.12-1.45,1.56,0,2C200.62,203.51,206.7,205.4,208,202.5z M93,185.5c-0.63-3.04,1.28-8.61-1-10c-0.16,1.18,0.17,2.84-1,3
					c1.28-2.76-2.91-4.89-3-3c-1.48-1.16-2.52-1.16-4,0c-0.57-2.08-2.86-3.23-1-5c-1.45,0.55-5.17-1.17-5,1c2.36,0.85-2.76,2.46-1,6
					c0,0.33,0,0.67,0,1c-1.72,0.39-2.56-1.48-3,0c3,0.66-0.96,2.14,0,4c-2.17-0.17-0.45,3.55-1,5c1.28,1.39,4.72,0.61,6,2
					c0.67,0,1.33,0,2,0c1,0,2,0,3,0c-0.46-3.13,0.87-4.46,4-4C90.49,185.39,91.1,183.63,93,185.5z"/>
				<path fill="#FEFEFE" d="M245,203.5c0.6,2.6-0.4,3.6-3,3c-1.3-1.33-1.32-3.72,1-4c0.11,5.3,0.57,1.18,2,0
					C245,202.83,245,203.17,245,203.5z"/>
				<path fill="#FFFFFF" d="M246,142.5c-1.36,0.31-0.83,2.5-1,4c-2.08,0.26-0.27,4.39-2,5c-1.63-3.37-2.6-7.4-4-11
					c4.97,4.76-2.14-3.38,1-5C240.39,139.45,244.07,140.1,246,142.5z"/>
				<path fill="#FCFCFC" d="M204.15,88.06c0.409-0.75,0.899,0.43-0.15,1.44c2.92,0.25,3.45-1.88,5-3c-1.33-3.59-1.03-4.76,1-5
					c-2.35-1.85-3.53-4.87-7-3c1.37-2.81-0.84-6.07,1-9c-2.66,0.01-5.71-0.38-7,1c-1.11,8.99,1.52,4.16-1,10
					c5.11-1.28,1.06,2.91,3,3C201.12,81.34,204.4,86.12,204.15,88.06z M204.15,88.07c-0.051,0.1-0.11,0.25-0.15,0.43
					C204.08,88.38,204.13,88.24,204.15,88.07z M245,175.5c0,9,0,18,0,27c-1.43,1.18-1.89,5.3-2,0c1.5-6.37-0.3-12.43,1-20
					c-0.97,0.03-0.78,1.22-1,2c-3.54-6.31,3.95-17.88-4-22c1.87-1.9,0.11-2.51,0-5c0.97,0.03,0.78,1.22,1,2
					c2.77-6.81-6.1-12.41-4-18c0.3-2.67-3.88,2.66-3-2c-2.01-4.52,1.06-8.22-2-12c0.73-3.06-1.73-2.94-1-6c-1.34,0.2-1.86,4.15-2,0
					c-1.86,0.2-5.7,4.98-1,7c0,2.67,0,5.33,0,8c-0.81,0.86-2.74,0.59-3,2c-0.33,0-0.67,0-1,0c0.09,3.74,1.12,2.85,0,6
					c2.1-3.13,3.18-1.49,6-3c1,0,2,0,3,0c0,1.67,0,3.33,0,5c0.44,1.89-1.36,6.03,2,5c-1.73,1.27-2.62,3.38-6,3
					c1.41,1.48,3.19,2.15-1,2c-0.67,0-1.33,0-2,0c1.06-4.71-3.75,2.02-3-3c0.85-0.18,0.94,0.39,1,1c2.51-0.43-0.96-2.86-3-2
					c0-0.33,0-0.67,0-1c0-1,0-2,0-3c1.09,0.25,0.68,1.99,2,2c3.52-3.82-3.69-14.32-3-7c-2.69-0.69-1.93,2.07-3,3
					c-9.27-0.16-29.07-0.64-38,0c-0.94-4.5-5.83-7.01-9-8c3.34-4.33-7.4-4.99-3-10c-1.95-1.05-3.99-2.01-6-3
					c4.04-1.93-1.89-1.92,1-5c-1.7-0.37-1.89,0.78-2,2c-0.74-8.19-6.35-5.9-13-4c-0.55-3.99-0.55-3.01,0-7c1,0,2,0,3,0
					c-1.38-1.62-3.54-2.46-3-6c-1.02,0.65-1.03,2.3-3,2c0-1.33,0-2.67,0-4c0.81,0.19,1,1,2,1c-0.48-6.32-0.37-6.18,1-11
					c1.3-1.33,0.62-3.02-1-4c0.3-1.18,1.34-0.43,1.81,0.48c0.02,0.19,0.09,0.37,0.19,0.52c-0.04-0.17-0.11-0.35-0.19-0.52
					c-0.24-1.49,1.41-4.01-0.25-4.48c4.78-0.59,2.98-7.52,5.44-6c-1.97-5.11-1.19-7.19-2-13c4.36-2.57-0.74-2.02-2-3
					c1.13-3.16-3.69,2.22-7,1c1.41-4.41-3.29-2.71-6-3c-1.33,0-2.67,0-4,0c-0.85,0.18-0.94-0.39-1-1c12.89-1.22,21.26,2.08,32,3
					c0.04,3.04-2.11,3.89-3,6c-1.79,0.13-2.11-1.22-4-1c0.29,14.71-15.16,29.02-5,41c0.15,2.48-0.52,4.15-2,5
					c1.98,2.87,6.24-0.35,9,0c-4.82-15.08,9.71-21.06,12-31c1.79-7.76-1.66-15.06,5-19c4.74-0.4,6.88,1.79,12,1
					c-0.53-2.8-4.82-1.85-7-3c1.93-3.07,5.47-4.53,8-7c13.08,5.25,20.73,15.93,25,30c-3.25,0.65-5.97,7.13-2,9
					c2.31-1.02,2.07-4.6,2-8c0.97,0.03,0.78,1.22,1,2c1.36-0.31,0.83-2.5,1-4c3.46,5.87,10.22,8.45,10,18c-4.54-2.13-4.11-9.23-9-11
					C229.14,115.36,240.86,141.64,245,175.5z M231,152.5c0-1,0-2,0-3c-0.58-1.76,1.21-5.88-1-6c-0.33,0-0.67,0-1,0
					c-1.69,2.98-5.58,3.75-5,9C226.33,152.5,228.67,152.5,231,152.5z M227,119.5c1.23-3.32-3.51-5.7-4-4c1.62,0.98,2.3,2.67,1,4
					C225,119.5,226,119.5,227,119.5z M224,133.5c2.1-16.83-8.23-28.16-17-38c-7.51-8.44-15.24-21.63-28-10c2.41,0.41,2.17-1.83,5-1
					c0,0.33,0,0.67,0,1c-1.99,0.01-1.27,2.73-4,2c-4.75,3.92-9.08,8.25-13,13C144.41,133.5,205.65,162.29,224,133.5z M198,69.5
					c-0.22-1.89,1.13-2.21,1-4c-5.36-0.54-8.24-6.51-13-6c3.54,0.11-2.12,3.31,1,3c2.16-2.7,1.95,1.73,1,3c2.32,0.32,3.84-0.16,5-1
					c-0.3,1.97,1.35,1.98,2,3c-2.05-1.15-4.77,1.57-2,2C193.15,67.27,195.52,70.8,198,69.5z M189,77.5c4.05,1.38,3.16-2.17,6-2
					c-0.29-4.37-3.13-6.21-6-8C188.83,70.68,186.66,74.86,189,77.5z M177,80.5c3.77-2.35,11.61,2.26,16-1c-3.36-1.76-5.82-2.2-8-3
					c-2.36-1.93,2.36-5.07,0-7c-0.33,0-0.67,0-1,0c-0.02-3.98-5.04-2.96-9-3c-0.84,1.16-1.32,2.68-1,5c-0.12,3.52-1.46,0.27-4,2
					c0.36,8.69-0.68,12.92-1,19c1.45-0.55,5.17,1.17,5-1c-3.01-1.21,0.15-4.37,3-3C175.61,84.52,178.9,85.62,177,80.5z M169,95.5
					c-3.12,0.31,2.54-2.89-1-3c-0.49,1.78-1.07-0.43-2-1c-0.22,0.78-0.03,1.97-1,2c0-0.56-0.81-1.14-1,0
					C165.83,93.45,167.39,98.62,169,95.5z M166,101.5c0.17-3.5-3.52-3.15-5-5c0.04,1.38-0.47,2.2-1,3
					C162.34,99.83,164.13,100.7,166,101.5z M161,112.5c-0.23-1.77,1.01-5.01-2-4c-0.64,1.05-1.98,8.57,0,6
					C158.72,111.58,159.24,111.06,161,112.5z"/>
				<path fill="#FEFEFE" d="M236,141.5c-2.1,5.59,6.77,11.19,4,18c-0.22-0.78-0.03-1.97-1-2c0.11,2.49,1.87,3.1,0,5
					c-1.72-1.76-4.05-3.76-1-6c-2,0-4,0-6,0c1.96-2.66,4.52-7.66,0-10c0-1.67,0-3.33,0-5c0.22-0.78,0.03-1.97,1-2
					C232.12,144.16,236.3,138.83,236,141.5z"/>
				<path fill="#FEFEFE" d="M236,240.5c0.37,1.7-0.78,1.89-2,2c0.53,0.8,1.04,1.62,1,3c-0.67,0-1.33,0-2,0c1.12,2.08,1.08,2.12-1,1
					c0.89-3.51-0.19-3.29,2-6C234.67,240.5,235.33,240.5,236,240.5z"/>
				<path fill="#FDFDFD" d="M234,151.5c-3.36,1.03-1.56-3.11-2-5c4.52,2.34,1.96,7.34,0,10c0,0.67,0,1.33,0,2
					c-0.61-1.73-4.74,0.08-5-2c4.19,0.15,2.41-0.52,1-2C231.38,154.88,232.27,152.77,234,151.5z"/>
				<path fill="#FFFFFF" d="M231,127.5c3.06,3.78-0.01,7.48,2,12c-0.97,0.03-0.78,1.22-1,2c-1,0-2,0-3,0c-3.08,0.75-1.22-3.45-5-2
					c0-0.33,0-0.67,0-1c0.26-1.41,2.19-1.14,3-2c0-2.67,0-5.33,0-8C228.35,128.19,228.91,127.08,231,127.5z"/>
				<path fill="#FEFEFE" d="M231,252.5c1.65,0.14-1.05,4.17,0,7c-0.67,0-1.33,0-2,0c0.73-2.73-1.99-2.01-2-4
					c1.72,0.05,2.56-0.77,3-2c-3.12,1.43-3.12-7.43,0-6C230.01,248.97,229.62,255.68,231,252.5z"/>
				<path fill="#FDFDFD" d="M230,121.5c-0.73,3.06,1.73,2.94,1,6c-2.09-0.42-2.65,0.69-4,1c-4.7-2.02-0.86-6.8,1-7
					C228.14,125.65,228.66,121.7,230,121.5z"/>
				<path fill="#00FFFA" d="M231,149.5c0,1,0,2,0,3c-2.33,0-4.67,0-7,0c-0.58-5.25,3.31-6.02,5-9c0.33,0,0.67,0,1,0
					C227.67,145.38,228.07,148.13,231,149.5z"/>
				<path fill="#00FFFA" d="M230,143.5c2.21,0.12,0.42,4.24,1,6C228.07,148.13,227.67,145.38,230,143.5z"/>
				<path fill="#FEFEFE" d="M232,158.5c-3.07,3-6.93-1.69-10-2c1,0,2,0,3,0c0.67,0,1.33,0,2,0
					C227.26,158.58,231.39,156.77,232,158.5z"/>
				<path fill="#FEFEFE" d="M224,139.5c3.78-1.45,1.92,2.75,5,2c-2.82,1.51-3.9-0.13-6,3c1.12-3.15,0.09-2.26,0-6c0.33,0,0.67,0,1,0
					C224,138.83,224,139.17,224,139.5z"/>
				<path fill="#FEFEFE" d="M223,115.5c0.49-1.7,5.23,0.68,4,4c-1,0-2,0-3,0C225.3,118.17,224.62,116.48,223,115.5z"/>
				<path fill="#FFFFFF" d="M227,102.5c-0.36-2.28-0.84-4.44-1.42-6.5C226.25,97.97,226.75,100.11,227,102.5z"/>
				<path fill="#FDFDFD" d="M222,153.5c-0.75,5.02,4.06-1.71,3,3c-1,0-2,0-3,0c-0.67,0-1.33,0-2,0c-1.67-1.99,0.09-1.27,0-4
					c2.04-0.86,5.51,1.57,3,2C222.94,153.89,222.85,153.32,222,153.5z"/>
				<path fill="#1A1A1A" d="M207,95.5c8.77,9.84,19.1,21.17,17,38c-18.35,28.79-79.59,0-57-33c4.75-3.92,9.08-8.25,13-13
					c2.73,0.73,2.01-1.99,4-2c1.58-0.08,3.81,0.48,4-1c0.97,0.03,0.78,1.22,1,2c-12.3,2.58-21.79,14.63-23.36,26.6
					c-0.229,0.12-0.439,0.25-0.64,0.4c0,1.33,0,2.67,0,4c0.15-0.02,0.29-0.05,0.43-0.06c0.28,7.83,4.311,15.11,13.57,19.06
					c2.38-0.63-0.16-6.16,2-7c2.98-0.02,3.4-2.6,6-3c4.33,0,8.67,0,13,0c0.33,0,0.67,0,1,0c3.16,4.5,6.96,8.37,6,17
					c7.4-1.27,11.23-6.11,15-11c-1.18-24.49-15.39-35.94-29-48c-0.76-1.65-8.24-1.65-9,0c-2.83-0.83-2.59,1.41-5,1
					C191.76,73.87,199.49,87.06,207,95.5z M203,143.5c8.04-17.46-22.83-20.3-22-4C188.22,140.94,194.1,143.74,203,143.5z"/>
				<path fill="#FDFDFD" d="M219,143.5c-0.69-7.32,6.52,3.18,3,7c-1.32-0.01-0.91-1.75-2-2c0,1,0,2,0,3
					C214.86,152.66,222.73,145.92,219,143.5z"/>
				<path fill="#FFFFFF" d="M220,124.5c2.21,0.12,0.42,4.24,1,6c-3.23-2.89-2.38,3.75-1.15,2.23c-1.29,1.93-4.239,1.99-4.08,4.59
					c-2.09-1.5-5.63-0.47-6.77,0.18c-3.37-3.02,0.63-7.24-2-11c2.58-0.24-1.37-1.72,0-4c-0.81,0.19-1,1-2,1
					c-6.55-2.92-13.65,3.67-20-1c-0.74,3.93-3.13,6.21-9,5c-0.13,1.79,1.22,2.11,1,4c-0.89-0.78-2.26-1.08-4-1
					c2.01-0.89,0.26-5.08-1-2c-3.87-2.01,0.09-11.85-6.57-11.06c-0.06-1.43,0.021-2.89,0.21-4.34c1.07-0.58,2.44-0.86,4.36-0.6
					c1.06-3.73-3.75-1.58-3-5c1.16,2.44,4.71-1.12,2-2c0.16-1.17,1.82-0.84,3-1c3.73-0.82,9.06-1.16,6-6c1.57-0.43,0.85-3.15,4-2
					c0.16-1.16-0.22-1.78-1-2c0.31-1.36,2.5-0.83,4-1c0-1.33,0-2.67,0-4c1.46-2.32,3.17,1.95,3-2c2.83,2.34,4.26,1.5,8,1
					c-0.33,5.9,5.78,4.11,3,8c2.77-1.07,4.05,5.27,7,3c1.39,0.57,0.8,5.61,3,4c1.92,1.29-2.36,2.07,0,5c0.81-0.19,1-1,2-1
					c-0.03-0.97-1.22-0.78-2-1c0.93-3.82,4.02-0.73,3,3c-2.65,2.4,1.47,6.48,3,8C217.22,118.66,218.93,125.5,220,124.5z"/>
				<path fill="#FCFCFC" d="M219.85,132.73c-1.229,1.52-2.08-5.12,1.15-2.23c-0.58-1.76,1.21-5.88-1-6c-1.07,1-2.78-5.84-5-7
					c2.15-1.5-0.72-2.45,1-5c-1.5-0.17-3.69,0.36-4-1c0-0.67,0-1.33,0-2c1.02-3.73-2.07-6.82-3-3c0.78,0.22,1.97,0.03,2,1
					c-1,0-1.19,0.81-2,1c-2.36-2.93,1.92-3.71,0-5c-2.2,1.61-1.61-3.43-3-4c-2.95,2.27-4.23-4.07-7-3c2.78-3.89-3.33-2.1-3-8
					c-3.74,0.5-5.17,1.34-8-1c0.17,3.95-1.54-0.32-3,2c0,1.33,0,2.67,0,4c-1.5,0.17-3.69-0.36-4,1c0.78,0.22,1.16,0.84,1,2
					c-3.15-1.15-2.43,1.57-4,2c-0.68,2.32-4.54,1.46-5,4c1.78,0.48-0.43,1.07-1,2c-1.18,0.16-2.84-0.17-3,1c2.71,0.88-0.84,4.44-2,2
					c-0.75,3.42,4.06,1.27,3,5c-1.92-0.26-3.29,0.02-4.36,0.6c1.57-11.97,11.061-24.02,23.36-26.6c1.57-0.43,0.85-3.15,4-2
					c13.61,12.06,27.82,23.51,29,48c-3.77,4.89-7.6,9.73-15,11c0.96-8.63-2.84-12.5-6-17c-0.33,0-0.67,0-1,0
					c-2.05-1.66-10.95-1.66-13,0c-2.6,0.4-3.02,2.98-6,3c-2.16,0.84,0.38,6.37-2,7c-9.26-3.95-13.29-11.23-13.57-19.06
					c6.66-0.79,2.7,9.05,6.57,11.06c1.26-3.08,3.01,1.11,1,2c1.74-0.08,3.11,0.22,4,1c0.22-1.89-1.13-2.21-1-4
					c5.87,1.21,8.26-1.07,9-5c6.35,4.67,13.45-1.92,20,1c-0.24,1.43-1.65,1.69-2,3c2.73-0.09,2.01,1.67,4,0
					c2.63,3.76-1.37,7.98,2,11c1.14-0.65,4.68-1.68,6.77-0.18c0,0.06,0,0.11,0.011,0.17c-1.54-0.09-2.141,1.13,0.22,1.01
					c-0.12-0.37-0.19-0.71-0.22-1.01c0.069-0.01,0.14,0,0.22,0.01c-0.07-0.06-0.15-0.12-0.23-0.18
					C215.61,134.72,218.56,134.66,219.85,132.73z"/>
				<path fill="#FCFCFC" d="M225.58,96C222.02,85.54,213.41,80.12,209,70.5c-2.92-3.75-6.25-7.09-10-10c-3.71-2.63-8.61-4.05-10-9
					c1.33,0,2.67,0,4,0c0.33,0,0.67,0,1,0c-0.11-2.55-3.35-1.98-6-2c2.02-2.59,7.7-0.44,7,3c-1.33,0-2.67,0-4,0
					C204.1,65.42,219.87,75.69,225.58,96z"/>
				<path fill="#FEFEFE" d="M220,152.5c0.09,2.73-1.67,2.01,0,4c-4.89,0.56-2.39-6.28-3-10c-0.33,0-0.67,0-1,0
					c1.07-0.93,0.31-3.69,3-3c3.73,2.42-4.14,9.16,1,8C220,151.83,220,152.17,220,152.5z"/>
				<path fill="#FFFFFF" d="M215.77,137.32c0.08,0.06,0.16,0.12,0.23,0.18c-0.08-0.01-0.15-0.02-0.22-0.01
					C215.77,137.43,215.77,137.38,215.77,137.32z"/>
				<path fill="#FFFFFF" d="M216,138.5c-2.36,0.12-1.76-1.1-0.22-1.01C215.81,137.79,215.88,138.13,216,138.5z"/>
				<path fill="#FEFEFE" d="M212,111.5c0.31,1.36,2.5,0.83,4,1c-1.72,2.55,1.15,3.5-1,5c-1.53-1.52-5.65-5.6-3-8
					C212,110.17,212,110.83,212,111.5z"/>
				<path fill="#FFFFFF" d="M212,86.5c0.07,3.4,0.31,6.98-2,8c-3.97-1.87-1.25-8.35,2-9C212,85.83,212,86.17,212,86.5z"/>
				<path fill="#FFFFFF" d="M210,81.5c-2.03,0.24-2.33,1.41-1,5c-1.55,1.12-2.08,3.25-5,3c1.05-1.01,0.56-2.19,0.15-1.44
					c0.25-1.94-3.03-6.72-5.15-4.56c-1.94-0.09,2.11-4.28-3-3c2.52-5.84-0.11-1.01,1-10c1.29-1.38,4.34-0.99,7-1
					c-1.84,2.93,0.37,6.19-1,9C206.47,76.63,207.65,79.65,210,81.5z"/>
				<path fill="#FEFEFE" d="M207,122.5c-1.37,2.28,2.58,3.76,0,4c-1.99,1.67-1.27-0.09-4,0c0.35-1.31,1.76-1.57,2-3
					C206,123.5,206.19,122.69,207,122.5z"/>
				<path fill="#FCFCFC" d="M205,200.5c2.76-2.73,0.94,1.46,3,2c-1.3,2.9-7.38,1.01-8,2c-1.45-0.44,0.1-0.88,0-2
					c3.83,0.18,0.36-0.82,1-3C202.35,199.81,202.91,200.92,205,200.5z"/>
				<path fill="#FEFEFE" d="M205,199.5c0,0.33,0,0.67,0,1c-2.09,0.42-2.65-0.69-4-1c-0.64,2.18,2.83,3.18-1,3
					c-2.38,2.47-1.64-2.6-6-1c-0.95-2.24,3.09-3.67,4-5c0,0.33,0,0.67,0,1c-0.13,1.79,1.22,2.11,1,4c1.17-0.16,0.84-1.82,1-3
					C203.14,199.63,202.64,198.21,205,199.5z"/>
				<path fill="#FFFFFF" d="M204.15,88.07c-0.021,0.17-0.07,0.31-0.15,0.43C204.04,88.32,204.1,88.17,204.15,88.07z"/>
				<path fill="#FCFCFC" d="M181,139.5c-0.83-16.3,30.04-13.46,22,4C194.1,143.74,188.22,140.94,181,139.5z"/>
				<path fill="#FCFCFC" d="M203,191.5c0.54,3.87-2.55,4.12-3,7c-0.81-0.19-1-1-2-1c0-0.33,0-0.67,0-1c-0.91,1.33-4.95,2.76-4,5
					c-0.53,0.8-1.04,1.62-1,3c-3.63,1.22-7.89-2-9,0c-2.03,0.31,0.21-2.89,1-3c-0.15-1.85-3.39-0.61-4-2c1.01,3.31-0.97,8.71,3,7
					c-0.44,0.89-0.88,1.79-2,2c2.66,1.47,4.24,7.78,2,11c-5.42,1.06-6.29-3.04-10-1c-2.3-3.98,4.44-6.12,0-6
					c-0.31-2.31,2.89-1.11,3-3c-0.73-1.78-1.82-0.14-3,0c-0.28-4.73-6.27-1.14-4,3c0,2.33,0,4.67,0,7c-4.07,1.93-10.82-2.98-12,3
					c0.41,2.26,5.86-0.53,4,4c-0.97-0.03-0.78-1.22-1-2c-3.63-0.92-2.29,6.6,0,6c0.53-0.8,1.04-1.62,1-3c2.15,1.5-0.72,2.45,1,5
					c-0.89-0.62-1.79-1.21-2,0c-1.89-0.75-0.69-2.98-3-1c-0.18-0.85,0.39-0.94,1-1c-0.19-1.13-1-0.56-1,0c-2.43-0.82,1.98-5.27-1-7
					c-3,0.66,0.96,2.14,0,4c-1.31-0.35-1.57-1.76-3-2c-2.26,0.56,1.21,1.56-1,3c-2-2.28-4.65,1.93-5-2c-2.39,2.68,0.61,4.54-1,8
					c-5.67-2.33-0.84-0.77-6,0c-2.96-1.69,0.23-11.94-2-15c0.03-0.97,1.22-0.78,2-1c-0.55-1.45,1.17-5.17-1-5
					c0.25-1.09,1.99-0.68,2-2c-0.74-3.74,1.5-6.46,4-9c-1.45-0.44,0.1-0.88,0-2c-1.27-3.81,0.79-7.08,0-5c0.31,1.36,2.5,0.83,4,1
					c0.83-5.41,3.61-3.95,6-10c0.03,3.11,2.22,0.75,4-2c3.08,3.19,27.27-3.69,32,3c1.91-2.99,2.87-0.73,6-2
					c-0.52,1.48-1.48,2.52-2,4C201.89,184.24,198.32,194.63,203,191.5z M190,200.5c1.34-4.66,7.9-4.1,10-8
					c-29.57-17.92-56.71,1.46-58,30c-0.13,2.83-3.87,8.14,2,9c1.42-8.24,10.98-8.36,13-16c3.22,1.91,6.58,1.44,10,1
					c2.87-1.8,0.89-8.44,3-11c2.28,0.72,5.11,0.89,7,2c0,0.33,0,0.67,0,1c6.35,1.69,0.6-8.73,4-10
					C185.17,198,185.41,201.42,190,200.5z M182,216.5c0.49-2.58-3.54-5.67-5-3C178.77,214.39,178.27,217.56,182,216.5z"/>
				<path fill="#929897" d="M199,60.5c3.75,2.91,7.08,6.25,10,10C205.25,67.59,201.92,64.25,199,60.5z"/>
				<path fill="#929897" d="M200,126.5c-4.33,0-8.67,0-13,0C189.05,124.84,197.95,124.84,200,126.5z"/>
				<path fill="#FFFFFF" d="M200,198.5c-0.16,1.18,0.17,2.84-1,3c0.22-1.89-1.13-2.21-1-4C199,197.5,199.19,198.31,200,198.5z"/>
				<path fill="#FEFEFE" d="M199,65.5c0.13,1.79-1.22,2.11-1,4c-2.48,1.3-4.85-2.23-5,0c-2.77-0.43-0.05-3.15,2-2
					c-0.65-1.02-2.3-1.03-2-3c-1.16,0.84-2.68,1.32-5,1c0.95-1.27,1.16-5.7-1-3c-3.12,0.31,2.54-2.89-1-3
					C190.76,58.99,193.64,64.96,199,65.5z"/>
				<path fill="#1A1A1A" d="M200,192.5c-2.1,3.9-8.66,3.34-10,8c-4.59,0.92-4.83-2.5-9-2c-3.45-3.39-0.6,8.02-3,9
					c-0.33,0-0.67,0-1,0c-1.89-1.11-4.72-1.28-7-2c-2.11,2.56-0.13,9.2-3,11c-3.42,0.44-6.78,0.91-10-1c-2.02,7.64-11.58,7.76-13,16
					c-5.87-0.86-2.13-6.17-2-9C143.29,193.96,170.43,174.58,200,192.5z M190,198.5c0-2.33,0-4.67,0-7c-2.62-2.05-6.2-3.13-11-3
					C177.48,197.02,184.32,197.18,190,198.5z M177,205.5c0.58-6.88,1.42-12.31-1-18c-7.01-0.34-11.99,1.34-15,5
					C165.41,197.75,168.89,203.95,177,205.5z M166,212.5c2.2-2.27,1.36-9.98-2-10c0.04-1.38-0.47-2.2-1-3c-0.24-7.66-8.26-6.55-10-1
					c-3.6,7.01,1.92,17.54,12,17C165.05,214.22,166.28,214.12,166,212.5z M153,219.5c0-1.67,0-3.33,0-5c-1.86-0.14-3.34-0.66-4-2
					c1.33,0,2.67,0,4,0c-0.43-3.57-2.51-5.49-5-7c-1.98,4.37-6.06,11.91-3,18C147.25,221.75,150.62,221.12,153,219.5z"/>
				<path fill="#00FFFA" d="M195,75.5c-2.84-0.17-1.95,3.38-6,2c-2.34-2.64-0.17-6.82,0-10C191.87,69.29,194.71,71.13,195,75.5z"/>
				<path fill="#929897" d="M194,51.5c-0.33,0-0.67,0-1,0c-0.76-2.91-8.24,0.91-9-2c1.33,0,2.67,0,4,0
					C190.65,49.52,193.89,48.95,194,51.5z"/>
				<path fill="#929897" d="M193,84.5c-3.15-1.15-2.43,1.57-4,2c-0.22-0.78-0.03-1.97-1-2c-0.19,1.48-2.42,0.92-4,1
					c0-0.33,0-0.67,0-1C184.76,82.85,192.24,82.85,193,84.5z"/>
				<path fill="#FCFCFC" d="M190,191.5c0,2.33,0,4.67,0,7c-5.68-1.32-12.52-1.48-11-10C183.8,188.37,187.38,189.45,190,191.5z"/>
				<path fill="#FFFFFF" d="M193,79.5c-4.39,3.26-12.23-1.35-16,1c1.9,5.12-1.39,4.02,0,8c-2.85-1.37-6.01,1.79-3,3
					c0.17,2.17-3.55,0.45-5,1c0.32-6.08,1.36-10.31,1-19c2.54-1.73,3.88,1.52,4-2c1.17-0.16,0.84-1.82,1-3c3.95,2.5,6.55-1.06,9,1
					c0.33,0,0.67,0,1,0c2.36,1.93-2.36,5.07,0,7C187.18,77.3,189.64,77.74,193,79.5z"/>
				<path fill="#FDFDFD" d="M184,204.5c0,0.67,0,1.33,0,2c-3.97,1.71-1.99-3.69-3-7c0.61,1.39,3.85,0.15,4,2
					C184.21,201.61,181.97,204.81,184,204.5z"/>
				<path fill="#FEFEFE" d="M184,69.5c-2.45-2.06-5.05,1.5-9-1c-0.16,1.18,0.17,2.84-1,3c-0.32-2.32,0.16-3.84,1-5
					C178.96,66.54,183.98,65.52,184,69.5z"/>
				<path fill="#DEDEDE" d="M177,213.5c1.46-2.67,5.49,0.42,5,3C178.27,217.56,178.77,214.39,177,213.5z"/>
				<path fill="#FCFCFC" d="M185,53.5c-2.17,3.17-4.87,5.8-9,7C177.3,56.46,180.62,54.46,185,53.5z"/>
				<path fill="#929897" d="M178,207.5c2.4-0.98-0.45-12.39,3-9c-3.4,1.27,2.35,11.69-4,10c0-0.33,0-0.67,0-1
					C177.33,207.5,177.67,207.5,178,207.5z"/>
				<path fill="#FEFEFE" d="M178,98.5c3.06,4.84-2.27,5.18-6,6c0.57-0.93,2.78-1.52,1-2C173.46,99.96,177.32,100.82,178,98.5z"/>
				<path fill="#FCFCFC" d="M176,187.5c2.42,5.69,1.58,11.12,1,18c-8.11-1.55-11.59-7.75-16-13
					C164.01,188.84,168.99,187.16,176,187.5z"/>
				<path fill="#FCFCFC" d="M181,50.5c-2.83,4.83-5.88,9.46-12,11c0-4.33,0-8.67,0-13C173.35,48.81,177.18,49.65,181,50.5z"/>
				<path fill="#FCFCFC" d="M174,46.5c0,0.33,0,0.67,0,1c-6.54-0.54-11.38,0.62-17,1c-0.67,0-1.33,0-2,0c0.23-1.44,2.98-0.35,3-2
					C163.33,46.5,168.67,46.5,174,46.5z"/>
				<path fill="#FEFEFE" d="M174,209.5c-1,0-2,0-3,0c0.09,1.42,0.17,2.83-1,3C167.73,208.36,173.72,204.77,174,209.5z"/>
				<path fill="#FEFEFE" d="M168,92.5c3.54,0.11-2.12,3.31,1,3c-1.61,3.12-3.17-2.05-5-2c0.19-1.14,1-0.56,1,0
					c0.97-0.03,0.78-1.22,1-2C166.93,92.07,167.51,94.28,168,92.5z"/>
				<path fill="#929897" d="M180,87.5c-3.92,4.75-8.25,9.08-13,13C170.92,95.75,175.25,91.42,180,87.5z"/>
				<path fill="#929897" d="M167,81.5c-0.18,3.16-0.7,5.96-4,6C163.18,84.34,163.7,81.54,167,81.5z"/>
				<path fill="#929897" d="M164,202.5c3.36,0.02,4.2,7.73,2,10C166.17,208.33,166.35,204.15,164,202.5z"/>
				<path fill="#FCFCFC" d="M164,202.5c2.35,1.65,2.17,5.83,2,10c0.28,1.62-0.95,1.72-1,3c-10.08,0.54-15.6-9.99-12-17
					c3.22-4.47,8.12-4.85,10,1C163.53,200.3,164.04,201.12,164,202.5z"/>
				<path fill="#FCFCFC" d="M166,49.5c0.16,5.49-2.42,8.25-4,12c-6.7,0.36-10.57-2.1-16-3c-2.38-2.96-11.62,0.96-14-2
					C142.32,53.16,153.91,51.08,166,49.5z"/>
				<path fill="#FFFFFF" d="M161,96.5c1.48,1.85,5.17,1.5,5,5c-1.87-0.8-3.66-1.67-6-2C160.53,98.7,161.04,97.88,161,96.5z"/>
				<path fill="#FFFFFF" d="M165.64,113.1c-0.189,1.45-0.27,2.91-0.21,4.34c-0.14,0.01-0.279,0.04-0.43,0.06c0-1.33,0-2.67,0-4
					C165.2,113.35,165.41,113.22,165.64,113.1z"/>
				<path fill="#FCFCFC" d="M165,63.5c4.98,1.35,0.2,8.36-2,9C160.55,70.3,163.45,65.01,165,63.5z"/>
				<path fill="#FCFCFC" d="M164,73.5c4.02,2.07-2.75,9.64-3,14C158.33,83.12,161.79,76.31,164,73.5z"/>
				<path fill="#DEDEDE" d="M162,227.5c0.04,1.38-0.47,2.2-1,3c-2.29,0.6-3.63-6.92,0-6c0.22,0.78,0.03,1.97,1,2
					C162,226.83,162,227.17,162,227.5z"/>
				<path fill="#FEFEFE" d="M159,108.5c3.01-1.01,1.77,2.23,2,4c-1.76-1.44-2.28-0.92-2,2C157.02,117.07,158.36,109.55,159,108.5z"
					/>
				<path fill="#FEFEFE" d="M161,138.5c-3.26,3.47,0.26,8.7-3,13c0.6-3.36-0.36-6.73-3-4c-0.28-2.61-0.34-5,3-4
					c-1.78-3.36,1.82-7.63-3-9c0.17-1.17,1.58-1.09,3-1C157.53,136.64,160.69,136.14,161,138.5z"/>
				<path fill="#929897" d="M153,198.5c1.74-5.55,9.76-6.66,10,1C161.12,193.65,156.22,194.03,153,198.5z"/>
				<path fill="#FEFEFE" d="M158,230.5c0-0.56,0.81-1.13,1,0c-0.61,0.06-1.18,0.15-1,1c-1.13,0.19-0.56,1,0,1
					c-2.17,3.06-1.6-4.99-5-4c2.21-1.44-1.26-2.44,1-3c1.43,0.24,1.69,1.65,3,2c0.96-1.86-3-3.34,0-4
					C159.98,225.23,155.57,229.68,158,230.5z"/>
				<path fill="#929897" d="M158,72.5c3.71,0.79,1.57,7.48-2,7C155.35,75.85,156.67,74.17,158,72.5z"/>
				<path fill="#FDFDFD" d="M155,147.5c2.64-2.73,3.6,0.64,3,4c-0.67,0-1.33,0-2,0c0-0.67,0-1.33,0-2c-0.11-1.92-3.35,1.17-6,0
					C149.55,146.72,155.45,150.28,155,147.5z"/>
				<path fill="#FFFFFF" d="M55,46.5c34.33,0,68.67,0,103,0c-0.02,1.65-2.77,0.56-3,2c0.67,0,1.33,0,2,0c-6.67,2.66-15.31,3.36-23,5
					c-1.25-1.82-9.74,2.84-9,3c0.33,0,0.67,0,1,0c-2.71,1.96-6.64,2.7-11,3c-17.92,2.08-14.5,25.5-35,25c0.85,5.85-8.2,1.8-12,3
					c0,1.67,0,3.33,0,5c2.07-0.59,6.57,1.24,7-1c2,0,4,0,6,0c-1.08,2.59-3.62,3.72-4,7c0.04,1.71-0.74,2.59-2,3
					c-1.74-1.67-2.95,5.66-6,6c-0.73-2.27,1.8-7.8-2-7c-4.42,1.58-0.85,11.15-2,16c-0.82,3.48-7.46,10.79-2,14
					c0.73,3.06-1.73,2.94-1,6c-0.11,2.56-0.57,4.77-2,6c0-0.33,0-0.67,0-1c-2.55-1.78,0.66-9.33-2-11c0.09-1.42,0.17-2.83-1-3
					c-0.19-1.14-1-0.56-1,0c-0.33,0-0.67,0-1,0C55,100.5,55,73.5,55,46.5z"/>
				<path fill="#FCFCFC" d="M155,134.5c4.82,1.37,1.22,5.64,3,9c-3.34-1-3.28,1.39-3,4c0.45,2.78-5.45-0.78-5,2c-1,0-1.19,0.81-2,1
					c-1.26-0.41-2.04-1.29-2-3c1.28,0.05,1.38,1.28,3,1c-0.34-3.53-2.62-2.58-5-2c-5.32,0.92-0.7-2.4-2-6c-0.04-1.38,0.47-2.2,1-3
					c0.8-4.05,1.29-4.6,2-7c0.69,1.97,5.58-0.25,6,2c0,1-0.81,1.19-1,2C151.67,134.5,153.33,134.5,155,134.5z M153,143.5
					c1.46-6.46-4.7-5.3-5-10c-4.14-0.14-1.04,6.96-2,10C148.33,143.5,150.67,143.5,153,143.5z"/>
				<path fill="#FEFEFE" d="M156,149.5c0,0.67,0,1.33,0,2c-3.82,0.89-6.38-1.63-8,0c0-0.33,0-0.67,0-1c0.81-0.19,1-1,2-1
					C152.65,150.67,155.89,147.58,156,149.5z"/>
				<path fill="#FCFCFC" d="M153,98.5c2.27,1.06,0.38,6.29,1,9c-3.19,0.86-3.09-1.57-5-2C149.93,102.76,152.07,101.24,153,98.5z"/>
				<path fill="#00FFFA" d="M148,133.5c0.3,4.7,6.46,3.54,5,10c-2.33,0-4.67,0-7,0C146.96,140.46,143.86,133.36,148,133.5z"/>
				<path fill="#FCFCFC" d="M153,214.5c0,1.67,0,3.33,0,5c-2.38,1.62-5.75,2.25-8,4c-3.06-6.09,1.02-13.63,3-18
					c2.49,1.51,4.57,3.43,5,7c-1.33,0-2.67,0-4,0C149.66,213.84,151.14,214.36,153,214.5z"/>
				<path fill="#929897" d="M152,88.5c2.46,2.85-0.93,8.36-2,11C147.46,96.56,152.08,92.29,152,88.5z"/>
				<path fill="#FFFFFF" d="M101,81.5c0.3,0.01,0.63,0.01,1,0C101.81,80.36,101,80.94,101,81.5z M100.98,81.5
					c-3.28-0.68,4.07-3.2,1.24-3.95c1.76,0.4,5.48,1.16,5.78-4.05c1.17-0.16,0.84-1.82,1-3c2.72-0.72-0.72,4.72,2,4
					c3.05-1.22-1.46-3.82,1-5c-0.53-1.44,3.9-2.44,1-3c0.85-2.93,3.22,0.6,5,0c1.76-0.91,1.83-3.5,3-5c3.87,0.54,4.88-1.79,9-1
					c0.06,0.61,0.15,1.18,1,1c0.04,1.38-0.47,2.2-1,3c2.26,2.28,4.4-0.68,6-2c-0.61-0.06-1.18-0.15-1-1c2.71,0.29,7.41-1.41,6,3
					c3.31,1.22,8.13-4.16,7-1c-3.34,0.62-2.02,4.36,2,3c0.81,5.81,0.03,7.89,2,13c-2.46-1.52-0.66,5.41-5.44,6
					c-0.35-0.11-0.86-0.11-1.56,0c0.59,0.07,1.1,0.07,1.56,0c1.66,0.47,0.01,2.99,0.25,4.48c-0.47-0.91-1.51-1.66-1.81-0.48
					c1.62,0.98,2.3,2.67,1,4c-1.02,0.65-1.03,2.3-3,2c-1.88-4.66,4.73-11.89-2-12c0.3-2.63-1.38-3.28-4-3c-3.49-0.84-5.32-3.34-10-3
					c-4.35,0.98-6.44,4.22-6,10c4.81,0.61,3.41,6.1,4,11c-2.61-2.52-1.21-3.25-2-8c-2.44-1.89-6.52-2.15-11-2
					c-0.97,0.03-0.78,1.22-1,2c-1.16-0.16-1.78,0.22-2,1c-1.17-0.16-0.84-1.82-1-3c-3.67,0-7.33,0-11,0
					C99.44,80.34,95.8,81.44,100.98,81.5z M122,67.5c-2.07,0.59-6.57-1.24-7,1C116.18,71.78,119.65,68.7,122,67.5z"/>
				<path fill="#FDFDFD" d="M148,63.5c1.26,0.98,6.36,0.43,2,3C145.98,67.86,144.66,64.12,148,63.5z"/>
				<path fill="#FDFDFD" d="M149,111.5c-1,0-2,0-3,0c-1.71-0.41,0.21-1.29,0-3c-1.18-0.16-2.84,0.17-3-1c1.97,0.3,1.98-1.35,3-2
					C145.46,109.04,147.62,109.88,149,111.5z"/>
				<path fill="#FDFDFD" d="M149,148.5c-1.62,0.28-1.72-0.95-3-1c-0.04,1.71,0.74,2.59,2,3c0,0.33,0,0.67,0,1
					c-2.9-1.43-4.86,1.09-4-5C146.38,145.92,148.66,144.97,149,148.5z"/>
				<path fill="#FEFEFE" d="M147,234.5c1.43,3.12-7.43,3.12-6,0C146.16,233.73,141.33,232.17,147,234.5z"/>
				<path fill="#FFFFFF" d="M146.81,89.98c0.08,0.17,0.15,0.35,0.19,0.52C146.9,90.35,146.83,90.17,146.81,89.98z"/>
				<path fill="#FCFCFC" d="M146.56,85.5c-0.46,0.07-0.97,0.07-1.56,0C145.7,85.39,146.21,85.39,146.56,85.5z"/>
				<path fill="#FEFEFE" d="M146,200.5c0.1,1.12-1.45,1.56,0,2c-2.5,2.54-4.74,5.26-4,9c-0.33,0-0.67,0-1,0c-2.5-3.03,2.3-5.77,0-9
					c1.44-0.56,2.44-1.56,3-3C144.81,199.69,145,200.5,146,200.5z"/>
				<path fill="#FEFEFE" d="M146,93.5c-1.37,4.82-1.48,4.68-1,11c-1,0-1.19-0.81-2-1c0-1.33,0-2.67,0-4c-5.21-4.04-10.89-0.03-18-1
					c-0.59-4.9,0.81-10.39-4-11c-0.44-5.78,1.65-9.02,6-10c1.65,3.49-0.23,5.32,1,10c-0.81-0.19-1-1-2-1c0.66,3.31,2.89,4.34,1,6
					c0.18-0.85-0.39-0.94-1-1c-1.06,3.73,3.75,1.58,3,5c4,0,8,0,12,0c-0.38-4.79,0.06-5.82-3-6c-0.28-1.62,0.95-1.72,1-3
					c0.89,0.78,2.26,1.08,4,1c0.85-3.19-0.87-3.8-2-5c6.73,0.11,0.12,7.34,2,12C144.97,95.8,144.98,94.15,146,93.5z"/>
				<path fill="#929897" d="M146,58.5c-3.94-0.75-16.48,1.85-14-2C134.38,59.46,143.62,55.54,146,58.5z"/>
				<path fill="#FDFDFD" d="M141,83.5c1.13,1.2,2.85,1.81,2,5c-1.74,0.08-3.11-0.22-4-1c3.19-2.95-5.19-4.05-2-7
					C139.62,80.22,141.3,80.87,141,83.5z"/>
				<path fill="#FEFEFE" d="M140,133.5c2.06,0.27,0.24,4.43,3,4c-0.53,0.8-1.04,1.62-1,3c-1.97,0.3-1.98-1.35-3-2
					c-0.56,2.08-1.56,2.12-3,1C137.39,137.55,139.59,136.43,140,133.5z"/>
				<path fill="#FDFDFD" d="M141,211.5c0.33,0,0.67,0,1,0c-0.01,1.32-1.75,0.91-2,2c2.17-0.17,0.45,3.55,1,5
					c-0.78,0.22-1.97,0.03-2,1C138.44,219.52,138.25,211.48,141,211.5z"/>
				<path fill="#FDFDFD" d="M141,96.5c-4,0-8,0-12,0c0.75-3.42-4.06-1.27-3-5c0.61,0.06,1.18,0.15,1,1c3.05,0.95,4.3,3.7,9,3
					c0.69-2.69-2.07-1.93-3-3c0.26-2.08,4.39-0.27,5-2C141.06,90.68,140.62,91.71,141,96.5z"/>
				<path fill="#FCFCFC" d="M102.22,77.55c2.83,0.75-4.52,3.27-1.24,3.95c-5.18-0.06-1.54-1.16-3.98,7c3.67,0,7.33,0,11,0
					c0.16,1.18-0.17,2.84,1,3c0.22-0.78,0.84-1.16,2-1c1.78,0.48-0.43,1.07-1,2c4.2-0.14,5.59,1.82,9,0c0.32,3.9,5.63,3.8,4,8
					c-1.54,0.53-0.06,1.04,1,1c-2.87,1.84-2.26,2.49-3,5c0.85,1.49,3.22,1.45,5,2c-3.1,4.43,6.99,3.96,5,10c1.15-1.2,2.53-0.39,1,0
					c2.12-0.32,4.04,2.15,7,1c1.49,4.49-0.34,7.5,1,14c-0.41,2.93-2.61,4.05-4,6c-0.86,0.81-0.59,2.74-2,3c0.43,1.57,3.15,0.85,2,4
					c-1.67,0-3.33,0-5,0c-0.58,7.76-10.03,11.95-9,18c-2.13,2.4-3.72,1.76-6,1c0.7,3.08,0.7,1.92,0,5c-9.62-0.61-12-2.56-24-1
					c2.35-3.63-5.15-7.34-7-7c-1.43-2.98,0.82-3.4-1-6c0-2.01,0-4.02,0-6.03c2.1,6.78,6.11,12.69,12,16.03
					c2.38,1.66,11.62,1.66,14,0c10.46-5.66,38.79-34.38,21-46c-4.58-5.42-9.58-10.42-15-15c-0.56-1.44-1.56-2.44-3-3
					c1.82-1.85,6.03-1.3,8-3c-5.38-8.29-21.61-5.72-29-12c8.55-9.78,13.81-22.86,29-26c-1.17,1.5-1.24,4.09-3,5
					c-1.78,0.6-4.15-2.93-5,0c2.9,0.56-1.53,1.56-1,3c-1.33,0-2.67,0-4,0c0,1.33,0,2.67,0,4C107.7,78.71,103.98,77.95,102.22,77.55z
					"/>
				<path fill="#FCFCFC" d="M137,80.5c-3.19,2.95,5.19,4.05,2,7c-0.05,1.28-1.28,1.38-1,3c-0.61,1.73-4.74-0.08-5,2
					c0.93,1.07,3.69,0.31,3,3c-4.7,0.7-5.95-2.05-9-3c1.89-1.66-0.34-2.69-1-6c1,0,1.19,0.81,2,1c-1.23-4.68,0.65-6.51-1-10
					C131.68,77.16,133.51,79.66,137,80.5z M136,89.5c0.33-4.33-1.38-6.62-4-8c-1.28-0.05-1.38-1.28-3-1c0,1.67,0,3.33,0,5
					c0,1,0,2,0,3C130.29,89.88,133.34,89.49,136,89.5z"/>
				<path fill="#00FFFA" d="M132,81.5c2.62,1.38,4.33,3.67,4,8c-2.66-0.01-5.71,0.38-7-1c0-1,0-2,0-3c0.33,0,0.67,0,1,0
					C130.01,83.51,132.73,84.23,132,81.5z"/>
				<path fill="#FCFCFC" d="M135,125.5c0.59,10.59-4.26,15.74-8,22c-5.11-2.56-11.2-4.13-19-4c-5.37,1.39-9.93,17.66-2,20
					c-9.94,3.68-14.19-0.68-16.8-7.05c4.93-1.311,2.6,4.63,5.8,5.05c1.37-3.67,6,5.95,4,0c1,0,1.19,0.81,2,1
					c-1.38-3.03,0.48-3.57,0-8c0-1,0-2,0-3c0.11-2.49,1.87-3.1,0-5c1.6-7.97,15.58-3.53,21-3c-0.17-3.01,3.52-1.12,5-1
					c0.72-3.06-1.02-3.64-1-6c3.73-1.06,3.23,2.11,5,3c1.65-2.6-1.49-6.02,1-9c-4.01-0.21-4.47,0.25-2,2c-6.54,0.6-0.5-6.02-6-3
					c-1.27-3.29-1.32-8.9-2-10c-2.52,3.02-3.79-2.86-4-3c-1.49,2.16-2.82-1.09-4,2c-0.17-1.5,0.36-3.69-1-4c1.3,3.15-5.92,0.79-7,0
					c0.78-0.22,1.97-0.03,2-1c-1.74-0.08-3.11,0.22-4,1c-0.3,1.97,1.35,1.98,2,3c-7.83-0.97-9.18,5.32-16,7c1.44,2.21,2.44-1.26,3,1
					c-9.69,9.53-3.77,15.35-3.99,30.48C86.74,150.2,85.7,142.94,83,138.5c-0.31-21.23,26.69-34.25,42-19c2.04,3.63,0.41,10.93,7,10
					c2.48-1.9-4.54-2.72-3-7C132.87,121.63,132.56,124.94,135,125.5z"/>
				<path fill="#FEFEFE" d="M131,61.5c1.33,0,2.67,0,4,0c-0.18,0.85,0.39,0.94,1,1c-1.6,1.32-3.74,4.28-6,2
					C130.53,63.7,131.04,62.88,131,61.5z"/>
				<path fill="#FCFCFC" d="M125,56.5c-0.74-0.16,7.75-4.82,9-3c-2.81,0.85-4.1,3.23-8,3C125.67,56.5,125.33,56.5,125,56.5z"/>
				<path fill="#00FFFA" d="M132,81.5c0.73,2.73-1.99,2.01-2,4c-0.33,0-0.67,0-1,0c0-1.67,0-3.33,0-5
					C130.62,80.22,130.72,81.45,132,81.5z"/>
				<path fill="#FEFEFE" d="M130,132.5c-2.47-1.75-2.01-2.21,2-2c-2.49,2.98,0.65,6.4-1,9c-1.77-0.89-1.27-4.06-5-3
					c-0.02,2.36,1.72,2.94,1,6c-1.48-0.12-5.17-2.01-5,1c-5.42-0.53-19.4-4.97-21,3c-1,2.13-5.16,3.72-3,6c1.17-0.16,0.84-1.82,1-3
					c1.09,0.25,0.68,1.99,2,2c0,1,0,2,0,3c-3.18,0.88-3.39,4.02-2,7c2,5.95-2.63-3.67-4,0c-3.2-0.42-0.87-6.36-5.8-5.05
					c-0.07-0.15-0.13-0.311-0.19-0.47c0.22-15.13-5.7-20.951,3.99-30.48c-0.56-2.26-1.56,1.21-3-1c6.82-1.68,8.17-7.97,16-7
					c-0.65-1.02-2.3-1.03-2-3c0.89-0.78,2.26-1.08,4-1c-0.03,0.97-1.22,0.78-2,1c1.08,0.79,8.3,3.15,7,0c1.36,0.31,0.83,2.5,1,4
					c1.18-3.09,2.51,0.16,4-2c0.21,0.14,1.48,6.02,4,3c0.68,1.1,0.73,6.71,2,10C129.5,126.48,123.46,133.1,130,132.5z M90,141.5
					c0.96,3.04-2.14,10.14,2,10C91.04,148.46,94.14,141.36,90,141.5z"/>
				<path fill="#FEFEFE" d="M125,98.5c-0.75,3.08,3.45,1.22,2,5c-3.8,1.47-0.2-4.47-4-3c1.63-4.2-3.68-4.1-4-8
					c-3.41,1.82-4.8-0.14-9,0c0.57-0.93,2.78-1.52,1-2c0.22-0.78,0.03-1.97,1-2c4.48-0.15,8.56,0.11,11,2
					C123.79,95.25,122.39,95.98,125,98.5z"/>
				<path fill="#FCFCFC" d="M123,148.5c0,1.33,0,2.67,0,4c-3.75,2.92-7.09,6.25-10,10c-0.8,0.53-1.62,1.04-3,1
					c-0.44-0.89-0.88-1.79-2-2c-2.6-1.74-2.03-6.64-2-11c-0.28-1.62,0.95-1.72,1-3C111.35,145.23,119.41,146.78,123,148.5z"/>
				<path fill="#FEFEFE" d="M115,68.5c0.43-2.24,4.93-0.41,7-1C119.65,68.7,116.18,71.78,115,68.5z"/>
				<path fill="#929897" d="M116,105.5c5.42,4.58,10.42,9.58,15,15C125.58,115.92,120.58,110.92,116,105.5z"/>
				<path fill="#929897" d="M108,96.5c1.86-1.79,9.32-0.71,9,3C112.46,100.04,111.01,97.49,108,96.5z"/>
				<path fill="#929897" d="M123,152.5c-2.91,3.75-6.25,7.08-10,10C115.91,158.75,119.25,155.42,123,152.5z"/>
				<path fill="#FCFCFC" d="M118,112.5c-1.87-0.8-3.66-1.67-6-2c-1.08-1.66-8.92-1.66-10,0c-16.87,3.04-22.73,23.16-18.27,39.05
					c-1.51,0.64-0.11,8-2.73,3.95c3.31-3.38-0.59-8.03-2-10c1.31,1.2,1.57,0.39,3,0c0.31-1.21-2.89-3.45-3-1
					c-1.5-2.58,1.86-3.41-0.86-6.83c2.7,3.21,3.96-8.16,2.86-15.17c4.01-3.21,4.18-4.33,8-8c1.23,0.44,2.05,1.28,2,3
					c0.92-2.75,4.4-2.93,7-4c-0.53-0.8-1.04-1.62-1-3c3.65,1.46,9.7-1.37,15-1c-0.56-2.26-1.56,1.21-3-1c0.44-1.45,0.88,0.1,2,0
					c0.47-2.13-1.43-1.9-3-2c-0.33,0-0.67,0-1,0c-0.09-2.73,1.67-2.01,0-4c-1.14,0.19-0.56,1,0,1c-0.85,2.36-4.39-0.83-6-1
					c0.5-3.26-4.97-2.12-2-5c-5.07,2.7-6.95,0.26-11,1c-1.34,1.4-4.88,6.37-8,9c0.03,0.97,1.22,0.78,2,1c-2.52,2.24-4.12,1.7-4,6
					c-7.01-3.29-1.73,5.28-9,5c-0.75,6.41,1.17,10.17,1,16c-2.99,0.35-3.64,3.02-5,5c3.24,2.17,1.86,1.44,0,8
					c-0.04,0.16-1.4-1.3-1-2c-3.49,6.15,0.67,16.74-1,24c-0.33,0-0.67,0-1,0c0-7.33,0-14.67,0-22c1.65-10.68,7.25-17.42,6-31
					c5.66-8.34,13.81-14.19,19-23C103.43,93.07,111.8,101.7,118,112.5z"/>
				<path fill="#FEFEFE" d="M108,69.5c1.33,0,2.67,0,4,0c-2.46,1.18,2.05,3.78-1,5c-2.72,0.72,0.72-4.72-2-4
					c-0.16,1.18,0.17,2.84-1,3C108,72.17,108,70.83,108,69.5z"/>
				<path fill="#929897" d="M112,110.5c-3.33,0-6.67,0-10,0C103.08,108.84,110.92,108.84,112,110.5z"/>
				<path fill="#929897" d="M96,166.5c4.67,0,9.33,0,14,0C107.62,168.16,98.38,168.16,96,166.5z"/>
				<path fill="#FEFEFE" d="M108,104.5c0.58,4.02-2.96-0.5-6,1c1.92-4.92-3.32-2.68-3-6c0.81,0.19,1,1,2,1c1.61,0.17,5.15,3.36,6,1
					c-0.56,0-1.14-0.81,0-1c1.67,1.99-0.09,1.27,0,4C107.33,104.5,107.67,104.5,108,104.5z"/>
				<path fill="#929897" d="M108,161.5c-4.18,0.47-3.77-8.84-2-11C105.97,154.86,105.4,159.76,108,161.5z"/>
				<path fill="#FCFCFC" d="M108,259.5c-1.33,0-2.67,0-4,0c-0.65-1.02-2.3-1.03-2-3c-3.58,1.97-5.34-0.46-10,0
					c0.78-0.89,1.08-2.26,1-4c-1.57,0.43-0.85,3.15-4,2c-1.67-1.99,0.09-1.27,0-4c-3.15-1.12-2.26-0.09-6,0c0.02-2.95-3.96-4.05-6-2
					c0.26,2.08,4.39,0.27,5,2c-0.37,1.7,0.78,1.89,2,2c-0.15,2.49-3.39,0.29-4,0c1.38,1.29,0.99,4.34,1,7c-0.33,0-0.67,0-1,0
					c-2.52-8.48-7.31-14.69-7-26c8.05,10.95,18.41,19.59,33,24c-6-3.95-12.14-7.75-17.76-12.05c1.75-0.25,3.95,2.85,4.76,0.05
					c-2.46,1.55-2.94-3.4-1-3c0.75,3.31,3.07,4.34,3,6c2.05-1.76,5.82-0.67,7,0c0.12,1.02-4.31,2.02-1,3c0.41-1.26,1.29-2.04,3-2
					c-0.09,2.73,1.67,2.01,0,4c2.09,1.16,3.76-0.47,5,3C108.95,257.78,107.72,257.88,108,259.5z"/>
				<path fill="#FFFFFF" d="M104,259.5c-7.67,0-15.33,0-23,0c-0.01-2.66,0.38-5.71-1-7c0.61,0.29,3.85,2.49,4,0
					c-1.22-0.11-2.37-0.3-2-2c0.33,0,0.67,0,1,0c3.74-0.09,2.85-1.12,6,0c0.09,2.73-1.67,2.01,0,4c3.15,1.15,2.43-1.57,4-2
					c0.08,1.74-0.22,3.11-1,4c4.66-0.46,6.42,1.97,10,0C101.7,258.47,103.35,258.48,104,259.5z"/>
				<path fill="#FCFCFC" d="M102,81.5c-0.37,0.01-0.7,0.01-1,0C101,80.94,101.81,80.36,102,81.5z"/>
				<path fill="#FDFDFD" d="M101,146.5c1.87,1.9,0.11,2.51,0,5c-1.32-0.01-0.91-1.75-2-2c-0.16,1.18,0.17,2.84-1,3
					C95.84,150.22,100,148.63,101,146.5z"/>
				<path fill="#FFFFFF" d="M101,154.5c0.48,4.43-1.38,4.97,0,8c-0.81-0.19-1-1-2-1C97.61,158.52,97.82,155.38,101,154.5z"/>
				<path fill="#FEFEFE" d="M92,175.5c2.28,1.39,0.37,6.96,1,10c-1.9-1.87-2.51-0.11-5,0c0-0.33,0-0.67,0-1c4.25,0.19,1.14-6.27,1-8
					c-0.06-0.61-0.15-1.18-1-1c0.09-1.89,4.28,0.24,3,3C92.17,178.34,91.84,176.68,92,175.5z"/>
				<path fill="#FFFFFF" d="M92,151.5c-4.14,0.14-1.04-6.96-2-10C94.14,141.36,91.04,148.46,92,151.5z"/>
				<path fill="#FCFCFC" d="M90,243.5c-0.01,1.24-1.54,0.95-1.94,1.81c-1.1-0.85-2.19-1.72-3.25-2.619
					C87.42,243.21,89.17,242.7,90,243.5z"/>
				<path fill="#1A1A1A" d="M89.2,156.45c-0.06,0.01-0.13,0.03-0.2,0.05c0-0.17,0.01-0.35,0.01-0.52
					C89.07,156.14,89.13,156.3,89.2,156.45z"/>
				<path fill="#FDFDFD" d="M89,176.5c0.14,1.73,3.25,8.19-1,8c-0.39-1.09-1.2-2.4,0-1C91.42,182.52,85.33,177.73,89,176.5z"/>
				<path fill="#FCFCFC" d="M88,175.5c0.85-0.18,0.94,0.39,1,1c-3.67,1.23,2.42,6.02-1,7c-1.2-1.4-0.39-0.09,0,1c0,0.33,0,0.67,0,1
					c-3.13-0.46-4.46,0.87-4,4c-1,0-2,0-3,0c-1.89-2.11-3.89-4.11-6-6c-0.22,0.78-0.03,1.97-1,2c0-1,0-2,0-3c-0.96-1.86,3-3.34,0-4
					c0.44-1.48,1.28,0.39,3,0c-1,4.67,1.74,5.59,6,5c2.21-0.12,0.42-4.24,1-6c-2.33,0-4.67,0-7,0c-1.76-3.54,3.36-5.15,1-6
					c-0.17-2.17,3.55-0.45,5-1c-1.86,1.77,0.43,2.92,1,5C85.48,174.34,86.52,174.34,88,175.5z"/>
				<path fill="#FFFFFF" d="M88.06,245.31c0.06,0.051,0.12,0.091,0.18,0.141c-0.08,0-0.16,0.02-0.24,0.05
					C88.02,245.43,88.04,245.37,88.06,245.31z"/>
				<path fill="#FCFCFC" d="M82,85.5c-3.57,2.05,4.37,0.85,3,4c-5.41,1.41-13.35-4.2-16,1c0.12,2.21,4.24,0.42,6,1
					c-0.43,2.24-4.93,0.41-7,1c0-1.67,0-3.33,0-5c3.8-1.2,12.85,2.85,12-3c20.5,0.5,17.08-22.92,35-25
					C100.03,63.7,98.99,86.58,82,85.5z"/>
				<path fill="#FFFFFF" d="M84.29,242.25c0.17,0.15,0.34,0.29,0.52,0.44c-0.26-0.051-0.53-0.11-0.81-0.19
					C84.1,242.42,84.2,242.34,84.29,242.25z"/>
				<path fill="#FCFCFC" d="M81,236.5c1.93,2.36,7.26,2.35,3.29,5.75c-4.31-3.71-8.19-7.84-11.29-12.75
					c-1.82-21.51-11.87-34.8-12-58c0.33,0,0.67,0,1,0c0.61,2.39-1.26,7.25,1,8c0,0.33,0,0.67,0,1c-2.71,3,1.74,3.41,3,4
					c-1.01,0.51-2.07,10.3,3,12c2.39,6.15-0.58,11.98,3,16c2.45-1.33-1.8-3.02,1-4c-0.12,2.66,2.19,5.69-1,6
					c2.97,3.15,0.22,9.13,3,14C78.27,227.7,85.35,236.72,81,236.5z"/>
				<path fill="#FEFEFE" d="M84,150.47c0,2.01,0,4.02,0,6.03c-1.48-0.52-2.52-1.48-4-2c-0.11,1.22-0.3,2.37-2,2
					c-0.6-2.6,0.4-3.6,3-3c2.62,4.05,1.22-3.31,2.73-3.95C83.81,149.86,83.91,150.17,84,150.47z"/>
				<path fill="#1A1A1A" d="M84,149.5c0,0.32,0,0.65,0,0.97c-0.09-0.3-0.19-0.61-0.27-0.92C83.81,149.51,83.9,149.49,84,149.5z"/>
				<path fill="#00FFFA" d="M77,177.5c2.33,0,4.67,0,7,0c-0.58,1.76,1.21,5.88-1,6c-4.26,0.59-7-0.33-6-5
					C77,178.17,77,177.83,77,177.5z"/>
				<path fill="#FEFEFE" d="M77,248.5c2.04-2.05,6.02-0.95,6,2c-0.33,0-0.67,0-1,0C81.39,248.77,77.26,250.58,77,248.5z"/>
				<path fill="#929897" d="M69,90.5c4.67,0,9.33,0,14,0c-1.22,3.45-3.3,6.03-6,8c0.38-3.28,2.92-4.41,4-7c-2,0-4,0-6,0
					C73.24,90.92,69.12,92.71,69,90.5z"/>
				<path fill="#FDFDFD" d="M81,189.5c-0.67,0-1.33,0-2,0c0-0.33,0-0.67,0-1c-0.38-2.29-4-1.33-5-3c0.97-0.03,0.78-1.22,1-2
					C77.11,185.39,79.11,187.39,81,189.5z"/>
				<path fill="#FEFEFE" d="M79,188.5c0,0.33,0,0.67,0,1c-1.28-1.39-4.72-0.61-6-2c0.55-1.45-1.17-5.17,1-5c0,1,0,2,0,3
					C75,187.17,78.62,186.21,79,188.5z"/>
				<path fill="#FFFFFF" d="M78,259.5c-7.67,0-15.33,0-23,0c0-25,0-50,0-75c0.33,0,0.67,0,1,0c0,1.33,0,2.67,0,4
					c0.03,8.97,0.37,17.63,4,23c3.1,4.9,5.98,10.02,8,16c2.41,1.95,1.31,12.64,3,12c0-0.67,0-1.33,0-2
					C72.87,245.29,74.98,252.85,78,259.5z"/>
				<path fill="#FCFCFC" d="M69,107.5c3.05-0.34,4.26-7.67,6-6c-1,4-4.26,5.74-6,9c-2.27-1.06-0.38-6.29-1-9
					c-5.07,0.93,0.46,12.46-3,15c1.15-4.85-2.42-14.42,2-16C70.8,99.7,68.27,105.23,69,107.5z"/>
				<path fill="#FCFCFC" d="M68,227.5c3.22,1.11,3.16,5.5,3,10c0,0.67,0,1.33,0,2C69.31,240.14,70.41,229.45,68,227.5z"/>
				<path fill="#FEFEFE" d="M63,180.5c9.04,2.23,4.08,11.07,6,16c-5.07-1.7-4.01-11.49-3-12C64.74,183.91,60.29,183.5,63,180.5z"/>
				<path fill="#FCFCFC" d="M59,183.5c4.58,13.75,8.12,28.55,12,43c-7.86-9.48-11.62-23.05-13-39
					C58.08,185.92,57.52,183.69,59,183.5z"/>
				<path fill="#FCFCFC" d="M63,123.5c5.29,2.37,1.72,10.17-1,13c-0.73-3.06,1.73-2.94,1-6C63,128.17,63,125.83,63,123.5z"/>
				<path fill="#FEFEFE" d="M63,168.5c2,3.68,0.09,6.72,0,11c-2.26-0.75-0.39-5.61-1-8c0-1,0-2,0-3
					C62.33,168.5,62.67,168.5,63,168.5z"/>
				<path fill="#929897" d="M62,168.5c0,1,0,2,0,3c-0.33,0-0.67,0-1,0c0.66-8.01-1.32-18.66,1-25C62,153.83,62,161.17,62,168.5z"/>
				<path fill="#FCFCFC" d="M60,142.5c0,1,0,2,0,3c-2.32,5.35-0.34,14.99-1,22c0,2,0,4,0,6c-2.33-8.34-0.34-21-1-31
					c1,0,1.19-0.81,2-1C60,141.83,60,142.17,60,142.5z"/>
				<path fill="#929897" d="M60,145.5c-0.66,7.01,1.32,16.65-1,22C59.66,160.49,57.68,150.85,60,145.5z"/>
				<path fill="#FDFDFD" d="M58,130.5c2.66,1.67-0.55,9.22,2,11c-0.81,0.19-1,1-2,1C58,138.5,58,134.5,58,130.5z"/>
				<path fill="#929897" d="M58,142.5c0.66,10-1.33,22.66,1,31c-2.34,2.64-0.17,6.82,0,10c-1.48,0.19-0.92,2.42-1,4
					c-2.33-18-0.33-40.33-1-60c1.17,0.17,1.09,1.58,1,3C58,134.5,58,138.5,58,142.5z"/>
				<path fill="#FCFCFC" d="M60,211.5c-3.63-5.37-3.97-14.03-4-23C57.7,195.8,58.9,203.6,60,211.5z"/>
				<path fill="#929897" d="M56,127.5c0,19,0,38,0,57c-0.33,0-0.67,0-1,0c0-19,0-38,0-57C55.33,127.5,55.67,127.5,56,127.5z"/>
			</g>
			<g>
			</g>
		</g>
	</g>
</g>
<g id="Layer_2">
</g>
</svg>
