<?xml version="1.0" encoding="utf-8"?>
<!-- Generator: Adobe Illustrator 15.0.0, SVG Export Plug-In . SVG Version: 6.00 Build 0)  -->
<!DOCTYPE svg PUBLIC "-//W3C//DTD SVG 1.1//EN" "http://www.w3.org/Graphics/SVG/1.1/DTD/svg11.dtd">
<svg version="1.1" xmlns="http://www.w3.org/2000/svg" xmlns:xlink="http://www.w3.org/1999/xlink" x="0px" y="0px" width="300px"
	 height="300px" viewBox="0 0 300 300" enable-background="new 0 0 300 300" xml:space="preserve">
<g id="Layer_1">
	<g id="LyfCLZ.tif">
		<g>
			<g>
				<path fill-rule="evenodd" clip-rule="evenodd" fill="#FFFFFF" d="M251.991,268c6.299-20.946,22.211-32.896,20.648-61.201
					c0.604-4.122-3.679,1.362-4.302-1.61c-0.268-24.316,2.379-43.869-0.86-66.033c-2.521-17.25-18.396-30.695-24.09-43.485
					c-2.021-4.541-1.08-9.938-2.581-14.495c-1.093-3.32-4.549-8.749-6.883-12.079c-10.872-15.519-25.182-27.014-38.715-37.043
					c-0.332-2.995,4.143-1.49,4.302-4.026c-10.2,1.36-16.288-2.54-23.229-3.221c-15.064-1.479-34.648,2.488-49.9,6.442
					c-10.935,2.835-24.268,6.417-31.833,10.469C83.091,47.853,78.5,61.948,68.738,67.485c-3.48,1.974-10.987,1.23-12.045,5.637
					c-4.064-1.646-12.111-0.802-16.346,0c3.481,4.766,12.047,0.83,18.067,0.805c-5.055,15.686-24.794,24.56-26.67,45.901
					c0.842,1.769,3.768-5.507,5.162-3.221c-3.081,11.879-8.88,21.215-6.883,37.848c-4.949-4.491-2.229-13.931-2.581-21.742
					c-0.27-5.986-1.518-12.317-0.86-17.716c-1.275,27.025-4.973,57.782,0,82.139c1.042,5.102,1.779,11.371,3.441,16.91
					c2.256,7.521,10.854,14.327,13.766,22.548c4.082,11.524,2.001,22.541,8.604,31.406c-9.464,0-18.928,0-28.392,0
					c0-81.333,0-162.667,0-244c83.166,0,166.335,0,249.5,0c0,81.333,0,162.667,0,244C266.33,268,259.161,268,251.991,268z"/>
				<path fill-rule="evenodd" clip-rule="evenodd" fill="#FFFFFF" d="M163.376,27.221c1.795,3.583-1.553,9.266-2.581,12.884
					c-15.383,1.053-24.41-5.636-39.576-2.416c2.977-5.107,11.998-5.068,18.928-6.442C147.816,29.727,156.798,28.61,163.376,27.221z"
					/>
				<path fill-rule="evenodd" clip-rule="evenodd" fill="#FFFFFF" d="M247.689,268c-52.768,0-105.535,0-158.303,0
					c-6.219-8.405-20.31-9.443-28.392-16.105c-4.5-9.478-12.512-15.669-16.346-25.77c-2.567,0.014,1.213,5.968-2.581,4.832
					c-1.462-6.416-5.073-10.82-8.604-15.3c-3.247-17.378-9.712-40.28-4.302-60.396c-1.233,19.018,1.878,33.007,5.162,45.901
					c2.195,8.617,5.77,17.002,10.324,23.353c-0.464-13.719-10.447-29.027-12.905-44.29c-1.757-10.908-0.391-29.718,0.86-40.264
					c0.821-6.922,5.187-11.669,6.883-17.716c1.46-5.208-0.21-10.503,0.86-15.3c3.297-14.774,20.962-18.924,24.95-30.601
					c5.995,1.1,11.857,2.323,18.067,3.221c-0.734-6.023-7.888-6.039-12.045-8.858c5.73-6.292,12.242-16.151,19.788-22.548
					c16.932-14.354,51.226-6.066,77.431-4.026c0.114,5.744-3.823,7.695-8.604,8.858c-4.053,4.527-7.838,9.306-13.766,12.079
					c-3.277,7.401-5.201,16.069-6.883,24.964c4.172,0.065,6.555-2.785,4.302-6.442c2.073-0.33,1.87,1.471,4.302,0.805
					c2.572-11.282,9.787-18.219,13.766-28.185c2.373,0.174,0,4.732,6.022,3.221c1.851-4.709,2.097-10.922,6.022-13.689
					c4.7-1.237,9.825,0.653,16.347,0c-0.12-3.377-3.942-3.29-7.743-3.221c0.582-1.871,2.858-2.156,3.441-4.026
					c-0.586-1.001-9.075,1.865-7.743-3.221c-3.11,1.384-3.275,5.524-8.604,4.832c-0.354-4.545-1.594-8.673,0-12.884
					c30.207,4.206,48.251,19.796,54.201,46.706c2.94,0.604,1.094-3.271,4.302-2.416c5.552,3.125,8.105,9.056,10.324,15.3
					c-5.565,1.17-4.754-10.573-11.185-11.274c1.171,9.676,9.73,15.971,14.626,24.963c4.783,8.786,7.31,18.793,11.185,28.99
					c4.691,12.346,10.299,25.217,12.045,39.458c1.294,10.555-1.194,24.344,0,36.238c0.676,6.728,3.783,11.557,1.721,17.716
					C262.413,235.457,248.311,254.48,247.689,268z M181.443,72.317c-10.517,8.847-27.934,20.578-21.509,37.848
					c6.988,18.787,30.593,31.608,55.922,28.99c12.596-1.302,25.213-10.457,22.369-27.38c-2.181-12.981-10.809-22.538-19.788-32.211
					c-10.106-10.889-17.105-20.738-36.134-15.3C180.342,65.38,181.982,69.869,181.443,72.317z M110.895,100.501
					c-17.381-7.888-38.591,0.22-48.18,9.664c-7.345,13.401-1.992,28.312,0.86,42.68c4.933,9.528,18.22,12.1,33.554,9.663
					c12.664-13.408,32.402-24.391,30.112-49.122C120.604,112.229,117.689,103.585,110.895,100.501z M162.516,203.577
					c4.155-2.027,14.441-2.572,12.905-7.247C171.78,198.84,160.887,198.816,162.516,203.577z"/>
				<path fill-rule="evenodd" clip-rule="evenodd" d="M182.304,64.264c19.028-5.438,26.027,4.412,36.134,15.3
					c8.979,9.673,17.607,19.229,19.788,32.211c2.844,16.923-9.773,26.078-22.369,27.38c-25.329,2.618-48.934-10.204-55.922-28.99
					c-6.425-17.27,10.992-29.001,21.509-37.848C181.982,69.869,180.342,65.38,182.304,64.264z M195.209,70.706
					c-14.72,3.135-25.218,14.511-29.252,24.964c9.62-10.859,24.097-17.172,46.458-16.105c-4.791-4.91-8.086-11.221-16.346-12.885
					C195.347,67.615,194.935,68.839,195.209,70.706z M161.655,106.944c0.594,6.359,11,6.919,11.185,15.3
					c21.961,4.167,42.078,2.375,61.084-3.221c0.099-15.93-8.969-23.279-14.626-33.822c-4.471-1.184-10.673-0.747-16.346-0.805
					c0,2.416,0,4.832,0,7.248c5.25,5.708,15.44-0.97,18.066,0.805c2.062,8.677-17.509,5.619-22.368,2.416c0-4.026,0-8.053,0-12.079
					C187.364,82.283,160.785,97.632,161.655,106.944z M182.304,127.076c9.88,12,53.524,10.503,49.899-4.832
					C218.895,126.966,201.377,127.75,182.304,127.076z"/>
				<path fill-rule="evenodd" clip-rule="evenodd" fill="#FFFFFF" d="M196.069,66.68c8.26,1.664,11.555,7.975,16.346,12.885
					c-22.361-1.067-36.838,5.247-46.458,16.105c4.034-10.453,14.532-21.829,29.252-24.964
					C194.935,68.839,195.347,67.615,196.069,66.68z"/>
				<path fill-rule="evenodd" clip-rule="evenodd" fill="#FFFFFF" d="M198.65,82.786c0,4.026,0,8.053,0,12.079
					c4.859,3.203,24.43,6.261,22.368-2.416c-2.626-1.775-12.816,4.903-18.066-0.805c0-2.416,0-4.832,0-7.248
					c5.673,0.059,11.875-0.378,16.346,0.805c5.657,10.543,14.725,17.892,14.626,33.822c-19.006,5.596-39.123,7.389-61.084,3.221
					c-0.185-8.381-10.591-8.941-11.185-15.3C160.785,97.632,187.364,82.283,198.65,82.786z"/>
				<path fill-rule="evenodd" clip-rule="evenodd" d="M127.241,113.386c2.29,24.73-17.448,35.713-30.112,49.122
					c-15.333,2.437-28.621-0.135-33.554-9.663c-2.852-14.368-8.205-29.279-0.86-42.68c9.588-9.443,30.798-17.551,48.18-9.664
					C117.689,103.585,120.604,112.229,127.241,113.386z M61.855,123.049c11.677-5.736,25.987-15.922,43.878-18.521
					C88.903,92.522,62.485,107.582,61.855,123.049z M77.341,116.607c6.88,10.306-1.931,18.646-13.766,18.521
					c-0.481,6.624,1.374,11.062,2.581,16.105c27.413,0.694,40.827-11.713,56.783-21.743c0.996-3.363,2.148-6.579,2.581-10.469
					c-3.154,0-6.309,0-9.463,0c-0.537-5.135-2.972-8.492-5.162-12.079C97.818,108.394,86.106,111.122,77.341,116.607z
					 M123.8,117.413c0.694-3.603-1.531-4.473-4.302-4.832C117.183,115.15,119.301,118.729,123.8,117.413z M60.134,131.908
					c5.3-0.412,14.863-0.905,17.207-6.442C75.163,114.747,61.541,125.164,60.134,131.908z M69.598,154.455
					c3.002,6.854,14.735,5.535,24.95,5.637c6.377-5.225,20.973-16.919,18.928-21.742C102.729,147.349,86.77,151.47,69.598,154.455z"
					/>
				<path fill-rule="evenodd" clip-rule="evenodd" fill="#FFFFFF" d="M105.733,104.528c-17.891,2.599-32.201,12.786-43.878,18.521
					C62.485,107.582,88.903,92.522,105.733,104.528z"/>
				<path fill-rule="evenodd" clip-rule="evenodd" fill="#FFFFFF" d="M110.895,106.944c2.19,3.587,4.625,6.944,5.162,12.079
					c3.154,0,6.309,0,9.463,0c-0.433,3.89-1.585,7.106-2.581,10.469c-15.956,10.029-29.37,22.437-56.783,21.743
					c-1.208-5.043-3.062-9.481-2.581-16.105c11.834,0.125,20.646-8.215,13.766-18.521
					C86.106,111.122,97.818,108.394,110.895,106.944z"/>
				<path fill-rule="evenodd" clip-rule="evenodd" fill="#FFFFFF" d="M119.498,112.581c2.771,0.359,4.996,1.229,4.302,4.832
					C119.301,118.729,117.183,115.15,119.498,112.581z"/>
				<path fill-rule="evenodd" clip-rule="evenodd" fill="#FFFFFF" d="M251.991,114.997c7.895,8.18,13.134,18.845,12.905,34.627
					C261.192,137.522,254.2,128.498,251.991,114.997z"/>
				<path fill-rule="evenodd" clip-rule="evenodd" fill="#FFFFFF" d="M77.341,125.465c-2.344,5.538-11.907,6.03-17.207,6.442
					C61.541,125.164,75.163,114.747,77.341,125.465z"/>
				<path fill-rule="evenodd" clip-rule="evenodd" fill="#FFFFFF" d="M232.203,122.244c3.625,15.335-40.02,16.832-49.899,4.832
					C201.377,127.75,218.895,126.966,232.203,122.244z"/>
				<path fill-rule="evenodd" clip-rule="evenodd" fill="#FFFFFF" d="M113.476,138.35c2.045,4.823-12.55,16.518-18.928,21.742
					c-10.215-0.102-21.948,1.217-24.95-5.637C86.77,151.47,102.729,147.349,113.476,138.35z"/>
				<path fill-rule="evenodd" clip-rule="evenodd" d="M175.421,196.33c1.536,4.675-8.75,5.22-12.905,7.247
					C160.887,198.816,171.78,198.84,175.421,196.33z"/>
				<path fill-rule="evenodd" clip-rule="evenodd" fill="#FFFFFF" d="M85.084,268c-10.037,0-20.075,0-30.112,0
					c-2.882-8.04-7.126-14.805-6.883-25.769c5.731-0.812,7.314,9.63,12.905,13.689c7.051,5.119,17.744,5.999,24.09,11.273
					C85.084,267.463,85.084,267.731,85.084,268z"/>
				<path fill-rule="evenodd" clip-rule="evenodd" d="M251.991,268c-1.434,0-2.867,0-4.302,0
					c0.621-13.52,14.724-32.543,18.928-45.096c2.062-6.159-1.045-10.988-1.721-17.716c-1.194-11.895,1.294-25.684,0-36.238
					c-1.746-14.241-7.354-27.112-12.045-39.458c-3.875-10.197-6.401-20.204-11.185-28.99c-4.896-8.993-13.455-15.288-14.626-24.963
					c6.431,0.701,5.619,12.444,11.185,11.274c-2.219-6.244-4.772-12.176-10.324-15.3c-3.208-0.856-1.361,3.02-4.302,2.416
					c-5.95-26.91-23.994-42.5-54.201-46.706c-1.594,4.211-0.354,8.339,0,12.884c5.328,0.692,5.493-3.448,8.604-4.832
					c-1.332,5.086,7.157,2.22,7.743,3.221c-0.583,1.871-2.859,2.156-3.441,4.026c3.801-0.068,7.623-0.156,7.743,3.221
					c-6.521,0.653-11.646-1.237-16.347,0c-3.926,2.768-4.172,8.98-6.022,13.689c-6.022,1.512-3.649-3.046-6.022-3.221
					c-3.979,9.966-11.193,16.902-13.766,28.185c-2.432,0.666-2.229-1.135-4.302-0.805c2.253,3.657-0.13,6.507-4.302,6.442
					c1.682-8.895,3.605-17.562,6.883-24.964c5.928-2.773,9.713-7.552,13.766-12.079c4.78-1.163,8.718-3.114,8.604-8.858
					c-26.205-2.04-60.499-10.328-77.431,4.026c-7.546,6.397-14.058,16.256-19.788,22.548c4.157,2.82,11.311,2.835,12.045,8.858
					c-6.21-0.898-12.073-2.121-18.067-3.221c-3.988,11.677-21.653,15.827-24.95,30.601c-1.071,4.797,0.6,10.092-0.86,15.3
					c-1.696,6.047-6.062,10.794-6.883,17.716c-1.251,10.546-2.618,29.356-0.86,40.264c2.458,15.263,12.441,30.571,12.905,44.29
					c-4.554-6.351-8.129-14.735-10.324-23.353c-3.284-12.895-6.395-26.884-5.162-45.901c-5.41,20.116,1.055,43.019,4.302,60.396
					c3.53,4.479,7.142,8.884,8.604,15.3c3.794,1.136,0.014-4.818,2.581-4.832c3.834,10.101,11.846,16.292,16.346,25.77
					c8.082,6.662,22.172,7.7,28.392,16.105c-1.434,0-2.868,0-4.302,0c0-0.269,0-0.537,0-0.806
					c-6.346-5.274-17.039-6.154-24.09-11.273c-5.591-4.06-7.174-14.501-12.905-13.689c-0.244,10.964,4.001,17.729,6.883,25.769
					c-0.86,0-1.721,0-2.581,0c-6.603-8.865-4.521-19.882-8.604-31.406c-2.912-8.221-11.509-15.026-13.766-22.548
					c-1.662-5.539-2.4-11.809-3.441-16.91c-4.973-24.357-1.275-55.114,0-82.139c-0.657,5.399,0.591,11.73,0.86,17.716
					c0.352,7.811-2.368,17.251,2.581,21.742c-1.998-16.633,3.802-25.968,6.883-37.848c-1.395-2.286-4.32,4.99-5.162,3.221
					c1.876-21.342,21.615-30.216,26.67-45.901c-6.02,0.025-14.585,3.96-18.067-0.805c4.235-0.802,12.282-1.646,16.346,0
					c1.058-4.406,8.565-3.663,12.045-5.637c9.762-5.537,14.353-19.632,25.811-25.769c7.564-4.052,20.898-7.634,31.833-10.469
					c15.252-3.955,34.836-7.921,49.9-6.442c6.941,0.682,13.029,4.582,23.229,3.221c-0.159,2.536-4.634,1.031-4.302,4.026
					c13.533,10.029,27.843,21.524,38.715,37.043c2.334,3.331,5.79,8.759,6.883,12.079c1.501,4.557,0.561,9.955,2.581,14.495
					c5.694,12.791,21.569,26.236,24.09,43.485c3.239,22.164,0.593,41.717,0.86,66.033c0.623,2.973,4.906-2.512,4.302,1.61
					C274.202,235.104,258.29,247.054,251.991,268z M140.146,31.248c-6.93,1.374-15.951,1.335-18.928,6.442
					c15.166-3.22,24.193,3.468,39.576,2.416c1.028-3.618,4.376-9.301,2.581-12.884C156.798,28.61,147.816,29.727,140.146,31.248z
					 M264.896,149.624c0.229-15.782-5.011-26.447-12.905-34.627C254.2,128.498,261.192,137.522,264.896,149.624z"/>
			</g>
		</g>
	</g>
</g>
<g id="Layer_2">
</g>
</svg>
