<?xml version="1.0" encoding="utf-8"?>
<!-- Generator: Adobe Illustrator 15.0.0, SVG Export Plug-In . SVG Version: 6.00 Build 0)  -->
<!DOCTYPE svg PUBLIC "-//W3C//DTD SVG 1.1//EN" "http://www.w3.org/Graphics/SVG/1.1/DTD/svg11.dtd">
<svg version="1.1" xmlns="http://www.w3.org/2000/svg" xmlns:xlink="http://www.w3.org/1999/xlink" x="0px" y="0px" width="300px"
	 height="300px" viewBox="0 0 300 300" enable-background="new 0 0 300 300" xml:space="preserve">
<g id="Layer_1">
	<g id="JGPok0.tif">
		<g>
			<g>
				<path fill-rule="evenodd" clip-rule="evenodd" fill="#FFFFFF" d="M150,33c5.629,10.823,19.768,18.071,15,36
					c-1.912,0.421-4.305,0.362-4,3c-8.864-0.724-17.556,1.603-24-2c-5.011-2.802-11.731-12.786-12-15
					c-0.862-7.092,4.581-10.581,9-15C137.499,36.501,139.721,30.929,150,33z M143,52c4,1.053,6.853,2.934,10,0
					C156.162,40.895,140.321,42.145,143,52z"/>
				<path fill-rule="evenodd" clip-rule="evenodd" d="M153,52c-3.147,2.934-6,1.053-10,0C140.321,42.145,156.162,40.895,153,52z
					 M146,47c-1.121,4.046,3.071,4.945,5,3C150.559,46.49,148.892,45.759,146,47z"/>
				<path fill-rule="evenodd" clip-rule="evenodd" fill="#FFFFFF" d="M151,50c-1.929,1.945-6.121,1.046-5-3
					C148.892,45.759,150.559,46.49,151,50z"/>
				<path fill-rule="evenodd" clip-rule="evenodd" fill="#FFFFFF" d="M103,61c-0.377,7.99-4.716,14.207-10,20
					c-5.415,5.937-7.505,8.051-19,7c-10.848-7.029-1.886-21.784,0-33C84.145,47.419,95.971,56.345,103,61z M73,77
					c4.146,1.146,3.896-2.104,7-2c0.438-3.438-0.395-5.605-1-8C72.295,65.296,70.583,72.788,73,77z"/>
				<path fill-rule="evenodd" clip-rule="evenodd" fill="#FFFFFF" d="M179,66c2.588,1.412,4.769,3.231,4,8
					C181.481,71.519,179.071,69.929,179,66z"/>
				<path fill-rule="evenodd" clip-rule="evenodd" d="M79,67c0.605,2.395,1.438,4.562,1,8c-3.104-0.104-2.854,3.146-7,2
					C70.583,72.788,72.295,65.296,79,67z M74,74c3.327,0.275,5.728-4.275,1-4C75.075,71.742,74.777,73.11,74,74z"/>
				<path fill-rule="evenodd" clip-rule="evenodd" fill="#FFFFFF" d="M75,70c4.728-0.275,2.327,4.275-1,4
					C74.777,73.11,75.075,71.742,75,70z"/>
				<path fill-rule="evenodd" clip-rule="evenodd" fill="#FFFFFF" d="M123,81c-1.126,6.207-5.614,9.052-12,10
					c-1.017-3.983-3.027-6.973-6-9c3.224-4.109,6.496-8.171,13-9C120.251,75.082,120.476,79.191,123,81z"/>
				<path fill-rule="evenodd" clip-rule="evenodd" fill="#FFFFFF" d="M121,74c1.583-2.477,6.996-0.408,9,0
					c0.112,3.779-1.957,5.377-5,6C123.929,77.737,122.73,75.603,121,74z"/>
				<path fill-rule="evenodd" clip-rule="evenodd" fill="#FFFFFF" d="M133,75c6.112-0.353,6.087,10.346,12,12
					c4.727,1.322,9.543,0.194,13-4c6.953,2.047,6.964,11.036,12,15c-5.704,6.947-12.431,7.765-24,9
					c-20.301,2.167-43.765,13.216-54,27c-1.667-7.68,6.066-14.59,5-25c5.081-3.586,13.172-4.161,12-14
					C118.513,93.447,128.146,84.436,133,75z"/>
				<path fill-rule="evenodd" clip-rule="evenodd" fill="#FFFFFF" d="M142,81c3.118-2.727,4.954,4.336,11,2
					C152.196,85.325,143.766,84.781,142,81z"/>
				<path fill-rule="evenodd" clip-rule="evenodd" fill="#FFFFFF" d="M103,84c6.625,5.461,4.794,20.73-5,21
					C98.012,96.346,100.462,90.129,103,84z"/>
				<path fill-rule="evenodd" clip-rule="evenodd" d="M227,132c4.979,13.712-6.011,26.798-22,26c-1.847-6.487,0.352-17.019-3-22
					c-15.227-1.258-10.921,24.377-9,34c-3.655,6.012-10.616,8.717-17,12c1.851-6.816,10.229-7.105,13-13
					c-0.856-12.941-2.282-26.952,4-35c14.088-5.521,14.095,10.164,16,20C222.667,157.861,222.68,140.688,227,132z"/>
				<path fill-rule="evenodd" clip-rule="evenodd" d="M266,141c0,5.333,0,10.667,0,16c-1.731,6.085-7.78,6.854-12,10
					c-3.76,2.804-5.909,7.562-10,11c-7.064,5.935-19.228,10.655-27,11c2.735-5.834,10.123-5.656,15-8c3.288-1.579,7.104-3.732,10-6
					c3.692-2.892,6.837-8.435,10-11c3.412-2.768,7.896-2.699,10-6C264.278,154.427,264.164,143.716,266,141z"/>
				<path fill-rule="evenodd" clip-rule="evenodd" d="M229,170c-2.445,7.361-10.608,8.936-16,13c-4.62,3.482-6.3,9.103-12,11
					c1.828-14.505,16.699-15.968,24-25C227.09,168.576,227.647,169.686,229,170z"/>
				<path fill-rule="evenodd" clip-rule="evenodd" d="M164,137c-4.212,3.275-0.354,7.941-1,12c-1.299,8.146-7.594,14.357-12,19
					c-2.455-9.978,14.119-16.243,6-29c-8.576-1.053-5.604,8.264-7,13c-2.154,7.312-5.093,11.925-11,14
					c1.431-7.514,12.99-17.686,4-26c-1.333,0-2.667,0-4,0c-5.021,6.844-1.601,18.492-10,24c-4.237,2.778-9.383,1.213-15,4
					c-2.906-8.961,1.325-19.414-6-23c-11.08,2.942-9.473,24.589-7,35c-5.064,6.276-14.759,13.231-24,12
					c-0.078-3.744,3.922-3.411,7-4c3.932-2.401,7.287-5.38,12-7c4.165-11.511-4.884-31.08,6-39c3.333,0,6.667,0,10,0
					c3.996,4.338,4.472,12.195,4,21c13.78,0.113,17.661-9.672,17-24c3.446-3.84,11.619-3.697,15,0c1.009-1.991,3.717-2.283,5-4
					c6.662,1.242,11.345-2.781,19,0c2.593,5.407,4.453,11.547,5,19c8.583-10.314,10.235-33.904,8-57c-0.19-1.97-1.625-4.044-2-6
					c-4.442-23.167-10.763-38.897-21-53c-0.467-2.134,1.429-1.905,3-2c-1.225-3.776-7.042-2.958-12-3
					c6.357,8.092,18.633,18.323,16,32c-2.197,11.413-17.231,12.227-30,8c-0.389,3.083,9.04,4.939,12,8c0.97-1.697,2.764-2.569,6-2
					c10.545,0.688,9.34,17.676,18,17c-6.124,13.233-22.544,12.333-36,15c-23.184,4.596-39.895,17.316-53,31
					c-3.386-0.566-0.707-7.434,2-8c-0.952-5.619,2.788-6.546,4-10c2.937-27.848,7.07-63.644,43-52c-2.22-2.132-8.226-9.094-12-13
					c-1.795-14.795,6.542-19.458,13-26c-5.235-3.765-15.966-2.034-19-8c-0.118-5.186,5.847,1.916,6-3c2.852,1.482,1.78,6.886,8,5
					c3.36,1.027,1.557-3.11,2-5c5.676,3.324,13.247,4.753,23,4c-0.089-6.361-9.164-13.457-15-17c-7.068-4.291-26.896-1.657-36,1
					c-2.357,0.688-4.594,3.133-7,4c-2.767,0.997-5.573,0.364-7,1c-11.408,5.082-16.137,17.817-24,21
					c-1.055,8.612-8.396,10.937-12,17c-2.053,15.113-7.358,30.2-6,46c1.211,14.086,9.039,26.151,11,38c3.833,1.195,6.649,8.647,7,10
					c-4.284-1.614-7.81-6.566-11-11c-5.885-8.179-9.344-18.568-11-33c-1.552-13.523-2.341-29.847,1-43c2.295,2.039,0.362,8.305,1,12
					c4.255-2.931,1.735-6.526,1-11c8.449-18.551,23.046-30.954,35-46c8.265-4.37,20.802-6.1,32-9c5.046-1.307,20.408-4.171,27,0
					c1.82,1.151,3.583,4.161,6,6c4.596,3.496,9.753,6.604,13,12c3.181-0.153,4.399-2.267,8-2c0.116,4.302,2.6,7.92-2,9
					c2.743,5.257,5.731,10.269,6,18c7.256,8.42,13.024,18.441,14,37c1.192,22.687,3.532,52.433-3,68c-2.111,0.889-2.955,3.044-6,3
					c-0.502,4.165-3.848,5.485-4,10c-5.019,2.432-8.008,7.434-13,11c-1.128,0.806-4.015,1.081-5,2c-6.871,6.407-10.176,17.812-27,16
					c12.129-6.204,24.65-12.017,32-23c6.174,0.841,6.097-4.57,10-6c1.672-8.766,2.846-17.552,0-26
					C168.997,139.336,167.296,137.371,164,137z M134,40c-4.419,4.419-9.862,7.908-9,15c0.269,2.214,6.989,12.198,12,15
					c6.444,3.603,15.136,1.276,24,2c-0.305-2.638,2.088-2.579,4-3c4.768-17.929-9.371-25.177-15-36
					C139.721,30.929,137.499,36.501,134,40z M183,74c0.769-4.769-1.412-6.588-4-8C179.071,69.929,181.481,71.519,183,74z M118,73
					c-6.504,0.829-9.776,4.891-13,9c2.973,2.027,4.983,5.017,6,9c6.386-0.948,10.874-3.793,12-10
					C120.476,79.191,120.251,75.082,118,73z M125,80c3.043-0.623,5.112-2.221,5-6c-2.004-0.408-7.417-2.477-9,0
					C122.73,75.603,123.929,77.737,125,80z M109,95c1.172,9.839-6.919,10.414-12,14c1.066,10.41-6.667,17.32-5,25
					c10.235-13.784,33.699-24.833,54-27c11.569-1.235,18.296-2.053,24-9c-5.036-3.964-5.047-12.953-12-15
					c-3.457,4.194-8.273,5.322-13,4c-5.913-1.654-5.888-12.353-12-12C128.146,84.436,118.513,93.447,109,95z M153,83
					c-6.046,2.336-7.882-4.727-11-2C143.766,84.781,152.196,85.325,153,83z M98,105c9.794-0.27,11.625-15.539,5-21
					C100.462,90.129,98.012,96.346,98,105z M55,126c-5.851-4.149-3.258-16.742-8-22C49.08,111.263,48.225,126.762,55,126z"/>
				<path fill-rule="evenodd" clip-rule="evenodd" fill="#FFFFFF" d="M266,141c-1.836,2.716-1.722,13.427-4,17
					c-2.104,3.301-6.588,3.232-10,6c-3.163,2.565-6.308,8.108-10,11c-2.896,2.268-6.712,4.421-10,6c-4.877,2.344-12.265,2.166-15,8
					c7.772-0.345,19.936-5.065,27-11c4.091-3.438,6.24-8.196,10-11c4.22-3.146,10.269-3.915,12-10c0,14,0,28,0,42
					c-74.666,0-149.333,0-224,0c0-66,0-132,0-198c74.667,0,149.334,0,224,0C266,47.667,266,94.333,266,141z M171,141
					c2.846,8.448,1.672,17.234,0,26c-3.903,1.43-3.826,6.841-10,6c-7.35,10.983-19.871,16.796-32,23
					c16.824,1.812,20.129-9.593,27-16c0.985-0.919,3.872-1.194,5-2c4.992-3.566,7.981-8.568,13-11c0.152-4.515,3.498-5.835,4-10
					c3.045,0.044,3.889-2.111,6-3c6.532-15.567,4.192-45.313,3-68c-0.976-18.559-6.744-28.58-14-37c-0.269-7.731-3.257-12.743-6-18
					c4.6-1.08,2.116-4.698,2-9c-3.601-0.267-4.819,1.847-8,2c-3.247-5.396-8.404-8.504-13-12c-2.417-1.839-4.18-4.849-6-6
					c-6.592-4.171-21.954-1.307-27,0c-11.198,2.9-23.735,4.63-32,9C71.046,30.046,56.449,42.449,48,61c0.735,4.474,3.255,8.069-1,11
					c-0.638-3.695,1.295-9.961-1-12c-3.341,13.153-2.552,29.477-1,43c1.656,14.432,5.115,24.821,11,33c3.19,4.434,6.716,9.386,11,11
					c-0.351-1.353-3.167-8.805-7-10c-1.961-11.849-9.789-23.914-11-38c-1.358-15.8,3.947-30.887,6-46
					c3.604-6.063,10.945-8.388,12-17c7.863-3.183,12.592-15.918,24-21c1.427-0.636,4.233-0.003,7-1c2.406-0.867,4.643-3.312,7-4
					c9.104-2.657,28.932-5.291,36-1c5.836,3.543,14.911,10.639,15,17c-9.753,0.753-17.324-0.676-23-4c-0.443,1.89,1.36,6.027-2,5
					c-6.22,1.886-5.148-3.518-8-5c-0.153,4.916-6.118-2.186-6,3c3.034,5.966,13.765,4.235,19,8c-6.458,6.542-14.795,11.205-13,26
					c3.774,3.906,9.78,10.868,12,13c-35.93-11.644-40.063,24.152-43,52c-1.212,3.454-4.952,4.381-4,10c-2.707,0.566-5.386,7.434-2,8
					c13.105-13.684,29.816-26.404,53-31c13.456-2.667,29.876-1.767,36-15c-8.66,0.676-7.455-16.312-18-17
					c-3.236-0.569-5.03,0.303-6,2c-2.96-3.061-12.389-4.917-12-8c12.769,4.227,27.803,3.413,30-8c2.633-13.677-9.643-23.908-16-32
					c4.958,0.042,10.775-0.776,12,3c-1.571,0.095-3.467-0.134-3,2c10.237,14.103,16.558,29.833,21,53c0.375,1.956,1.81,4.03,2,6
					c2.235,23.096,0.583,46.686-8,57c-0.547-7.453-2.407-13.593-5-19c-7.655-2.781-12.338,1.242-19,0c-1.283,1.717-3.991,2.009-5,4
					c-3.381-3.697-11.554-3.84-15,0c0.661,14.328-3.22,24.113-17,24c0.472-8.805-0.004-16.662-4-21c-3.333,0-6.667,0-10,0
					c-10.884,7.92-1.835,27.489-6,39c-4.713,1.62-8.068,4.599-12,7c-3.078,0.589-7.078,0.256-7,4c9.241,1.231,18.936-5.724,24-12
					c-2.473-10.411-4.08-32.058,7-35c7.325,3.586,3.094,14.039,6,23c5.617-2.787,10.763-1.222,15-4c8.399-5.508,4.979-17.156,10-24
					c1.333,0,2.667,0,4,0c8.99,8.314-2.569,18.486-4,26c5.907-2.075,8.846-6.688,11-14c1.396-4.736-1.576-14.053,7-13
					c8.119,12.757-8.455,19.022-6,29c4.406-4.643,10.701-10.854,12-19c0.646-4.059-3.212-8.725,1-12
					C167.296,137.371,168.997,139.336,171,141z M80,36c-6.737,0.596-4.201,10.466-7,15c-4.721,3.612-8.407,8.26-13,12
					c4.744,4.564-3.057,7.049,0,12c3.729,1.063,1.583-3.75,5-3c3.424,4.402-2.196,6.673-1,12c-2.149,4.042-5.391,1.475-5,7
					c5.808,0.808,4.716-5.284,8-7c3.846,3.235,4.284,6.484,5,11c0.75-5.583,8.89-3.776,15-4c6.881-10.119,19.941-14.059,18-33
					c-8.043-3.705-19.079-12.547-29-8C78.818,46.818,80.447,42.447,80,36z M239,129c-3.479,0.636-10.009-3.528-9,2
					c0.186-1.481,2.417-0.917,4-1c10.193,7.304-1.188,18.438-3,26c5.008-0.476,8.879-6.576,11-14c1.486-5.203-1.343-14.243,7-13
					c7.308,12.968-7.738,19.937-7,29c6.448-0.886,5.374-9.293,11-11c2.596-6.513,0.351-12.816,2-19c8.658-1.325,7.774,6.892,10,12
					c0-3.333,0-6.667,0-10C259.374,121.346,247.76,127.398,239,129z M209,154c-1.905-9.836-1.912-25.521-16-20
					c-6.282,8.048-4.856,22.059-4,35c-2.771,5.895-11.149,6.184-13,13c6.384-3.283,13.345-5.988,17-12
					c-1.921-9.623-6.227-35.258,9-34c3.352,4.981,1.153,15.513,3,22c15.989,0.798,26.979-12.288,22-26
					C222.68,140.688,222.667,157.861,209,154z M83,156c-0.895-4.444-5.754-4.643-8-5C78.32,152.013,78.132,156.534,83,156z M225,169
					c-7.301,9.032-22.172,10.495-24,25c5.7-1.897,7.38-7.518,12-11c5.392-4.064,13.555-5.639,16-13
					C227.647,169.686,227.09,168.576,225,169z"/>
				<path fill-rule="evenodd" clip-rule="evenodd" fill="#FFFFFF" d="M68,66c2.005-2.55-0.315,3.999-1,5
					C63.972,69.777,67.707,67.184,68,66z"/>
				<path fill-rule="evenodd" clip-rule="evenodd" fill="#FFFFFF" d="M47,104c4.742,5.258,2.149,17.851,8,22
					C48.225,126.762,49.08,111.263,47,104z"/>
				<path fill-rule="evenodd" clip-rule="evenodd" d="M265,130c0,3.333,0,6.667,0,10c-2.226-5.108-1.342-13.325-10-12
					c-1.649,6.184,0.596,12.487-2,19c-5.626,1.707-4.552,10.114-11,11c-0.738-9.063,14.308-16.032,7-29
					c-8.343-1.243-5.514,7.797-7,13c-2.121,7.424-5.992,13.524-11,14c1.812-7.562,13.193-18.696,3-26c-1.583,0.083-3.814-0.481-4,1
					c-1.009-5.528,5.521-1.364,9-2C247.76,127.398,259.374,121.346,265,130z"/>
				<path fill-rule="evenodd" clip-rule="evenodd" d="M75,151c2.246,0.357,7.105,0.556,8,5C78.132,156.534,78.32,152.013,75,151z"/>
				<path fill-rule="evenodd" clip-rule="evenodd" d="M76,50c9.921-4.547,20.957,4.295,29,8c1.941,18.941-11.119,22.881-18,33
					c-6.11,0.224-14.25-1.583-15,4c-0.716-4.516-1.154-7.765-5-11c-3.284,1.716-2.192,7.808-8,7c-0.391-5.525,2.851-2.958,5-7
					c-1.196-5.327,4.424-7.598,1-12c-3.417-0.75-1.271,4.063-5,3c-3.057-4.951,4.744-7.436,0-12c4.593-3.74,8.279-8.388,13-12
					c2.799-4.534,0.263-14.404,7-15C80.447,42.447,78.818,46.818,76,50z M74,55c-1.886,11.216-10.848,25.971,0,33
					c11.495,1.051,13.585-1.063,19-7c5.284-5.793,9.623-12.01,10-20C95.971,56.345,84.145,47.419,74,55z M67,71
					c0.685-1.001,3.005-7.55,1-5C67.707,67.184,63.972,69.777,67,71z"/>
			</g>
		</g>
	</g>
	<g>
		<g>
			<path fill="#7FFFF8" d="M70.554,87.899c0.731,2.485,0.167,5.133-1.614,7.041c-1.318,1.412,0.798,3.538,2.121,2.121
				c2.498-2.675,3.421-6.439,2.386-9.959C72.902,85.25,70.006,86.038,70.554,87.899L70.554,87.899z"/>
		</g>
	</g>
	<g>
		<g>
			<path fill="#7FFFF8" d="M71.554,89.101c-0.458,1.16-0.112,2.213-0.054,3.399c0.095,1.921,3.052,1.942,3,0
				c-0.032-1.192-0.454-2.324-0.5-3.5c-0.854,0.354-1.707,0.707-2.561,1.061c0.318,0.327,0.615,0.646,0.857,1.033
				c0.177,0.281,0.023,0.435,0.149,0.173c-0.314,0.652-1.56,1.113-2.203,1.438c-1.727,0.874-0.208,3.462,1.514,2.591
				c1.349-0.683,2.966-1.496,3.502-3.021c0.589-1.678-0.597-3.202-1.698-4.334C72.669,87.023,70.948,87.685,71,89
				c0.047,1.188,0.468,2.311,0.5,3.5c1,0,2,0,3,0c-0.043-0.876-0.386-1.759-0.054-2.601c0.301-0.762-0.323-1.646-1.047-1.845
				C72.546,87.819,71.854,88.341,71.554,89.101L71.554,89.101z"/>
		</g>
	</g>
	<g>
		<g>
			<path fill="#7FFFF8" d="M69.554,89.101c-0.627,2.117-1.929,3.449-1.5,5.798c0.265,1.45,2.608,1.424,2.893,0
				C71.468,92.288,71.96,89.67,72,87c0.029-1.936-2.971-1.933-3,0c-0.036,2.408-0.477,4.747-0.946,7.101c0.964,0,1.928,0,2.893,0
				c-0.25-1.365,1.118-2.913,1.5-4.202C72.998,88.039,70.102,87.251,69.554,89.101L69.554,89.101z"/>
		</g>
	</g>
</g>
<g id="Layer_2">
</g>
</svg>
