<?xml version="1.0" encoding="utf-8"?>
<!-- Generator: Adobe Illustrator 15.0.0, SVG Export Plug-In . SVG Version: 6.00 Build 0)  -->
<!DOCTYPE svg PUBLIC "-//W3C//DTD SVG 1.1//EN" "http://www.w3.org/Graphics/SVG/1.1/DTD/svg11.dtd">
<svg version="1.1" id="Layer_1" xmlns="http://www.w3.org/2000/svg" xmlns:xlink="http://www.w3.org/1999/xlink" x="0px" y="0px"
	 width="300px" height="300px" viewBox="0 0 300 300" enable-background="new 0 0 300 300" xml:space="preserve">
<g id="Tz5ZCM.tif">
	<g id="XMLID_2_">
		<g>
			<path d="M166,112.854c0.3,5.72-2.86,11-4,17c-4.24,2.76-7,7-10,11c1.66,2.34,5.58,2.42,5,7c-3.69-3.72-9.57-4.91-15-2
				c0.72,4.28,7.32,6.88,5,11c-3.22-1.779-3.42-6.58-8-7c-2.57,4.43-5.88,8.12-12,9c-1.48,0.44,0.39,1.28,0,3
				c-4.06-1.939-5.74-6.26-9-9c-8.52,0.48-13.49,4.511-14,13c-1.76-0.239-2.28-1.72-2-4c-9.22,2.11-8.88,13.78-9,25
				c-3.38-1.539-2.41-8.21-2-12c0.51-4.68,2.45-9.02,4-11c-3.56-1.89-7.55-0.92-8,3c-2.04-0.63-0.28-5.05-4-4
				c-2.49,3.171-4.45,6.881-5,12c-4.15-2.489,0.99-10.289,3-13c0-3.34-3.25-3.409-3-7c-7.09,2.24-9.08,9.591-15,13
				c1.49-2.51,2.49-5.51,5-7c-3.05-1.949-7.15-2.85-6-9c-6.05-1.819-7.14,1.45-12,3c-0.58-4.25,2.7-4.64,5-6
				c-0.78-2.89-4.84-2.5-7-4c0.44-0.89,0.88-1.79,2-2c-8.05-4.57-5.4-19.71-3-29c0.55-2.11-1.77-6.41,2-6c1.95,5.72-2.59,10.11-3,15
				c-2.15,25.51,22.85,30.92,49,29c36.09-2.649,74.83-9.319,67-51C163.92,101.884,165.86,110.134,166,112.854z M136,148.854
				c-4.81,1.19-10.99,1.01-14,4c1.44,0.561,2.44,1.561,3,3C131.42,156.274,134.07,152.924,136,148.854z M105,154.854c-4,0-8,0-12,0
				c0,2,0,4,0,6C99.05,160.904,103.06,158.914,105,154.854z M90,159.854c0-1.67,0-3.329,0-5c-3.04,0.631-8.61-1.279-10,1
				C81.98,158.864,85.1,162.664,90,159.854z M71,157.854c-0.73-2.729,1.99-2.01,2-4c-2.49-0.84-5.36-1.31-9-1
				C64.42,156.434,67.19,157.664,71,157.854z"/>
			<path d="M145,121.854c0.26,5.29-12.88,8.86-21,8c-0.89-0.09-4.72-0.73-5-1c-0.24-0.23,0.27-1.87,0-2c-3.55-1.65-10.33-1.29-9-6
				c5.13,4.59,19.66,5.33,29,2c-0.19,0.81-1,1-1,2C140.56,124.084,143.67,123.854,145,121.854z"/>
			<path fill="#FFFFFF" d="M134,76.854c-1.51,1.44-5.41-3.21-5-7C132.06,70.794,131.46,75.394,134,76.854z"/>
			<path fill="#FFFFFF" d="M117,73.854c2.71,0.9-2.29,2.24-2,4C111.71,76.364,116.7,75.034,117,73.854z"/>
			<path d="M80,117.854c-4.54-2.25-9.75,0.01-14,1C66.77,115.244,79.08,111.904,80,117.854z"/>
			<path fill="#FFFFFF" d="M152,90.854c0.89-2.4,3.04,2.17,3,4C152.24,95.284,154.06,91.124,152,90.854z"/>
			<path d="M116,95.854c17.76-10.62,31.97,4.08,33,22c-7.99-8.72-31.11-11.04-42-3C109.1,107.624,112.56,101.744,116,95.854z
				 M144,110.854c-0.95-4.38-3.18-7.49-5-11c-3.08-0.74-1.92,2.74-5,2c-0.72-2.63-5.92-3.79-3-7c-10.91-0.91-18.32,7-18,14
				C124.34,106.054,135.39,106.214,144,110.854z"/>
			<path fill="#FFFFFF" d="M139,99.854c1.82,3.51,4.05,6.62,5,11c-8.61-4.64-19.66-4.8-31-2c-0.32-7,7.09-14.91,18-14
				c-2.92,3.21,2.28,4.37,3,7C137.08,102.594,135.92,99.114,139,99.854z"/>
			<path fill="#FFFFFF" d="M171,145.854c0.93,7.51,2.18,25.41,1,33c-0.63,4.091-4.7,8.45-6,12c-2.71,7.391-2.52,14.11-6,19
				c-35,0-70,0-105,0c-2.64-5.359-4.93-11.069-6-18c5.24,7.5,15.3,15.28,24,16c-3.59-5.079-10.75-6.59-16-10
				c-1.7-4.3-4.07-7.93-8-10c0.27-11.93-5.83-17.5-6-29c0.47-3.14-2.69-2.64-3-5c1.7-9.22-0.25-20.649,1-31
				c1.02-8.48,2.2-19.52,11-21c2.29,1.04-0.47,7.14,2,8c2.97-3.36-0.56-8.73-1-12c7.55-8.45,14.54-17.46,22-26
				c-1.95,6.72-5.06,20.93-17,21c0.29,2.71,3.66,2.34,4,5c7.74-3.6,11.14-11.53,18-16c0.71-3.96,2.07-7.27,5-9
				c8.49,1.84,8.28,12.39,12,19c4.94-6.09-1.24-22.16-11-23c8.12-3.44,16.9,1.09,25,1c-2.45,3.88-4.23,8.44-5,14
				c3.4,2.9,3.06-4.34,5-6c2.24,0.43,0.41,4.93,1,7c4.2-0.8,2.62-7.38,7-8c3.22-1.71,5.59,4.71,12,3c4.96,7.37,7.5,17.17,19,18
				c-0.84-4.65-5.57-6.35-8-10c-4.66-7.01-5.81-16.14-11-23c-7.35-0.77-16.87-4.26-19,3c-6.34-1.33-11.83-3.51-20-3
				c9.83-1.57,20.83-7.06,31-5c8.42,1.7,12.57,10.4,19,13c-0.09,2.73,1.67,2.01,0,4c1.49,1.18,2.82,2.51,4,4
				c0.89,10.44,8.31,14.36,10,24c3.8-1.2,2.36-7.64,8-7c5.75,8.25,3.12,24.88,7,35c-1.81,2.7-0.17-6.42-3-6
				C164.87,132.334,170.13,138.864,171,145.854z M162,129.854c1.14-6,4.3-11.28,4-17c-0.14-2.72-2.08-10.97-4-12
				c7.83,41.68-30.91,48.35-67,51c-26.15,1.921-51.15-3.49-49-29c0.41-4.89,4.95-9.28,3-15c-3.77-0.41-1.45,3.89-2,6
				c-2.4,9.29-5.05,24.43,3,29c-1.12,0.21-1.56,1.11-2,2c2.16,1.5,6.22,1.11,7,4c-2.3,1.36-5.58,1.75-5,6c4.86-1.55,5.95-4.819,12-3
				c-1.15,6.15,2.95,7.051,6,9c-2.51,1.49-3.51,4.49-5,7c5.92-3.409,7.91-10.76,15-13c-0.25,3.591,3,3.66,3,7
				c-2.01,2.711-7.15,10.511-3,13c0.55-5.119,2.51-8.829,5-12c3.72-1.05,1.96,3.37,4,4c0.45-3.92,4.44-4.89,8-3
				c-1.55,1.98-3.49,6.32-4,11c-0.41,3.79-1.38,10.461,2,12c0.12-11.22-0.22-22.89,9-25c-0.28,2.28,0.24,3.761,2,4
				c0.51-8.489,5.48-12.52,14-13c3.26,2.74,4.94,7.061,9,9c0.39-1.72-1.48-2.56,0-3c6.12-0.88,9.43-4.569,12-9
				c4.58,0.42,4.78,5.22,8,7c2.32-4.119-4.28-6.72-5-11c5.43-2.91,11.31-1.72,15,2c0.58-4.58-3.34-4.66-5-7
				C155,136.854,157.76,132.614,162,129.854z M124,129.854c8.12,0.86,21.26-2.71,21-8c-1.33,2-4.44,2.23-7,3c0-1,0.81-1.19,1-2
				c-9.34,3.33-23.87,2.59-29-2c-1.33,4.71,5.45,4.35,9,6c0.27,0.13-0.24,1.77,0,2C119.28,129.124,123.11,129.764,124,129.854z
				 M149,117.854c-1.03-17.92-15.24-32.62-33-22c-3.44,5.89-6.9,11.77-9,19C117.89,106.814,141.01,109.134,149,117.854z
				 M138,118.854c-0.62-4.95-15.31-9.01-19-4C127.41,114.114,132.97,116.214,138,118.854z M90,115.854c-1.31-8.02-3.72-14.95-8-20
				c-16.25-4.42-25.47,11.74-25,24C62.1,111.024,80.84,109.664,90,115.854z M88,121.854c-0.11-1.22-0.3-2.37-2-2
				c-5.17,7.81-21.24,6.36-30,3C60.24,134.734,83.44,129.684,88,121.854z M66,118.854c4.25-0.99,9.46-3.25,14-1
				C79.08,111.904,66.77,115.244,66,118.854z"/>
			<path fill="#FFFFFF" d="M35,57.854c25.33,0,50.67,0,76,0c-12.66,2.67-24.43,6.24-36,10c-9.29,11.04-20.15,20.52-28,33
				c-4.21,1.54-0.16-5.17-3-5c-1.04,7.96-2.4,15.6-5,22c-2.78,0.45,0.78-5.45-2-5c-1.96,26.63-3.48,61.47,10,76
				c-0.81,9.471,3.07,14.261,5,21c-5.67,0-11.33,0-17,0C35,159.184,35,108.524,35,57.854z"/>
			<path d="M173,168.854c-0.4,2.4,4.55-0.55,3,3c-0.71,16.29-9.37,24.631-13,38c-1,0-2,0-3,0c3.48-4.89,3.29-11.609,6-19
				c1.3-3.55,5.37-7.909,6-12c1.18-7.59-0.07-25.489-1-33c-0.87-6.99-6.13-13.52-3-19c2.83-0.42,1.19,8.7,3,6
				c-3.88-10.12-1.25-26.75-7-35c-5.64-0.64-4.2,5.8-8,7c-1.69-9.64-9.11-13.56-10-24c-1.18-1.49-2.51-2.82-4-4
				c1.67-1.99-0.09-1.27,0-4c-6.43-2.6-10.58-11.3-19-13c-10.17-2.06-21.17,3.43-31,5c8.17-0.51,13.66,1.67,20,3
				c2.13-7.26,11.65-3.77,19-3c5.19,6.86,6.34,15.99,11,23c2.43,3.65,7.16,5.35,8,10c-11.5-0.83-14.04-10.63-19-18
				c-6.41,1.71-8.78-4.71-12-3c-4.38,0.62-2.8,7.2-7,8c-0.59-2.07,1.24-6.57-1-7c-1.94,1.66-1.6,8.9-5,6c0.77-5.56,2.55-10.12,5-14
				c-8.1,0.09-16.88-4.44-25-1c9.76,0.84,15.94,16.91,11,23c-3.72-6.61-3.51-17.16-12-19c-2.93,1.73-4.29,5.04-5,9
				c-6.86,4.47-10.26,12.4-18,16c-0.34-2.66-3.71-2.29-4-5c11.94-0.07,15.05-14.28,17-21c-7.46,8.54-14.45,17.55-22,26
				c0.44,3.27,3.97,8.64,1,12c-2.47-0.86,0.29-6.96-2-8c-8.8,1.48-9.98,12.52-11,21c-1.25,10.35,0.7,21.78-1,31
				c0.31,2.36,3.47,1.86,3,5c0.17,11.5,6.27,17.07,6,29c3.93,2.07,6.3,5.7,8,10c5.25,3.41,12.41,4.921,16,10
				c-8.7-0.72-18.76-8.5-24-16c1.07,6.931,3.36,12.641,6,18c-1,0-2,0-3,0c-1.93-6.739-5.81-11.529-5-21
				c-13.48-14.529-11.96-49.37-10-76c2.78-0.45-0.78,5.45,2,5c2.6-6.4,3.96-14.04,5-22c2.84-0.17-1.21,6.54,3,5
				c7.85-12.48,18.71-21.96,28-33c11.57-3.76,23.34-7.33,36-10c4,0,8,0,12,0c0,0.33,0,0.67,0,1c3.47-0.8,3.84,1.49,7,1
				c10.72,11.05,26.13,21.26,28,38c3.16,0.16,3.34-2.66,7-2C176.17,113.154,172.49,142.564,173,168.854z M155,94.854
				c0.04-1.83-2.11-6.4-3-4C154.06,91.124,152.24,95.284,155,94.854z M129,69.854c-0.41,3.79,3.49,8.44,5,7
				C131.46,75.394,132.06,70.794,129,69.854z M124,75.854c1.55,0.23,4.67,3.84,6,1C128.45,76.624,125.33,73.014,124,75.854z
				 M115,77.854c-0.29-1.76,4.71-3.1,2-4C116.7,75.034,111.71,76.364,115,77.854z M77,76.854c0.25-1.84,5.7-3.51,3-5
				C80,73.944,74.55,75.614,77,76.854z M45,179.854c-2.5-6.51-3.36-19.96-7-22C40.18,165.334,39.9,175.294,45,179.854z"/>
			<path fill="#FFFFFF" d="M80,71.854c2.7,1.49-2.75,3.16-3,5C74.55,75.614,80,73.944,80,71.854z"/>
			<path fill="#FFFFFF" d="M93,154.854c4,0,8,0,12,0c-1.94,4.061-5.95,6.051-12,6C93,158.854,93,156.854,93,154.854z"/>
			<path d="M82,95.854c4.28,5.05,6.69,11.98,8,20c-9.16-6.19-27.9-4.83-33,4C56.53,107.594,65.75,91.434,82,95.854z M86,109.854
				c-0.24-4.43-3.1-6.24-7-7c-1.57-1.43-0.79-5.21-4-5c-8.49,1.51-14.54,10.79-15,17C64.39,108.184,76.97,106.194,86,109.854z"/>
			<path d="M119,114.854c3.69-5.01,18.38-0.95,19,4C132.97,116.214,127.41,114.114,119,114.854z"/>
			<path fill="#FFFFFF" d="M122,152.854c3.01-2.99,9.19-2.81,14-4c-1.93,4.07-4.58,7.42-11,7
				C124.44,154.414,123.44,153.414,122,152.854z"/>
			<path fill="#FFFFFF" d="M73,153.854c-0.01,1.99-2.73,1.271-2,4c-3.81-0.189-6.58-1.42-7-5
				C67.64,152.544,70.51,153.014,73,153.854z"/>
			<path d="M86,119.854c1.7-0.37,1.89,0.78,2,2c-4.56,7.83-27.76,12.88-32,1C64.76,126.214,80.83,127.664,86,119.854z"/>
			<path fill="#FFFFFF" d="M130,76.854c-1.33,2.84-4.45-0.77-6-1C125.33,73.014,128.45,76.624,130,76.854z"/>
			<path fill="#FFFFFF" d="M79,102.854c3.9,0.76,6.76,2.57,7,7c-9.03-3.66-21.61-1.67-26,5c0.46-6.21,6.51-15.49,15-17
				C78.21,97.644,77.43,101.424,79,102.854z"/>
			<path fill="#FFFFFF" d="M38,157.854c3.64,2.04,4.5,15.49,7,22C39.9,175.294,40.18,165.334,38,157.854z"/>
			<path fill="#FFFFFF" d="M90,154.854c0,1.671,0,3.33,0,5c-4.9,2.811-8.02-0.989-10-4C81.39,153.574,86.96,155.484,90,154.854z"/>
		</g>
		<g>
		</g>
	</g>
</g>
<text transform="matrix(1 0 0 1 166.0068 73.7422)"><tspan x="0" y="0" fill="#ED1C24" font-family="'Verdana-Bold'" font-size="12">PFFFTTTCHH</tspan><tspan x="0" y="14.399" fill="#ED1C24" font-family="'Verdana-Bold'" font-size="12"> CHHCHHH</tspan><tspan x="0" y="28.8" fill="#ED1C24" font-family="'Verdana-Bold'" font-size="12">   CHHPFFF</tspan><tspan x="0" y="43.2" fill="#ED1C24" font-family="'Verdana-Bold'" font-size="12">   PFFFFTCH</tspan><tspan x="0" y="57.6" fill="#ED1C24" font-family="'Verdana-Bold'" font-size="12">    PFFFFTT</tspan><tspan x="0" y="72" fill="#ED1C24" font-family="'Verdana-Bold'" font-size="12">    CHHTPF</tspan><tspan x="0" y="86.4" fill="#ED1C24" font-family="'Verdana-Bold'" font-size="12">    PFFCHH</tspan><tspan x="0" y="100.8" fill="#ED1C24" font-family="'Verdana-Bold'" font-size="12">   CHHHH</tspan><tspan x="0" y="115.2" fill="#ED1C24" font-family="'Verdana-Bold'" font-size="12">    CHHCH</tspan></text>
</svg>
