<?xml version="1.0" encoding="utf-8"?>
<!-- Generator: Adobe Illustrator 15.0.0, SVG Export Plug-In . SVG Version: 6.00 Build 0)  -->
<!DOCTYPE svg PUBLIC "-//W3C//DTD SVG 1.1//EN" "http://www.w3.org/Graphics/SVG/1.1/DTD/svg11.dtd">
<svg version="1.1" id="Layer_1" xmlns="http://www.w3.org/2000/svg" xmlns:xlink="http://www.w3.org/1999/xlink" x="0px" y="0px"
	 width="300px" height="300px" viewBox="0 0 300 300" enable-background="new 0 0 300 300" xml:space="preserve">
<g id="EXuuoX.tif">
	<g id="XMLID_2_">
		<g>
			<path d="M237.3,153.3l1.7,0.7c-2.83,3.5-5.61,7.06-10,9l-0.5-1.5L228,160c1.37-4.68,2.16-6.43,8-8L237.3,153.3z"/>
			<path d="M235,115l-1.5,1.17L234,118c-1.16-0.16-1.78,0.22-2,1l-0.5-0.5L231,119c-1.72-1.2-6.8-1.22-4-4l-0.5-0.5L226,114
				c0.97-0.03,0.78-1.22,1-2l1.83,0.5L230,111C232.93,111.07,233.71,113.29,235,115z"/>
			<path d="M228,150c0.3,2.64-2.09,2.58-4,3C223.7,150.37,225.38,149.72,228,150z"/>
			<path d="M197,118c0,0.67,0,1.33,0,2c-0.67,0-1.33,0-2,0c0-0.67,0-1.33,0-2C195.67,118,196.33,118,197,118z"/>
			<path d="M187,110l-1.5,1.17L186,113c-1.45,0.55-5.17-1.17-5,1l-1.9,0.9L179,117c0.18,0.85-0.39,0.94-1,1l-0.5-1.5L177,115
				c0.45-1.63-5.45-1.63-5,0l-1.5,1.17L171,118c-2.46,0.13-4.82,0.15-6-1l0.5-1.5L164,115c0.59-3.19-1.88-3.09,0-5
				c-3.39,0.28-5.74,1.59-10,1l0.5-1.83L153,108C161.62,101.2,179.47,104.37,187,110z"/>
			<path d="M154,134c7.74,8.6,5.73,31.64,1,42l-1.17-1.5L152,175c-0.33-6.91,5.4-20.85,0-25l0.5-1.83L151,147
				c1.38-1.29,0.99-4.34,1-7c-2.63-2.04-9.36,0.03-8-6C147.33,134,150.67,134,154,134z"/>
			<path d="M151.3,111.3l1.7,0.7c-0.96,3.04-5.97,2.03-5,7l-1.5,1.17L147,122c-4.38,0.38-4.81-3.19-6-6c2.96-2.04,4.71-5.29,9-6
				L151.3,111.3z"/>
			<path d="M146.17,199.5L148,199c-0.55,1.45,1.17,5.17-1,5c-5.32,1.11-4.04-4.28-2-6L146.17,199.5z"/>
			<path d="M136.5,143.83L138,145c-1.01,2.82-4.25-0.28-6,0c-0.46-3.12,2.14-3.2,5-3L136.5,143.83z"/>
			<path d="M123,197c5.06,0.3,7.33,8.64,5,13c-5-1.34-3.43-9.24-8-11l1.7-0.7L123,197z"/>
			<path d="M120,117c4.29-0.04,6.61-2.08,9,1c-1.27,2.39-3.26,4.07-7,4c0,3.33,0,6.67,0,10c-1.99,0.01-1.27,2.73-4,2l-1.3-1.3
				L115,132c2.05-1.61,2.32-5.01,2-9c-3.8-3.53-13.15-1.51-17-5l1.5-1.17L101,115c1.16,0.16,1.78-0.22,2-1l1.5-1.17L104,111
				C112.7,109.63,116.32,113.35,120,117z"/>
			<path d="M129.18,223.59c-3.09,0.351-6.17,0.73-9.2,1.351c-1.3-0.011-2.72,0.1-3.98,0.06l0.5-1.83L115,222
				c6.07-2.59,14.11-3.23,21-5l1.3,1.3l1.7,0.7C137.52,222.32,131.88,221.48,129.18,223.59z"/>
			<path d="M113.3,135.3l1.7,0.7c-0.9,1.77-2.41,2.92-3,5l-3.5-0.5l0.5,3.5c-4.16,0.5-5.84,3.5-10,4l-0.5-2.5L96,145v-1h-1
				c7.1-1.9,10.23-7.77,17-10L113.3,135.3z"/>
			<path d="M104,195l-1.7,0.7L101,197c-2.67,0-5.33,0-8,0c0-1.33,0-2.67,0-4C96.71,193.62,103.29,191.37,104,195z"/>
			<path d="M96.5,116.83L98,118c-3.27,2.88-9.19-0.1-11-2c0.34-3.37,5.17-7.44,8-5l-1.5,1.17L94,114c0.16,1.17,1.82,0.84,3,1
				L96.5,116.83z"/>
			<path d="M80.3,189.3L82,190c-1.49,1.86-4.49,5.22-7,3c-0.26-3.26,1.19-4.81,4-5L80.3,189.3z"/>
			<path d="M79,116c0,0.67,0,1.33,0,2c-0.67,0-1.33,0-2,0c0-0.67,0-1.33,0-2C77.67,116,78.33,116,79,116z"/>
			<path d="M70,146c-0.57,3.53-4.7,0.51-5-2C67.49,143.85,68.1,145.57,70,146z"/>
		</g>
		<g>
			<path fill="none" stroke="#000000" stroke-width="3.5642" stroke-linecap="round" d="M246,137c-1.43,6.23-4.73,11.35-8.7,16.3"/>
			<path fill="none" stroke="#000000" stroke-width="4.0564" stroke-linecap="round" d="M246,131.75c0,1.75,0,3.5,0,5.25"/>
			<path fill="none" stroke="#000000" stroke-width="3.3751" stroke-linecap="round" d="M233.5,116.17
				c5.54,3.87,9.4,9.72,12.5,15.58"/>
			<path fill="none" stroke="#000000" stroke-width="1.0541" stroke-linecap="round" d="M231.5,118.5c-0.47,2.35,2.57,3.06,3,5"/>
			<path fill="none" stroke="#000000" stroke-width="1.2354" stroke-linecap="round" d="M217.5,114.5c3,0,6,0,9,0"/>
			<path fill="none" stroke="#000000" stroke-width="3.5253" stroke-linecap="round" d="M137.3,218.3c0.17-0.149,0.33-0.3,0.5-0.45
				c17.641-3.22,36.04-12.76,53.5-19.85c14.13-5.73,29.33-18.99,37.2-36.5"/>
			<path fill="none" stroke="#000000" stroke-width="3.7366" stroke-linecap="round" d="M185.5,76.5
				c14.12,1.52,20.85,2.88,28.8,12.41c6.021,7.2,7.63,16.63,14.53,23.59"/>
			<path fill="none" stroke="#000000" stroke-width="3.0998" stroke-linecap="round" d="M138.75,77c15.47-1.15,31.18-0.18,46.75-0.5
				"/>
			<path fill="none" stroke="#000000" stroke-width="3.4891" stroke-linecap="round" d="M52.83,121.5c1.26-1.95,3.62-3.14,4.29-5.48
				c6.76-2.56,10.25-9.45,9.46-16.47c3.07-8.07,12.17-9.82,18.2-14.86c17.59-5.15,35.99-6.89,53.97-7.69"/>
			<path fill="none" stroke="#000000" stroke-width="4.0364" stroke-linecap="round" d="M56.83,145.83
				c0.04,0.23,0.08,0.45,0.11,0.68c9.51,18.83,2.46,41.57,2.28,61.811c10.3,20.68,38.17,20.22,57.28,14.85"/>
			<path fill="none" stroke="#000000" stroke-width="1.472" stroke-linecap="round" d="M56.83,145.83c1.19-0.71,2.21-1.33,2.67-2.33
				"/>
			<path fill="none" stroke="#000000" stroke-width="3.2508" stroke-linecap="round" d="M55.07,141.93
				c-5-5.16-1.84-13.87-2.24-20.43"/>
			<path fill="none" stroke="#000000" stroke-width="4.9497" stroke-linecap="round" d="M55.07,141.93c0.18,1.31,0.98,3,1.76,3.9"/>
			<path fill="none" stroke="#000000" stroke-width="1.973" stroke-linecap="round" d="M55.07,141.93c0.53-0.38,1.18-0.96,1.84-1.56
				c1.19-4.69-2.7-10.43,1.09-14.37"/>
			<path fill="none" stroke="#000000" stroke-width="3.6878" stroke-linecap="round" d="M113.3,135.3c1.02-0.97,2.47-1.57,3.4-2.6"
				/>
			<path fill="none" stroke="#000000" stroke-width="3.5824" stroke-linecap="round" d="M123.5,150.5c-7.23,1.54-10.49-6.07-15-10"
				/>
			<path fill="none" stroke="#000000" stroke-width="3.0938" stroke-linecap="round" d="M96.5,116.83c1.67-0.39,3.33-0.34,5,0"/>
			<path fill="none" stroke="#000000" stroke-width="3.0865" stroke-linecap="round" d="M104.5,112.83c-3.6-0.84-7.4,0.2-11-0.66"/>
			<path fill="none" stroke="#000000" stroke-width="3.6587" stroke-linecap="round" d="M75.21,173.36
				c7.63-9.801,15.35-18.641,23.29-27.86"/>
			<path fill="none" stroke="#000000" stroke-width="1.4894" stroke-linecap="round" d="M75.5,159.5
				c5.56-6.69,11.41-14.11,20.5-15.5"/>
			<path fill="none" stroke="#000000" stroke-width="3.2773" stroke-linecap="round" d="M185.5,111.17c2.43,1.15,4.82,3.86,4.3,6.67
				c-3.72,2-7.43-1.45-10.7-2.94"/>
			<path fill="none" stroke="#000000" stroke-width="3.0884" stroke-linecap="round" d="M177.5,116.5c-2.33-0.12-4.72,0.3-7-0.33"/>
			<path fill="none" stroke="#000000" stroke-width="3.5" stroke-linecap="round" d="M154.5,109.17c-1.19,0.4-2.4,1.24-3.2,2.13"/>
			<path fill="none" stroke="#000000" stroke-width="3.7417" stroke-linecap="round" d="M146.5,120.17c6.5,2.55,12.65-3.69,19-4.67"
				/>
			<path fill="none" stroke="#000000" stroke-width="1.8659" stroke-linecap="round" d="M121.5,215.5c5.19,2.29,10.05-1.71,11.5-6.5
				"/>
			<path fill="none" stroke="#000000" stroke-width="3.6056" stroke-linecap="round" d="M107.3,200.7c-1.73-1.59-3.43-3.25-5-5"/>
			<path fill="none" stroke="#000000" stroke-width="4.1266" stroke-linecap="round" d="M80.3,189.3c14.35-8.319,30.41-0.8,41.4,9"
				/>
			<path fill="none" stroke="#000000" stroke-width="1.7717" stroke-linecap="round" d="M77.5,199c-1.04,0.04-1.76-0.03-2.45-0.16
				c-1.26-2.76-1.09-6.27-5.25-5.649c-1.54-1.971-0.87-4.841,1.2-6.19"/>
			<path fill="none" stroke="#000000" stroke-width="1.9494" stroke-linecap="round" d="M177,178.5c2.7-8.62,1.96-18.02,3-27"/>
			<path fill="none" stroke="#000000" stroke-width="1.957" stroke-linecap="round" d="M167.5,146.5c-0.47,15.09,3.82,32.23-3,46"/>
			<path fill="none" stroke="#000000" stroke-width="1.4639" stroke-linecap="round" d="M233,149c0.71-1.73,2.75-2.54,3-4.5"/>
			<path fill="none" stroke="#000000" stroke-width="3.9295" stroke-linecap="round" d="M146.17,199.5
				c4.37-7.79,6.021-16.37,7.66-25"/>
			<path fill="none" stroke="#000000" stroke-width="3.596" stroke-linecap="round" d="M136.5,143.83c2.38-1.59,6.04-2.01,8.51-0.47
				c1.39,1.55,0.59,4.34,2.72,5.36c1.62,0.66,3.24-0.03,4.77-0.55"/>
			<path fill="none" stroke="#000000" stroke-width="1.6771" stroke-linecap="round" d="M157.5,130.5c7.57,1.94,17.1,3.43,24.5,0.5"
				/>
			<path fill="none" stroke="#000000" stroke-width="1.715" stroke-linecap="round" d="M83.5,126.5c1.86,0.34,1.71,2.23,2.55,3.45
				c4.13,1.66,9.06,1.8,12.95,4.05"/>
			<path fill="none" stroke="#000000" stroke-width="1.5763" stroke-linecap="round" d="M66.5,139.5c-7.57-2.25-2.55-9.44-2.5-14.5"
				/>
			<path fill="none" stroke="#000000" stroke-width="1.7889" stroke-linecap="round" d="M63,121c0.67-0.67,1.33-1.33,2-2"/>
			<path fill="none" stroke="#000000" stroke-width="2.357" stroke-linecap="round" d="M197,115c1.05,1.07,2.23,1.07,3.5,0.5"/>
			<path fill="none" stroke="#000000" stroke-width="2.2583" stroke-linecap="round" d="M118,107.5c0.36-1.93-0.26-3.55-1.5-5"/>
			<path fill="none" stroke="#000000" stroke-width="1.9043" stroke-linecap="round" d="M145,101.5c0.59-2.93,2.29-5.18,4.21-7.26
				c9.38-2.01,20.03-1.16,29.21,0.73c3.75,4.04,7.35,7.66,13.08,8.53"/>
			<path fill="none" stroke="#000000" stroke-width="2.1602" stroke-linecap="round" d="M115.5,93.5c0.67,0.27,1.33,0.39,2,0.5"/>
			<path fill="none" stroke="#000000" stroke-width="1.7974" stroke-linecap="round" d="M115.5,93.5c0.11-0.29,0.23-0.57,0.34-0.86
				c2.65-3.21,8.91-0.71,11.16-4.64"/>
			<path fill="none" stroke="#000000" stroke-width="3" stroke-linecap="round" d="M114.5,94.5c0.33-0.33,0.67-0.67,1-1"/>
			<path fill="none" stroke="#000000" stroke-width="1.7321" stroke-linecap="round" d="M114.5,94.5c0.73,1.54,2.23,2.71,4,2.5"/>
			<path fill="none" stroke="#000000" stroke-width="2.0456" stroke-linecap="round" d="M88.5,100.5c-0.12,0.17-0.23,0.34-0.35,0.5
				c-0.14,0.69-0.09,1.38,0.01,1.96c0.55,0.44,1.29,0.55,1.97,0.62c2.3-1.47,2.66-4.28,3.92-6.39c6.43-1.82,13.69-1.43,20.45-2.69"
				/>
			<path fill="none" stroke="#000000" stroke-width="1.8221" stroke-linecap="round" d="M143.5,86.5c3.47,1.89,8.02,1.34,12,1.5"/>
			<path fill="none" stroke="#000000" stroke-width="1.7221" stroke-linecap="round" d="M102.5,89.5c4.82-1.2,9.14-3.28,14-4.5"/>
			<path fill="none" stroke="#000000" stroke-width="1.4068" stroke-linecap="round" d="M152,83c7.17,3.05,16.14,0.85,23.5,2"/>
		</g>
	</g>
</g>
</svg>
