<?xml version="1.0" encoding="utf-8"?>
<!-- Generator: Adobe Illustrator 15.0.0, SVG Export Plug-In . SVG Version: 6.00 Build 0)  -->
<!DOCTYPE svg PUBLIC "-//W3C//DTD SVG 1.1//EN" "http://www.w3.org/Graphics/SVG/1.1/DTD/svg11.dtd">
<svg version="1.1" id="Layer_1" xmlns="http://www.w3.org/2000/svg" xmlns:xlink="http://www.w3.org/1999/xlink" x="0px" y="0px"
	 width="300px" height="300px" viewBox="0 0 300 300" enable-background="new 0 0 300 300" xml:space="preserve">
<g id="kB8ati.tif">
	<g>
		<g>
			<path fill-rule="evenodd" clip-rule="evenodd" fill="#FFFFFF" d="M142.5,74c-27.709,3.291-57.807,4.193-70,23
				c2.379,15.379-10.472,15.528-14,25c0-16,0-32,0-48C86.5,74,114.5,74,142.5,74z"/>
			<path fill-rule="evenodd" clip-rule="evenodd" fill="#FFFFFF" d="M191.5,74c19.333,0,38.667,0,58,0c0,17.667,0,35.333,0,53
				c-2.972-4-5.548-6.421-9-10c-2.757-2.858-7.248-5.319-10-9c-2.921-3.906-3.622-9.815-6-14
				C217.691,82.016,207.985,73.375,191.5,74z"/>
			<path fill-rule="evenodd" clip-rule="evenodd" d="M197.5,107c-7.642-11.015-25.318-14.924-43-14c-0.082,0.004-5.007,2.705-3,0
				C170.828,89.715,191.471,93.664,197.5,107z"/>
			<path fill-rule="evenodd" clip-rule="evenodd" d="M127.5,98c-11.551-3.88-32.178-5.675-33,9c-3.024-1.513,0.829-4.389,0-7
				c3.774-3.222,9.664-5.833,17-6C116.91,93.876,124.541,94.678,127.5,98z"/>
			<path fill-rule="evenodd" clip-rule="evenodd" d="M154.5,94c4.477,0.387-2.615,4.065-3,6c-0.575,1.758,1.209,5.875-1,6
				c0-2.333,0-4.667,0-7C151.887,97.386,153.334,95.833,154.5,94z"/>
			<path fill-rule="evenodd" clip-rule="evenodd" d="M121.5,101c1.49-3.295,2.823,1.7,4,2c0,3,0,6,0,9
				C123.153,109.347,125.921,101.579,121.5,101z"/>
			<path fill-rule="evenodd" clip-rule="evenodd" d="M196.5,118c-3.886,4.141-8.941,0.264-14,0c-11.319-0.59-20.41,2.784-28,7
				c-2.131-2.536-6.258-3.075-7-7C151.967,101.718,192.654,99.244,196.5,118z M153.5,119c5.127,2.142,8.631-5.137,16-4
				c-0.914-1.753-0.344-4.99-2-6C162.296,111.299,152.221,113.489,153.5,119z M191.5,115c-1.064-0.717-4.606-3.905-6-1
				C186.782,114.5,191.479,116.531,191.5,115z"/>
			<path fill-rule="evenodd" clip-rule="evenodd" fill="#FFFFFF" d="M167.5,109c1.656,1.01,1.086,4.247,2,6
				c-7.369-1.137-10.873,6.142-16,4C152.221,113.489,162.296,111.299,167.5,109z"/>
			<path fill-rule="evenodd" clip-rule="evenodd" d="M134.5,118c-0.237,3.763-4.101,3.899-7,5c0,3.333,0,6.667,0,10
				c-2.5,2.833-6.802,3.865-9,7c1.222,4.778,4.772,7.228,8,10c3.872,0.947,4.118-3.897,7-1c-2.847,11.402-16.92,0.873-18-5
				c-1.481,1.581-5.168,3.47-5-1c-4.039,1.628-7.888,3.445-12,5c8.966-5.034,16.081-11.919,25-17c0-2.333,0-4.667,0-7
				c-5.552-6.448-21.224-2.776-29-7c2.493-12.369,29.248-7.405,32,1C129.587,118.163,132.153,115.637,134.5,118z M110.5,114
				c-2.714,0.619-7.936-1.27-9,1C104.214,114.381,109.436,116.27,110.5,114z"/>
			<path fill-rule="evenodd" clip-rule="evenodd" fill="#FFFFFF" d="M101.5,115c1.064-2.27,6.286-0.381,9-1
				C109.436,116.27,104.214,114.381,101.5,115z"/>
			<path fill-rule="evenodd" clip-rule="evenodd" d="M198.5,115c2.087-2.981,5.26,1.328,9,0c0.076,3.409-3.705,2.961-7,3
				c0.31-1.357,2.504-0.83,4-1C203.268,115.566,201.062,115.105,198.5,115z"/>
			<path fill-rule="evenodd" clip-rule="evenodd" d="M227.5,154c2.497-4.347,6.969-1.505,10-6c5.393-7.998,1.661-23.248-3-29
				c-1.78-0.553-4.153-0.514-5-2c-5,0-10,0-15,0c2.366-2.3,8.976-0.358,13-1c7.848-0.181,9.482,5.851,13,10
				c0.087,8.42,0.435,17.102-2,23C235.406,151.24,231.99,153.156,227.5,154z"/>
			<path fill-rule="evenodd" clip-rule="evenodd" d="M198.5,120c-0.28-1.59,5.401-1.401,3,1
				C201.885,120.616,198.487,119.93,198.5,120z"/>
			<path fill-rule="evenodd" clip-rule="evenodd" d="M174.5,120c4.785-0.15,7.053,6.047,13,7c11.508,1.843,23.432-10.484,36-7
				c10.105,2.802,16.737,19.666,5,29c-2.22-5.885,2.564-6.955,2-13c-0.977-10.454-8.523-12.958-17-12
				c-8.341,0.943-15.164,10.293-29,7C180.928,130.149,174.142,126.245,174.5,120z"/>
			<path fill-rule="evenodd" clip-rule="evenodd" d="M77.5,121c2.781,2.524-5.194,2.749-6,5c-0.492,7.594-2.261,13.62,5,15
				c-7.643,2.678-7.294-8.402-6-16C72.267,123.101,75.462,122.629,77.5,121z"/>
			<path fill-rule="evenodd" clip-rule="evenodd" d="M98.5,131c3.124-0.226,5.281-4.425,8-2c0.185,6.852-7.43,5.904-14,6
				c-0.689-10.421-14.036-3.436-18-4C76.175,120.267,95.456,125.408,98.5,131z"/>
			<path fill-rule="evenodd" clip-rule="evenodd" d="M162.5,138c1.374,6.983-1.651,13.969-7,11c-1.203-4.869,4.623-2.71,3-8
				c-0.784-3.882-9.779,0.446-9-5C153.441,133.572,160.44,135.355,162.5,138z"/>
			<path fill-rule="evenodd" clip-rule="evenodd" d="M163.5,135c2.558-0.044,1.22,0.743,1,2c1.697,4.97,14.521-1.188,16,4
				c-3.918-2.415-12.982,0.316-17-2C163.5,137.667,163.5,136.333,163.5,135z"/>
			<path fill-rule="evenodd" clip-rule="evenodd" fill="#FFFFFF" d="M212.5,136c5.797,10.08-9.559,15.567-18,18
				c1.675-1.659,0.796-5.871,1-9C201.049,141.882,207.51,139.676,212.5,136z"/>
			<path fill-rule="evenodd" clip-rule="evenodd" fill="#FFFFFF" d="M58.5,141c2.778,6.488,7.74,11.029,9,18
				c2.991,16.55-4.901,40.091-2,53c2.196,9.771,12.953,14.306,20,18c-9,0-18,0-27,0C58.5,200.333,58.5,170.667,58.5,141z"/>
			<path fill-rule="evenodd" clip-rule="evenodd" d="M153.5,143c0.318,2.319-0.16,3.839-1,5c-3.688-3.869-9.688,0.418-14-2
				C138.827,140.717,149.5,141.38,153.5,143z"/>
			<path fill-rule="evenodd" clip-rule="evenodd" fill="#FFFFFF" d="M249.5,146c0,28,0,56,0,84c-43,0-86,0-129,0
				c10.085-4.318,22.071-4.649,33-8c5.89-1.806,11.743-5.854,18-9c6.654-3.346,13.883-5.181,20-8c11.079-5.106,24.434-14.088,32-22
				c4.373-4.573,5.733-10.724,9-16c4.367-7.054,12.621-12.414,16-21C248.833,146,249.167,146,249.5,146z"/>
			<path fill-rule="evenodd" clip-rule="evenodd" fill="#FFFFFF" d="M191.5,147c-0.342,12.658-14.357,11.643-23,16
				c-0.839-2.828-1.161-6.172-2-9C175,151.833,182.763,148.929,191.5,147z"/>
			<path fill-rule="evenodd" clip-rule="evenodd" fill="#FFFFFF" d="M89.5,151c4.237,1.716-0.59,7.71,1,13
				C83.331,162.696,88.794,155.699,89.5,151z"/>
			<path fill-rule="evenodd" clip-rule="evenodd" fill="#FFFFFF" d="M205.5,154c3.542,0.604-1.446,4.858-3,7
				c-1.871,2.579-3.859,7.229-7,7C190.877,159.146,201.453,157.456,205.5,154z"/>
			<path fill-rule="evenodd" clip-rule="evenodd" fill="#FFFFFF" d="M95.5,155c2.503,0.83,3.927,2.739,7,3
				c1.129,3.541-4.203,5.69-1,8c-0.92,2.726-3.126-1.396-6,0C94.804,162.329,93.774,158.397,95.5,155z"/>
			<path fill-rule="evenodd" clip-rule="evenodd" fill="#FFFFFF" d="M160.5,156c4.269,0.064,2.335,6.332,4,9
				c-7.507,0.827-12.614,4.052-22,3c0-2.667,0-5.333,0-8C148.13,158.297,155.005,157.839,160.5,156z"/>
			<path fill-rule="evenodd" clip-rule="evenodd" fill="#FFFFFF" d="M106.5,159c4.283,1.384,9.122,2.212,15,2
				c-1.378,1.289-0.99,4.344-1,7c-6.412,0.745-10.166-1.167-16-1C105.39,164.557,106.831,162.664,106.5,159z"/>
			<path fill-rule="evenodd" clip-rule="evenodd" fill="#FFFFFF" d="M138.5,160c0,2.667,0,5.333,0,8c-4.667,0-9.333,0-14,0
				c-0.802-3.469,1.489-3.844,1-7C130.929,161.763,133.6,159.767,138.5,160z"/>
			<path fill-rule="evenodd" clip-rule="evenodd" fill="#FFFFFF" d="M189.5,162c2.244,2.09-0.338,9.004,4,9
				c-5.018,5.316-12.095,8.571-18,13c-2.036-4.297-5.489-7.178-5-14C177.542,168.043,184.312,165.812,189.5,162z"/>
			<path fill-rule="evenodd" clip-rule="evenodd" fill="#FFFFFF" d="M165.5,171c0.881,5.785,3.664,9.67,5,15
				c-7.53,2.137-14.647,4.686-24,5c1.467-2.707-0.905-8.681,0-14C153.679,175.846,160.077,173.911,165.5,171z"/>
			<path fill-rule="evenodd" clip-rule="evenodd" fill="#FFFFFF" d="M143.5,190c-2.14,3.526-9.896,1.437-15,2
				c-0.535-4.131-1.465-7.869-2-12c5.35,0.017,11.067,0.4,14-2C145.46,178.04,140.116,188.384,143.5,190z"/>
			<path fill-rule="evenodd" clip-rule="evenodd" fill="#FFFFFF" d="M100.5,181c1.453-2.964,3.9,1.317,7,0
				c-0.123,4.456,2.467,6.2,3,10c-3.156,0.489-3.531-1.802-7-1C105.637,187.133,102.055,183.302,100.5,181z"/>
			<path fill-rule="evenodd" clip-rule="evenodd" fill="#FFFFFF" d="M111.5,182c1.386-2.28,6.96-0.373,10-1
				c2.152,2.182,1.121,7.546,3,10c-1.583,2.477-6.996,0.408-9,0C114.606,187.561,113.067,184.767,111.5,182z"/>
			<path fill-rule="evenodd" clip-rule="evenodd" d="M110.5,201c3.356-2.311,10.983-0.351,16-1c5.667,0,11.333,0,17,0
				C134.494,202.327,121.171,200.338,110.5,201z"/>
			<path fill-rule="evenodd" clip-rule="evenodd" d="M142.5,74c16.333,0,32.667,0,49,0c16.485-0.625,26.191,8.016,33,20
				c2.378,4.185,3.079,10.094,6,14c2.752,3.681,7.243,6.142,10,9c3.452,3.579,6.028,6,9,10c0,6.333,0,12.667,0,19
				c-0.333,0-0.667,0-1,0c-3.379,8.586-11.633,13.946-16,21c-3.267,5.276-4.627,11.427-9,16c-7.566,7.912-20.921,16.894-32,22
				c-6.117,2.819-13.346,4.654-20,8c-6.257,3.146-12.11,7.194-18,9c-10.929,3.351-22.915,3.682-33,8c-11.667,0-23.333,0-35,0
				c-7.047-3.694-17.804-8.229-20-18c-2.901-12.909,4.991-36.45,2-53c-1.26-6.971-6.222-11.512-9-18c0-6.333,0-12.667,0-19
				c3.528-9.472,16.379-9.621,14-25C84.693,78.193,114.791,77.291,142.5,74z M218.5,114c3.695-0.638,9.962,1.295,12-1
				c-8.571-7.984-10.372-22.52-20-30c-5.303-4.12-14.065-4.563-24-5c-20.214-0.889-41.484,0.763-57,2c-5.728,0.457-12.541-0.55-17,3
				c19.844,2.008,39.418-5.307,57-3c7.925,1.04,15.939,4.689,22,8c6.265,3.422,13.11,7.564,17,13c-10.567-7.068-22.729-17.881-41-20
				c-10.907-1.265-24.288,2.21-37,3c-8.63,0.536-16.945-1.427-24-1c-13.356,0.809-24.061,9.375-30,16
				c4.121,14.838-11.339,15.562-14,25c-4.089,14.502,5.636,21.276,8,30c4.766,17.584-1.387,36.801-1,57
				c4.119,8.59,12.85,14.632,24,16c21.445,2.631,38.979-6.834,53-9c3.029-0.468,5.044,0.626,7,0c5.096-1.632,11.557-5.838,18-9
				c13.369-6.562,25.899-10.913,37-19c13.677-9.963,16.615-21.286,26-33c-1.862-0.956-3.342,2.995-4,0
				C257.414,148.637,246.072,110.092,218.5,114z"/>
			<path fill-rule="evenodd" clip-rule="evenodd" fill="#FFFFFF" d="M230.5,157c0.658,2.995,2.138-0.956,4,0
				c-9.385,11.714-12.323,23.037-26,33c-11.101,8.087-23.631,12.438-37,19c-6.443,3.162-12.904,7.368-18,9
				c-1.956,0.626-3.971-0.468-7,0c-14.021,2.166-31.555,11.631-53,9c-11.15-1.368-19.881-7.41-24-16
				c-0.387-20.199,5.766-39.416,1-57c-2.364-8.724-12.089-15.498-8-30c2.661-9.438,18.121-10.162,14-25
				c5.939-6.625,16.644-15.191,30-16c7.055-0.427,15.37,1.536,24,1c12.712-0.79,26.093-4.265,37-3c18.271,2.119,30.433,12.932,41,20
				c-3.89-5.436-10.735-9.578-17-13c-6.061-3.311-14.075-6.96-22-8c-17.582-2.307-37.156,5.008-57,3c4.459-3.55,11.272-2.543,17-3
				c15.516-1.237,36.786-2.889,57-2c9.935,0.437,18.697,0.88,24,5c9.628,7.48,11.429,22.016,20,30c-2.038,2.295-8.305,0.362-12,1
				C246.072,110.092,257.414,148.637,230.5,157z M238.5,149c2.435-5.898,2.087-14.58,2-23c-3.518-4.149-5.152-10.181-13-10
				c-4.024,0.642-10.634-1.3-13,1c5,0,10,0,15,0c0.847,1.486,3.22,1.447,5,2c4.661,5.752,8.393,21.002,3,29
				c-3.031,4.495-7.503,1.653-10,6C231.99,153.156,235.406,151.24,238.5,149z M66.5,141c-5.953-9.991,1.623-20.365,11-24
				c6.492-0.238,10.169,1.726,15-1c-5.088-1.027-8.72,0.979-17,0c-8.732,4.389-15.352,14.149-10,27c3.198,2.802,8.346,3.654,12,6
				C74.478,143.615,69.473,145.99,66.5,141z M101.5,88c17.101,5.078,37.546,0.017,51-1c19.695-1.489,33.745,4.8,43,12
				c2.182,1.697,4.277,5.67,8,5c-11.05-11.744-29.78-20.473-53-18c-10.176,1.084-19.93,3.758-33,3c-8.925-0.518-20.277-5.359-21,2
				C98,89.833,98.945,88.112,101.5,88z M151.5,93c-2.007,2.705,2.918,0.004,3,0c17.682-0.924,35.358,2.985,43,14
				C191.471,93.664,170.828,89.715,151.5,93z M111.5,94c-7.336,0.167-13.226,2.778-17,6c0.829,2.611-3.024,5.487,0,7
				c0.822-14.675,21.449-12.88,33-9C124.541,94.678,116.91,93.876,111.5,94z M150.5,99c0,2.333,0,4.667,0,7
				c2.209-0.125,0.425-4.242,1-6c0.385-1.935,7.477-5.613,3-6C153.334,95.833,151.887,97.386,150.5,99z M125.5,112c0-3,0-6,0-9
				c-1.177-0.3-2.51-5.295-4-2C125.921,101.579,123.153,109.347,125.5,112z M147.5,118c0.742,3.925,4.869,4.464,7,7
				c7.59-4.216,16.681-7.59,28-7c5.059,0.264,10.114,4.141,14,0C192.654,99.244,151.967,101.718,147.5,118z M126.5,118
				c-2.752-8.405-29.507-13.369-32-1c7.776,4.224,23.448,0.552,29,7c0,2.333,0,4.667,0,7c-8.919,5.081-16.034,11.966-25,17
				c4.112-1.555,7.961-3.372,12-5c-0.168,4.47,3.519,2.581,5,1c1.08,5.873,15.153,16.402,18,5c-2.882-2.897-3.128,1.947-7,1
				c-3.228-2.772-6.778-5.222-8-10c2.198-3.135,6.5-4.167,9-7c0-3.333,0-6.667,0-10c2.899-1.101,6.763-1.237,7-5
				C132.153,115.637,129.587,118.163,126.5,118z M204.5,117c-1.496,0.17-3.69-0.357-4,1c3.295-0.039,7.076,0.409,7-3
				c-3.74,1.328-6.913-2.981-9,0C201.062,115.105,203.268,115.566,204.5,117z M201.5,121c2.401-2.401-3.28-2.59-3-1
				C198.487,119.93,201.885,120.616,201.5,121z M184.5,131c13.836,3.293,20.659-6.057,29-7c8.477-0.958,16.023,1.546,17,12
				c0.564,6.045-4.22,7.115-2,13c11.737-9.334,5.105-26.198-5-29c-12.568-3.484-24.492,8.843-36,7c-5.947-0.953-8.215-7.15-13-7
				C174.142,126.245,180.928,130.149,184.5,131z M70.5,125c-1.294,7.598-1.643,18.678,6,16c-7.261-1.38-5.492-7.406-5-15
				c0.806-2.251,8.781-2.476,6-5C75.462,122.629,72.267,123.101,70.5,125z M74.5,131c3.964,0.564,17.311-6.421,18,4
				c6.57-0.096,14.185,0.852,14-6c-2.719-2.425-4.876,1.774-8,2C95.456,125.408,76.175,120.267,74.5,131z M212.5,130
				c-3.554,6.422-21.915,12.323-38,17c-28.614,8.32-67.875,18.586-85-3c-1.7-2.634-0.1-8.566-2-11c-3.601-1.471-2.118,3.177-3,5
				c-0.916,1.894-2.428,3.299-3,5c-4.322,12.861-2.332,38.523,4,45c8.058,8.243,37.32,9.273,56,8c23.16-1.579,39.792-8.199,53-19
				c11.062-9.046,15.522-21.922,23-28c-1.934-3.528,0.469-4.472,1-8c2.359,0.764,6.911,1.971,9,0c-0.611-4.722-7.65-3.017-10-6
				c-0.961-3.04,0.144-8.144-4-8C212.756,127.897,213.118,128.883,212.5,130z M149.5,136c-0.779,5.446,8.216,1.118,9,5
				c1.623,5.29-4.203,3.131-3,8c5.349,2.969,8.374-4.017,7-11C160.44,135.355,153.441,133.572,149.5,136z M163.5,139
				c4.018,2.316,13.082-0.415,17,2c-1.479-5.188-14.303,0.97-16-4c0.22-1.257,1.558-2.044-1-2
				C163.5,136.333,163.5,137.667,163.5,139z M138.5,146c4.312,2.418,10.312-1.869,14,2c0.84-1.161,1.318-2.681,1-5
				C149.5,141.38,138.827,140.717,138.5,146z M144.5,205c-22.738,2.246-48.593,3.362-57-9c3.178,7.231,10.262,10.001,18,11
				c11.826,1.526,29.54,0.244,41-1c21.224-2.304,38.763-15.496,52-21C184.469,188.474,166.305,202.846,144.5,205z M131.5,211
				c-19.91,2.326-44.065,3.346-52-8c-0.547-1.453,1.168-5.169-1-5c0,2,0,4,0,6c7.762,9.935,22.25,9.761,39,9
				c34.612-1.572,72.158-13.405,91-28C190.552,195.368,161.213,207.528,131.5,211z M143.5,200c-5.667,0-11.333,0-17,0
				c-5.017,0.649-12.644-1.311-16,1C121.171,200.338,134.494,202.327,143.5,200z"/>
			<path fill-rule="evenodd" clip-rule="evenodd" d="M77.5,149c-3.654-2.346-8.802-3.198-12-6c-5.352-12.851,1.268-22.611,10-27
				c8.28,0.979,11.912-1.027,17,0c-4.831,2.726-8.508,0.762-15,1c-9.377,3.635-16.953,14.009-11,24
				C69.473,145.99,74.478,143.615,77.5,149z"/>
			<path fill-rule="evenodd" clip-rule="evenodd" d="M96.5,91c0.723-7.359,12.075-2.518,21-2c13.07,0.758,22.824-1.916,33-3
				c23.22-2.473,41.95,6.256,53,18c-3.723,0.67-5.818-3.303-8-5c-9.255-7.2-23.305-13.489-43-12c-13.454,1.017-33.899,6.078-51,1
				C98.945,88.112,98,89.833,96.5,91z"/>
			<path fill-rule="evenodd" clip-rule="evenodd" fill="#FFFFFF" d="M185.5,114c1.394-2.905,4.936,0.283,6,1
				C191.479,116.531,186.782,114.5,185.5,114z"/>
			<path fill-rule="evenodd" clip-rule="evenodd" fill="#FFFFFF" d="M85.5,151C83.032,148.368,88.385,145.206,85.5,151L85.5,151z"/>
			<path fill-rule="evenodd" clip-rule="evenodd" fill="#FFFFFF" d="M84.5,176c1.918-1.2,4.668,5.293,5,9
				C86.898,182.936,86.632,178.535,84.5,176z"/>
			<path fill-rule="evenodd" clip-rule="evenodd" fill="#FFFFFF" d="M90.5,186c0.19-1.135,1.003-0.556,1,0
				c1.615,0.282,1.722-0.945,3-1c-0.167-2.833-1.833-4.167-2-7c4.312,1.688,5.303,6.697,7,11
				C96.284,188.217,92.872,187.629,90.5,186z"/>
			<path fill-rule="evenodd" clip-rule="evenodd" d="M198.5,185c-13.237,5.504-30.776,18.696-52,21c-11.46,1.244-29.174,2.526-41,1
				c-7.738-0.999-14.822-3.769-18-11c8.407,12.362,34.262,11.246,57,9C166.305,202.846,184.469,188.474,198.5,185z"/>
			<path fill-rule="evenodd" clip-rule="evenodd" d="M208.5,185c-18.842,14.595-56.388,26.428-91,28c-16.75,0.761-31.238,0.935-39-9
				c0-2,0-4,0-6c2.168-0.169,0.453,3.547,1,5c7.935,11.346,32.09,10.326,52,8C161.213,207.528,190.552,195.368,208.5,185z"/>
			<path fill-rule="evenodd" clip-rule="evenodd" d="M213.5,127c4.144-0.144,3.039,4.96,4,8c2.35,2.983,9.389,1.278,10,6
				c-2.089,1.971-6.641,0.764-9,0c-0.531,3.528-2.934,4.472-1,8c-7.478,6.078-11.938,18.954-23,28
				c-13.208,10.801-29.84,17.421-53,19c-18.68,1.273-47.942,0.243-56-8c-6.332-6.477-8.322-32.139-4-45c0.572-1.701,2.084-3.106,3-5
				c0.882-1.823-0.601-6.471,3-5c1.9,2.434,0.3,8.366,2,11c17.125,21.586,56.386,11.32,85,3c16.085-4.677,34.446-10.578,38-17
				C213.118,128.883,212.756,127.897,213.5,127z M195.5,145c-0.204,3.129,0.675,7.341-1,9c8.441-2.433,23.797-7.92,18-18
				C207.51,139.676,201.049,141.882,195.5,145z M85.5,151C88.385,145.206,83.032,148.368,85.5,151L85.5,151z M166.5,154
				c0.839,2.828,1.161,6.172,2,9c8.643-4.357,22.658-3.342,23-16C182.763,148.929,175,151.833,166.5,154z M90.5,164
				c-1.59-5.29,3.237-11.284-1-13C88.794,155.699,83.331,162.696,90.5,164z M195.5,168c3.141,0.229,5.129-4.421,7-7
				c1.554-2.142,6.542-6.396,3-7C201.453,157.456,190.877,159.146,195.5,168z M95.5,166c2.874-1.396,5.08,2.726,6,0
				c-3.203-2.31,2.129-4.459,1-8c-3.073-0.261-4.497-2.17-7-3C93.774,158.397,94.804,162.329,95.5,166z M142.5,160
				c0,2.667,0,5.333,0,8c9.386,1.052,14.493-2.173,22-3c-1.665-2.668,0.269-8.936-4-9C155.005,157.839,148.13,158.297,142.5,160z
				 M104.5,167c5.834-0.167,9.588,1.745,16,1c0.01-2.656-0.378-5.711,1-7c-5.878,0.212-10.717-0.616-15-2
				C106.831,162.664,105.39,164.557,104.5,167z M125.5,161c0.489,3.156-1.802,3.531-1,7c4.667,0,9.333,0,14,0c0-2.667,0-5.333,0-8
				C133.6,159.767,130.929,161.763,125.5,161z M170.5,170c-0.489,6.822,2.964,9.703,5,14c5.905-4.429,12.982-7.684,18-13
				c-4.338,0.004-1.756-6.91-4-9C184.312,165.812,177.542,168.043,170.5,170z M146.5,177c-0.905,5.319,1.467,11.293,0,14
				c9.353-0.314,16.47-2.863,24-5c-1.336-5.33-4.119-9.215-5-15C160.077,173.911,153.679,175.846,146.5,177z M89.5,185
				c-0.332-3.707-3.082-10.2-5-9C86.632,178.535,86.898,182.936,89.5,185z M99.5,189c-1.697-4.303-2.688-9.312-7-11
				c0.167,2.833,1.833,4.167,2,7c-1.278,0.055-1.385,1.282-3,1c0.003-0.556-0.81-1.135-1,0C92.872,187.629,96.284,188.217,99.5,189z
				 M140.5,178c-2.933,2.4-8.65,2.017-14,2c0.535,4.131,1.465,7.869,2,12c5.104-0.563,12.86,1.526,15-2
				C140.116,188.384,145.46,178.04,140.5,178z M103.5,190c3.469-0.802,3.844,1.489,7,1c-0.533-3.8-3.123-5.544-3-10
				c-3.1,1.317-5.547-2.964-7,0C102.055,183.302,105.637,187.133,103.5,190z M115.5,191c2.004,0.408,7.417,2.477,9,0
				c-1.879-2.454-0.848-7.818-3-10c-3.04,0.627-8.614-1.28-10,1C113.067,184.767,114.606,187.561,115.5,191z"/>
		</g>
	</g>
</g>
<g>
	<g>
		<path fill="#8C8C8C" d="M-129-58c1.935,0,1.935-3,0-3S-130.935-58-129-58L-129-58z"/>
	</g>
</g>
</svg>
