<?xml version="1.0" encoding="utf-8"?>
<!-- Generator: Adobe Illustrator 15.0.0, SVG Export Plug-In . SVG Version: 6.00 Build 0)  -->
<!DOCTYPE svg PUBLIC "-//W3C//DTD SVG 1.1//EN" "http://www.w3.org/Graphics/SVG/1.1/DTD/svg11.dtd">
<svg version="1.1" xmlns="http://www.w3.org/2000/svg" xmlns:xlink="http://www.w3.org/1999/xlink" x="0px" y="0px" width="300px"
	 height="300px" viewBox="0 0 300 300" enable-background="new 0 0 300 300" xml:space="preserve">
<g id="Layer_1">
	<g id="jUfV4H.tif">
		<g>
			<g>
				<path fill-rule="evenodd" clip-rule="evenodd" fill="#FFFFFF" d="M143.956,32c-2.461,2.553-0.038,5.478,2.362,6.413
					c-6.153,3.907-12.666,6.738-18.901,10.26c-15.634,8.832-25.974,18.123-34.258,33.345c-1.023,8.494-2.256,16.381-1.181,23.084
					c2.941,18.337,20.94,35.285,33.077,42.322c-4.782,7.131-13.159,6.821-20.082,8.978c-13.979,4.354-26.454,9.593-33.077,21.802
					c-1.452,2.678-0.712,6.598-2.362,10.26c-1.264,2.805-4.254,4.619-5.907,7.695c-3.163,5.889-5.178,14.054-8.27,19.237
					c-7.235,12.13-19.28,18.197-12.994,35.909c5.611-0.32-0.107-12.941,3.544-15.39c2.984,4.882,3.249,12.719,9.45,14.107
					c1.567-7.204-8.688-13.314-2.362-23.085c4.553,7.026,4.802,18.727,14.176,20.521c0.647-6.537-8.328-12.985-9.451-21.803
					c11.643-2.38,10.675,8.931,18.901,10.26c0.632-7.12-6.852-16.486-18.901-14.107c1.213-8.942,5.31-14.755,10.632-19.237
					c4.19-13.405,9.852-25.214,17.72-34.627c14.494-5.64,30.903-9.2,44.891-15.39c6.96,1.849,13.929,3.688,21.264,5.13
					c1.963,39.764,13.867,68.733,22.444,101.316c-44.89,0-89.779,0-134.67,0c0-75.667,0-151.333,0-227
					C74.652,32,109.304,32,143.956,32z"/>
				<path fill-rule="evenodd" clip-rule="evenodd" fill="#FFFFFF" d="M146.318,32c36.228,0,72.454,0,108.682,0
					c0,71.392,0,142.783,0,214.175c-1.696-5.425-4.021-10.171-4.726-16.672c-23.892-11.221-47.808-16.121-62.609-32.062
					c-1.183-1.272-3.022-2.994-4.726-5.13c-1.379-1.729-1.495-5.394-2.362-6.412c-8.17-9.593-16.995-15.387-20.083-28.215
					c13.702-0.418,24.916,1.369,33.077-2.564c19.017-9.169,33.34-41.254,29.533-71.82c-1.841-14.782-11.1-25.124-17.72-33.345
					c0.741-2.615,5.969-0.36,4.726-5.13c-0.997-3.02-6.092,0.08-7.089,1.283c-11.155-12.782-33.125-14.28-51.978-8.978
					c-1.159-1.733-3.151-2.563-4.726-3.847C146.318,32.855,146.318,32.428,146.318,32z"/>
				<path fill-rule="evenodd" clip-rule="evenodd" fill="#FFFFFF" d="M164.038,47.39c-5.923,2.975-16.92,0.441-24.808,1.283
					C146.573,41.005,154.994,42.927,164.038,47.39z"/>
				<path fill-rule="evenodd" clip-rule="evenodd" fill="#FFFFFF" d="M201.841,51.237c0.657,3.134,2.772,4.686,4.726,6.413
					c-3.768,3.587-7.576-3.69-12.995-2.565C194.647,51.978,198.318,51.689,201.841,51.237z"/>
				<path fill-rule="evenodd" clip-rule="evenodd" fill="#FFFFFF" d="M136.868,53.802c4.831-1.791,19.396-3.129,22.445,1.283
					C153.682,57.744,141.192,56.83,136.868,53.802z"/>
				<path fill-rule="evenodd" clip-rule="evenodd" d="M134.506,76.887c2.424-5.467,10.729-7.06,15.356-7.695
					c27.787-3.816,58.419,8.045,60.248,30.78c-5.689-1.091-9.351-4.384-9.451-11.542c-8.441-11.525-28.971-16.194-48.434-14.107
					C145.765,75.015,139.88,78.945,134.506,76.887z"/>
				<path fill-rule="evenodd" clip-rule="evenodd" d="M130.962,71.757c3.127,1.735,2.828,7.189,4.725,10.26
					c-2.119-0.163-2.491,1.57-4.725,1.282C129.187,81.22,129.187,73.836,130.962,71.757z"/>
				<path fill-rule="evenodd" clip-rule="evenodd" d="M194.753,87.147c-9.974,2.932-19.228-5.483-30.715-5.13
					c6.259-9.862,19.907,2.315,29.533,1.282C194.196,84.331,194.804,85.382,194.753,87.147z"/>
				<path fill-rule="evenodd" clip-rule="evenodd" fill="#FFFFFF" d="M147.5,146.141c3.584-0.471,2.452,4.178,3.544,6.413
					c-4.402,0.077-7.472-1.293-10.632-2.565C141.089,146.876,148.055,150.59,147.5,146.141z"/>
				<path fill-rule="evenodd" clip-rule="evenodd" fill="#FFFFFF" d="M255,251.305c0,2.565,0,5.13,0,7.695
					c-25.201,0-50.403,0-75.604,0c-9.044-30.365-18.796-59.963-22.445-96.187c3.379,5.732,6.619,10.708,9.451,15.39
					c1.036,1.713,1.49,5.247,2.362,6.413c1.239,1.654,4.134,2.144,5.906,3.847c5.724,5.502,11.689,15.704,17.72,20.521
					c12.873,10.277,31.648,12.942,48.435,20.52c-0.925,5.042-7.069,14.974-1.182,19.237c4.061-1.577,1.728-10.096,3.544-14.107
					c2.711,2.613,0.429,10.65,1.182,15.39c4.372,0.899,2.946-4.496,4.726-6.412C251.597,245.504,250.088,255.995,255,251.305z"/>
				<path fill-rule="evenodd" clip-rule="evenodd" d="M146.318,32c0,0.428,0,0.855,0,1.283c1.574,1.284,3.566,2.114,4.726,3.847
					c18.853-5.302,40.822-3.805,51.978,8.978c0.997-1.203,6.092-4.303,7.089-1.283c1.243,4.77-3.984,2.515-4.726,5.13
					c6.62,8.221,15.879,18.563,17.72,33.345c3.807,30.565-10.517,62.651-29.533,71.82c-8.161,3.934-19.375,2.146-33.077,2.564
					c3.088,12.828,11.913,18.622,20.083,28.215c0.867,1.019,0.983,4.684,2.362,6.412c1.703,2.136,3.543,3.857,4.726,5.13
					c14.802,15.941,38.718,20.842,62.609,32.062c0.705,6.501,3.029,11.247,4.726,16.672c0,1.71,0,3.421,0,5.13
					c-4.912,4.69-3.403-5.801-5.906-7.694c-1.779,1.916-0.354,7.312-4.726,6.412c-0.753-4.739,1.529-12.776-1.182-15.39
					c-1.816,4.012,0.517,12.53-3.544,14.107c-5.888-4.264,0.257-14.195,1.182-19.237c-16.786-7.577-35.562-10.242-48.435-20.52
					c-6.03-4.816-11.996-15.019-17.72-20.521c-1.772-1.703-4.667-2.192-5.906-3.847c-0.872-1.166-1.326-4.7-2.362-6.413
					c-2.832-4.682-6.072-9.657-9.451-15.39c3.649,36.224,13.401,65.821,22.445,96.187c-1.574,0-3.15,0-4.726,0
					c-8.577-32.583-20.481-61.553-22.444-101.316c-7.335-1.442-14.304-3.281-21.264-5.13c-13.988,6.189-30.397,9.75-44.891,15.39
					c-7.868,9.413-13.529,21.222-17.72,34.627c-5.322,4.482-9.419,10.295-10.632,19.237c12.05-2.379,19.534,6.987,18.901,14.107
					c-8.227-1.329-7.258-12.64-18.901-10.26c1.123,8.817,10.098,15.266,9.451,21.803c-9.374-1.794-9.623-13.494-14.176-20.521
					c-6.326,9.771,3.93,15.881,2.362,23.085c-6.202-1.389-6.466-9.226-9.45-14.107c-3.651,2.448,2.067,15.069-3.544,15.39
					c-6.286-17.712,5.759-23.779,12.994-35.909c3.092-5.184,5.107-13.349,8.27-19.237c1.652-3.076,4.643-4.891,5.907-7.695
					c1.65-3.662,0.91-7.582,2.362-10.26c6.624-12.209,19.098-17.447,33.077-21.802c6.923-2.156,15.3-1.847,20.082-8.978
					c-12.137-7.037-30.135-23.985-33.077-42.322c-1.075-6.704,0.158-14.591,1.181-23.084c8.284-15.222,18.624-24.513,34.258-33.345
					c6.235-3.522,12.748-6.353,18.901-10.26c-2.4-0.935-4.823-3.859-2.362-6.413C144.744,32,145.53,32,146.318,32z M162.857,42.26
					c5.856,0.043,9.858,4.706,14.176,5.13c2.19,0.216,6.945-6.941,8.269,0c-2.709,3.314-7.823,9.357-11.812,3.848
					c-3.725,16.059-38.846,12.497-44.891,1.282c-8.423,6.432-20.016,12.716-25.989,21.803c-4.09,6.223-8.699,18.303-7.088,28.214
					c3.077,18.931,23.262,37.057,37.802,44.887c5.875-3.882,14.438-4.845,20.082-8.978c2.545,3.649,2.531,10.078,4.726,14.107
					c18.466,1.667,30.947-0.569,38.983-6.413c7.903-5.747,14.819-14.521,17.72-24.367c4.599-15.608,6.323-36.606-1.181-51.299
					c-15.457,4.901-27.635-3.953-28.353-19.237c3.393-1.876,8.211-2.202,9.451-6.413c-6.279-3.459-19.066-6.638-24.808-6.412
					C173.998,44.497,164.611,39.211,162.857,42.26z M139.23,48.672c7.888-0.842,18.885,1.692,24.808-1.283
					C154.994,42.927,146.573,41.005,139.23,48.672z M193.571,55.085c5.419-1.125,9.228,6.152,12.995,2.565
					c-1.953-1.727-4.068-3.278-4.726-6.413C198.318,51.689,194.647,51.978,193.571,55.085z M159.313,55.085
					c-3.05-4.412-17.614-3.073-22.445-1.283C141.192,56.83,153.682,57.744,159.313,55.085z M201.841,65.345
					c-1.376-0.215-1.283-2.027-1.182-3.848c-3.663,0.129-5.644-1.568-8.27-2.565C192.066,64.042,200.555,66.239,201.841,65.345z
					 M140.412,149.989c3.16,1.272,6.229,2.642,10.632,2.565c-1.092-2.235,0.04-6.883-3.544-6.413
					C148.055,150.59,141.089,146.876,140.412,149.989z"/>
				<path fill-rule="evenodd" clip-rule="evenodd" fill="#FFFFFF" d="M192.39,58.932c2.626,0.997,4.606,2.694,8.27,2.565
					c-0.102,1.82-0.194,3.632,1.182,3.848C200.555,66.239,192.066,64.042,192.39,58.932z"/>
				<path fill-rule="evenodd" clip-rule="evenodd" fill="#FFFFFF" d="M169.945,38.413c5.741-0.226,18.528,2.953,24.808,6.412
					c-1.24,4.211-6.059,4.537-9.451,6.413c0.718,15.284,12.896,24.139,28.353,19.237c7.504,14.693,5.779,35.691,1.181,51.299
					c-2.9,9.846-9.816,18.621-17.72,24.367c-8.036,5.843-20.518,8.08-38.983,6.413c-2.194-4.03-2.181-10.458-4.726-14.107
					c-5.644,4.132-14.207,5.096-20.082,8.978c-14.541-7.83-34.725-25.957-37.802-44.887c-1.611-9.911,2.998-21.992,7.088-28.214
					c5.973-9.086,17.565-15.371,25.989-21.803c6.045,11.214,41.166,14.776,44.891-1.282c3.989,5.509,9.104-0.534,11.812-3.848
					c-1.323-6.941-6.078,0.216-8.269,0c-4.317-0.424-8.319-5.086-14.176-5.13C164.611,39.211,173.998,44.497,169.945,38.413z
					 M193.571,83.299c-9.626,1.033-23.274-11.144-29.533-1.282c11.487-0.354,20.741,8.062,30.715,5.13
					C194.804,85.382,194.196,84.331,193.571,83.299z M152.226,74.322c19.463-2.087,39.992,2.582,48.434,14.107
					c0.101,7.158,3.762,10.451,9.451,11.542c-1.829-22.735-32.461-34.596-60.248-30.78c-4.628,0.636-12.933,2.228-15.356,7.695
					C139.88,78.945,145.765,75.015,152.226,74.322z M130.962,83.299c2.233,0.288,2.605-1.445,4.725-1.282
					c-1.896-3.071-1.598-8.525-4.725-10.26C129.187,73.836,129.187,81.22,130.962,83.299z"/>
			</g>
		</g>
	</g>
	<text transform="matrix(1 0 0 1 48 206)" fill="#FF2400" font-family="'Verdana-Bold'" font-size="36">FUCK YEA.</text>
</g>
<g id="Layer_2">
</g>
</svg>
