<?xml version="1.0" encoding="utf-8"?>
<!-- Generator: Adobe Illustrator 15.0.0, SVG Export Plug-In . SVG Version: 6.00 Build 0)  -->
<!DOCTYPE svg PUBLIC "-//W3C//DTD SVG 1.1//EN" "http://www.w3.org/Graphics/SVG/1.1/DTD/svg11.dtd">
<svg version="1.1" xmlns="http://www.w3.org/2000/svg" xmlns:xlink="http://www.w3.org/1999/xlink" x="0px" y="0px" width="300px"
	 height="300px" viewBox="0 0 300 300" enable-background="new 0 0 300 300" xml:space="preserve">
<g id="Layer_1">
	<g id="jHPAAG.tif">
		<g id="XMLID_2_">
			<g>
				<path fill="#FFFFFF" d="M219,52c0,59.67,0,119.33,0,179c-9.33,0-18.67,0-28,0c8.02-8.27-1.82-21.29-14-19
					c0.54-8.4,10.58-8.8,15-15c5.19-7.27,6.98-18.68,3-29c-2.45-6.35-6.55-8.1-11-14c14.75-5.25,28.79-16.54,27-35
					c17.35-10.87-0.86-39.62-18-25c-9-6-19.99-10.01-35-10c2.84-7.83,4.87-16.46,8-24c5.27,2.4,13.15,2.18,18,5
					c4.15,4.13,4.4,11.53,13,12c16.87,0.93,16.78-23.94,1-24c-6.03-0.02-7.98,3.1-13,7c-6.18-2.29-16.59-5.23-22-5
					c-4.67,8.34-6.89,19.11-10,29c-15.99-0.33-27.95,3.39-37,10c-10.33-7.71-24.75-1.57-26,11c0-17.67,0-35.33,0-53
					C133,52,176,52,219,52z"/>
				<path d="M193,94c17.14-14.62,35.35,14.13,18,25c1.79,18.46-12.25,29.75-27,35c4.45,5.9,8.55,7.65,11,14
					c3.98,10.32,2.19,21.73-3,29c-4.42,6.2-14.46,6.6-15,15c12.18-2.29,22.02,10.73,14,19c-24.33,0-48.67,0-73,0
					c-0.73-0.93-1.82-1.51-3-2c-0.92-11.92,5.11-16.89,16-17c0.64-9.18-9.07-8.22-14-15c-9.48-13.05-5.4-34.85,8-42
					c-14.34-6.99-27.76-14.91-28-36c-2.18-4.48-5.71-7.63-7-13c0-0.33,0-0.67,0-1c1.25-12.57,15.67-18.71,26-11
					c9.05-6.61,21.01-10.33,37-10c3.11-9.89,5.33-20.66,10-29c5.41-0.23,15.82,2.71,22,5c5.02-3.9,6.97-7.02,13-7
					c15.78,0.06,15.87,24.93-1,24c-8.6-0.47-8.85-7.87-13-12c-4.85-2.82-12.73-2.6-18-5c-3.13,7.54-5.16,16.17-8,24
					C173.01,83.99,184,88,193,94z M211,112c6.06-7.54-1.6-19.95-11-15C201.2,100.48,207.96,107.02,211,112z M117,145
					c25.91,17.65,95.35,11.2,89-28c-3.58-22.11-39.28-29.88-62-27c-21.84,2.77-37.55,12.41-41,28
					C100.49,129.36,109.16,139.66,117,145z M195,59c-15.11,7.39,11.74,21.03,10,5C204.47,59.15,199.71,56.69,195,59z M170,225
					c6.33,0,12.67,0,19,0C188.16,214.7,170.61,214.68,170,225z M183,198c10.5-6.19,11.84-29.17,1-36
					C185.4,174.16,182.72,188.05,183,198z M161,225c15.46-12.49,20.09-40.18,17-68c-12.52,4.1-34.55,4.34-47,0
					c-4.34,21.26,2.9,64.22,18,68C153.1,226.03,156.67,224.24,161,225z M139,224c-2.51-1.49-3.51-4.49-5-7
					c-7.71-0.37-13.31,1.36-14,8C126.01,224.35,134.65,226.32,139,224z M127,198c-2.86-10.03-3-26.22-3-36
					C114.49,169.68,114.93,193.39,127,198z M110,97c-10.36-5.46-18.63,8.41-11,15C100.57,104.9,106.5,102.17,110,97z"/>
				<path fill="#FFFFFF" d="M200,97c9.4-4.95,17.06,7.46,11,15C207.96,107.02,201.2,100.48,200,97z"/>
				<path fill="#FFFFFF" d="M206,117c6.35,39.2-63.09,45.65-89,28c-7.84-5.34-16.51-15.64-14-27c3.45-15.59,19.16-25.23,41-28
					C166.72,87.12,202.42,94.89,206,117z M176,136c-5.44-0.71-8.32,3.99-14,5c-13.69,2.43-22.01-5.07-29-4
					C137.1,150.3,173.31,151.31,176,136z M174,124c13.06,0,10.19-23.51-4-17C160.59,111.32,165.14,124,174,124z M136,124
					c6.15-0.34,10.21-6.68,7-15C126.73,96.43,119.85,124.9,136,124z"/>
				<path fill="#FFFFFF" d="M205,64c1.74,16.03-25.11,2.39-10-5C199.71,56.69,204.47,59.15,205,64z"/>
				<path fill="#FFFFFF" d="M189,225c-6.33,0-12.67,0-19,0C170.61,214.68,188.16,214.7,189,225z"/>
				<path fill="#FFFFFF" d="M184,162c10.84,6.83,9.5,29.81-1,36C182.72,188.05,185.4,174.16,184,162z"/>
				<path fill="#FFFFFF" d="M178,157c3.09,27.82-1.54,55.51-17,68c-4.33-0.76-7.9,1.03-12,0c-15.1-3.78-22.34-46.74-18-68
					C143.45,161.34,165.48,161.1,178,157z"/>
				<path d="M162,141c5.68-1.01,8.56-5.71,14-5c-2.69,15.31-38.9,14.3-43,1C139.99,135.93,148.31,143.43,162,141z"/>
				<path fill="#FD4801" d="M170,107c14.19-6.51,17.06,17,4,17C165.14,124,160.59,111.32,170,107z"/>
				<path fill="#FD4801" d="M143,109c3.21,8.32-0.85,14.66-7,15C119.85,124.9,126.73,96.43,143,109z"/>
				<path fill="#FFFFFF" d="M134,217c1.49,2.51,2.49,5.51,5,7c-4.35,2.32-12.99,0.35-19,1C120.69,218.36,126.29,216.63,134,217z"/>
				<path fill="#FFFFFF" d="M117,197c4.93,6.78,14.64,5.82,14,15c-10.89,0.11-16.92,5.08-16,17c1.18,0.49,2.27,1.07,3,2
					c-9.33,0-18.67,0-28,0c0-41.67,0-83.33,0-125c1.29,5.37,4.82,8.52,7,13c0.24,21.09,13.66,29.01,28,36
					C111.6,162.15,107.52,183.95,117,197z"/>
				<path fill="#FFFFFF" d="M124,162c0,9.78,0.14,25.97,3,36C114.93,193.39,114.49,169.68,124,162z"/>
				<path fill="#FFFFFF" d="M99,112c-7.63-6.59,0.64-20.46,11-15C106.5,102.17,100.57,104.9,99,112z"/>
			</g>
			<g>
			</g>
		</g>
	</g>
</g>
<g id="Layer_2">
</g>
</svg>
