<?xml version="1.0" encoding="utf-8"?>
<!-- Generator: Adobe Illustrator 15.0.0, SVG Export Plug-In . SVG Version: 6.00 Build 0)  -->
<!DOCTYPE svg PUBLIC "-//W3C//DTD SVG 1.1//EN" "http://www.w3.org/Graphics/SVG/1.1/DTD/svg11.dtd">
<svg version="1.1" id="Layer_1" xmlns="http://www.w3.org/2000/svg" xmlns:xlink="http://www.w3.org/1999/xlink" x="0px" y="0px"
	 width="300px" height="300px" viewBox="0 0 300 300" enable-background="new 0 0 300 300" xml:space="preserve">
<g id="OvntHw.tif">
	<g>
		<g>
			<path fill-rule="evenodd" clip-rule="evenodd" fill="#FFFFFF" d="M246,197c-1.278-0.055-1.385-1.282-3-1
				c-2.838-21.416,0.445-36.989-2-54c-2.174-15.125-13.346-24.233-18-35c-1.979-4.579-1.562-9.984-3-14
				c-3.445-9.619-12.196-20.041-19-27c-5.155-5.274-14.308-13.042-22-16c-11.499-4.422-29.502-0.393-43,3
				c-8.292,2.084-24.472,6.855-28,10c-13.293,11.85-24.11,29.031-38,44c-2.534-2.697-0.788-3.882-2-7
				c-3.297,15.399-5.254,25.823-7,39c-4.41-2.256-1.487-11.846-4-16c-2.993,10.673,0.993,28.326-2,39c0-38.333,0-76.667,0-115
				c63.667,0,127.333,0,191,0C246,97,246,147,246,197z"/>
			<path fill-rule="evenodd" clip-rule="evenodd" fill="#FFFFFF" d="M222,254c-45.333,0-90.667,0-136,0
				c-5.361-8.306-12.882-14.451-12-29c8.483,9.517,19.292,16.709,32,22c-3.529-7.805-14.641-8.025-21-13
				c-14.784-20.553-25.763-54.2-23-88c0.573-7.009,4.668-12.547,6-19c0.973-4.715-0.832-10.33,1-15c2.74-6.985,19.412-23.218,27-24
				c-1.223-1.444-3.816-1.517-5-3c7.494-8.173,14.947-16.386,24-23c9.233,2.25,12.198-4.229,17-6c29.948-11.042,59.801-4.352,70,17
				c-10.504,2.201-22.347-2.099-34-2c-0.199,9.866,10.355,8.978,19,10c-24.692,9.129-37.617,34.465-16,52
				c8.988,7.291,24.846,8.229,36,7c-13.199-1.135-26.281-2.386-34-9c16.906-3.76,32.217-9.117,33-29
				c6.969,6.031,10.129,15.872,13,26c0.287-19.956-14.052-33.947-26-45c2.695-2.304,9.645-0.355,14-1c-1.85,4.224,1.117,7.082,6,5
				c2.125,4.208,5.17,7.497,6,13c-5.092-1.242-2.999-9.668-9-10c2.886,9.924,11.195,16.803,15,27c3.803,10.192,4.841,21.821,12,30
				c1.316-5.336-4.533-12.119-6-18c8.157,1.176,7.321,11.345,8,20c0.17,4.217-1.536-0.017-3,0c4.715,13.834,1.149,30.644,3,44
				c0.909,6.562,4.158,10.107,2,16C235.657,223.589,226.117,240.303,222,254z M103,161c3,0,6,0,9,0
				c9.962-11.371,24.662-18.005,24-40c-6.079-10.75-29.265-17.139-43-8c4.688-6.222,14.121-12.21,12-22c-3,0-6,0-9,0
				c-4.59,4.178-4.533,10.174-8,15c-4.166,5.798-13.983,7.355-15,16c4.575,2.491,9.326-2.371,14-3c-5.979,11.914-1.795,38.873,9,40
				c-4.982-3.695-9.57-13.082-8-20c17.267,10.306,37.49-0.476,37-20c4.03-0.03,7.713,0.287,9,3
				C131.042,142.375,120.784,155.45,103,161z M212,137c3.817,0.817,3.871-2.128,5-4C213.739,132.74,212.188,134.187,212,137z
				 M193,142c-6.209,6.36-17.958,8.889-29,16c-9.007,5.8-15.919,14.682-24,17c-7.319,2.1-15.707-0.854-24,3
				c-2.162,7.915-5.159,16.016-3,24c1.208,4.47,6.989,7.422,10,12c4.568,6.946,6.867,15.782,14,16c20.081-4.4,29.109,15.313,52,12
				c9.372-1.356,22.587-13.542,25-24c1.077-4.668-0.598-9.973,0-15c2.393-20.115,9.442-39.272,16-54
				C221.016,143.318,206.312,143.354,193,142z"/>
			<path fill-rule="evenodd" clip-rule="evenodd" fill="#FFFFFF" d="M182,92c8.22,1.114,11.366,7.3,11,17
				C185.693,107.51,181.212,98.298,182,92z"/>
			<path fill-rule="evenodd" clip-rule="evenodd" fill="#FFFFFF" d="M182,116c-16.241,3.871-18.427-21.992-4-19
				C183.407,98.122,188.407,110.24,182,116z"/>
			<path fill-rule="evenodd" clip-rule="evenodd" fill="#FFFFFF" d="M106,130c-11.267,4.962-14.188-8.865-10-17
				C106.453,108.719,110.859,122.42,106,130z"/>
			<path fill-rule="evenodd" clip-rule="evenodd" fill="#FFFFFF" d="M111,113c1.793-0.127,2.109,1.224,4,1
				c1.346,4.605,4.51,14.615-4,14C110.107,123.64,107.303,115.99,111,113z"/>
			<path fill-rule="evenodd" clip-rule="evenodd" d="M217,133c-1.129,1.872-1.183,4.817-5,4C212.188,134.187,213.739,132.74,217,133
				z"/>
			<path fill-rule="evenodd" clip-rule="evenodd" d="M230,149c-6.558,14.728-13.607,33.885-16,54c-0.598,5.027,1.077,10.332,0,15
				c-2.413,10.458-15.628,22.644-25,24c-22.891,3.313-31.919-16.4-52-12c-7.133-0.218-9.432-9.054-14-16
				c-3.011-4.578-8.792-7.53-10-12c-2.159-7.984,0.838-16.085,3-24c8.293-3.854,16.681-0.9,24-3c8.081-2.318,14.993-11.2,24-17
				c11.042-7.111,22.791-9.64,29-16C206.312,143.354,221.016,143.318,230,149z M195,144c-6.435,5.565-15.695,8.305-24,12
				c2.253,5.414,6.331,9.003,11,12c10.78-0.887,10.305-13.028,16-19c3.843,2.49,6.137,6.53,11,8c3.648-3.352,8.742-5.258,11-10
				C212.184,145.483,202.04,146.293,195,144z M206,159c-2.974-2.026-3.822-6.178-9-6c0.97,14.396-17.282,22.752-25,11
				c1.377,12.912-10.326,25.349-20,15c-2.777,3.557-2.66,10.006-7,12c-3,0-6,0-9,0c-1.393,1.273-0.435,4.898-3,5
				c-9.367,2.02-15.106-4.874-15-9c6.211,1.523,6.162,9.773,14,7c-0.321-6.321,2.568-9.432,2-16c-7.506-0.839-12.194,1.139-17,3
				c-2.523,5.144-2.055,13.278-2,21c9.648,6.352,10.024,21.976,23,25c3.183-1.034-5.183-3.966-2-5c16.836,2.83,23.423,15.911,43,16
				c1.486-7.152-5.285-6.049-8-9c-3.405-1.311-3.725,5.48-5,3c-0.261-3.261,1.188-4.812,4-5c3.726-0.13,6.549,3.951,9,2
				c0.619-2.714-1.27-7.937,1-9c3.14,0.456,6.935,3.565,9,2c0.243-4.091-0.974-9.641,2-11c4.258-0.591,6.614,0.719,10,1
				c1.286-2.752,3.696-9.586,8-6c-1.283,3.05-5.991,2.676-6,7c2.436,0.564,5.144,0.856,5,4c-1.891,0.225-2.206-1.127-4-1
				c0.352,3.314,2.995,4.338,5,6c4.512-4.98,3.239-11.402,3-17c-0.852-19.97,8.737-39.571,15-54c-2.6-0.4-3.016-2.984-6-3
				C218.656,154.322,214.27,158.604,206,159z M136,178c-0.906,7.573,1.054,12.279,9,11c2.947-4.386,2.573-12.094,8-14
				c3.149,0.184,1.28,5.386,5,5c2,0,4,0,6,0c3.127-5.873,5.968-12.032,6-21C156.658,163.325,150.77,175.103,136,178z M198,234
				c12.34-3.065,6.162-22.367-6-21C188.958,221.961,194.344,228.671,198,234z M181,239c7.164,0.497,12.611-0.723,16-4
				c-5.57-3.764-6.959-11.708-16-12C181,228.333,181,233.667,181,239z"/>
			<path fill-rule="evenodd" clip-rule="evenodd" fill="#FFFFFF" d="M220,147c-2.258,4.742-7.352,6.648-11,10
				c-4.863-1.47-7.157-5.51-11-8c-5.695,5.972-5.22,18.113-16,19c-4.669-2.997-8.747-6.586-11-12c8.305-3.695,17.565-6.435,24-12
				C202.04,146.293,212.184,145.483,220,147z"/>
			<path fill-rule="evenodd" clip-rule="evenodd" fill="#FFFFFF" d="M221,148c2.984,0.016,3.4,2.6,6,3
				c-6.263,14.429-15.852,34.03-15,54c0.239,5.598,1.512,12.02-3,17c-2.005-1.662-4.648-2.686-5-6c1.794-0.127,2.109,1.225,4,1
				c0.144-3.144-2.564-3.436-5-4c0.009-4.324,4.717-3.95,6-7c-4.304-3.586-6.714,3.248-8,6c-3.386-0.281-5.742-1.591-10-1
				c-2.974,1.359-1.757,6.909-2,11c-2.065,1.565-5.86-1.544-9-2c-2.27,1.063-0.381,6.286-1,9c-2.451,1.951-5.274-2.13-9-2
				c-2.812,0.188-4.261,1.739-4,5c1.275,2.48,1.595-4.311,5-3c2.715,2.951,9.486,1.848,8,9c-19.577-0.089-26.164-13.17-43-16
				c-3.183,1.034,5.183,3.966,2,5c-12.976-3.024-13.352-18.648-23-25c-0.055-7.722-0.523-15.856,2-21c4.806-1.861,9.494-3.839,17-3
				c0.568,6.568-2.321,9.679-2,16c-7.838,2.773-7.789-5.477-14-7c-0.106,4.126,5.633,11.02,15,9c2.565-0.102,1.607-3.727,3-5
				c3,0,6,0,9,0c4.34-1.994,4.223-8.443,7-12c9.674,10.349,21.377-2.088,20-15c7.718,11.752,25.97,3.396,25-11
				c5.178-0.178,6.026,3.974,9,6C214.27,158.604,218.656,154.322,221,148z"/>
			<path fill-rule="evenodd" clip-rule="evenodd" fill="#FFFFFF" d="M170,159c-0.032,8.968-2.873,15.127-6,21c-2,0-4,0-6,0
				c-3.72,0.386-1.851-4.816-5-5c-5.427,1.906-5.053,9.614-8,14c-7.946,1.279-9.906-3.427-9-11
				C150.77,175.103,156.658,163.325,170,159z"/>
			<path fill-rule="evenodd" clip-rule="evenodd" fill="#FFFFFF" d="M55,170c3.222,19.111,4.618,40.049,16,51
				c0.03,14.637,5.836,23.497,11,33c-9,0-18,0-27,0C55,226,55,198,55,170z"/>
			<path fill-rule="evenodd" clip-rule="evenodd" fill="#FFFFFF" d="M59,180c1.615-0.282,1.722,0.945,3,1
				c0.568,14.099,7.03,22.304,9,35C62.387,208.613,61.184,193.816,59,180z"/>
			<path fill-rule="evenodd" clip-rule="evenodd" fill="#FFFFFF" d="M246,203c0,17,0,34,0,51c-7,0-14,0-21,0
				C232.611,237.611,240.713,221.713,246,203z"/>
			<path fill-rule="evenodd" clip-rule="evenodd" fill="#FFFFFF" d="M192,213c12.162-1.367,18.34,17.935,6,21
				C194.344,228.671,188.958,221.961,192,213z"/>
			<path fill-rule="evenodd" clip-rule="evenodd" fill="#FFFFFF" d="M181,223c9.041,0.292,10.43,8.236,16,12
				c-3.389,3.277-8.836,4.497-16,4C181,233.667,181,228.333,181,223z"/>
			<path fill-rule="evenodd" clip-rule="evenodd" d="M134,122c-1.287-2.713-4.97-3.03-9-3c0.49,19.524-19.733,30.306-37,20
				c-1.57,6.918,3.018,16.305,8,20c-10.795-1.127-14.979-28.086-9-40c-4.674,0.629-9.425,5.491-14,3
				c1.017-8.645,10.834-10.202,15-16c3.467-4.826,3.41-10.822,8-15c3,0,6,0,9,0c2.121,9.79-7.312,15.778-12,22
				c13.735-9.139,36.921-2.75,43,8c0.662,21.995-14.038,28.629-24,40c-3,0-6,0-9,0C120.784,155.45,131.042,142.375,134,122z M96,113
				c-4.188,8.135-1.267,21.962,10,17C110.859,122.42,106.453,108.719,96,113z M111,128c8.51,0.615,5.346-9.395,4-14
				c-1.891,0.224-2.207-1.127-4-1C107.303,115.99,110.107,123.64,111,128z"/>
			<path fill-rule="evenodd" clip-rule="evenodd" d="M246,197c0,2,0,4,0,6c-5.287,18.713-13.389,34.611-21,51c-1,0-2,0-3,0
				c4.117-13.697,13.657-30.411,19-45c2.158-5.893-1.091-9.438-2-16c-1.851-13.356,1.715-30.166-3-44c1.464-0.017,3.17,4.217,3,0
				c-0.679-8.655,0.157-18.824-8-20c1.467,5.881,7.316,12.664,6,18c-7.159-8.179-8.197-19.808-12-30
				c-3.805-10.197-12.114-17.076-15-27c6.001,0.332,3.908,8.758,9,10c-0.83-5.503-3.875-8.792-6-13c-4.883,2.082-7.85-0.776-6-5
				c-4.355,0.645-11.305-1.304-14,1c11.948,11.053,26.287,25.044,26,45c-2.871-10.128-6.031-19.969-13-26
				c-0.783,19.883-16.094,25.24-33,29c7.719,6.614,20.801,7.865,34,9c-11.154,1.229-27.012,0.291-36-7
				c-21.617-17.535-8.692-42.871,16-52c-8.645-1.022-19.199-0.134-19-10c11.653-0.099,23.496,4.201,34,2
				c-10.199-21.352-40.052-28.042-70-17c-4.802,1.771-7.767,8.25-17,6c-9.053,6.614-16.506,14.827-24,23
				c1.184,1.483,3.777,1.556,5,3c-7.588,0.782-24.26,17.015-27,24c-1.832,4.67-0.027,10.285-1,15c-1.332,6.453-5.427,11.991-6,19
				c-2.763,33.8,8.216,67.447,23,88c6.359,4.975,17.471,5.195,21,13c-12.708-5.291-23.517-12.483-32-22
				c-0.882,14.549,6.639,20.694,12,29c-1.333,0-2.667,0-4,0c-5.164-9.503-10.97-18.363-11-33c-11.382-10.951-12.778-31.889-16-51
				c0-2.667,0-5.333,0-8c2.993-10.674-0.993-28.327,2-39c2.513,4.154-0.41,13.744,4,16c1.746-13.177,3.703-23.601,7-39
				c1.212,3.118-0.534,4.303,2,7c13.89-14.969,24.707-32.15,38-44c3.528-3.145,19.708-7.916,28-10c13.498-3.393,31.501-7.422,43-3
				c7.692,2.958,16.845,10.726,22,16c6.804,6.959,15.555,17.381,19,27c1.438,4.016,1.021,9.421,3,14
				c4.654,10.767,15.826,19.875,18,35c2.445,17.011-0.838,32.584,2,54C244.615,195.718,244.722,196.945,246,197z M193,109
				c0.366-9.7-2.78-15.886-11-17C181.212,98.298,185.693,107.51,193,109z M178,97c-14.427-2.992-12.241,22.871,4,19
				C188.407,110.24,183.407,98.122,178,97z M71,216c-1.97-12.696-8.432-20.901-9-35c-1.278-0.055-1.385-1.282-3-1
				C61.184,193.816,62.387,208.613,71,216z"/>
		</g>
	</g>
</g>
<g>
	<g>
		<path fill="#1FE2FF" d="M94.596,158.62c7.295,0.676,13.577,3.863,19.851-1.734c3.375-3.011-1.593-7.944-4.95-4.949
			c-3.808,3.397-10.451,0.096-14.901-0.316C90.1,151.203,90.14,158.207,94.596,158.62L94.596,158.62z"/>
	</g>
</g>
<g>
	<g>
		<path fill="#1FE2FF" d="M90.702,160.625c7.709,3.362,16.475,6.425,23.391-0.193c3.267-3.126-1.69-8.068-4.95-4.949
			c-4.189,4.009-10.395,1.066-14.907-0.902C90.141,152.794,86.573,158.823,90.702,160.625L90.702,160.625z"/>
	</g>
</g>
<g>
	<g>
		<path fill="#1FE2FF" d="M93.578,163.276c-0.511,4.414-0.513,8.396,3.506,11.179c2.443,1.69,4.957-0.662,5.267-3.022
			c0.31-2.356,0.354-4.718,0.354-7.092c0.002-4.515-6.998-4.514-7,0c-0.001,2.374-0.045,4.735-0.354,7.092
			c1.755-1.008,3.511-2.015,5.267-3.022c-0.405-0.28-0.373-0.644-0.386-1.395c-0.021-1.247,0.203-2.504,0.346-3.739
			c0.22-1.899-1.758-3.5-3.5-3.5C95.004,159.776,93.797,161.382,93.578,163.276L93.578,163.276z"/>
	</g>
</g>
<g>
	<g>
		<path fill="#1FE2FF" d="M192.779,139.191c12.28,2.235,21.633-2.491,24.894-14.877c-0.982-0.133-1.964-0.266-2.946-0.399
			c-0.228,6.024-3.296,11.73-9.536,13.093c-1.426,0.311-1.447,2.596,0,2.893c3.37,0.69,6.172,0.312,8.905-1.804
			c1.528-1.183-0.611-3.29-2.121-2.121c-1.895,1.299-3.89,1.644-5.987,1.033c0,0.964,0,1.928,0,2.893
			c7.535-1.645,11.463-8.67,11.739-15.985c0.064-1.708-2.519-2.023-2.946-0.399c-2.821,10.716-10.551,14.721-21.204,12.782
			C191.686,135.954,190.878,138.845,192.779,139.191L192.779,139.191z"/>
	</g>
</g>
<g>
	<g>
		<path fill="#CCFDFF" d="M99.178,163.942c-0.335,2.15-0.483,4.33,0,6.471c0.337,1.492,2.492,1.375,2.893,0
			c0.407-1.395,0.407-2.859,0.408-4.3c0.001-1.935-2.999-1.935-3,0c-0.001,1.178,0.031,2.362-0.301,3.503c0.964,0,1.928,0,2.893,0
			c-0.357-1.582-0.248-3.286,0-4.877C102.365,162.848,99.475,162.035,99.178,163.942L99.178,163.942z"/>
	</g>
</g>
<g>
	<g>
		<path fill="#CCFDFF" d="M208.115,137.418c1.784-0.722,3.516-1.514,4.917-2.868c1.394-1.346-0.73-3.465-2.121-2.121
			c-1.009,0.975-2.306,1.575-3.593,2.097c-0.758,0.306-1.284,0.987-1.048,1.845C206.469,137.09,207.356,137.726,208.115,137.418
			L208.115,137.418z"/>
	</g>
</g>
</svg>
