<?xml version="1.0" encoding="utf-8"?>
<!-- Generator: Adobe Illustrator 15.0.0, SVG Export Plug-In . SVG Version: 6.00 Build 0)  -->
<!DOCTYPE svg PUBLIC "-//W3C//DTD SVG 1.1//EN" "http://www.w3.org/Graphics/SVG/1.1/DTD/svg11.dtd">
<svg version="1.1" id="Layer_1" xmlns="http://www.w3.org/2000/svg" xmlns:xlink="http://www.w3.org/1999/xlink" x="0px" y="0px"
	 width="300px" height="300px" viewBox="0 0 300 300" enable-background="new 0 0 300 300" xml:space="preserve">
<g id="YZiVOg.tif">
	<g id="XMLID_2_">
		<g>
			<path d="M198,189c0.01,18.67-9.52,27.81-14,42c-0.67,0-1.33,0-2,0c3.35-10.99,5.92-22.74,12-31c-1.52-24.15,0.82-52.16-12-65
				c1.75-9.92-3.57-17-9-26c-3.11-5.16-4.78-10.7-7-15c-2.07-4.01-3.99-3.94-4-8c-11.86-17.32-32.03-17.44-55-10
				c5.63,2.37,16.38-0.38,19,5c-8.62-1.32-23.26-3.68-32,0c-8.22,3.46-9.31,13.14-18,16c-2.36,11.98-13.15,15.52-18,25
				c-0.74,15.96-7.8,27.89-5,49c1.72,12.95,8.85,22.97,9,36c3.32,3.01,6.59,6.07,8,11c4.87,4.8,15.11,4.22,17,12
				c-10.3-4.37-19.29-10.04-25-19c0.93,7.74,3.43,13.9,6,20c-0.67,0-1.33,0-2,0c-3.43-5.9-6.45-12.22-6-22
				c-6.6-8.07-9.89-19.45-12-32c0-16.33,0-32.67,0-49c0.18,0.11,1.97-0.14,2,0c2.89,12.63-1.57,31.06,0,46c0.41,3.85,1.8,13.76,3,18
				c1.13,3.98,4.29,5.71,5,10c0.47-8.47-4.57-20.09-7-29c-0.08-16.08-1.28-33.28,5-43c-1.2-2.81-1.22,6.03-4,2
				c-0.16-8.82,6.33-11.01,4-22c3.8-0.8,1.27,4.73,2,7c3.99-2.45,4.75-7.87,8-12c3.15-4,9.03-7.38,13-12c1.67-1.94,2.51-5.22,4-7
				c5.98-7.12,10.39-6.84,20-10c8.37-2.75,16.71-5.24,27-8c4,0,8,0,12,0c2.16,2.84,6.64,3.36,12,3c0.47,2.13-1.43,1.9-3,2
				c7.34,5.13,11.66,11.12,18,19c3.35,4.17,6.88,6.08,9,11c2.97,6.9,1.06,15.91,8,21c-0.73,1.64-0.96,3.77-1.03,6.07
				c-0.18,0.8-0.17,1.64-0.01,2.44c0.01,1.16,0.03,2.33,0.04,3.49c0.3-0.1,0.52-0.27,0.68-0.5c0.38,0.8,0.98,1.5,1.79,1.97
				c3.05,3.3,3.19,9.52,5.53,13.53c0.92-5.37-1.81-8.72-2.29-12.04c0.57,0.23,1.23,0.37,1.96,0.37c0.05,0,0.1-0.01,0.14-0.01
				c5.351,12.07,1.101,33.11,2.19,47.68C195.23,188.44,197.98,187.35,198,189z M170,100c2.03,2.67,4.13,10.5,7,9
				C174.82,105.84,173.63,101.71,170,100z"/>
			<path fill="#FFFFFF" d="M190.71,138.96c0.48,3.32,3.21,6.67,2.29,12.04c-2.34-4.01-2.48-10.23-5.53-13.53
				c0.54,0.32,1.17,0.53,1.891,0.61C189.74,138.44,190.19,138.74,190.71,138.96z"/>
			<path fill="#FFFFFF" d="M182,135c12.82,12.84,10.48,40.85,12,65c-6.08,8.26-8.65,20.01-12,31c-38,0-76,0-114,0
				c-2.57-6.1-5.07-12.26-6-20c5.71,8.96,14.7,14.63,25,19c-1.89-7.78-12.13-7.2-17-12c-1.41-4.93-4.68-7.99-8-11
				c-0.15-13.03-7.28-23.05-9-36c-2.8-21.11,4.26-33.04,5-49c4.85-9.48,15.64-13.02,18-25c8.69-2.86,9.78-12.54,18-16
				c8.74-3.68,23.38-1.32,32,0c-2.62-5.38-13.37-2.63-19-5c22.97-7.44,43.14-7.32,55,10c0.01,4.06,1.93,3.99,4,8
				c2.22,4.3,3.89,9.84,7,15C178.43,118,183.75,125.08,182,135z M177,135c0.53-14.86-5.9-22.77-13-30c1.33,0,2.67,0,4,0
				c-2.41-7-5.66-8.84-10-15c-8.85,0.48-20.4-1.73-24,4c1.2,3.05,7.18-2.66,9,1c-0.36,11.25-16.84,13.38-14,31
				c5.15,1.81,3.64,6.94,8,11c2.53,2.36,11.15,6.24,17,7C167.87,145.8,172.55,140.95,177,135z M174,175c-1,0-2,0-3,0
				c-10.81,18.86-39.2,30.43-68,22c-3.58-2.75-6.89-5.77-12-7C111.97,213.75,165,199.12,174,175z M153,200c-0.11-1.22-0.3-2.37-2-2
				c-5.89,7.76-23.77,7.29-33,6c0.7,2.81,5.49,2.75,8,3C137.71,208.15,148.54,203.95,153,200z M138,176c2.92-8.75,0.41-20.29-7-22
				c1.72,6.61,7.86,8.8,6,19c-4.1,0.1-8.2,0.2-11-1c-0.09-5.24-1.66-9-1-15c-4.15,1.6-1.63,12.64-1,16
				C127.07,175.6,132.04,176.3,138,176z M108,141c1.67-3.38,6.81-11.82,0-14c0,2.93,1.41,5.38,0,10c-1.56,5.1-15.21,20.19-19,21
				c-9.47,2.03-13.49-2.2-16-8c-0.81-1.87-2.93-12.01-3-12.01c-0.14-15.34,16.98-24.72,30-14.99c2.76,2.91,1.05,10.28,8,9
				c-3.95-5.05-7.07-10.93-12-15c-15.42-2.27-28.28,5.99-28,21c0.1,5.32,4.91,9.43,3,16c3.9,5.1,10.87,7.13,21,6
				C97.51,154.56,104.31,148.44,108,141z M88,111c2.22-1.6,7.4-2.19,6-6c-9.66,0.1-21.71,6.22-28,13c3.82,3.92-1.39,3.44-2,8
				c3.77,1.82,8.02-2.73,11-5C79.49,117.58,84.71,113.37,88,111z M90,145c10.87,0.16,7.41-21.18-3-16
				C80.71,132.13,82.63,144.89,90,145z"/>
			<path d="M164,105c7.1,7.23,13.53,15.14,13,30c-4.45,5.95-9.13,10.8-23,9c-5.85-0.76-14.47-4.64-17-7c-4.36-4.06-2.85-9.19-8-11
				c-2.84-17.62,13.64-19.75,14-31c-1.82-3.66-7.8,2.05-9-1c3.6-5.73,15.15-3.52,24-4c4.34,6.16,7.59,8,10,15
				C166.67,105,165.33,105,164,105z M175,132c1.12-6.62-2.08-6.36-3-9c-0.49-1.4,0.68-3.69,0-5c-0.64-1.24-2.7-1.17-4-3
				c-0.98-1.38-0.91-4.66-2-6c-1.25-1.53-7.5-3.62-7-7c-4.71,1.25-8.24-2.79-12-2c-5.03,1.06-16.61,15.6-16,22
				c0.11,1.19,4.64,9.49,8,13C146.93,143.27,172.88,144.47,175,132z"/>
			<path fill="#FFFFFF" d="M177,109c-2.87,1.5-4.97-6.33-7-9C173.63,101.71,174.82,105.84,177,109z"/>
			<path fill="#FFFFFF" d="M172,123c0.92,2.64,4.12,2.38,3,9c-2.12,12.47-28.07,11.27-36,3c-3.36-3.51-7.89-11.81-8-13
				c-0.61-6.4,10.97-20.94,16-22c3.76-0.79,7.29,3.25,12,2c-0.5,3.38,5.75,5.47,7,7c1.09,1.34,1.02,4.62,2,6c1.3,1.83,3.36,1.76,4,3
				C172.68,119.31,171.51,121.6,172,123z M160,128c0.49-5.15-0.95-8.38-3-11C140.57,113.7,149.77,138.37,160,128z"/>
			<path d="M171,175c1,0,2,0,3,0c-9,24.12-62.03,38.75-83,15c5.11,1.23,8.42,4.25,12,7C131.8,205.43,160.19,193.86,171,175z"/>
			<path d="M157,117c2.05,2.62,3.49,5.85,3,11C149.77,138.37,140.57,113.7,157,117z"/>
			<path d="M151,198c1.7-0.37,1.89,0.78,2,2c-4.46,3.95-15.29,8.15-27,7c-2.51-0.25-7.3-0.19-8-3
				C127.23,205.29,145.11,205.76,151,198z"/>
			<path d="M131,154c7.41,1.71,9.92,13.25,7,22c-5.96,0.3-10.93-0.4-14-3c-0.63-3.36-3.15-14.4,1-16c-0.66,6,0.91,9.76,1,15
				c2.8,1.2,6.9,1.1,11,1C138.86,162.8,132.72,160.61,131,154z"/>
			<path fill="#FFFFFF" d="M48,68c27.33,0,54.67,0,82,0c-10.29,2.76-18.63,5.25-27,8c-9.61,3.16-14.02,2.88-20,10
				c-1.49,1.78-2.33,5.06-4,7c-3.97,4.62-9.85,8-13,12c-3.25,4.13-4.01,9.55-8,12c-0.73-2.27,1.8-7.8-2-7
				c2.33,10.99-4.16,13.18-4,22c2.78,4.03,2.8-4.81,4-2c-6.28,9.72-5.08,26.92-5,43c2.43,8.91,7.47,20.53,7,29
				c-0.71-4.29-3.87-6.02-5-10c-1.2-4.24-2.59-14.15-3-18c-1.57-14.94,2.89-33.37,0-46c-0.03-0.14-1.82,0.11-2,0C48,108,48,88,48,68
				z"/>
			<path d="M108,127c6.81,2.18,1.67,10.62,0,14c-3.69,7.44-10.49,13.56-16,19c-10.13,1.13-17.1-0.9-21-6c1.91-6.57-2.9-10.68-3-16
				c-0.28-15.01,12.58-23.27,28-21c4.93,4.07,8.05,9.95,12,15c-6.95,1.28-5.24-6.09-8-9c-13.02-9.73-30.14-0.35-30,14.99
				c0.07,0,2.19,10.14,3,12.01c2.51,5.8,6.53,10.03,16,8c3.79-0.81,17.44-15.9,19-21C109.41,132.38,108,129.93,108,127z"/>
			<path d="M94,105c1.4,3.81-3.78,4.4-6,6c-3.29,2.37-8.51,6.58-13,10c-2.98,2.27-7.23,6.82-11,5c0.61-4.56,5.82-4.08,2-8
				C72.29,111.22,84.34,105.1,94,105z"/>
			<path d="M87,129c10.41-5.18,13.87,16.16,3,16C82.63,144.89,80.71,132.13,87,129z"/>
			<path fill="#FFFFFF" d="M66,231c-6,0-12,0-18,0c0-18,0-36,0-54c2.11,12.55,5.4,23.93,12,32C59.55,218.78,62.57,225.1,66,231z"/>
		</g>
		<g>
		</g>
	</g>
</g>
<text transform="matrix(1.1055 -0.129 0.1159 0.9933 172.457 78.6953)"><tspan x="0" y="0" fill="#BF0000" font-family="'Verdana-Bold'" font-size="12">EVERYTHING</tspan><tspan x="0.001" y="14.4" fill="#BF0000" font-family="'Verdana-Bold'" font-size="12"> WENT</tspan><tspan x="0" y="28.799" fill="#BF0000" font-family="'Verdana-Bold'" font-size="12">  BETTER</tspan><tspan x="0.001" y="43.2" fill="#BF0000" font-family="'Verdana-Bold'" font-size="12">  THAN</tspan><tspan x="0" y="57.599" fill="#BF0000" font-family="'Verdana-Bold'" font-size="12">  EXPECTED</tspan></text>
</svg>
