<?xml version="1.0" encoding="utf-8"?>
<!-- Generator: Adobe Illustrator 15.0.0, SVG Export Plug-In . SVG Version: 6.00 Build 0)  -->
<!DOCTYPE svg PUBLIC "-//W3C//DTD SVG 1.1//EN" "http://www.w3.org/Graphics/SVG/1.1/DTD/svg11.dtd">
<svg version="1.1" id="Layer_1" xmlns="http://www.w3.org/2000/svg" xmlns:xlink="http://www.w3.org/1999/xlink" x="0px" y="0px"
	 width="800px" height="600px" viewBox="0 0 800 600" enable-background="new 0 0 800 600" xml:space="preserve">
<g id="FpKfqo.tif">
	<g id="XMLID_2_">
		<g>
			<path fill="#FFFFFF" d="M483,187c0,33.33,0,66.67,0,100c-23.33,0-46.67,0-70,0c7.27-2.39,15.58-3.76,20-9
				c0.46,2.52,1.48,4.39,6,5c-2.87-2.32-1.26-9.08,3-12c2.58,0.09,1.05,4.28,5,3c-0.14,3.53-2.86,4.47-3,8
				c5.39-7.61,13.9-12.1,24-15c-2.39-2.73-5.44-2.58-8-3c-3.19-4.3-1.62-11.17,0-16c1.97-0.3,1.98,1.35,3,2
				c8.59-10.87,9.25-31.73,6-49C476.95,199.62,475.3,188.64,483,187z"/>
			<path d="M477.85,183.93c-1.72-0.95,3.131-2.91,3.15-4.93c1.4,3.67-3.79,7.72,2,7c0,0.33,0,0.67,0,1c-7.7,1.64-6.05,12.62-14,14
				c3.25,17.27,2.59,38.13-6,49c-1.02-0.65-1.03-2.3-3-2c-1.62,4.83-3.19,11.7,0,16c2.56,0.42,5.61,0.27,8,3
				c-10.1,2.9-18.61,7.39-24,15c0.14-3.53,2.86-4.47,3-8c-3.95,1.28-2.42-2.91-5-3c-4.26,2.92-5.87,9.68-3,12
				c-4.52-0.61-5.54-2.48-6-5c-4.42,5.24-12.73,6.61-20,9c-5.67,0-11.33,0-17,0c-16.38-5.12-32.58-6.96-38-15
				c-1.47,5.53-3.79,10.21-9,12c3.78-6.11,1.81-8.91,1-17c-17.85-1.36-30.32-6.63-33-24c0-3.33,0-6.67,0-10c3.03-2.83,2.06-5.79,3-9
				c-1,0-2,0-3,0c0-0.33,0-0.67,0-1c0.97-3.61,8.95-11.1,10-18c1.25-8.24-3.94-17.77-3-27c1.28-12.59,15.57-18.87,18-28
				c-1.77-0.23-5.01,1.01-4-2c7.34-7.99,17.87-12.8,27-19c-0.81-0.86-2.74-0.59-3-2c10-1.55,21.63,0.03,27,6
				c18.27-11.03,34.21,8.86,47,16c1.32-2.68,2.15-5.85,7-5C443.57,167.69,463.7,177.09,477.85,183.93z M469,199
				c3.38-3.29,5.8-7.54,8-12c-13.98-4.69-20.56-16.78-32-24c-0.17,1.5,0.36,3.69-1,4c-4.36-0.64-8.33-1.67-12-3
				c1.76,3.75,4.16,15.04,11,17c0.3,1.97-1.35,1.98-2,3c6.09,9.15,0.46,31.23,16,35c-2.7,2.03-3.88-0.04-7,0
				c-0.84,21.18,5.45,35.58-7,47c3.29,8.78,11.13,5.27,16,1c-7.47-7.22-0.6-18.51,1-28c4.19-1.19,1.79,4.21,4,5
				c6.44-12.13,6.37-34.69,0-47C465.9,197.43,466.51,199.15,469,199z M450,249c-3.86-7.14-1.22-20.78-2-31
				c-6.32-5.01-2.76-19.91-9-25c-5.48,3.84-4.03,9.94-11,12c-11.95,3.54-29.87-5.4-31-16c-0.81-7.6,4.78-10.14,8-17
				c-17.27,0.48-29.81-5.88-43-12c-9.99,9.67-16.94,22.39-23,36c2.62,1.93,7.95,8.38,10,2c0.71,6.96,2.33,13,5,18
				c2.8,1.2,6.9,1.1,11,1c0.27-4.15-1.31-3.9,0-7c2.71-1.29,5.55-2.45,10-2c1.38-4.14,11.01-13.8,2-16c-1.32,2.51,4.66,2.43,1,4
				c-4.3-13.56-25.63-13.46-29,1c-3.06,0.01-6.87-4.39-4-7c2.21,0.79,1.3,4.7,4,5c0.83-3.59-2.25-4.84,0-7c5.95,2,9.56-4.96,16-5
				c7.77-0.04,12.28,6.09,17,11c0.3,18.91-30.87,38.72-33,10c-5.21-0.79-8.41-3.59-11-7c-7.33,27.84,1.36,59.79,21,70
				c12.22,21.43,65.71,24.71,81,4C441.22,261.55,446.04,255.71,450,249z M437,192c0.01-1.99,2.73-1.27,2-4c-0.43-1.9-2.15-2.51-2-5
				c-1.86,0.14-3.34,0.66-4,2c1.65,0.02,0.56,2.77,2,3c0.02-1.31,2.77-1.27,3,0C438.15,189.33,433.93,191.02,437,192z M436,181
				c-0.91-6.42-4.37-10.3-8-14c-0.68,2.66-1.57,5.09-3,7c-3.48-5.85-8.52-10.15-12-16c4,0.66,7.23,2.1,11,3
				c-10.67-19.58-45.14-16.69-59-2c16.12,7.38,36.27,11.16,53,13c0.16,2.83-6.16-0.83-6,2C418.52,177.67,427.34,182.6,436,181z
				 M431,157c5.63-6.99-1.3-9.43-8-14c-8.03-5.48-20.89-14.2-29-11c-2.91,1.77,2.83,5.61,1,6c-6-1-9.61-4.39-13-8
				c-18.27-2.69-27.92,10.33-38,19c1.22,0.11,2.37,0.3,2,2c-4.51,7.18-19.27,16.75-20,31c-0.56,10.91,3.97,16.2,3,24
				c-0.51,4.1-3.87,7.04-5,12c-0.54,2.35,0.91,5.23,0,8c-1.2,3.65-4.66,6.09-5,10c-0.63,7.21,3.25,12.15,6,17
				c-0.13-1.8,0.99-2.34,3-2c-2.31,9.29,12.51,14.59,21,13c-3.8-2.08-2.87-13.09-8-8c-3.37-13.42-11.37-36.36-7-56
				c0.74-3.34,4.08-5.21,3-9c2.73,0.73,2.01-1.99,4-2c1.74-14.51,13.03-24.76,23-34c11.14-5.73,22.32-12.6,37-11
				C413.35,145.35,420.14,155.84,431,157z M417,204c15.76,3.72,20.61-10.07,14-20c-10.03-1.63-16.85-6.48-25-10
				c-3.25,4.42-7.35,7.98-8,15c3.43,3.57,5.15,8.85,10,11c-0.14-3.14,2.56-3.44,5-4C415.19,197.81,417.64,199.36,417,204z M415,203
				c0.58-5.02-5.31-4.76-6-1C412.06,201.27,411.94,203.73,415,203z M372,210c-2.87,0.46-5.51,1.16-6,4
				C367.75,215.46,371.7,213.05,372,210z M355,276c0.27-3.29,2.51-7.53-2-8C354.46,269.87,353.04,274.63,355,276z"/>
			<path fill="#FFFFFF" d="M483,125c0,20.33,0,40.67,0,61c-5.79,0.72-0.6-3.33-2-7c-0.02,2.02-4.87,3.98-3.15,4.93
				C463.7,177.09,443.57,167.69,443,144c-4.85-0.85-5.68,2.32-7,5c-12.79-7.14-28.73-27.03-47-16c-5.37-5.97-17-7.55-27-6
				c0.26,1.41,2.19,1.14,3,2c-9.13,6.2-19.66,11.01-27,19c-1.01,3.01,2.23,1.77,4,2c-2.43,9.13-16.72,15.41-18,28
				c-0.94,9.23,4.25,18.76,3,27c-1.05,6.9-9.03,14.39-10,18c0-32.67,0-65.33,0-98C372.33,125,427.67,125,483,125z"/>
			<path fill="#BF7B00" d="M477,187c-2.2,4.46-4.62,8.71-8,12c-2.49,0.15-3.1-1.57-5-2c6.37,12.31,6.44,34.87,0,47
				c-2.21-0.79,0.19-6.19-4-5c-1.6,9.49-8.47,20.78-1,28c-4.87,4.27-12.71,7.78-16-1c12.45-11.42,6.16-25.82,7-47
				c3.12-0.04,4.3,2.03,7,0c-15.54-3.77-9.91-25.85-16-35c0.65-1.02,2.3-1.03,2-3c-6.84-1.96-9.24-13.25-11-17
				c3.67,1.33,7.64,2.36,12,3c1.36-0.31,0.83-2.5,1-4C456.44,170.22,463.02,182.31,477,187z"/>
			<path fill="#FFFFFF" d="M448,218c0.78,10.22-1.86,23.86,2,31c-3.96,6.71-8.78,12.55-10,22c-15.29,20.71-68.78,17.43-81-4
				c-19.64-10.21-28.33-42.16-21-70c2.59,3.41,5.79,6.21,11,7c2.13,28.72,33.3,8.91,33-10c-4.72-4.91-9.23-11.04-17-11
				c-6.44,0.04-10.05,7-16,5c-2.25,2.16,0.83,3.41,0,7c-2.7-0.3-1.79-4.21-4-5c-2.87,2.61,0.94,7.01,4,7c3.37-14.46,24.7-14.56,29-1
				c3.66-1.57-2.32-1.49-1-4c9.01,2.2-0.62,11.86-2,16c-4.45-0.45-7.29,0.71-10,2c-1.31,3.1,0.27,2.85,0,7c-4.1,0.1-8.2,0.2-11-1
				c-2.67-5-4.29-11.04-5-18c-2.05,6.38-7.38-0.07-10-2c6.06-13.61,13.01-26.33,23-36c13.19,6.12,25.73,12.48,43,12
				c-3.22,6.86-8.81,9.4-8,17c1.13,10.6,19.05,19.54,31,16c6.97-2.06,5.52-8.16,11-12C445.24,198.09,441.68,212.99,448,218z
				 M400,252c6.12-6.56,20.18-10.48,21-19c-10.87,10.89-25.27,22.63-49,15c-4.45-3.66-3.9-8.81-6-13
				C362.08,251.98,382.93,252.69,400,252z"/>
			<path fill="#FFFFFF" d="M439,188c0.73,2.73-1.99,2.01-2,4c-3.07-0.98,1.15-2.67,1-4c-0.23-1.27-2.98-1.31-3,0
				c-1.44-0.23-0.35-2.98-2-3c0.66-1.34,2.14-1.86,4-2C436.85,185.49,438.57,186.1,439,188z"/>
			<path fill="#BF7B00" d="M428,167c3.63,3.7,7.09,7.58,8,14c-8.66,1.6-17.48-3.33-24-7c-0.16-2.83,6.16,0.83,6-2
				c-16.73-1.84-36.88-5.62-53-13c13.86-14.69,48.33-17.58,59,2c-3.77-0.9-7-2.34-11-3c3.48,5.85,8.52,10.15,12,16
				C426.43,172.09,427.32,169.66,428,167z"/>
			<path fill="#BF7B00" d="M423,143c6.7,4.57,13.63,7.01,8,14c-10.86-1.16-17.65-11.65-30-13c-14.68-1.6-25.86,5.27-37,11
				c-9.97,9.24-21.26,19.49-23,34c-1.99,0.01-1.27,2.73-4,2c1.08,3.79-2.26,5.66-3,9c-4.37,19.64,3.63,42.58,7,56
				c5.13-5.09,4.2,5.92,8,8c-8.49,1.59-23.31-3.71-21-13c-2.01-0.34-3.13,0.2-3,2c-2.75-4.85-6.63-9.79-6-17
				c0.34-3.91,3.8-6.35,5-10c0.91-2.77-0.54-5.65,0-8c1.13-4.96,4.49-7.9,5-12c0.97-7.8-3.56-13.09-3-24
				c0.73-14.25,15.49-23.82,20-31c0.37-1.7-0.78-1.89-2-2c10.08-8.67,19.73-21.69,38-19c3.39,3.61,7,7,13,8c1.83-0.39-3.91-4.23-1-6
				C402.11,128.8,414.97,137.52,423,143z"/>
			<path fill="#FFFFFF" d="M431,184c6.61,9.93,1.76,23.72-14,20c0.64-4.64-1.81-6.19-4-8c-2.44,0.56-5.14,0.86-5,4
				c-4.85-2.15-6.57-7.43-10-11c0.65-7.02,4.75-10.58,8-15C414.15,177.52,420.97,182.37,431,184z"/>
			<path fill="#FFFFFF" d="M409,202c0.69-3.76,6.58-4.02,6,1C411.94,203.73,412.06,201.27,409,202z"/>
			<path d="M421,233c-0.82,8.52-14.88,12.44-21,19c-17.07,0.69-37.92-0.02-34-17c2.1,4.19,1.55,9.34,6,13
				C395.73,255.63,410.13,243.89,421,233z"/>
			<path fill="#FFFFFF" d="M396,287c-26.33,0-52.67,0-79,0c0-14.67,0-29.33,0-44c2.68,17.37,15.15,22.64,33,24
				c0.81,8.09,2.78,10.89-1,17c5.21-1.79,7.53-6.47,9-12C363.42,280.04,379.62,281.88,396,287z"/>
			<path fill="#FFFFFF" d="M366,214c0.49-2.84,3.13-3.54,6-4C371.7,213.05,367.75,215.46,366,214z"/>
			<path fill="#FFFFFF" d="M353,268c4.51,0.47,2.27,4.71,2,8C353.04,274.63,354.46,269.87,353,268z"/>
			<path fill="#FFFFFF" d="M317,224c1,0,2,0,3,0c-0.94,3.21,0.03,6.17-3,9C317,230,317,227,317,224z"/>
		</g>
		<g>
		</g>
	</g>
</g>
</svg>
