<?xml version="1.0" encoding="utf-8"?>
<!-- Generator: Adobe Illustrator 15.0.0, SVG Export Plug-In . SVG Version: 6.00 Build 0)  -->
<!DOCTYPE svg PUBLIC "-//W3C//DTD SVG 1.1//EN" "http://www.w3.org/Graphics/SVG/1.1/DTD/svg11.dtd">
<svg version="1.1" id="Layer_1" xmlns="http://www.w3.org/2000/svg" xmlns:xlink="http://www.w3.org/1999/xlink" x="0px" y="0px"
	 width="300px" height="300px" viewBox="0 0 300 300" enable-background="new 0 0 300 300" xml:space="preserve">
<g id="_x30_k6JND.tif">
	<g>
		<g>
			<path fill-rule="evenodd" clip-rule="evenodd" fill="#FFFFFF" d="M244,199c-1.278-0.055-1.385-1.282-3-1
				c-4.615-21.682,1.344-38.144-3-56c-3.226-13.261-14.059-21.686-18-33c-1.152-3.308-0.131-6.95-1-10
				c-2.233-7.839-9.216-11.286-12-19c1.891-0.224,2.206,1.127,4,1c1.184-3.547-7.147-6.164-11-8c0.754-2.58,7.396,0.73,7-3
				c-2.669-3.664-8.481-4.185-15-4c-11.738-20.38-61.339-8.153-79,0c-8.08,3.73-11.39,13.133-18,19
				c-9.415,8.357-20.802,11.612-26,20c2.762,12.762-5.971,14.029-5,25c3.008,1.008,1.772-2.228,2-4c3.622,1.967-2.226,10.854-3,15
				c-4.474-4.066-0.46-10.941-3-16c-2.547,33.269-5.034,77.018,13,97c-0.048,11.382,4.031,18.636,7,27c-7.667,0-15.333,0-23,0
				c0-65.667,0-131.333,0-197c62.333,0,124.667,0,187,0C244,101,244,150,244,199z"/>
			<path fill-rule="evenodd" clip-rule="evenodd" fill="#FFFFFF" d="M187,66c-17.509,5.921-35.961-2.701-57-2
				C143.241,58.031,178.536,50.146,187,66z"/>
			<path fill-rule="evenodd" clip-rule="evenodd" fill="#FFFFFF" d="M191,69C181.435,71.95,177.652,67.843,191,69L191,69z"/>
			<path fill-rule="evenodd" clip-rule="evenodd" d="M184,88c-0.547,3.416-5.405,4.075-8,6c-5.558,4.124-16.589,12.671-16,23
				c0.323,5.662,8.411,15.779,13,19c11.219,7.875,37.591,8.612,41-4c2.352-8.699-4.215-23.068-8-24c-0.773-0.19-14.165,8.797-19,1
				c0.448-4.218-1.526-10.86,3-11c0,3.333,0,6.667,0,10c5.782,2.555,11.403,2.097,15-2c-6.384-5.95-10.045-14.622-18-19
				c-4.689-0.98-10.06,2.549-12,1c11.196-9.496,20.02,3.24,26,10c7.677,8.677,28.142,36.314,6,45c-19.474,7.639-43.669-8.057-49-22
				C158.874,102.208,169.584,93.251,184,88z"/>
			<path fill-rule="evenodd" clip-rule="evenodd" fill="#FFFFFF" d="M78,103c-0.52,2.48-2.438,3.562-4,5
				C71.308,106.201,74.652,102.064,78,103z"/>
			<path fill-rule="evenodd" clip-rule="evenodd" d="M135,126c-0.882,22.669-28.079,52.871-49,29c-0.205-14.204-5.221-22.728,1-34
				C98.491,107.062,127.421,111.573,135,126z M124,121c-8.412-11.573-32.643-7.084-36,6c4.568,1.016,6.356,0.173,10,1
				c4.575,7.01-1.089,13.684-10,13c-1.915,11.999,5.104,23.5,22,20c7.469-4.138,11.426-10.904,17-19c3.474-5.046,12.028-15.592,1-18
				c-3.183,1.035,5.183,3.965,2,5C124.154,130.179,125.655,124.012,124,121z M85,139c5.953-0.38,11.797-0.87,12-7
				c-1.493-2.841-5.886-2.781-10-3C86.542,132.542,84.775,134.775,85,139z"/>
			<path fill-rule="evenodd" clip-rule="evenodd" fill="#FFFFFF" d="M130,129c3.183-1.035-5.183-3.965-2-5
				c11.028,2.408,2.474,12.954-1,18c-5.574,8.096-9.531,14.862-17,19c-16.896,3.5-23.915-8.001-22-20c8.911,0.684,14.575-5.99,10-13
				c-3.644-0.827-5.432,0.016-10-1c3.357-13.084,27.588-17.573,36-6C125.655,124.012,124.154,130.179,130,129z"/>
			<path fill-rule="evenodd" clip-rule="evenodd" fill="#FFFFFF" d="M87,129c4.114,0.219,8.507,0.159,10,3
				c-0.203,6.13-6.047,6.62-12,7C84.775,134.775,86.542,132.542,87,129z"/>
			<path fill-rule="evenodd" clip-rule="evenodd" fill="#FFFFFF" d="M202,157c-3.645,3.022-6.781,6.553-11,9
				c-4.554-1.779-6.621-6.045-11-8c-1.952,13.748-19.783,26.405-25,7c7.321-4.345,17.234-6.099,23-12
				C184.348,155.986,195.507,154.16,202,157z"/>
			<path fill-rule="evenodd" clip-rule="evenodd" fill="#FFFFFF" d="M121,235c-14.071-7.073-23.917-23.22-20-45
				c4.465-2.535,9.417-4.583,17-4c0.67,6.671-1.937,10.063-2,16c-7.704,0.704-8.534-5.467-14-7c2.751,5.582,6.26,10.406,16,9
				c2.375-0.625-0.155-6.155,2-7c6.308,4.358,8.441,12.893,16,16c7.603-0.73,11.632-5.034,14-11c14.785,7.566,19.202-7.487,23-17
				c-8.174,1.826-5.391,14.609-13,17c-3.699-0.634-5.953-2.713-11-2c-2.672,4.662-6.338,8.328-11,11c-5.039-2.628-9.153-6.181-11-12
				c5.941-0.726,6.449-6.885,8-12c3.524,5.576,11.619,3.886,17,1c1.047-5.286,2.53-10.137,3-16c3.517,1.15,3.662,5.671,7,7
				c11.761,0.094,15.535-7.798,18-17c5.781-0.447,4.985,5.681,10,6c8.141-0.554,10.32-11.18,18-9c-4.735,13.633-13.202,32.105-14,53
				c-4.926,2.074-12.798,1.202-12,9c-2.594-1.073-4.904-2.43-9-2c-3.775,1.225-2.958,7.042-3,12c-3.858-0.142-4.621-3.379-9-3
				c-2.27,1.063-0.381,6.286-1,9c-3.25-0.75-6.189-1.811-9-3c-2.78,0.554-2.8,3.866-4,6c4.093-4.146,14.079-3.156,13,6
				c-18.089-1.911-26.379-13.621-43-17C117.311,231.423,123.154,233.423,121,235z"/>
			<path fill-rule="evenodd" clip-rule="evenodd" fill="#FFFFFF" d="M153,168c-1.07,8.93-1.736,18.264-9,21
				c-5.485,0.818-4.257-5.076-8-6c-5.63,3.703-3.615,15.052-13,15c-0.447-4.22-3.941-5.392-3-11
				C133.79,183.456,140.129,172.462,153,168z"/>
			<path fill-rule="evenodd" clip-rule="evenodd" fill="#FFFFFF" d="M244,205c0,14.667,0,29.333,0,44c-6.333,0-12.667,0-19,0
				c5.826-14.84,14.222-27.111,18-44C243.333,205,243.667,205,244,205z"/>
			<path fill-rule="evenodd" clip-rule="evenodd" fill="#FFFFFF" d="M194,214c0.207,6.873-2.557,10.776-4,16
				c-2.632-1.034-3.368-3.966-6-5c0.847-2.931,3.22,0.598,5,0c-1.286-1.714-2.067-3.933-5-4
				C185.138,216.471,189.044,214.711,194,214z"/>
			<path fill-rule="evenodd" clip-rule="evenodd" fill="#FFFFFF" d="M174,221c11.207-0.643,16.805,17.391,5,20
				C175.048,236.475,169.458,228.03,174,221z"/>
			<path fill-rule="evenodd" clip-rule="evenodd" fill="#FFFFFF" d="M162,231c7.983,1.017,12.668,5.332,14,13
				c-3.788,2.267-9.478,3.146-14,2C162,241,162,236,162,231z"/>
			<path fill-rule="evenodd" clip-rule="evenodd" fill="#FFFFFF" d="M223,249c-17,0-34,0-51,0c32.179-10.488,21.448-63.886,39-89
				c-6.58-6.796-23.402-10.443-33-9c-3.5,0.526-4.916,3.346-8,5c-14.962,8.026-35.88,18.187-46,28c-9.668-0.002-20.257-0.924-25,4
				c-4.798,24.535,6.611,40.43,20,50c16.289-6.115,24.22,10.273,40,11c-25.333,0-50.667,0-76,0c-3.389-6.61-7.016-12.984-7-23
				c7.785,9.549,18.073,16.594,31,21c-11.211-9.587-23.594-11.585-31-27c-2.421-5.039-2.708-13.686-5-21
				c-2.518-8.032-6.307-15.443-7-21c-3.137-25.148,4.275-51.386,12-69c2.931,0.847-0.598,3.22,0,5c12.966-7.339,20.798-22.969,35-26
				c-2.696-2.304-9.645-0.355-14-1c7.585-14.104,18.556-21.325,38-21c10.941,0.183,22.352,4.778,34,3
				c-2.958,5.709-15.459,1.874-23,3c0.515,3.485,6.533,1.466,10,2c0.281,0.839-2.599,2.2-2,3c2.574,3.439,35.2-2.043,42,3
				c3.834,0.182,0.362-0.818,1-3c8.272,7.728,16.195,15.805,20,28c-4.956-1.043-2.478-9.522-8-10c2.555,8.552,8.994,16.39,13,27
				c3.789,10.035,6.781,21.412,13,29c0.39-8.723-5.783-10.883-6-19c7.086,2.581,6.854,12.48,8,21c-1.794,0.127-2.109-1.225-4-1
				c5.119,12.401,1.461,24.746,3,40c0.615,6.1,3.665,10.857,3,16c-0.667,5.155-6.47,11.298-9,18
				C226.694,234.756,226.309,242.496,223,249z M158,121c5.331,13.943,29.526,29.639,49,22c22.142-8.686,1.677-36.323-6-45
				c-5.98-6.76-14.804-19.496-26-10c1.94,1.549,7.311-1.98,12-1c7.955,4.378,11.616,13.05,18,19c-3.597,4.097-9.218,4.555-15,2
				c0-3.333,0-6.667,0-10c-4.526,0.14-2.552,6.782-3,11c4.835,7.797,18.227-1.19,19-1c3.785,0.932,10.352,15.301,8,24
				c-3.409,12.612-29.781,11.875-41,4c-4.589-3.221-12.677-13.338-13-19c-0.589-10.329,10.442-18.876,16-23
				c2.595-1.925,7.453-2.584,8-6C169.584,93.251,158.874,102.208,158,121z M87,121c-6.221,11.272-1.205,19.796-1,34
				c20.921,23.871,48.118-6.331,49-29C127.421,111.573,98.491,107.062,87,121z"/>
			<path fill-rule="evenodd" clip-rule="evenodd" d="M172,249c-4.333,0-8.667,0-13,0c-15.78-0.727-23.711-17.115-40-11
				c-13.389-9.57-24.798-25.465-20-50c4.743-4.924,15.332-4.002,25-4c10.12-9.813,31.038-19.974,46-28c3.084-1.654,4.5-4.474,8-5
				c9.598-1.443,26.42,2.204,33,9C193.448,185.114,204.179,238.512,172,249z M117,229c16.621,3.379,24.911,15.089,43,17
				c1.079-9.156-8.907-10.146-13-6c1.2-2.134,1.22-5.446,4-6c2.811,1.189,5.75,2.25,9,3c0.619-2.714-1.27-7.937,1-9
				c4.379-0.379,5.142,2.858,9,3c0.042-4.958-0.775-10.775,3-12c4.096-0.43,6.406,0.927,9,2c-0.798-7.798,7.074-6.926,12-9
				c0.798-20.895,9.265-39.367,14-53c-7.68-2.18-9.859,8.446-18,9c-5.015-0.319-4.219-6.447-10-6c-2.465,9.202-6.239,17.094-18,17
				c-3.338-1.329-3.483-5.85-7-7c-0.47,5.863-1.953,10.714-3,16c-5.381,2.886-13.476,4.576-17-1c-1.551,5.115-2.059,11.274-8,12
				c1.847,5.819,5.961,9.372,11,12c4.662-2.672,8.328-6.338,11-11c5.047-0.713,7.301,1.366,11,2c7.609-2.391,4.826-15.174,13-17
				c-3.798,9.513-8.215,24.566-23,17c-2.368,5.966-6.397,10.27-14,11c-7.559-3.107-9.692-11.642-16-16c-2.155,0.845,0.375,6.375-2,7
				c-9.74,1.406-13.249-3.418-16-9c5.466,1.533,6.296,7.704,14,7c0.063-5.937,2.67-9.329,2-16c-7.583-0.583-12.535,1.465-17,4
				c-3.917,21.78,5.929,37.927,20,45C123.154,233.423,117.311,231.423,117,229z M178,153c-5.766,5.901-15.679,7.655-23,12
				c5.217,19.405,23.048,6.748,25-7c4.379,1.955,6.446,6.221,11,8c4.219-2.447,7.355-5.978,11-9
				C195.507,154.16,184.348,155.986,178,153z M120,187c-0.941,5.608,2.553,6.78,3,11c9.385,0.052,7.37-11.297,13-15
				c3.743,0.924,2.515,6.818,8,6c7.264-2.736,7.93-12.07,9-21C140.129,172.462,133.79,183.456,120,187z M184,221
				c2.933,0.067,3.714,2.286,5,4c-1.78,0.598-4.153-2.931-5,0c2.632,1.034,3.368,3.966,6,5c1.443-5.224,4.207-9.127,4-16
				C189.044,214.711,185.138,216.471,184,221z M179,241c11.805-2.609,6.207-20.643-5-20C169.458,228.03,175.048,236.475,179,241z
				 M162,246c4.522,1.146,10.212,0.267,14-2c-1.332-7.668-6.017-11.983-14-13C162,236,162,241,162,246z"/>
			<path fill-rule="evenodd" clip-rule="evenodd" fill="#FFFFFF" d="M62,181c4.903,10.097,6.512,23.487,11,34
				C65.518,212.006,61.426,192.099,62,181z"/>
			<path fill-rule="evenodd" clip-rule="evenodd" d="M244,199c0,2,0,4,0,6c-0.333,0-0.667,0-1,0c-3.778,16.889-12.174,29.16-18,44
				c-0.667,0-1.333,0-2,0c3.309-6.504,3.694-14.244,7-23c2.53-6.702,8.333-12.845,9-18c0.665-5.143-2.385-9.9-3-16
				c-1.539-15.254,2.119-27.599-3-40c1.891-0.225,2.206,1.127,4,1c-1.146-8.52-0.914-18.419-8-21c0.217,8.117,6.39,10.277,6,19
				c-6.219-7.588-9.211-18.965-13-29c-4.006-10.61-10.445-18.448-13-27c5.522,0.478,3.044,8.957,8,10
				c-3.805-12.195-11.728-20.272-20-28c-0.638,2.182,2.834,3.182-1,3c-6.8-5.043-39.426,0.439-42-3c-0.599-0.8,2.281-2.161,2-3
				c-3.467-0.534-9.485,1.485-10-2c7.541-1.126,20.042,2.709,23-3c-11.648,1.778-23.059-2.817-34-3
				c-19.444-0.325-30.415,6.896-38,21c4.355,0.645,11.304-1.304,14,1c-14.202,3.031-22.034,18.661-35,26
				c-0.598-1.78,2.931-4.153,0-5c-7.725,17.614-15.137,43.852-12,69c0.693,5.557,4.482,12.968,7,21c2.292,7.314,2.579,15.961,5,21
				c7.406,15.415,19.789,17.413,31,27c-12.927-4.406-23.215-11.451-31-21c-0.016,10.016,3.611,16.39,7,23c-1,0-2,0-3,0
				c-2.969-8.364-7.048-15.618-7-27c-18.034-19.982-15.547-63.731-13-97c2.54,5.059-1.474,11.934,3,16
				c0.774-4.146,6.622-13.033,3-15c-0.228,1.772,1.008,5.008-2,4c-0.971-10.971,7.762-12.238,5-25c5.198-8.388,16.585-11.643,26-20
				c6.61-5.867,9.92-15.27,18-19c17.661-8.153,67.262-20.38,79,0c6.519-0.185,12.331,0.336,15,4c0.396,3.73-6.246,0.42-7,3
				c3.853,1.836,12.184,4.453,11,8c-1.794,0.127-2.109-1.224-4-1c2.784,7.714,9.767,11.161,12,19c0.869,3.05-0.152,6.692,1,10
				c3.941,11.314,14.774,19.739,18,33c4.344,17.856-1.615,34.318,3,56C242.615,197.718,242.722,198.945,244,199z M130,64
				c21.039-0.701,39.491,7.921,57,2C178.536,50.146,143.241,58.031,130,64z M191,69C177.652,67.843,181.435,71.95,191,69L191,69z
				 M74,108c1.562-1.438,3.48-2.52,4-5C74.652,102.064,71.308,106.201,74,108z M73,215c-4.488-10.513-6.097-23.903-11-34
				C61.426,192.099,65.518,212.006,73,215z"/>
		</g>
	</g>
</g>
</svg>
