<?xml version="1.0" encoding="utf-8"?>
<!-- Generator: Adobe Illustrator 15.0.0, SVG Export Plug-In . SVG Version: 6.00 Build 0)  -->
<!DOCTYPE svg PUBLIC "-//W3C//DTD SVG 1.1//EN" "http://www.w3.org/Graphics/SVG/1.1/DTD/svg11.dtd">
<svg version="1.1" id="Layer_1" xmlns="http://www.w3.org/2000/svg" xmlns:xlink="http://www.w3.org/1999/xlink" x="0px" y="0px"
	 width="300px" height="300px" viewBox="0 0 300 300" enable-background="new 0 0 300 300" xml:space="preserve">
<g id="ixl16S.tif">
	<g id="XMLID_2_">
		<g>
			<path fill="#FFFFFF" d="M246,50c0,66.67,0,133.33,0,200c-6,0-12,0-18,0c4.97-17.69,16.83-28.5,17-51c-4.74,0.26-2.44,7.56-3,12
				c-9.03,9.63-12.03,25.31-17,39c-40.33,0-80.67,0-121,0c-3.07-8.62-14.01-7.76-20-13c-5.78-5.06-8.4-12.81-12-20
				c-1.46-1.43-3.87-1.47-3,2c-15.99-21.44-10.16-58.54-12-94c-4.79,34.15-3.81,81.01,13,100c-0.57,10.9,3.71,16.96,6,25
				c-7.33,0-14.67,0-22,0c0-66.67,0-133.33,0-200C118,50,182,50,246,50z M241,200c-1.3-21.74,3.5-40.26-1-59
				c-2.6-10.84-12.03-19.95-17-31c-2.5-5.56-1.89-11.83-4-17c-6.4-15.63-24-25.16-32-36c-0.22-1.89,1.13-2.21,1-4
				c-15.66-2.47-30.34-2.11-49,2c-10.26,2.26-22.71,4.84-29,8c-11.27,5.66-15.1,19.09-24,25c-6.11-2.62-8.9,4.51-18,2
				c0.16,4.83,11.7,0.2,12,2c-3.2,6.8-6.47,13.53-13,17c-0.2-1.89,0.67-9.88-1-7c2.46,13.12-5.58,15.75-6,26
				c0.68,3.41,3.32-4.41,4-1c-8.04,16.11-5.79,53.86-1,71c1.73,6.2,3.72,14.21,8,15C54.57,176.52,56.56,106.7,91,92
				c0.71-1.69-0.91-3.85,0-6c1.55-3.67,14.11-15.14,18-18c16.19-11.9,50.17,1.56,72,0c1.54-4.21-5.17-0.16-5-3
				c2.02-2.31,3.32-5.34,7-6c6.24,3.09,11.09,7.57,16,12c3,12.67,17.6,19.06,18,31c-3.55-2.11-1.87-9.46-8-9
				c12.95,15.72,17.37,39.96,28,58c-1.67,1.66-0.8,5.87-1,9C242.38,170.76,233.47,190.61,241,200z M212,206
				c4.99-20.06-1.55-38.62-17-44c-1.61,5.73-1.84,12.83-4,18c-9.74,3.49-13.1,15.69-24,21c-9.8,4.78-27.37,9.76-40,8
				c-7.04-0.98-18.07-3.19-24-6c-4.7-2.23-11.42-12.82-18-8c1.24,7.3,7.42,5.41,12,9c11.76,9.24,19.33,27.64,36,31
				c14.78,2.98,33.26-3.72,45-9C190.65,220.31,199.56,209.41,212,206z M208,107c10.23,10.94,10.49,33.33-8,35
				c39.85-3.42,2.63-51.25-10-59c-4.67,0-9.33,0-14,0c-1.38,1.29-0.99,4.34-1,7c-24.28,11.01-19.6,46.79,6,50
				c-7.44-7.26-19.78-12.12-21-23c-1.63-14.55,14.73-23.56,25-31c-3.98-1.25-7.04,3.53-9,1c16.6-7.58,23.28,11.13,31,19
				c-5.31,1.4-13.55,3.88-17-1c-0.17-1.13,1.77-8.53-1-8c-3.9,2.29-0.08,6.08-1,11C195.04,111.16,202.41,111.57,208,107z M154,113
				c-0.61-2.06,1.61-6.95-2-6C152.61,109.06,150.39,113.95,154,113z M110,163c10.21-10.46,23-18.33,24-38
				c-10.08-15.78-36.93-19.54-50-5c-6.21,11.96-1.1,21.97,0,36C88.77,162.29,98.76,166.21,110,163z M75,126
				c8.87-11.87,35.04-16.86,29-37C102.34,109.34,78.66,107.66,75,126z"/>
			<path d="M242,211c0.56-4.44-1.74-11.74,3-12c-0.17,22.5-12.03,33.31-17,51c-1,0-2,0-3,0C229.97,236.31,232.97,220.63,242,211z"/>
			<path d="M240,141c4.5,18.74-0.3,37.26,1,59c-7.53-9.39,1.38-29.24-5-40c0.2-3.13-0.67-7.34,1-9c-10.63-18.04-15.05-42.28-28-58
				c6.13-0.46,4.45,6.89,8,9c-0.4-11.94-15-18.33-18-31c-4.91-4.43-9.76-8.91-16-12c-3.68,0.66-4.98,3.69-7,6
				c-0.17,2.84,6.54-1.21,5,3c-21.83,1.56-55.81-11.9-72,0c-3.89,2.86-16.45,14.33-18,18c-0.91,2.15,0.71,4.31,0,6
				c-34.44,14.7-36.43,84.52-20,121c-4.28-0.79-6.27-8.8-8-15c-4.79-17.14-7.04-54.89,1-71c-0.68-3.41-3.32,4.41-4,1
				c0.42-10.25,8.46-12.88,6-26c1.67-2.88,0.8,5.11,1,7c6.53-3.47,9.8-10.2,13-17c-0.3-1.8-11.84,2.83-12-2
				c9.1,2.51,11.89-4.62,18-2c8.9-5.91,12.73-19.34,24-25c6.29-3.16,18.74-5.74,29-8c18.66-4.11,33.34-4.47,49-2
				c0.13,1.79-1.22,2.11-1,4c8,10.84,25.6,20.37,32,36c2.11,5.17,1.5,11.44,4,17C227.97,121.05,237.4,130.16,240,141z M238,149
				c0.15-11.15-3.97-18.03-9-24C230.44,134.56,234.25,141.75,238,149z M174,62c2.51-0.82,5.36-1.31,5-5
				C176.08,57.43,171.81,59.51,174,62z M176,54c-3.51-0.49-6.51-1.49-11-1c0,3.33,0,6.67,0,10C172.08,63.41,172.48,57.14,176,54z
				 M159,63c0.62-3.72,2.38-6.28,3-10c-11.56,2.44-24.89,3.11-34,8C140.88,58.92,149.15,65.2,159,63z"/>
			<path fill="#FFFFFF" d="M229,125c5.03,5.97,9.15,12.85,9,24C234.25,141.75,230.44,134.56,229,125z"/>
			<path d="M195,162c15.45,5.38,21.99,23.94,17,44c-12.44,3.41-21.35,14.31-34,20c-11.74,5.28-30.22,11.98-45,9
				c-16.67-3.36-24.24-21.76-36-31c-4.58-3.59-10.76-1.7-12-9c6.58-4.82,13.3,5.77,18,8c5.93,2.81,16.96,5.02,24,6
				c12.63,1.76,30.2-3.22,40-8c10.9-5.31,14.26-17.51,24-21C193.16,174.83,193.39,167.73,195,162z M209,200
				c1.62-6.82,2.34-19.96-3-23c-0.28,9.73-7.81,17.51-8,24C199.71,198.71,205.63,200.63,209,200z M200,188
				c1.78-5.85,4.24-17.18-2-20c-1.76,6.24-3.54,12.46-6,18C194.19,187.14,196.09,188.58,200,188z M191,214
				c5.3-3.56,12.76-7.64,14-11c-11.25,4.08-21.38,9.29-31,15C178.32,223.05,185.65,217.59,191,214z M185,208c2.9-0.81,9.29-3.32,7-6
				C189.89,204.23,186.09,204.75,185,208z M181,205c4.71-4.95,13.73-5.61,16-13C187.79,183.72,173.64,195.38,181,205z M176,204
				c-5.79-2.14-20.39,3.38-26,8C159.74,210.41,169.84,209.17,176,204z M173,223c-0.85-6.55-4.76-4.03-10-3c0.21,2.87-0.25,5.08-2,6
				c-0.91-1.75-1.86-3.47-5-3c-3.26,5.07-9.44,7.22-16,9C153.31,231.31,162.65,226.65,173,223z M181,209
				c-10.65,0.29-21.51,6.38-33,8c-6.16,0.87-16.42,3.19-22,2c-8.12-1.73-10.66-14.55-21-12c7.21,12.77,21.18,26.1,42,19
				C154.92,216.92,170.75,215.75,181,209z M124,212c2.98,6.95,14.12-0.25,22,2C142.52,209.48,130.77,213.23,124,212z"/>
			<path fill="#FFFFFF" d="M206,177c5.34,3.04,4.62,16.18,3,23c-3.37,0.63-9.29-1.29-11,1C198.19,194.51,205.72,186.73,206,177z"/>
			<path d="M200,142c18.49-1.67,18.23-24.06,8-35c-5.59,4.57-12.96,4.16-20,1c0.92-4.92-2.9-8.71,1-11c2.77-0.53,0.83,6.87,1,8
				c3.45,4.88,11.69,2.4,17,1c-7.72-7.87-14.4-26.58-31-19c1.96,2.53,5.02-2.25,9-1c-10.27,7.44-26.63,16.45-25,31
				c1.22,10.88,13.56,15.74,21,23c-25.6-3.21-30.28-38.99-6-50c0.01-2.66-0.38-5.71,1-7c4.67,0,9.33,0,14,0
				C202.63,90.75,239.85,138.58,200,142z"/>
			<path fill="#FFFFFF" d="M198,168c6.24,2.82,3.78,14.15,2,20c-3.91,0.58-5.81-0.86-8-2C194.46,180.46,196.24,174.24,198,168z"/>
			<path fill="#FFFFFF" d="M205,203c-1.24,3.36-8.7,7.44-14,11c-5.35,3.59-12.68,9.05-17,4C183.62,212.29,193.75,207.08,205,203z"/>
			<path fill="#FFFFFF" d="M192,202c2.29,2.68-4.1,5.19-7,6C186.09,204.75,189.89,204.23,192,202z"/>
			<path fill="#FFFFFF" d="M197,192c-2.27,7.39-11.29,8.05-16,13C173.64,195.38,187.79,183.72,197,192z"/>
			<path fill="#FFFFFF" d="M179,57c0.36,3.69-2.49,4.18-5,5C171.81,59.51,176.08,57.43,179,57z"/>
			<path fill="#FFFFFF" d="M150,212c5.61-4.62,20.21-10.14,26-8C169.84,209.17,159.74,210.41,150,212z"/>
			<path fill="#FFFFFF" d="M163,220c5.24-1.03,9.15-3.55,10,3c-10.35,3.65-19.69,8.31-33,9c6.56-1.78,12.74-3.93,16-9
				c3.14-0.47,4.09,1.25,5,3C162.75,225.08,163.21,222.87,163,220z"/>
			<path fill="#FFFFFF" d="M165,53c4.49-0.49,7.49,0.51,11,1c-3.52,3.14-3.92,9.41-11,9C165,59.67,165,56.33,165,53z"/>
			<path fill="#FFFFFF" d="M148,217c11.49-1.62,22.35-7.71,33-8c-10.25,6.75-26.08,7.92-34,17c-20.82,7.1-34.79-6.23-42-19
				c10.34-2.55,12.88,10.27,21,12C131.58,220.19,141.84,217.87,148,217z"/>
			<path fill="#FFFFFF" d="M162,53c-0.62,3.72-2.38,6.28-3,10c-9.85,2.2-18.12-4.08-31-2C137.11,56.11,150.44,55.44,162,53z"/>
			<path d="M152,107c3.61-0.95,1.39,3.94,2,6C150.39,113.95,152.61,109.06,152,107z"/>
			<path fill="#FFFFFF" d="M146,214c-7.88-2.25-19.02,4.95-22-2C130.77,213.23,142.52,209.48,146,214z"/>
			<path fill="#FFFFFF" d="M124,127c1.45,1.55,5.12,0.88,8,1c-7.34,16.32-12.55,34.78-38,33c-5.66-4.01-10.26-9.07-9-20
				c4.81-0.85,8.9-2.44,12-5c-0.12-2.88,0.55-6.55-1-8c-1.84-2.16-5.9-2.1-10-2c-0.32,4.65,6.92,1.75,9,4c0.01,7.01-6.02,7.98-13,8
				C78.84,113.01,119.26,101.86,124,127z"/>
			<path fill="#FFFFFF" d="M126,123c1.33,0,2.67,0,4,0c-0.16,1.16,0.22,1.78,1,2C130.21,127.3,124.81,125.97,126,123z"/>
			<path d="M134,125c-1,19.67-13.79,27.54-24,38c-11.24,3.21-21.23-0.71-26-7c-1.1-14.03-6.21-24.04,0-36
				C97.07,105.46,123.92,109.22,134,125z M132,128c-2.88-0.12-6.55,0.55-8-1c-4.74-25.14-45.16-13.99-42,11
				c6.98-0.02,13.01-0.99,13-8c-2.08-2.25-9.32,0.65-9-4c4.1-0.1,8.16-0.16,10,2c1.55,1.45,0.88,5.12,1,8c-3.1,2.56-7.19,4.15-12,5
				c-1.26,10.93,3.34,15.99,9,20C119.45,162.78,124.66,144.32,132,128z M130,123c-1.33,0-2.67,0-4,0c-1.19,2.97,4.21,4.3,5,2
				C130.22,124.78,129.84,124.16,130,123z"/>
			<path d="M104,89c6.04,20.14-20.13,25.13-29,37C78.66,107.66,102.34,109.34,104,89z"/>
			<path d="M104,250c-0.67,0-1.33,0-2,0c-9.49-7.17-22.86-10.48-28-22c-3.19,7.88,3.2,14.79,4,22c-0.67,0-1.33,0-2,0
				c-2.29-8.04-6.57-14.1-6-25c-16.81-18.99-17.79-65.85-13-100c1.84,35.46-3.99,72.56,12,94c-0.87-3.47,1.54-3.43,3-2
				c3.6,7.19,6.22,14.94,12,20C89.99,242.24,100.93,241.38,104,250z"/>
			<path fill="#FFFFFF" d="M102,250c-8,0-16,0-24,0c-0.8-7.21-7.19-14.12-4-22C79.14,239.52,92.51,242.83,102,250z"/>
		</g>
		<g>
		</g>
	</g>
</g>
</svg>
