<?xml version="1.0" encoding="utf-8"?>
<!-- Generator: Adobe Illustrator 15.0.0, SVG Export Plug-In . SVG Version: 6.00 Build 0)  -->
<!DOCTYPE svg PUBLIC "-//W3C//DTD SVG 1.1//EN" "http://www.w3.org/Graphics/SVG/1.1/DTD/svg11.dtd">
<svg version="1.1" id="Layer_1" xmlns="http://www.w3.org/2000/svg" xmlns:xlink="http://www.w3.org/1999/xlink" x="0px" y="0px"
	 width="300px" height="300px" viewBox="0 0 300 300" enable-background="new 0 0 300 300" xml:space="preserve">
<g id="UFfhjs.tif">
	<g>
		<g>
			<path fill-rule="evenodd" clip-rule="evenodd" fill="#FFFFFF" d="M155,54c-7.638,3.675-15.777,3.131-23,5
				c-3.458,0.895-7.277,3.739-11,5c-4.55,1.541-9.522,1.395-13,3c-8.244,3.806-12.242,12.374-17,18
				c-10.179,12.035-20.104,19.298-27,32c-2.907-0.759,0.907-8.241-2-9c0.497,12.497-6.021,17.979-6,30c3.802,0.802,1.271-4.729,2-7
				c5.357,6.762-2.834,13.552-4,21c-1.294,8.267-1.785,28.623-1,35c0.378,3.073,3.029,5.648,4,9c0.956,3.297,0.227,6.872,1,10
				c2.308,9.337,6.811,18.065,8,26c-8.364-10.423-12.642-24.389-14-43c-1.444-19.782,5.23-43.409,1-56c-1.277-3.802-2.329,2.556-3,1
				c0-26.667,0-53.333,0-80C85,54,120,54,155,54z"/>
			<path fill-rule="evenodd" clip-rule="evenodd" fill="#FFFFFF" d="M175,54c24.333,0,48.667,0,73,0c0,65.333,0,130.667,0,196
				c-4,0-8,0-12,0c2.814-13.186,12.293-19.707,11-37c0.178-5.699-3.378,0.099-4-2c0.078-33.031,2.943-57.308-8-78
				c-3.877-7.33-9.609-12.527-12-19c-1.677-4.54-1.679-9.294-3-14c-1.616-5.757-6.062-9.053-10-14c-7.693-9.666-13.143-19.789-24-24
				c-0.473-3.14,2.691-2.642,3-5c-5.796,0.462-9-1.666-14-2C175,54.667,175,54.333,175,54z"/>
			<path fill-rule="evenodd" clip-rule="evenodd" fill="#FFFFFF" d="M231,250c-50.666,0-101.334,0-152,0
				c-1.869-6.464-6.39-10.277-10-15c-1.653-16.277-12.261-37.698-13-51c-0.522-9.402-0.386-21.297,1-31c0.68-4.756,4.749-9.839,6-16
				c1.036-5.102-0.496-10.809,1-15c1.894-5.306,10-9.727,15-16c3.741-4.694,7.241-10.631,12-16c4.933-5.564,8.679-12.519,13-16
				c7.004-5.643,21.005-6.406,30-7c0.802-3.802-4.729-1.271-7-2c3.664-4.572,9.889-2.81,15-4c5.771-1.343,10.748-4.587,16-5
				c16.816-1.321,22.864,3.932,31,11c8.269,7.184,10.813,9.571,15,19c1.876,4.225,3.848,7.406,4,11c1.48-0.186,0.917-2.417,1-4
				c4.438,4.228,9.231,8.102,10,16c-4.05-2.617-3.763-9.571-9-11c-0.268,6.506,5.282,11.053,9,17c3.772,6.034,5.478,12.14,8,20
				c4.332,13.497,11.24,27.668,13,43c0.895,7.793-0.556,18.053,0,27c0.358,5.775,2.628,11.996,2,17
				C240.806,231.516,232.072,239.995,231,250z M156,87c-0.212-1.208-1.109-0.615-2,0c0.841,14.567-3.043,29.542,0,43
				c7.533-6.467-0.828-28.829,5-37c8.002,2.665,11.879,9.455,20,12c4.68,4.32,7.162,10.838,15,12
				C185.208,103.125,170.281,95.386,156,87z M85,135c0.48,7.194-0.641,15.637,0,23c0.288,3.308,0.124,8.656,3,10
				c4.974-6.347-3.704-20.687,1-30c7.371,4.353,14.46,9.773,27,10c2.237,0.041,6.748,2.117,7-1c-2.795-4.205-11.309-2.691-18-3
				c-6.175-4.491-12.135-9.199-20-12C85,133,85,134,85,135z M202,185c-5.271,2.262-8.776,7.301-15,8c-9.615,1.08-13.713-5.72-21-9
				c6.469,13.329-3.633,24.926-13,26c-13.964,1.602-16.346-13.003-26-16c4.428,8.693,11.637,19.679,23,20
				c11.864,0.336,19.751-9.134,23-21c9.816,8.661,26.301,0.471,32-7c4.555-12.38-1.405-27.56-10-33
				C196.7,165.137,207.341,171.455,202,185z"/>
			<path fill-rule="evenodd" clip-rule="evenodd" d="M194,117c-7.838-1.162-10.32-7.68-15-12c-8.121-2.545-11.998-9.335-20-12
				c-5.828,8.171,2.533,30.533-5,37c-3.043-13.458,0.841-28.433,0-43c0.891-0.615,1.788-1.208,2,0
				C170.281,95.386,185.208,103.125,194,117z"/>
			<path fill-rule="evenodd" clip-rule="evenodd" fill="#FFFFFF" d="M230,131c4.318,9.015,10.377,16.29,10,30
				C236.684,150.983,232.157,142.176,230,131z"/>
			<path fill-rule="evenodd" clip-rule="evenodd" d="M85,132c7.865,2.801,13.825,7.509,20,12c6.691,0.309,15.205-1.205,18,3
				c-0.252,3.117-4.763,1.041-7,1c-12.54-0.227-19.629-5.647-27-10c-4.704,9.313,3.974,23.653-1,30c-2.876-1.344-2.712-6.692-3-10
				c-0.641-7.363,0.48-15.806,0-23C85,134,85,133,85,132z"/>
			<path fill-rule="evenodd" clip-rule="evenodd" d="M195,153c8.595,5.44,14.555,20.62,10,33c-5.699,7.471-22.184,15.661-32,7
				c-3.249,11.866-11.136,21.336-23,21c-11.363-0.321-18.572-11.307-23-20c9.654,2.997,12.036,17.602,26,16
				c9.367-1.074,19.469-12.671,13-26c7.287,3.28,11.385,10.08,21,9c6.224-0.699,9.729-5.738,15-8
				C207.341,171.455,196.7,165.137,195,153z"/>
			<path fill-rule="evenodd" clip-rule="evenodd" fill="#FFFFFF" d="M50,192c2.923,10.26,2.237,17.666,5,26
				c3.752,11.315,12.759,17.397,12,32c-5.667,0-11.333,0-17,0C50,230.667,50,211.333,50,192z"/>
			<path fill-rule="evenodd" clip-rule="evenodd" fill="#FFFFFF" d="M244,218c0.381-1.903,1.272,0.639,1,2
				C244.619,221.903,243.728,219.361,244,218z"/>
			<path fill-rule="evenodd" clip-rule="evenodd" fill="#FFFFFF" d="M75,250c-1.667,0-3.333,0-5,0c-1.46-1.873-0.04-6.627-2-8
				C71.235,239.81,74.183,246.45,75,250z"/>
			<path fill-rule="evenodd" clip-rule="evenodd" d="M50,192c0-19.333,0-38.667,0-58c0.671,1.556,1.723-4.802,3-1
				c4.23,12.591-2.444,36.218-1,56c1.358,18.611,5.636,32.577,14,43c-1.189-7.935-5.692-16.663-8-26c-0.773-3.128-0.044-6.703-1-10
				c-0.971-3.352-3.622-5.927-4-9c-0.785-6.377-0.294-26.733,1-35c1.166-7.448,9.357-14.238,4-21c-0.729,2.271,1.802,7.802-2,7
				c-0.021-12.021,6.497-17.503,6-30c2.907,0.759-0.907,8.241,2,9c6.896-12.702,16.821-19.965,27-32c4.758-5.626,8.756-14.194,17-18
				c3.478-1.605,8.45-1.459,13-3c3.723-1.261,7.542-4.105,11-5c7.223-1.869,15.362-1.325,23-5c6.667,0,13.333,0,20,0
				c0,0.333,0,0.667,0,1c5,0.334,8.204,2.462,14,2c-0.309,2.358-3.473,1.86-3,5c10.857,4.211,16.307,14.334,24,24
				c3.938,4.947,8.384,8.243,10,14c1.321,4.706,1.323,9.46,3,14c2.391,6.473,8.123,11.67,12,19c10.943,20.692,8.078,44.969,8,78
				c0.622,2.099,4.178-3.699,4,2c1.293,17.293-8.186,23.814-11,37c-1.667,0-3.333,0-5,0c1.072-10.005,9.806-18.484,11-28
				c0.628-5.004-1.642-11.225-2-17c-0.556-8.947,0.895-19.207,0-27c-1.76-15.332-8.668-29.503-13-43c-2.522-7.86-4.228-13.966-8-20
				c-3.718-5.947-9.268-10.494-9-17c5.237,1.429,4.95,8.383,9,11c-0.769-7.898-5.562-11.772-10-16c-0.083,1.583,0.48,3.814-1,4
				c-0.152-3.594-2.124-6.775-4-11c-4.187-9.429-6.731-11.816-15-19c-8.136-7.068-14.184-12.321-31-11
				c-5.252,0.413-10.229,3.657-16,5c-5.111,1.19-11.336-0.572-15,4c2.271,0.729,7.802-1.802,7,2c-8.995,0.594-22.996,1.357-30,7
				c-4.321,3.481-8.067,10.436-13,16c-4.759,5.369-8.259,11.306-12,16c-5,6.273-13.106,10.694-15,16c-1.496,4.191,0.036,9.898-1,15
				c-1.251,6.161-5.32,11.244-6,16c-1.386,9.703-1.522,21.598-1,31c0.739,13.302,11.347,34.723,13,51c3.61,4.723,8.131,8.536,10,15
				c-1.333,0-2.667,0-4,0c-0.817-3.55-3.765-10.19-7-8c1.96,1.373,0.54,6.127,2,8c-1,0-2,0-3,0c0.759-14.603-8.248-20.685-12-32
				C52.237,209.666,52.923,202.26,50,192z M240,161c0.377-13.71-5.682-20.985-10-30C232.157,142.176,236.684,150.983,240,161z
				 M245,220c0.272-1.361-0.619-3.903-1-2C243.728,219.361,244.619,221.903,245,220z"/>
		</g>
	</g>
</g>
</svg>
