<?xml version="1.0" encoding="utf-8"?>
<!-- Generator: Adobe Illustrator 15.0.0, SVG Export Plug-In . SVG Version: 6.00 Build 0)  -->
<!DOCTYPE svg PUBLIC "-//W3C//DTD SVG 1.1//EN" "http://www.w3.org/Graphics/SVG/1.1/DTD/svg11.dtd">
<svg version="1.1" id="Layer_1" xmlns="http://www.w3.org/2000/svg" xmlns:xlink="http://www.w3.org/1999/xlink" x="0px" y="0px"
	 width="300px" height="300px" viewBox="0 0 300 300" enable-background="new 0 0 300 300" xml:space="preserve">
<g id="DoSbZZ.tif">
	<g>
		<g>
			<path fill-rule="evenodd" clip-rule="evenodd" fill="#FFFFFF" d="M160,58c-8.099,2.405-17.68,2.763-26,5
				c-3.342,0.898-5.6,2.854-9,4c-3.517,1.186-8.033,0.921-11,2c-9.515,3.459-14.746,11.403-21,19c-8.443,10.255-15.563,18.523-24,27
				c0.792-3.897,1.033-5.185-1-8c0.875,10.977-6.284,18.911-5,27c3.36,1.027,1.557-3.11,2-5c4.269,4.447-2.874,11.167-4,19
				c-0.493,3.428,0.095,8.562,0,12c-0.087,3.16,1.798,8.389-2,10c0.208-8.531,3.012-29.951,1-38c-0.498-1.991-0.634-3.673-3-2
				c0-24,0-48,0-72C91.333,58,125.667,58,160,58z"/>
			<path fill-rule="evenodd" clip-rule="evenodd" fill="#FFFFFF" d="M170,58c23.667,0,47.333,0,71,0c0,48,0,96,0,144
				c-7.645-4.784-2.979-15.686-3-23c-0.027-9.554,0.306-20.919-1-30c-1.841-12.811-12.531-22.983-17-33
				c-2.947-6.606-2.612-12.984-5-18c-2.282-4.793-7.19-8.284-11-13c-8.118-10.048-20.3-25.506-34-26C170,58.667,170,58.333,170,58z"
				/>
			<path fill-rule="evenodd" clip-rule="evenodd" d="M174,90c3.282-1.493,8.632-1.307,13,0c5.355,1.603,12.648,10.304,18,17
				c11.72,14.665,17,32.535-2,41c-13.278,0.544-27.091-0.667-35-7c-4.42-3.54-11.566-14.667-12-18
				C153.905,106.879,170.872,104.514,174,90z M180,92C173.595,90.846,177.804,95.055,180,92L180,92z M183,92
				c-7.668,7.515-25.362,16.44-24,30c0.304,3.026,5.399,11.537,9,15c7.878,7.578,25.66,10.153,34,8c17.277-4.461,9.423-26.688,0-36
				c-0.171,2.829,0.86,6.86-2,7c-6.38,0.047-12.521-0.146-15-4c-0.347-7.014,0.497-12.836,8-12C192.061,94.94,188.213,92.787,183,92
				z"/>
			<path fill-rule="evenodd" clip-rule="evenodd" fill="#FFFFFF" d="M180,92C177.804,95.055,173.595,90.846,180,92L180,92z"/>
			<path fill-rule="evenodd" clip-rule="evenodd" fill="#FFFFFF" d="M193,100c-7.503-0.836-8.347,4.986-8,12
				c2.479,3.854,8.62,4.047,15,4c2.86-0.14,1.829-4.171,2-7c9.423,9.312,17.277,31.539,0,36c-8.34,2.153-26.122-0.422-34-8
				c-3.601-3.463-8.696-11.974-9-15c-1.362-13.56,16.332-22.485,24-30C188.213,92.787,192.061,94.94,193,100z"/>
			<path fill-rule="evenodd" clip-rule="evenodd" d="M127,128c-2.722,0.878,5.127,4.717,2,6c-7.332-3.642-9.868-14.712-20-16
				c-8.792-1.117-15.431,4.442-21,11c13.918-0.752,13.624,17.756-1,16c-1.224,15.683,7.681,22.475,20,20
				c5.458-1.097,22.633-19.877,24-27c0.943-4.915-0.492-8.07-1-11c6.594-0.265,5.02,8.017,4,12c-1.981,7.738-17.571,25.881-23,28
				c-10.736,4.19-19.704-0.713-26-8c2.071-8.468-3.767-12.156-4-18c-0.969-24.322,33.672-34.654,50-16
				C130.721,127.054,128.329,126.996,127,128z"/>
			<path fill-rule="evenodd" clip-rule="evenodd" fill="#FFFFFF" d="M226,130c3.307,7.694,8.623,13.377,8,25
				C231.531,146.469,227.339,139.661,226,130z"/>
			<path fill-rule="evenodd" clip-rule="evenodd" d="M184,183c3.638,4.695,1.378,15.289,2,23c-3.048,4.052-6.98,9.604-14,11
				c-4.804,0.955-15.501,0.602-20-1c-7.936-2.825-16.848-12.564-12-21c5.688,1.633,3.681,8.093,8,12c7.185,6.498,27.954,6.108,32-2
				c0.861-7.546-1.303-17.341,0-22C181.479,181.842,182.521,181.842,184,183z"/>
			<path fill-rule="evenodd" clip-rule="evenodd" fill="#FFFFFF" d="M57,184c1.642,7.691,3.2,15.467,4,24
				c8.594,9.073,10.77,24.563,15,38c-6.333,0-12.667,0-19,0C57,225.333,57,204.667,57,184z"/>
			<path fill-rule="evenodd" clip-rule="evenodd" fill="#FFFFFF" d="M241,213c0,11,0,22,0,33c-4.667,0-9.333,0-14,0
				c3.243-12.09,10.076-20.591,13-33C240.333,213,240.667,213,241,213z"/>
			<path fill-rule="evenodd" clip-rule="evenodd" fill="#FFFFFF" d="M94,246c-5,0-10,0-15,0c-2.2-5.134-3.802-10.864-5-17
				c7.524,4.476,8.989,15.011,20,16C94,245.333,94,245.667,94,246z"/>
			<path fill-rule="evenodd" clip-rule="evenodd" fill="#FFFFFF" d="M223,246c-40.667,0-81.333,0-122,0
				c-11.376-4.623-19.359-12.641-26-22c-0.131-9.351-5.722-17.957-8-27c-0.804-3.191-0.075-6.619-1-10c-0.609-2.227-2.655-4.694-3-7
				c-1.075-7.189-0.336-22.645,1-32c1.257-8.798,8.477-17.61,6-28c8.822-8.682,20.528-23.219,31-35c3.308-3.721,5.929-8.913,10-11
				c2.576-1.321,6.148-0.647,10-2c3.746-1.315,6.763-4.908,10-6c3.394-1.146,9.559-0.932,15-2c7.077-1.389,16.064-5.112,26-3
				c4.985,1.06,21.485,12.202,25,17c0.952,1.3,0.088,4.202,1,6c1.333,2.629,6.707,6.497,6,12c3.981-2.15,9.728,5.426,11,12
				c-4.544-1.79-3.547-9.12-9-10c0.032,7.69,7.96,12.258,12,20c3.782,7.247,5.474,18.154,9,28c3.513,9.809,6.997,20.034,8,29
				c0.79,7.062-0.417,16.591,0,25c0.228,4.6,1.667,8.949,1,13c-0.649,3.945-4.835,8.453-7,14
				C226.376,233.723,225.69,240.311,223,246z M156,123c0.434,3.333,7.58,14.46,12,18c7.909,6.333,21.722,7.544,35,7
				c19-8.465,13.72-26.335,2-41c-5.352-6.696-12.645-15.397-18-17c-4.368-1.307-9.718-1.493-13,0
				C170.872,104.514,153.905,106.879,156,123z M131,125c-16.328-18.654-50.969-8.322-50,16c0.233,5.844,6.071,9.532,4,18
				c6.296,7.287,15.264,12.19,26,8c5.429-2.119,21.019-20.262,23-28c1.02-3.983,2.594-12.265-4-12c0.508,2.93,1.943,6.085,1,11
				c-1.367,7.123-18.542,25.903-24,27c-12.319,2.475-21.224-4.317-20-20c14.624,1.756,14.918-16.752,1-16
				c5.569-6.558,12.208-12.117,21-11c10.132,1.288,12.668,12.358,20,16c3.127-1.283-4.722-5.122-2-6
				C128.329,126.996,130.721,127.054,131,125z M180,183c-1.303,4.659,0.861,14.454,0,22c-4.046,8.108-24.815,8.498-32,2
				c-4.319-3.907-2.312-10.367-8-12c-4.848,8.436,4.064,18.175,12,21c4.499,1.602,15.196,1.955,20,1c7.02-1.396,10.952-6.948,14-11
				c-0.622-7.711,1.638-18.305-2-23C182.521,181.842,181.479,181.842,180,183z"/>
			<path fill-rule="evenodd" clip-rule="evenodd" fill="#FFFFFF" d="M60,183c5.2,10.133,6.322,24.345,11,35
				C64.278,213.383,61.821,195.85,60,183z"/>
			<path fill-rule="evenodd" clip-rule="evenodd" d="M160,58c3.333,0,6.667,0,10,0c0,0.333,0,0.667,0,1
				c13.7,0.494,25.882,15.952,34,26c3.81,4.716,8.718,8.207,11,13c2.388,5.016,2.053,11.394,5,18c4.469,10.017,15.159,20.189,17,33
				c1.306,9.081,0.973,20.446,1,30c0.021,7.314-4.645,18.216,3,23c0,3.667,0,7.333,0,11c-0.333,0-0.667,0-1,0
				c-2.924,12.409-9.757,20.91-13,33c-1.333,0-2.667,0-4,0c2.69-5.689,3.376-12.277,6-19c2.165-5.547,6.351-10.055,7-14
				c0.667-4.051-0.772-8.4-1-13c-0.417-8.409,0.79-17.938,0-25c-1.003-8.966-4.487-19.191-8-29c-3.526-9.846-5.218-20.753-9-28
				c-4.04-7.742-11.968-12.31-12-20c5.453,0.88,4.456,8.21,9,10c-1.272-6.574-7.019-14.15-11-12c0.707-5.503-4.667-9.371-6-12
				c-0.912-1.798-0.048-4.7-1-6c-3.515-4.798-20.015-15.94-25-17c-9.936-2.112-18.923,1.611-26,3c-5.441,1.068-11.606,0.854-15,2
				c-3.237,1.092-6.254,4.685-10,6c-3.852,1.353-7.424,0.679-10,2c-4.071,2.087-6.692,7.279-10,11
				c-10.472,11.781-22.178,26.318-31,35c2.477,10.39-4.743,19.202-6,28c-1.336,9.355-2.075,24.811-1,32c0.345,2.306,2.391,4.773,3,7
				c0.925,3.381,0.196,6.809,1,10c2.278,9.043,7.869,17.649,8,27c6.641,9.359,14.624,17.377,26,22c-2.333,0-4.667,0-7,0
				c0-0.333,0-0.667,0-1c-11.011-0.989-12.476-11.524-20-16c1.198,6.136,2.8,11.866,5,17c-1,0-2,0-3,0
				c-4.23-13.437-6.406-28.927-15-38c-0.8-8.533-2.358-16.309-4-24c0-18,0-36,0-54c2.366-1.673,2.502,0.009,3,2
				c2.012,8.049-0.792,29.469-1,38c3.798-1.611,1.913-6.84,2-10c0.095-3.438-0.493-8.572,0-12c1.126-7.833,8.269-14.553,4-19
				c-0.443,1.89,1.36,6.027-2,5c-1.284-8.089,5.875-16.023,5-27c2.033,2.815,1.792,4.103,1,8c8.437-8.477,15.557-16.745,24-27
				c6.254-7.597,11.485-15.541,21-19c2.967-1.079,7.483-0.814,11-2c3.4-1.146,5.658-3.102,9-4C142.32,60.763,151.901,60.405,160,58z
				 M234,155c0.623-11.623-4.693-17.306-8-25C227.339,139.661,231.531,146.469,234,155z M71,218c-4.678-10.655-5.8-24.867-11-35
				C61.821,195.85,64.278,213.383,71,218z"/>
		</g>
	</g>
</g>
</svg>
