<?xml version="1.0" encoding="utf-8"?>
<!-- Generator: Adobe Illustrator 15.0.0, SVG Export Plug-In . SVG Version: 6.00 Build 0)  -->
<!DOCTYPE svg PUBLIC "-//W3C//DTD SVG 1.1//EN" "http://www.w3.org/Graphics/SVG/1.1/DTD/svg11.dtd">
<svg version="1.1" id="Layer_1" xmlns="http://www.w3.org/2000/svg" xmlns:xlink="http://www.w3.org/1999/xlink" x="0px" y="0px"
	 width="300px" height="300px" viewBox="0 0 300 300" enable-background="new 0 0 300 300" xml:space="preserve">
<g id="AkhCgD.tif">
	<g id="XMLID_2_">
		<g>
			<path d="M231,194c1.29,1.38,4.34,0.99,7,1C237.76,196.45,229.77,197.32,231,194z"/>
			<path d="M236,215c1.03,3.36-3.11,1.56-5,2c0-0.67,0-1.33,0-2C232.67,215,234.33,215,236,215z"/>
			<path d="M232,211c0.74,1.59,4.89-0.23,4,3C233.38,214.28,231.7,213.63,232,211z"/>
			<path d="M235,199c0.17,1.63-6.54,2.02-5-1C232.32,197.68,233.84,198.16,235,199z"/>
			<path d="M229,175c0.12-2.21,4.24-0.42,6-1C234.09,177.63,232.05,174.61,229,175z"/>
			<path d="M234,177c-0.44,1.23-1.28,2.05-3,2C230.53,176.87,232.43,177.1,234,177z"/>
			<path d="M173,102l-1.5,0.5l0.5,1.5c-0.97,0.03-0.78,1.22-1,2l-1.5-0.5L169,107c-1.67-1.33-1.55-4.45-3-6l1.5-0.5L167,99
				c0-0.33,0-0.67,0-1l1.5,0.5L169,97C171.27,97.73,171.99,100.01,173,102z"/>
			<path d="M150,125c2.04,0.96,2.16,3.84,2,7c-1.62,1.72-4.18,2.48-8,2c-1.42-3.16-4.34-6.11-1-9l0.5,1.5l1.5-0.5c0,0.33,0,0.67,0,1
				c1.42,0.09,2.83,0.17,3-1l1.5,0.5L150,125z"/>
			<path d="M119,82v2c-3.67,0-7.33,0-11,0l0.5-1.5L107,82c2.42-2.25,5.75-3.58,10-4l-0.5,1.5L118,80c0.33,0,0.67,0,1,0V82z"/>
			<path d="M103,126c2.09,7.09-4.25,9.96-9,7C92.45,125.48,99.04,122.31,103,126z"/>
		</g>
		<g>
			<path fill="none" stroke="#000000" stroke-width="2.0207" stroke-linecap="round" d="M143.5,126.5c0.68-1.43,2.28-2.57,3.9-2.48
				c1.03,0.41,1.48,1.41,2.1,2.48"/>
			<path fill="none" stroke="#000000" stroke-width="1.4024" stroke-linecap="round" d="M243,217c-10.97,8.75-25.52,1.04-36.81-1.57
				c0.569,2.79,2.729,4.891,3.81,7.57"/>
			<path fill="none" stroke="#000000" stroke-width="2.0817" stroke-linecap="round" d="M243,216c0,0.33,0,0.67,0,1"/>
			<path fill="none" stroke="#000000" stroke-width="1.2403" stroke-linecap="round" d="M232.5,203.5
				c3.12,4.45,10.11,6.24,10.5,12.5"/>
			<path fill="none" stroke="#000000" stroke-width="2.3778" stroke-linecap="round" d="M232.5,203.5c-3.86-1.4-8.32,0.65-12-1.5"/>
			<path fill="none" stroke="#000000" stroke-width="3.9428" stroke-linecap="round" d="M228,188c-1.84,0.08-3.77-0.3-5.5,0.5"/>
			<path fill="none" stroke="#000000" stroke-width="1.4478" stroke-linecap="round" d="M228,188c3.7,3.06,9.56,3.1,12.3,7.61
				c0.22,1.279,0.22,2.62-0.1,3.59c-1.101,1.3-2.28,2.47-3.84,3.16c-1.21-0.03-2.551,0.29-3.86,1.14"/>
			<path fill="none" stroke="#000000" stroke-width="1.3929" stroke-linecap="round" d="M195,116c-1.7-21.01,22.14-14.14,29.29,1.71
				c7.01,15.56,6.5,38.4-2.12,47.81c9.16-2.77,20.09,5.73,16.03,15.681c-2.391,3.92-6.67,4.56-10.2,6.8"/>
			<path fill="none" stroke="#000000" stroke-width="1.553" stroke-linecap="round" d="M202.5,122.5c-3.09-1.14-7.05-2.84-7.5-6.5"
				/>
			<path fill="none" stroke="#000000" stroke-width="1.7464" stroke-linecap="round" d="M202.5,122.5c0.12-0.33,0.24-0.66,0.36-1
				c-0.141-3.2-4.66-6.85-7.86-5.5"/>
			<path fill="none" stroke="#000000" stroke-width="1.6002" stroke-linecap="round" d="M193.5,166.5
				c4.79-3.61,3.68-12.84,11.7-12.3c0.34-0.33,0.7-0.641,1.06-0.94c1.101-10.47,0.21-21.04-3.76-30.76"/>
			<path fill="none" stroke="#000000" stroke-width="2.5995" stroke-linecap="round" d="M193.5,166.5c0.59,20.36-0.27,40.14-11,58"
				/>
			<path fill="none" stroke="#000000" stroke-width="2.7276" stroke-linecap="round" d="M191,153c1.44,4.35-0.54,9.84,2.5,13.5"/>
			<path fill="none" stroke="#000000" stroke-width="1.6202" stroke-linecap="round" d="M183.5,128.5c5.57,6.05,10.14,16,7.5,24.5"
				/>
			<path fill="none" stroke="#000000" stroke-width="1.8393" stroke-linecap="round" d="M183.5,128.5c0,8.37,4.49,16.84,7.5,24.5"/>
			<path fill="none" stroke="#000000" stroke-width="2.4004" stroke-linecap="round" d="M176.25,116c3.45,3.62,4.37,8.53,7.25,12.5"
				/>
			<path fill="none" stroke="#000000" stroke-width="2.8909" stroke-linecap="round" d="M176.25,116c-4.26-1.41-4.68-7.05-6.75-10.5
				"/>
			<path fill="none" stroke="#000000" stroke-width="1.7912" stroke-linecap="round" d="M176.25,116c1.69-4.93-0.8-10.52-4.75-13.5"
				/>
			<path fill="none" stroke="#000000" stroke-width="1.964" stroke-linecap="round" d="M119,82c2.83,2.39,6.88,2.91,10.5,3"/>
			<path fill="none" stroke="#000000" stroke-width="2.0207" stroke-linecap="round" d="M162.21,94.64c1.82,1.96,2.39,5.1,5.29,5.86
				"/>
			<path fill="none" stroke="#000000" stroke-width="1.9685" stroke-linecap="round" d="M165,93.75c1.47,1.24,2.72,2.94,3.5,4.75"/>
			<path fill="none" stroke="#000000" stroke-width="2.1602" stroke-linecap="round" d="M165,93.75c-0.63,0.14-1.75,0.48-2.79,0.89"
				/>
			<path fill="none" stroke="#000000" stroke-width="1.7673" stroke-linecap="round" d="M161.5,94c-14-5.04-26.62-16.79-42.5-12"/>
			<path fill="none" stroke="#000000" stroke-width="3.6056" stroke-linecap="round" d="M161.5,94c0.17,0.21,0.44,0.42,0.71,0.64"/>
			<path fill="none" stroke="#000000" stroke-width="1.3463" stroke-linecap="round" d="M158,86c3.52,0.83,6.21,4.3,7,7.75"/>
			<path fill="none" stroke="#000000" stroke-width="1.9215" stroke-linecap="round" d="M158,86c-0.16,3.1,3.04,5.02,3.5,8"/>
			<path fill="none" stroke="#000000" stroke-width="1.7593" stroke-linecap="round" d="M116.5,79.5c13.6-4.7,31.95-7.01,41.5,6.5"
				/>
			<path fill="none" stroke="#000000" stroke-width="1.7504" stroke-linecap="round" d="M68.5,206.5c6.11,6.57,11.78,13.45,21,16.5"
				/>
			<path fill="none" stroke="#000000" stroke-width="1.5718" stroke-linecap="round" d="M68.5,206.5c-0.75,5.78,0.55,12.27,4,17"/>
			<path fill="none" stroke="#000000" stroke-width="2.1602" stroke-linecap="round" d="M67.5,203.5c0.32,1,0.61,2,1,3"/>
			<path fill="none" stroke="#000000" stroke-width="1.5055" stroke-linecap="round" d="M67.5,203.5
				c-7.62-7.38-8.88-19.02-10.5-29.5"/>
			<path fill="none" stroke="#000000" stroke-width="1.2472" stroke-linecap="round" d="M65.17,121.17
				c-0.73-1.31-0.6-3.04-0.67-4.67"/>
			<path fill="none" stroke="#000000" stroke-width="1.9156" stroke-linecap="round" d="M65.17,121.17
				c14.54-12.59,22.15-35.9,43.33-38.67"/>
			<path fill="none" stroke="#000000" stroke-width="2.2361" stroke-linecap="round" d="M58,170c-0.92,1.17-0.93,2.95-1,4"/>
			<path fill="none" stroke="#000000" stroke-width="1.8423" stroke-linecap="round" d="M58,170c4.92,10.26,7.68,22.33,9.5,33.5"/>
			<path fill="none" stroke="#000000" stroke-width="2.4495" stroke-linecap="round" d="M63,129c-0.82,0.57-1.5,1.05-2,1.5"/>
			<path fill="none" stroke="#000000" stroke-width="2.5071" stroke-linecap="round" d="M63,129c0.76-2.61,1.04-5.34,2.17-7.83"/>
			<path fill="none" stroke="#000000" stroke-width="1.3229" stroke-linecap="round" d="M58,160c-3.33-8.13-0.62-17.78-1.5-26.5"/>
			<path fill="none" stroke="#000000" stroke-width="4.0591" stroke-linecap="round" d="M58,160c0,3.33,0,6.67,0,10"/>
			<path fill="none" stroke="#000000" stroke-width="1.4631" stroke-linecap="round" d="M58,160c0.57-10.24,5.06-21.19,5-31"/>
			<path fill="none" stroke="#000000" stroke-width="1.1402" stroke-linecap="round" d="M186.5,91.5c1.27,2.21,2.69,4.47,3,7"/>
			<path fill="none" stroke="#000000" stroke-width="2.1794" stroke-linecap="round" d="M166.25,162c-0.35-0.64-1.03-0.77-1.75-1"/>
			<path fill="none" stroke="#000000" stroke-width="1.6667" stroke-linecap="round" d="M166.25,162c1.97,0.08,2.9,2.02,3.75,3.5"/>
			<path fill="none" stroke="#000000" stroke-width="1.7122" stroke-linecap="round" d="M99.5,199.5c0.35,2.26,1.69,4.14,3.23,5.78
				c18.96,8.63,37.72,5.79,49.98-5.55c10.14-9.381,10.73-24.021,13.54-37.73"/>
			<path fill="none" stroke="#000000" stroke-width="2.1602" stroke-linecap="round" d="M99.5,199.5c1.4-0.53,2.2-0.35,3,0"/>
			<path fill="none" stroke="#000000" stroke-width="2.1909" stroke-linecap="round" d="M97,201.5c0.42-0.95,1.43-1.39,2.5-2"/>
			<path fill="none" stroke="#000000" stroke-width="1.7364" stroke-linecap="round" d="M161,117c2.1,4.71,5.67,8.61,6.97,13.65
				c-0.399,19.98-31.77,23.23-37.94,5.7c3.24-12.2,16.05-28.62,30.22-21.59C160.6,115.41,160.83,116.17,161,117z"/>
			<path fill="none" stroke="#000000" stroke-width="1.6475" stroke-linecap="round" d="M161,117c-1.76,0.07-2.81,0.49-4.5,0.5"/>
			<path fill="none" stroke="#000000" stroke-width="1.6691" stroke-linecap="round" d="M76.5,134.5
				c12.34,34.7,59.15,0.06,29.77-18.73C96.61,101.02,73.25,119.94,76.5,134.5z"/>
			<path fill="none" stroke="#000000" stroke-width="1.2383" stroke-linecap="round" d="M234.5,101.5c1.69-0.48,2.31-2.62,4-3"/>
			<path fill="none" stroke="#000000" stroke-width="1.2354" stroke-linecap="round" d="M208.5,89.5c0.23-0.1,0.47-0.2,0.7-0.3
				c-0.11-2.48,1.609-4.22,1.3-6.7"/>
		</g>
	</g>
</g>
</svg>
